<svg 
 xmlns="http://www.w3.org/2000/svg"
 xmlns:xlink="http://www.w3.org/1999/xlink"
 width="0.635cm" height="0.564cm">
<path fill-rule="evenodd"  fill="rgb(150, 176, 189)"
 d="M17.720,3.645 C17.569,3.451 17.355,3.302 17.081,3.197 C17.095,3.441 17.077,3.638 17.027,3.791 L13.779,14.074 C13.721,14.254 13.595,14.399 13.400,14.506 C13.205,14.614 13.003,14.668 12.794,14.668 L2.801,14.668 C1.934,14.668 1.415,14.425 1.242,13.939 C1.169,13.751 1.173,13.602 1.252,13.490 C1.332,13.386 1.469,13.334 1.664,13.334 L11.072,13.334 C11.744,13.334 12.207,13.214 12.464,12.975 C12.720,12.735 12.978,12.202 13.238,11.375 L16.204,1.937 C16.363,1.423 16.298,0.971 16.009,0.582 C15.721,0.193 15.309,-0.001 14.775,-0.001 L6.536,-0.001 C6.442,-0.001 6.258,0.030 5.984,0.093 L5.995,0.061 C5.792,0.020 5.621,0.001 5.480,0.004 C5.340,0.008 5.210,0.047 5.091,0.124 C4.971,0.201 4.876,0.282 4.804,0.369 C4.731,0.456 4.661,0.567 4.592,0.702 C4.524,0.838 4.466,0.963 4.419,1.077 C4.372,1.192 4.318,1.313 4.257,1.442 C4.196,1.571 4.136,1.676 4.078,1.760 C4.035,1.815 3.974,1.888 3.894,1.979 C3.815,2.069 3.750,2.149 3.699,2.218 C3.649,2.288 3.616,2.350 3.602,2.406 C3.588,2.468 3.595,2.560 3.624,2.682 C3.653,2.803 3.663,2.892 3.656,2.948 C3.627,3.211 3.528,3.546 3.358,3.953 C3.189,4.359 3.035,4.653 2.898,4.833 C2.869,4.868 2.790,4.946 2.660,5.068 C2.530,5.189 2.451,5.295 2.422,5.385 C2.393,5.420 2.391,5.517 2.417,5.677 C2.442,5.837 2.451,5.948 2.444,6.010 C2.415,6.246 2.325,6.559 2.173,6.948 C2.021,7.337 1.870,7.656 1.718,7.906 C1.697,7.948 1.635,8.028 1.534,8.146 C1.433,8.264 1.372,8.361 1.350,8.438 C1.336,8.493 1.338,8.590 1.356,8.729 C1.374,8.868 1.372,8.972 1.350,9.042 C1.293,9.305 1.184,9.623 1.025,9.995 C0.867,10.366 0.704,10.684 0.538,10.948 C0.495,11.018 0.435,11.100 0.360,11.193 C0.284,11.287 0.224,11.368 0.181,11.438 C0.138,11.507 0.109,11.580 0.094,11.657 C0.087,11.698 0.098,11.766 0.127,11.860 C0.156,11.953 0.166,12.028 0.159,12.084 C0.152,12.181 0.138,12.310 0.116,12.469 C0.094,12.629 0.083,12.723 0.083,12.751 C-0.075,13.167 -0.068,13.609 0.105,14.074 C0.307,14.615 0.666,15.072 1.182,15.444 C1.698,15.815 2.234,16.001 2.790,16.001 L12.783,16.001 C13.252,16.001 13.694,15.850 14.109,15.548 C14.524,15.246 14.800,14.873 14.937,14.428 L17.915,4.989 C18.074,4.489 18.009,4.041 17.720,3.645 ZM6.200,3.666 L6.428,2.999 C6.456,2.909 6.516,2.831 6.606,2.765 C6.697,2.699 6.789,2.666 6.882,2.666 L13.465,2.666 C13.566,2.666 13.638,2.699 13.682,2.765 C13.725,2.831 13.732,2.909 13.703,2.999 L13.476,3.666 C13.447,3.756 13.388,3.834 13.297,3.901 C13.207,3.966 13.115,3.999 13.021,3.999 L6.438,3.999 C6.337,3.999 6.265,3.966 6.222,3.901 C6.179,3.834 6.172,3.756 6.200,3.666 ZM5.302,6.333 L5.529,5.666 C5.558,5.576 5.618,5.498 5.708,5.432 C5.798,5.366 5.890,5.333 5.984,5.333 L12.566,5.333 C12.668,5.333 12.740,5.366 12.783,5.432 C12.826,5.498 12.834,5.576 12.805,5.666 L12.577,6.333 C12.548,6.423 12.489,6.501 12.399,6.568 C12.308,6.633 12.217,6.666 12.123,6.666 L5.540,6.666 C5.439,6.666 5.367,6.633 5.323,6.568 C5.280,6.501 5.273,6.423 5.302,6.333 Z"/>
</svg>