<svg 
 xmlns="http://www.w3.org/2000/svg"
 xmlns:xlink="http://www.w3.org/1999/xlink"
 width="0.564cm" height="0.423cm">
<path fill-rule="evenodd"  fill="rgb(150, 176, 189)"
 d="M10.576,11.996 L5.151,11.996 L5.151,10.431 C5.151,10.099 5.294,9.784 5.546,9.576 C6.931,8.411 8.420,7.640 8.723,7.489 C8.758,7.471 8.779,7.436 8.779,7.396 L8.779,5.193 C8.507,5.012 8.329,4.697 8.329,4.338 L8.329,2.056 C8.329,0.922 9.229,-0.000 10.338,-0.000 L10.576,-0.000 L10.814,-0.000 C11.922,-0.000 12.823,0.922 12.823,2.056 L12.823,4.343 C12.823,4.697 12.645,5.012 12.372,5.198 L12.372,7.400 C12.372,7.440 12.394,7.476 12.429,7.493 C12.736,7.649 14.225,8.420 15.606,9.581 C15.857,9.789 16.000,10.104 16.000,10.431 L16.000,11.996 L10.576,11.996 ZM6.147,8.087 C6.147,8.101 6.151,8.109 6.151,8.118 C5.792,8.371 5.416,8.654 5.048,8.965 C4.619,9.328 4.372,9.864 4.372,10.436 L4.372,12.000 L0.000,12.000 L0.000,10.666 C0.000,10.387 0.121,10.117 0.333,9.939 C1.507,8.951 2.775,8.295 3.035,8.167 C3.065,8.149 3.082,8.118 3.082,8.087 L3.082,6.213 C2.853,6.053 2.701,5.787 2.701,5.482 L2.701,3.536 C2.701,2.570 3.468,1.786 4.411,1.786 L4.615,1.786 L4.818,1.786 C5.762,1.786 6.528,2.570 6.528,3.536 L6.528,5.482 C6.528,5.787 6.377,6.058 6.147,6.213 L6.147,8.087 Z"/>
</svg>