<svg 
 xmlns="http://www.w3.org/2000/svg"
 xmlns:xlink="http://www.w3.org/1999/xlink"
 width="0.564cm" height="0.564cm">
<path fill-rule="evenodd"  fill="rgb(150, 176, 189)"
 d="M15.766,1.366 L14.634,0.234 C14.322,-0.078 13.816,-0.078 13.504,0.234 L11.997,2.068 C11.739,2.326 11.707,2.711 11.874,3.015 L9.026,5.866 C8.047,5.321 6.188,5.285 5.130,6.343 C4.866,6.607 4.669,6.911 4.517,7.231 C4.499,7.260 4.478,7.280 4.465,7.316 C4.313,7.740 3.998,8.025 3.548,8.025 C3.532,8.026 3.510,8.040 3.490,8.049 C2.642,8.157 1.822,8.521 1.172,9.172 C-0.391,10.734 -0.391,13.266 1.171,14.828 C2.733,16.391 5.265,16.391 6.828,14.828 C7.478,14.177 7.842,13.357 7.949,12.509 C7.958,12.489 7.973,12.468 7.973,12.451 C7.973,12.000 8.258,11.686 8.681,11.534 C8.719,11.522 8.737,11.499 8.768,11.482 C9.087,11.330 9.391,11.134 9.656,10.869 C10.713,9.811 10.614,7.889 10.133,6.973 L12.981,4.122 C13.285,4.290 13.670,4.257 13.928,3.999 L15.766,2.496 C16.078,2.184 16.079,1.678 15.766,1.366 ZM7.002,10.021 C6.451,10.021 6.005,9.572 6.005,9.017 C6.005,8.462 6.451,8.013 7.002,8.013 C7.552,8.013 7.999,8.462 7.999,9.017 C7.999,9.572 7.552,10.021 7.002,10.021 Z"/>
</svg>