<svg 
 xmlns="http://www.w3.org/2000/svg"
 xmlns:xlink="http://www.w3.org/1999/xlink"
 width="0.388cm" height="0.564cm">
<path fill-rule="evenodd"  fill="rgb(150, 176, 189)"
 d="M9.591,11.697 C8.652,12.745 7.492,13.346 6.111,13.500 L6.111,14.770 L8.555,14.770 C8.720,14.770 8.864,14.831 8.984,14.952 C9.105,15.074 9.166,15.218 9.166,15.385 C9.166,15.552 9.105,15.696 8.984,15.818 C8.864,15.940 8.720,16.001 8.555,16.001 L2.445,16.001 C2.280,16.001 2.136,15.940 2.015,15.818 C1.894,15.696 1.834,15.552 1.834,15.385 C1.834,15.218 1.894,15.074 2.015,14.952 C2.136,14.831 2.280,14.770 2.445,14.770 L4.889,14.770 L4.889,13.500 C3.508,13.346 2.348,12.745 1.409,11.697 C0.470,10.649 0.001,9.417 0.001,8.000 L0.001,6.769 C0.001,6.602 0.061,6.458 0.182,6.337 C0.303,6.215 0.446,6.154 0.612,6.154 C0.778,6.154 0.921,6.215 1.042,6.337 C1.162,6.458 1.223,6.602 1.223,6.769 L1.223,8.000 C1.223,9.186 1.641,10.201 2.478,11.043 C3.315,11.887 4.322,12.308 5.500,12.308 C6.678,12.308 7.685,11.887 8.521,11.043 C9.358,10.200 9.777,9.186 9.777,8.000 L9.777,6.769 C9.777,6.602 9.837,6.458 9.958,6.337 C10.079,6.215 10.222,6.154 10.388,6.154 C10.553,6.154 10.697,6.215 10.817,6.337 C10.938,6.458 10.999,6.602 10.999,6.769 L10.999,8.000 C10.999,9.417 10.530,10.649 9.591,11.697 ZM7.657,10.173 C7.059,10.776 6.340,11.077 5.500,11.077 C4.660,11.077 3.941,10.776 3.342,10.173 C2.744,9.571 2.445,8.846 2.445,8.000 L2.445,3.077 C2.445,2.230 2.744,1.506 3.342,0.903 C3.941,0.301 4.660,-0.001 5.500,-0.001 C6.340,-0.001 7.059,0.301 7.657,0.903 C8.256,1.506 8.555,2.230 8.555,3.077 L8.555,8.000 C8.555,8.846 8.256,9.571 7.657,10.173 Z"/>
</svg>