<svg 
 xmlns="http://www.w3.org/2000/svg"
 xmlns:xlink="http://www.w3.org/1999/xlink"
 width="0.635cm" height="0.564cm">
<path fill-rule="evenodd"  fill="rgb(150, 176, 189)"
 d="M7.500,0.000 L7.500,0.000 C11.642,0.000 15.000,2.717 15.000,6.069 C15.000,9.422 11.642,12.139 7.500,12.139 C7.102,12.139 6.712,12.114 6.331,12.065 C4.720,13.670 2.859,13.958 1.000,14.000 L1.000,13.607 C2.004,13.117 2.813,12.225 2.813,11.205 C2.813,11.063 2.801,10.923 2.781,10.787 C1.085,9.674 0.000,7.974 0.000,6.069 C0.000,2.717 3.358,0.000 7.500,0.000 ZM15.563,13.604 C15.563,14.479 16.130,15.243 17.000,15.663 L17.000,16.000 C15.389,15.964 13.910,15.717 12.513,14.342 C12.183,14.383 11.845,14.405 11.500,14.405 C10.008,14.405 8.634,14.003 7.537,13.326 C9.798,13.318 11.932,12.594 13.550,11.285 C14.366,10.624 15.010,9.850 15.463,8.982 C15.944,8.062 16.187,7.082 16.187,6.069 C16.187,5.906 16.180,5.744 16.168,5.583 C17.302,6.519 18.000,7.795 18.000,9.203 C18.000,10.835 17.060,12.292 15.590,13.246 C15.572,13.363 15.563,13.482 15.563,13.604 Z"/>
</svg>