<svg 
 xmlns="http://www.w3.org/2000/svg"
 xmlns:xlink="http://www.w3.org/1999/xlink"
 width="0.494cm" height="0.564cm">
<path fill-rule="evenodd"  fill="rgb(150, 176, 189)"
 d="M13.907,0.071 C13.847,0.016 13.769,-0.009 13.690,0.001 L5.180,1.168 C5.044,1.187 4.941,1.310 4.941,1.456 L4.941,3.207 L4.941,4.432 L4.941,11.817 C4.440,11.179 3.644,10.763 2.745,10.763 C1.231,10.763 0.000,11.938 0.000,13.382 C0.000,14.826 1.231,16.000 2.745,16.000 C4.259,16.000 5.490,14.826 5.490,13.382 C5.490,13.314 5.485,13.248 5.479,13.182 C5.483,13.163 5.490,13.146 5.490,13.126 L5.490,4.688 L13.451,3.596 L13.451,8.908 C12.950,8.269 12.153,7.854 11.255,7.854 C9.741,7.854 8.510,9.028 8.510,10.472 C8.510,11.916 9.741,13.091 11.255,13.091 C12.755,13.091 13.976,11.937 13.998,10.511 C13.998,10.507 14.000,10.504 14.000,10.500 L14.000,3.265 L14.000,2.040 L14.000,0.289 C14.000,0.205 13.966,0.126 13.907,0.071 Z"/>
</svg>