<svg 
 xmlns="http://www.w3.org/2000/svg"
 xmlns:xlink="http://www.w3.org/1999/xlink"
 width="0.564cm" height="0.564cm">
<path fill-rule="evenodd"  fill="rgb(150, 176, 189)"
 d="M12.690,2.207 L12.690,0.000 L0.000,0.000 L0.000,13.517 C0.000,14.886 1.114,16.000 2.483,16.000 L13.517,16.000 C14.886,16.000 16.000,14.886 16.000,13.517 L16.000,2.207 L12.690,2.207 ZM10.483,12.138 L2.207,12.138 L2.207,10.483 L10.483,10.483 L10.483,12.138 L10.483,12.138 ZM10.483,8.828 L2.207,8.828 L2.207,7.172 L10.483,7.172 L10.483,8.828 L10.483,8.828 ZM10.483,3.862 L10.483,5.517 L2.207,5.517 L2.207,3.862 L2.207,2.207 L10.483,2.207 L10.483,3.862 L10.483,3.862 ZM14.345,13.517 C14.345,13.974 13.974,14.345 13.517,14.345 C13.061,14.345 12.690,13.974 12.690,13.517 L12.690,3.862 L14.345,3.862 L14.345,13.517 Z"/>
</svg>