<svg 
 xmlns="http://www.w3.org/2000/svg"
 xmlns:xlink="http://www.w3.org/1999/xlink"
 width="0.529cm" height="0.564cm">
<path fill-rule="evenodd"  fill="rgb(150, 176, 189)"
 d="M14.458,12.774 C12.560,11.226 10.512,10.198 10.089,9.991 C10.042,9.968 10.012,9.920 10.012,9.867 L10.012,6.931 C10.387,6.682 10.631,6.263 10.631,5.790 L10.631,2.741 C10.631,1.229 9.393,-0.000 7.869,-0.000 L7.542,-0.000 L7.214,-0.000 C5.690,-0.000 4.452,1.229 4.452,2.741 L4.452,5.784 C4.452,6.263 4.696,6.682 5.071,6.925 L5.071,9.861 C5.071,9.914 5.042,9.962 4.994,9.985 C4.577,10.186 2.530,11.214 0.625,12.768 C0.280,13.046 0.083,13.465 0.083,13.908 L0.083,15.994 L7.542,15.994 L15.000,15.994 L15.000,13.908 C15.000,13.471 14.804,13.052 14.458,12.774 Z"/>
</svg>