<svg 
 xmlns="http://www.w3.org/2000/svg"
 xmlns:xlink="http://www.w3.org/1999/xlink"
 width="0.6cm" height="0.494cm">
<path fill-rule="evenodd"  fill="rgb(150, 176, 189)"
 d="M16.335,13.369 C15.893,13.790 15.359,14.000 14.733,14.000 L2.267,14.000 C1.641,14.000 1.107,13.790 0.665,13.369 C0.222,12.949 0.001,12.441 0.001,11.846 L0.001,4.308 C0.001,3.713 0.222,3.205 0.665,2.785 C1.107,2.364 1.641,2.154 2.267,2.154 L4.250,2.154 L4.702,1.009 C4.814,0.734 5.019,0.498 5.317,0.298 C5.615,0.099 5.921,-0.000 6.234,-0.000 L10.767,-0.000 C11.080,-0.000 11.385,0.099 11.683,0.298 C11.981,0.498 12.186,0.734 12.299,1.009 L12.750,2.154 L14.733,2.154 C15.359,2.154 15.893,2.364 16.335,2.785 C16.778,3.205 17.000,3.713 16.999,4.308 L16.999,11.846 C16.999,12.441 16.778,12.949 16.335,13.369 ZM11.302,5.414 C10.526,4.677 9.592,4.308 8.500,4.308 C7.408,4.308 6.474,4.676 5.698,5.414 C4.922,6.152 4.534,7.039 4.534,8.077 C4.534,9.115 4.922,10.003 5.698,10.740 C6.474,11.478 7.408,11.847 8.500,11.847 C9.592,11.847 10.526,11.478 11.302,10.740 C12.078,10.003 12.467,9.115 12.467,8.077 C12.467,7.039 12.078,6.152 11.302,5.414 ZM8.500,10.500 C7.798,10.500 7.197,10.263 6.698,9.789 C6.200,9.315 5.950,8.745 5.950,8.077 C5.950,7.410 6.200,6.839 6.698,6.365 C7.197,5.891 7.798,5.654 8.500,5.654 C9.202,5.654 9.803,5.891 10.302,6.365 C10.801,6.839 11.050,7.410 11.050,8.077 C11.050,8.745 10.801,9.315 10.302,9.789 C9.803,10.263 9.202,10.500 8.500,10.500 Z"/>
</svg>