<svg 
 xmlns="http://www.w3.org/2000/svg"
 xmlns:xlink="http://www.w3.org/1999/xlink"
 width="0.564cm" height="0.564cm">
<path fill-rule="evenodd"  fill="rgb(150, 176, 189)"
 d="M11.876,9.225 C12.243,8.866 12.519,8.460 12.702,8.009 C12.886,7.557 12.978,7.097 12.978,6.628 C12.978,6.159 12.886,5.695 12.702,5.238 C12.519,4.780 12.243,4.372 11.876,4.013 C11.508,3.654 11.093,3.388 10.631,3.214 C10.169,3.040 9.695,2.953 9.209,2.953 C8.723,2.953 8.249,3.040 7.787,3.214 C7.324,3.388 6.910,3.654 6.542,4.013 C6.175,4.372 5.899,4.780 5.716,5.238 C5.532,5.695 5.440,6.159 5.440,6.628 C5.440,7.097 5.532,7.557 5.716,8.009 C5.899,8.460 6.175,8.866 6.542,9.225 C6.910,9.584 7.324,9.853 7.787,10.033 C8.249,10.212 8.723,10.302 9.209,10.302 C9.695,10.302 10.169,10.212 10.631,10.033 C11.093,9.853 11.508,9.584 11.876,9.225 ZM14.009,1.928 C14.673,2.577 15.170,3.309 15.502,4.126 C15.834,4.942 16.000,5.773 16.000,6.619 C16.000,7.464 15.834,8.295 15.502,9.112 C15.170,9.928 14.673,10.661 14.009,11.309 C13.476,11.831 12.883,12.248 12.231,12.560 C11.579,12.873 10.904,13.081 10.205,13.186 C9.505,13.290 8.803,13.284 8.098,13.168 C7.393,13.052 6.720,12.832 6.080,12.508 L3.022,15.496 C2.844,15.670 2.649,15.797 2.436,15.878 C2.222,15.959 2.000,16.000 1.769,16.000 C1.538,16.000 1.316,15.959 1.102,15.878 C0.889,15.797 0.693,15.670 0.516,15.496 C0.338,15.322 0.207,15.131 0.124,14.923 C0.041,14.714 0.000,14.497 0.000,14.271 C0.000,14.046 0.041,13.829 0.124,13.620 C0.207,13.411 0.338,13.220 0.516,13.047 L3.467,10.163 C3.052,9.526 2.761,8.842 2.596,8.113 C2.430,7.383 2.385,6.654 2.462,5.924 C2.539,5.194 2.741,4.485 3.067,3.796 C3.393,3.107 3.840,2.484 4.409,1.928 C5.073,1.291 5.822,0.811 6.658,0.486 C7.493,0.162 8.344,0.000 9.209,0.000 C10.074,0.000 10.924,0.162 11.760,0.486 C12.596,0.811 13.345,1.291 14.009,1.928 Z"/>
</svg>