<svg 
 xmlns="http://www.w3.org/2000/svg"
 xmlns:xlink="http://www.w3.org/1999/xlink"
 width="0.6cm" height="0.564cm">
<path fill-rule="evenodd"  fill="rgb(150, 176, 189)"
 d="M15.949,7.112 C15.924,6.887 15.662,6.718 15.435,6.718 C14.702,6.718 14.052,6.287 13.779,5.621 C13.500,4.940 13.680,4.145 14.226,3.643 C14.398,3.486 14.419,3.223 14.275,3.040 C13.899,2.564 13.473,2.133 13.007,1.760 C12.825,1.614 12.558,1.634 12.399,1.809 C11.923,2.337 11.066,2.534 10.404,2.257 C9.715,1.968 9.281,1.270 9.324,0.520 C9.338,0.285 9.166,0.081 8.931,0.053 C8.334,-0.016 7.731,-0.018 7.131,0.049 C6.899,0.074 6.727,0.274 6.735,0.506 C6.761,1.248 6.322,1.934 5.640,2.213 C4.986,2.480 4.135,2.286 3.660,1.762 C3.502,1.590 3.239,1.569 3.056,1.711 C2.576,2.088 2.140,2.518 1.762,2.991 C1.614,3.175 1.636,3.441 1.809,3.599 C2.366,4.103 2.546,4.905 2.257,5.595 C1.981,6.253 1.298,6.677 0.516,6.677 C0.262,6.668 0.082,6.839 0.054,7.069 C-0.016,7.670 -0.017,8.283 0.051,8.889 C0.076,9.114 0.346,9.282 0.575,9.282 C1.272,9.264 1.941,9.695 2.221,10.378 C2.501,11.060 2.321,11.855 1.774,12.356 C1.603,12.514 1.581,12.776 1.725,12.959 C2.097,13.433 2.523,13.864 2.991,14.240 C3.174,14.387 3.441,14.367 3.600,14.192 C4.078,13.662 4.935,13.466 5.594,13.743 C6.284,14.032 6.719,14.730 6.676,15.479 C6.662,15.715 6.835,15.920 7.069,15.946 C7.374,15.982 7.682,16.000 7.990,16.000 C8.283,16.000 8.576,15.984 8.869,15.951 C9.100,15.926 9.272,15.726 9.265,15.493 C9.238,14.752 9.678,14.066 10.359,13.787 C11.017,13.518 11.864,13.715 12.340,14.238 C12.498,14.410 12.760,14.431 12.944,14.288 C13.423,13.913 13.858,13.483 14.238,13.009 C14.386,12.826 14.365,12.559 14.190,12.401 C13.634,11.897 13.453,11.094 13.742,10.405 C14.014,9.756 14.672,9.321 15.379,9.321 L15.478,9.323 C15.707,9.342 15.918,9.165 15.946,8.931 C16.016,8.329 16.017,7.718 15.949,7.112 ZM8.013,10.685 C6.541,10.685 5.344,9.488 5.344,8.017 C5.344,6.545 6.541,5.349 8.013,5.349 C9.484,5.349 10.681,6.545 10.681,8.017 C10.681,9.488 9.484,10.685 8.013,10.685 Z"/>
</svg>