<svg width="29" height="37" viewBox="0 0 29 37" fill="none" xmlns="http://www.w3.org/2000/svg">
<path d="M23.75 4.625H21.4375C21.4375 2.07083 18.3318 0 14.5 0C10.6682 0 7.5625 2.07083 7.5625 4.625H5.25C2.69583 4.625 0.625 6.69583 0.625 9.25V32.375C0.625 34.9292 2.69583 37 5.25 37H23.75C26.3042 37 28.375 34.9292 28.375 32.375V9.25C28.375 6.69583 26.3042 4.625 23.75 4.625ZM14.5 2.3125C17.0542 2.3125 19.125 3.02821 19.125 4.625H9.875C9.875 3.02821 11.9458 2.3125 14.5 2.3125ZM26.0625 32.375C26.0625 33.6515 25.0265 34.6875 23.75 34.6875H5.25C3.97233 34.6875 2.9375 33.6515 2.9375 32.375V30.0625H26.0625V32.375ZM26.0625 27.75H2.9375V9.25C2.9375 7.97233 3.97233 6.9375 5.25 6.9375H7.5625V13.875H9.875V6.9375H19.125V13.875H21.4375V6.9375H23.75C25.0277 6.9375 26.0625 7.97233 26.0625 9.25V27.75Z" fill="white"/>
</svg>
