<svg width="27" height="37" viewBox="0 0 27 37" fill="none" xmlns="http://www.w3.org/2000/svg">
<path d="M25.0625 34.6875H22.75V26.5938C22.75 22.1237 19.1263 18.5 14.6562 18.5C19.1263 18.5 22.75 14.8763 22.75 10.4062V2.3125H25.0625C25.7008 2.3125 26.2188 1.7945 26.2188 1.15625C26.2188 0.518 25.7008 0 25.0625 0H1.9375C1.29925 0 0.78125 0.518 0.78125 1.15625C0.78125 1.7945 1.29925 2.3125 1.9375 2.3125H4.25V10.4062C4.25 14.8763 7.87366 18.5 12.3438 18.5C7.87366 18.5 4.25 22.1237 4.25 26.5938V34.6875H1.9375C1.29925 34.6875 0.78125 35.2055 0.78125 35.8438C0.78125 36.482 1.29925 37 1.9375 37H25.0625C25.7008 37 26.2188 36.482 26.2188 35.8438C26.2188 35.2055 25.7008 34.6875 25.0625 34.6875ZM6.5625 10.4062C6.5625 8.37933 6.5625 2.3125 6.5625 2.3125H20.4375C20.4375 2.3125 20.4375 8.54583 20.4375 10.4062C20.4375 13.5987 17.7191 16.1875 14.3672 16.1875H12.6328C9.28083 16.1875 6.5625 13.5987 6.5625 10.4062ZM20.4375 34.6875H6.5625C6.5625 34.6875 6.5625 28.6195 6.5625 26.5938C6.5625 23.4013 9.28083 20.8125 12.6328 20.8125H14.3672C17.7192 20.8125 20.4375 23.4013 20.4375 26.5938C20.4375 28.4541 20.4375 34.6875 20.4375 34.6875Z" fill="white"/>
</svg>
