<svg width="31" height="37" viewBox="0 0 31 37" fill="none" xmlns="http://www.w3.org/2000/svg">
<path d="M30.2021 14.134L26.7565 7.26357C26.5102 7.01728 26.183 6.91667 25.8604 6.9375H18.9668V4.62503C18.9668 2.07085 16.896 0 14.3418 0H12.0293C9.47514 0 7.40429 2.07085 7.40429 4.62503V6.9375H2.77931C1.50284 6.9375 0.466797 7.97236 0.466797 9.25001V20.8125C0.466797 22.0901 1.50279 23.125 2.77931 23.125H7.40429V32.375C7.40429 34.9291 9.47514 37 12.0293 37H14.3418C16.8959 37 18.9668 34.9292 18.9668 32.375V23.125H25.9043V23.0972C26.2119 23.1054 26.5217 22.9979 26.7565 22.7631L30.2021 15.8926C30.4623 15.407 30.497 15.2486 30.5317 15.0139C30.5478 14.6971 30.4449 14.5745 30.2021 14.134ZM9.71681 4.62503C9.71681 3.34737 10.7528 2.31252 12.0293 2.31252H14.3418C15.6194 2.31252 16.6543 3.34733 16.6543 4.62503V6.9375H9.71681V4.62503ZM16.6544 32.375C16.6544 33.6515 15.6195 34.6875 14.3418 34.6875H12.0294C10.7517 34.6875 9.71686 33.6515 9.71686 32.375V23.125H16.6544V32.375ZM25.369 20.6067C25.1875 20.7258 24.9816 20.8124 24.7481 20.8124H3.93557C3.29733 20.8124 2.77931 20.2945 2.77931 19.6562V10.4062C2.77931 9.76798 3.29728 9.24996 3.93557 9.24996H24.7481C24.9943 9.24996 25.2094 9.3436 25.3967 9.47429L28.174 15.0127L25.369 20.6067Z" fill="white"/>
</svg>
