<svg width="16" height="12" viewBox="0 0 16 12" fill="none" xmlns="http://www.w3.org/2000/svg">
<path d="M15.9999 6.3113C15.9708 6.52712 15.9485 6.744 15.9118 6.95833C15.6078 8.72501 14.6897 10.0875 13.1809 11.0444C11.9986 11.7945 10.6943 12.0736 9.31233 11.8956C7.55138 11.6687 6.16004 10.8014 5.13894 9.34803C4.89784 9.00477 4.97177 8.57122 5.29422 8.3348C5.62432 8.09285 6.06487 8.15382 6.31425 8.5041C6.78922 9.17088 7.37847 9.69619 8.11684 10.0548C10.0072 10.9726 12.362 10.3993 13.6234 8.71651C14.3224 7.78421 14.6419 6.7338 14.5193 5.58164C14.346 3.9526 13.5267 2.71059 12.0502 1.99326C10.2943 1.1404 8.62197 1.37554 7.11316 2.61288C6.80791 2.86311 6.56979 3.19809 6.31468 3.50568C6.07443 3.79499 5.72946 3.89716 5.41083 3.74762C5.00278 3.55602 4.86619 3.06448 5.12216 2.67639C5.40446 2.24837 5.74285 1.8675 6.12945 1.53018C7.03244 0.74211 8.07881 0.261832 9.26517 0.106129C10.3782 -0.0400148 11.4552 0.112289 12.481 0.576636C13.6763 1.11767 14.5965 1.96522 15.2416 3.10569C15.6647 3.85362 15.9086 4.65996 15.9729 5.51898C15.9772 5.57527 15.9903 5.63092 15.9995 5.68679C15.9999 5.89475 15.9999 6.10313 15.9999 6.3113Z" fill="#5F81A7"/>
<path d="M2.49532 6.72359C2.55522 6.78859 2.58794 6.82661 2.6232 6.86187C2.88405 7.12378 3.14915 7.38145 3.40532 7.64761C3.70908 7.96305 3.71227 8.40721 3.42147 8.69547C3.1296 8.98478 2.6865 8.97819 2.37361 8.66785C1.65669 7.95689 0.942968 7.24252 0.231366 6.52583C-0.0789771 6.21336 -0.0768529 5.78151 0.23519 5.46777C0.943393 4.75532 1.65351 4.04478 2.36617 3.33679C2.68544 3.01965 3.13194 3.01073 3.4255 3.30578C3.71694 3.59849 3.70462 4.04521 3.3913 4.36596C3.10773 4.65633 2.81926 4.94204 2.53335 5.23007C2.53016 5.23326 2.53016 5.23985 2.52018 5.27426C2.58411 5.27426 2.64104 5.27426 2.69818 5.27426C5.39951 5.27426 8.10105 5.27553 10.8024 5.27235C11.0789 5.27192 11.3188 5.33565 11.4887 5.56591C11.6533 5.78916 11.6818 6.03684 11.5711 6.28877C11.4579 6.54664 11.2531 6.69385 10.9687 6.7187C10.8963 6.72507 10.8232 6.7238 10.7503 6.7238C8.06982 6.72401 5.3891 6.72401 2.70859 6.72401C2.65188 6.72359 2.59495 6.72359 2.49532 6.72359Z" fill="#5F81A7"/>
</svg>
