<svg width="14" height="16" viewBox="0 0 14 16" fill="none" xmlns="http://www.w3.org/2000/svg">
<path d="M10.4999 9.49999H3.49988C3.22388 9.49999 2.99988 9.72401 2.99988 9.99999C2.99988 10.276 3.22388 10.5 3.49988 10.5H10.4999C10.7759 10.5 10.9999 10.276 10.9999 9.99999C10.9999 9.72401 10.7759 9.49999 10.4999 9.49999ZM10.4999 12H3.49988C3.22388 12 2.99988 12.224 2.99988 12.5C2.99988 12.776 3.22388 13 3.49988 13H10.4999C10.7759 13 10.9999 12.776 10.9999 12.5C10.9999 12.224 10.7759 12 10.4999 12ZM11.9999 2.00001H10.4999V0.999994H9.15289C8.71987 0.404513 7.92288 0 6.99988 0C6.07689 0 5.2799 0.404513 4.84688 0.999994H3.49988V1.99999H1.99989C0.895375 1.99999 -0.00012207 2.89549 -0.00012207 3.99998V14C-0.00012207 15.1045 0.895375 16 1.99989 16H11.9999C13.1044 16 13.9999 15.1045 13.9999 14V4C13.9999 2.89551 13.1044 2.00001 11.9999 2.00001ZM4.49988 2.00001H5.61086C5.61086 1.44802 6.23286 1.00002 6.99986 1.00002C7.76687 1.00002 8.38886 1.44751 8.38886 2.00001H9.49989V4H4.49988V2.00001ZM12.9999 14C12.9999 14.552 12.5524 15 11.9999 15H1.99989C1.44739 15 0.999895 14.552 0.999895 14V4C0.999895 3.44801 1.44739 3.00001 1.99989 3.00001H3.49988V5.00002H10.4999V3.00001H11.9999C12.5524 3.00001 12.9999 3.44801 12.9999 4V14ZM10.4999 7.00001H3.49988C3.22388 7.00001 2.99988 7.22401 2.99988 7.5C2.99988 7.776 3.22388 8 3.49988 8H10.4999C10.7759 8 10.9999 7.776 10.9999 7.5C10.9999 7.22401 10.7759 7.00001 10.4999 7.00001Z" fill="#5F81A7"/>
</svg>
