<svg width="16" height="16" viewBox="0 0 16 16" fill="none" xmlns="http://www.w3.org/2000/svg">
<path d="M15.999 7.67811C15.9512 5.58451 15.0922 3.63344 13.5804 2.18454C12.0714 0.738389 10.0898 -0.0365142 7.99999 0.00150874C5.91085 -0.0371515 3.9292 0.738177 2.41975 2.18454C0.907972 3.63344 0.0489514 5.5843 0.00094484 7.67832L0.000732422 7.69383C0.0115658 9.80761 0.913707 11.8296 2.47796 13.2492V15.1113C2.47796 15.531 2.77173 15.8968 3.17639 15.9811C3.23608 15.9935 3.29662 15.9998 3.35652 15.9998C3.52008 15.9998 3.68046 15.9537 3.82044 15.8662L5.31183 14.9345C6.1734 15.2304 7.07215 15.3804 7.98427 15.3804H7.99383C8.04545 15.3815 8.09579 15.3819 8.14762 15.3819C10.1809 15.3817 12.1103 14.6059 13.5802 13.1974C15.0922 11.7483 15.9512 9.79741 15.9988 7.70381L15.999 7.69085V7.67811ZM12.7945 12.3774C11.5338 13.5857 9.88818 14.2463 8.14762 14.2463C8.10238 14.2463 8.05692 14.2459 8.01167 14.245L7.99872 14.2448C7.9934 14.2448 7.98788 14.2448 7.98257 14.2448C7.14734 14.2448 6.32549 14.0987 5.53955 13.8104C5.31056 13.7265 5.06118 13.7522 4.85535 13.8809L3.61376 14.6565V13.0899C3.61376 12.8637 3.51541 12.6485 3.34399 12.4996C1.95286 11.2903 1.14843 9.53953 1.13675 7.69595C1.17966 5.90802 1.91441 4.24202 3.2057 3.00447C4.49891 1.76522 6.19826 1.10205 7.98958 1.1371L8.0002 1.13731L8.01146 1.1371C9.803 1.10205 11.5019 1.76543 12.7947 3.00447C14.0847 4.24075 14.8193 5.90505 14.8634 7.69107C14.8193 9.47687 14.0845 11.1414 12.7945 12.3774Z" fill="#5F81A7"/>
<path d="M11.3925 5.3746H4.60747C4.29436 5.3746 4.03967 5.6293 4.03967 5.9424C4.03967 6.25551 4.29436 6.51042 4.60747 6.51042H11.3925C11.7056 6.51042 11.9605 6.25572 11.9605 5.9424C11.9605 5.6293 11.7059 5.3746 11.3925 5.3746Z" fill="#5F81A7"/>
<path d="M11.3925 7.42298H4.60747C4.29436 7.42298 4.03967 7.67767 4.03967 7.99078C4.03967 8.30388 4.29436 8.55878 4.60747 8.55878H11.3925C11.7056 8.55878 11.9605 8.30409 11.9605 7.99078C11.9605 7.67767 11.7059 7.42298 11.3925 7.42298Z" fill="#5F81A7"/>
<path d="M11.3924 9.47112H8.05632C7.74322 9.47112 7.48853 9.72581 7.48853 10.0391C7.48853 10.3522 7.74322 10.6069 8.05632 10.6069H11.3924C11.7055 10.6069 11.9604 10.3522 11.9604 10.0391C11.9604 9.72602 11.7057 9.47112 11.3924 9.47112Z" fill="#5F81A7"/>
</svg>
