<svg width="22" height="35" viewBox="0 0 22 35" fill="none" xmlns="http://www.w3.org/2000/svg">
<path fill-rule="evenodd" clip-rule="evenodd" d="M15.4756 19.4931C15.101 19.9509 14.5335 20.16 13.9858 20.0985L12.7598 20.0096L11.7656 20.5421C11.2529 20.8155 10.6608 20.7957 10.184 20.5393L9.07631 19.984L7.94495 20.0966C7.37644 20.1524 6.84671 19.9178 6.50333 19.5129L5.67563 18.5557L4.80725 18.2936V34.3161L10.9786 31.2304L17.15 34.3161V18.2936L16.1983 18.6096L15.4756 19.4931Z" fill="#7500B2"/>
<path d="M15.6111 15.3482C18.1711 12.7882 18.1711 8.63757 15.6111 6.07755C13.051 3.51753 8.90042 3.51753 6.3404 6.07755C3.78038 8.63757 3.78038 12.7882 6.3404 15.3482C8.90042 17.9082 13.051 17.9082 15.6111 15.3482Z" fill="#C7D9DA"/>
<path fill-rule="evenodd" clip-rule="evenodd" d="M17.5358 10.7119C17.5358 14.333 14.6005 17.2682 10.9795 17.2682C7.35837 17.2682 4.4231 14.333 4.4231 10.7119C4.4231 7.09079 7.35837 4.15552 10.9795 4.15552C14.6005 4.15458 17.5358 7.09079 17.5358 10.7119ZM20.2516 12.6123L20.8069 11.5046C21.0623 11.0278 21.0831 10.4366 20.8097 9.92295L20.2771 8.92876L20.3661 7.70282C20.4276 7.15512 20.2185 6.58849 19.7607 6.21295L18.8771 5.49025L18.5234 4.42323C18.3909 3.8566 17.969 3.37512 17.3722 3.19444L17.1508 3.12728L16.2824 2.86525L15.4547 1.90796C15.1113 1.50309 14.5807 1.2685 14.0131 1.32431L12.8808 1.43688L11.7731 0.881605C11.2963 0.6262 10.7051 0.605389 10.1915 0.878767L9.19729 1.41133L7.97134 1.32242C7.42364 1.26093 6.85702 1.46998 6.48148 1.92782L5.75878 2.81133L4.80715 3.12728L4.69175 3.16606C4.12513 3.2985 3.64364 3.72039 3.46297 4.31728L3.13378 5.40701L2.17648 6.23471C1.77162 6.57809 1.53702 7.10877 1.59283 7.67633L1.7054 8.80768L1.15013 9.91539C0.894724 10.3921 0.873913 10.9834 1.14729 11.497L1.67986 12.4912L1.59094 13.7171C1.52945 14.2648 1.73851 14.8315 2.19635 15.207L3.07986 15.9297L3.43364 16.9967C3.56607 17.5634 3.98797 18.0448 4.58486 18.2255L4.80621 18.2927L5.67459 18.5547L6.50229 19.512C6.84567 19.9169 7.37634 20.1515 7.94391 20.0957L9.07526 19.9831L10.183 20.5384C10.6597 20.7938 11.2509 20.8146 11.7646 20.5412L12.7588 20.0086L13.9847 20.0975C14.5324 20.159 15.099 19.95 15.4746 19.4921L16.1973 18.6086L17.1489 18.2927L17.2643 18.2539C17.8309 18.1215 18.3124 17.6996 18.4931 17.1027L18.8223 16.012L19.7796 15.1843C20.1844 14.8409 20.419 14.3102 20.3632 13.7427L20.2516 12.6123Z" fill="#FFC144"/>
<path fill-rule="evenodd" clip-rule="evenodd" d="M11.2955 30.9552L17.0515 33.9756L16.8548 18.4233L14.6025 19.9434L12.0456 20.056L11.1346 20.7295L11.2955 30.9552Z" fill="#B400FF"/>
<path d="M10.9786 3.47165C6.98571 3.47165 3.73828 6.72003 3.73828 10.7119C3.73828 13.44 5.24707 15.9089 7.67531 17.1566C8.01112 17.3288 8.42355 17.1964 8.59571 16.8606C8.76788 16.5248 8.63544 16.1123 8.29963 15.9402C6.32923 14.928 5.10517 12.9254 5.10517 10.7119C5.10517 7.473 7.73963 4.83854 10.9786 4.83854C14.2175 4.83854 16.8519 7.473 16.8519 10.7119C16.8519 12.9254 15.6279 14.928 13.6575 15.9402C13.3217 16.1123 13.1892 16.5248 13.3614 16.8606C13.4825 17.0961 13.7218 17.2323 13.9696 17.2323C14.0746 17.2323 14.1815 17.2077 14.2818 17.1566C16.71 15.9099 18.2188 13.44 18.2188 10.7119C18.2198 6.71908 14.9714 3.47165 10.9786 3.47165Z" fill="black"/>
<path d="M21.4123 9.60041L20.9734 8.78122L21.0472 7.76622C21.1323 6.96974 20.8135 6.19312 20.1939 5.68609L19.4646 5.08825L19.1818 4.2369C18.9812 3.43001 18.3663 2.78298 17.5699 2.54176L16.6693 2.26933L15.975 1.46622C15.4736 0.8769 14.715 0.569467 13.9441 0.645143L13.0095 0.737846L12.0872 0.275278C11.3919 -0.0936407 10.5642 -0.0936407 9.86892 0.27717L9.04973 0.716089L8.03473 0.642305C7.23825 0.558116 6.46162 0.875954 5.9546 1.49555L5.35676 2.22487L4.50541 2.50771C3.69852 2.70825 3.05149 3.32312 2.81027 4.1196L2.53784 5.02014L1.73473 5.71447C1.14541 6.21582 0.837977 6.97447 0.913652 7.74541L1.00635 8.68001L0.543787 9.60231C0.174868 10.2976 0.174868 11.1253 0.545679 11.8205L0.984598 12.6397L0.910814 13.6547C0.826625 14.4512 1.14446 15.2278 1.76406 15.7349L2.49338 16.3327L2.77622 17.1841C2.95406 17.8992 3.4573 18.4885 4.12325 18.7808V34.3142C4.12325 34.5507 4.24622 34.7711 4.4477 34.896C4.64919 35.0208 4.90081 35.0322 5.11271 34.9262L10.9785 31.9938L16.8443 34.9262C16.9408 34.9745 17.0458 34.9981 17.1499 34.9981C17.2747 34.9981 17.3996 34.9641 17.5093 34.896C17.7108 34.7711 17.8338 34.5516 17.8338 34.3142V18.7827C18.46 18.5074 18.9472 17.9692 19.1486 17.3023L19.4211 16.4018L20.2242 15.7074C20.8135 15.2061 21.1209 14.4474 21.0453 13.6765L20.9526 12.7419L21.4151 11.8196C21.7831 11.1243 21.7831 10.2957 21.4123 9.60041ZM5.49108 19.3872L5.98298 19.9566C6.48433 20.546 7.24297 20.8534 8.01392 20.7777L8.94851 20.685L9.87081 21.1476C10.008 21.2204 10.1499 21.2781 10.2946 21.3226V30.8095L5.49108 33.2112V19.3872ZM11.6624 30.8085V21.3216C11.8091 21.2772 11.9519 21.2185 12.09 21.1457L12.9092 20.7068L13.9242 20.7805C14.7207 20.8657 15.4973 20.5469 16.0043 19.9273L16.4659 19.3635V33.2122L11.6624 30.8085ZM20.2043 11.182C20.2015 11.1877 20.1986 11.1934 20.1958 11.1991L19.6405 12.3068C19.5828 12.4222 19.5582 12.5527 19.5715 12.6814L19.6841 13.8127C19.7162 14.1362 19.5866 14.456 19.3341 14.6707L18.3768 15.4984C18.2793 15.5835 18.2074 15.6942 18.1696 15.8181L17.8404 16.9088C17.7373 17.2493 17.4582 17.5114 17.1111 17.5918C17.0912 17.5965 17.0704 17.6022 17.0505 17.6088L15.9835 17.9626C15.8605 18.0033 15.7518 18.078 15.6704 18.1783L14.9468 19.0618C14.732 19.3247 14.4009 19.4591 14.0632 19.4212C14.0538 19.4203 14.0453 19.4193 14.0358 19.4184L12.8099 19.3295C12.6803 19.32 12.5516 19.3474 12.4381 19.4089L11.4458 19.9405C11.1526 20.0966 10.8026 20.0957 10.5093 19.9387C10.5036 19.9358 10.498 19.933 10.4923 19.9301L9.3846 19.3749C9.28906 19.3266 9.18406 19.302 9.07811 19.302C9.05541 19.302 9.0327 19.303 9.01 19.3058L7.8796 19.4184C7.55608 19.4505 7.23635 19.321 7.02162 19.0684L6.19392 18.1111C6.10879 18.0137 5.99811 17.9418 5.87419 17.9039L4.78352 17.5747C4.44298 17.4716 4.18095 17.1926 4.10054 16.8454C4.09581 16.8255 4.09014 16.8047 4.08352 16.7849L3.72973 15.7178C3.68906 15.5949 3.61433 15.4861 3.51406 15.4047L2.63054 14.6811C2.36757 14.4664 2.23325 14.1353 2.27108 13.7976C2.27203 13.7881 2.27298 13.7796 2.27392 13.7701L2.36284 12.5442C2.3723 12.4155 2.34487 12.286 2.28338 12.1724L1.75176 11.1801C1.59568 10.8869 1.59662 10.5369 1.75365 10.2437C1.75649 10.238 1.75933 10.2323 1.76216 10.2266L2.31744 9.11893C2.37514 9.00352 2.39973 8.87298 2.38649 8.74433L2.27392 7.61393C2.24176 7.29041 2.37135 6.97068 2.62392 6.75595L3.58122 5.92825C3.67865 5.84312 3.75054 5.73244 3.78838 5.60852L4.11757 4.51785C4.22068 4.1773 4.49973 3.91528 4.84689 3.83487C4.86676 3.83014 4.88757 3.82447 4.90743 3.81785L5.97446 3.46406C6.09743 3.42339 6.20622 3.34866 6.28757 3.24839L7.01122 2.36487C7.22595 2.1019 7.55703 1.96758 7.89473 2.00541C7.90419 2.00636 7.9127 2.00731 7.92216 2.00825L9.14811 2.09717C9.2777 2.10663 9.40635 2.0792 9.52081 2.01771L10.5131 1.48609C10.8064 1.33001 11.1564 1.33095 11.4496 1.48798C11.4553 1.49082 11.4609 1.49366 11.4666 1.49649L12.5743 2.05176C12.6897 2.10947 12.8203 2.13406 12.9489 2.12082L14.0803 2.00825C14.4047 1.97609 14.7235 2.10568 14.9382 2.35825L15.7659 3.31555C15.8511 3.41298 15.9618 3.48487 16.0857 3.52271L17.1763 3.8519C17.5169 3.95501 17.7789 4.23406 17.8593 4.58122C17.8641 4.60109 17.8697 4.6219 17.8764 4.64176L18.2301 5.70879C18.2708 5.83176 18.3455 5.94055 18.4458 6.0219L19.3293 6.74555C19.5923 6.96028 19.7266 7.29136 19.6888 7.63001C19.6878 7.63852 19.6869 7.64798 19.6859 7.65744L19.597 8.88339C19.5876 9.01204 19.615 9.14163 19.6765 9.25514L20.2081 10.2474C20.3632 10.5388 20.3623 10.8888 20.2043 11.182Z" fill="black"/>
<path d="M11.7372 12.7627H11.6634V7.97717C11.6634 7.73312 11.5328 7.50703 11.3219 7.38501C11.11 7.26298 10.8499 7.26298 10.638 7.38501L9.88027 7.82298C9.55298 8.01217 9.44135 8.43028 9.63054 8.75663C9.77054 8.99879 10.0354 9.12271 10.2965 9.09433V12.7618H10.2218C9.84433 12.7618 9.53784 13.0682 9.53784 13.4457C9.53784 13.8231 9.84433 14.1296 10.2218 14.1296H11.7372C12.1146 14.1296 12.4211 13.8231 12.4211 13.4457C12.4211 13.0682 12.1146 12.7627 11.7372 12.7627Z" fill="black"/>
<path d="M10.9785 16.5853C10.6001 16.5853 10.2946 16.8918 10.2946 17.2692C10.2946 17.6466 10.601 17.9531 10.9785 17.9531C11.3559 17.9531 11.6624 17.6466 11.6624 17.2692C11.6624 16.8918 11.3569 16.5853 10.9785 16.5853Z" fill="black"/>
</svg>
