<svg width="35" height="35" viewBox="0 0 35 35" fill="none" xmlns="http://www.w3.org/2000/svg">
<path fill-rule="evenodd" clip-rule="evenodd" d="M4.51167 17.5C4.51167 10.327 10.327 4.5117 17.5 4.5117C24.6729 4.5117 30.4882 10.327 30.4882 17.5C30.4882 24.6729 24.6729 30.4883 17.5 30.4883C10.327 30.4883 4.51167 24.6729 4.51167 17.5ZM20.6876 1.95096L18.8309 1.01922C18.0318 0.589921 17.0392 0.555742 16.1793 1.01443L14.5126 1.90789L12.4578 1.75955C11.539 1.65633 10.5888 2.00633 9.95991 2.77469L8.74722 4.25535L6.95825 4.84939C6.00874 5.07088 5.20005 5.77977 4.8979 6.77986L4.34556 8.60848L2.74048 9.99685C2.06236 10.5731 1.66861 11.4618 1.76226 12.4147L1.95161 14.3124L1.01987 16.169C0.590578 16.9681 0.556398 17.9607 1.01509 18.8207L1.90855 20.4873L1.76021 22.5422C1.65698 23.4609 2.00698 24.4111 2.77534 25.04L4.25601 26.2527L4.85005 28.0417C5.07154 28.9912 5.78042 29.7999 6.78052 30.102L8.60913 30.6544L9.99751 32.2594C10.5738 32.9376 11.4625 33.3313 12.4154 33.2377L14.313 33.0483L16.1704 33.9801C16.9695 34.4094 17.9614 34.4435 18.822 33.9848L20.4886 33.0914L22.5435 33.2397C23.4623 33.3429 24.4125 32.9929 25.0414 32.2246L26.2541 30.7439L28.043 30.1499C28.9925 29.9284 29.8012 29.2195 30.1034 28.2194L30.6557 26.3915L32.2608 25.0031C32.9389 24.4268 33.3327 23.5382 33.239 22.5852L33.0497 20.6876L33.9814 18.8303C34.4107 18.0311 34.4449 17.0386 33.9862 16.1786L33.0927 14.512L33.2411 12.4571C33.3443 11.5384 32.9943 10.5882 32.2259 9.95926L30.7453 8.74656L30.1512 6.9576C29.9297 6.00809 29.2209 5.19939 28.2208 4.89725L26.3928 4.3449L25.0044 2.73982C24.4282 2.0617 23.5395 1.66795 22.5866 1.7616L20.6876 1.95096Z" fill="#EAEAEA"/>
<path d="M17.5 30.4883C24.6732 30.4883 30.4883 24.6732 30.4883 17.5C30.4883 10.3268 24.6732 4.51172 17.5 4.51172C10.3268 4.51172 4.51172 10.3268 4.51172 17.5C4.51172 24.6732 10.3268 30.4883 17.5 30.4883Z" fill="#C1C1C1"/>
<path fill-rule="evenodd" clip-rule="evenodd" d="M19.9616 14.0847C19.2056 13.356 18.9397 12.2206 19.3184 11.31C19.7333 10.312 19.7169 9.52379 19.2459 8.62897C18.7674 7.72116 17.1562 6.98698 16.934 8.07868C16.8342 8.5695 16.9976 9.63727 16.2819 11.0086C15.467 12.5692 16.2743 14.5325 13.9166 14.5325V23.949C15.5361 23.949 17.1555 24.8459 18.7749 24.8459H22.7213C24.7345 24.8459 25.2773 22.6796 24.6039 22.0336C25.6177 21.6043 25.9294 20.1509 25.3812 19.4475C26.4469 18.9218 26.5706 17.2641 25.8604 16.8711C26.6322 16.8547 27.2631 16.2353 27.2631 15.495C27.2631 14.6678 26.6055 14.084 25.8255 14.084L19.9616 14.0847Z" fill="#FFDCD5"/>
<path fill-rule="evenodd" clip-rule="evenodd" d="M13.9159 23.9497V14.5332V14.0676H10.3038V24.4152H13.9159V23.9497Z" fill="#8481E2"/>
<path d="M20.7149 4.20955C20.3472 4.12137 19.9787 4.34696 19.8898 4.71404C19.8017 5.08113 20.0272 5.45028 20.3943 5.53914C25.9349 6.8742 29.8047 11.7927 29.8047 17.5C29.8047 24.2846 24.2847 29.8047 17.5 29.8047C10.7153 29.8047 5.19531 24.2846 5.19531 17.5C5.19531 11.7933 9.06445 6.8742 14.605 5.53846C14.9721 5.45028 15.1977 5.08045 15.1095 4.71336C15.0213 4.34627 14.6515 4.12069 14.2844 4.20887C11.3531 4.91571 8.69736 6.61033 6.80654 8.97967C4.8583 11.4228 3.82812 14.3691 3.82812 17.5C3.82812 25.0387 9.96133 31.1719 17.5 31.1719C25.0387 31.1719 31.1719 25.0387 31.1719 17.5C31.1719 14.3691 30.1417 11.4228 28.1928 8.98035C26.302 6.61033 23.6462 4.91639 20.7149 4.20955Z" fill="black"/>
<path d="M34.5885 15.8559L33.7887 14.3637L33.922 12.5193C34.0505 11.3367 33.5788 10.1828 32.6587 9.43085L31.3312 8.34393L30.8089 6.77098C30.5163 5.56786 29.603 4.60126 28.4177 4.24374L26.7791 3.74882L25.524 2.29686C24.7816 1.42323 23.6578 0.969324 22.5176 1.08143L20.8168 1.25096L19.1447 0.412195C18.1146 -0.136731 16.8861 -0.137415 15.8553 0.412195L14.363 1.212L12.5187 1.0787C11.336 0.950183 10.1821 1.42186 9.43018 2.34198L8.34326 3.66952L6.77031 4.19178C5.56719 4.48436 4.60059 5.39764 4.24307 6.583L3.74814 8.22157L2.29688 9.47596C1.42324 10.2183 0.968652 11.3422 1.08145 12.4824L1.25098 14.1832L0.412207 15.8553C-0.137402 16.8854 -0.137402 18.1139 0.412207 19.1447L1.21201 20.637L1.07871 22.4813C0.950195 23.6639 1.42187 24.8172 2.34199 25.5698L3.66953 26.6567L4.1918 28.2297C4.48438 29.4328 5.39766 30.3994 6.58301 30.7569L8.22158 31.2518L9.47666 32.7024C10.219 33.5761 11.3429 34.0306 12.4831 33.9179L14.1839 33.7483L15.856 34.5871C16.3714 34.8619 16.936 34.9993 17.5014 34.9993C18.066 34.9993 18.6307 34.8619 19.1454 34.5871L20.6377 33.7873L22.482 33.9206C23.6646 34.0484 24.8179 33.5774 25.5705 32.6573L26.6574 31.3298L28.2304 30.8075C29.4328 30.5149 30.3994 29.6016 30.7576 28.4163L31.2525 26.7777L32.7031 25.5226C33.5768 24.7803 34.0313 23.6564 33.9192 22.5162L33.7497 20.8154L34.5885 19.1433C35.1374 18.1145 35.1381 16.8861 34.5885 15.8559ZM33.3785 18.5069C33.3758 18.5124 33.3724 18.5179 33.3696 18.524L32.4379 20.3813C32.3798 20.4969 32.3559 20.6267 32.3688 20.7559L32.5582 22.6529C32.6266 23.3468 32.3497 24.031 31.8131 24.487L30.208 25.8754C30.1103 25.9601 30.0385 26.0709 30.0009 26.1946L29.4485 28.0225C29.2284 28.7513 28.6303 29.3118 27.8872 29.4854C27.8667 29.4902 27.8469 29.4957 27.8271 29.5025L26.0381 30.0966C25.915 30.1376 25.8063 30.2121 25.7243 30.3126L24.5116 31.7939C24.0509 32.3572 23.3434 32.6443 22.6194 32.563C22.6105 32.5616 22.601 32.5609 22.5921 32.5602L20.5372 32.4119C20.408 32.4023 20.2788 32.4304 20.1646 32.4912L18.4994 33.384C17.8712 33.7189 17.1213 33.7176 16.4924 33.3799C16.4869 33.3771 16.4814 33.3737 16.4753 33.371L14.6187 32.4392C14.5229 32.3914 14.4184 32.3668 14.3124 32.3668C14.2898 32.3668 14.2673 32.3681 14.2447 32.3702L12.3478 32.5596C11.6539 32.6279 10.9696 32.3511 10.5137 31.8144L9.12529 30.2094C9.04053 30.1116 8.92979 30.0398 8.80606 30.0022L6.97744 29.4499C6.24805 29.2298 5.68818 28.6316 5.51455 27.8886C5.50977 27.8681 5.5043 27.8482 5.49746 27.8284L4.90342 26.0394C4.8624 25.9164 4.78789 25.8077 4.68809 25.7257L3.20674 24.513C2.64346 24.0522 2.35635 23.3447 2.4377 22.6208C2.43838 22.6119 2.43975 22.603 2.44043 22.5934L2.58877 20.5386C2.59834 20.4094 2.57031 20.2802 2.50947 20.166L1.6167 18.5008C1.28174 17.8725 1.28311 17.1226 1.6208 16.4937C1.62354 16.4883 1.62695 16.4828 1.62969 16.4773L2.56143 14.62C2.61953 14.5045 2.64346 14.3746 2.63047 14.2454L2.4418 12.3484C2.37344 11.6546 2.65029 10.9703 3.18691 10.5143L4.79199 9.12596C4.88975 9.0412 4.96152 8.93046 4.99912 8.80672L5.55146 6.97811C5.77158 6.2494 6.36973 5.68885 7.11279 5.51522C7.1333 5.51044 7.15312 5.50497 7.17295 5.49813L8.96191 4.90409C9.08496 4.86307 9.19365 4.78856 9.27568 4.68876L10.4884 3.20741C10.9491 2.64413 11.6566 2.35702 12.3806 2.43837C12.3895 2.43905 12.3983 2.44042 12.4079 2.4411L14.4628 2.58944C14.5913 2.59833 14.7212 2.57098 14.8354 2.51014L16.5006 1.61737C17.1288 1.28241 17.8787 1.28378 18.5076 1.62147C18.5131 1.62421 18.5186 1.62762 18.5247 1.63036L20.382 2.5621C20.4976 2.6202 20.6274 2.64413 20.7566 2.63114L22.6536 2.44247C23.3475 2.37411 24.0317 2.65096 24.4877 3.18759L25.8761 4.79266C25.9608 4.89042 26.0716 4.96219 26.1953 4.99979L28.0232 5.55214C28.752 5.77225 29.3125 6.3704 29.4861 7.11346C29.4909 7.13397 29.4964 7.1538 29.5032 7.17362L30.0973 8.96258C30.1383 9.08563 30.2128 9.19432 30.3126 9.27635L31.7939 10.489C32.3572 10.9498 32.6443 11.6566 32.563 12.3812C32.5616 12.3901 32.5609 12.399 32.5603 12.4086L32.4119 14.4635C32.4023 14.5927 32.4304 14.7219 32.4912 14.836L33.384 16.5013C33.7176 17.1288 33.7162 17.8787 33.3785 18.5069Z" fill="black"/>
<path d="M14.5332 13.7758C14.4239 13.5447 14.1887 13.3848 13.9159 13.3848H10.3038C9.92649 13.3848 9.62024 13.691 9.62024 14.0684V24.4159C9.62024 24.7933 9.92649 25.0995 10.3038 25.0995H13.9159C14.1996 25.0995 14.4423 24.9272 14.5462 24.6818C15.0671 24.755 15.6044 24.9033 16.1629 25.0578C17.0031 25.2902 17.8719 25.5309 18.7749 25.5309H22.7213C23.9415 25.5309 24.93 24.8842 25.3655 23.8007C25.578 23.273 25.615 22.7247 25.4906 22.266C25.7175 22.0623 25.9096 21.808 26.0545 21.5113C26.3485 20.9104 26.4072 20.2344 26.2405 19.6649C26.5508 19.3648 26.7825 18.9684 26.9042 18.5015C27.0177 18.0646 27.0156 17.6333 26.9145 17.2601C27.5311 16.8971 27.9467 16.2381 27.9467 15.4957C27.9467 14.9133 27.7197 14.3767 27.3082 13.985C26.9131 13.6083 26.3861 13.4012 25.8255 13.4012H20.2631C19.8406 12.8707 19.7087 12.1516 19.9493 11.5726C20.4429 10.3838 20.4128 9.37822 19.8502 8.31045C19.4325 7.51817 18.3108 6.7293 17.3674 6.86397C16.7973 6.94531 16.3844 7.34863 16.2634 7.94199C16.2279 8.11699 16.2183 8.30567 16.2067 8.52373C16.1786 9.0624 16.1404 9.80069 15.6755 10.6921C15.3604 11.2964 15.2551 11.9178 15.1621 12.466C15.0288 13.2522 14.9646 13.6302 14.5332 13.7758ZM10.9881 14.7513H13.233V23.7316H10.9881V14.7513ZM16.5102 12.695C16.5895 12.2247 16.6722 11.738 16.8875 11.3258C17.4905 10.1705 17.5417 9.18477 17.5725 8.59551C17.5807 8.43897 17.5882 8.29063 17.6032 8.21612C17.6032 8.21543 17.6032 8.21543 17.6039 8.21475C17.8411 8.21817 18.4249 8.53809 18.6409 8.94893C19.0156 9.65987 19.0279 10.2286 18.6874 11.0489C18.3805 11.7886 18.4031 12.6465 18.7073 13.4094C18.375 13.4559 18.1187 13.7402 18.1187 14.0855C18.1187 14.4628 18.4249 14.769 18.8023 14.769H25.8262C26.0347 14.769 26.2261 14.8422 26.3662 14.9755C26.464 15.0685 26.5802 15.2346 26.5802 15.4964C26.5802 15.8628 26.2439 16.18 25.846 16.1889L24.0864 16.2271C23.7091 16.2354 23.4097 16.5478 23.4179 16.9251C23.4261 17.2977 23.7303 17.5937 24.1008 17.5937C24.1056 17.5937 24.1111 17.5937 24.1158 17.5937L25.5815 17.5615C25.6293 17.6969 25.6539 17.9553 25.5534 18.2513C25.468 18.5028 25.2376 18.9253 24.6593 18.9253C24.282 18.9253 23.9757 19.2315 23.9757 19.6089C23.9757 19.9862 24.282 20.2925 24.6593 20.2925C24.7632 20.2925 24.8644 20.2863 24.9642 20.2733C24.9724 20.4668 24.9327 20.6931 24.8268 20.9105C24.701 21.1668 24.4535 21.473 23.9839 21.473C23.6066 21.473 23.3003 21.7793 23.3003 22.1566C23.3003 22.534 23.6066 22.8402 23.9839 22.8402C24.055 22.8402 24.1247 22.8368 24.1938 22.8307C24.1917 22.9619 24.1651 23.126 24.0906 23.3051C23.9832 23.5628 23.6353 24.163 22.7206 24.163H18.7742C18.0572 24.163 17.3141 23.9572 16.5273 23.7392C15.9011 23.5655 15.2592 23.3885 14.5989 23.3092V15.1594C16.139 14.8805 16.3509 13.6343 16.5102 12.695Z" fill="black"/>
<path d="M17.5 5.19531C17.8773 5.19531 18.1836 4.88906 18.1836 4.51172C18.1836 4.13438 17.8773 3.82812 17.5 3.82812C17.1227 3.82812 16.8164 4.13438 16.8164 4.51172C16.8164 4.88906 17.1227 5.19531 17.5 5.19531Z" fill="black"/>
</svg>
