<svg width="18" height="17" viewBox="0 0 18 17" fill="none" xmlns="http://www.w3.org/2000/svg">
<path d="M12.8199 1.86002C12.1299 1.86002 11.4899 2.08002 10.9299 2.52002C10.4199 2.92002 10.0499 3.43002 9.83994 3.78002C9.65994 4.08002 9.34994 4.26002 8.99994 4.26002C8.64994 4.26002 8.33994 4.08002 8.15994 3.78002C7.94994 3.43002 7.58994 2.92002 7.06994 2.52002C6.50994 2.08002 5.86994 1.86002 5.17994 1.86002C4.21994 1.86002 3.34994 2.24002 2.70994 2.93002C2.04994 3.64002 1.68994 4.63002 1.68994 5.71002C1.68994 6.86002 2.11994 7.89002 3.09994 9.07002C4.06994 10.24 5.53994 11.49 7.23994 12.94C7.76994 13.4 8.36994 13.91 8.99994 14.46C9.64994 13.9 10.2599 13.38 10.7699 12.95C12.4699 11.51 13.9299 10.26 14.8999 9.08002C15.8699 7.91002 16.3099 6.87002 16.3099 5.72002C16.3099 4.64002 15.9499 3.65002 15.2899 2.94002C14.6599 2.25002 13.7799 1.86002 12.8199 1.86002Z" fill="white"/>
<path d="M12.82 0.170013C11.74 0.170013 10.76 0.510014 9.89 1.18001C9.57 1.43001 9.27 1.72001 9 2.05001C8.73 1.72001 8.43 1.43001 8.11 1.18001C7.24 0.510014 6.25 0.170013 5.18 0.170013C3.75 0.170013 2.43 0.740013 1.47 1.79001C0.52 2.81001 0 4.21001 0 5.72001C0 7.27001 0.57 8.68001 1.8 10.16C2.87 11.45 4.38 12.74 6.14 14.24H6.15C6.74 14.74 7.41 15.32 8.12 15.93C8.37 16.15 8.68 16.27 9.01 16.27C9.34 16.27 9.66 16.15 9.9 15.93C10.61 15.31 11.31 14.71 11.87 14.24C13.63 12.74 15.14 11.45 16.21 10.16C17.43 8.68001 18 7.27001 18 5.72001C18 4.21001 17.48 2.82001 16.54 1.79001C15.57 0.750013 14.26 0.170013 12.82 0.170013ZM14.9 9.08001C13.93 10.25 12.46 11.5 10.77 12.95C10.27 13.38 9.65 13.9 9 14.46C8.37 13.91 7.77 13.4 7.24 12.95C5.54 11.5 4.08 10.26 3.1 9.08001C2.13 7.90001 1.69 6.87001 1.69 5.72001C1.69 4.64001 2.05 3.65001 2.71 2.94001C3.35 2.25001 4.23 1.87001 5.18 1.87001C5.87 1.87001 6.51 2.09001 7.07 2.53001C7.58 2.93001 7.95 3.44001 8.16 3.79001C8.34 4.08001 8.65 4.26001 9 4.26001C9.35 4.26001 9.66 4.08001 9.84 3.78001C10.05 3.42001 10.41 2.92001 10.93 2.52001C11.49 2.08001 12.13 1.86001 12.82 1.86001C13.78 1.86001 14.65 2.24001 15.29 2.93001C15.95 3.64001 16.31 4.63001 16.31 5.71001C16.31 6.87001 15.87 7.90001 14.9 9.08001Z" fill="#5F81A7"/>
</svg>
