<svg width="18" height="18" viewBox="0 0 18 18" fill="none" xmlns="http://www.w3.org/2000/svg">
<path d="M15.6415 6.64147H11.3585V2.35853C11.3585 1.05794 10.3006 0 9 0C7.69941 0 6.64147 1.05794 6.64147 2.35853V6.64147H2.35853C1.05794 6.64147 0 7.69941 0 9C0 10.3006 1.05794 11.3585 2.35853 11.3585H6.64147V15.6415C6.64147 16.9421 7.69941 18 9 18C10.3006 18 11.3585 16.9421 11.3585 15.6415V11.3585H15.6415C16.9421 11.3585 18 10.3006 18 9C18 7.69941 16.9421 6.64147 15.6415 6.64147ZM15.6415 9.96235H9.96235V15.6415C9.96235 16.1721 9.53059 16.6038 9 16.6038C8.46941 16.6038 8.03765 16.1721 8.03765 15.6415V9.96235H2.35853C1.82794 9.96235 1.39618 9.53059 1.39618 9C1.39618 8.46941 1.82794 8.03765 2.35853 8.03765H8.03765V2.35853C8.03765 1.82794 8.46941 1.39618 9 1.39618C9.53059 1.39618 9.96235 1.82794 9.96235 2.35853V8.03765H15.6415C16.1721 8.03765 16.6038 8.46941 16.6038 9C16.6038 9.53059 16.1721 9.96235 15.6415 9.96235Z" fill="#5F81A7"/>
</svg>
