<svg width="18" height="18" viewBox="0 0 18 18" fill="none" xmlns="http://www.w3.org/2000/svg">
<g clip-path="url(#clip0)">
<path d="M17.7603 3.42236C17.4062 3.05883 16.6509 3.05059 14.6636 3.05059C14.5889 1.81736 13.5636 0.837067 12.3141 0.837067H5.68621C4.43679 0.837067 3.4115 1.81736 3.33679 3.05059C1.34974 3.05089 0.594147 3.05883 0.240029 3.42236C-0.0202648 3.68941 -0.00967652 4.09147 0.00797054 4.75735C0.0129705 4.94912 0.0188529 5.16618 0.0188529 5.40882C0.0188529 7.31941 1.57032 8.87382 3.47738 8.87382C3.57738 8.87382 3.67297 8.86294 3.76532 8.85029C4.1515 9.92676 4.78032 10.9376 5.54473 11.7079C6.37268 12.5423 7.32415 13.0703 8.30356 13.2403V16.332H6.7915C6.40709 16.332 6.09444 16.6453 6.09444 17.0303C6.09444 17.4153 6.40709 17.7285 6.7915 17.7285H11.2097C11.5941 17.7285 11.9068 17.4153 11.9068 17.0303C11.9068 16.6453 11.5941 16.332 11.2097 16.332H9.69768V13.2394C10.6774 13.0694 11.6289 12.5415 12.4565 11.707C13.2206 10.937 13.8494 9.92617 14.2356 8.84941C14.328 8.86205 14.4233 8.87293 14.5236 8.87293C16.4306 8.87293 17.9821 7.31853 17.9821 5.40794C17.9821 5.16559 17.988 4.94824 17.993 4.75677C18.0097 4.09118 18.0206 3.68941 17.7603 3.42236ZM16.5877 5.40853C16.5877 6.50059 15.7391 7.39764 14.668 7.47235V4.44647C14.8015 4.44618 14.9265 4.44559 15.0436 4.445C15.8712 4.44118 16.3271 4.43853 16.4739 4.58471C16.5827 4.69294 16.5877 4.94176 16.5877 5.40853ZM9.00032 11.9047C6.69885 11.9047 4.72679 8.94146 4.72679 6.51529V3.195C4.72679 2.73647 5.22915 2.23295 5.68679 2.23295H12.3147C12.7812 2.23295 13.2747 2.72736 13.2747 3.195L13.2741 6.51529C13.2741 8.94146 11.3021 11.9047 9.00032 11.9047ZM1.5265 4.58471C1.65062 4.46147 1.99474 4.44382 2.59679 4.44382C2.70797 4.44382 2.82797 4.44441 2.95679 4.445C3.07385 4.44559 3.19856 4.44618 3.33238 4.44647V7.47264C2.26121 7.39794 1.41268 6.50088 1.41268 5.40882C1.41238 4.94177 1.41768 4.69294 1.5265 4.58471Z" fill="#5F81A7"/>
</g>
<defs>
<clipPath id="clip0">
<rect width="18" height="18" fill="white"/>
</clipPath>
</defs>
</svg>
