<svg width="73" height="73" viewBox="0 0 73 73" fill="none" xmlns="http://www.w3.org/2000/svg">
<path fill-rule="evenodd" clip-rule="evenodd" d="M65.8711 4.27734V49.9023C65.8711 51.4707 67.1543 52.7539 68.7227 52.7539C70.291 52.7539 71.5742 51.4707 71.5742 49.9023V4.27734C71.5742 2.70898 70.291 1.42578 68.7227 1.42578C67.1543 1.42578 65.8711 2.70898 65.8711 4.27734Z" fill="#FFD400"/>
<path fill-rule="evenodd" clip-rule="evenodd" d="M65.8711 49.9023V4.27734C59.8557 14.6955 49.7954 22.8125 35.894 22.8125V31.3672C49.7954 31.3672 59.8571 39.4842 65.8711 49.9023Z" fill="#FFDE55"/>
<path fill-rule="evenodd" clip-rule="evenodd" d="M7.12891 22.8125H14.5073V31.3672H7.12891V22.8125Z" fill="#FFDE55"/>
<path fill-rule="evenodd" clip-rule="evenodd" d="M1.42578 22.8125H7.12891V31.3672H1.42578V22.8125Z" fill="#FFD400"/>
<path fill-rule="evenodd" clip-rule="evenodd" d="M14.5073 31.3672V71.5742L21.6362 66.7266V22.8125H14.5073V31.3672Z" fill="#FF008A"/>
<path fill-rule="evenodd" clip-rule="evenodd" d="M21.6362 22.8125V66.7266L25.2007 64.3027L28.7651 66.7266V22.8125H21.6362Z" fill="white"/>
<path fill-rule="evenodd" clip-rule="evenodd" d="M28.7651 22.8125V66.7266L35.894 71.5742V31.3672V22.8125H28.7651Z" fill="#FF008A"/>
<path d="M68.7227 0C66.5056 0 64.6791 1.69525 64.4667 3.85674C60.5358 10.5408 51.7174 21.3867 35.894 21.3867H1.42578C0.63875 21.3867 0 22.0255 0 22.8125V31.3672C0 32.1542 0.63875 32.793 1.42578 32.793H13.0815V71.5742C13.0815 72.1018 13.3738 72.588 13.8401 72.8346C14.3063 73.0813 14.8723 73.0499 15.3086 72.7533L25.2007 66.0279L35.0928 72.7533C35.3337 72.9173 35.6132 73 35.894 73C36.1222 73 36.3517 72.9444 36.5613 72.8346C37.0275 72.588 37.3198 72.1032 37.3198 71.5742V32.8243C52.2535 33.4517 60.6599 43.8499 64.4667 50.323C64.6791 52.4859 66.507 54.1797 68.7227 54.1797C71.0809 54.1797 73 52.2606 73 49.9023V4.27734C73 1.9191 71.0809 0 68.7227 0ZM2.85156 24.2383H5.70312V29.9414H2.85156V24.2383ZM8.55469 29.9414V24.2383H13.0815V29.9414H8.55469ZM15.9331 24.2383H20.2104V65.9723L15.9331 68.8809V24.2383ZM30.1909 65.9723V51.187C30.1909 50.3999 29.5522 49.7612 28.7651 49.7612C27.9781 49.7612 27.3394 50.3999 27.3394 51.187V64.0347L26.002 63.125C25.5172 62.7957 24.8827 62.7957 24.398 63.125L23.0606 64.0347V24.2383H27.3379V38.3549C27.3379 39.142 27.9767 39.7807 28.7637 39.7807C29.5507 39.7807 30.1895 39.142 30.1895 38.3549V24.2383H34.4668V68.8809L30.1909 65.9723ZM54.6787 35.5732C49.4746 32.0972 43.6403 30.2137 37.3198 29.9685V24.2098C43.6203 23.966 49.4375 22.0953 54.6302 18.6392C58.343 16.1684 61.6308 12.9689 64.4453 9.09648V45.0861C61.6437 41.2293 58.3715 38.0413 54.6787 35.5732ZM70.1484 49.9023C70.1484 50.688 69.5083 51.3281 68.7227 51.3281C67.937 51.3281 67.2969 50.688 67.2969 49.9023V4.27734C67.2969 3.49174 67.9356 2.85156 68.7227 2.85156C69.5083 2.85156 70.1484 3.49174 70.1484 4.27734V49.9023Z" fill="black"/>
<path d="M28.7651 43.3452C27.9781 43.3452 27.3394 43.9839 27.3394 44.7709C27.3394 45.558 27.9781 46.1967 28.7651 46.1967C29.5522 46.1967 30.1909 45.558 30.1909 44.7709V44.7695C30.1909 43.9825 29.5522 43.3452 28.7651 43.3452Z" fill="black"/>
<path fill-rule="evenodd" clip-rule="evenodd" d="M20.4471 9.95758L22.2194 11.8025L21.8829 14.3333C21.8458 14.5244 21.8672 14.7282 21.9599 14.9164C22.1837 15.3755 22.7383 15.5666 23.1989 15.3428L25.5001 14.2278L27.8526 15.3527C28.0095 15.4283 28.1905 15.4597 28.3759 15.434C28.8806 15.3641 29.2342 14.8993 29.1643 14.3932L28.815 11.861L30.593 9.9918C30.7256 9.86205 30.8197 9.69239 30.8553 9.49705C30.9451 8.99518 30.6115 8.51469 30.1096 8.42344L27.5903 7.97289L26.3798 5.73727C26.2985 5.55762 26.1602 5.40221 25.972 5.3024C25.5215 5.06145 24.9597 5.23112 24.7187 5.68309L23.514 7.93725L20.9476 8.41061C20.775 8.44197 20.6111 8.52467 20.4756 8.65442C20.1063 9.00373 20.0935 9.58973 20.4471 9.95758Z" fill="#FFA300"/>
<path d="M28.2476 16.512C27.951 16.512 27.6602 16.4464 27.3907 16.3181L25.5015 15.4141L23.6637 16.3052C23.1875 16.5376 22.6457 16.5704 22.1424 16.3979C21.6377 16.224 21.2327 15.8647 20.9989 15.3856C20.8121 15.0035 20.7537 14.5829 20.8264 14.1666L21.0916 12.1719L19.6744 10.6976C19.3051 10.3127 19.1083 9.80795 19.1197 9.27613C19.1311 8.74431 19.3493 8.24814 19.7328 7.87886C20.0165 7.60654 20.3687 7.42689 20.7508 7.3556L22.8125 6.97634L23.7749 5.17701C24.0258 4.7065 24.445 4.36289 24.9555 4.2089C25.4659 4.05492 26.0048 4.10767 26.4753 4.35861C26.8475 4.55822 27.1512 4.87474 27.3337 5.25543L28.2847 7.01056L30.2964 7.36986C30.8211 7.46396 31.2774 7.75767 31.5811 8.19396C31.8848 8.63168 32.0002 9.16064 31.9061 9.68533C31.8334 10.0874 31.6438 10.451 31.3572 10.739L29.9443 12.2246L30.2237 14.2478C30.3734 15.3371 29.6092 16.3437 28.5213 16.4934C28.4301 16.5063 28.3388 16.512 28.2476 16.512ZM25.4958 13.0402L28.0665 14.2692L27.683 11.4961L29.6506 9.42726L26.8917 8.93394L25.5315 6.42172L24.2098 8.89259L21.4038 9.41015L23.3472 11.4319L22.9708 14.2635L25.4958 13.0402Z" fill="black"/>
</svg>
