<svg width="43" height="73" viewBox="0 0 43 73" fill="none" xmlns="http://www.w3.org/2000/svg">
<path fill-rule="evenodd" clip-rule="evenodd" d="M14.3711 15.253H28.6289C31.6957 15.253 34.9451 5.06438 29.9349 5.06438C24.9247 5.06438 26.0311 1.42578 21.5 1.42578C16.9688 1.42578 18.0752 5.06295 13.065 5.06295C8.05485 5.06295 11.3056 15.253 14.3711 15.253Z" fill="#DDB9A3"/>
<path fill-rule="evenodd" clip-rule="evenodd" d="M28.6289 15.2531H14.3711C12.8027 15.2531 11.5195 16.5363 11.5195 18.1046C11.5195 19.673 12.8027 20.9562 14.3711 20.9562H28.6289C30.1973 20.9562 31.4805 19.673 31.4805 18.1046C31.4805 16.5363 30.1973 15.2531 28.6289 15.2531Z" fill="#FFCE00"/>
<path fill-rule="evenodd" clip-rule="evenodd" d="M28.6289 20.9562H14.3711C14.3711 28.3816 1.53906 31.9589 1.53906 43.234V60.8781C1.53906 64.0148 4.10547 66.5812 7.24219 66.5812H17.3096V51.6504C16.7792 51.6532 16.2674 51.3581 16.0207 50.8491C15.8781 50.5554 15.8454 50.236 15.9067 49.9395L16.4157 46.0613L13.6839 43.2269C13.1392 42.6608 13.1563 41.7612 13.7224 41.2165C13.9434 41.0041 14.2143 40.8772 14.4951 40.8358L18.3975 40.1101L20.2467 36.6383C20.616 35.9468 21.4758 35.6845 22.1687 36.0538C22.4239 36.1892 22.6192 36.3917 22.7476 36.6269L24.6638 40.1515L28.5377 40.8373C29.3133 40.9727 29.8308 41.7113 29.6968 42.4855C29.6412 42.8034 29.4844 43.0772 29.2662 43.2811L26.563 46.1312L27.1076 50.0293C27.216 50.8078 26.6713 51.5249 25.8928 51.6333C25.8258 51.6433 25.7588 51.6475 25.6932 51.6475V66.5798H35.7578C38.8945 66.5798 41.4609 64.0133 41.4609 60.8766V43.234C41.4609 31.9575 28.6289 28.3816 28.6289 20.9562Z" fill="#DDB9A3"/>
<path fill-rule="evenodd" clip-rule="evenodd" d="M22.1673 36.0536C21.4757 35.6843 20.6146 35.9467 20.2453 36.6382L18.3961 40.11L14.4937 40.8357C14.2128 40.8785 13.9405 41.0053 13.7209 41.2164C13.1549 41.761 13.1378 42.6607 13.6824 43.2267L16.4142 46.0612L15.9052 49.9393C15.8439 50.2359 15.8767 50.5552 16.0193 50.8489C16.2674 51.358 16.7778 51.6531 17.3082 51.6502C17.5149 51.6488 17.7245 51.6032 17.9241 51.5062L21.4586 49.7853L25.083 51.5119C25.2683 51.6003 25.4751 51.6488 25.6904 51.6488C25.7559 51.6488 25.823 51.6445 25.89 51.6346C26.6684 51.5262 27.2117 50.809 27.1047 50.0305L26.5601 46.1325L29.2634 43.2823C29.4815 43.0784 29.6383 42.8033 29.694 42.4867C29.8294 41.7111 29.3104 40.974 28.5348 40.8385L24.6609 40.1527L22.7447 36.6282C22.6178 36.3915 22.421 36.1891 22.1673 36.0536Z" fill="#FFA300"/>
<path fill-rule="evenodd" clip-rule="evenodd" d="M25.0843 51.5121L21.46 49.7855L17.9255 51.5064C17.7273 51.6034 17.5177 51.649 17.3096 51.6504V66.5798V71.5743L21.4999 69.4784L25.6903 71.5743V66.5812V51.649C25.4764 51.649 25.2697 51.6005 25.0843 51.5121Z" fill="#FFCE00"/>
<path d="M35.052 28.6439C32.748 26.3598 30.7162 24.3424 30.1887 22.0854C31.7785 21.4609 32.9062 19.9125 32.9062 18.1031C32.9062 16.8912 32.3987 15.7962 31.586 15.0178C33.046 13.2583 33.9571 10.4438 33.9571 8.28949C33.9571 5.41939 32.4158 3.63574 29.9349 3.63574C27.9559 3.63574 27.3343 3.01838 26.4746 2.16291C25.505 1.20051 24.2974 0 21.5 0C18.7026 0 17.495 1.20051 16.5254 2.16576C15.6657 3.02123 15.0455 3.63859 13.0651 3.63859C10.5842 3.63859 9.04295 5.42225 9.04295 8.29234C9.04295 10.4453 9.95402 13.2612 11.414 15.0206C10.6013 15.7991 10.0938 16.8941 10.0938 18.106C10.0938 19.9139 11.2215 21.4623 12.8113 22.0882C12.2837 24.3438 10.252 26.3613 7.94795 28.6468C4.27656 32.2868 0.113281 36.4159 0.113281 43.234V60.878C0.113281 64.8089 3.31131 68.0069 7.24219 68.0069H15.8838V71.5742C15.8838 72.069 16.1391 72.5266 16.5597 72.7876C16.9803 73.0471 17.505 73.0713 17.947 72.8503L21.5 71.0738L25.053 72.8503C25.2541 72.9515 25.4722 73.0014 25.6904 73.0014C25.9513 73.0014 26.2108 72.9301 26.4403 72.789C26.8609 72.5295 27.1162 72.0704 27.1162 71.5756V68.0083H35.7578C39.6887 68.0083 42.8867 64.8103 42.8867 60.8794V43.234C42.8867 36.4159 38.7249 32.2868 35.052 28.6439ZM14.3711 19.5304C13.5855 19.5304 12.9453 18.8902 12.9453 18.1046C12.9453 17.319 13.5855 16.6788 14.3711 16.6788H28.6289C29.4145 16.6788 30.0547 17.319 30.0547 18.1046C30.0547 18.8902 29.4145 19.5304 28.6289 19.5304H14.3711ZM11.8974 8.12268C11.9515 6.48873 12.6758 6.48873 13.0651 6.48873C16.2218 6.48873 17.505 5.21266 18.5358 4.18609C19.3456 3.38338 19.8789 2.85156 21.5 2.85156C23.1211 2.85156 23.6544 3.38338 24.4642 4.18752C25.495 5.21266 26.7797 6.49016 29.9349 6.49016C30.3242 6.49016 31.0485 6.49016 31.1026 8.1241C31.1939 10.8402 29.3119 13.783 28.6289 13.8287H26.5687C26.8581 12.5611 27.0363 11.181 27.0434 10.0418C27.0491 9.25475 26.4147 8.61172 25.6276 8.60744C25.6248 8.60744 25.6205 8.60744 25.6177 8.60744C24.8349 8.60744 24.1976 9.24049 24.1919 10.0247C24.1847 11.1296 23.9595 12.6267 23.6301 13.8301H19.3727C19.042 12.6253 18.8181 11.1296 18.811 10.0247C18.8053 9.24049 18.1679 8.60744 17.3852 8.60744C17.3823 8.60744 17.3795 8.60744 17.3752 8.60744C16.5882 8.61314 15.9537 9.25475 15.9594 10.0418C15.9665 11.181 16.1448 12.5611 16.4342 13.8287H14.3754C13.6881 13.7816 11.8061 10.8388 11.8974 8.12268ZM25.5264 45.1516C25.2284 45.4667 25.0887 45.9002 25.1486 46.3293L25.6975 50.2246L22.0732 48.4979C21.6811 48.3112 21.2262 48.3126 20.8356 48.5037L17.3011 50.226C17.3082 50.1918 17.3139 50.1576 17.3182 50.1233L17.8272 46.2452C17.8842 45.8146 17.7416 45.3826 17.4394 45.0704L14.7047 42.2445C14.7204 42.2416 14.7375 42.2388 14.7532 42.2359L18.6556 41.5102C19.0819 41.4304 19.4497 41.1623 19.6536 40.7788L21.4957 37.3113L23.4091 40.8301C23.6159 41.2108 23.9866 41.4774 24.4129 41.553L28.291 42.2373C28.2696 42.2573 28.2497 42.2773 28.2297 42.2987L25.5264 45.1516ZM22.1373 68.2037C21.7367 68.0026 21.2633 68.0026 20.8627 68.2037L18.7354 69.2673V52.6983L21.4672 51.368L24.266 52.7012V69.2673L22.1373 68.2037ZM40.0352 60.878C40.0352 63.2363 38.1161 65.1553 35.7578 65.1553H27.1162V52.6954C27.4427 52.5072 27.7321 52.2549 27.9673 51.9455C28.4264 51.3395 28.6218 50.5896 28.5177 49.8339L28.0686 46.6159L30.2743 44.2905C30.7105 43.8684 30.9957 43.3309 31.0998 42.7321C31.231 41.9821 31.0613 41.2265 30.6236 40.6034C30.1859 39.9803 29.5314 39.5654 28.7857 39.4343L25.5877 38.8682L23.9994 35.9468C23.7328 35.4578 23.3321 35.0585 22.8388 34.7962C22.1687 34.4383 21.3988 34.3628 20.6702 34.5852C19.943 34.8062 19.3456 35.2981 18.9878 35.9696L17.4608 38.8354L14.2542 39.4314C13.6796 39.5241 13.1535 39.785 12.7329 40.1913C12.1839 40.7189 11.8746 41.4275 11.8603 42.1889C11.846 42.9502 12.1283 43.6703 12.6559 44.2192L14.9115 46.5589L14.498 49.7141C14.3896 50.3087 14.4738 50.9318 14.7389 51.4764C14.9984 52.0097 15.4048 52.4245 15.8853 52.6983V65.1568H7.24219C4.88394 65.1568 2.96484 63.2377 2.96484 60.8794V43.234C2.96484 37.7504 6.33539 34.2644 9.6874 30.9366H15.084C15.871 30.9366 16.5098 30.2979 16.5098 29.5108C16.5098 28.7238 15.871 28.085 15.084 28.085H12.4634C14.0303 26.3385 15.2765 24.522 15.6671 22.3819H27.3314C27.9174 25.5856 30.4168 28.0637 33.0431 30.6686C36.4807 34.0776 40.0352 37.6036 40.0352 43.234V60.878Z" fill="black"/>
<path d="M21.5 28.0851C20.713 28.0851 20.0742 28.7238 20.0742 29.5109C20.0742 30.2979 20.713 30.9366 21.5 30.9366H21.5014C22.2885 30.9366 22.9272 30.2979 22.9272 29.5109C22.9272 28.7238 22.287 28.0851 21.5 28.0851Z" fill="black"/>
</svg>
