<svg width="61" height="73" viewBox="0 0 61 73" fill="none" xmlns="http://www.w3.org/2000/svg">
<path fill-rule="evenodd" clip-rule="evenodd" d="M23.3711 15.253H37.6289C40.6957 15.253 43.9451 5.06438 38.9349 5.06438C33.9247 5.06438 35.0311 1.42578 30.5 1.42578C25.9688 1.42578 27.0752 5.06295 22.065 5.06295C17.0548 5.06295 20.3056 15.253 23.3711 15.253Z" fill="#D87D4A"/>
<path fill-rule="evenodd" clip-rule="evenodd" d="M37.6289 15.2531H23.3711C21.8027 15.2531 20.5195 16.5363 20.5195 18.1046C20.5195 19.673 21.8027 20.9562 23.3711 20.9562H37.6289C39.1973 20.9562 40.4805 19.673 40.4805 18.1046C40.4805 16.5363 39.1973 15.2531 37.6289 15.2531Z" fill="#FFCE00"/>
<path fill-rule="evenodd" clip-rule="evenodd" d="M37.6289 20.9562H23.3711C23.3711 28.3816 10.5391 31.9589 10.5391 43.234V60.8781C10.5391 64.0148 13.1055 66.5812 16.2422 66.5812H26.3096V51.6504C25.7792 51.6532 25.2674 51.3581 25.0207 50.8491C24.8781 50.5554 24.8454 50.236 24.9067 49.9395L25.4157 46.0613L22.6839 43.2269C22.1392 42.6608 22.1563 41.7612 22.7224 41.2165C22.9434 41.0041 23.2143 40.8772 23.4951 40.8358L27.3975 40.1101L29.2467 36.6383C29.616 35.9468 30.4758 35.6845 31.1687 36.0538C31.4239 36.1892 31.6192 36.3917 31.7476 36.6269L33.6638 40.1515L37.5377 40.8373C38.3133 40.9727 38.8308 41.7113 38.6968 42.4855C38.6412 42.8034 38.4844 43.0772 38.2662 43.2811L35.563 46.1312L36.1076 50.0293C36.216 50.8078 35.6713 51.5249 34.8928 51.6333C34.8258 51.6433 34.7588 51.6475 34.6932 51.6475V66.5798H44.7578C47.8945 66.5798 50.4609 64.0133 50.4609 60.8766V43.234C50.4609 31.9575 37.6289 28.3816 37.6289 20.9562Z" fill="#D87D4A"/>
<path fill-rule="evenodd" clip-rule="evenodd" d="M31.1673 36.0536C30.4757 35.6843 29.6146 35.9467 29.2453 36.6382L27.3961 40.11L23.4937 40.8357C23.2128 40.8785 22.9405 41.0053 22.7209 41.2164C22.1549 41.761 22.1378 42.6607 22.6824 43.2267L25.4142 46.0612L24.9052 49.9393C24.8439 50.2359 24.8767 50.5552 25.0193 50.8489C25.2674 51.358 25.7778 51.6531 26.3082 51.6502C26.5149 51.6488 26.7245 51.6032 26.9241 51.5062L30.4586 49.7853L34.083 51.5119C34.2683 51.6003 34.4751 51.6488 34.6904 51.6488C34.7559 51.6488 34.823 51.6445 34.89 51.6346C35.6684 51.5262 36.2117 50.809 36.1047 50.0305L35.5601 46.1325L38.2634 43.2823C38.4815 43.0784 38.6383 42.8033 38.694 42.4867C38.8294 41.7111 38.3104 40.974 37.5348 40.8385L33.6609 40.1527L31.7447 36.6282C31.6178 36.3915 31.421 36.1891 31.1673 36.0536Z" fill="#FF8500"/>
<path fill-rule="evenodd" clip-rule="evenodd" d="M34.0845 51.5121L30.4601 49.7855L26.9256 51.5064C26.7274 51.6034 26.5179 51.649 26.3097 51.6504V66.5798V71.5743L30.5001 69.4784L34.6904 71.5743V66.5812V51.649C34.4766 51.649 34.2698 51.6005 34.0845 51.5121Z" fill="#FFCE00"/>
<path d="M44.052 28.6439C41.748 26.3598 39.7162 24.3424 39.1887 22.0854C40.7785 21.4609 41.9062 19.9125 41.9062 18.1031C41.9062 16.8912 41.3987 15.7962 40.586 15.0178C42.046 13.2583 42.9571 10.4438 42.9571 8.28949C42.9571 5.41939 41.4158 3.63574 38.9349 3.63574C36.9559 3.63574 36.3343 3.01838 35.4746 2.16291C34.505 1.20051 33.2974 0 30.5 0C27.7026 0 26.495 1.20051 25.5254 2.16576C24.6657 3.02123 24.0455 3.63859 22.0651 3.63859C19.5842 3.63859 18.0429 5.42225 18.0429 8.29234C18.0429 10.4453 18.954 13.2612 20.414 15.0206C19.6013 15.7991 19.0938 16.8941 19.0938 18.106C19.0938 19.9139 20.2215 21.4623 21.8113 22.0882C21.2837 24.3438 19.252 26.3613 16.9479 28.6468C13.2766 32.2868 9.11328 36.4159 9.11328 43.234V60.878C9.11328 64.8089 12.3113 68.0069 16.2422 68.0069H24.8838V71.5742C24.8838 72.069 25.1391 72.5266 25.5597 72.7876C25.9803 73.0471 26.505 73.0713 26.947 72.8503L30.5 71.0738L34.053 72.8503C34.2541 72.9515 34.4722 73.0014 34.6904 73.0014C34.9513 73.0014 35.2108 72.9301 35.4403 72.789C35.8609 72.5295 36.1162 72.0704 36.1162 71.5756V68.0083H44.7578C48.6887 68.0083 51.8867 64.8103 51.8867 60.8794V43.234C51.8867 36.4159 47.7249 32.2868 44.052 28.6439ZM23.3711 19.5304C22.5855 19.5304 21.9453 18.8902 21.9453 18.1046C21.9453 17.319 22.5855 16.6788 23.3711 16.6788H37.6289C38.4145 16.6788 39.0547 17.319 39.0547 18.1046C39.0547 18.8902 38.4145 19.5304 37.6289 19.5304H23.3711ZM20.8974 8.12268C20.9515 6.48873 21.6758 6.48873 22.0651 6.48873C25.2218 6.48873 26.505 5.21266 27.5358 4.18609C28.3456 3.38338 28.8789 2.85156 30.5 2.85156C32.1211 2.85156 32.6544 3.38338 33.4642 4.18752C34.495 5.21266 35.7797 6.49016 38.9349 6.49016C39.3242 6.49016 40.0485 6.49016 40.1026 8.1241C40.1939 10.8402 38.3119 13.783 37.6289 13.8287H35.5687C35.8581 12.5611 36.0363 11.181 36.0434 10.0418C36.0491 9.25475 35.4147 8.61172 34.6276 8.60744C34.6248 8.60744 34.6205 8.60744 34.6177 8.60744C33.8349 8.60744 33.1976 9.24049 33.1919 10.0247C33.1847 11.1296 32.9595 12.6267 32.6301 13.8301H28.3727C28.042 12.6253 27.8181 11.1296 27.811 10.0247C27.8053 9.24049 27.1679 8.60744 26.3852 8.60744C26.3823 8.60744 26.3795 8.60744 26.3752 8.60744C25.5882 8.61314 24.9537 9.25475 24.9594 10.0418C24.9665 11.181 25.1448 12.5611 25.4342 13.8287H23.3754C22.6881 13.7816 20.8061 10.8388 20.8974 8.12268ZM34.5264 45.1516C34.2284 45.4667 34.0887 45.9002 34.1486 46.3293L34.6975 50.2246L31.0732 48.4979C30.6811 48.3112 30.2262 48.3126 29.8356 48.5037L26.3011 50.226C26.3082 50.1918 26.3139 50.1576 26.3182 50.1233L26.8272 46.2452C26.8842 45.8146 26.7416 45.3826 26.4394 45.0704L23.7047 42.2445C23.7204 42.2416 23.7375 42.2388 23.7532 42.2359L27.6556 41.5102C28.0819 41.4304 28.4497 41.1623 28.6536 40.7788L30.4957 37.3113L32.4091 40.8301C32.6159 41.2108 32.9866 41.4774 33.4129 41.553L37.291 42.2373C37.2696 42.2573 37.2497 42.2773 37.2297 42.2987L34.5264 45.1516ZM31.1373 68.2037C30.7367 68.0026 30.2633 68.0026 29.8627 68.2037L27.7354 69.2673V52.6983L30.4672 51.368L33.266 52.7012V69.2673L31.1373 68.2037ZM49.0352 60.878C49.0352 63.2363 47.1161 65.1553 44.7578 65.1553H36.1162V52.6954C36.4427 52.5072 36.7321 52.2549 36.9673 51.9455C37.4264 51.3395 37.6218 50.5896 37.5177 49.8339L37.0686 46.6159L39.2743 44.2905C39.7105 43.8684 39.9957 43.3309 40.0998 42.7321C40.231 41.9821 40.0613 41.2265 39.6236 40.6034C39.1859 39.9803 38.5314 39.5654 37.7857 39.4343L34.5877 38.8682L32.9994 35.9468C32.7328 35.4578 32.3321 35.0585 31.8388 34.7962C31.1687 34.4383 30.3988 34.3628 29.6702 34.5852C28.943 34.8062 28.3456 35.2981 27.9878 35.9696L26.4608 38.8354L23.2542 39.4314C22.6796 39.5241 22.1535 39.785 21.7329 40.1913C21.1839 40.7189 20.8746 41.4275 20.8603 42.1889C20.846 42.9502 21.1283 43.6703 21.6559 44.2192L23.9115 46.5589L23.498 49.7141C23.3896 50.3087 23.4738 50.9318 23.7389 51.4764C23.9984 52.0097 24.4048 52.4245 24.8853 52.6983V65.1568H16.2422C13.8839 65.1568 11.9648 63.2377 11.9648 60.8794V43.234C11.9648 37.7504 15.3354 34.2644 18.6874 30.9366H24.084C24.871 30.9366 25.5098 30.2979 25.5098 29.5108C25.5098 28.7238 24.871 28.085 24.084 28.085H21.4634C23.0303 26.3385 24.2765 24.522 24.6671 22.3819H36.3314C36.9174 25.5856 39.4168 28.0637 42.0431 30.6686C45.4807 34.0776 49.0352 37.6036 49.0352 43.234V60.878Z" fill="black"/>
<path d="M30.5 28.0851C29.713 28.0851 29.0742 28.7238 29.0742 29.5109C29.0742 30.2979 29.713 30.9366 30.5 30.9366H30.5014C31.2885 30.9366 31.9272 30.2979 31.9272 29.5109C31.9272 28.7238 31.287 28.0851 30.5 28.0851Z" fill="black"/>
<path fill-rule="evenodd" clip-rule="evenodd" d="M59.3266 20.7196L57.2849 19.1784L57.2164 16.6262C57.2236 16.4323 57.1694 16.2341 57.0482 16.063C56.7545 15.6453 56.177 15.5441 55.7578 15.8378L53.6619 17.302L51.1611 16.5635C50.9943 16.5136 50.8104 16.5122 50.6307 16.5663C50.1431 16.7146 49.8679 17.2308 50.0162 17.7184L50.7619 20.1636L49.3019 22.2909C49.1921 22.4391 49.1251 22.6231 49.1223 22.8212C49.1123 23.3317 49.5186 23.7537 50.0276 23.7637L52.5855 23.8107L54.1339 25.8268C54.2422 25.9922 54.4034 26.1234 54.6044 26.1918C55.0877 26.3586 55.6153 26.102 55.7821 25.6186L56.6162 23.2034L59.0756 22.3308C59.2396 22.2723 59.3893 22.1654 59.5034 22.0157C59.8142 21.6079 59.7344 21.029 59.3266 20.7196Z" fill="#FF8500"/>
<path d="M54.9123 27.3124C54.6928 27.3124 54.4732 27.2754 54.2593 27.2026C53.853 27.0629 53.5122 26.8034 53.2698 26.4527L52.0537 24.8701L50.0105 24.833C49.4773 24.823 48.9811 24.6063 48.6118 24.2213C48.2425 23.8378 48.0444 23.3331 48.0558 22.8013C48.0643 22.3935 48.1941 22.0042 48.4322 21.6735L49.5928 19.9839L48.9968 18.0306C48.6774 16.9784 49.272 15.8634 50.3228 15.544C50.6977 15.43 51.0927 15.4285 51.4662 15.5383L53.4737 16.1314L55.1476 14.9609C55.581 14.6558 56.1114 14.5374 56.6361 14.6287C57.1608 14.7199 57.6199 15.0108 57.925 15.4471C58.1688 15.795 58.2943 16.1999 58.2872 16.6233L58.3414 18.6337L59.9739 19.8656C60.3988 20.1864 60.6725 20.654 60.7452 21.1816C60.8179 21.7091 60.6811 22.2338 60.3603 22.6587C60.1236 22.9723 59.8042 23.2062 59.4364 23.3359L57.4631 24.036L56.7972 25.9651C56.6233 26.4684 56.264 26.8747 55.7849 27.1085C55.5069 27.244 55.2103 27.3124 54.9123 27.3124ZM50.3213 22.6986L53.123 22.7499L54.8624 25.0155L55.7764 22.3678L58.4682 21.4125L56.2298 19.723L56.1542 16.8671L53.8544 18.4754L51.1212 17.667L51.9382 20.3446L50.3213 22.6986Z" fill="black"/>
<path fill-rule="evenodd" clip-rule="evenodd" d="M10.5305 17.0211L7.99692 17.3747L6.14341 15.6181C6.01081 15.4755 5.83259 15.3743 5.62585 15.3386C5.12255 15.2502 4.64206 15.5881 4.55366 16.0915L4.10739 18.6094L1.81616 19.8541C1.6636 19.9382 1.531 20.0651 1.44261 20.2305C1.20307 20.681 1.37274 21.2399 1.82329 21.4795L4.0803 22.6814L4.55224 25.2179C4.57932 25.4004 4.66202 25.5772 4.80032 25.7198C5.15391 26.0876 5.73991 26.099 6.10776 25.7454L7.94987 23.9689L10.4707 24.2997C10.6646 24.3396 10.8713 24.3182 11.0624 24.2255C11.5229 24.0017 11.7139 23.4471 11.4901 22.988L10.3723 20.6896L11.4944 18.3342C11.5699 18.1759 11.5999 17.9949 11.5742 17.8095C11.5029 17.3034 11.0367 16.9512 10.5305 17.0211Z" fill="#FF8500"/>
<path d="M12.0704 24.8045C11.915 24.9599 11.7339 25.0897 11.5315 25.1881C11.1451 25.3763 10.7202 25.4347 10.301 25.3577L8.32205 25.0982L6.85065 26.5169C6.46569 26.8876 5.96096 27.0843 5.42915 27.0744C4.89733 27.0644 4.39973 26.8477 4.03046 26.4627C3.74815 26.169 3.56423 25.8011 3.49864 25.3991L3.12509 23.383L1.3229 22.4235C0.353368 21.9059 -0.0144835 20.6968 0.501649 19.7273C0.685575 19.3823 0.963602 19.1014 1.30579 18.9146L3.14505 17.9151L3.50149 15.9048C3.59274 15.3815 3.8836 14.9239 4.31989 14.6173C4.75618 14.3108 5.28514 14.1924 5.81125 14.2837C6.22901 14.3564 6.60541 14.556 6.89913 14.8597L8.35912 16.2441L10.3837 15.9604C10.9113 15.8877 11.436 16.0246 11.8608 16.3454C12.2857 16.6662 12.5595 17.1338 12.6322 17.6614C12.6864 18.0506 12.6265 18.4427 12.4582 18.7934L11.5586 20.6826L12.4511 22.5176C12.6849 22.9966 12.7177 23.5384 12.5438 24.0417C12.444 24.334 12.2814 24.5921 12.0704 24.8045ZM5.56174 24.7874L7.57922 22.8426L10.4108 23.2148L9.18465 20.6954L10.4122 18.1176L7.63483 18.5054L5.56174 16.5393L5.0727 19.3024L2.56903 20.664L5.03991 21.98L5.56174 24.7874Z" fill="black"/>
<path d="M50.3213 26.9546C49.5328 26.9546 48.8955 27.5933 48.8955 28.3804C48.8955 29.1674 49.5343 29.8062 50.3213 29.8062C51.1083 29.8062 51.7471 29.1674 51.7471 28.3804C51.7471 27.5933 51.1083 26.9546 50.3213 26.9546Z" fill="black"/>
<path d="M9.66223 27.0355C8.87377 27.0355 8.23645 27.6743 8.23645 28.4613C8.23645 29.2483 8.8752 29.8871 9.66223 29.8871C10.4493 29.8871 11.088 29.2483 11.088 28.4613C11.088 27.6743 10.4507 27.0355 9.66223 27.0355Z" fill="black"/>
</svg>
