<svg width="73" height="73" viewBox="0 0 73 73" fill="none" xmlns="http://www.w3.org/2000/svg">
<g clip-path="url(#clip0)">
<path fill-rule="evenodd" clip-rule="evenodd" d="M37.4995 30.2608L39.0379 33.0895L42.1475 33.6399C42.7692 33.7482 43.1855 34.3414 43.0771 34.963C43.0329 35.2182 42.9075 35.4378 42.7321 35.6018L40.5635 37.8901L41.0012 41.0183C41.0882 41.6428 40.6519 42.2188 40.0274 42.3058C39.7978 42.3371 39.574 42.3001 39.3787 42.2074L36.4701 40.8215L33.6328 42.2031C33.0653 42.4797 32.3809 42.243 32.1043 41.6756C31.9888 41.4403 31.9632 41.1837 32.0116 40.9456L32.4194 37.8331L30.2266 35.559C29.7903 35.1042 29.8031 34.3827 30.2579 33.945C30.4347 33.7753 30.6529 33.6727 30.8781 33.6385L34.0092 33.0567L35.4934 30.2708C35.79 29.7147 36.48 29.5051 37.0361 29.8017C37.24 29.9086 37.3968 30.0712 37.4995 30.2608ZM48.6191 36.5C48.6191 29.8074 43.1926 24.3809 36.5 24.3809C29.8074 24.3809 24.3809 29.8074 24.3809 36.5C24.3809 43.1926 29.8074 48.6191 36.5 48.6191C43.194 48.6191 48.6191 43.194 48.6191 36.5Z" fill="#C1C1C1"/>
<path fill-rule="evenodd" clip-rule="evenodd" d="M39.0378 33.0895L37.4994 30.2608C37.3968 30.0712 37.2385 29.91 37.0346 29.8003C36.4785 29.5037 35.7885 29.7147 35.4919 30.2693L34.0077 33.0553L30.8766 33.637C30.6514 33.6713 30.4332 33.7725 30.2564 33.9436C29.8016 34.3813 29.7888 35.1027 30.2251 35.5576L32.4179 37.8317L32.0101 40.9442C31.9602 41.1823 31.9873 41.4389 32.1028 41.6742C32.3794 42.2416 33.0638 42.4783 33.6313 42.2017L36.4686 40.8201L39.3772 42.206C39.5711 42.2987 39.7963 42.3357 40.0259 42.3044C40.6504 42.2174 41.0867 41.6414 40.9997 41.0169L40.562 37.8887L42.7306 35.6003C42.906 35.4364 43.0314 35.2168 43.0756 34.9616C43.184 34.3399 42.7677 33.7468 42.146 33.6385L39.0378 33.0895Z" fill="#FFC144"/>
<path fill-rule="evenodd" clip-rule="evenodd" d="M36.5001 24.3808C43.1927 24.3808 48.6192 29.8074 48.6192 36.5C48.6192 43.1926 43.1927 48.6191 36.5001 48.6191C29.8075 48.6191 24.3809 43.1926 24.3809 36.5C24.3809 29.8074 29.8075 24.3808 36.5001 24.3808ZM40.0132 19.3607L37.9658 18.3341C37.0847 17.8607 35.9911 17.8237 35.0429 18.3284L33.2065 19.3136L30.941 19.1496C29.9287 19.0356 28.8807 19.422 28.1878 20.2689L26.8518 21.9014L24.88 22.5558C23.8334 22.7997 22.9423 23.581 22.6087 24.6845L22.4847 25.0937L21.9999 26.6992L20.2319 28.2305C19.4848 28.8664 19.0499 29.8459 19.154 30.8952L19.3622 32.9869L18.3356 35.0329C17.8623 35.914 17.8252 37.0076 18.3299 37.9557L19.3151 39.7921L19.1512 42.0577C19.0371 43.07 19.4235 44.1179 20.2704 44.8109L21.9029 46.1468L22.4861 47.9048L22.5574 48.1187C22.8012 49.1652 23.5825 50.0563 24.6861 50.3899L26.7007 50.9988L28.2306 52.7696C28.8665 53.5167 29.846 53.9515 30.8953 53.8475L32.987 53.6393L35.033 54.6659C35.9141 55.1392 37.0077 55.1763 37.9558 54.6716L39.7922 53.6864L42.0578 53.8503C43.0701 53.9644 44.118 53.578 44.811 52.7311L46.1469 51.0986L48.1188 50.4441C49.1653 50.2003 50.0564 49.419 50.39 48.3169L50.5141 47.9077L50.9989 46.3022L52.7697 44.7695C53.5168 44.1336 53.9516 43.1541 53.8476 42.1047L53.6394 40.0131L54.666 37.9657C55.1393 37.0846 55.1764 35.991 54.6717 35.0428L53.6865 33.2064L53.8504 30.9409C53.9645 29.9286 53.5781 28.8806 52.7312 28.1877L51.0987 26.8517L50.5155 25.0937L50.4442 24.8799C50.2004 23.8333 49.4191 22.9422 48.317 22.6086L46.3023 21.9998L44.7725 20.2304C44.1366 19.4833 43.1571 19.0484 42.1077 19.1525L40.0132 19.3607Z" fill="#EAEAEA"/>
<path fill-rule="evenodd" clip-rule="evenodd" d="M52.731 28.1891C53.578 28.8821 53.9643 29.93 53.8503 30.9423L53.6863 33.2079L54.6715 35.0443C55.1777 35.9924 55.1392 37.086 54.6658 37.9671L53.6393 40.0146L53.8474 42.1062C53.9501 43.157 53.5167 44.1365 52.7695 44.771L51.0002 46.3008L50.5154 47.9062H71.5742L65.871 36.5L71.5742 25.0938H50.5154L51.0985 26.8517L52.731 28.1891Z" fill="#FF5D7D"/>
<path fill-rule="evenodd" clip-rule="evenodd" d="M18.3341 35.0342L19.3607 32.9883L19.1525 30.8966C19.0499 29.8458 19.4833 28.8663 20.2304 28.2318L21.9998 26.702L22.4846 25.0966H1.42578L7.12891 36.5028L1.42578 47.909H22.486L21.9029 46.1511L20.2703 44.8151C19.4234 44.1222 19.037 43.0742 19.1511 42.0619L19.3151 39.7964L18.3298 37.9599C17.8237 37.0075 17.8622 35.9154 18.3341 35.0342Z" fill="#FF5D7D"/>
<path d="M43.4179 24.8528C42.7406 24.4507 41.8666 24.6717 41.4631 25.349C41.0611 26.0262 41.2821 26.9002 41.9593 27.3037C45.1873 29.2257 47.1934 32.7488 47.1934 36.5C47.1934 42.3971 42.397 47.1934 36.5 47.1934C30.603 47.1934 25.8066 42.3971 25.8066 36.5C25.8066 32.7488 27.8127 29.2257 31.0407 27.3037C31.7179 26.9017 31.9389 26.0262 31.5369 25.349C31.1348 24.6717 30.2594 24.4507 29.5821 24.8528C25.4944 27.2866 22.9551 31.7493 22.9551 36.5C22.9551 43.9683 29.0318 50.0449 36.5 50.0449C43.9682 50.0449 50.0449 43.9683 50.0449 36.5C50.0449 31.7493 47.5056 27.2866 43.4179 24.8528Z" fill="black"/>
<path d="M67.4652 36.5L72.849 25.7311C73.07 25.2891 73.0457 24.7644 72.7862 24.3438C72.5267 23.9232 72.0691 23.668 71.5743 23.668H51.525C50.9846 22.5131 49.9723 21.6191 48.729 21.2442L47.1093 20.7551L45.8575 19.3079C44.8965 18.1773 43.4422 17.5885 41.9651 17.7339L40.2841 17.9007L38.6231 17.0666C37.2914 16.3594 35.7045 16.3609 34.3714 17.0709L32.8986 17.8608L31.0707 17.7282C29.5451 17.5671 28.058 18.1773 27.0857 19.365L26.0106 20.6781L24.4865 21.1843C23.1534 21.5179 22.0498 22.4404 21.4766 23.668H1.42588C0.931131 23.668 0.473455 23.9232 0.212537 24.3438C-0.0469552 24.7644 -0.0711935 25.2891 0.149803 25.7311L5.53498 36.5L0.151228 47.2689C-0.0697677 47.7109 -0.0455294 48.2356 0.213963 48.6562C0.473455 49.0768 0.931131 49.332 1.42588 49.332H21.4766C22.017 50.4869 23.0293 51.3795 24.2726 51.7559L25.8923 52.2449L27.1441 53.6921C28.1051 54.8227 29.5608 55.4101 31.0365 55.2661L32.7175 55.0993L34.3785 55.9334C35.0429 56.287 35.7715 56.4624 36.5001 56.4624C37.2315 56.4624 37.9629 56.2842 38.6302 55.9291L40.103 55.1393L41.9309 55.2719C43.4579 55.433 44.945 54.8227 45.916 53.6351L46.991 52.3233L48.5151 51.8172C49.8483 51.485 50.9518 50.5611 51.525 49.3335H71.5743C72.0691 49.3335 72.5267 49.0783 72.7876 48.6576C73.0471 48.237 73.0714 47.7124 72.8504 47.2704L67.4652 36.5ZM8.40365 37.1373C8.60468 36.7353 8.60468 36.2633 8.40365 35.8627L3.73279 26.5195H20.0295L19.308 27.144C18.1774 28.105 17.59 29.5593 17.734 31.0364L17.9008 32.7174L17.0667 34.3785C16.3595 35.7101 16.3609 37.297 17.071 38.6301L17.8609 40.103L17.7283 41.9308C17.5671 43.4564 18.1774 44.9449 19.3651 45.9159L20.0566 46.4819H3.73279L8.40365 37.1373ZM47.7966 49.0554C47.7538 49.0654 47.7124 49.0768 47.6711 49.0911L45.6992 49.7455C45.4426 49.8311 45.2159 49.9865 45.0448 50.1961L43.7074 51.8286C43.3453 52.272 42.7878 52.4973 42.2175 52.4331C42.1989 52.4303 42.1804 52.4288 42.1604 52.4274L39.8949 52.2635C39.6254 52.2449 39.3559 52.3019 39.1178 52.4288L37.2828 53.4126C36.7895 53.6764 36.1992 53.675 35.7059 53.4098C35.6945 53.4041 35.6831 53.3969 35.6703 53.3912L33.6243 52.3647C33.4247 52.2649 33.2065 52.2135 32.9855 52.2135C32.9385 52.2135 32.8914 52.2164 32.8444 52.2207L30.7542 52.4288C30.2095 52.483 29.6706 52.2649 29.307 51.8371L27.7772 50.0677C27.6004 49.8639 27.3694 49.7142 27.1113 49.6357L25.0967 49.0269C24.5221 48.853 24.0815 48.3825 23.9447 47.7965C23.9347 47.7537 23.9233 47.7124 23.909 47.671L23.2546 45.6992C23.169 45.4425 23.0136 45.2158 22.804 45.0447L21.1715 43.7073C20.7281 43.3452 20.5014 42.7877 20.567 42.2174C20.5684 42.1989 20.5713 42.1803 20.5727 42.1604L20.7367 39.8948C20.7566 39.6253 20.6982 39.3559 20.5713 39.1177L19.5875 37.2828C19.3237 36.7894 19.3251 36.1992 19.5903 35.7044C19.596 35.693 19.6032 35.6816 19.6089 35.6702L20.6354 33.6242C20.7566 33.3833 20.8065 33.1124 20.7794 32.8429L20.5713 30.7527C20.5171 30.208 20.7352 29.6691 21.163 29.3055L22.9324 27.7757C23.1362 27.5989 23.286 27.3679 23.3644 27.1098L23.8449 25.5201C23.8463 25.5158 23.8477 25.5115 23.8491 25.5072L23.9746 25.0938C24.1485 24.5192 24.6191 24.0786 25.2051 23.9417C25.2478 23.9318 25.2892 23.9203 25.3305 23.9061L27.3024 23.2517C27.559 23.1661 27.7857 23.0107 27.9568 22.8025L29.2942 21.17C29.6563 20.7266 30.2138 20.4999 30.7841 20.5655C30.8027 20.5669 30.8212 20.5698 30.8412 20.5712L33.1067 20.7351C33.3762 20.7537 33.6457 20.6967 33.8838 20.5698L35.7188 19.586C36.2121 19.3222 36.8024 19.3236 37.2971 19.5888C37.3085 19.5945 37.3199 19.6017 37.3313 19.6074L39.3787 20.6339C39.6197 20.7551 39.8906 20.805 40.1601 20.7779L42.2503 20.5698C42.7949 20.5156 43.3339 20.7337 43.6974 21.1615L45.2273 22.9309C45.4041 23.1347 45.6351 23.2844 45.8931 23.3629L47.9078 23.9717C48.4809 24.1442 48.9229 24.6161 49.0598 25.2021C49.0698 25.2449 49.0812 25.2862 49.0954 25.3276L49.7499 27.2994C49.8354 27.5561 49.9908 27.7828 50.199 27.9539L51.8315 29.2913C52.2749 29.6534 52.5016 30.2109 52.436 30.7812C52.4332 30.7997 52.4318 30.8183 52.4303 30.8382L52.2664 33.1038C52.2464 33.3733 52.3049 33.6427 52.4318 33.8809L53.4156 35.7158C53.6793 36.2092 53.6779 36.7994 53.4127 37.2927C53.407 37.3042 53.3999 37.3156 53.3942 37.3284L52.3676 39.3758C52.2464 39.6168 52.1965 39.8877 52.2236 40.1571L52.4318 42.2473C52.4859 42.7934 52.2678 43.3309 51.8401 43.6945L50.0707 45.2244C49.8668 45.4012 49.7171 45.6321 49.6387 45.8902L49.0299 47.9048C48.8531 48.478 48.3811 48.9186 47.7966 49.0554ZM52.9707 46.4805L53.6922 45.856C54.8228 44.895 55.4102 43.4407 55.2662 41.9636L55.0994 40.2826L55.9335 38.6216C56.6407 37.2899 56.6392 35.703 55.9292 34.3699L55.1393 32.8971L55.2719 31.0692C55.433 29.5436 54.8228 28.0565 53.6351 27.0842L52.9436 26.5181H69.2674L64.5965 35.8613C64.3955 36.2633 64.3955 36.7353 64.5965 37.1359L69.2674 46.4805H52.9707Z" fill="black"/>
<path d="M29.2685 32.917C28.7737 33.3918 28.4943 34.032 28.4814 34.7178C28.4686 35.4036 28.7224 36.0537 29.1986 36.5485L30.9152 38.3278L30.6016 40.7189C30.5046 41.2521 30.5816 41.811 30.8197 42.3001C31.1205 42.9174 31.6424 43.3808 32.2911 43.6047C32.5663 43.7002 32.8486 43.7458 33.1309 43.7458C33.5159 43.7458 33.898 43.6588 34.253 43.4849L36.4729 42.4041L38.7613 43.4934C39.2133 43.7087 39.718 43.7872 40.2185 43.7173C40.8986 43.6232 41.5002 43.271 41.9137 42.7235C42.3272 42.1774 42.504 41.5016 42.4099 40.8201L42.0677 38.372L43.7401 36.6083C44.1308 36.2291 44.386 35.7457 44.4801 35.2082C44.5985 34.5324 44.4459 33.8509 44.051 33.2891C43.656 32.7274 43.0672 32.3538 42.3942 32.2355L39.9604 31.8049L38.7513 29.5792C38.7513 29.5792 38.7513 29.5792 38.7513 29.5778C38.5104 29.1358 38.1496 28.7779 37.7062 28.5413C37.1017 28.219 36.4073 28.1506 35.7515 28.3502C35.0956 28.5498 34.5567 28.9932 34.2345 29.5978L33.0724 31.7778L30.6358 32.2312C30.1182 32.3167 29.6463 32.552 29.2685 32.917ZM34.2687 34.4583C34.695 34.3784 35.0628 34.1104 35.2667 33.7268L36.5014 31.4099L37.7846 33.771C37.9914 34.1517 38.3621 34.4183 38.7884 34.4939L41.3819 34.953L39.527 36.9092C39.229 37.2243 39.0892 37.6577 39.1491 38.0883L39.5127 40.6946L37.0803 39.5355C36.8864 39.4428 36.6768 39.3972 36.4672 39.3972C36.2534 39.3972 36.0395 39.4456 35.8427 39.5412L33.4802 40.6918L33.831 38.0199C33.888 37.5893 33.7454 37.1573 33.4431 36.845L31.6181 34.953L34.2687 34.4583Z" fill="black"/>
<path d="M36.5001 25.8066C37.2871 25.8066 37.9259 25.1679 37.9259 24.3809C37.9259 23.5938 37.2871 22.9551 36.5001 22.9551H36.4987C35.7116 22.9551 35.0729 23.5938 35.0729 24.3809C35.0729 25.1679 35.713 25.8066 36.5001 25.8066Z" fill="black"/>
</g>
<defs>
<clipPath id="clip0">
<rect width="73" height="73" fill="white"/>
</clipPath>
</defs>
</svg>
