<svg width="74" height="71" viewBox="0 0 74 71" fill="none" xmlns="http://www.w3.org/2000/svg">
<path fill-rule="evenodd" clip-rule="evenodd" d="M28.7075 50.8271H45.8169C45.8169 41.8447 58.6489 42.1299 58.6489 23.7373C58.6489 11.9261 49.0734 2.35059 37.2622 2.35059C25.451 2.35059 15.8755 11.9261 15.8755 23.7373C15.8755 42.1299 28.7075 41.8447 28.7075 50.8271Z" fill="#FFEA60"/>
<path fill-rule="evenodd" clip-rule="evenodd" d="M45.8169 50.8271H28.7075C26.9424 50.8271 25.4995 52.2715 25.4995 54.0352C25.4995 55.7988 26.9438 57.2432 28.7075 57.2432H45.8169C47.5806 57.2432 49.0249 55.7988 49.0249 54.0352C49.0249 52.2715 47.582 50.8271 45.8169 50.8271Z" fill="#6D91AC"/>
<path fill-rule="evenodd" clip-rule="evenodd" d="M28.7075 57.2432H45.8169V62.9463H28.7075V57.2432Z" fill="#A7BDCD"/>
<path fill-rule="evenodd" clip-rule="evenodd" d="M45.8169 62.9463H28.7075V65.7979C28.7075 67.3662 29.9907 68.6494 31.5591 68.6494H42.9653C44.5337 68.6494 45.8169 67.3662 45.8169 65.7979V62.9463Z" fill="#A7BDCD"/>
<path d="M37.2622 0.924805C24.684 0.924805 14.4497 11.1591 14.4497 23.7373C14.4497 35.1635 19.1804 39.7973 22.9816 43.52C25.1459 45.6402 26.7884 47.2499 27.1876 49.6594C25.3769 50.2896 24.0737 52.0134 24.0737 54.0366C24.0737 56.094 25.4225 57.842 27.2817 58.4451V61.5219H26.9253C26.1383 61.5219 25.4995 62.1607 25.4995 62.9477C25.4995 63.7347 26.1383 64.3735 26.9253 64.3735H27.2817V65.7993C27.2817 68.1575 29.2008 70.0766 31.5591 70.0766H42.9653C45.3236 70.0766 47.2427 68.1575 47.2427 65.7993V64.3735H47.5991C48.3862 64.3735 49.0249 63.7347 49.0249 62.9477C49.0249 62.1607 48.3862 61.5219 47.5991 61.5219H47.2427V58.4451C49.1019 57.842 50.4507 56.094 50.4507 54.0366C50.4507 52.0134 49.1475 50.2911 47.3368 49.6594C47.736 47.2513 49.3785 45.6402 51.5428 43.52C55.344 39.7959 60.0747 35.1621 60.0747 23.7373C60.0747 11.1591 49.8405 0.924805 37.2622 0.924805ZM44.3911 65.7979C44.3911 66.5835 43.7509 67.2236 42.9653 67.2236H31.5591C30.7735 67.2236 30.1333 66.5835 30.1333 65.7979V64.3721H44.3911V65.7979ZM30.1333 61.5205V58.6689H44.3911V61.5205H30.1333ZM49.5467 41.4826C47.2042 43.7781 44.9771 45.961 44.4895 49.4014H43.6782C42.8912 49.4014 42.2524 50.0401 42.2524 50.8271C42.2524 51.6142 42.8912 52.2529 43.6782 52.2529H45.8169C46.7993 52.2529 47.5991 53.0528 47.5991 54.0352C47.5991 55.0175 46.7993 55.8174 45.8169 55.8174H28.7075C27.7252 55.8174 26.9253 55.0175 26.9253 54.0352C26.9253 53.0528 27.7252 52.2529 28.7075 52.2529H30.8462C31.6332 52.2529 32.272 51.6142 32.272 50.8271C32.272 50.0401 31.6332 49.4014 30.8462 49.4014H30.0335C29.5473 45.961 27.3202 43.7781 24.9763 41.4826C21.379 37.958 17.3013 33.9644 17.3013 23.7373C17.3013 12.7303 26.2552 3.77637 37.2622 3.77637C48.2692 3.77637 57.2231 12.7303 57.2231 23.7373C57.2231 33.9644 53.1454 37.958 49.5467 41.4826Z" fill="black"/>
<path d="M10.1724 23.7373C10.1724 22.9503 9.53361 22.3115 8.74658 22.3115H2.18799C1.40096 22.3115 0.762207 22.9503 0.762207 23.7373C0.762207 24.5243 1.40096 25.1631 2.18799 25.1631H8.74658C9.53361 25.1631 10.1724 24.5243 10.1724 23.7373Z" fill="black"/>
<path d="M11.8534 36.7604L6.17313 40.0397C5.4916 40.4332 5.25777 41.3058 5.65129 41.9873C5.91506 42.445 6.39412 42.7002 6.88744 42.7002C7.12982 42.7002 7.37506 42.6389 7.59891 42.5092L13.2792 39.2299C13.9607 38.8364 14.1946 37.9638 13.8011 37.2823C13.4075 36.6007 12.5364 36.3669 11.8534 36.7604Z" fill="black"/>
<path d="M68.35 40.0397L62.6697 36.7604C61.9882 36.3669 61.1156 36.6007 60.7221 37.2823C60.3286 37.9638 60.5624 38.8364 61.2439 39.2299L66.9242 42.5092C67.1495 42.6389 67.3933 42.7002 67.6357 42.7002C68.129 42.7002 68.6081 42.445 68.8719 41.9873C69.2654 41.3058 69.033 40.4332 68.35 40.0397Z" fill="black"/>
<path d="M72.3364 22.3115H65.7778C64.9908 22.3115 64.3521 22.9503 64.3521 23.7373C64.3521 24.5243 64.9908 25.1631 65.7778 25.1631H72.3364C73.1235 25.1631 73.7622 24.5243 73.7622 23.7373C73.7622 22.9503 73.1235 22.3115 72.3364 22.3115Z" fill="black"/>
<path d="M61.9597 10.9053C62.2021 10.9053 62.4473 10.844 62.6712 10.7142L68.3515 7.43495C69.033 7.04143 69.2668 6.16886 68.8733 5.48733C68.4798 4.80581 67.6072 4.57198 66.9257 4.9655L61.2454 8.24479C60.5639 8.63831 60.33 9.51089 60.7236 10.1924C60.9873 10.6501 61.4664 10.9053 61.9597 10.9053Z" fill="black"/>
<path d="M13.2792 8.24479L7.59891 4.9655C6.91738 4.57198 6.04481 4.80581 5.65129 5.48733C5.25777 6.16886 5.4916 7.04143 6.17313 7.43495L11.8534 10.7142C12.0773 10.844 12.3225 10.9053 12.5649 10.9053C13.0582 10.9053 13.5373 10.6501 13.8011 10.1924C14.196 9.51089 13.9622 8.63831 13.2792 8.24479Z" fill="black"/>
<path d="M37.2637 49.4014C36.4752 49.4014 35.8379 50.0401 35.8379 50.8271C35.8379 51.6142 36.4766 52.2529 37.2637 52.2529C38.0507 52.2529 38.6895 51.6142 38.6895 50.8271C38.6895 50.0401 38.0507 49.4014 37.2637 49.4014Z" fill="black"/>
</svg>
