<svg width="73" height="73" viewBox="0 0 73 73" fill="none" xmlns="http://www.w3.org/2000/svg">
<path d="M14 7.29993C14 7.29993 7.69995 13.3999 14 19.4999C14 19.4999 19.8 14.0999 14 7.29993Z" fill="#56C023"/>
<path d="M14 20.8999L13.3 20.1999C11.2 18.1999 10.2 15.9999 10.2 13.5999C10.2 9.5999 13.2 6.6999 13.3 6.5999L14.1 5.8999L14.8 6.6999C21.2 14.0999 14.8 20.1999 14.7 20.2999L14 20.8999ZM14 8.8999C13.3 9.8999 12.2 11.5999 12.2 13.5999C12.2 15.0999 12.8 16.5999 14 17.9999C15.1 16.4999 16.9 13.0999 14 8.8999Z" fill="black"/>
<path d="M7.30004 12.8999C7.30004 12.8999 4.10004 21.0999 12.4 23.9999C12.4 23.9999 15.4 16.6999 7.30004 12.8999Z" fill="#56C023"/>
<path d="M12.9 25.2999L12 24.9999C9.29999 23.9999 7.39999 22.4999 6.39999 20.2999C4.69999 16.6999 6.19999 12.7999 6.29999 12.5999L6.69999 11.5999L7.69999 11.9999C16.6 16.0999 13.3 24.2999 13.3 24.3999L12.9 25.2999ZM7.89999 14.3999C7.59999 15.5999 7.39999 17.5999 8.29999 19.3999C8.89999 20.7999 10.1 21.8999 11.7 22.5999C12.1 20.8999 12.4 16.9999 7.89999 14.3999Z" fill="black"/>
<path d="M3.6 20.2999C3.6 20.2999 3.3 28.9999 12 29.0999C12 29.0999 12.5 21.1999 3.6 20.2999Z" fill="#56C023"/>
<path d="M12.9 30.1H12C9.09996 30.1 6.89996 29.2 5.19996 27.5C2.49996 24.6 2.59996 20.3999 2.59996 20.2999V19.2L3.69996 19.2999C13.4 20.2999 13 29.1 13 29.2L12.9 30.1ZM4.59996 21.5C4.69996 22.7 5.19996 24.7 6.59996 26.1C7.69996 27.2 9.09996 27.9 10.9 28.1C10.7 26.2 9.69996 22.5 4.59996 21.5Z" fill="black"/>
<path d="M1.19995 27.3C1.19995 27.3 2.29995 36 11 34.6C11 34.5 10.1 26.7 1.19995 27.3Z" fill="#56C023"/>
<path d="M12.1 35.4L11.2 35.4999C8.39995 35.9999 5.99995 35.4999 4.09995 33.9999C0.899951 31.5999 0.299951 27.4999 0.299951 27.2999L0.199951 26.1999L1.29995 26.0999C11.1 25.3999 12.1 34.1999 12.1 34.2999V35.4ZM2.49995 28.1999C2.89995 29.3999 3.59995 31.2 5.29995 32.4C6.49995 33.3 8.09995 33.6999 9.89995 33.5999C9.29995 31.8999 7.59995 28.3999 2.49995 28.1999Z" fill="black"/>
<path d="M1.30005 34.7999C1.30005 34.7999 4.40005 42.9999 12.5 39.5999C12.5 39.5999 9.90005 32.0999 1.30005 34.7999Z" fill="#56C023"/>
<path d="M13.8 40.0999L12.9 40.4999C10.3 41.5999 7.8 41.6999 5.6 40.6999C1.9 39.0999 0.4 35.2999 0.4 35.0999L0 34.0999L1 33.7999C10.4 30.8999 13.4 39.0999 13.4 39.1999L13.8 40.0999ZM2.8 35.3999C3.4 36.4999 4.6 38.0999 6.5 38.8999C7.9 39.4999 9.5 39.4999 11.2 38.9999C10.2 37.3999 7.8 34.2999 2.8 35.3999Z" fill="black"/>
<path d="M1.30005 40.8999C1.30005 40.8999 4.40005 49.0999 12.5 45.6999C12.5 45.6999 9.90005 38.2999 1.30005 40.8999Z" fill="#56C023"/>
<path d="M13.8 46.2999L12.9 46.6999C10.3 47.7999 7.8 47.8999 5.6 46.8999C1.9 45.2999 0.4 41.4999 0.4 41.2999L0 40.2999L1 39.9999C10.4 37.0999 13.4 45.2999 13.4 45.3999L13.8 46.2999ZM2.8 41.5999C3.4 42.6999 4.6 44.2999 6.5 45.0999C7.9 45.6999 9.5 45.6999 11.2 45.1999C10.2 43.5999 7.8 40.4999 2.8 41.5999Z" fill="black"/>
<path d="M2.80005 47.8999C2.80005 47.8999 7.30005 55.3999 14.7 50.5999C14.7 50.5999 10.8 43.6999 2.80005 47.8999Z" fill="#56C023"/>
<path d="M16 50.8999L15.2 51.3999C12.8 52.9999 10.4 53.4999 8.10005 52.8999C4.20005 51.9999 2.00005 48.4999 1.90005 48.2999L1.30005 47.3999L2.40005 46.9999C11.1 42.4999 15.6 49.9999 15.6 50.0999L16 50.8999ZM4.40005 48.2999C5.20005 49.1999 6.70005 50.5999 8.60005 51.0999C10.1 51.3999 11.7 51.1999 13.3 50.3999C12.1 48.8999 9.10005 46.2999 4.40005 48.2999Z" fill="black"/>
<path d="M5.09998 54.9999C5.09998 54.9999 11.3 61.0999 17.3 54.6999C17.3 54.6999 11.8 48.9999 5.09998 54.9999Z" fill="#56C023"/>
<path d="M18.7 54.6999L18 55.3999C16 57.4999 13.9 58.5999 11.5 58.5999C7.49998 58.6999 4.49998 55.7999 4.39998 55.6999L3.59998 54.9999L4.39998 54.2999C11.7 47.7999 17.9 53.9999 18 54.0999L18.7 54.6999ZM6.69998 54.9999C7.69998 55.6999 9.49998 56.6999 11.5 56.6999C13 56.6999 14.5 55.9999 15.8 54.7999C14.3 53.6999 10.8 51.8999 6.69998 54.9999Z" fill="black"/>
<path d="M9.59998 60.7999C9.59998 60.7999 16.8 65.7999 21.6 58.4999C21.6 58.4999 15.2 53.7999 9.59998 60.7999Z" fill="#56C023"/>
<path d="M23 58.2999L22.5 59.0999C20.9 61.4999 19 62.8999 16.6 63.3999C12.7 64.1999 9.29995 61.7999 9.09995 61.6999L8.19995 60.9999L8.89995 60.1999C15 52.4999 22.2 57.5999 22.2 57.6999L23 58.2999ZM11.2 60.5999C12.3 61.0999 14.2 61.7999 16.2 61.3999C17.7 61.0999 19 60.1999 20.2 58.7999C18.5 57.9999 14.8 56.7999 11.2 60.5999Z" fill="black"/>
<path d="M15.3 66.2999C15.3 66.2999 23.6 68.9999 26.1 60.5999C26 60.5999 18.5 57.9999 15.3 66.2999Z" fill="#56C023"/>
<path d="M27.3 59.9999L27 60.8999C26.2 63.5999 24.7 65.5999 22.6 66.6999C19.1 68.5999 15.1 67.2999 14.9 67.2999L14 66.9999L14.4 65.9999C18 56.8999 26.3 59.6999 26.4 59.6999L27.3 59.9999ZM16.7 65.5999C17.9 65.7999 19.9 65.8999 21.7 64.8999C23 64.1999 24.1 62.9999 24.7 61.2999C22.9 60.9999 19 60.9999 16.7 65.5999Z" fill="black"/>
<path d="M21.2 71.7999C21.2 71.7999 29.9 71.5999 29.5 62.8999C29.5 62.8999 21.6 62.8999 21.2 71.7999Z" fill="#56C023"/>
<path d="M30.4 61.9V62.7999C30.5 65.6999 29.8 67.9999 28.2 69.6999C25.5 72.5999 21.3 72.6999 21.1 72.6999H20V71.5999C20.4 61.7999 29.2 61.7 29.3 61.7L30.4 61.9ZM22.3 70.6999C23.5 70.4999 25.4 69.9 26.8 68.4C27.8 67.3 28.4 65.8 28.5 64C26.7 64.3 23 65.5999 22.3 70.6999Z" fill="black"/>
<path d="M28.8999 71.7999C28.8999 71.7999 37.3999 69.8999 35.2999 61.3999C35.2999 61.3999 27.5999 62.8999 28.8999 71.7999Z" fill="#56C023"/>
<path d="M36.0999 60.2L36.2999 61.0999C36.9999 63.8999 36.6999 66.3 35.4999 68.3C33.3999 71.7 29.2999 72.5999 29.1999 72.6999L28.1999 72.9L27.9999 71.8C26.4999 62.1 35.0999 60.2999 35.1999 60.2999L36.0999 60.2ZM29.7999 70.4C30.8999 69.9 32.6999 69 33.7999 67.3C34.5999 66 34.8999 64.4 34.5999 62.7C32.8999 63.3 29.4999 65.3 29.7999 70.4Z" fill="black"/>
<path d="M58.1 7.30005C58.1 7.30005 64.4 13.4 58.1 19.5C58.1 19.5 52.3 14.1 58.1 7.30005Z" fill="#56C023"/>
<path d="M57.4999 20.2C57.3999 20.1 51.0999 14.1 57.3999 6.60005L58.0999 5.80005L58.8999 6.50005C58.9999 6.60005 61.9999 9.50005 61.9999 13.5C61.9999 15.9 60.9999 18.1 58.8999 20.1L58.1999 20.8L57.4999 20.2ZM58.1999 18C59.3999 16.6 59.9999 15.2 59.9999 13.6C59.9999 11.6 58.9999 9.80005 58.1999 8.90005C55.1999 13.1 57.0999 16.5 58.1999 18Z" fill="black"/>
<path d="M64.9 12.9001C64.9 12.9001 68.1 21.1001 59.8 24.0001C59.8 24.0001 56.7 16.7001 64.9 12.9001Z" fill="#56C023"/>
<path d="M58.9 24.4001C58.9 24.3001 55.6 16.1001 64.5 12.0001L65.5 11.6001L65.9 12.6001C66 12.8001 67.4 16.7001 65.8 20.3001C64.8 22.5001 62.9 24.0001 60.2 25.0001L59.3 25.3001L58.9 24.4001ZM60.4 22.7001C62 21.9001 63.2 20.8001 63.8 19.5001C64.6 17.7001 64.4 15.7001 64.2 14.5001C59.8 17.0001 60 20.9001 60.4 22.7001Z" fill="black"/>
<path d="M68.5999 20.3C68.5999 20.3 68.8999 29 60.1999 29.1C60.1999 29.1 59.6999 21.2 68.5999 20.3Z" fill="#56C023"/>
<path d="M59.2 29.2001C59.2 29.1001 58.7 20.3001 68.5 19.3001L69.6 19.2001V20.3001C69.6 20.5001 69.7 24.6001 67 27.5001C65.4 29.2001 63.1 30.1001 60.2 30.1001H59.3L59.2 29.2001ZM61.2 28.1001C63 27.9001 64.4 27.2001 65.5 26.1001C66.9 24.6001 67.4 22.7001 67.5 21.5001C62.4 22.5001 61.4 26.2001 61.2 28.1001Z" fill="black"/>
<path d="M70.9 27.3001C70.9 27.3001 69.8 36.0001 61.1 34.6001C61.2 34.5001 62 26.7001 70.9 27.3001Z" fill="#56C023"/>
<path d="M60.2 34.4001C60.2 34.3001 61.3 25.6001 71 26.2001L72.0999 26.3001L72 27.4001C72 27.6001 71.3999 31.7001 68.1999 34.1001C66.2999 35.5001 63.8999 36.0001 61.0999 35.6001L60.2 35.5001V34.4001ZM62.4 33.7001C64.2 33.8001 65.7 33.4001 67 32.5001C68.6 31.3001 69.4 29.4001 69.8 28.3001C64.5 28.4001 62.9 31.9001 62.4 33.7001Z" fill="black"/>
<path d="M70.8 34.8C70.8 34.8 67.7 43 59.6 39.6C59.6 39.6 62.3 32.1 70.8 34.8Z" fill="#56C023"/>
<path d="M58.6999 39.2C58.6999 39.1 61.7999 30.9 71.0999 33.8L72.0999 34.1L71.6999 35.1C71.5999 35.3 70.0999 39.1 66.4999 40.7C64.2999 41.6 61.8999 41.6 59.1999 40.5L58.2999 40.1L58.6999 39.2ZM60.9999 39C62.6999 39.5 64.2999 39.5 65.6999 38.9C67.5999 38.1 68.7999 36.5 69.3999 35.4C64.2999 34.3 61.8999 37.4 60.9999 39Z" fill="black"/>
<path d="M70.8 40.9C70.8 40.9 67.7 49.1 59.6 45.7C59.6 45.7 62.3 38.3 70.8 40.9Z" fill="#56C023"/>
<path d="M58.6999 45.4001C58.6999 45.3001 61.7999 37.1001 71.0999 40.0001L72.0999 40.3001L71.6999 41.3001C71.5999 41.5001 70.0999 45.3001 66.4999 46.9001C64.2999 47.8001 61.8999 47.8001 59.1999 46.7001L58.2999 46.3001L58.6999 45.4001ZM60.9999 45.2001C62.6999 45.7001 64.2999 45.7001 65.6999 45.1001C67.5999 44.3001 68.7999 42.7001 69.3999 41.6001C64.2999 40.5001 61.8999 43.6001 60.9999 45.2001Z" fill="black"/>
<path d="M69.3 47.9001C69.3 47.9001 64.8 55.4001 57.4 50.6001C57.4 50.6001 61.4 43.7001 69.3 47.9001Z" fill="#56C023"/>
<path d="M56.6 50.1001C56.6 50.0001 61.1 42.4001 69.8 47.0001L70.7 47.5001L70.1 48.4001C70 48.6001 67.8 52.1001 63.9 53.0001C61.6 53.5001 59.2 53.0001 56.8 51.5001L56 51.0001L56.6 50.1001ZM58.9 50.3001C60.5 51.1001 62.1 51.4001 63.6 51.0001C65.6 50.6001 67 49.2001 67.8 48.2001C63 46.3001 60.1 48.9001 58.9 50.3001Z" fill="black"/>
<path d="M67 55C67 55 60.8 61.1 54.8 54.7C54.9 54.7 60.4 49 67 55Z" fill="#56C023"/>
<path d="M54.1 54.0001C54.2 53.9001 60.4 47.7001 67.7 54.2001L68.5 54.9001L67.7 55.6001C67.6 55.7001 64.6 58.6001 60.6 58.5001C58.2 58.5001 56 57.4001 54.1 55.3001L53.5 54.6001L54.1 54.0001ZM56.3 54.7001C57.7 55.9001 59.1 56.5001 60.6 56.6001C62.6 56.6001 64.4 55.7001 65.4 54.9001C61.3 51.9001 57.8 53.7001 56.3 54.7001Z" fill="black"/>
<path d="M62.5 60.8C62.5 60.8 55.3 65.8 50.5 58.5C50.5 58.5 56.9 53.8 62.5 60.8Z" fill="#56C023"/>
<path d="M49.9 57.7C50 57.6 57.1 52.5 63.2 60.2L64 61L63.0999 61.6C62.9999 61.7 59.4999 64.1 55.5999 63.3C53.2999 62.8 51.3 61.4 49.7 59L49.2 58.2L49.9 57.7ZM52 58.8C53.1 60.2 54.5 61.1 56 61.4C58 61.8 59.9 61.1 61 60.6C57.4 56.8 53.6 58 52 58.8Z" fill="black"/>
<path d="M56.8999 66.3001C56.8999 66.3001 48.5999 69.0001 46.0999 60.6001C46.0999 60.6001 53.5999 58.0001 56.8999 66.3001Z" fill="#56C023"/>
<path d="M45.7999 59.7001C45.8999 59.7001 54.1999 56.9 57.7999 66.0001L58.1999 67.0001L57.1999 67.3001C56.9999 67.4001 53.0999 68.6 49.4999 66.7C47.3999 65.6 45.8999 63.6001 45.0999 60.9001L44.8999 60L45.7999 59.7001ZM47.3999 61.3C48.0999 63 49.0999 64.2001 50.3999 64.9001C52.1999 65.9001 54.1999 65.8 55.3999 65.6C53.0999 61 49.1999 61 47.3999 61.3Z" fill="black"/>
<path d="M50.8999 71.8C50.8999 71.8 42.1999 71.6 42.5999 62.9C42.6999 62.9 50.5999 62.9 50.8999 71.8Z" fill="#56C023"/>
<path d="M42.6999 61.9C42.7999 61.9 51.5999 62 51.9999 71.8V72.9H50.8999C50.6999 72.9 46.5999 72.8 43.7999 69.9C42.1999 68.2 41.3999 65.8 41.5999 63V62.1L42.6999 61.9ZM43.5999 64C43.6999 65.8 44.1999 67.3 45.2999 68.4C46.6999 69.9 48.5999 70.5 49.7999 70.7C49.1999 65.6 45.4999 64.3 43.5999 64Z" fill="black"/>
<path d="M43.2 71.8C43.2 71.8 34.7 69.9 36.8 61.4C36.8 61.4 44.6 62.9 43.2 71.8Z" fill="#56C023"/>
<path d="M37 60.4001C37.1 60.4001 45.7 62.2001 44.2 71.9001L44 73L43 72.8001C42.8 72.8001 38.8 71.8001 36.7 68.4001C35.4 66.4001 35.2 63.9001 35.9 61.2001L36.1 60.3L37 60.4001ZM37.6 62.7001C37.3 64.5001 37.6 66.0001 38.4 67.3001C39.5 69.0001 41.2 70.0001 42.4 70.4001C42.7 65.3001 39.3 63.3001 37.6 62.7001Z" fill="black"/>
<path fill-rule="evenodd" clip-rule="evenodd" d="M50.1999 34.1001C50.1999 33.8001 50.0999 33.6001 49.9999 33.4001L45.1999 26.2001C44.9999 25.9001 44.5999 25.7001 44.2999 25.7001H39.4999H33.5999L31.3999 33.7001L33.5999 25.7001H28.7999C28.3999 25.7001 27.9999 25.9001 27.7999 26.3001L22.9999 33.4001C22.8999 33.6001 22.7999 33.8001 22.7999 34.1001H31.1999H41.8999H31.1999H22.7999C22.7999 34.4001 22.8999 34.7001 23.0999 34.9001L35.6999 49.2001C36.0999 49.7001 36.8999 49.7001 37.2999 49.2001C41.4999 44.5001 45.6999 39.6001 49.8999 34.9001C50.0999 34.7001 50.1999 34.4001 50.1999 34.1001ZM36.4999 49.5001L41.7999 34.2001L36.4999 49.5001Z" fill="#71EBFF"/>
<path d="M36.5 50.8001C35.9 50.8001 35.2 50.5001 34.8 50.0001L22.2 35.7001C21.8 35.3001 21.6 34.8001 21.6 34.2001V34.1001C21.6 33.6001 21.7 33.2001 22 32.8001L26.7 25.7001C27.1 25.0001 27.9 24.5001 28.7 24.5001H44.3C45.1 24.5001 45.8 24.9001 46.2 25.5001L51 32.7001C51.3 33.1001 51.5 33.6001 51.5 34.1001C51.5 34.7001 51.3 35.2001 50.9 35.7001C49.5 37.3001 48.1 38.9001 46.7 40.5001C44 43.7001 41.1 46.9001 38.3 50.0001C37.7 50.5001 37.1 50.8001 36.5 50.8001ZM24.9 35.3001L35.9 47.8001L40.2 35.3001H24.9ZM43 34.1001C43 34.2001 43 34.4001 42.9 34.5001L39 45.6001C41 43.4001 42.9 41.1001 44.8 38.9001C46.2 37.3001 47.6 35.7001 49 34.1001C49 34.1001 49 34.1001 49 34.0001C49 34.0001 49 34.0001 49 33.9001C49 33.9001 49 33.9001 49 33.8001L44.2 26.6001H34.4L32.7 33.0001H41.8C41.9 33.0001 42.1 33.0001 42.2 33.1001C42.7 33.2001 43 33.6001 43 34.1001ZM24.7 33.0001H30.3L32 26.8001H28.7C28.7 26.8001 28.7 26.9001 28.6 26.9001L24.7 33.0001Z" fill="black"/>
<path fill-rule="evenodd" clip-rule="evenodd" d="M14.8 36.5C14.8 24.5 24.5 14.8 36.5 14.8C48.5 14.8 58.2 24.5 58.2 36.5C58.2 48.5 48.5 58.2 36.5 58.2C24.5 58.2 14.8 48.5 14.8 36.5ZM41.8 10.5L38.7 8.90004C37.4 8.20004 35.7 8.10004 34.3 8.90004L31.5 10.4L28.1 10.2C26.6 10 25 10.6 23.9 11.9L21.9 14.4L18.9 15.4C17.3 15.8 16 17 15.5 18.6L14.6 21.7L11.9 24C10.8 25 10.1 26.5 10.3 28L10.6 31.2L9.00001 34.3C8.30001 35.6 8.20001 37.3 9.00001 38.7L10.5 41.5L10.3 44.9C10.1 46.4 10.7 48 12 49.1L14.5 51.1L15.5 54.1C15.9 55.7 17.1 57 18.7 57.5L21.8 58.4L24.1 61.1C25.1 62.2 26.6 62.9 28.1 62.7L31.3 62.4L34.4 64C35.7 64.7 37.4 64.8 38.8 64L41.6 62.5L45 62.7C46.5 62.9 48.1 62.3 49.2 61L51.2 58.5L54.2 57.5C55.8 57.1 57.1 55.9 57.6 54.3L58.5 51.2L61.2 48.9C62.3 47.9 63 46.4 62.8 44.9L62.5 41.7L64.1 38.6C64.8 37.3 64.9 35.6 64.1 34.2L62.6 31.4L62.8 28C63 26.5 62.4 24.9 61.1 23.8L58.6 21.8L57.6 18.8C57.2 17.2 56 15.9 54.4 15.4L51.3 14.5L49 11.8C48 10.7 46.5 10 45 10.2L41.8 10.5Z" fill="#EAEAEA"/>
<path fill-rule="evenodd" clip-rule="evenodd" d="M36.4999 14.8C24.4999 14.8 14.7999 24.5 14.7999 36.5C14.7999 48.5 24.4999 58.2001 36.4999 58.2001C48.4999 58.2001 58.1999 48.5 58.1999 36.5C58.1999 24.5 48.4999 14.8 36.4999 14.8ZM22.9999 33.4001L27.7999 26.2C27.9999 25.8 28.3999 25.6 28.7999 25.6H44.3999C44.7999 25.6 45.0999 25.8 45.2999 26.1L50.0999 33.3C50.3999 33.8 50.3999 34.4 49.9999 34.8C45.7999 39.6 41.6999 44.4 37.3999 49.1C36.9999 49.6 36.1999 49.6 35.7999 49.1L23.0999 34.9001C22.6999 34.5001 22.6999 33.9001 22.9999 33.4001Z" fill="#C1C1C1"/>
<path fill-rule="evenodd" clip-rule="evenodd" d="M50.1999 34.1001C50.1999 33.8001 50.0999 33.6001 49.9999 33.4001L45.1999 26.2001C44.9999 25.9001 44.5999 25.7001 44.2999 25.7001H39.4999H33.5999L31.3999 33.7001L33.5999 25.7001H28.7999C28.3999 25.7001 27.9999 25.9001 27.7999 26.3001L22.9999 33.4001C22.8999 33.6001 22.7999 33.8001 22.7999 34.1001H31.1999H41.8999H31.1999H22.7999C22.7999 34.4001 22.8999 34.7001 23.0999 34.9001L35.6999 49.2001C36.0999 49.7001 36.8999 49.7001 37.2999 49.2001C41.4999 44.5001 45.6999 39.6001 49.8999 34.9001C50.0999 34.7001 50.1999 34.4001 50.1999 34.1001ZM36.4999 49.5001L41.7999 34.2001L36.4999 49.5001Z" fill="#71EBFF"/>
<path d="M36.5 51.9001C35.5 51.9001 34.6 51.5001 34 50.7001L21.4 36.4001C20.9 35.8001 20.6 35.0001 20.5 34.2001V34.1001C20.5 33.4001 20.7 32.7001 21.1 32.2001L25.8 25.1001C26.4 24.1001 27.5 23.4001 28.7 23.4001H44.3C45.4 23.4001 46.5 24.0001 47.1 24.9001L51.8 32.1001C52.2 32.7001 52.5 33.4001 52.5 34.1001C52.5 35.0001 52.2 35.8001 51.6 36.4001C50.2 38.0001 48.8 39.6001 47.4 41.2001C44.7 44.4001 41.8 47.6001 39 50.8001C38.4 51.5001 37.5 51.9001 36.5 51.9001ZM27.4 36.4001L35.4 45.5001L38.6 36.4001H27.4ZM44.1 34.1001C44.1 34.3001 44.1 34.6001 44 34.9001L42 40.5001C42.7 39.7001 43.3 39.0001 44 38.2001C45.2 36.8001 46.4 35.4001 47.7 34.0001L43.7 27.9001H35.3L34.2 31.8001H41.8C42 31.8001 42.2 31.8001 42.3 31.9001C42.4 31.9001 42.6 32.0001 42.7 32.0001C43.6 32.4001 44.1 33.2001 44.1 34.1001ZM26.8 31.8001H29.5L30.6 27.9001H29.4L26.8 31.8001Z" fill="black"/>
<path d="M41.9 14.3001C41.3 14.2001 40.7 14.5001 40.5 15.1001C40.4 15.7001 40.7 16.3001 41.3 16.5001C50.6 18.7001 57 27.0001 57 36.5001C57 47.8001 47.8 57.1001 36.4 57.1001C25 57.1001 15.8 47.9001 15.8 36.5001C15.8 27.0001 22.3 18.7001 31.5 16.5001C32.1 16.4001 32.5 15.7001 32.3 15.1001C32.2 14.5001 31.5 14.1001 30.9 14.3001C26 15.5001 21.6 18.3001 18.4 22.3001C15.1 26.4001 13.4 31.3001 13.4 36.6001C13.4 49.2001 23.7 59.5001 36.3 59.5001C48.9 59.5001 59.2 49.2001 59.2 36.6001C59.2 31.4001 57.5 26.4001 54.2 22.3001C51.2 18.3001 46.8 15.5001 41.9 14.3001Z" fill="black"/>
<path d="M65.1 33.7001L63.8 31.2001L64 28.1001C64.2 26.1001 63.4 24.2001 61.9 22.9001L59.7 21.1001L58.8 18.5001C58.3 16.5001 56.8 14.9001 54.8 14.3001L52 13.5001L49.9 11.1001C48.7 9.6001 46.8 8.9001 44.9 9.1001L42 9.3001L39.2 7.9001C37.5 7.0001 35.4 7.0001 33.7 7.9001L31.2 9.2001L28.2 9.0001C26.2 8.8001 24.3 9.6001 23 11.1001L21.2 13.3001L18.6 14.2001C16.6 14.7001 15 16.2001 14.4 18.2001L13.5 21.0001L11.1 23.1001C9.59998 24.3001 8.89998 26.2001 9.09998 28.1001L9.29998 31.0001L7.89998 33.8001C6.99998 35.5001 6.99998 37.6001 7.89998 39.3001L9.19998 41.8001L8.99998 44.8001C8.79998 46.8001 9.59998 48.7001 11.1 50.0001L13.3 51.8001L14.2 54.4001C14.7 56.4001 16.2 58.0001 18.2 58.6001L20.9 59.4001L23 61.8001C24.2 63.3001 26.1 64.0001 28 63.8001L30.8 63.5001L33.6 64.9001C34.5 65.4001 35.4 65.6001 36.4 65.6001C37.3 65.6001 38.3 65.4001 39.2 64.9001L41.7 63.6001L44.8 63.8001C46.8 64.0001 48.7 63.2001 50 61.7001L51.8 59.5001L54.4 58.6001C56.4 58.1001 58 56.6001 58.6 54.6001L59.4 51.9001L61.8 49.8001C63.3 48.6001 64 46.7001 63.8 44.8001L63.7 42.0001L65.1 39.2001C66 37.5001 66 35.5001 65.1 33.7001ZM63.1 38.2001L61.5 41.3001C61.4 41.5001 61.4 41.7001 61.4 41.9001L61.7 45.1001C61.8 46.3001 61.4 47.4001 60.5 48.2001L57.8 50.5001C57.6 50.6001 57.5 50.8001 57.5 51.0001L56.6 54.1001C56.2 55.3001 55.2 56.3001 54 56.5001H53.9L50.9 57.5001C50.7 57.6001 50.5 57.7001 50.4 57.9001L48.4 60.4001C47.6 61.3001 46.4 61.8001 45.2 61.7001L41.8 61.5001C41.6 61.5001 41.4 61.5001 41.2 61.6001L38.4 63.1001C37.3 63.7001 36.1 63.7001 35 63.1001L31.9 61.5001C31.7 61.4001 31.6 61.4001 31.4 61.4001H31.3L28.1 61.7001C26.9 61.8001 25.8 61.4001 25 60.5001L22.7 57.8001C22.6 57.6001 22.4 57.5001 22.2 57.5001L19.1 56.6001C17.9 56.2001 16.9 55.2001 16.7 54.0001V53.9001L15.7 50.9001C15.6 50.7001 15.5 50.5001 15.3 50.4001L12.8 48.4001C11.9 47.6001 11.4 46.4001 11.5 45.2001L11.7 41.8001C11.7 41.6001 11.7 41.4001 11.6 41.2001L10.1 38.4001C9.49998 37.3001 9.49998 36.1001 10.1 35.0001L11.7 31.9001C11.8 31.7001 11.8 31.5001 11.8 31.3001L11.5 28.1001C11.4 26.9001 11.8 25.8001 12.7 25.0001L15.4 22.7001C15.6 22.6001 15.7 22.4001 15.7 22.2001L16.6 19.1001C17 17.9001 18 16.9001 19.2 16.7001H19.3L22.3 15.7001C22.5 15.6001 22.7 15.5001 22.8 15.3001L24.8 12.8001C25.6 11.9001 26.8 11.4001 28 11.5001L31.4 11.7001C31.6 11.7001 31.8 11.7001 32 11.6001L34.8 10.1001C35.9 9.5001 37.1 9.5001 38.2 10.1001L41.3 11.7001C41.5 11.8001 41.7 11.8001 41.9 11.8001L45.1 11.5001C46.3 11.4001 47.4 11.8001 48.2 12.7001L50.5 15.4001C50.6 15.6001 50.8 15.7001 51 15.7001L54.1 16.6001C55.3 17.0001 56.3 18.0001 56.5 19.2001V19.3001L57.5 22.3001C57.6 22.5001 57.7 22.7001 57.9 22.8001L60.4 24.8001C61.3 25.6001 61.8 26.8001 61.7 28.0001L61.5 31.4001C61.5 31.6001 61.5 31.8001 61.6 32.0001L63.1 34.8001C63.6 35.9001 63.6 37.1001 63.1 38.2001Z" fill="black"/>
<path d="M36.5 15.9001C37.1 15.9001 37.6 15.4001 37.6 14.8001C37.6 14.2001 37.1 13.7001 36.5 13.7001C35.9 13.7001 35.4 14.2001 35.4 14.8001C35.4 15.4001 35.9 15.9001 36.5 15.9001Z" fill="black"/>
<path fill-rule="evenodd" clip-rule="evenodd" d="M31.2549 34.1193L33.5971 26H28.8396C28.4257 26 28.0657 26.2325 27.8744 26.5768L23.1991 33.4679C23.0664 33.6631 23.0011 33.8912 23 34.1182L31.2549 34.1193Z" fill="#D996FF"/>
<path fill-rule="evenodd" clip-rule="evenodd" d="M39.4017 26L41.7439 34.1193H50C50 33.8671 49.919 33.616 49.7592 33.4098L45.0648 26.4902C44.8567 26.1831 44.518 26 44.1592 26H39.4017Z" fill="#D996FF"/>
<path fill-rule="evenodd" clip-rule="evenodd" d="M41.7441 34.1193L39.4019 26H33.5983L31.2561 34.1193H41.7441Z" fill="#B400FF"/>
<path fill-rule="evenodd" clip-rule="evenodd" d="M41.7441 34.1191H31.255L36.4995 48.8247L41.7441 34.1191Z" fill="#7500B2"/>
<path fill-rule="evenodd" clip-rule="evenodd" d="M36.4994 48.8247L31.2549 34.1191H23.0011C23.0011 34.3999 23.1001 34.6795 23.2947 34.8944L35.6883 48.6372C36.1271 49.1219 36.8718 49.1197 37.3094 48.6372C41.4886 44.1455 45.5857 39.4597 49.703 34.8944C49.9022 34.6751 50 34.3966 50 34.1191H41.744L36.4994 48.8247Z" fill="#B400FF"/>
</svg>
