<svg width="73" height="73" viewBox="0 0 73 73" fill="none" xmlns="http://www.w3.org/2000/svg">
<g clip-path="url(#clip0)">
<path fill-rule="evenodd" clip-rule="evenodd" d="M41.0597 44.537L27.7343 31.2117L2.0945 66.0007C1.34882 67.1428 1.03514 68.9393 2.1943 70.097C3.35346 71.2547 5.14852 70.9425 6.29057 70.1968L41.0597 44.537Z" fill="#C1B0B5"/>
<path fill-rule="evenodd" clip-rule="evenodd" d="M27.7343 31.2117L41.0597 44.537L43.0757 46.5531C44.185 47.6623 45.9986 47.6623 47.1079 46.5531C48.2171 45.4438 48.2171 43.6302 47.1079 42.521L29.7504 25.1635C28.6411 24.0542 26.8276 24.0542 25.7183 25.1635C24.609 26.2727 24.609 28.0863 25.7183 29.1956L27.7343 31.2117Z" fill="#DAD0D3"/>
<path fill-rule="evenodd" clip-rule="evenodd" d="M29.7504 25.1634L47.1078 42.5209C50.5097 42.8888 53.8532 42.2158 57.0355 40.7843L51.2611 35.0099L48.026 31.7748L40.8458 24.5946L36.7538 20.5026L31.5055 15.2543C30.0755 18.438 29.3825 21.7615 29.7504 25.1634Z" fill="white"/>
<path fill-rule="evenodd" clip-rule="evenodd" d="M40.8458 24.5946L48.0261 31.7749C52.2977 31.8476 54.3594 27.5032 52.1865 26.7304C45.0063 23.6008 52.1494 17.1192 52.1494 17.1192C46.7372 15.6093 41.7298 18.1144 40.8458 24.5946Z" fill="#FF764E"/>
<path fill-rule="evenodd" clip-rule="evenodd" d="M52.1495 17.1192C52.1495 17.1192 45.0063 23.5994 52.1865 26.7304C54.3594 27.5032 52.2977 31.8476 48.0261 31.7748L51.2612 35.0099C66.2975 34.3355 67.9785 23.0063 67.9785 23.0063C59.2598 27.3649 49.0384 20.3059 65.1797 16.673C70.8757 15.3912 74.4515 6.8807 68.4932 2.13428C66.7266 11.5302 52.6613 5.77287 47.7994 6.51C42.9389 7.24713 36.7524 10.3396 36.7524 20.5026L40.8444 24.5946C41.7298 18.1144 46.7372 15.6093 52.1495 17.1192Z" fill="#FFA300"/>
<path d="M69.3828 1.01936C68.9921 0.707118 68.466 0.624423 67.9969 0.798368C67.5279 0.972313 67.1857 1.38009 67.093 1.87056C66.1463 6.90641 60.7269 6.53571 53.7434 5.52626C51.2782 5.16981 49.1495 4.86184 47.5869 5.09995C44.3133 5.59612 41.5031 6.92638 39.4585 8.94956C37.3426 11.0426 36.0338 13.8357 35.5447 17.2775L32.5135 14.2463C32.1827 13.9156 31.7094 13.7687 31.2474 13.8528C30.7869 13.9369 30.3962 14.2435 30.2037 14.6698C28.9533 17.4501 28.2961 20.2204 28.2333 22.9365C28.0679 22.9179 27.9011 22.9065 27.7314 22.9065C26.5865 22.9065 25.5129 23.3499 24.7074 24.1555C23.9018 24.9611 23.4584 26.0347 23.4584 27.1796C23.4584 28.3245 23.9018 29.3981 24.7074 30.2037L25.8565 31.3529L0.946718 65.1538C0.931035 65.1752 0.915351 65.1981 0.901093 65.2209C-0.163965 66.852 -0.528965 69.3898 1.18625 71.1051C2.03174 71.9505 3.07684 72.2913 4.1148 72.2913C5.18271 72.2913 6.2435 71.9306 7.07045 71.3916C7.09326 71.3774 7.11607 71.3617 7.13746 71.3446L40.9199 46.4134L42.0691 47.5626C42.8747 48.3681 43.9483 48.8115 45.0932 48.8115C46.2381 48.8115 47.3117 48.3681 48.1173 47.5626C48.9228 46.757 49.3662 45.6834 49.3662 44.5385C49.3662 44.3717 49.3548 44.2048 49.3363 44.0409C52.0738 43.9839 54.8498 43.3308 57.6201 42.0861C58.0478 41.8937 58.3529 41.5044 58.4371 41.0425C58.5212 40.5805 58.3743 40.1086 58.0436 39.7764L54.3993 36.1321C60.7696 35.144 64.4011 32.147 66.3829 29.6305C68.8838 26.4553 69.3685 23.3457 69.3885 23.2145C69.4669 22.6884 69.2459 22.1623 68.8153 21.8515C68.3848 21.5392 67.8159 21.4936 67.3411 21.7303C63.6668 23.5681 59.8187 23.0662 58.4542 21.9969C58.3344 21.9028 58.0607 21.6661 58.102 21.4822C58.246 20.842 59.9755 19.305 65.4933 18.0632C68.9665 17.2818 71.8793 14.2292 72.7434 10.468C73.5789 6.82942 72.3541 3.38616 69.3828 1.01936ZM5.48213 69.022C4.91182 69.3799 3.81824 69.7035 3.2023 69.089C2.58637 68.4731 2.91002 67.3781 3.26932 66.8092L27.8997 33.3917L38.8811 44.3731L5.48213 69.022ZM47.7523 41.148L43.9739 37.3697C43.4165 36.8136 42.5154 36.8136 41.9579 37.3697C41.4018 37.9257 41.4018 38.8297 41.9579 39.3857L46.1012 43.529C46.6573 44.0851 46.6573 44.989 46.1012 45.5451C45.8346 45.8117 45.4767 45.9586 45.0932 45.9586C44.7096 45.9586 44.3518 45.8117 44.0852 45.5451L26.7263 28.1876C26.4596 27.921 26.3128 27.5631 26.3128 27.1796C26.3128 26.7961 26.4596 26.4382 26.7263 26.1716C26.9929 25.9049 27.3508 25.7581 27.7343 25.7581C28.1178 25.7581 28.4757 25.9049 28.7423 26.1716L32.8842 30.3135C33.4417 30.8709 34.3442 30.8695 34.9003 30.3135C35.4578 29.7574 35.4578 28.8535 34.9003 28.2974L31.1234 24.5205C30.9594 22.3362 31.2645 20.0849 32.0345 17.7994L54.4891 40.254C52.2135 41.0168 49.9565 41.3162 47.7523 41.148ZM47.6254 23.6479C47.9362 25.5414 49.2793 27.0185 51.6161 28.0365C51.6218 28.0393 51.629 28.0422 51.6347 28.045C51.6233 28.2161 51.5178 28.5669 51.1913 28.9775C50.5938 29.7303 49.6471 30.2151 48.5921 30.3249L42.3728 24.1056C42.8091 21.8871 43.8399 20.1904 45.3783 19.1795C46.5019 18.4424 47.8706 18.0831 49.3677 18.1202C48.3212 19.5602 47.286 21.5791 47.6254 23.6479ZM69.9645 9.83069C69.3514 12.5026 67.2555 14.7454 64.8673 15.2829C59.0715 16.5875 55.8593 18.4638 55.3203 20.8577C55.0394 22.1052 55.5413 23.34 56.6962 24.2439C58.4927 25.6512 61.9759 26.3298 65.6857 25.3788C65.3093 26.1716 64.7846 27.0727 64.0561 27.978C61.3685 31.3158 57.2537 33.1907 51.8186 33.5528L50.9132 32.6475C52.8494 31.8262 54.1469 30.2137 54.4306 28.6282C54.693 27.1568 54.0229 25.9007 52.7197 25.4088C51.3509 24.8057 50.5839 24.0586 50.4399 23.1903C50.1362 21.3638 52.3205 18.8958 53.1075 18.1758C53.4925 17.8265 53.6564 17.2961 53.5367 16.7914C53.4169 16.2866 53.0319 15.886 52.5329 15.7463C49.3106 14.848 46.2138 15.2201 43.8143 16.7971C42.072 17.942 40.7987 19.6415 40.0516 21.7844L38.1867 19.9195C38.4091 11.2166 43.6246 8.58456 48.0132 7.91872C49.1581 7.7462 51.187 8.03848 53.3356 8.34788C56.4467 8.797 59.9741 9.306 63.0195 8.80983C65.9381 8.33362 67.9713 6.99481 69.0891 4.8205C70.3766 6.70538 70.2297 8.67581 69.9645 9.83069Z" fill="black"/>
<path d="M38.4291 35.268C38.7941 35.268 39.1591 35.1283 39.4371 34.8503C39.9931 34.2942 39.9931 33.3903 39.4371 32.8342L39.4357 32.8328C38.8796 32.2768 37.9771 32.2768 37.4196 32.8328C36.8636 33.3889 36.8636 34.2928 37.4196 34.8489C37.7005 35.1283 38.0641 35.268 38.4291 35.268Z" fill="black"/>
<path d="M24.2853 16.6622C24.0569 16.4472 23.897 16.1595 23.8568 15.8278L22.5771 6.78849C22.4729 6.00488 23.0063 5.29293 23.7893 5.16858C24.573 5.0644 25.2849 5.5978 25.4092 6.3808L26.6889 15.4201C26.7931 16.2037 26.2597 16.9157 25.4767 17.04C25.0247 17.104 24.5967 16.9555 24.2853 16.6622Z" fill="#FFA300"/>
<path d="M15.4877 26.0038C15.2593 25.7887 14.9625 25.6463 14.6291 25.6261L5.52933 24.8903C4.74089 24.8332 4.06218 25.4083 3.98498 26.1974C3.92793 26.9858 4.50303 27.6645 5.29207 27.7417L14.3918 28.4775C15.1803 28.5346 15.859 27.9595 15.9362 27.1704C15.973 26.7154 15.799 26.297 15.4877 26.0038Z" fill="#FFA300"/>
<path d="M19.6155 22.7228C19.312 22.6916 19.0054 22.5596 18.7563 22.325L12.2015 15.9755C11.6404 15.4275 11.6235 14.5303 12.1612 13.9595C12.7092 13.3984 13.6064 13.3815 14.1772 13.9192L20.7321 20.2686C21.2932 20.8167 21.31 21.7138 20.7724 22.2847C20.4596 22.6168 20.0302 22.7608 19.6155 22.7228Z" fill="#FFA300"/>
<path d="M48.7123 57.2938C48.9406 57.5089 49.1005 57.7966 49.1407 58.1282L50.4204 67.1676C50.5246 67.9512 49.9912 68.6631 49.2082 68.7875C48.4246 68.8917 47.7126 68.3583 47.5883 67.5752L46.3086 58.5359C46.2044 57.7523 46.7378 57.0404 47.5208 56.916C47.9728 56.852 48.4009 57.0006 48.7123 57.2938Z" fill="#FFA300"/>
<path d="M57.5099 47.9523C57.7382 48.1673 58.035 48.3097 58.3684 48.33L67.4682 49.0658C68.2566 49.1228 68.9354 48.5477 69.0126 47.7587C69.0696 46.9702 68.4945 46.2915 67.7055 46.2143L58.6057 45.4785C57.8173 45.4215 57.1386 45.9966 57.0614 46.7856C57.0246 47.2406 57.1985 47.659 57.5099 47.9523Z" fill="#FFA300"/>
<path d="M53.3821 51.2331C53.6857 51.2643 53.9922 51.3964 54.2413 51.631L60.7962 57.9804C61.3573 58.5284 61.3741 59.4256 60.8365 59.9965C60.2884 60.5576 59.3913 60.5744 58.8204 60.0368L52.2655 53.6873C51.7044 53.1393 51.6876 52.2421 52.2253 51.6712C52.5381 51.3391 52.9675 51.1951 53.3821 51.2331Z" fill="#FFA300"/>
</g>
<defs>
<clipPath id="clip0">
<rect width="73" height="73" fill="white"/>
</clipPath>
</defs>
</svg>
