<svg width="73" height="55" viewBox="0 0 73 55" fill="none" xmlns="http://www.w3.org/2000/svg">
<path fill-rule="evenodd" clip-rule="evenodd" d="M28.7053 16.0938L24.8086 28.451H32.6033H40.3981H48.1914L44.2947 16.0938H28.7053Z" fill="#EAEAEA"/>
<path fill-rule="evenodd" clip-rule="evenodd" d="M32.6033 28.4509H24.8086H17.0138L13.1172 40.8082H20.9119H28.7067H36.5L32.6033 28.4509Z" fill="#C1C1C1"/>
<path fill-rule="evenodd" clip-rule="evenodd" d="M40.3967 28.4509L36.5 40.8082H44.2947H52.0895H59.8828L55.9862 28.4509H48.1914H40.3967Z" fill="#EAEAEA"/>
<path fill-rule="evenodd" clip-rule="evenodd" d="M44.2947 40.8082H36.5H28.7053L24.8086 53.164H48.1914L44.2947 40.8082Z" fill="#C1C1C1"/>
<path fill-rule="evenodd" clip-rule="evenodd" d="M52.0881 40.8083L48.1914 53.1641H71.5742L67.6776 40.8069H59.8828H52.0881V40.8083Z" fill="#C1C1C1"/>
<path fill-rule="evenodd" clip-rule="evenodd" d="M24.8086 53.1641L20.9119 40.8069H13.1172H5.32244L1.42578 53.1641H24.8086Z" fill="#EAEAEA"/>
<path d="M72.9345 52.7349L69.0378 40.3777C68.851 39.7845 68.3007 39.381 67.6776 39.381H60.9294L57.3464 28.0204C57.1596 27.4273 56.6093 27.0238 55.9862 27.0238H49.238L45.655 15.6646C45.4682 15.0715 44.9179 14.668 44.2948 14.668H28.7053C28.0837 14.668 27.5333 15.0715 27.3451 15.6646L23.7621 27.0238H17.0139C16.3922 27.0238 15.8419 27.4273 15.6537 28.0204L12.0707 39.3796H5.32248C4.70084 39.3796 4.15049 39.7831 3.96229 40.3762L0.0656253 52.7349C-0.0712497 53.1683 0.0071683 53.6403 0.275215 54.0067C0.544688 54.3731 0.970996 54.5898 1.42582 54.5898H24.8086H24.8101H30.0854C30.8725 54.5898 31.5112 53.9511 31.5112 53.1641C31.5112 52.377 30.8725 51.7383 30.0854 51.7383H26.7548L29.7532 42.2326H43.2511L46.2467 51.7383H42.9161C42.129 51.7383 41.4903 52.377 41.4903 53.1641C41.4903 53.9511 42.129 54.5898 42.9161 54.5898H48.19H48.1914H71.5743C72.0291 54.5898 72.4554 54.3731 72.7249 54.0067C72.9929 53.6403 73.0713 53.1683 72.9345 52.7349ZM57.9381 39.3825H52.0881H44.2948H44.2934H38.4434L41.4418 29.8768H54.9397L57.9381 39.3825ZM36.5 36.0675L34.5481 29.8768H38.4534L36.5 36.0675ZM29.7518 17.5195H43.2497L46.2481 27.0252H40.3981H32.6034H26.7534L29.7518 17.5195ZM18.0604 29.8768H31.5583L34.5567 39.3825H28.7067H28.7053H20.912H15.062L18.0604 29.8768ZM3.37059 51.7383L6.369 42.2326H19.8669L22.8639 51.7383H3.37059ZM24.8086 48.4248L22.8567 42.234H26.762L24.8086 48.4248ZM46.2395 42.234H50.1448L48.1914 48.4248L46.2395 42.234ZM50.1362 51.7383L53.1346 42.2326H66.6325L69.6295 51.7383H50.1362Z" fill="black"/>
<path d="M36.5 7.70445C37.287 7.70445 37.9258 7.0657 37.9258 6.27867V1.83594C37.9258 1.04891 37.287 0.410156 36.5 0.410156C35.713 0.410156 35.0742 1.04891 35.0742 1.83594V6.27867C35.0742 7.0657 35.713 7.70445 36.5 7.70445Z" fill="black"/>
<path d="M43.3909 9.16867C43.6162 9.29841 43.86 9.35972 44.1024 9.35972C44.5957 9.35972 45.0747 9.10451 45.3385 8.64683L47.5599 4.80008C47.9534 4.11855 47.7196 3.24598 47.038 2.85246C46.3565 2.45895 45.4839 2.69277 45.0904 3.3743L42.8691 7.22105C42.4755 7.90257 42.7094 8.77515 43.3909 9.16867Z" fill="black"/>
<path d="M50.0549 13.8824C50.2973 13.8824 50.5425 13.8211 50.7664 13.6914L54.6131 11.47C55.2947 11.0765 55.5285 10.2039 55.135 9.52237C54.7415 8.84085 53.8689 8.60702 53.1874 9.00053L49.3406 11.2219C48.6591 11.6154 48.4253 12.488 48.8188 13.1695C49.0825 13.6272 49.5616 13.8824 50.0549 13.8824Z" fill="black"/>
<path d="M27.6616 8.64683C27.9254 9.10451 28.4044 9.35972 28.8977 9.35972C29.1401 9.35972 29.3854 9.29841 29.6092 9.16867C30.2907 8.77515 30.5246 7.90257 30.1311 7.22105L27.9097 3.3743C27.5162 2.69277 26.6436 2.45895 25.9621 2.85246C25.2805 3.24598 25.0467 4.11855 25.4402 4.80008L27.6616 8.64683Z" fill="black"/>
<path d="M18.3869 11.47L22.2336 13.6914C22.4575 13.8211 22.7027 13.8824 22.9451 13.8824C23.4384 13.8824 23.9175 13.6272 24.1812 13.1695C24.5748 12.488 24.3409 11.6154 23.6594 11.2219L19.8127 9.00053C19.1311 8.60702 18.2585 8.84085 17.865 9.52237C17.4715 10.2039 17.7053 11.0765 18.3869 11.47Z" fill="black"/>
<path d="M36.5015 51.7383C35.713 51.7383 35.0757 52.377 35.0757 53.1641C35.0757 53.9511 35.7144 54.5898 36.5015 54.5898C37.2885 54.5898 37.9273 53.9511 37.9273 53.1641C37.9273 52.377 37.2885 51.7383 36.5015 51.7383Z" fill="black"/>
</svg>
