<svg width="63" height="67" viewBox="0 0 63 67" fill="none" xmlns="http://www.w3.org/2000/svg">
<path fill-rule="evenodd" clip-rule="evenodd" d="M50.5582 35.9217L50.6803 35.8788C54.1222 35.1046 56.343 34.5758 59.7851 33.8017C61.0221 33.5234 62.1766 32.154 61.5235 30.2403C59.1205 23.1986 57.2207 17.632 54.7831 10.4891C54.3215 9.13636 53.754 8.42318 52.4626 7.81434L39.6504 1.77466C38.6619 5.4637 35.319 8.02868 31.5 8.02868C27.681 8.02868 24.3381 5.46357 23.3495 1.77466L10.5373 7.81447C9.24582 8.42331 8.67837 9.13649 8.21681 10.4892C5.77924 17.632 3.87946 23.1987 1.47646 30.2404C0.823381 32.1541 1.97787 33.5235 3.21491 33.8018C6.65685 34.576 8.77084 35.0806 12.2128 35.8548L12.4417 35.9111V62.4822C12.4417 63.9909 13.667 65.2254 15.1643 65.2254H47.8355C49.3329 65.2254 50.558 63.9908 50.558 62.4822V35.9217H50.5582Z" fill="#FFD400"/>
<path fill-rule="evenodd" clip-rule="evenodd" d="M30.0063 21.6787L27.0033 23.4123C25.7735 24.1191 25.3496 25.6888 26.0562 26.9185C26.6444 27.942 27.8304 28.4073 28.9207 28.1272V36.6774C27.4961 36.6774 26.3414 37.8322 26.3414 39.2567C26.3414 40.6813 27.4961 41.836 28.9207 41.836H34.0793C35.5038 41.836 36.6586 40.6813 36.6586 39.2567C36.6586 37.8322 35.5038 36.6774 34.0793 36.6774V23.7816C34.0793 22.357 32.9245 21.2023 31.5 21.2023C30.9434 21.2024 30.4279 21.3787 30.0063 21.6787Z" fill="#FFA300"/>
<path fill-rule="evenodd" clip-rule="evenodd" d="M31.5 13.4591C37.6516 13.4591 42.8003 9.36437 44.1112 3.87756L39.6505 1.77466C38.662 5.4637 35.319 8.02868 31.5 8.02868C27.681 8.02868 24.3381 5.46357 23.3496 1.77466L18.8888 3.87756C20.1997 9.36437 25.3484 13.4591 31.5 13.4591Z" fill="#FFA300"/>
<path d="M62.744 29.8238L56.0036 10.0727C55.414 8.34492 54.5753 7.38465 53.0126 6.64788L40.2003 0.607934C39.8547 0.445052 39.4545 0.443762 39.1078 0.604581C38.7612 0.7654 38.5035 1.07169 38.4047 1.44079C37.5689 4.56019 34.7296 6.73892 31.5 6.73892C28.2705 6.73892 25.4312 4.56019 24.5954 1.44079C24.4965 1.07169 24.2389 0.7654 23.8923 0.604581C23.5457 0.443762 23.1456 0.445052 22.7998 0.607934L9.98754 6.64788C8.42462 7.38465 7.58596 8.3448 6.99646 10.0727L0.255981 29.8238C-0.152064 31.0195 -0.0701716 32.2259 0.48657 33.2204C1.01133 34.1579 1.9026 34.8284 2.932 35.0599C4.64981 35.4463 6.06056 35.771 7.42475 36.0849C8.58015 36.3508 9.77114 36.625 11.1522 36.9373V62.4819C11.1522 64.7057 12.9521 66.5148 15.1643 66.5148H47.8355C50.0479 66.5148 51.8477 64.7057 51.8477 62.4819V36.9373C53.19 36.6335 54.3715 36.3616 55.518 36.0979C56.9096 35.7778 58.3485 35.4466 60.068 35.06C61.0972 34.8285 61.9888 34.158 62.5134 33.2204C63.0703 32.2257 63.1522 31.0195 62.744 29.8238ZM31.5 9.31822C35.3792 9.31822 38.8445 7.00846 40.3866 3.5473L42.5616 4.57257C41.0039 9.08505 36.576 12.1694 31.5 12.1694C26.4242 12.1694 21.9962 9.08505 20.4386 4.5727L22.6136 3.54743C24.1555 7.00846 27.6209 9.31822 31.5 9.31822ZM60.263 31.9605C60.1002 32.251 59.8087 32.4744 59.5022 32.5434C57.7765 32.9314 56.3344 33.2634 54.9398 33.5841C53.9606 33.8094 52.9556 34.0407 51.8479 34.2924V22.7035C51.8479 21.9912 51.2704 21.4138 50.5582 21.4138C49.8461 21.4138 49.2686 21.9912 49.2686 22.7035V62.4821C49.2686 63.2836 48.6258 63.9356 47.8356 63.9356H15.1644C14.3744 63.9356 13.7317 63.2836 13.7317 62.4821V28.5069C13.7317 27.7946 13.1541 27.2173 12.442 27.2173C11.7299 27.2173 11.1524 27.7946 11.1524 28.5069V34.2927C10.012 34.0337 8.99451 33.7995 8.00329 33.5714C6.636 33.2567 5.22229 32.9312 3.49803 32.5434C3.19148 32.4744 2.89989 32.251 2.73727 31.9605C2.54021 31.6084 2.52628 31.1574 2.69703 30.6568L9.43738 10.9057C9.80364 9.83253 10.1582 9.41894 11.0872 8.98098L18.095 5.67741C20.0869 11.0786 25.4156 14.7487 31.4999 14.7487C37.5844 14.7487 42.9131 11.0786 44.9049 5.67741L51.9126 8.98098C52.8417 9.41894 53.1963 9.83266 53.5626 10.9058L60.3029 30.6569C60.4739 31.1575 60.46 31.6084 60.263 31.9605Z" fill="black"/>
<path d="M35.369 35.6088V23.7817C35.369 21.6483 33.6334 19.9127 31.4999 19.9127C30.7136 19.9127 29.9593 20.1465 29.3137 20.5894L26.3608 22.2942C24.5165 23.3541 23.8782 25.7169 24.9382 27.5611C25.5223 28.5776 26.5246 29.2481 27.6311 29.44V35.6088C26.1298 36.141 25.0518 37.5754 25.0518 39.2568C25.0518 41.3902 26.7874 43.1258 28.9207 43.1258H34.0793C36.2127 43.1258 37.9483 41.3902 37.9483 39.2568C37.9483 37.5754 36.8703 36.141 35.369 35.6088ZM34.0793 40.5463H28.9207C28.2096 40.5463 27.6311 39.9678 27.6311 39.2567C27.6311 38.5456 28.2096 37.967 28.9207 37.967C29.6329 37.967 30.2104 37.3897 30.2104 36.6774V28.1271C30.2104 27.7285 30.0261 27.3523 29.7112 27.1081C29.4826 26.9307 29.2038 26.8375 28.9207 26.8375C28.8136 26.8375 28.7058 26.8509 28.5999 26.878C28.0456 27.0202 27.46 26.7726 27.1744 26.276C26.8233 25.6648 27.0348 24.8817 27.6482 24.5293L30.6512 22.7956C30.6864 22.7752 30.7208 22.7532 30.7541 22.7294C30.9723 22.574 31.2304 22.492 31.5 22.492C32.2113 22.492 32.7898 23.0706 32.7898 23.7817V36.6775C32.7898 37.3898 33.3673 37.9672 34.0795 37.9672C34.7906 37.9672 35.3691 38.5457 35.3691 39.2568C35.3691 39.9679 34.7904 40.5463 34.0793 40.5463Z" fill="black"/>
<path d="M12.4419 21.4137H12.4409C11.7287 21.4137 11.1517 21.9911 11.1517 22.7033C11.1517 23.4156 11.7296 23.993 12.4419 23.993C13.1542 23.993 13.7315 23.4156 13.7315 22.7033C13.7315 21.9911 13.1542 21.4137 12.4419 21.4137Z" fill="black"/>
</svg>
