<svg width="60" height="73" viewBox="0 0 60 73" fill="none" xmlns="http://www.w3.org/2000/svg">
<path d="M30.0412 73C39.9156 73 47.9205 64.9952 47.9205 55.1208C47.9205 45.2463 39.9156 37.2415 30.0412 37.2415C20.1667 37.2415 12.1619 45.2463 12.1619 55.1208C12.1619 64.9952 20.1667 73 30.0412 73Z" fill="black"/>
<path d="M30.0412 69.8918C38.1991 69.8918 44.8123 63.2786 44.8123 55.1207C44.8123 46.9629 38.1991 40.3496 30.0412 40.3496C21.8834 40.3496 15.2701 46.9629 15.2701 55.1207C15.2701 63.2786 21.8834 69.8918 30.0412 69.8918Z" fill="#C1C1C1"/>
<path fill-rule="evenodd" clip-rule="evenodd" d="M18.2928 34.1189V1.42578H1.42578V27.375L18.2928 34.1189Z" fill="#52BA00"/>
<path fill-rule="evenodd" clip-rule="evenodd" d="M18.2927 1.42578V34.1189L29.9414 38.7812L41.6042 34.1189V1.42578H29.9414H18.2927Z" fill="white"/>
<path fill-rule="evenodd" clip-rule="evenodd" d="M41.6042 1.42578V34.1189L58.457 27.375V1.42578H41.6042Z" fill="#52BA00"/>
<path d="M32.1799 39.4229L58.9846 28.701C59.5264 28.4871 59.8828 27.9596 59.8828 27.375V1.42578C59.8828 0.641602 59.2412 0 58.457 0H1.42578C0.641602 0 0 0.641602 0 1.42578V27.375C0 27.9596 0.356445 28.4871 0.898242 28.701L27.7029 39.4229H32.1799ZM2.85156 2.85156H16.867V11.3635C16.867 12.1477 17.5086 12.7893 18.2928 12.7893C19.077 12.7893 19.7186 12.1477 19.7186 11.3635V2.85156H40.1785V33.1494L29.9414 37.2414L19.7043 33.1494V24.1813C19.7043 23.3971 19.0627 22.7555 18.2785 22.7555C17.4943 22.7555 16.8527 23.3971 16.8527 24.1813V32.0088L2.85156 26.4055V2.85156ZM57.0312 26.4055L43.0158 32.0088V2.85156H57.0312V26.4055Z" fill="black"/>
<path d="M18.2927 19.1909C19.0769 19.1909 19.7185 18.5493 19.7185 17.7651C19.7185 16.981 19.0769 16.3394 18.2927 16.3394C17.5085 16.3394 16.8669 16.981 16.8669 17.7651C16.8669 18.5636 17.4943 19.1909 18.2927 19.1909Z" fill="black"/>
<path d="M39 11.3009C39 12.0486 38.5203 12.4224 37.5609 12.4224C37.5245 12.4224 37.2411 12.4112 36.7105 12.3888C36.6087 13.585 36.5578 15.2897 36.5578 17.5028C36.5578 18.3028 36.5942 19.4991 36.6669 21.0916C36.7468 22.6766 36.7868 23.8692 36.7868 24.6692C36.7868 24.9159 36.8195 25.286 36.8849 25.7794C36.9503 26.2729 36.983 26.643 36.983 26.8897C36.983 27.2037 36.8776 27.4654 36.6669 27.6748C36.4634 27.8841 36.2053 27.9888 35.8928 27.9888C35.2895 27.9888 34.9334 27.6411 34.8243 26.9458C34.6863 26.0636 34.6172 25.3047 34.6172 24.6692C34.6172 23.8692 34.5809 22.6766 34.5082 21.0916C34.4355 19.4991 34.3992 18.3028 34.3992 17.5028C34.3992 15.2822 34.45 13.5402 34.5518 12.2766H34.5409C34.6935 12.2841 34.4355 12.3178 33.7668 12.3776C33.4107 12.4 32.6657 12.4112 31.5318 12.4112C29.5403 12.4112 27.636 12.3776 25.8189 12.3103C26.0297 16.1009 26.1351 18.7252 26.1351 20.1832C26.1351 20.5495 26.1133 21.0579 26.0697 21.7084C26.0188 22.4336 25.9897 22.9458 25.9824 23.2449C25.9679 23.6187 25.9679 24.1122 25.9824 24.7252C25.997 25.5028 26.0042 26 26.0042 26.2168C26.0042 27.4056 25.6299 28 24.8813 28C24.3507 28 24.0164 27.7682 23.8783 27.3047C23.8201 27.1103 23.791 26.6579 23.791 25.9477C23.791 24.7215 23.7983 23.8019 23.8128 23.1888C23.8201 22.9047 23.8492 22.4037 23.9001 21.686C23.9437 21.0505 23.9655 20.5495 23.9655 20.1832C23.9655 19.3009 23.8601 16.6579 23.6493 12.2542C23.4967 12.2542 23.235 12.2579 22.8643 12.2654C22.53 12.2729 22.2683 12.2766 22.0793 12.2766C21.7668 12.2766 21.5088 12.172 21.3053 11.9626C21.1018 11.7533 21 11.4879 21 11.1664C21 10.3888 21.5815 10 22.7444 10C23.4204 10 24.4343 10.0299 25.7862 10.0897C27.1381 10.1421 28.152 10.1682 28.828 10.1682L37.9098 10.1907C38.2223 10.1907 38.4803 10.2953 38.6838 10.5047C38.8946 10.714 39 10.9794 39 11.3009Z" fill="black"/>
</svg>
