<svg width="74" height="71" viewBox="0 0 74 71" fill="none" xmlns="http://www.w3.org/2000/svg">
<path fill-rule="evenodd" clip-rule="evenodd" d="M42.2011 18.0885L39.2084 12.5835C39.0073 12.2157 38.7008 11.8992 38.3044 11.6867C37.2237 11.1107 35.8792 11.5185 35.3031 12.6006L32.4145 18.0229L26.3193 19.155C25.8801 19.2205 25.4567 19.4187 25.1117 19.7509C24.2277 20.6007 24.2006 22.0079 25.0503 22.8905L29.3177 27.3161L28.5235 33.3743C28.428 33.8391 28.4793 34.3367 28.7032 34.7958C29.2407 35.9008 30.5738 36.3599 31.6788 35.8224L37.2009 33.1348L42.8612 35.8309C43.2405 36.012 43.6753 36.0847 44.123 36.022C45.3378 35.8537 46.1876 34.7316 46.0193 33.5169L45.1681 27.4288L49.3899 22.9761C49.732 22.6567 49.9759 22.2289 50.0628 21.7328C50.2738 20.5223 49.464 19.3688 48.2535 19.1578L42.2011 18.0885Z" fill="#FFA300"/>
<path fill-rule="evenodd" clip-rule="evenodd" d="M37.1995 33.1361L31.6774 35.8237C30.5724 36.3612 29.2408 35.9021 28.7018 34.7971C28.478 34.338 28.4266 33.8404 28.5222 33.3756L29.3163 27.3174L25.049 22.8918C24.1992 22.0078 24.2263 20.602 25.1103 19.7522C25.4553 19.4215 25.8788 19.2233 26.3179 19.1563L32.4131 18.0242L35.3018 12.6005C35.8778 11.5198 37.2223 11.1106 38.303 11.6866C38.7008 11.899 39.0074 12.2141 39.207 12.582L42.1997 18.0869L48.2507 19.1591C49.4612 19.3701 50.271 20.5236 50.06 21.7341C49.973 22.2303 49.7292 22.658 49.3871 22.9774L45.1653 27.4301L46.0165 33.5182C46.1847 34.7329 45.335 35.855 44.1202 36.0233C43.6739 36.0846 43.2377 36.0133 42.8584 35.8322L37.1995 33.1361ZM28.7075 50.8271H45.8169C45.8169 41.8447 58.6489 42.1299 58.6489 23.7373C58.6489 11.9261 49.0734 2.35059 37.2622 2.35059C25.451 2.35059 15.8755 11.9261 15.8755 23.7373C15.8755 42.1299 28.7075 41.8447 28.7075 50.8271Z" fill="#FFD400"/>
<path fill-rule="evenodd" clip-rule="evenodd" d="M45.8169 50.8271H28.7075C26.9424 50.8271 25.4995 52.2715 25.4995 54.0352C25.4995 55.7988 26.9438 57.2432 28.7075 57.2432H45.8169C47.5806 57.2432 49.0249 55.7988 49.0249 54.0352C49.0249 52.2715 47.582 50.8271 45.8169 50.8271Z" fill="#6D91AC"/>
<path fill-rule="evenodd" clip-rule="evenodd" d="M28.7075 57.2432H45.8169V62.9463H28.7075V57.2432Z" fill="#A7BDCD"/>
<path fill-rule="evenodd" clip-rule="evenodd" d="M45.8169 62.9463H28.7075V65.7979C28.7075 67.3662 29.9907 68.6494 31.5591 68.6494H42.9653C44.5337 68.6494 45.8169 67.3662 45.8169 65.7979V62.9463Z" fill="#A7BDCD"/>
<path d="M37.2622 0.924805C24.684 0.924805 14.4497 11.1591 14.4497 23.7373C14.4497 35.1635 19.1804 39.7973 22.9816 43.52C25.1459 45.6402 26.7884 47.2499 27.1876 49.6594C25.3769 50.2896 24.0737 52.0134 24.0737 54.0366C24.0737 56.094 25.4225 57.842 27.2817 58.4451V61.5219H26.9253C26.1383 61.5219 25.4995 62.1607 25.4995 62.9477C25.4995 63.7347 26.1383 64.3735 26.9253 64.3735H27.2817V65.7993C27.2817 68.1575 29.2008 70.0766 31.5591 70.0766H42.9653C45.3236 70.0766 47.2427 68.1575 47.2427 65.7993V64.3735H47.5991C48.3862 64.3735 49.0249 63.7347 49.0249 62.9477C49.0249 62.1607 48.3862 61.5219 47.5991 61.5219H47.2427V58.4451C49.1019 57.842 50.4507 56.094 50.4507 54.0366C50.4507 52.0134 49.1475 50.2911 47.3368 49.6594C47.736 47.2513 49.3785 45.6402 51.5428 43.52C55.344 39.7959 60.0747 35.1621 60.0747 23.7373C60.0747 11.1591 49.8405 0.924805 37.2622 0.924805ZM44.3911 65.7979C44.3911 66.5835 43.7509 67.2236 42.9653 67.2236H31.5591C30.7735 67.2236 30.1333 66.5835 30.1333 65.7979V64.3721H44.3911V65.7979ZM30.1333 61.5205V58.6689H44.3911V61.5205H30.1333ZM49.5467 41.4826C47.2042 43.7781 44.9771 45.961 44.4895 49.4014H43.6782C42.8912 49.4014 42.2524 50.0401 42.2524 50.8271C42.2524 51.6142 42.8912 52.2529 43.6782 52.2529H45.8169C46.7993 52.2529 47.5991 53.0528 47.5991 54.0352C47.5991 55.0175 46.7993 55.8174 45.8169 55.8174H28.7075C27.7252 55.8174 26.9253 55.0175 26.9253 54.0352C26.9253 53.0528 27.7252 52.2529 28.7075 52.2529H30.8462C31.6332 52.2529 32.272 51.6142 32.272 50.8271C32.272 50.0401 31.6332 49.4014 30.8462 49.4014H30.0335C29.5473 45.961 27.3202 43.7781 24.9763 41.4826C21.379 37.958 17.3013 33.9644 17.3013 23.7373C17.3013 12.7303 26.2552 3.77637 37.2622 3.77637C48.2692 3.77637 57.2231 12.7303 57.2231 23.7373C57.2231 33.9644 53.1454 37.958 49.5467 41.4826Z" fill="black"/>
<path d="M10.1724 23.7373C10.1724 22.9503 9.53361 22.3115 8.74658 22.3115H2.18799C1.40096 22.3115 0.762207 22.9503 0.762207 23.7373C0.762207 24.5243 1.40096 25.1631 2.18799 25.1631H8.74658C9.53361 25.1631 10.1724 24.5243 10.1724 23.7373Z" fill="black"/>
<path d="M11.8534 36.7604L6.17313 40.0397C5.4916 40.4332 5.25777 41.3058 5.65129 41.9873C5.91506 42.445 6.39412 42.7002 6.88744 42.7002C7.12982 42.7002 7.37506 42.6389 7.59891 42.5092L13.2792 39.2299C13.9607 38.8364 14.1946 37.9638 13.8011 37.2823C13.4075 36.6007 12.5364 36.3669 11.8534 36.7604Z" fill="black"/>
<path d="M68.3499 40.0397L62.6696 36.7604C61.9881 36.3669 61.1155 36.6007 60.722 37.2823C60.3285 37.9638 60.5623 38.8364 61.2438 39.2299L66.9241 42.5092C67.1494 42.6389 67.3932 42.7002 67.6356 42.7002C68.1289 42.7002 68.608 42.445 68.8717 41.9873C69.2653 41.3058 69.0329 40.4332 68.3499 40.0397Z" fill="black"/>
<path d="M72.3364 22.3115H65.7778C64.9908 22.3115 64.3521 22.9503 64.3521 23.7373C64.3521 24.5243 64.9908 25.1631 65.7778 25.1631H72.3364C73.1235 25.1631 73.7622 24.5243 73.7622 23.7373C73.7622 22.9503 73.1235 22.3115 72.3364 22.3115Z" fill="black"/>
<path d="M61.9596 10.9053C62.202 10.9053 62.4472 10.844 62.6711 10.7142L68.3514 7.43495C69.0329 7.04143 69.2667 6.16886 68.8732 5.48733C68.4797 4.80581 67.6071 4.57198 66.9256 4.9655L61.2453 8.24479C60.5637 8.63831 60.3299 9.51089 60.7234 10.1924C60.9872 10.6501 61.4663 10.9053 61.9596 10.9053Z" fill="black"/>
<path d="M13.2792 8.24479L7.59891 4.9655C6.91738 4.57198 6.04481 4.80581 5.65129 5.48733C5.25777 6.16886 5.4916 7.04143 6.17313 7.43495L11.8534 10.7142C12.0773 10.844 12.3225 10.9053 12.5649 10.9053C13.0582 10.9053 13.5373 10.6501 13.8011 10.1924C14.196 9.51089 13.9622 8.63831 13.2792 8.24479Z" fill="black"/>
<path d="M48.5002 17.7563L43.125 16.8039L40.4602 11.902C40.1194 11.2747 39.6047 10.7657 38.9745 10.4292C38.1162 9.97153 37.1295 9.87458 36.1985 10.1583C35.2675 10.442 34.5018 11.0708 34.0442 11.9306L31.4778 16.7468L26.0783 17.7506C25.3383 17.8675 24.6625 18.204 24.1222 18.7244C23.4207 19.4002 23.0229 20.3084 23.0043 21.2823C22.9858 22.2561 23.3465 23.1785 24.0238 23.8829L27.8149 27.8152L27.1163 33.1476C26.968 33.9247 27.0735 34.7103 27.4214 35.4246C28.053 36.722 29.3562 37.4777 30.7093 37.4777C31.2454 37.4777 31.7886 37.3594 32.3019 37.1098L37.2065 34.7231L42.2467 37.1241C42.8883 37.4307 43.604 37.539 44.3169 37.4406C46.3087 37.1655 47.706 35.3205 47.4294 33.3258L46.6737 27.9178L50.3964 23.9912C50.9611 23.4509 51.3303 22.7579 51.4658 21.9837C51.634 21.0228 51.4173 20.0547 50.857 19.2562C50.2952 18.4549 49.4569 17.9231 48.5002 17.7563ZM48.657 21.489C48.6185 21.7071 48.5044 21.8526 48.416 21.9353C48.3946 21.9552 48.3747 21.9752 48.3547 21.9966L44.133 26.4493C43.835 26.7644 43.6953 27.1978 43.7552 27.627L44.6049 33.7136C44.6648 34.1485 44.3597 34.552 43.9248 34.6119C43.7666 34.6333 43.6097 34.6105 43.4714 34.5463L37.8111 31.8501C37.419 31.6634 36.9642 31.6662 36.5735 31.8558L31.0514 34.5434C30.6551 34.7359 30.176 34.5705 29.9821 34.1742C29.8837 33.9717 29.8923 33.7849 29.918 33.6637C29.9251 33.6295 29.9308 33.5953 29.9351 33.5611L30.7292 27.5029C30.7863 27.0723 30.6437 26.6403 30.3414 26.3281L26.0755 21.9025C25.9286 21.7499 25.8488 21.5474 25.8531 21.335C25.8573 21.1226 25.9443 20.9244 26.0969 20.7775C26.248 20.6321 26.4148 20.5808 26.5274 20.5651C26.5431 20.5622 26.5602 20.5594 26.5759 20.5565L32.6711 19.4245C33.0974 19.3446 33.4653 19.0766 33.6692 18.693L36.5578 13.2708C36.6576 13.084 36.8244 12.9471 37.0269 12.8858C37.1039 12.863 37.1809 12.8516 37.2593 12.8516C37.3876 12.8516 37.5145 12.883 37.6314 12.9457C37.7683 13.0184 37.8809 13.1296 37.9551 13.2651L40.9478 18.77C41.1545 19.1507 41.5252 19.4173 41.9515 19.4929L48.0054 20.5651C48.2164 20.6022 48.3989 20.7176 48.5215 20.893C48.6442 21.0684 48.6926 21.2794 48.657 21.489Z" fill="black"/>
<path d="M38.8434 27.631H38.688V20.5021C38.688 19.9931 38.4157 19.5226 37.9751 19.2673C37.5346 19.0121 36.9914 19.0121 36.5494 19.2673L34.9682 20.1798C34.2866 20.5734 34.0528 21.4459 34.4463 22.1275C34.7372 22.6322 35.2918 22.8917 35.8365 22.8318V27.6295H35.6811C34.894 27.6295 34.2553 28.2683 34.2553 29.0553C34.2553 29.8424 34.894 30.4811 35.6811 30.4811H38.842C39.629 30.4811 40.2678 29.8424 40.2678 29.0553C40.2678 28.2683 39.6305 27.631 38.8434 27.631Z" fill="black"/>
<path d="M37.2637 49.4014C36.4752 49.4014 35.8379 50.0401 35.8379 50.8271C35.8379 51.6142 36.4766 52.2529 37.2637 52.2529C38.0507 52.2529 38.6895 51.6142 38.6895 50.8271C38.6895 50.0401 38.0507 49.4014 37.2637 49.4014Z" fill="black"/>
</svg>
