<svg width="73" height="67" viewBox="0 0 73 67" fill="none" xmlns="http://www.w3.org/2000/svg">
<path fill-rule="evenodd" clip-rule="evenodd" d="M9.21011 11.8046C10.3215 9.8758 10.4026 7.42346 9.20968 5.35707C8.01659 3.29055 5.85211 2.13467 3.62618 2.13281C2.51478 4.06161 2.43351 6.51395 3.62675 8.58034C4.8197 10.6469 6.98404 11.8026 9.21011 11.8046Z" fill="#00B7B7"/>
<path fill-rule="evenodd" clip-rule="evenodd" d="M16.3514 14.0454C14.1254 14.0473 11.961 15.2031 10.7679 17.2697C9.57477 19.3361 9.65604 21.7884 10.7674 23.7172C12.9935 23.7154 15.1578 22.5595 16.3509 20.4929C17.544 18.4264 17.4628 15.9741 16.3514 14.0454Z" fill="#00B7B7"/>
<path d="M11.0965 34.352C11.9866 32.8104 10.5431 30.3107 7.87242 28.7687C5.20175 27.2268 2.31519 27.2265 1.42511 28.7681C0.535029 30.3097 1.97849 32.8095 4.64916 34.3514C7.31983 35.8934 10.2064 35.8936 11.0965 34.352Z" fill="#00B7B7"/>
<path d="M19.012 45.4702C20.7921 45.4702 22.2352 42.9702 22.2352 39.8863C22.2352 36.8024 20.7921 34.3024 19.012 34.3024C17.2318 34.3024 15.7887 36.8024 15.7887 39.8863C15.7887 42.9702 17.2318 45.4702 19.012 45.4702Z" fill="#00B7B7"/>
<path fill-rule="evenodd" clip-rule="evenodd" d="M25.0259 53.854C23.9112 51.9272 21.828 50.6307 19.442 50.6307C17.0558 50.6307 14.9726 51.9272 13.858 53.854C14.9727 55.7809 17.0559 57.0774 19.442 57.0774C21.828 57.0773 23.9112 55.7808 25.0259 53.854Z" fill="#00B7B7"/>
<path fill-rule="evenodd" clip-rule="evenodd" d="M53.5582 50.6307C51.1721 50.6307 49.0889 51.9272 47.9742 53.854C49.0889 55.7809 51.1721 57.0774 53.5582 57.0774C55.9444 57.0774 58.0274 55.7809 59.1421 53.854C58.0274 51.9272 55.9444 50.6307 53.5582 50.6307Z" fill="#00B7B7"/>
<path d="M53.9879 45.4702C55.7681 45.4702 57.2112 42.9702 57.2112 39.8863C57.2112 36.8024 55.7681 34.3024 53.9879 34.3024C52.2078 34.3024 50.7646 36.8024 50.7646 39.8863C50.7646 42.9702 52.2078 45.4702 53.9879 45.4702Z" fill="#00B7B7"/>
<path fill-rule="evenodd" clip-rule="evenodd" d="M61.9025 34.3515C63.8313 35.4629 66.2835 35.5441 68.35 34.3511C70.4164 33.158 71.5723 30.9937 71.5741 28.7676C69.6453 27.6562 67.193 27.5751 65.1266 28.7682C63.0602 29.9611 61.9043 32.1255 61.9025 34.3515Z" fill="#00B7B7"/>
<path fill-rule="evenodd" clip-rule="evenodd" d="M56.6493 20.4927C57.8424 22.5591 60.0067 23.715 62.2328 23.717C63.3441 21.7882 63.4253 19.3358 62.2323 17.2694C61.0392 15.203 58.8749 14.0472 56.6488 14.0452C55.5373 15.974 55.4562 18.4263 56.6493 20.4927Z" fill="#00B7B7"/>
<path fill-rule="evenodd" clip-rule="evenodd" d="M63.79 11.8046C66.0161 11.8027 68.1804 10.6469 69.3735 8.58034C70.5666 6.51395 70.4853 4.06161 69.3741 2.13281C67.148 2.13467 64.9837 3.29055 63.7906 5.35707C62.5973 7.42346 62.6786 9.8758 63.79 11.8046Z" fill="#00B7B7"/>
<path fill-rule="evenodd" clip-rule="evenodd" d="M37.589 27.8541C41.4945 24.8409 45.6806 21.6109 45.7563 15.1497C45.7921 12.1038 44.6326 9.57931 42.8696 7.80592C41.6756 6.60484 40.2027 5.75322 38.6312 5.31936C37.0188 4.87409 35.3074 4.8614 33.6822 5.35144C31.4912 6.01186 29.4841 7.54472 28.1248 10.1074C27.3928 11.4977 27.9263 13.2183 29.3166 13.9503C30.7069 14.6823 32.4274 14.1488 33.1595 12.7585C33.7335 11.6762 34.5033 11.0523 35.3083 10.8096C35.8997 10.6314 36.5251 10.6365 37.1162 10.7998C37.7484 10.9743 38.3464 11.3223 38.8371 11.8161C39.5941 12.5774 40.0914 13.6962 40.0751 15.083C40.0316 18.7876 36.9699 21.1501 34.1133 23.3541C30.5606 26.0953 27.2327 28.6631 27.2327 33.4945C27.2327 35.0694 28.5093 36.3461 30.0842 36.3461H42.9156C44.4905 36.3461 45.7671 35.0694 45.7671 33.4945C45.7671 31.9196 44.4905 30.6429 42.9156 30.6429H34.3224C35.1892 29.7058 36.3694 28.795 37.589 27.8541Z" fill="#C1C1C1"/>
<path d="M33.2427 22.2251C29.5871 25.0454 25.8073 27.9619 25.8073 33.4942C25.8073 35.8527 27.7261 37.7715 30.0846 37.7715H42.9159C45.2744 37.7715 47.1933 35.8527 47.1933 33.4942C47.1933 31.1356 45.2744 29.2168 42.9159 29.2168H38.1571C38.2576 29.1391 38.3587 29.0611 38.4602 28.9827C40.9811 27.0377 43.5879 25.0265 45.3213 22.0681C45.7194 21.3886 45.4914 20.5151 44.8121 20.1171C44.1327 19.7193 43.2592 19.9471 42.861 20.6264C41.4076 23.1068 39.0235 24.9463 36.7182 26.725C35.436 27.7142 34.2248 28.6487 33.2761 29.6742C32.8914 30.0901 32.7893 30.6944 33.0163 31.2136C33.2433 31.7328 33.756 32.0682 34.3227 32.0682H42.9159C43.7021 32.0682 44.3417 32.7079 44.3417 33.494C44.3417 34.2802 43.7021 34.9198 42.9159 34.9198H30.0846C29.2984 34.9198 28.6588 34.2802 28.6588 33.494C28.6588 29.3633 31.5904 27.1015 34.9847 24.4825C38.0149 22.1445 41.4496 19.4946 41.5013 15.0993C41.533 12.3755 39.9235 10.0953 37.4959 9.42485C35.2458 8.80349 33.1017 9.82492 31.8982 12.0938C31.5336 12.786 30.6739 13.0532 29.9812 12.6883C29.2889 12.3237 29.022 11.4637 29.3847 10.7751C31.2201 7.31484 34.7006 5.71311 38.2519 6.69348C40.04 7.18723 41.6296 8.30461 42.728 9.83961C43.1864 10.4799 44.0768 10.6275 44.7172 10.1694C45.3577 9.71115 45.5053 8.8206 45.0472 8.18014C43.5701 6.11575 41.4264 4.6117 39.0111 3.94472C36.5785 3.2726 34.1285 3.46351 31.9267 4.49664C29.8019 5.49326 28.0517 7.20234 26.8635 9.44253C25.7663 11.5262 26.569 14.1141 28.6527 15.2114C30.7365 16.3084 33.3244 15.5057 34.4194 13.426C34.8188 12.6729 35.5458 11.8443 36.737 12.1736C38.1692 12.569 38.6625 13.9788 38.6498 15.0658C38.6145 18.0805 36.0052 20.0937 33.2427 22.2251Z" fill="black"/>
<path d="M72.2861 27.532C69.8564 26.1325 66.8399 26.1326 64.414 27.5333C64.3559 27.5668 64.2989 27.6016 64.242 27.6365C65.0597 23.2009 65.4007 18.3305 65.2603 13.0892C67.4842 12.6627 69.4561 11.2889 70.6084 9.29334C72.0091 6.86724 72.0095 3.85072 70.6095 1.42106C70.3547 0.979354 69.8838 0.707031 69.3739 0.707031C69.3737 0.707031 69.3732 0.707031 69.3728 0.707031C66.5687 0.709312 63.9566 2.21793 62.5557 4.64403C61.2171 6.96262 61.1583 9.82002 62.3778 12.1897C62.4166 13.2042 62.437 14.195 62.4397 15.1625C60.9664 13.5667 58.8687 12.6214 56.6502 12.6194C56.6498 12.6194 56.6493 12.6194 56.6489 12.6194C56.139 12.6194 55.6681 12.8916 55.4135 13.3334C54.0135 15.7631 54.0139 18.7794 55.4145 21.2055C56.7364 23.4955 59.138 24.9673 61.7614 25.1274C61.052 29.9078 59.8218 33.959 58.2381 37.4227C57.6391 35.6142 56.3945 34.0472 54.7019 33.0681C54.2602 32.8129 53.7157 32.8129 53.2739 33.0681C50.8467 34.4722 49.3388 37.0847 49.3388 39.8862C49.3388 42.4013 50.5547 44.7635 52.5595 46.2362C47.6199 51.8798 41.6835 55.124 36.8606 57.7594C36.7397 57.8256 36.6195 57.8912 36.5 57.9565C36.3805 57.8912 36.2604 57.8256 36.1394 57.7594C31.3164 55.124 25.3801 51.8797 20.4405 46.2362C22.4453 44.7634 23.6612 42.4011 23.6612 39.8862C23.6612 37.0848 22.1533 34.4721 19.726 33.0681C19.2843 32.8129 18.7398 32.8129 18.2981 33.0681C16.6056 34.0472 15.3609 35.6142 14.7619 37.4227C13.1781 33.959 11.948 29.9078 11.2385 25.1274C13.8619 24.9672 16.2634 23.4953 17.5854 21.2055C18.986 18.7796 18.9865 15.7631 17.5865 13.3334C17.332 12.8916 16.8609 12.6194 16.3511 12.6194C16.3506 12.6194 16.3502 12.6194 16.3498 12.6194C14.1313 12.6214 12.0335 13.5667 10.5603 15.1625C10.5628 14.1949 10.5832 13.2041 10.6222 12.1895C11.8415 9.82002 11.7829 6.96262 10.4442 4.64403C9.04367 2.21793 6.43151 0.709312 3.62744 0.707031C3.62701 0.707031 3.62673 0.707031 3.6263 0.707031C3.11658 0.707031 2.64551 0.979212 2.39086 1.42106C0.990894 3.85072 0.991322 6.86709 2.392 9.29319C3.54417 11.2889 5.51602 12.6627 7.74009 13.089C7.59951 18.3303 7.9407 23.2009 8.75838 27.6364C8.70135 27.6014 8.64432 27.5666 8.58629 27.5331C6.16019 26.1323 3.14382 26.1322 0.714151 27.5319C0.272018 27.7866 -0.000305159 28.2583 0.000122573 28.7686C0.00254639 31.5728 1.51116 34.1848 3.93712 35.5856C5.1506 36.2863 6.5115 36.6366 7.87311 36.6366C8.95571 36.6366 10.0386 36.4142 11.0477 35.9712C12.4526 39.6923 14.3108 43.0814 16.5967 46.0811C17.451 47.2021 18.3402 48.2408 19.2531 49.2079C16.5237 49.2741 13.9965 50.7673 12.6239 53.1398C12.3684 53.5816 12.3684 54.1261 12.6239 54.5678C14.0282 56.9951 16.6408 58.503 19.442 58.503C22.0771 58.503 24.5449 57.1686 25.9973 54.9899C28.5876 56.8114 31.1753 58.286 33.5643 59.6001C31.1436 61.0162 29.2395 62.3725 28.0942 64.0692C27.6536 64.7219 27.8256 65.608 28.4783 66.0486C28.7228 66.2137 29.0003 66.2929 29.2746 66.2929C29.7324 66.2929 30.1822 66.0727 30.4577 65.6647C31.4861 64.1411 33.7517 62.741 36.5001 61.2117C39.2486 62.7408 41.5142 64.1411 42.5426 65.6647C42.818 66.0727 43.2677 66.2929 43.7257 66.2929C44 66.2929 44.2774 66.2137 44.522 66.0486C45.1747 65.608 45.3466 64.7219 44.9061 64.0692C43.7607 62.3725 41.8566 61.0162 39.4359 59.6001C41.825 58.286 44.4126 56.8114 47.003 54.9899C48.4554 57.1686 50.9231 58.503 53.5582 58.503C56.3595 58.503 58.9721 56.9952 60.3763 54.5678C60.6318 54.1261 60.6318 53.5816 60.3763 53.1399C59.0039 50.7673 56.4767 49.2741 53.7472 49.2079C54.6601 48.2408 55.5492 47.2021 56.4035 46.0811C58.6895 43.0812 60.5477 39.6923 61.9525 35.9712C62.9617 36.4142 64.0443 36.6366 65.1271 36.6366C66.4885 36.6366 67.8498 36.2861 69.0631 35.5856C71.4891 34.185 72.9977 31.5726 73.0001 28.7686C73.0006 28.2584 72.7282 27.7868 72.2861 27.532ZM53.988 36.0373C55.1132 36.9832 55.7854 38.3927 55.7854 39.8862C55.7854 41.3797 55.1132 42.7892 53.988 43.7351C52.8628 42.7892 52.1905 41.3797 52.1905 39.8862C52.1905 38.3927 52.8628 36.9832 53.988 36.0373ZM19.0123 36.0373C20.1375 36.9832 20.8097 38.3927 20.8097 39.8862C20.8097 41.3797 20.1375 42.7892 19.0123 43.7351C17.8869 42.7892 17.2148 41.3797 17.2148 39.8862C17.2148 38.3927 17.8869 36.9832 19.0123 36.0373ZM12.0027 17.9824C12.7496 16.689 14.0365 15.8044 15.484 15.5479C15.9856 16.9296 15.863 18.4865 15.1162 19.7799C14.3695 21.0734 13.0826 21.9579 11.635 22.2144C11.1334 20.8326 11.2561 19.2758 12.0027 17.9824ZM4.86159 7.86742C4.11477 6.5741 3.99229 5.01715 4.49374 3.63543C5.94119 3.89193 7.22809 4.77648 7.97506 6.06994C8.72174 7.36326 8.84435 8.92021 8.34276 10.3021C6.89532 10.0456 5.60827 9.16088 4.86159 7.86742ZM5.36304 33.1162C4.06957 32.3695 3.18502 31.0825 2.92852 29.635C4.3101 29.1336 5.86733 29.256 7.16051 30.0027C8.45397 30.7495 9.33852 32.0366 9.59502 33.484C8.2133 33.9855 6.65636 33.8629 5.36304 33.1162ZM19.442 55.6516C17.9485 55.6516 16.539 54.9793 15.5931 53.8541C16.539 52.7287 17.9485 52.0566 19.442 52.0566C20.9355 52.0566 22.345 52.7289 23.2909 53.8541C22.345 54.9793 20.9354 55.6516 19.442 55.6516ZM65.0252 6.06994C65.772 4.77648 67.0589 3.89193 68.5064 3.63543C69.008 5.01715 68.8853 6.57396 68.1387 7.86756C67.3918 9.16103 66.1048 10.0456 64.6575 10.3021C64.1559 8.92021 64.2785 7.36326 65.0252 6.06994ZM61.3652 22.2143C59.9178 21.9578 58.6307 21.0732 57.884 19.7798C57.1374 18.4865 57.0148 16.9296 57.5163 15.5478C58.9638 15.8043 60.2508 16.6888 60.9975 17.9823C61.7442 19.2758 61.8668 20.8326 61.3652 22.2143ZM57.4071 53.854C56.4613 54.9793 55.0516 55.6514 53.5582 55.6514C52.0647 55.6514 50.6552 54.9792 49.7092 53.854C50.6551 52.7286 52.0646 52.0565 53.5582 52.0565C55.0517 52.0565 56.4613 52.7287 57.4071 53.854ZM67.6372 33.1162C66.3438 33.8627 64.7869 33.9856 63.4051 33.484C63.6616 32.0366 64.5461 30.7494 65.8396 30.0027C67.1331 29.2562 68.69 29.1336 70.0716 29.635C69.8152 31.0825 68.9305 32.3694 67.6372 33.1162Z" fill="black"/>
<path d="M44.33 15.1495C44.33 15.9369 44.9687 16.5753 45.7562 16.5753C46.5436 16.5753 47.1819 15.9369 47.1819 15.1495C47.1819 14.3622 46.5436 13.7238 45.7562 13.7238H45.7552C44.9677 13.7238 44.33 14.3622 44.33 15.1495Z" fill="black"/>
</svg>
