<svg width="45" height="73" viewBox="0 0 45 73" fill="none" xmlns="http://www.w3.org/2000/svg">
<path fill-rule="evenodd" clip-rule="evenodd" d="M31.8779 40.6569C31.0966 41.6118 29.9128 42.0478 28.7705 41.9196L26.2135 41.7341L24.1399 42.8449C23.0705 43.4151 21.8355 43.3737 20.8411 42.839L18.5307 41.6809L16.1711 41.9156C14.9853 42.032 13.8804 41.5427 13.1642 40.6983L11.4379 38.7017L9.62671 38.1552V71.5733L22.4984 65.1375L35.3701 71.5733V38.1552L33.3853 38.8141L31.8779 40.6569Z" fill="#0030B5"/>
<path d="M32.1609 32.012C37.5004 26.6725 37.5004 18.0155 32.1609 12.676C26.8214 7.33656 18.1644 7.33655 12.825 12.676C7.48548 18.0155 7.48548 26.6725 12.825 32.012C18.1644 37.3514 26.8214 37.3514 32.1609 32.012Z" fill="#C7D9DA"/>
<path fill-rule="evenodd" clip-rule="evenodd" d="M36.1751 22.3419C36.1751 29.8944 30.053 36.0165 22.5004 36.0165C14.9479 36.0165 8.82576 29.8944 8.82576 22.3419C8.82576 14.7893 14.9479 8.6672 22.5004 8.6672C30.053 8.66523 36.1751 14.7893 36.1751 22.3419ZM41.8395 26.3056L42.9977 23.9952C43.5304 23.0008 43.5738 21.7677 43.0036 20.6964L41.8928 18.6228L42.0783 16.0659C42.2065 14.9235 41.7705 13.7417 40.8155 12.9584L38.9728 11.4511L38.2349 9.22556C37.9587 8.04375 37.0787 7.0395 35.8338 6.66266L35.3721 6.52258L33.5609 5.97607L31.8346 3.97942C31.1184 3.13499 30.0115 2.64569 28.8278 2.7621L26.4661 2.99688L24.1558 1.83875C23.1614 1.30604 21.9283 1.26264 20.8569 1.83283L18.7834 2.94361L16.2264 2.75815C15.084 2.62991 13.9022 3.06594 13.1189 4.02085L11.6116 5.86361L9.62679 6.52258L9.38608 6.60348C8.20427 6.87969 7.20003 7.75964 6.82319 9.00458L6.13659 11.2774L4.13995 13.0038C3.29551 13.72 2.80622 14.8268 2.92262 16.0106L3.15741 18.3703L1.99927 20.6806C1.46657 21.675 1.42316 22.9081 1.99335 23.9794L3.10414 26.053L2.91868 28.61C2.79043 29.7524 3.22646 30.9342 4.18138 31.7174L6.02414 33.2248L6.76203 35.4503C7.03824 36.6321 7.91819 37.6364 9.16314 38.0132L9.62481 38.1533L11.436 38.6998L13.1624 40.6964C13.8785 41.5409 14.9854 42.0302 16.1692 41.9138L18.5288 41.679L20.8392 42.8371C21.8336 43.3698 23.0667 43.4132 24.138 42.843L26.2116 41.7323L28.7686 41.9177C29.9109 42.046 31.0927 41.6099 31.876 40.655L33.3834 38.8122L35.3682 38.1533L35.6089 38.0724C36.7907 37.7962 37.7949 36.9162 38.1718 35.6713L38.8584 33.3964L40.855 31.6701C41.6994 30.9539 42.1887 29.8471 42.0723 28.6633L41.8395 26.3056Z" fill="#FFC144"/>
<path fill-rule="evenodd" clip-rule="evenodd" d="M23.1594 64.5635L35.1649 70.8632L34.7545 38.4255L30.0569 41.5961L24.7239 41.8309L22.824 43.2356L23.1594 64.5635Z" fill="#004FFF"/>
<path d="M22.4984 7.24084C14.1704 7.24084 7.39722 14.016 7.39722 22.342C7.39722 28.032 10.5441 33.1815 15.6087 35.7838C16.3091 36.1429 17.1694 35.8667 17.5284 35.1663C17.8875 34.4659 17.6113 33.6057 16.9109 33.2466C12.8012 31.1355 10.2482 26.9587 10.2482 22.342C10.2482 15.5865 15.7429 10.0918 22.4984 10.0918C29.2538 10.0918 34.7485 15.5865 34.7485 22.342C34.7485 26.9587 32.1955 31.1355 28.0858 33.2466C27.3854 33.6057 27.1092 34.4659 27.4683 35.1663C27.7208 35.6576 28.22 35.9417 28.7369 35.9417C28.9559 35.9417 29.1788 35.8904 29.388 35.7838C34.4526 33.1835 37.5995 28.032 37.5995 22.342C37.6015 14.0141 30.8263 7.24084 22.4984 7.24084Z" fill="black"/>
<path d="M44.2603 20.0236L43.3449 18.315L43.4988 16.198C43.6763 14.5368 43.0114 12.917 41.7191 11.8594L40.198 10.6125L39.6081 8.83685C39.1898 7.1539 37.9074 5.80439 36.2461 5.30128L34.3678 4.73307L32.9197 3.05801C31.874 1.82885 30.2917 1.18763 28.6837 1.34547L26.7344 1.53882L24.8108 0.574039C23.3606 -0.195421 21.6343 -0.195421 20.1841 0.577985L18.4755 1.49344L16.3585 1.33955C14.6973 1.16396 13.0775 1.82688 12.02 3.11917L10.7731 4.64034L8.99738 5.23025C7.31443 5.64853 5.96491 6.93096 5.46181 8.5922L4.89359 10.4705L3.21853 11.9186C1.98937 12.9643 1.34816 14.5466 1.506 16.1546L1.69935 18.1039L0.734562 20.0276C-0.0348979 21.4777 -0.0348986 23.204 0.738507 24.6542L1.65397 26.3628L1.50007 28.4798C1.32448 30.141 1.9874 31.7608 3.2797 32.8183L4.80086 34.0653L5.39078 35.8409C5.7617 37.3325 6.81132 38.5617 8.20029 39.1713V71.5695C8.20029 72.0627 8.45678 72.5224 8.87702 72.7829C9.29727 73.0433 9.82208 73.067 10.264 72.846L22.4984 66.7298L34.7328 72.846C34.9341 72.9466 35.1531 72.996 35.3701 72.996C35.6305 72.996 35.891 72.9249 36.1198 72.7829C36.5401 72.5224 36.7966 72.0647 36.7966 71.5695V39.1753C38.1027 38.6011 39.1188 37.4785 39.539 36.0876L40.1072 34.2093L41.7823 32.7611C43.0114 31.7154 43.6527 30.1331 43.4948 28.5251L43.3015 26.5758L44.2663 24.6522C45.0337 23.2021 45.0337 21.4737 44.2603 20.0236ZM11.0532 40.436L12.0792 41.6237C13.1248 42.8529 14.7072 43.4941 16.3151 43.3363L18.2644 43.1429L20.1881 44.1077C20.4742 44.2596 20.7701 44.38 21.072 44.4727V64.2596L11.0532 69.269V40.436ZM23.9249 64.2577V44.4707C24.2307 44.378 24.5286 44.2557 24.8167 44.1037L26.5253 43.1883L28.6423 43.3422C30.3035 43.5197 31.9233 42.8549 32.9808 41.5626L33.9437 40.3867V69.271L23.9249 64.2577ZM41.7408 23.3224C41.7349 23.3343 41.729 23.3461 41.7231 23.3579L40.565 25.6683C40.4446 25.909 40.3933 26.1813 40.4209 26.4496L40.6557 28.8093C40.7228 29.484 40.4525 30.1509 39.9257 30.5987L37.9291 32.3251C37.7258 32.5027 37.5759 32.7335 37.497 32.992L36.8104 35.2668C36.5953 35.9771 36.0133 36.5236 35.2892 36.6913C35.2478 36.7011 35.2044 36.713 35.163 36.7268L32.9374 37.4647C32.681 37.5495 32.4541 37.7054 32.2844 37.9145L30.7751 39.7573C30.3272 40.3058 29.6367 40.5859 28.9323 40.507C28.9126 40.505 28.8948 40.5031 28.8751 40.5011L26.3181 40.3156C26.0478 40.2959 25.7795 40.3531 25.5427 40.4814L23.4731 41.5902C22.8615 41.9157 22.1315 41.9137 21.5198 41.5862C21.508 41.5803 21.4962 41.5744 21.4843 41.5685L19.174 40.4103C18.9747 40.3097 18.7557 40.2584 18.5347 40.2584C18.4874 40.2584 18.44 40.2604 18.3927 40.2663L16.035 40.5011C15.3602 40.5682 14.6933 40.2979 14.2455 39.7711L12.5191 37.7744C12.3416 37.5712 12.1107 37.4213 11.8523 37.3424L9.57743 36.6558C8.86716 36.4407 8.32065 35.8587 8.15294 35.1346C8.14308 35.0932 8.13124 35.0498 8.11743 35.0083L7.37954 32.7828C7.2947 32.5263 7.13883 32.2994 6.9297 32.1298L5.08694 30.6204C4.53845 30.1726 4.25829 29.482 4.33721 28.7777C4.33919 28.758 4.34116 28.7402 4.34313 28.7205L4.52859 26.1635C4.54832 25.8952 4.4911 25.6249 4.36286 25.3881L3.25405 23.3185C2.92851 22.7069 2.93048 21.9768 3.258 21.3652C3.26391 21.3534 3.26983 21.3416 3.27575 21.3297L4.43389 19.0194C4.55424 18.7787 4.60554 18.5064 4.57792 18.2381L4.34313 15.8804C4.27605 15.2056 4.54635 14.5387 5.07313 14.0909L7.06978 12.3645C7.273 12.187 7.42294 11.9561 7.50186 11.6977L8.18846 9.42282C8.40351 8.71255 8.98554 8.16604 9.70962 7.99834C9.75105 7.98847 9.79446 7.97663 9.83589 7.96282L12.0614 7.22493C12.3179 7.14009 12.5448 6.98423 12.7145 6.77509L14.2238 4.93234C14.6716 4.38385 15.3622 4.10369 16.0665 4.18261C16.0863 4.18458 16.104 4.18655 16.1238 4.18853L18.6807 4.37398C18.951 4.39371 19.2194 4.3365 19.4581 4.20825L21.5277 3.09944C22.1394 2.7739 22.8694 2.77588 23.481 3.10339C23.4928 3.10931 23.5047 3.11523 23.5165 3.12115L25.8268 4.27928C26.0675 4.39963 26.3398 4.45093 26.6081 4.42331L28.9678 4.18853C29.6445 4.12144 30.3094 4.39174 30.7573 4.91853L32.4837 6.91517C32.6612 7.11839 32.8921 7.26834 33.1505 7.34726L35.4254 8.03385C36.1356 8.2489 36.6821 8.83093 36.8498 9.55501C36.8597 9.59644 36.8715 9.63985 36.8854 9.68128L37.6232 11.9068C37.7081 12.1633 37.864 12.3902 38.0731 12.5598L39.9158 14.0692C40.4643 14.517 40.7445 15.2076 40.6656 15.9139C40.6636 15.9317 40.6616 15.9514 40.6597 15.9711L40.4742 18.5281C40.4545 18.7964 40.5117 19.0667 40.6399 19.3035L41.7487 21.3731C42.0723 21.9808 42.0703 22.7108 41.7408 23.3224Z" fill="black"/>
<path d="M24.0808 26.6193H23.9269V16.638C23.9269 16.129 23.6547 15.6574 23.2147 15.4029C22.7727 15.1484 22.2302 15.1484 21.7882 15.4029L20.2079 16.3164C19.5252 16.711 19.2924 17.5831 19.687 18.2637C19.979 18.7688 20.5314 19.0273 21.076 18.9681V26.6173H20.9201C20.1329 26.6173 19.4937 27.2565 19.4937 28.0438C19.4937 28.831 20.1329 29.4702 20.9201 29.4702H24.0808C24.868 29.4702 25.5073 28.831 25.5073 28.0438C25.5073 27.2565 24.868 26.6193 24.0808 26.6193Z" fill="black"/>
<path d="M22.4985 34.592C21.7093 34.592 21.072 35.2313 21.072 36.0185C21.072 36.8057 21.7113 37.445 22.4985 37.445C23.2857 37.445 23.9249 36.8057 23.9249 36.0185C23.9249 35.2313 23.2877 34.592 22.4985 34.592Z" fill="black"/>
</svg>
