<svg width="73" height="73" viewBox="0 0 73 73" fill="none" xmlns="http://www.w3.org/2000/svg">
<g clip-path="url(#clip0)">
<path fill-rule="evenodd" clip-rule="evenodd" d="M60.1682 9.98033H24.2382L24.2383 7.12891C24.2383 3.97907 21.685 1.42578 18.5352 1.42578C15.3854 1.42578 12.8321 3.97921 12.8321 7.12891V54.4648V57.3163C12.8321 60.4588 10.2905 63.0077 7.15063 63.0194H32.9165V60.2723C32.2106 60.6107 31.363 60.316 31.0198 59.6112C30.8766 59.3172 30.8438 58.9983 30.9051 58.701L31.4139 54.8224L28.6816 51.9887C28.1373 51.4228 28.1547 50.5226 28.7206 49.9781C28.9411 49.7659 29.2125 49.6391 29.4936 49.5968L33.3957 48.8716L35.2454 45.3997C35.6145 44.7077 36.4748 44.4459 37.1669 44.8149C37.4214 44.9506 37.6176 45.1529 37.7459 45.3886L39.6619 48.913L43.5357 49.5992C44.3109 49.7345 44.8295 50.4727 44.6942 51.2479C44.6387 51.5654 44.4822 51.8397 44.2634 52.0439L41.5607 54.8946L42.1054 58.7925C42.213 59.5707 41.6694 60.2889 40.8912 60.3965C40.605 60.436 40.3261 60.3897 40.0836 60.274V63.0194H54.4478C57.5995 63.0416 60.1682 60.4595 60.1682 57.3163V9.98033Z" fill="white"/>
<path fill-rule="evenodd" clip-rule="evenodd" d="M24.2383 7.12891V9.98033H60.1683H71.5745V7.12891C71.5745 3.97907 69.0211 1.42578 65.8714 1.42578H18.5352C21.6848 1.42578 24.2383 3.97907 24.2383 7.12891Z" fill="#A7BDCD"/>
<path fill-rule="evenodd" clip-rule="evenodd" d="M12.832 54.4648H1.42578V57.3163C1.42578 60.466 3.97921 63.0194 7.12891 63.0194H7.15058C10.2904 63.0077 12.832 60.4588 12.832 57.3163V54.4648Z" fill="#A7BDCD"/>
<path fill-rule="evenodd" clip-rule="evenodd" d="M31.4139 54.8224L30.9051 58.701C30.8438 58.9982 30.8766 59.3173 31.0198 59.6112C31.363 60.3159 32.2106 60.6105 32.9165 60.2723C32.9192 60.271 32.9219 60.2697 32.9246 60.2685L36.4598 58.5477L40.0836 60.274C40.3261 60.3898 40.6052 60.4361 40.8912 60.3965C41.6694 60.2888 42.213 59.5707 42.1054 58.7925L41.5607 54.8945L44.2634 52.0438C44.4821 51.8397 44.6388 51.5654 44.6941 51.2478C44.8295 50.4726 44.3108 49.7346 43.5357 49.5992L39.6619 48.913L37.7459 45.3886C37.6176 45.1529 37.4214 44.9506 37.1669 44.8148C36.4748 44.4457 35.6145 44.7075 35.2454 45.3997L33.3957 48.8716L29.4936 49.5968C29.2124 49.6391 28.9411 49.7659 28.7206 49.978C28.1547 50.5224 28.1371 51.4226 28.6816 51.9887L31.4139 54.8224Z" fill="#FFAA00"/>
<path fill-rule="evenodd" clip-rule="evenodd" d="M36.4599 58.5475L32.9246 60.2683C32.9219 60.2696 32.9192 60.2709 32.9165 60.2722V63.0194V71.5745L36.5001 69.7827L40.0836 71.5745V63.0194V60.274L36.4599 58.5475Z" fill="#FF5D7D"/>
<path d="M65.8711 0H18.5351C14.6042 0 11.4062 3.19802 11.4062 7.12889V53.039H1.42578C0.638321 53.039 0 53.6774 0 54.4647V57.3162C0 61.247 3.19802 64.445 7.12889 64.445H31.4906V71.5742C31.4906 72.0684 31.7464 72.5274 32.1668 72.7871C32.3958 72.9286 32.6557 73 32.9165 73C33.1344 73 33.3528 72.9501 33.5541 72.8494L36.5001 71.3766L39.446 72.8494C39.8881 73.0706 40.413 73.0468 40.8331 72.787C41.2535 72.5272 41.5094 72.0683 41.5094 71.5741V64.4449H54.4376C54.4548 64.445 54.4714 64.445 54.4885 64.445C56.3673 64.445 58.1385 63.7126 59.481 62.3797C60.8435 61.0267 61.5939 59.2284 61.5939 57.316V11.4059H71.5744C72.3618 11.4059 73.0001 10.7676 73.0001 9.98016V7.12875C73 3.19802 69.802 0 65.8711 0V0ZM2.85156 57.3162V55.8905H11.4062V57.3162C11.4062 59.6747 9.48741 61.5935 7.12889 61.5935C4.77037 61.5935 2.85156 59.6747 2.85156 57.3162ZM36.4961 46.0747L38.4092 49.594C38.6163 49.9751 38.9859 50.2413 39.4132 50.3169L43.2908 51.0011C43.2694 51.0211 43.2487 51.0416 43.2286 51.0628L40.5259 53.9135C40.2273 54.2283 40.0885 54.6621 40.1485 55.0918L40.6967 58.9866L37.0728 57.2603C36.681 57.0738 36.2257 57.0755 35.8355 57.2655L32.3014 58.9882C32.3084 58.9544 32.3141 58.9203 32.3185 58.8862L32.8273 55.0078C32.8837 54.5775 32.7411 54.1451 32.44 53.8328L29.7057 51.0067C29.7218 51.0042 29.7379 51.0015 29.7539 50.9985L33.6559 50.2734C34.0825 50.194 34.4498 49.9249 34.6538 49.542L36.4961 46.0747ZM37.1377 68.5072C36.7363 68.3065 36.2638 68.3065 35.8625 68.5072L34.3423 69.2673V61.1638L36.4664 60.1298L38.6578 61.1739V69.2673L37.1377 68.5072ZM58.7424 57.3162C58.7424 58.463 58.2911 59.5428 57.4718 60.3563C56.6676 61.1549 55.6092 61.5936 54.4784 61.5936C54.4683 61.5936 54.4579 61.5935 54.4478 61.5935H41.8433C42.283 61.4007 42.6695 61.0997 42.9673 60.7062C43.4264 60.0997 43.6218 59.3504 43.5173 58.5949L43.0676 55.3771L45.2727 53.0512C45.7087 52.63 45.9939 52.0922 46.0985 51.4927C46.3687 49.9444 45.3291 48.4649 43.7842 48.1952L40.5865 47.6287L38.9985 44.7074C38.9985 44.7073 38.9983 44.707 38.9982 44.7069C38.7317 44.2171 38.3303 43.8194 37.8377 43.5568C37.1669 43.1989 36.397 43.1241 35.6698 43.3452C34.9425 43.5667 34.345 44.058 33.987 44.7292L32.4603 47.5952L29.2533 48.1913C28.6787 48.2836 28.1533 48.5456 27.7322 48.9504C27.184 49.4778 26.8741 50.187 26.8592 50.9476C26.8444 51.7081 27.1267 52.429 27.6553 52.9781L29.9108 55.3176L29.4971 58.4726C29.386 59.0747 29.4688 59.6828 29.7379 60.2353C30.0363 60.8481 30.5332 61.3224 31.1503 61.5935H12.8282C13.7253 60.4011 14.2578 58.9199 14.2578 57.3162V7.12889C14.2578 4.77037 16.1766 2.85156 18.5351 2.85156C20.8936 2.85156 22.8125 4.77037 22.8125 7.12889V9.98031C22.8125 10.3584 22.9626 10.721 23.2301 10.9885C23.4974 11.2558 23.8601 11.4061 24.2382 11.4061H58.7424V57.3162ZM70.1484 8.55453H25.664V7.12889C25.664 5.52546 25.1318 4.04379 24.235 2.85156H65.8711C68.2296 2.85156 70.1484 4.77037 70.1484 7.12889V8.55453Z" fill="black"/>
<path d="M34.9193 23.6936C34.1319 23.6936 33.4936 24.3321 33.4936 25.1194C33.4936 25.9067 34.1319 26.5452 34.9193 26.5452H38.0807C38.8682 26.5452 39.5065 25.9067 39.5065 25.1194C39.5065 24.3321 38.8682 23.6936 38.0807 23.6936H37.9259V16.565C37.9259 16.0557 37.6541 15.5849 37.213 15.3303C36.772 15.0756 36.2285 15.0755 35.7874 15.3303L34.2066 16.2428C33.5246 16.6364 33.291 17.5084 33.6846 18.1904C33.976 18.6951 34.5295 18.9546 35.0745 18.8951V23.6935H34.9193V23.6936Z" fill="black"/>
<path d="M17.8044 32.2485C17.8044 33.0358 18.4428 33.6743 19.2302 33.6743H53.7698C54.5572 33.6743 55.1956 33.0358 55.1956 32.2485C55.1956 31.4612 54.5572 30.8227 53.7698 30.8227H19.2302C18.4428 30.8227 17.8044 31.461 17.8044 32.2485Z" fill="black"/>
<path d="M53.7697 36.526H42.9155C42.1281 36.526 41.4897 37.1645 41.4897 37.9518C41.4897 38.7391 42.1281 39.3776 42.9155 39.3776H53.7697C54.5572 39.3776 55.1955 38.7391 55.1955 37.9518C55.1955 37.1645 54.5572 36.526 53.7697 36.526Z" fill="black"/>
<path d="M30.0836 36.526H19.2302C18.4428 36.526 17.8044 37.1645 17.8044 37.9518C17.8044 38.7391 18.4428 39.3776 19.2302 39.3776H30.0836C30.871 39.3776 31.5093 38.7391 31.5093 37.9518C31.5093 37.1645 30.871 36.526 30.0836 36.526Z" fill="black"/>
<path d="M36.5001 36.526H36.4989C35.7115 36.526 35.0737 37.1645 35.0737 37.9518C35.0737 38.7391 35.7126 39.3776 36.5001 39.3776C37.2875 39.3776 37.9258 38.7391 37.9258 37.9518C37.9258 37.1645 37.2875 36.526 36.5001 36.526Z" fill="black"/>
</g>
<defs>
<clipPath id="clip0">
<rect width="73" height="73" fill="white"/>
</clipPath>
</defs>
</svg>
