<svg width="60" height="73" viewBox="0 0 60 73" fill="none" xmlns="http://www.w3.org/2000/svg">
<path d="M30.0412 73C39.9156 73 47.9205 64.9952 47.9205 55.1208C47.9205 45.2463 39.9156 37.2415 30.0412 37.2415C20.1667 37.2415 12.1619 45.2463 12.1619 55.1208C12.1619 64.9952 20.1667 73 30.0412 73Z" fill="black"/>
<path d="M30.0412 69.8918C38.1991 69.8918 44.8123 63.2786 44.8123 55.1207C44.8123 46.9629 38.1991 40.3496 30.0412 40.3496C21.8834 40.3496 15.2701 46.9629 15.2701 55.1207C15.2701 63.2786 21.8834 69.8918 30.0412 69.8918Z" fill="#C1C1C1"/>
<path fill-rule="evenodd" clip-rule="evenodd" d="M18.2928 34.1189V1.42578H1.42578V27.375L18.2928 34.1189Z" fill="#BC9800"/>
<path fill-rule="evenodd" clip-rule="evenodd" d="M18.2927 1.42578V34.1189L29.9414 38.7812L41.6042 34.1189V1.42578H29.9414H18.2927Z" fill="white"/>
<path fill-rule="evenodd" clip-rule="evenodd" d="M41.6042 1.42578V34.1189L58.457 27.375V1.42578H41.6042Z" fill="#BC9800"/>
<path d="M32.1799 39.4229L58.9846 28.701C59.5264 28.4871 59.8828 27.9596 59.8828 27.375V1.42578C59.8828 0.641602 59.2412 0 58.457 0H1.42578C0.641602 0 0 0.641602 0 1.42578V27.375C0 27.9596 0.356445 28.4871 0.898242 28.701L27.7029 39.4229H32.1799ZM2.85156 2.85156H16.867V11.3635C16.867 12.1477 17.5086 12.7893 18.2928 12.7893C19.077 12.7893 19.7186 12.1477 19.7186 11.3635V2.85156H40.1785V33.1494L29.9414 37.2414L19.7043 33.1494V24.1813C19.7043 23.3971 19.0627 22.7555 18.2785 22.7555C17.4943 22.7555 16.8527 23.3971 16.8527 24.1813V32.0088L2.85156 26.4055V2.85156ZM57.0312 26.4055L43.0158 32.0088V2.85156H57.0312V26.4055Z" fill="black"/>
<path d="M18.2927 19.1909C19.0769 19.1909 19.7185 18.5493 19.7185 17.7651C19.7185 16.981 19.0769 16.3394 18.2927 16.3394C17.5085 16.3394 16.8669 16.981 16.8669 17.7651C16.8669 18.5636 17.4943 19.1909 18.2927 19.1909Z" fill="black"/>
<path d="M36.9609 12.1992C36.3828 12.1992 35.4922 12.1523 34.2891 12.0586C33.1172 11.9726 32.2266 11.9336 31.6172 11.9414H30.7852C30.8086 13.0195 30.9141 14.7695 31.1016 17.1914C31.2734 19.4492 31.3594 21.2031 31.3594 22.4531C31.3594 22.7265 31.3867 23.1406 31.4414 23.6953C31.4961 24.25 31.5234 24.6679 31.5234 24.9492C31.5234 25.4804 31.4375 25.9375 31.2656 26.3203C31.0469 26.8359 30.707 27.0937 30.2461 27.0937C29.9336 27.0937 29.6523 26.9843 29.4023 26.7656C29.1523 26.5468 29.0273 26.2656 29.0273 25.9218C29.0273 25.8047 29.0469 25.6289 29.0859 25.3945C29.125 25.1601 29.1445 24.9843 29.1445 24.8672C29.1445 24.4843 29.1172 23.9101 29.0625 23.1445C29.0156 22.3789 28.9922 21.8007 28.9922 21.4101C28.9922 20.2929 28.9023 18.7226 28.7227 16.6992C28.5352 14.5117 28.4297 12.9414 28.4062 11.9882L27.3398 12C25.6289 12 24.2852 11.875 23.3086 11.625C22.6758 11.4609 22.3594 11.0742 22.3594 10.4648C22.3594 10.1445 22.4609 9.86325 22.6641 9.62106C22.8984 9.34762 23.1992 9.22262 23.5664 9.24606C23.8398 9.26169 24.4648 9.332 25.4414 9.457C26.2227 9.55075 26.8555 9.59762 27.3398 9.59762C27.8086 9.59762 28.5195 9.58981 29.4727 9.57419C30.4258 9.55075 31.1367 9.53903 31.6055 9.53903C32.207 9.53903 33.0977 9.582 34.2773 9.66794C35.4648 9.75387 36.3594 9.79684 36.9609 9.79684C37.2969 9.79684 37.5781 9.91403 37.8047 10.1484C38.0312 10.375 38.1445 10.6601 38.1445 11.0039C38.1445 11.3398 38.0312 11.625 37.8047 11.8593C37.5781 12.0859 37.2969 12.1992 36.9609 12.1992Z" fill="black"/>
</svg>
