<svg width="73" height="73" viewBox="0 0 73 73" fill="none" xmlns="http://www.w3.org/2000/svg">
<g clip-path="url(#clip0)">
<path fill-rule="evenodd" clip-rule="evenodd" d="M32.7884 12.4729H5.13281C5.13281 16.0017 8.02002 18.8889 11.5488 18.8889H26.1923C26.0582 16.3664 26.6084 15.0912 29.7056 13.7791L32.7884 12.4729Z" fill="#FFD400"/>
<path fill-rule="evenodd" clip-rule="evenodd" d="M26.1923 18.8889H11.5488C11.5488 22.4177 14.436 25.3049 17.9648 25.3049H26.5998L26.2026 19.0624C26.1987 19.004 26.1953 18.9461 26.1923 18.8889Z" fill="#FFA300"/>
<path fill-rule="evenodd" clip-rule="evenodd" d="M26.5998 25.3049H17.9648C17.9648 28.8337 20.8521 31.721 24.3809 31.721H29.7077L26.7251 27.2721L26.5998 25.3049Z" fill="#FFD400"/>
<path fill-rule="evenodd" clip-rule="evenodd" d="M26.2024 19.0624L26.5997 25.3049L26.7249 27.2721L29.7074 31.7209L29.8755 31.9717L31.6703 60.168H40.4564L42.251 31.9717L42.4191 31.7209L45.4017 27.2721L45.5269 25.3049L45.9241 19.0624C45.9278 19.004 45.9313 18.9461 45.9343 18.8889C46.0684 16.3664 45.5182 15.0912 42.421 13.779L39.3382 12.4729C40.0435 11.6903 40.4742 10.656 40.4742 9.52607V5.83686C40.4742 3.41075 38.4893 1.42578 36.0632 1.42578C33.637 1.42578 31.6524 3.41075 31.6524 5.83686V9.52607C31.6524 10.6561 32.0832 11.6903 32.7884 12.4729L29.7056 13.779C26.6084 15.0912 26.0582 16.3664 26.1923 18.8889C26.1953 18.9461 26.1987 19.004 26.2024 19.0624Z" fill="#FFA300"/>
<path fill-rule="evenodd" clip-rule="evenodd" d="M42.4212 13.7791C45.5184 15.0912 46.0686 16.3664 45.9345 18.8889H61.4512C64.9801 18.8889 67.8673 16.0017 67.8673 12.4729H39.3384L42.4212 13.7791Z" fill="#FFD400"/>
<path fill-rule="evenodd" clip-rule="evenodd" d="M61.4512 18.8889H45.9344C45.9315 18.9461 45.928 19.004 45.9243 19.0624L45.5271 25.3049H55.0354C58.564 25.3049 61.4512 22.4177 61.4512 18.8889Z" fill="#FFA300"/>
<path fill-rule="evenodd" clip-rule="evenodd" d="M55.0353 25.3049H45.5271L45.4019 27.2721L42.4193 31.721H48.6195C52.1481 31.721 55.0353 28.8337 55.0353 25.3049Z" fill="#FFD400"/>
<path fill-rule="evenodd" clip-rule="evenodd" d="M50.7577 60.168H40.4564H31.6703H22.2423L20.8164 71.5742H52.1836L50.7577 60.168Z" fill="#6D91AC"/>
<path d="M33.5336 67.2969H39.4667C40.2541 67.2969 40.8925 66.6586 40.8925 65.8711C40.8925 65.0836 40.2541 64.4453 39.4667 64.4453H33.5336C32.7461 64.4453 32.1078 65.0836 32.1078 65.8711C32.1078 66.6586 32.7461 67.2969 33.5336 67.2969Z" fill="black"/>
<path d="M67.8672 11.0471H41.6963C41.8299 10.5549 41.9001 10.0442 41.9001 9.52607V5.83686C41.9001 2.61845 39.2818 0 36.0634 0C32.845 0 30.2266 2.61845 30.2266 5.83686V9.52607C30.2266 10.0443 30.2969 10.5551 30.4304 11.0471H5.13281C4.34535 11.0471 3.70703 11.6854 3.70703 12.4729C3.70703 16.3487 6.53336 19.5768 10.2333 20.2043C10.7882 23.4765 13.3771 26.0654 16.6493 26.6203C17.2768 30.3204 20.5049 33.1467 24.3807 33.1467H28.5218L30.1509 58.7422H22.2422C21.5232 58.7422 20.9166 59.2776 20.8274 59.9912L19.4016 71.3974C19.3508 71.8032 19.4769 72.2113 19.7475 72.5178C20.0181 72.8243 20.4075 73 20.8164 73H52.1836C52.5925 73 52.9819 72.8245 53.2525 72.5178C53.5231 72.2113 53.6492 71.8032 53.5984 71.3974L52.1726 59.9912C52.0835 59.2777 51.477 58.7422 50.7578 58.7422H41.976L42.3785 52.4167C42.4285 51.6308 41.832 50.9533 41.0461 50.9032C40.2605 50.8542 39.5827 51.4497 39.5326 52.2356L39.1186 58.7422H33.0083L31.2986 31.881C31.2826 31.6295 31.2002 31.3869 31.0599 31.1776L28.1234 26.7976L27.6254 18.9717C27.4959 16.9384 27.6718 16.1889 30.2618 15.0918L33.3446 13.7856C33.7692 13.6057 34.0806 13.2317 34.1804 12.7816C34.2802 12.3314 34.1563 11.8608 33.8476 11.5183C33.3514 10.9677 33.0781 10.2601 33.0781 9.52593V5.83686C33.0781 4.1908 34.4174 2.85156 36.0634 2.85156C37.7095 2.85156 39.0487 4.1908 39.0487 5.83686V9.52607C39.0487 10.2602 38.7754 10.9678 38.2792 11.5185C37.9706 11.8609 37.8466 12.3316 37.9465 12.7817C38.0463 13.2318 38.3576 13.6059 38.7822 13.7857L41.8651 15.0919C44.455 16.1892 44.6309 16.9387 44.5015 18.9719L44.0035 26.7977L41.0669 31.1777C40.9266 31.387 40.8442 31.6297 40.8282 31.8812L40.3478 39.4301C40.2977 40.216 40.8943 40.8935 41.6801 40.9436C42.4663 40.9925 43.1437 40.3971 43.1936 39.6112L43.6051 33.1467H48.6194C52.4953 33.1467 55.7234 30.3204 56.3509 26.6203C59.623 26.0654 62.2118 23.4765 62.7669 20.2043C66.4666 19.5768 69.293 16.3487 69.293 12.4729C69.293 11.6854 68.6546 11.0471 67.8672 11.0471ZM50.5685 70.1484H22.4315L23.5009 61.5938H49.499L50.5685 70.1484ZM6.76605 13.8987H26.6389C25.4013 14.9016 24.9047 16.051 24.7818 17.4631H11.5488C9.29253 17.4631 7.38113 15.9578 6.76605 13.8987ZM13.1832 20.3147H24.8535L25.0803 23.8791H17.9648C15.7085 23.8791 13.7983 22.3735 13.1832 20.3147ZM19.5992 26.7307H25.2619L25.3021 27.3627C25.318 27.6141 25.4004 27.8569 25.5407 28.0662L27.0352 30.2953H24.3809C22.1246 30.2951 20.2143 28.7895 19.5992 26.7307ZM48.6193 30.2951H45.0918L46.5863 28.0661C46.7266 27.8568 46.809 27.6141 46.8249 27.3626L46.8651 26.7305H53.4009C52.7857 28.7895 50.8754 30.2951 48.6193 30.2951ZM55.0353 23.8791H47.0465L47.2733 20.3147H59.8168C59.2017 22.3735 57.2915 23.8791 55.0353 23.8791ZM61.4512 17.4631H47.3449C47.222 16.051 46.7254 14.9016 45.4878 13.8987H66.2338C65.6189 15.9578 63.7075 17.4631 61.4512 17.4631Z" fill="black"/>
<path d="M41.3632 44.4976C40.5757 44.4976 39.938 45.1359 39.938 45.9233C39.938 46.7108 40.5767 47.3491 41.3642 47.3491C42.1517 47.3491 42.79 46.7108 42.79 45.9233C42.79 45.1359 42.1517 44.4976 41.3642 44.4976H41.3632Z" fill="black"/>
<path d="M13.6791 35.5621C13.3655 35.5621 13.0518 35.4623 12.7952 35.2484L5.66626 29.5453C5.05317 29.0462 4.95337 28.1623 5.43813 27.5349C5.93716 26.9218 6.82114 26.822 7.44848 27.3068L14.5774 33.0099C15.1905 33.5089 15.2903 34.3929 14.8055 35.0203C14.5204 35.3767 14.1069 35.5621 13.6791 35.5621Z" fill="#FFA300"/>
<path d="M13.6791 48.394C13.3655 48.394 13.0518 48.4938 12.7952 48.7077L5.66626 54.4108C5.05317 54.9099 4.95337 55.7938 5.43813 56.4212C5.93716 57.0343 6.82114 57.1341 7.44848 56.6493L14.5774 50.9462C15.1905 50.4472 15.2903 49.5632 14.8055 48.9358C14.5204 48.5794 14.1069 48.394 13.6791 48.394Z" fill="#FFA300"/>
<path d="M14.4348 43.1756C14.1924 43.3609 13.8787 43.475 13.5365 43.475L4.41152 43.3467C3.62734 43.3324 3 42.6908 3 41.9066C3.01426 41.1225 3.65586 40.4951 4.44004 40.4951L13.565 40.6234C14.3492 40.6377 14.9766 41.2793 14.9766 42.0635C14.9766 42.5197 14.7627 42.9189 14.4348 43.1756Z" fill="#FFA300"/>
<path d="M59.3184 48.394C59.6321 48.394 59.9458 48.4938 60.2024 48.7077L67.3313 54.4108C67.9444 54.9099 68.0442 55.7938 67.5594 56.4212C67.0604 57.0343 66.1764 57.1341 65.5491 56.6493L58.4202 50.9462C57.8071 50.4472 57.7073 49.5632 58.192 48.9358C58.4772 48.5794 58.8907 48.394 59.3184 48.394Z" fill="#FFA300"/>
<path d="M59.3184 35.5621C59.6321 35.5621 59.9458 35.4623 60.2024 35.2484L67.3313 29.5453C67.9444 29.0462 68.0442 28.1623 67.5594 27.5349C67.0604 26.9218 66.1764 26.822 65.5491 27.3068L58.4202 33.0099C57.8071 33.5089 57.7073 34.3929 58.192 35.0203C58.4772 35.3767 58.8907 35.5621 59.3184 35.5621Z" fill="#FFA300"/>
<path d="M58.5628 40.7804C58.8052 40.595 59.1188 40.481 59.461 40.481L68.586 40.6093C69.3702 40.6235 69.9976 41.2651 69.9976 42.0493C69.9833 42.8335 69.3417 43.4608 68.5575 43.4608L59.4325 43.3325C58.6483 43.3183 58.021 42.6767 58.021 41.8925C58.021 41.4362 58.2349 41.037 58.5628 40.7804Z" fill="#FFA300"/>
</g>
<defs>
<clipPath id="clip0">
<rect width="73" height="73" fill="white"/>
</clipPath>
</defs>
</svg>
