<svg width="60" height="73" viewBox="0 0 60 73" fill="none" xmlns="http://www.w3.org/2000/svg">
<path fill-rule="evenodd" clip-rule="evenodd" d="M18.4255 34.5478V1.15161H1.15161V27.6588L18.4255 34.5478Z" fill="#DA4900"/>
<path fill-rule="evenodd" clip-rule="evenodd" d="M18.4254 1.15161V34.4111L29.9343 39.1541L41.4572 34.4111V1.15161H29.9343H18.4254Z" fill="white"/>
<path fill-rule="evenodd" clip-rule="evenodd" d="M41.4573 1.15161V34.5478L58.7312 27.6588V1.15161H41.4573Z" fill="#DA4900"/>
<path d="M32.1799 39.4228L58.9845 28.701C59.5263 28.4871 59.8828 27.9596 59.8828 27.375V1.42578C59.8828 0.641601 59.2412 0 58.457 0H1.42578C0.641601 0 0 0.641601 0 1.42578V27.375C0 27.9596 0.356445 28.4871 0.898242 28.701L27.7029 39.4228H32.1799ZM2.85156 2.85156H16.867V11.3635C16.867 12.1476 17.5086 12.7892 18.2928 12.7892C19.0769 12.7892 19.7185 12.1476 19.7185 11.3635V2.85156H40.1785V33.1494L29.9414 37.2414L19.7043 33.1494V24.1812C19.7043 23.3971 19.0627 22.7555 18.2785 22.7555C17.4943 22.7555 16.8527 23.3971 16.8527 24.1812V32.0088L2.85156 26.4055V2.85156ZM57.0312 26.4055L43.0158 32.0088V2.85156H57.0312V26.4055Z" fill="black"/>
<path d="M18.2927 19.1909C19.0769 19.1909 19.7185 18.5493 19.7185 17.7651C19.7185 16.981 19.0769 16.3394 18.2927 16.3394C17.5085 16.3394 16.8669 16.981 16.8669 17.7651C16.8669 18.5636 17.4943 19.1909 18.2927 19.1909Z" fill="black"/>
<path d="M28.8397 20.1211C28.621 20.1211 28.1444 20.0703 27.41 19.9687C27.3475 21.1484 27.3163 23.2148 27.3163 26.168C27.3163 26.4805 27.2147 26.7461 27.0116 26.9648C26.8085 27.1758 26.5546 27.2812 26.2499 27.2812C25.9374 27.2812 25.6796 27.1758 25.4764 26.9648C25.2733 26.7461 25.1718 26.4805 25.1718 26.168V22.7226C25.1718 21.5742 25.2421 19.957 25.3827 17.8711C25.5389 15.6133 25.6249 13.9961 25.6405 13.0195V11.4023C25.6405 10.6289 25.6874 10.0664 25.7811 9.71484C25.9608 9.02734 26.3436 8.73047 26.9296 8.82422C27.1796 8.74609 27.535 8.6875 27.996 8.64844C28.4569 8.60937 29.0233 8.58984 29.6952 8.58984C31.1249 8.58984 32.4647 9.07812 33.7147 10.0547C35.0897 11.1328 35.7772 12.4297 35.7772 13.9453C35.7772 15.8828 35.0428 17.4258 33.5741 18.5742C32.2616 19.6055 30.6835 20.1211 28.8397 20.1211ZM29.4257 10.8164C29.0819 10.8164 28.7733 10.8242 28.4999 10.8398C28.2343 10.8555 28.0077 10.8789 27.8202 10.9102L27.7968 13.0664L27.5507 17.7305L28.8397 17.8828C30.1522 17.8828 31.2577 17.5508 32.1561 16.8867C33.1405 16.1602 33.6327 15.1797 33.6327 13.9453C33.6327 13.0703 33.1639 12.3164 32.2264 11.6836C31.3592 11.1055 30.4257 10.8164 29.4257 10.8164Z" fill="black"/>
<path d="M30.0412 73C39.9156 73 47.9204 64.9952 47.9204 55.1207C47.9204 45.2463 39.9156 37.2415 30.0412 37.2415C20.1667 37.2415 12.1619 45.2463 12.1619 55.1207C12.1619 64.9952 20.1667 73 30.0412 73Z" fill="black"/>
<path d="M30.0412 69.8918C38.1991 69.8918 44.8123 63.2785 44.8123 55.1207C44.8123 46.9628 38.1991 40.3496 30.0412 40.3496C21.8834 40.3496 15.2701 46.9628 15.2701 55.1207C15.2701 63.2785 21.8834 69.8918 30.0412 69.8918Z" fill="#C1C1C1"/>
</svg>
