<svg width="73" height="73" viewBox="0 0 73 73" fill="none" xmlns="http://www.w3.org/2000/svg">
<path fill-rule="evenodd" clip-rule="evenodd" d="M65.8711 4.27734V49.9023C65.8711 51.4707 67.1543 52.7539 68.7227 52.7539C70.291 52.7539 71.5742 51.4707 71.5742 49.9023V4.27734C71.5742 2.70898 70.291 1.42578 68.7227 1.42578C67.1543 1.42578 65.8711 2.70898 65.8711 4.27734Z" fill="#C1C1C1"/>
<path fill-rule="evenodd" clip-rule="evenodd" d="M65.8711 49.9023V4.27734C59.8557 14.6955 49.7954 22.8125 35.894 22.8125V31.3672C49.7954 31.3672 59.8571 39.4842 65.8711 49.9023Z" fill="#EAEAEA"/>
<path fill-rule="evenodd" clip-rule="evenodd" d="M7.12891 22.8125H14.5073V31.3672H7.12891V22.8125Z" fill="#EAEAEA"/>
<path fill-rule="evenodd" clip-rule="evenodd" d="M1.42578 22.8125H7.12891V31.3672H1.42578V22.8125Z" fill="#C1C1C1"/>
<path fill-rule="evenodd" clip-rule="evenodd" d="M14.5073 31.3672V71.5742L21.6362 66.7266V22.8125H14.5073V31.3672Z" fill="#CA006D"/>
<path fill-rule="evenodd" clip-rule="evenodd" d="M21.6362 22.8125V66.7266L25.2007 64.3027L28.7651 66.7266V22.8125H21.6362Z" fill="white"/>
<path fill-rule="evenodd" clip-rule="evenodd" d="M28.7651 22.8125V66.7266L35.894 71.5742V31.3672V22.8125H28.7651Z" fill="#CA006D"/>
<path d="M68.7227 0C66.5056 0 64.6791 1.69525 64.4667 3.85674C60.5358 10.5408 51.7174 21.3867 35.894 21.3867H1.42578C0.63875 21.3867 0 22.0255 0 22.8125V31.3672C0 32.1542 0.63875 32.793 1.42578 32.793H13.0815V71.5742C13.0815 72.1018 13.3738 72.588 13.8401 72.8346C14.3063 73.0813 14.8723 73.0499 15.3086 72.7533L25.2007 66.0279L35.0928 72.7533C35.3337 72.9173 35.6132 73 35.894 73C36.1222 73 36.3517 72.9444 36.5613 72.8346C37.0275 72.588 37.3198 72.1032 37.3198 71.5742V32.8243C52.2535 33.4517 60.6599 43.8499 64.4667 50.323C64.6791 52.4859 66.507 54.1797 68.7227 54.1797C71.0809 54.1797 73 52.2606 73 49.9023V4.27734C73 1.9191 71.0809 0 68.7227 0ZM2.85156 24.2383H5.70312V29.9414H2.85156V24.2383ZM8.55469 29.9414V24.2383H13.0815V29.9414H8.55469ZM15.9331 24.2383H20.2104V65.9723L15.9331 68.8809V24.2383ZM30.1909 65.9723V51.187C30.1909 50.3999 29.5522 49.7612 28.7651 49.7612C27.9781 49.7612 27.3394 50.3999 27.3394 51.187V64.0347L26.002 63.125C25.5172 62.7957 24.8827 62.7957 24.398 63.125L23.0606 64.0347V24.2383H27.3379V38.3549C27.3379 39.142 27.9767 39.7807 28.7637 39.7807C29.5507 39.7807 30.1895 39.142 30.1895 38.3549V24.2383H34.4668V68.8809L30.1909 65.9723ZM54.6787 35.5732C49.4746 32.0972 43.6403 30.2137 37.3198 29.9685V24.2098C43.6203 23.966 49.4375 22.0953 54.6302 18.6392C58.343 16.1684 61.6308 12.9689 64.4453 9.09648V45.0861C61.6437 41.2293 58.3715 38.0413 54.6787 35.5732ZM70.1484 49.9023C70.1484 50.688 69.5083 51.3281 68.7227 51.3281C67.937 51.3281 67.2969 50.688 67.2969 49.9023V4.27734C67.2969 3.49174 67.9356 2.85156 68.7227 2.85156C69.5083 2.85156 70.1484 3.49174 70.1484 4.27734V49.9023Z" fill="black"/>
<path d="M28.7651 43.3452C27.9781 43.3452 27.3394 43.9839 27.3394 44.7709C27.3394 45.558 27.9781 46.1967 28.7651 46.1967C29.5522 46.1967 30.1909 45.558 30.1909 44.7709V44.7695C30.1909 43.9825 29.5522 43.3452 28.7651 43.3452Z" fill="black"/>
</svg>
