<svg width="73" height="73" viewBox="0 0 73 73" fill="none" xmlns="http://www.w3.org/2000/svg">
<path d="M32.3328 61.0685H40.6673V67.6533H32.3328V61.0685Z" fill="#C7C2C9"/>
<path d="M43.0875 67.6533H29.9126C27.7865 67.6533 26.063 69.3768 26.063 71.5029C26.063 71.7392 26.2545 71.9307 26.4907 71.9307H46.5094C46.7457 71.9307 46.9371 71.7392 46.9371 71.5029C46.9371 69.3768 45.2135 67.6533 43.0875 67.6533Z" fill="#C1C1C1"/>
<path d="M67.6533 61.0685H5.34668C2.9843 61.0685 1.06934 59.1535 1.06934 56.7912V20.4862C1.06934 18.1238 2.9843 16.2089 5.34668 16.2089H67.6533C70.0157 16.2089 71.9307 18.1238 71.9307 20.4862V56.7912C71.9307 59.1535 70.0157 61.0685 67.6533 61.0685Z" fill="#C1C1C1"/>
<path d="M5.34668 56.3634V20.9139C5.34668 20.6777 5.53816 20.4862 5.77441 20.4862H67.2256C67.4618 20.4862 67.6533 20.6777 67.6533 20.9139V56.3636C67.6533 56.5998 67.4618 56.7913 67.2256 56.7913H5.77441C5.53816 56.7911 5.34668 56.5997 5.34668 56.3634Z" fill="#ECF5FF"/>
<path d="M55.3683 56.7911H17.6318V5.34668C17.6318 2.9843 19.5468 1.06934 21.9092 1.06934H51.0909C53.4533 1.06934 55.3683 2.9843 55.3683 5.34668V56.7911Z" fill="#F7F6F7"/>
<path d="M71.9307 44.2842C72.5212 44.2842 73 43.8056 73 43.2149V20.4856C73 17.5374 70.6015 15.1389 67.6533 15.1389H56.4376V5.34668C56.4376 2.39845 54.0391 0 51.0909 0H21.9091C18.9609 0 16.5624 2.39845 16.5624 5.34668V15.1389H5.34668C2.39845 15.1389 0 17.5374 0 20.4856V56.7917C0 59.74 2.39845 62.1384 5.34668 62.1384H31.2634V66.584H29.9125C27.2002 66.584 24.9935 68.7907 24.9935 71.5029C24.9935 72.3285 25.6651 73 26.4906 73H46.5093C47.3348 73 48.0063 72.3285 48.0063 71.5029C48.0063 68.7907 45.7997 66.584 43.0874 66.584H41.7365V62.1384H67.6533C70.6015 62.1384 73 59.74 73 56.7917V48.205C73 47.6143 72.5212 47.1356 71.9307 47.1356C71.3401 47.1356 70.8613 47.6143 70.8613 48.205V56.7917C70.8613 58.5605 69.4223 59.9997 67.6533 59.9997H40.6782C40.6745 59.9997 40.671 59.9992 40.6673 59.9992C40.6636 59.9992 40.66 59.9997 40.6563 59.9997H32.3438C32.3401 59.9997 32.3366 59.9992 32.3329 59.9992C32.3292 59.9992 32.3256 59.9997 32.3219 59.9997H5.34668C3.57771 59.9997 2.13867 58.5605 2.13867 56.7917V20.4856C2.13867 18.7168 3.57771 17.2776 5.34668 17.2776H16.5624V19.4163H5.77441C4.94889 19.4163 4.27734 20.0878 4.27734 20.9134V56.7917C4.27734 57.3824 4.75612 57.8611 5.34668 57.8611H67.2256C68.0511 57.8611 68.7227 57.1895 68.7227 56.364V20.9134C68.7227 20.0878 68.0511 19.4163 67.2256 19.4163H56.4376V17.2776H67.6533C69.4223 17.2776 70.8613 18.7168 70.8613 20.4856V43.2149C70.8613 43.8054 71.3401 44.2842 71.9307 44.2842ZM33.4021 62.1384H39.5979V66.584H33.4021V62.1384ZM43.0875 68.7227C44.3998 68.7227 45.5027 69.6364 45.7931 70.8613H27.2069C27.4973 69.6364 28.6002 68.7227 29.9125 68.7227H43.0875ZM16.5624 55.7224H6.41602V21.555H16.5624V55.7224ZM54.2989 55.7224H18.7011V5.34668C18.7011 3.57786 20.1402 2.13867 21.9091 2.13867H51.0909C52.8598 2.13867 54.2989 3.57786 54.2989 5.34668V55.7224ZM66.584 21.555V55.7224H56.4376V21.555H66.584ZM48.8126 38.6387H24.1874C23.5968 38.6387 23.118 39.1173 23.118 39.708C23.118 40.2987 23.5968 40.7773 24.1874 40.7773H48.8126C49.4032 40.7773 49.882 40.2987 49.882 39.708C49.882 39.1173 49.4032 38.6387 48.8126 38.6387ZM48.8126 45.0547H24.1874C23.5968 45.0547 23.118 45.5333 23.118 46.124C23.118 46.7147 23.5968 47.1934 24.1874 47.1934H48.8126C49.4032 47.1934 49.882 46.7147 49.882 46.124C49.882 45.5333 49.4032 45.0547 48.8126 45.0547Z" fill="black"/>
<path fill-rule="evenodd" clip-rule="evenodd" d="M40.7706 13.6631L37.7779 8.15812C37.5769 7.79026 37.2704 7.47374 36.874 7.2613C35.7932 6.68528 34.4487 7.09306 33.8727 8.17523L30.9841 13.5975L24.8889 14.7295C24.4497 14.7951 24.0263 14.9933 23.6812 15.3255C22.7972 16.1753 22.7702 17.5825 23.6199 18.4651L27.8873 22.8907L27.0931 28.9489C26.9976 29.4137 27.0489 29.9113 27.2728 30.3704C27.8103 31.4754 29.1434 31.9345 30.2484 31.3969L35.7704 28.7093L41.4308 31.4055C41.81 31.5866 42.2449 31.6593 42.6926 31.5965C43.9074 31.4283 44.7571 30.3062 44.5889 29.0914L43.7377 23.0034L47.9594 18.5506C48.3016 18.2313 48.5454 17.8035 48.6324 17.3074C48.8434 16.0969 48.0336 14.9434 46.8231 14.7324L40.7706 13.6631Z" fill="#C1C1C1"/>
<path d="M47.4965 13.7576L42.1213 12.8052L39.4565 7.90338C39.1157 7.27604 38.601 6.76703 37.9708 6.43055C37.1125 5.97287 36.1259 5.87592 35.1949 6.15965C34.2638 6.44338 33.4982 7.07215 33.0405 7.9319L30.4741 12.7482L25.0747 13.7519C24.3347 13.8688 23.6589 14.2053 23.1185 14.7257C22.417 15.4016 22.0192 16.3098 22.0007 17.2836C21.9821 18.2574 22.3429 19.1799 23.0201 19.8842L26.8113 23.8165L26.1126 29.1489C25.9644 29.926 26.0699 30.7116 26.4177 31.4259C27.0494 32.7234 28.3525 33.479 29.7056 33.479C30.2417 33.479 30.7849 33.3607 31.2982 33.1112L36.2029 30.7244L41.243 33.1255C41.8846 33.432 42.6004 33.5403 43.3133 33.442C45.3051 33.1668 46.7023 31.3218 46.4257 29.3272L45.6701 23.9192L49.3928 19.9926C49.9574 19.4522 50.3267 18.7593 50.4621 17.9851C50.6304 17.0241 50.4136 16.056 49.8533 15.2576C49.2915 14.4563 48.4532 13.9245 47.4965 13.7576ZM47.6533 17.4903C47.6148 17.7085 47.5008 17.8539 47.4124 17.9366C47.391 17.9566 47.371 17.9765 47.3511 17.9979L43.1293 22.4506C42.8313 22.7657 42.6916 23.1992 42.7515 23.6283L43.6013 29.715C43.6611 30.1498 43.356 30.5533 42.9212 30.6132C42.7629 30.6346 42.6061 30.6118 42.4678 30.5476L36.8074 27.8515C36.4153 27.6647 35.9605 27.6676 35.5698 27.8572L30.0478 30.5448C29.6514 30.7373 29.1724 30.5719 28.9785 30.1755C28.8801 29.973 28.8886 29.7863 28.9143 29.6651C28.9214 29.6309 28.9271 29.5966 28.9314 29.5624L29.7256 23.5043C29.7826 23.0737 29.64 22.6417 29.3377 22.3294L25.0718 17.9038C24.925 17.7513 24.8451 17.5488 24.8494 17.3363C24.8537 17.1239 24.9406 16.9257 25.0932 16.7789C25.2443 16.6334 25.4111 16.5821 25.5238 16.5664C25.5395 16.5636 25.5566 16.5607 25.5723 16.5579L31.6675 15.4258C32.0938 15.346 32.4616 15.0779 32.6655 14.6944L35.5542 9.27213C35.654 9.08535 35.8208 8.94848 36.0232 8.88717C36.1002 8.86436 36.1772 8.85295 36.2556 8.85295C36.384 8.85295 36.5108 8.88432 36.6278 8.94705C36.7646 9.01977 36.8773 9.13098 36.9514 9.26643L39.9441 14.7714C40.1509 15.1521 40.5216 15.4187 40.9479 15.4942L47.0017 16.5664C47.2128 16.6035 47.3953 16.719 47.5179 16.8944C47.6405 17.0697 47.689 17.2807 47.6533 17.4903Z" fill="black"/>
</svg>
