<svg width="73" height="73" viewBox="0 0 73 73" fill="none" xmlns="http://www.w3.org/2000/svg">
<path fill-rule="evenodd" clip-rule="evenodd" d="M39.487 44.1247L21.2986 25.9363L16.0348 36.9168C23.2588 41.5446 31.5236 44.8995 39.487 44.1247Z" fill="#00B7B7"/>
<path fill-rule="evenodd" clip-rule="evenodd" d="M39.487 44.1247C31.5236 44.8997 23.259 41.5447 16.0348 36.9167L11.6581 46.0467C17.952 51.2355 25.7862 56.1968 33.8088 58.0568L47.0646 51.7023L39.487 44.1247Z" fill="#00FFFF"/>
<path fill-rule="evenodd" clip-rule="evenodd" d="M33.809 58.0568C25.7863 56.1968 17.9522 51.2355 11.6583 46.0468L6.41943 56.9752C9.87221 59.9907 13.8897 63.0302 18.2081 65.5355L33.809 58.0568Z" fill="#00B7B7"/>
<path fill-rule="evenodd" clip-rule="evenodd" d="M18.2081 65.5355C13.8895 63.0302 9.8722 59.9907 6.41943 56.9752L1.75171 66.7122C1.2516 67.9114 1.25046 69.4332 2.40908 70.5919C3.56785 71.7506 5.08972 71.7493 6.28869 71.2492L18.2081 65.5355Z" fill="#00FFFF"/>
<path fill-rule="evenodd" clip-rule="evenodd" d="M29.3048 16.1822L32.9566 19.8712C34.1207 21.0472 34.1267 22.9557 32.9566 24.1258C33.693 23.457 34.4296 22.7882 35.1208 21.7692C35.916 20.5969 36.4462 19.2301 36.4462 17.4751C36.4462 13.9934 34.7013 12.409 32.9566 10.8245C32.7349 10.6232 32.5131 10.4217 32.3141 10.2196L28.6462 6.51433C27.4821 5.33845 27.4761 3.42979 28.6462 2.25977C27.9098 2.92839 27.1733 3.59731 26.482 4.61622C25.6868 5.78867 25.1566 7.1553 25.1566 8.91027C25.1566 12.392 26.9013 13.9765 28.6462 15.5609C28.8741 15.7676 29.1018 15.9744 29.3048 16.1822Z" fill="#FFC144"/>
<path fill-rule="evenodd" clip-rule="evenodd" d="M56.8189 43.6962L53.1299 40.0444C51.9539 38.8803 50.0454 38.8743 48.8754 40.0444C49.5441 39.308 50.2129 38.5714 51.232 37.8802C52.4043 37.085 53.771 36.5548 55.526 36.5548C59.0077 36.5548 60.5922 38.2997 62.1767 40.0444C62.378 40.2661 62.5794 40.4879 62.7816 40.6869L66.4868 44.3548C67.6627 45.5189 69.5714 45.5248 70.7414 44.3548C70.0728 45.0912 69.4038 45.8276 68.3849 46.5189C67.2125 47.3142 65.8459 47.8444 64.0909 47.8444C60.6092 47.8444 59.0247 46.0997 57.4402 44.3548C57.2335 44.127 57.0267 43.8993 56.8189 43.6962Z" fill="#FF764E"/>
<path fill-rule="evenodd" clip-rule="evenodd" d="M31.7699 8.19966C31.9926 7.87148 32.4746 7.43366 32.9566 6.99584C34.2645 5.80557 34.3599 3.7803 33.1696 2.47241C31.9793 1.16452 29.9542 1.06915 28.6462 2.25942C27.4761 3.42945 27.4821 5.3381 28.6462 6.51398L32.3141 10.2192C31.8918 9.78997 31.572 9.35657 31.572 8.91006C31.5721 8.59585 31.6514 8.37445 31.7699 8.19966Z" fill="#B278D3"/>
<path fill-rule="evenodd" clip-rule="evenodd" d="M32.9567 19.8711L29.3049 16.1821C29.7192 16.6061 30.031 17.0342 30.031 17.475C30.031 17.7893 29.9518 18.0107 29.8332 18.1856C29.6107 18.5136 29.1285 18.9516 28.6464 19.3894C27.3385 20.5797 27.2431 22.6048 28.4334 23.9128C29.6236 25.2207 31.6488 25.3161 32.9567 24.1258C34.1267 22.9557 34.1207 21.047 32.9567 19.8711Z" fill="#B278D3"/>
<path fill-rule="evenodd" clip-rule="evenodd" d="M48.8753 40.0443C47.685 41.3522 47.7804 43.3775 49.0883 44.5676C50.3961 45.7579 52.4214 45.6625 53.6115 44.3546C54.0494 43.8725 54.4872 43.3903 54.8154 43.1678C54.9901 43.0492 55.2115 42.9701 55.5259 42.9701C55.9676 42.9701 56.3967 43.2831 56.8215 43.6987L53.13 40.0443C51.9539 38.8803 50.0454 38.8743 48.8753 40.0443Z" fill="#8481E2"/>
<path fill-rule="evenodd" clip-rule="evenodd" d="M62.7816 40.6867L66.4869 44.3546C67.6628 45.5186 69.5714 45.5246 70.7414 44.3546C71.9317 43.0467 71.8363 41.0216 70.5285 39.8313C69.2206 38.641 67.1954 38.7364 66.005 40.0443C65.5673 40.5263 65.1295 41.0085 64.8012 41.231C64.6264 41.3496 64.4049 41.4288 64.0906 41.4288C63.6444 41.4288 63.2109 41.109 62.7816 40.6867Z" fill="#8481E2"/>
<path fill-rule="evenodd" clip-rule="evenodd" d="M56.141 18.8763C57.2499 19.9851 59.0644 19.9851 60.1733 18.8763L62.1896 16.86C63.2985 15.7511 63.2985 13.9365 62.1896 12.8277L60.1733 10.8115C59.0644 9.70264 57.2499 9.70264 56.141 10.8115L54.1249 12.8277C53.016 13.9365 53.016 15.7511 54.1249 16.86L56.141 18.8763Z" fill="#FF5D7D"/>
<path d="M22.3067 24.9281C21.9797 24.6011 21.5146 24.4532 21.0586 24.5309C20.6028 24.6088 20.213 24.9029 20.0131 25.32L0.466075 66.0961C0.455383 66.1182 0.44526 66.1407 0.435851 66.1635C-0.388173 68.1393 -0.0273417 70.1717 1.40101 71.6001C2.32398 72.5231 3.49871 73.0002 4.74772 73.0002C5.43175 73.0002 6.1383 72.8569 6.83758 72.5653C6.86039 72.5558 6.88291 72.5456 6.90515 72.535L47.6812 52.9881C48.0982 52.7883 48.3922 52.3985 48.4702 51.9426C48.548 51.4868 48.4 51.0215 48.073 50.6944L22.3067 24.9281ZM21.7139 28.3678L36.1372 42.791C30.5565 42.5615 24.4321 40.4138 17.8709 36.3842L21.7139 28.3678ZM5.70904 69.9462C5.1814 70.1596 4.21111 70.3777 3.41702 69.5837C2.62336 68.79 2.84135 67.8196 3.05462 67.2919L6.90302 59.2643C9.65708 61.5714 12.4418 63.6219 15.2198 65.3871L5.70904 69.9462ZM33.6519 56.5513C31.9422 56.1268 30.173 55.5413 28.3835 54.8038C27.6555 54.5034 26.8222 54.8506 26.5221 55.5787C26.2221 56.3065 26.569 57.1399 27.2969 57.44C28.1415 57.7881 28.983 58.1038 29.8183 58.389L18.2771 63.9216C14.9146 61.9152 11.5235 59.46 8.1764 56.6078L12.1652 48.2869C13.3866 49.2512 14.618 50.1701 15.8423 51.0283C16.0913 51.2029 16.3767 51.2868 16.6594 51.2868C17.1085 51.2868 17.5506 51.0751 17.828 50.6793C18.2801 50.0348 18.1239 49.1456 17.4792 48.6935C16.1311 47.7485 14.7729 46.7264 13.4298 45.6489L16.6319 38.9692C23.9491 43.4178 30.8275 45.6632 37.1352 45.6632C37.7438 45.6632 38.3477 45.6415 38.9459 45.5996L44.6332 51.2869L33.6519 56.5513Z" fill="black"/>
<path d="M27.6878 16.616C27.9618 16.8649 28.3948 17.2581 28.564 17.496C28.367 17.7173 27.9674 18.0801 27.6868 18.335C26.7726 19.1669 26.2372 20.3051 26.1789 21.5399C26.1208 22.7746 26.547 23.9581 27.3789 24.8722C28.2108 25.7863 29.349 26.3219 30.5838 26.38C30.6583 26.3835 30.7325 26.3852 30.8066 26.3852C31.9602 26.3852 33.0571 25.9618 33.9158 25.1804C34.665 24.5 35.5142 23.7287 36.3006 22.5694C37.3579 21.0105 37.8718 19.3443 37.8718 17.4751C37.8718 13.3624 35.7697 11.4534 33.9149 9.76889C33.6411 9.52012 33.2081 9.12692 33.0389 8.88912C33.2355 8.66829 33.6342 8.30603 33.9159 8.05013C35.8031 6.33279 35.9412 3.40024 34.2237 1.51297C33.3919 0.598698 32.2536 0.0632246 31.0189 0.00520076C29.7865 -0.0518251 28.6018 0.372875 27.6878 1.20403C26.9387 1.8842 26.0895 2.65505 25.3023 3.81567C24.2449 5.37433 23.731 7.04077 23.731 8.91008C23.7311 13.0231 25.8332 14.932 27.6878 16.616ZM30.7181 23.5319C30.244 23.5097 29.8072 23.304 29.4879 22.9531C29.1685 22.6021 29.005 22.1479 29.0272 21.6739C29.0496 21.1999 29.2551 20.7629 29.6049 20.4446C29.9608 20.1214 30.3036 19.8096 30.5883 19.5049L31.9434 20.8738C32.5524 21.4891 32.5613 22.4775 31.9702 23.0934C31.6232 23.3975 31.1812 23.554 30.7181 23.5319ZM35.0207 17.4751C35.0207 18.2754 34.8896 19.0042 34.6169 19.7001C34.4384 19.4041 34.2234 19.1241 33.97 18.8681L30.3019 15.1628C30.2998 15.1607 30.2973 15.1588 30.2951 15.1567C30.0702 14.9289 29.8336 14.7133 29.6046 14.5053C27.9161 12.972 26.5823 11.7608 26.5823 8.91022C26.5823 8.10986 26.7133 7.38107 26.986 6.68521C27.1645 6.98118 27.3795 7.26118 27.633 7.51722L31.3009 11.2225C31.3033 11.2249 31.306 11.2269 31.3084 11.2293C31.5331 11.4569 31.7695 11.6723 31.9983 11.88C33.687 13.4133 35.0207 14.6246 35.0207 17.4751ZM30.7996 2.85136C30.828 2.85136 30.8565 2.85208 30.8851 2.85336C31.3592 2.8756 31.7961 3.08132 32.1153 3.43217C32.7747 4.15669 32.7217 5.28252 31.996 5.94274C31.641 6.26522 31.2989 6.5763 31.0149 6.88024L29.6597 5.51119C29.0505 4.89588 29.0418 3.90734 29.6331 3.29146C29.9588 3.00633 30.3685 2.85136 30.7996 2.85136Z" fill="black"/>
<path d="M55.1329 19.8843C55.9668 20.7182 57.062 21.1349 58.1573 21.1349C59.2525 21.1349 60.3476 20.7181 61.1815 19.8843L63.1978 17.868C64.8654 16.2005 64.8654 13.4872 63.1978 11.8194L61.1815 9.8033C59.5139 8.13586 56.8006 8.13557 55.1329 9.8033L53.1166 11.8196C52.3111 12.6251 51.8673 13.6993 51.8673 14.844C51.8673 15.9885 52.311 17.0625 53.1166 17.8682L55.1329 19.8843ZM55.1329 13.8357L57.1492 11.8196C57.4162 11.5526 57.7742 11.4054 58.1573 11.4054C58.5403 11.4054 58.8982 11.5526 59.1652 11.8196L61.1815 13.8357C61.4485 14.1028 61.5957 14.4607 61.5957 14.8438C61.5957 15.2269 61.4485 15.5847 61.1815 15.8517L59.1652 17.868C58.8982 18.1351 58.5402 18.2822 58.1573 18.2822C57.7741 18.2822 57.4162 18.1351 57.1492 17.868L55.1329 15.8517C54.8659 15.5847 54.7188 15.2267 54.7188 14.8438C54.7188 14.4609 54.8657 14.1028 55.1329 13.8357Z" fill="black"/>
<path d="M71.4881 38.7771C70.5739 37.9449 69.3907 37.5201 68.1556 37.577C66.9208 37.6351 65.7826 38.1706 64.9497 39.086C64.6958 39.3656 64.3331 39.7651 64.1119 39.9621C63.8741 39.7929 63.4807 39.3597 63.2317 39.0856C61.5474 37.2311 59.6385 35.1293 55.5259 35.1293C53.6566 35.1293 51.9901 35.6431 50.4315 36.7005C49.2717 37.4873 48.5004 38.3366 47.821 39.0849C47.8034 39.1041 47.7872 39.1241 47.7701 39.1436C47.7698 39.1439 47.7694 39.1443 47.7691 39.1448C46.9719 40.0506 46.5638 41.2091 46.6209 42.4175C46.679 43.6522 47.2145 44.7905 48.1286 45.6222C50.0158 47.3398 52.9483 47.2014 54.6682 45.312C54.9217 45.0327 55.284 44.6339 55.5049 44.4372C55.7427 44.6063 56.1359 45.0392 56.3847 45.3132C58.0688 47.168 59.9779 49.2701 64.0909 49.2701C65.9602 49.2701 67.6266 48.7562 69.1853 47.6989C70.3445 46.9125 71.1156 46.0636 71.7959 45.3145C73.5133 43.427 73.3753 40.4944 71.4881 38.7771ZM67.0597 41.0039C67.3789 40.6529 67.8158 40.4475 68.2899 40.425C68.7642 40.4047 69.2181 40.5664 69.5691 40.8856C70.2849 41.5371 70.3438 42.6433 69.7089 43.3685C69.0931 43.9593 68.1048 43.9499 67.4899 43.3413L66.121 41.9861C66.4254 41.7017 66.737 41.3591 67.0597 41.0039ZM52.5574 43.3949C52.2381 43.7459 51.801 43.9515 51.3271 43.9739C50.8512 43.9971 50.3988 43.8326 50.0478 43.5132C49.6968 43.194 49.4914 42.7571 49.4689 42.2832C49.4472 41.8208 49.6035 41.3779 49.9084 41.0296C50.5247 40.4397 51.5121 40.4491 52.1267 41.0574L53.4958 42.4126C53.1917 42.697 52.8803 43.0395 52.5574 43.3949ZM58.4957 43.3962C58.2874 43.1668 58.0714 42.9299 57.8431 42.7046C57.8414 42.7029 57.8399 42.7009 57.8381 42.699L54.1329 39.031C53.8768 38.7775 53.597 38.5627 53.301 38.384C53.9969 38.1113 54.7258 37.9803 55.526 37.9803C58.3763 37.9803 59.5876 39.3138 61.1213 41.0025C61.3288 41.231 61.544 41.4673 61.7715 41.6918C61.7741 41.6944 61.7762 41.6972 61.7788 41.6998L65.484 45.3679C65.7401 45.6213 66.0201 45.8363 66.316 46.015C65.6202 46.2877 64.8914 46.4187 64.091 46.4187C61.2402 46.4186 60.0291 45.0849 58.4957 43.3962Z" fill="black"/>
<path d="M67.6079 6.81882C68.3951 6.81882 69.0335 6.18042 69.0335 5.39318C69.0335 4.60593 68.3951 3.96753 67.6079 3.96753H67.6067C66.8195 3.96753 66.1816 4.60593 66.1816 5.39318C66.1816 6.18042 66.8206 6.81882 67.6079 6.81882Z" fill="black"/>
<path d="M48.1309 5.78965C48.9182 5.78965 49.5566 5.15125 49.5566 4.364C49.5566 3.57676 48.9182 2.93835 48.1309 2.93835H48.1299C47.3427 2.93835 46.7047 3.57676 46.7047 4.364C46.7047 5.15125 47.3437 5.78965 48.1309 5.78965Z" fill="black"/>
<path d="M43.6702 18.7181C44.4575 18.7181 45.0959 18.0797 45.0959 17.2925C45.0959 16.5052 44.4575 15.8668 43.6702 15.8668H43.6691C42.8819 15.8668 42.244 16.5052 42.244 17.2925C42.244 18.0797 42.883 18.7181 43.6702 18.7181Z" fill="black"/>
<path d="M42.582 31.8452C43.3692 31.8452 44.0076 31.2068 44.0076 30.4195C44.0076 29.6323 43.3692 28.9939 42.582 28.9939H42.5808C41.7936 28.9939 41.1558 29.6323 41.1558 30.4195C41.1558 31.2068 41.7947 31.8452 42.582 31.8452Z" fill="black"/>
<path d="M67.2115 24.87V24.8711C67.2115 25.6584 67.8499 26.2962 68.6372 26.2962C69.4244 26.2962 70.0628 25.6574 70.0628 24.87C70.0628 24.0826 69.4244 23.4443 68.6372 23.4443C67.8499 23.4443 67.2115 24.0826 67.2115 24.87Z" fill="black"/>
<path d="M54.2828 29.3309V29.3319C54.2828 30.1192 54.9212 30.7571 55.7085 30.7571C56.4957 30.7571 57.1341 30.1183 57.1341 29.3309C57.1341 28.5435 56.4957 27.9053 55.7085 27.9053C54.9212 27.9053 54.2828 28.5435 54.2828 29.3309Z" fill="black"/>
<path d="M22.0798 51.8711H22.0786C21.2913 51.8711 20.6536 52.5095 20.6536 53.2967C20.6536 54.084 21.2924 54.7224 22.0798 54.7224C22.8672 54.7224 23.5054 54.084 23.5054 53.2967C23.5054 52.5095 22.8672 51.8711 22.0798 51.8711Z" fill="black"/>
</svg>
