<svg width="74" height="73" viewBox="0 0 74 73" fill="none" xmlns="http://www.w3.org/2000/svg">
<g clip-path="url(#clip0)">
<path fill-rule="evenodd" clip-rule="evenodd" d="M2.18799 35.0742H20.5036V6.55859H5.03955C3.47119 6.55859 2.18799 7.8418 2.18799 9.41016V35.0742Z" fill="#839EFF"/>
<path fill-rule="evenodd" clip-rule="evenodd" d="M20.5036 35.0742H2.18799V49.332C2.18799 50.9004 3.47119 52.1836 5.03955 52.1836H20.5036V35.0742Z" fill="#002BFF"/>
<path fill-rule="evenodd" clip-rule="evenodd" d="M20.5037 6.55859V35.0742V52.1836H44.8303C42.4621 50.0934 40.9693 47.0351 40.9693 43.6289C40.9693 37.3298 46.0765 32.2227 52.3756 32.2227C58.6747 32.2227 63.7818 37.3298 63.7818 43.6289C63.7818 47.0351 62.2876 50.0934 59.9208 52.1836H69.4849C71.0533 52.1836 72.3365 50.9004 72.3365 49.332V9.41016C72.3365 7.8418 71.0533 6.55859 69.4849 6.55859H20.5037Z" fill="white"/>
<path d="M69.4849 5.13281H5.03955C2.68131 5.13281 0.762207 7.05191 0.762207 9.41016V49.332C0.762207 51.6903 2.68131 53.6094 5.03955 53.6094H69.4849C71.8431 53.6094 73.7622 51.6903 73.7622 49.332V9.41016C73.7622 7.05191 71.8431 5.13281 69.4849 5.13281ZM5.03955 7.98438H19.0778V33.6484H3.61377V9.41016C3.61377 8.62313 4.25395 7.98438 5.03955 7.98438ZM3.61377 49.332V36.5H19.0764V50.7578H5.03955C4.25395 50.7578 3.61377 50.1176 3.61377 49.332ZM70.9106 49.332C70.9106 50.1176 70.2705 50.7578 69.4849 50.7578H21.9294V7.98438H69.4849C70.2705 7.98438 70.9106 8.62455 70.9106 9.41016V49.332Z" fill="black"/>
<path d="M13.3732 39.3516H9.31689C8.52986 39.3516 7.89111 39.9903 7.89111 40.7773C7.89111 41.5644 8.52986 42.2031 9.31689 42.2031H13.3732C14.1603 42.2031 14.799 41.5644 14.799 40.7773C14.799 39.9903 14.1617 39.3516 13.3732 39.3516Z" fill="black"/>
<path d="M13.3732 45.0547H9.31689C8.52986 45.0547 7.89111 45.6934 7.89111 46.4805C7.89111 47.2675 8.52986 47.9062 9.31689 47.9062H13.3732C14.1603 47.9062 14.799 47.2675 14.799 46.4805C14.799 45.6934 14.1617 45.0547 13.3732 45.0547Z" fill="black"/>
<path d="M65.2074 12.2617H52.8359C52.0489 12.2617 51.4102 12.9005 51.4102 13.6875C51.4102 14.4745 52.0489 15.1133 52.8359 15.1133H65.2074C65.9945 15.1133 66.6332 14.4745 66.6332 13.6875C66.6332 12.9005 65.9945 12.2617 65.2074 12.2617Z" fill="black"/>
<path d="M27.6326 15.1133H40.0041C40.7911 15.1133 41.4298 14.4745 41.4298 13.6875C41.4298 12.9005 40.7911 12.2617 40.0041 12.2617H27.6326C26.8455 12.2617 26.2068 12.9005 26.2068 13.6875C26.2068 14.4745 26.8455 15.1133 27.6326 15.1133Z" fill="black"/>
<path d="M65.2076 18.6777H27.6326C26.8455 18.6777 26.2068 19.3165 26.2068 20.1035C26.2068 20.8905 26.8455 21.5293 27.6326 21.5293H65.2076C65.9946 21.5293 66.6334 20.8905 66.6334 20.1035C66.6334 19.3165 65.9946 18.6777 65.2076 18.6777Z" fill="black"/>
<path d="M65.2076 25.0938H27.6326C26.8455 25.0938 26.2068 25.7325 26.2068 26.5195C26.2068 27.3066 26.8455 27.9453 27.6326 27.9453H65.2076C65.9946 27.9453 66.6334 27.3066 66.6334 26.5195C66.6334 25.7325 65.9946 25.0938 65.2076 25.0938Z" fill="black"/>
<path d="M31.6889 39.3516H27.6326C26.8455 39.3516 26.2068 39.9903 26.2068 40.7773C26.2068 41.5644 26.8455 42.2031 27.6326 42.2031H31.6889C32.4759 42.2031 33.1147 41.5644 33.1147 40.7773C33.1147 39.9903 32.4759 39.3516 31.6889 39.3516Z" fill="black"/>
<path d="M31.6889 45.0547H27.6326C26.8455 45.0547 26.2068 45.6934 26.2068 46.4805C26.2068 47.2675 26.8455 47.9062 27.6326 47.9062H31.6889C32.4759 47.9062 33.1147 47.2675 33.1147 46.4805C33.1147 45.6934 32.4759 45.0547 31.6889 45.0547Z" fill="black"/>
<path d="M46.4201 15.1133C47.2072 15.1133 47.8459 14.4745 47.8459 13.6875C47.8459 12.9005 47.2072 12.2617 46.4201 12.2617H46.4187C45.6317 12.2617 44.9929 12.9005 44.9929 13.6875C44.9929 14.4745 45.6331 15.1133 46.4201 15.1133Z" fill="black"/>
<path d="M11.4556 20.8164C13.4242 20.8164 15.02 19.2205 15.02 17.252C15.02 15.2834 13.4242 13.6875 11.4556 13.6875C9.48697 13.6875 7.89111 15.2834 7.89111 17.252C7.89111 19.2205 9.48697 20.8164 11.4556 20.8164Z" fill="black"/>
<path d="M16.8735 26.6808C16.8735 29.6735 6.0376 29.6735 6.0376 26.6808C6.0376 23.6881 8.46285 21.2628 11.4556 21.2628C14.4483 21.2628 16.8735 23.6881 16.8735 26.6808Z" fill="black"/>
</g>
<defs>
<clipPath id="clip0">
<rect width="73" height="73" fill="white" transform="translate(0.762207)"/>
</clipPath>
</defs>
</svg>
