<svg width="60" height="73" viewBox="0 0 60 73" fill="none" xmlns="http://www.w3.org/2000/svg">
<path d="M30.0412 73C39.9156 73 47.9205 64.9952 47.9205 55.1208C47.9205 45.2463 39.9156 37.2415 30.0412 37.2415C20.1667 37.2415 12.1619 45.2463 12.1619 55.1208C12.1619 64.9952 20.1667 73 30.0412 73Z" fill="black"/>
<path d="M30.0412 69.8918C38.1991 69.8918 44.8123 63.2786 44.8123 55.1207C44.8123 46.9629 38.1991 40.3496 30.0412 40.3496C21.8834 40.3496 15.2701 46.9629 15.2701 55.1207C15.2701 63.2786 21.8834 69.8918 30.0412 69.8918Z" fill="#C1C1C1"/>
<path fill-rule="evenodd" clip-rule="evenodd" d="M18.2928 34.1189V1.42578H1.42578V27.375L18.2928 34.1189Z" fill="#7500B2"/>
<path fill-rule="evenodd" clip-rule="evenodd" d="M18.2927 1.42578V34.1189L29.9414 38.7812L41.6042 34.1189V1.42578H29.9414H18.2927Z" fill="white"/>
<path fill-rule="evenodd" clip-rule="evenodd" d="M41.6042 1.42578V34.1189L58.457 27.375V1.42578H41.6042Z" fill="#7500B2"/>
<path d="M32.1799 39.4229L58.9846 28.701C59.5264 28.4871 59.8828 27.9596 59.8828 27.375V1.42578C59.8828 0.641602 59.2412 0 58.457 0H1.42578C0.641602 0 0 0.641602 0 1.42578V27.375C0 27.9596 0.356445 28.4871 0.898242 28.701L27.7029 39.4229H32.1799ZM2.85156 2.85156H16.867V11.3635C16.867 12.1477 17.5086 12.7893 18.2928 12.7893C19.077 12.7893 19.7186 12.1477 19.7186 11.3635V2.85156H40.1785V33.1494L29.9414 37.2414L19.7043 33.1494V24.1813C19.7043 23.3971 19.0627 22.7555 18.2785 22.7555C17.4943 22.7555 16.8527 23.3971 16.8527 24.1813V32.0088L2.85156 26.4055V2.85156ZM57.0312 26.4055L43.0158 32.0088V2.85156H57.0312V26.4055Z" fill="black"/>
<path d="M18.2927 19.1909C19.0769 19.1909 19.7185 18.5493 19.7185 17.7651C19.7185 16.981 19.0769 16.3394 18.2927 16.3394C17.5085 16.3394 16.8669 16.981 16.8669 17.7651C16.8669 18.5636 17.4943 19.1909 18.2927 19.1909Z" fill="black"/>
<path d="M29.3984 28.7148C27.1953 28.7148 25.3281 28.0547 23.7969 26.7344C22.1719 25.3281 21.3594 23.5156 21.3594 21.2969C21.3594 18.5938 22.1602 16.1367 23.7617 13.9258C25.5508 11.4727 27.7812 10.2461 30.4531 10.2461C33.0234 10.2461 34.9336 10.8242 36.1836 11.9805C37.4883 13.1836 38.1406 15.082 38.1406 17.6758C38.1406 20.3789 37.4062 22.8164 35.9375 24.9883C34.25 27.4727 32.0703 28.7148 29.3984 28.7148ZM30.4531 12.6484C28.5391 12.6484 26.918 13.6016 25.5898 15.5078C24.3633 17.2578 23.75 19.1875 23.75 21.2969C23.75 22.8047 24.3086 24.0312 25.4258 24.9766C26.4961 25.8672 27.8203 26.3125 29.3984 26.3125C31.2969 26.3125 32.8633 25.3555 34.0977 23.4414C35.1992 21.7305 35.75 19.8086 35.75 17.6758C35.75 15.8086 35.332 14.4961 34.4961 13.7383C33.6992 13.0117 32.3516 12.6484 30.4531 12.6484Z" fill="black"/>
</svg>
