<svg width="73" height="73" viewBox="0 0 73 73" fill="none" xmlns="http://www.w3.org/2000/svg">
<g clip-path="url(#clip0)">
<path fill-rule="evenodd" clip-rule="evenodd" d="M38.7699 24.452L37.3954 21.9227C37.3027 21.753 37.163 21.6076 36.9791 21.5106C36.4829 21.2454 35.8641 21.4336 35.6003 21.9298L34.2729 24.4221L31.4727 24.9425C31.2702 24.9724 31.0763 25.0637 30.9181 25.2162C30.5117 25.6069 30.4989 26.2528 30.8896 26.6591L32.85 28.6937L32.485 31.4768C32.4408 31.6907 32.465 31.9188 32.5677 32.1299C32.8144 32.6374 33.4275 32.8484 33.935 32.6018L36.4729 31.3671L39.0735 32.6061C39.2475 32.6888 39.4485 32.723 39.6538 32.6945C40.2127 32.6175 40.602 32.1013 40.525 31.5439L40.1343 28.7465L42.0748 26.7005C42.2317 26.5536 42.3443 26.3569 42.3842 26.1287C42.4812 25.5727 42.109 25.0423 41.553 24.9453L38.7699 24.452Z" fill="#FFC144"/>
<path fill-rule="evenodd" clip-rule="evenodd" d="M42.072 26.699L40.1315 28.745L40.5221 31.5424C40.5991 32.1013 40.2085 32.616 39.651 32.693C39.4457 32.7215 39.2446 32.6887 39.0707 32.6046L36.4701 31.3656L33.9322 32.6003C33.4246 32.847 32.8129 32.636 32.5648 32.1284C32.4622 31.9174 32.438 31.6878 32.4821 31.4754L32.8471 28.6923L30.8867 26.6577C30.496 26.2513 30.5089 25.6054 30.9152 25.2148C31.0735 25.0622 31.2688 24.971 31.4698 24.941L34.2701 24.4206L35.5975 21.9284C35.8627 21.4322 36.48 21.244 36.9762 21.5092C37.1587 21.6061 37.2999 21.7516 37.3925 21.9212L38.767 24.4506L41.5473 24.9425C42.1033 25.0394 42.4755 25.5698 42.3785 26.1259C42.3414 26.3554 42.2288 26.5536 42.072 26.699ZM36.5 39.2031C42.7991 39.2031 47.9062 34.096 47.9062 27.7969C47.9062 21.4978 42.7991 16.3906 36.5 16.3906C30.2009 16.3906 25.0938 21.4978 25.0938 27.7969C25.0938 34.096 30.2009 39.2031 36.5 39.2031Z" fill="#C1C1C1"/>
<path fill-rule="evenodd" clip-rule="evenodd" d="M60.4146 42.0547H12.5853V47.7578V50.6094H17.3674H55.6311H60.4132V47.7578L60.4146 42.0547Z" fill="#FF5A58"/>
<path fill-rule="evenodd" clip-rule="evenodd" d="M60.4146 47.7578V50.6094H55.6326V56.3125H71.5742L68.3862 52.0352L71.5742 47.7578H60.4146Z" fill="#FF5A58"/>
<path fill-rule="evenodd" clip-rule="evenodd" d="M17.3689 56.3125V50.6094H12.5854V47.7578H1.42578L4.61383 52.0352L1.42578 56.3125H17.3689Z" fill="#FF5A58"/>
<path fill-rule="evenodd" clip-rule="evenodd" d="M27.0414 42.0547H45.9601V42.0533C50.7379 38.8823 53.6094 33.5299 53.6094 27.7969C53.6094 26.3198 53.4226 24.8869 53.0704 23.5195C52.4588 21.1413 51.3481 18.9627 49.8567 17.1035C46.7214 13.1926 41.9037 10.6875 36.5 10.6875C31.0963 10.6875 26.2786 13.1926 23.1433 17.1035C21.6519 18.9627 20.5412 21.1413 19.9296 23.5195C19.5774 24.8869 19.3906 26.3198 19.3906 27.7969C19.3906 33.5314 22.2621 38.8838 27.0414 42.0547ZM36.5 39.2031C30.2009 39.2031 25.0938 34.096 25.0938 27.7969C25.0938 21.4978 30.2009 16.3906 36.5 16.3906C42.7991 16.3906 47.9062 21.4978 47.9062 27.7969C47.9062 34.096 42.7991 39.2031 36.5 39.2031Z" fill="#EAEAEA" stroke="black" stroke-miterlimit="10"/>
<path fill-rule="evenodd" clip-rule="evenodd" d="M7.8418 23.5195H19.9296C20.5412 21.1413 21.6519 18.9627 23.1433 17.1035H1.42578C1.42578 20.6323 4.31299 23.5195 7.8418 23.5195Z" fill="#FFDA8F"/>
<path fill-rule="evenodd" clip-rule="evenodd" d="M49.8568 17.1035C51.3482 18.9627 52.4589 21.1413 53.0705 23.5195H65.1583C68.6871 23.5195 71.5743 20.6323 71.5743 17.1035H49.8568Z" fill="#FFDA8F"/>
<path fill-rule="evenodd" clip-rule="evenodd" d="M19.3906 27.7969C19.3906 26.3198 19.5774 24.8869 19.9296 23.5195H7.8418C7.8418 27.0483 10.729 29.9355 14.2578 29.9355H19.5246C19.4362 29.2312 19.3906 28.5169 19.3906 27.7969Z" fill="#FFDA8F"/>
<path fill-rule="evenodd" clip-rule="evenodd" d="M19.5246 29.9355H14.2578C14.2578 33.4644 17.145 36.3516 20.6738 36.3516H21.6833C20.5526 34.394 19.8112 32.2139 19.5246 29.9355Z" fill="#FFDA8F"/>
<path fill-rule="evenodd" clip-rule="evenodd" d="M53.4753 29.9355C53.1887 32.2154 52.4473 34.394 51.3167 36.3516H52.3261C55.8549 36.3516 58.7421 33.4644 58.7421 29.9355H53.4753Z" fill="#FFDA8F"/>
<path fill-rule="evenodd" clip-rule="evenodd" d="M53.4754 29.9355H58.7422C62.271 29.9355 65.1582 27.0483 65.1582 23.5195H53.0704C53.4226 24.8869 53.6094 26.3198 53.6094 27.7969C53.6094 28.5169 53.5638 29.2312 53.4754 29.9355Z" fill="#FFDA8F"/>
<path d="M72.8488 47.1191C72.6064 46.6371 72.1145 46.332 71.5741 46.332H61.8403V42.0547C61.8403 41.2677 61.2016 40.6289 60.4146 40.6289H49.8795C50.7235 39.7506 51.472 38.7939 52.1222 37.7773H52.3261C56.2014 37.7773 59.4308 34.9514 60.0581 31.2515C63.3303 30.6969 65.9195 28.1077 66.4741 24.8355C70.174 24.2068 72.9999 20.9788 72.9999 17.1035C72.9999 16.3165 72.3612 15.6777 71.5741 15.6777H50.5125C47.1106 11.7511 42.0904 9.26172 36.4999 9.26172C30.9094 9.26172 25.8878 11.7497 22.4873 15.6777H1.4257C0.638668 15.6777 -8.22553e-05 16.3165 -8.22553e-05 17.1035C-8.22553e-05 20.9788 2.82582 24.2068 6.52572 24.8355C7.08035 28.1077 9.66957 30.6969 12.9417 31.2515C13.5691 34.95 16.797 37.7773 20.6737 37.7773H20.8791C21.5292 38.7939 22.2792 39.7506 23.1218 40.6289H12.5853C11.7983 40.6289 11.1595 41.2677 11.1595 42.0547V46.332H1.4257C0.886754 46.332 0.393433 46.6357 0.151051 47.1191C-0.0913323 47.6024 -0.0400041 48.1784 0.282222 48.6104L2.8358 52.0352L0.282222 55.4599C-0.0400041 55.8919 -0.0913323 56.4693 0.151051 56.9513C0.393433 57.4332 0.886754 57.7383 1.4257 57.7383H17.3674C18.1544 57.7383 18.7931 57.0995 18.7931 56.3125V52.0352H30.0839C30.8709 52.0352 31.5097 51.3964 31.5097 50.6094C31.5097 49.8223 30.8709 49.1836 30.0839 49.1836H14.0111V43.4805H58.9873V49.1836H42.9159C42.1289 49.1836 41.4902 49.8223 41.4902 50.6094C41.4902 51.3964 42.1289 52.0352 42.9159 52.0352H54.2053V56.3125C54.2053 57.0995 54.844 57.7383 55.6311 57.7383H71.5741C72.1131 57.7383 72.6064 57.4346 72.8488 56.9513C73.0912 56.4693 73.0398 55.8919 72.7176 55.4599L70.164 52.0352L72.7176 48.6104C73.0398 48.177 73.0912 47.601 72.8488 47.1191ZM15.9416 52.0352V54.8867H4.26728L5.75722 52.8878C6.13363 52.3816 6.13363 51.6887 5.75722 51.184L4.26728 49.1836H11.1609V50.6094C11.1609 51.3964 11.7997 52.0352 12.5867 52.0352H15.9416ZM53.6891 34.7347C54.1269 33.6497 54.4619 32.5205 54.6886 31.3613H57.1067C56.622 32.9881 55.3259 34.2699 53.6891 34.7347ZM58.7421 28.5098H55.0194C55.028 28.2731 55.0351 28.035 55.0351 27.7969C55.0351 26.8273 54.9595 25.8749 54.8155 24.9453H63.5242C62.9082 27.0041 60.9991 28.5098 58.7421 28.5098ZM69.9416 18.5293C69.3271 20.5881 67.4151 22.0938 65.1596 22.0938H54.1368C53.7305 20.8419 53.1972 19.6485 52.5471 18.5293H69.9416ZM3.05822 18.5293H20.4528C19.804 19.6485 19.2694 20.8419 18.863 22.0938H7.84172C5.5847 22.0938 3.67416 20.5881 3.05822 18.5293ZM9.47566 24.9453H18.1843C18.0403 25.8749 17.9648 26.8273 17.9648 27.7969C17.9648 28.035 17.9705 28.2731 17.9804 28.5098H14.2577C12.0007 28.5098 10.0916 27.0041 9.47566 24.9453ZM15.8917 31.3613H18.3098C18.5365 32.5205 18.8716 33.6497 19.3093 34.7347C17.6739 34.2685 16.3779 32.9881 15.8917 31.3613ZM20.8163 27.7969C20.8163 19.1495 27.8526 12.1133 36.4999 12.1133C45.1473 12.1133 52.1835 19.1495 52.1835 27.7969C52.1835 32.9226 49.697 37.6918 45.5151 40.6289H36.5113C43.5818 40.6232 49.332 34.8687 49.332 27.7969C49.332 20.7207 43.5761 14.9648 36.4999 14.9648C29.4238 14.9648 23.6679 20.7207 23.6679 27.7969C23.6679 34.8687 29.4181 40.6232 36.4885 40.6289H27.4847C23.3029 37.6918 20.8163 32.9226 20.8163 27.7969ZM36.4999 37.7773C30.9964 37.7773 26.5195 33.3004 26.5195 27.7969C26.5195 22.2934 30.9964 17.8164 36.4999 17.8164C42.0034 17.8164 46.4804 22.2934 46.4804 27.7969C46.4804 33.3004 42.0034 37.7773 36.4999 37.7773ZM67.2426 52.8878L68.7326 54.8867H57.0568V52.0352H60.4131C61.2002 52.0352 61.8389 51.3964 61.8389 50.6094V49.1836H68.7326L67.2426 51.1825C66.8662 51.6887 66.8662 52.3816 67.2426 52.8878Z" fill="black"/>
<path d="M41.7981 23.541L39.6937 23.1688L38.6457 21.2426C38.6457 21.2426 38.6457 21.2412 38.6443 21.2412C38.4148 20.8206 38.0711 20.4784 37.6477 20.2531C37.0717 19.9466 36.4101 19.881 35.7856 20.072C35.1611 20.2617 34.6478 20.6837 34.3399 21.2611L33.3347 23.1474L31.2288 23.5381C30.7369 23.618 30.2878 23.8432 29.9271 24.1897C29.4566 24.6431 29.19 25.2519 29.1771 25.9049C29.1643 26.5579 29.4067 27.1781 29.8615 27.6501L31.3457 29.1899L31.0748 31.253C30.985 31.7606 31.0577 32.2924 31.2844 32.7558C31.571 33.3446 32.0686 33.7852 32.6874 33.9991C32.9497 34.0889 33.2192 34.1345 33.4873 34.1345C33.8537 34.1345 34.2187 34.0518 34.5566 33.8864L36.4771 32.9525L38.4575 33.895C38.8881 34.1017 39.37 34.1744 39.8462 34.1089C40.4935 34.019 41.0681 33.6825 41.4616 33.1621C41.8552 32.6417 42.0234 31.9973 41.9336 31.3485L41.637 29.2313L43.0799 27.7085C43.4506 27.3478 43.693 26.8887 43.7828 26.3754C44.0181 25.0437 43.1255 23.7719 41.7981 23.541ZM39.0977 27.7641C38.7997 28.0792 38.66 28.5127 38.7199 28.9418L39.0064 30.9949L37.0831 30.0782C36.8892 29.9855 36.6796 29.9399 36.47 29.9399C36.2561 29.9399 36.0437 29.9883 35.8455 30.0839L33.9849 30.9892L34.2615 28.8777C34.3185 28.4471 34.1759 28.0151 33.8736 27.7028L32.4365 26.2115L34.5309 25.8222C34.9572 25.7424 35.3251 25.4743 35.529 25.0908L36.5014 23.2658L37.5151 25.1321C37.7218 25.5128 38.0925 25.7794 38.5188 25.855L40.562 26.2172L39.0977 27.7641Z" fill="black"/>
<path d="M36.5014 49.1836C35.7129 49.1836 35.0756 49.8223 35.0756 50.6094C35.0756 51.3964 35.7143 52.0352 36.5014 52.0352C37.2884 52.0352 37.9271 51.3964 37.9271 50.6094C37.9271 49.8223 37.2884 49.1836 36.5014 49.1836Z" fill="black"/>
</g>
<defs>
<clipPath id="clip0">
<rect width="73" height="73" fill="white"/>
</clipPath>
</defs>
</svg>
