<svg width="73" height="67" viewBox="0 0 73 67" fill="none" xmlns="http://www.w3.org/2000/svg">
<path fill-rule="evenodd" clip-rule="evenodd" d="M41.5601 12.3799L44.2634 9.52975C44.4815 9.32586 44.6384 9.05069 44.694 8.73416C44.8294 7.95854 44.3104 7.22141 43.5362 7.08596L39.6624 6.40016L37.7461 2.8742C37.6178 2.63895 37.421 2.43649 37.1673 2.30104C36.4758 1.93176 35.6146 2.19411 35.2453 2.88561L33.3961 6.35739L29.4937 7.08311C29.2128 7.12588 28.9419 7.25278 28.7209 7.46379C28.1549 8.00844 28.1378 8.90811 28.6824 9.47414L31.4142 12.3072L30.9052 16.1853C30.8439 16.4819 30.8767 16.8012 31.0193 17.0949C31.3643 17.8021 32.2169 18.0958 32.9241 17.7522L36.4586 16.0313L40.083 17.7579C40.3254 17.8734 40.6048 17.9205 40.89 17.8805C41.6685 17.7736 42.2117 17.055 42.1047 16.2765L41.5601 12.3799Z" fill="#FFA300"/>
<path fill-rule="evenodd" clip-rule="evenodd" d="M18.3968 13.5518C18.6292 12.9501 18.3298 12.2729 17.7281 12.0405L14.1879 10.6646L12.8121 7.1244C12.698 6.82783 12.4627 6.57975 12.1434 6.4557C11.5417 6.2233 10.8644 6.52272 10.632 7.1244L9.25616 10.6646L5.71595 12.0405C5.41939 12.1545 5.1713 12.3898 5.04726 12.7092C4.81485 13.3109 5.11427 13.9881 5.71595 14.2205L9.25616 15.5964L10.632 19.1366C10.7461 19.4332 10.9814 19.6812 11.3007 19.8053C11.9024 20.0377 12.5797 19.7383 12.8121 19.1366L14.1879 15.5964L17.7281 14.2205C18.0247 14.1064 18.2742 13.8712 18.3968 13.5518Z" fill="#FF764E"/>
<path fill-rule="evenodd" clip-rule="evenodd" d="M55.2704 12.0405C54.6687 12.2729 54.3693 12.9501 54.6017 13.5518C54.7257 13.8712 54.9738 14.1064 55.2704 14.2205L58.8106 15.5964L60.1865 19.1366C60.4189 19.7383 61.0961 20.0377 61.6978 19.8053C62.0172 19.6812 62.2524 19.4332 62.3665 19.1366L63.7424 15.5964L67.2826 14.2205C67.8843 13.9881 68.1837 13.3109 67.9513 12.7092C67.8273 12.3898 67.5792 12.1545 67.2826 12.0405L63.7424 10.6646L62.3665 7.1244C62.1341 6.52272 61.4569 6.2233 60.8552 6.4557C60.5358 6.57975 60.3006 6.82783 60.1865 7.1244L58.8106 10.6646L55.2704 12.0405Z" fill="#FF764E"/>
<path fill-rule="evenodd" clip-rule="evenodd" d="M69.7677 27.8453L55.0337 36.3515V42.26V42.9372L70.1484 34.21C71.5072 33.4258 71.9762 31.6736 71.1921 30.3148L69.7677 27.8453Z" fill="#00B7B7"/>
<path fill-rule="evenodd" clip-rule="evenodd" d="M17.9649 36.3515L3.23227 27.8453L1.80648 30.3148C1.0223 31.6736 1.49139 33.4258 2.85016 34.21L17.9649 42.9358V36.3515Z" fill="#00FFFF"/>
<path fill-rule="evenodd" clip-rule="evenodd" d="M17.9648 36.3516V42.9372V45.1116L26.7248 36.3516H17.9648Z" fill="#00B7B7"/>
<path fill-rule="evenodd" clip-rule="evenodd" d="M26.7248 36.3516L17.9648 45.1101V56.5164L38.1311 36.3516H26.7248Z" fill="#00FFFF"/>
<path fill-rule="evenodd" clip-rule="evenodd" d="M38.1311 36.3516L17.9648 56.5164V62.0142C17.9648 63.5826 19.248 64.8658 20.8164 64.8658H21.0217L49.5359 36.3516H38.1311Z" fill="#00B7B7"/>
<path fill-rule="evenodd" clip-rule="evenodd" d="M49.5359 36.3516L21.0217 64.8658H32.428L55.0352 42.2586V36.3516H49.5359Z" fill="#00FFFF"/>
<path fill-rule="evenodd" clip-rule="evenodd" d="M55.0337 42.2587L32.428 64.8659H43.8342L55.0352 53.6649V42.9359L55.0337 42.2587Z" fill="#00B7B7"/>
<path fill-rule="evenodd" clip-rule="evenodd" d="M55.0337 53.6649L43.8328 64.8659H52.1836C53.7519 64.8659 55.0351 63.5827 55.0351 62.0143L55.0337 53.6649Z" fill="#00FFFF"/>
<path d="M72.4283 29.6018L71.0026 27.1324C70.8129 26.8045 70.5021 26.5663 70.1371 26.468C69.7721 26.3696 69.3829 26.4209 69.0549 26.6105L54.6531 34.9257H18.347L3.94522 26.6105C3.61729 26.4209 3.22948 26.371 2.86305 26.468C2.49805 26.5663 2.18581 26.8045 1.9976 27.1324L0.571821 29.6018C-0.6073 31.645 0.0941842 34.2656 2.13733 35.4447L16.5391 43.7598V62.0141C16.5391 64.3724 18.4582 66.2915 20.8165 66.2915H52.1837C54.5419 66.2915 56.461 64.3724 56.461 62.0141V43.7598L70.8628 35.4447C71.8495 34.8744 72.5567 33.9519 72.8518 32.8469C73.1484 31.7405 72.9972 30.5885 72.4283 29.6018ZM35.8699 63.4399L53.6095 45.7003V53.073L43.244 63.4385H35.8699V63.4399ZM53.6095 41.6682L31.8378 63.4399H24.4651L50.1277 37.7773H53.6095V41.6682ZM23.2831 37.7773L19.3907 41.6682V37.7773H23.2831ZM3.56311 32.9752C3.23661 32.787 3.00135 32.4791 2.90297 32.1084C2.80459 31.7391 2.85307 31.3541 3.0427 31.0276L3.75559 29.7929L16.5391 37.1742V40.4663L3.56311 32.9752ZM19.3907 57.1066L24.5192 51.978C25.0753 51.422 25.0753 50.518 24.5192 49.962C23.9632 49.4045 23.0592 49.4059 22.5032 49.962L19.3907 53.0745V45.7018L27.3152 37.7773H34.6879L31.5754 40.8897C31.0194 41.4458 31.0194 42.3497 31.5754 42.9058C31.8535 43.1838 32.2185 43.3236 32.5835 43.3236C32.9485 43.3236 33.3135 43.1838 33.5915 42.9058L38.7214 37.7773H46.0942L20.4743 63.3971C19.8527 63.2431 19.3907 62.6828 19.3907 62.0141V57.1066ZM52.1837 63.4399H47.2761L53.6095 57.1066V62.0141C53.6095 62.7997 52.9693 63.4399 52.1837 63.4399ZM70.0972 32.1084C69.9988 32.4776 69.7636 32.7856 69.4371 32.9752L56.461 40.4677V37.1756L69.246 29.7929L69.9589 31.0276C70.1471 31.3541 70.197 31.7377 70.0972 32.1084Z" fill="black"/>
<path d="M29.9115 12.8033L29.4981 15.9586C29.3869 16.5602 29.4696 17.169 29.739 17.7208C30.2323 18.7331 31.2489 19.3234 32.3069 19.3234C32.7246 19.3234 33.1495 19.2307 33.5501 19.0354L36.4673 17.6153L39.47 19.0454C39.9718 19.2849 40.5308 19.3704 41.0868 19.2935C42.6423 19.0782 43.7331 17.6381 43.5178 16.0797L43.0686 12.8618L45.2743 10.5363C45.7106 10.1157 45.9958 9.57818 46.0999 8.97793C46.231 8.22796 46.0614 7.4723 45.6236 6.84923C45.1859 6.22617 44.5315 5.81127 43.7858 5.68009L40.5878 5.11406L38.9995 2.19263C38.9995 2.19263 38.9995 2.19263 38.9995 2.19121C38.7328 1.70216 38.3322 1.30437 37.8389 1.04203C36.4545 0.303472 34.7264 0.829585 33.9879 2.21402L32.4608 5.07984L29.2543 5.67582C28.6797 5.76849 28.1536 6.03084 27.733 6.43433C27.1855 6.96187 26.8746 7.67048 26.8604 8.43185C26.8461 9.19179 27.1284 9.91324 27.656 10.4622L29.9115 12.8033ZM29.7547 8.48461L33.6571 7.75888C34.0834 7.67904 34.4512 7.41099 34.6551 7.02746L36.4972 3.55996L38.4106 7.07878C38.6174 7.45947 38.9866 7.72609 39.4144 7.80166L43.2911 8.48603C43.2697 8.50599 43.2497 8.52595 43.2298 8.54734L40.5265 11.3975C40.2285 11.7126 40.0888 12.146 40.1486 12.5752L40.6961 16.4704L37.0718 14.7438C36.6797 14.557 36.2249 14.5584 35.8342 14.7495L32.2997 16.4718C32.3069 16.4376 32.3126 16.4034 32.3168 16.3692L32.8258 12.4911C32.8829 12.0605 32.7403 11.6285 32.438 11.3162L29.7034 8.49031C29.7219 8.49031 29.739 8.48746 29.7547 8.48461Z" fill="black"/>
<path d="M35.1514 23.1844V29.7929C35.1514 30.58 35.7901 31.2187 36.5772 31.2187C37.3642 31.2187 38.0029 30.58 38.0029 29.7929V23.1844C38.0029 22.3974 37.3642 21.7587 36.5772 21.7587C35.7901 21.7587 35.1514 22.3974 35.1514 23.1844Z" fill="black"/>
<path d="M17.8937 18.8715C17.5002 19.553 17.734 20.4256 18.4156 20.8191C21.4468 22.57 23.4315 26.796 23.5983 29.87C23.6396 30.6299 24.2684 31.2188 25.0212 31.2188C25.0469 31.2188 25.074 31.2173 25.0996 31.2173C25.8852 31.1746 26.4883 30.503 26.4456 29.716C26.2345 25.8421 23.8991 20.6936 19.8413 18.3497C19.1584 17.9561 18.2872 18.19 17.8937 18.8715Z" fill="black"/>
<path d="M5.20281 15.5493L8.15703 16.6971L9.30479 19.6499C9.56856 20.33 10.1089 20.8703 10.789 21.1341C11.0956 21.2524 11.4107 21.308 11.7215 21.308C12.7623 21.308 13.7461 20.6778 14.1425 19.6513L15.2902 16.6971L18.243 15.5493C18.9231 15.2855 19.4635 14.7452 19.7273 14.0651C19.9768 13.4192 19.9597 12.7134 19.6802 12.0804C19.3993 11.4473 18.8889 10.9597 18.2459 10.7116L15.2916 9.56388L14.1439 6.61108C13.8801 5.93098 13.3398 5.39061 12.6597 5.12684C11.3251 4.61071 9.8195 5.27655 9.30479 6.60965L8.15703 9.56388L5.20424 10.7102C4.52414 10.974 3.98377 11.5143 3.72 12.1944C3.47049 12.8403 3.4876 13.5461 3.76705 14.1791C4.04793 14.8136 4.55836 15.2998 5.20281 15.5493ZM9.7753 11.9948C10.1474 11.8494 10.4426 11.5557 10.588 11.1821L11.7243 8.25786L12.8607 11.1821C13.0061 11.5543 13.2998 11.8494 13.6734 11.9948L16.5977 13.1312L13.6734 14.2661C13.3013 14.4115 13.0061 14.7052 12.8607 15.0788L11.7243 18.0031L10.588 15.0788C10.4426 14.7067 10.1488 14.4115 9.7753 14.2661L6.85102 13.1298L9.7753 11.9948Z" fill="black"/>
<path d="M47.9006 31.2159C47.9262 31.2173 47.9533 31.2173 47.979 31.2173C48.7304 31.2173 49.3606 30.6284 49.4019 29.8685C49.5687 26.7945 51.5534 22.5685 54.5846 20.8176C55.2662 20.4241 55.5 19.5515 55.1065 18.87C54.713 18.1885 53.8404 17.9547 53.1589 18.3482C49.1011 20.6907 46.7642 25.8392 46.5546 29.7145C46.5119 30.5015 47.115 31.1731 47.9006 31.2159Z" fill="black"/>
<path d="M54.7543 15.5493L57.7085 16.697L58.8549 19.6498C59.2527 20.6778 60.2365 21.3094 61.2773 21.3094C61.5881 21.3094 61.9032 21.2538 62.2097 21.1355C62.8898 20.8731 63.4302 20.3313 63.6925 19.6541L64.8403 16.6999L67.7931 15.5536C69.1276 15.0374 69.7935 13.5332 69.2773 12.1987C69.015 11.5186 68.4732 10.9782 67.7959 10.7159L64.8417 9.56813L63.6954 6.61533C63.1793 5.2808 61.6751 4.61496 60.3405 5.1311C59.6604 5.39344 59.1201 5.93381 58.8577 6.61391L57.71 9.56813L54.7572 10.7145C53.4226 11.2306 52.7568 12.7348 53.2729 14.0693C53.5353 14.7466 54.0757 15.2869 54.7543 15.5493ZM59.3268 11.9948C59.6989 11.8494 59.9941 11.5557 60.1395 11.1821L61.2758 8.25783L62.4122 11.1821C62.5576 11.5542 62.8513 11.8494 63.2249 11.9948L66.1492 13.1312L63.2249 14.2675C62.8528 14.4129 62.5576 14.7066 62.4122 15.0802L61.2758 18.0045L60.1395 15.0802C59.9941 14.7081 59.7004 14.4129 59.3268 14.2675L56.4025 13.1312L59.3268 11.9948Z" fill="black"/>
<path d="M28.0495 47.859C28.8366 47.859 29.4753 47.2203 29.4753 46.4332C29.4753 45.6462 28.8366 45.0074 28.0495 45.0074H28.0481C27.2611 45.0074 26.6223 45.6462 26.6223 46.4332C26.6237 47.2217 27.2611 47.859 28.0495 47.859Z" fill="black"/>
</svg>
