<svg width="60" height="73" viewBox="0 0 60 73" fill="none" xmlns="http://www.w3.org/2000/svg">
<path d="M30.0412 73C39.9156 73 47.9205 64.9952 47.9205 55.1208C47.9205 45.2463 39.9156 37.2415 30.0412 37.2415C20.1667 37.2415 12.1619 45.2463 12.1619 55.1208C12.1619 64.9952 20.1667 73 30.0412 73Z" fill="black"/>
<path d="M30.0412 69.8918C38.1991 69.8918 44.8123 63.2786 44.8123 55.1207C44.8123 46.9629 38.1991 40.3496 30.0412 40.3496C21.8834 40.3496 15.2701 46.9629 15.2701 55.1207C15.2701 63.2786 21.8834 69.8918 30.0412 69.8918Z" fill="#C1C1C1"/>
<path fill-rule="evenodd" clip-rule="evenodd" d="M18.2928 34.1189V1.42578H1.42578V27.375L18.2928 34.1189Z" fill="#CA006D"/>
<path fill-rule="evenodd" clip-rule="evenodd" d="M18.2927 1.42578V34.1189L29.9414 38.7812L41.6042 34.1189V1.42578H29.9414H18.2927Z" fill="white"/>
<path fill-rule="evenodd" clip-rule="evenodd" d="M41.6042 1.42578V34.1189L58.457 27.375V1.42578H41.6042Z" fill="#CA006D"/>
<path d="M32.1799 39.4229L58.9846 28.701C59.5264 28.4871 59.8828 27.9596 59.8828 27.375V1.42578C59.8828 0.641602 59.2412 0 58.457 0H1.42578C0.641602 0 0 0.641602 0 1.42578V27.375C0 27.9596 0.356445 28.4871 0.898242 28.701L27.7029 39.4229H32.1799ZM2.85156 2.85156H16.867V11.3635C16.867 12.1477 17.5086 12.7893 18.2928 12.7893C19.077 12.7893 19.7186 12.1477 19.7186 11.3635V2.85156H40.1785V33.1494L29.9414 37.2414L19.7043 33.1494V24.1813C19.7043 23.3971 19.0627 22.7555 18.2785 22.7555C17.4943 22.7555 16.8527 23.3971 16.8527 24.1813V32.0088L2.85156 26.4055V2.85156ZM57.0312 26.4055L43.0158 32.0088V2.85156H57.0312V26.4055Z" fill="black"/>
<path d="M18.2927 19.1909C19.0769 19.1909 19.7185 18.5493 19.7185 17.7651C19.7185 16.981 19.0769 16.3394 18.2927 16.3394C17.5085 16.3394 16.8669 16.981 16.8669 17.7651C16.8669 18.5636 17.4943 19.1909 18.2927 19.1909Z" fill="black"/>
<path d="M34.6992 19.4648C34.6992 19.7539 34.6016 20.0078 34.4062 20.2266C34.2188 20.4375 33.9805 20.543 33.6914 20.543C33.5977 20.543 33.457 20.5273 33.2695 20.4961C33.082 20.4648 32.9375 20.4492 32.8359 20.4492L31.6641 20.4727C31.1875 20.4883 30.7969 20.4883 30.4922 20.4727V23.2266C30.4922 23.9297 30.1445 24.2812 29.4492 24.2812C29.1055 24.2812 28.8438 24.1953 28.6641 24.0234C28.4922 23.8438 28.4062 23.5781 28.4062 23.2266L28.3945 21.8789L28.3828 20.5195C27.4375 20.5742 26.7695 20.6016 26.3789 20.6016C25.168 20.6016 24.5625 20.2422 24.5625 19.5234C24.5625 19.0156 24.7773 18.6992 25.207 18.5742C25.3555 18.5352 25.7461 18.5156 26.3789 18.5156C26.7695 18.5156 27.4375 18.4883 28.3828 18.4336L28.3711 17.0625C28.3711 16.3516 28.4062 15.8594 28.4766 15.5859C28.5547 15.3047 28.6758 15.0938 28.8398 14.9531C29.0039 14.8125 29.2148 14.7422 29.4727 14.7422C29.7695 14.7422 30.0195 14.8398 30.2227 15.0352C30.4336 15.2227 30.5391 15.4648 30.5391 15.7617C30.5391 15.8945 30.5234 16.1055 30.4922 16.3945C30.4688 16.6836 30.457 16.9023 30.457 17.0508L30.4688 18.3867L31.3477 18.4219C31.5039 18.4219 31.7422 18.4141 32.0625 18.3984C32.3828 18.375 32.6211 18.3633 32.7773 18.3633C34.0586 18.3633 34.6992 18.7305 34.6992 19.4648Z" fill="black"/>
</svg>
