<svg width="67" height="73" viewBox="0 0 67 73" fill="none" xmlns="http://www.w3.org/2000/svg">
<path fill-rule="evenodd" clip-rule="evenodd" d="M39.7905 48.6947L35.978 41.6827C35.7228 41.2136 35.3321 40.8116 34.8259 40.5407C33.4486 39.8064 31.7377 40.3268 31.0034 41.7041L27.3235 48.612L19.5601 50.0549C18.9998 50.139 18.4608 50.3914 18.0217 50.8134C16.8953 51.897 16.8611 53.6878 17.9447 54.8142L23.3798 60.4531L22.3675 68.1709C22.2463 68.7626 22.3104 69.397 22.5956 69.9816C23.2814 71.3889 24.9781 71.9748 26.3853 71.289L33.4187 67.8657L40.6289 71.3005C41.1108 71.5314 41.6668 71.6227 42.2357 71.5443C43.7841 71.3304 44.8663 69.9003 44.651 68.3534L43.5674 60.5971L48.9455 54.9254C49.3803 54.519 49.6926 53.9729 49.8023 53.3413C50.0718 51.7986 49.0396 50.3301 47.4969 50.0606L39.7905 48.6947Z" fill="#FFA300"/>
<path fill-rule="evenodd" clip-rule="evenodd" d="M21.8442 34.1189V1.42578H4.98438V27.375L21.8442 34.1189Z" fill="#FF008A"/>
<path fill-rule="evenodd" clip-rule="evenodd" d="M21.8442 1.42578V34.1189L33.5 38.7812L45.1558 34.1189V1.42578H33.5H21.8442Z" fill="white"/>
<path fill-rule="evenodd" clip-rule="evenodd" d="M45.1558 1.42578V34.1189L62.0156 27.375V1.42578H45.1558Z" fill="#FF008A"/>
<path d="M39.1367 18.7227C39.1367 19.0117 39.0391 19.2656 38.8438 19.4844C38.6562 19.6953 38.418 19.8008 38.1289 19.8008C38.0352 19.8008 37.8945 19.7852 37.707 19.7539C37.5195 19.7227 37.375 19.707 37.2734 19.707L36.1016 19.7305C35.625 19.7461 35.2344 19.7461 34.9297 19.7305V22.4844C34.9297 23.1875 34.582 23.5391 33.8867 23.5391C33.543 23.5391 33.2812 23.4531 33.1016 23.2812C32.9297 23.1016 32.8438 22.8359 32.8438 22.4844L32.832 21.1367L32.8203 19.7773C31.875 19.832 31.207 19.8594 30.8164 19.8594C29.6055 19.8594 29 19.5 29 18.7812C29 18.2734 29.2148 17.957 29.6445 17.832C29.793 17.793 30.1836 17.7734 30.8164 17.7734C31.207 17.7734 31.875 17.7461 32.8203 17.6914L32.8086 16.3203C32.8086 15.6094 32.8438 15.1172 32.9141 14.8438C32.9922 14.5625 33.1133 14.3516 33.2773 14.2109C33.4414 14.0703 33.6523 14 33.9102 14C34.207 14 34.457 14.0977 34.6602 14.293C34.8711 14.4805 34.9766 14.7227 34.9766 15.0195C34.9766 15.1523 34.9609 15.3633 34.9297 15.6523C34.9062 15.9414 34.8945 16.1602 34.8945 16.3086L34.9062 17.6445L35.7852 17.6797C35.9414 17.6797 36.1797 17.6719 36.5 17.6562C36.8203 17.6328 37.0586 17.6211 37.2148 17.6211C38.4961 17.6211 39.1367 17.9883 39.1367 18.7227Z" fill="black"/>
<path d="M62.0156 0H4.98438C4.19734 0 3.55859 0.63875 3.55859 1.42578V27.375C3.55859 27.9581 3.91361 28.4828 4.45541 28.6996L31.2572 39.42C30.6256 39.8107 30.1052 40.361 29.7459 41.034L26.3882 47.3359L19.3206 48.6491C18.4552 48.7845 17.6653 49.178 17.0322 49.7854C15.3413 51.4122 15.2885 54.1113 16.9167 55.8037L21.877 60.9479L20.9603 67.937C20.7849 68.8467 20.9075 69.7678 21.3138 70.6047C22.051 72.1174 23.5709 73 25.1521 73C25.7765 73 26.4124 72.8617 27.0098 72.5708L33.4259 69.447L40.0158 72.5865C40.7629 72.943 41.5984 73.0713 42.4325 72.9558C44.7565 72.6336 46.3862 70.4821 46.0654 68.1552L45.0759 61.079L49.9535 55.9334C50.6165 55.3018 51.0499 54.4905 51.2082 53.5851C51.6117 51.2711 50.0576 49.0597 47.7478 48.6562L40.7159 47.4101L37.2313 41.0012C36.8777 40.351 36.3644 39.8107 35.7385 39.4229L62.546 28.6996C63.0878 28.4828 63.4428 27.9581 63.4428 27.375V1.42578C63.4414 0.63875 62.8041 0 62.0156 0ZM6.41016 2.85156H20.4185V11.3563C20.4185 12.1434 21.0572 12.7821 21.8442 12.7821C22.6313 12.7821 23.27 12.1434 23.27 11.3563V2.85156H43.73V33.1537L33.5 37.2457L23.27 33.1537V24.1884C23.27 23.4013 22.6313 22.7626 21.8442 22.7626C21.0572 22.7626 20.4185 23.4013 20.4185 24.1884V32.0131L6.41016 26.4097V2.85156ZM38.5387 49.3762C38.7454 49.7569 39.1162 50.0235 39.5425 50.0991L47.2531 51.465C47.6238 51.5292 47.9474 51.7345 48.1642 52.0424C48.3809 52.3504 48.4636 52.724 48.3994 53.0947C48.3467 53.3998 48.1998 53.6707 47.9745 53.8803C47.9531 53.9002 47.9318 53.9202 47.9118 53.9416L42.5337 59.6133C42.2358 59.9284 42.096 60.3619 42.1559 60.791L43.2395 68.5444C43.345 69.3115 42.8075 70.023 42.0404 70.1285C41.7624 70.167 41.4858 70.1256 41.242 70.0101L34.0318 66.5754C33.6397 66.3886 33.1849 66.3901 32.7942 66.5811L25.7594 70.0044C25.0608 70.3452 24.2153 70.0529 23.876 69.3543C23.7391 69.072 23.6992 68.7612 23.7619 68.4546C23.769 68.4204 23.7747 68.3862 23.779 68.352L24.7913 60.6342C24.8484 60.2036 24.7058 59.7716 24.4035 59.4594L18.9684 53.8218C18.4323 53.2643 18.4495 52.3732 19.0069 51.8371C19.2179 51.6347 19.4817 51.5049 19.7683 51.4607C19.784 51.4579 19.8011 51.455 19.8168 51.4522L27.5802 50.0093C28.0065 49.9294 28.3743 49.6614 28.5782 49.2779L32.2581 42.3699C32.4335 42.0406 32.7287 41.7982 33.0865 41.6898C33.222 41.6485 33.3588 41.6285 33.4957 41.6285C33.7224 41.6285 33.9477 41.6841 34.153 41.7939C34.3954 41.9237 34.5921 42.119 34.7233 42.3585L38.5387 49.3762ZM60.5898 26.4097L46.5815 32.0131V2.85156H60.5898V26.4097Z" fill="black"/>
<path d="M21.8442 19.1981C22.6313 19.1981 23.27 18.5594 23.27 17.7724V17.7709C23.27 16.9839 22.6313 16.3452 21.8442 16.3452C21.0572 16.3452 20.4185 16.9839 20.4185 17.7709C20.4185 18.5594 21.0572 19.1981 21.8442 19.1981Z" fill="black"/>
<path d="M10.6791 47.5621C10.3655 47.5621 10.0518 47.4623 9.79516 47.2484L2.66626 41.5453C2.05317 41.0462 1.95337 40.1623 2.43813 39.5349C2.93716 38.9218 3.82114 38.822 4.44848 39.3068L11.5774 45.0099C12.1905 45.5089 12.2903 46.3929 11.8055 47.0203C11.5204 47.3767 11.1069 47.5621 10.6791 47.5621Z" fill="#FFA300"/>
<path d="M10.6791 60.394C10.3655 60.394 10.0518 60.4938 9.79516 60.7077L2.66626 66.4108C2.05317 66.9099 1.95337 67.7938 2.43813 68.4212C2.93716 69.0343 3.82114 69.1341 4.44848 68.6493L11.5774 62.9462C12.1905 62.4472 12.2903 61.5632 11.8055 60.9358C11.5204 60.5794 11.1069 60.394 10.6791 60.394Z" fill="#FFA300"/>
<path d="M11.4348 55.1756C11.1924 55.3609 10.8787 55.475 10.5365 55.475L1.41152 55.3467C0.627344 55.3324 0 54.6908 0 53.9066C0.0142578 53.1225 0.655859 52.4951 1.44004 52.4951L10.565 52.6234C11.3492 52.6377 11.9766 53.2793 11.9766 54.0635C11.9766 54.5197 11.7627 54.9189 11.4348 55.1756Z" fill="#FFA300"/>
<path d="M56.3184 60.394C56.6321 60.394 56.9458 60.4938 57.2024 60.7077L64.3313 66.4108C64.9444 66.9099 65.0442 67.7938 64.5594 68.4212C64.0604 69.0343 63.1764 69.1341 62.5491 68.6493L55.4202 62.9462C54.8071 62.4472 54.7073 61.5632 55.192 60.9358C55.4772 60.5794 55.8907 60.394 56.3184 60.394Z" fill="#FFA300"/>
<path d="M56.3184 47.5621C56.6321 47.5621 56.9458 47.4623 57.2024 47.2484L64.3313 41.5453C64.9444 41.0462 65.0442 40.1623 64.5594 39.5349C64.0604 38.9218 63.1764 38.822 62.5491 39.3068L55.4202 45.0099C54.8071 45.5089 54.7073 46.3929 55.192 47.0203C55.4772 47.3767 55.8907 47.5621 56.3184 47.5621Z" fill="#FFA300"/>
<path d="M55.5628 52.7804C55.8052 52.595 56.1188 52.481 56.461 52.481L65.586 52.6093C66.3702 52.6235 66.9976 53.2651 66.9976 54.0493C66.9833 54.8335 66.3417 55.4608 65.5575 55.4608L56.4325 55.3325C55.6483 55.3183 55.021 54.6767 55.021 53.8925C55.021 53.4362 55.2349 53.037 55.5628 52.7804Z" fill="#FFA300"/>
</svg>
