<svg width="73" height="73" viewBox="0 0 73 73" fill="none" xmlns="http://www.w3.org/2000/svg">
<path fill-rule="evenodd" clip-rule="evenodd" d="M50.1875 60.168H22.8125H19.3906L17.9648 71.5742H55.0352L53.6094 60.168H50.1875Z" fill="#C6632C"/>
<path fill-rule="evenodd" clip-rule="evenodd" d="M33.0197 45.7319C31.4584 51.7658 27.9425 60.168 22.8125 60.168H50.1875C45.0575 60.168 41.5416 51.7658 39.9818 45.7319H33.0197Z" fill="#EAEAEA"/>
<path fill-rule="evenodd" clip-rule="evenodd" d="M33.0197 45.7319H39.9818H40.7773C42.3457 45.7319 43.6289 44.4487 43.6289 42.8804C43.6289 42.4113 43.5148 41.9679 43.311 41.5758C42.8362 40.659 41.8766 40.0288 40.7773 40.0288H32.2227C31.1234 40.0288 30.1638 40.659 29.689 41.5758C29.4866 41.9664 29.3711 42.4113 29.3711 42.8804C29.3711 44.4487 30.6543 45.7319 32.2227 45.7319H33.0197Z" fill="#C1C1C1"/>
<path fill-rule="evenodd" clip-rule="evenodd" d="M32.2227 40.0288H40.7773C41.8766 40.0288 42.8362 40.659 43.311 41.5758C50.1618 38.8468 55.0352 32.1371 55.0352 24.3452V7.12891H17.9648V24.3452C17.9648 32.1385 22.8382 38.8468 29.689 41.5758C30.1638 40.659 31.1234 40.0288 32.2227 40.0288Z" fill="#EAEAEA"/>
<path fill-rule="evenodd" clip-rule="evenodd" d="M17.9648 7.12891H55.0352C56.6035 7.12891 57.8867 5.8457 57.8867 4.27734C57.8867 2.70898 56.6035 1.42578 55.0352 1.42578H17.9648C16.3965 1.42578 15.1133 2.70898 15.1133 4.27734C15.1133 5.8457 16.3965 7.12891 17.9648 7.12891Z" fill="#C1C1C1"/>
<path d="M39.4671 64.4453H33.5344C32.7474 64.4453 32.1086 65.0841 32.1086 65.8711C32.1086 66.6581 32.7474 67.2969 33.5344 67.2969H39.4671C40.2541 67.2969 40.8929 66.6581 40.8929 65.8711C40.8929 65.0841 40.2541 64.4453 39.4671 64.4453Z" fill="black"/>
<path d="M65.0156 11.4062H56.4609V8.30945C58.1205 7.72061 59.3125 6.13656 59.3125 4.27734C59.3125 1.9191 57.3934 0 55.0352 0H17.9648C15.6066 0 13.6875 1.9191 13.6875 4.27734C13.6875 6.13656 14.8795 7.72061 16.5391 8.30945V11.4062H7.98438C7.19734 11.4062 6.55859 12.045 6.55859 12.832V22.8125C6.55859 29.1016 11.6757 34.2188 17.9648 34.2188H19.1711C19.4448 34.6964 19.7385 35.1655 20.0536 35.6231C22.0711 38.5531 24.7958 40.8686 27.9767 42.3799C27.9581 42.5439 27.9467 42.7107 27.9467 42.8804C27.9467 44.8779 29.324 46.5603 31.1776 47.028C29.4638 52.7368 26.4183 58.7422 22.8125 58.7422H19.3906C18.672 58.7422 18.0646 59.2783 17.9763 59.9912L16.5505 71.3974C16.4991 71.8038 16.626 72.2115 16.8969 72.5181C17.1678 72.8246 17.5571 73 17.9663 73H55.0366C55.4458 73 55.835 72.8246 56.1059 72.5181C56.3768 72.2115 56.5023 71.8038 56.4524 71.3974L55.0266 59.9912C54.9368 59.2769 54.3308 58.7422 53.6122 58.7422H50.1903C48.0075 58.7422 46.1639 56.4495 45.0005 54.5276C43.5063 52.0567 42.4626 49.1467 41.8267 47.028C43.6817 46.5603 45.0575 44.8779 45.0575 42.8804C45.0575 42.7107 45.0461 42.5439 45.0276 42.3799C48.2099 40.8686 50.9332 38.5517 52.9521 35.6217C53.2672 35.164 53.5595 34.6964 53.8332 34.2188H55.0352C61.3243 34.2188 66.4414 29.1016 66.4414 22.8125V12.832C66.4414 12.045 65.8027 11.4062 65.0156 11.4062ZM9.41016 22.8125V14.2578H16.5391V24.3452C16.5391 26.7662 16.9782 29.1358 17.8223 31.3643C13.1714 31.2873 9.41016 27.4819 9.41016 22.8125ZM53.4197 70.1484H19.5803L20.6496 61.5938H52.3518L53.4197 70.1484ZM44.5671 58.7422H28.4329C29.1259 57.9822 29.7931 57.074 30.4347 56.0132C32.2569 53.0034 33.4531 49.4575 34.1075 47.1577H38.8896C39.544 49.4604 40.7388 52.9977 42.5567 56.0033C43.2012 57.0669 43.8713 57.9808 44.5671 58.7422ZM40.7773 44.3062H32.2227C31.437 44.3062 30.7969 43.666 30.7969 42.8804C30.7969 42.0948 31.437 41.4546 32.2227 41.4546H40.7773C41.563 41.4546 42.2031 42.0948 42.2031 42.8804C42.2031 43.666 41.563 44.3062 40.7773 44.3062ZM43.7644 39.8221C42.993 39.0678 41.9394 38.603 40.7773 38.603H32.2227C31.0621 38.603 30.007 39.0693 29.2356 39.8221C23.2246 36.9919 19.3906 31.0193 19.3906 24.3452V8.55469H30.084C30.871 8.55469 31.5098 7.91594 31.5098 7.12891C31.5098 6.34188 30.871 5.70312 30.084 5.70312H17.9648C17.1792 5.70312 16.5391 5.06295 16.5391 4.27734C16.5391 3.49174 17.1792 2.85156 17.9648 2.85156H55.0352C55.8208 2.85156 56.4609 3.49174 56.4609 4.27734C56.4609 5.06295 55.8208 5.70312 55.0352 5.70312H42.916C42.129 5.70312 41.4902 6.34188 41.4902 7.12891C41.4902 7.91594 42.129 8.55469 42.916 8.55469H53.6094V24.3452C53.6094 31.0193 49.7755 36.9919 43.7644 39.8221ZM63.5898 22.8125C63.5898 27.4819 59.8286 31.2859 55.1777 31.3643C56.0218 29.1358 56.4609 26.7662 56.4609 24.3452V14.2578H63.5898V22.8125Z" fill="black"/>
<path d="M36.5 8.55469C37.287 8.55469 37.9257 7.91594 37.9257 7.12891C37.9257 6.34188 37.287 5.70312 36.5 5.70312H36.4985C35.7115 5.70312 35.0728 6.34188 35.0728 7.12891C35.0728 7.91594 35.7129 8.55469 36.5 8.55469Z" fill="black"/>
<path d="M12.6791 42.5621C12.3655 42.5621 12.0518 42.4623 11.7952 42.2484L4.66626 36.5453C4.05317 36.0462 3.95337 35.1623 4.43813 34.5349C4.93716 33.9218 5.82114 33.822 6.44848 34.3068L13.5774 40.0099C14.1905 40.5089 14.2903 41.3929 13.8055 42.0203C13.5204 42.3767 13.1069 42.5621 12.6791 42.5621Z" fill="black"/>
<path d="M12.6791 55.394C12.3655 55.394 12.0518 55.4938 11.7952 55.7077L4.66626 61.4108C4.05317 61.9099 3.95337 62.7938 4.43813 63.4212C4.93716 64.0343 5.82114 64.1341 6.44848 63.6493L13.5774 57.9462C14.1905 57.4472 14.2903 56.5632 13.8055 55.9358C13.5204 55.5794 13.1069 55.394 12.6791 55.394Z" fill="black"/>
<path d="M13.4348 50.1756C13.1924 50.3609 12.8787 50.475 12.5365 50.475L3.41152 50.3467C2.62734 50.3324 2 49.6908 2 48.9066C2.01426 48.1225 2.65586 47.4951 3.44004 47.4951L12.565 47.6234C13.3492 47.6377 13.9766 48.2793 13.9766 49.0635C13.9766 49.5197 13.7627 49.9189 13.4348 50.1756Z" fill="black"/>
<path d="M58.3184 55.394C58.6321 55.394 58.9458 55.4938 59.2024 55.7077L66.3313 61.4108C66.9444 61.9099 67.0442 62.7938 66.5594 63.4212C66.0604 64.0343 65.1764 64.1341 64.5491 63.6493L57.4202 57.9462C56.8071 57.4472 56.7073 56.5632 57.192 55.9358C57.4772 55.5794 57.8907 55.394 58.3184 55.394Z" fill="black"/>
<path d="M58.3184 42.5621C58.6321 42.5621 58.9458 42.4623 59.2024 42.2484L66.3313 36.5453C66.9444 36.0462 67.0442 35.1623 66.5594 34.5349C66.0604 33.9218 65.1764 33.822 64.5491 34.3068L57.4202 40.0099C56.8071 40.5089 56.7073 41.3929 57.192 42.0203C57.4772 42.3767 57.8907 42.5621 58.3184 42.5621Z" fill="black"/>
<path d="M57.5628 47.7804C57.8052 47.595 58.1188 47.481 58.461 47.481L67.586 47.6093C68.3702 47.6235 68.9976 48.2651 68.9976 49.0493C68.9833 49.8335 68.3417 50.4608 67.5575 50.4608L58.4325 50.3325C57.6483 50.3183 57.021 49.6767 57.021 48.8925C57.021 48.4362 57.2349 48.037 57.5628 47.7804Z" fill="black"/>
</svg>
