<svg width="73" height="73" viewBox="0 0 73 73" fill="none" xmlns="http://www.w3.org/2000/svg">
<path fill-rule="evenodd" clip-rule="evenodd" d="M50.1875 60.168H22.8125H19.3906L17.9648 71.5742H55.0352L53.6094 60.168H50.1875Z" fill="#C6632C"/>
<path fill-rule="evenodd" clip-rule="evenodd" d="M33.0197 45.7319C31.4584 51.7658 27.9425 60.168 22.8125 60.168H50.1875C45.0575 60.168 41.5416 51.7658 39.9818 45.7319H33.0197Z" fill="#FFC200"/>
<path fill-rule="evenodd" clip-rule="evenodd" d="M33.0197 45.7319H39.9818H40.7773C42.3457 45.7319 43.6289 44.4487 43.6289 42.8804C43.6289 42.4113 43.5148 41.9679 43.311 41.5758C42.8362 40.659 41.8766 40.0288 40.7773 40.0288H32.2227C31.1234 40.0288 30.1638 40.659 29.689 41.5758C29.4866 41.9664 29.3711 42.4113 29.3711 42.8804C29.3711 44.4487 30.6543 45.7319 32.2227 45.7319H33.0197Z" fill="#FFA300"/>
<path fill-rule="evenodd" clip-rule="evenodd" d="M32.2227 40.0288H40.7773C41.8766 40.0288 42.8362 40.659 43.311 41.5758C50.1618 38.8468 55.0352 32.1371 55.0352 24.3452V7.12891H17.9648V24.3452C17.9648 32.1385 22.8382 38.8468 29.689 41.5758C30.1638 40.659 31.1234 40.0288 32.2227 40.0288Z" fill="#FFC200"/>
<path fill-rule="evenodd" clip-rule="evenodd" d="M17.9648 7.12891H55.0352C56.6035 7.12891 57.8867 5.8457 57.8867 4.27734C57.8867 2.70898 56.6035 1.42578 55.0352 1.42578H17.9648C16.3965 1.42578 15.1133 2.70898 15.1133 4.27734C15.1133 5.8457 16.3965 7.12891 17.9648 7.12891Z" fill="#FFA300"/>
<path d="M39.4671 64.4453H33.5344C32.7474 64.4453 32.1086 65.0841 32.1086 65.8711C32.1086 66.6581 32.7474 67.2969 33.5344 67.2969H39.4671C40.2541 67.2969 40.8929 66.6581 40.8929 65.8711C40.8929 65.0841 40.2541 64.4453 39.4671 64.4453Z" fill="black"/>
<path d="M65.0156 11.4062H56.4609V8.30945C58.1205 7.72061 59.3125 6.13656 59.3125 4.27734C59.3125 1.9191 57.3934 0 55.0352 0H17.9648C15.6066 0 13.6875 1.9191 13.6875 4.27734C13.6875 6.13656 14.8795 7.72061 16.5391 8.30945V11.4062H7.98438C7.19734 11.4062 6.55859 12.045 6.55859 12.832V22.8125C6.55859 29.1016 11.6757 34.2188 17.9648 34.2188H19.1711C19.4448 34.6964 19.7385 35.1655 20.0536 35.6231C22.0711 38.5531 24.7958 40.8686 27.9767 42.3799C27.9581 42.5439 27.9467 42.7107 27.9467 42.8804C27.9467 44.8779 29.324 46.5603 31.1776 47.028C29.4638 52.7368 26.4183 58.7422 22.8125 58.7422H19.3906C18.672 58.7422 18.0646 59.2783 17.9763 59.9912L16.5505 71.3974C16.4991 71.8038 16.626 72.2115 16.8969 72.5181C17.1678 72.8246 17.5571 73 17.9663 73H55.0366C55.4458 73 55.835 72.8246 56.1059 72.5181C56.3768 72.2115 56.5023 71.8038 56.4524 71.3974L55.0266 59.9912C54.9368 59.2769 54.3308 58.7422 53.6122 58.7422H50.1903C48.0075 58.7422 46.1639 56.4495 45.0005 54.5276C43.5063 52.0567 42.4626 49.1467 41.8267 47.028C43.6817 46.5603 45.0575 44.8779 45.0575 42.8804C45.0575 42.7107 45.0461 42.5439 45.0276 42.3799C48.2099 40.8686 50.9332 38.5517 52.9521 35.6217C53.2672 35.164 53.5595 34.6964 53.8332 34.2188H55.0352C61.3243 34.2188 66.4414 29.1016 66.4414 22.8125V12.832C66.4414 12.045 65.8027 11.4062 65.0156 11.4062ZM9.41016 22.8125V14.2578H16.5391V24.3452C16.5391 26.7662 16.9782 29.1358 17.8223 31.3643C13.1714 31.2873 9.41016 27.4819 9.41016 22.8125ZM53.4197 70.1484H19.5803L20.6496 61.5938H52.3518L53.4197 70.1484ZM44.5671 58.7422H28.4329C29.1259 57.9822 29.7931 57.074 30.4347 56.0132C32.2569 53.0034 33.4531 49.4575 34.1075 47.1577H38.8896C39.544 49.4604 40.7388 52.9977 42.5567 56.0033C43.2012 57.0669 43.8713 57.9808 44.5671 58.7422ZM40.7773 44.3062H32.2227C31.437 44.3062 30.7969 43.666 30.7969 42.8804C30.7969 42.0948 31.437 41.4546 32.2227 41.4546H40.7773C41.563 41.4546 42.2031 42.0948 42.2031 42.8804C42.2031 43.666 41.563 44.3062 40.7773 44.3062ZM43.7644 39.8221C42.993 39.0678 41.9394 38.603 40.7773 38.603H32.2227C31.0621 38.603 30.007 39.0693 29.2356 39.8221C23.2246 36.9919 19.3906 31.0193 19.3906 24.3452V8.55469H30.084C30.871 8.55469 31.5098 7.91594 31.5098 7.12891C31.5098 6.34188 30.871 5.70312 30.084 5.70312H17.9648C17.1792 5.70312 16.5391 5.06295 16.5391 4.27734C16.5391 3.49174 17.1792 2.85156 17.9648 2.85156H55.0352C55.8208 2.85156 56.4609 3.49174 56.4609 4.27734C56.4609 5.06295 55.8208 5.70312 55.0352 5.70312H42.916C42.129 5.70312 41.4902 6.34188 41.4902 7.12891C41.4902 7.91594 42.129 8.55469 42.916 8.55469H53.6094V24.3452C53.6094 31.0193 49.7755 36.9919 43.7644 39.8221ZM63.5898 22.8125C63.5898 27.4819 59.8286 31.2859 55.1777 31.3643C56.0218 29.1358 56.4609 26.7662 56.4609 24.3452V14.2578H63.5898V22.8125Z" fill="black"/>
<path d="M36.5 8.55469C37.287 8.55469 37.9257 7.91594 37.9257 7.12891C37.9257 6.34188 37.287 5.70312 36.5 5.70312H36.4985C35.7115 5.70312 35.0728 6.34188 35.0728 7.12891C35.0728 7.91594 35.7129 8.55469 36.5 8.55469Z" fill="black"/>
<path d="M38.0812 27.2039H37.9258V17.2234C37.9258 16.7144 37.6535 16.2439 37.2129 15.9887C36.7724 15.7335 36.2291 15.7335 35.7872 15.9887L34.206 16.9012C33.5244 17.2947 33.2906 18.1673 33.6841 18.8488C33.975 19.3536 34.5296 19.6116 35.0743 19.5532V27.2025H34.9189C34.1318 27.2025 33.4931 27.8412 33.4931 28.6283C33.4931 29.4153 34.1318 30.054 34.9189 30.054H38.0798C38.8668 30.054 39.5056 29.4153 39.5056 28.6283C39.5056 27.8412 38.8683 27.2039 38.0812 27.2039Z" fill="black"/>
<path d="M13.6791 44.5621C13.3655 44.5621 13.0518 44.4623 12.7952 44.2484L5.66626 38.5453C5.05317 38.0462 4.95337 37.1623 5.43813 36.5349C5.93716 35.9218 6.82114 35.822 7.44848 36.3068L14.5774 42.0099C15.1905 42.5089 15.2903 43.3929 14.8055 44.0203C14.5204 44.3767 14.1069 44.5621 13.6791 44.5621Z" fill="#FFA300"/>
<path d="M13.6791 57.394C13.3655 57.394 13.0518 57.4938 12.7952 57.7077L5.66626 63.4108C5.05317 63.9099 4.95337 64.7938 5.43813 65.4212C5.93716 66.0343 6.82114 66.1341 7.44848 65.6493L14.5774 59.9462C15.1905 59.4472 15.2903 58.5632 14.8055 57.9358C14.5204 57.5794 14.1069 57.394 13.6791 57.394Z" fill="#FFA300"/>
<path d="M14.4348 52.1756C14.1924 52.3609 13.8787 52.475 13.5365 52.475L4.41152 52.3467C3.62734 52.3324 3 51.6908 3 50.9066C3.01426 50.1225 3.65586 49.4951 4.44004 49.4951L13.565 49.6234C14.3492 49.6377 14.9766 50.2793 14.9766 51.0635C14.9766 51.5197 14.7627 51.9189 14.4348 52.1756Z" fill="#FFA300"/>
<path d="M59.3184 57.394C59.6321 57.394 59.9458 57.4938 60.2024 57.7077L67.3313 63.4108C67.9444 63.9099 68.0442 64.7938 67.5594 65.4212C67.0604 66.0343 66.1764 66.1341 65.5491 65.6493L58.4202 59.9462C57.8071 59.4472 57.7073 58.5632 58.192 57.9358C58.4772 57.5794 58.8907 57.394 59.3184 57.394Z" fill="#FFA300"/>
<path d="M59.3184 44.5621C59.6321 44.5621 59.9458 44.4623 60.2024 44.2484L67.3313 38.5453C67.9444 38.0462 68.0442 37.1623 67.5594 36.5349C67.0604 35.9218 66.1764 35.822 65.5491 36.3068L58.4202 42.0099C57.8071 42.5089 57.7073 43.3929 58.192 44.0203C58.4772 44.3767 58.8907 44.5621 59.3184 44.5621Z" fill="#FFA300"/>
<path d="M58.5628 49.7804C58.8052 49.595 59.1188 49.481 59.461 49.481L68.586 49.6093C69.3702 49.6235 69.9976 50.2651 69.9976 51.0493C69.9833 51.8335 69.3417 52.4608 68.5575 52.4608L59.4325 52.3325C58.6483 52.3183 58.021 51.6767 58.021 50.8925C58.021 50.4362 58.2349 50.037 58.5628 49.7804Z" fill="#FFA300"/>
</svg>
