<svg width="74" height="73" viewBox="0 0 74 73" fill="none" xmlns="http://www.w3.org/2000/svg">
<path fill-rule="evenodd" clip-rule="evenodd" d="M10.1724 36.5C10.1724 21.5393 22.3016 9.4102 37.2623 9.4102C52.223 9.4102 64.3521 21.5393 64.3521 36.5C64.3521 51.4608 52.223 63.5899 37.2623 63.5899C22.3016 63.5899 10.1724 51.4608 10.1724 36.5ZM43.9107 4.06922L40.0383 2.12588C38.3715 1.23049 36.3013 1.1592 34.5077 2.1159L31.0316 3.9794L26.7457 3.67C24.8295 3.45471 22.8476 4.18471 21.5359 5.78729L19.0066 8.87553L15.2753 10.1145C13.2949 10.5765 11.6082 12.055 10.978 14.1409L9.82598 17.9549L6.47825 20.8507C5.06387 22.0526 4.24262 23.9061 4.43795 25.8937L4.83289 29.8516L2.88956 33.724C1.99416 35.3908 1.92288 37.461 2.87957 39.2547L4.74307 42.7307L4.43368 47.0166C4.21838 48.9329 4.94838 50.9147 6.55096 52.2264L9.6392 54.7557L10.8782 58.487C11.3402 60.4674 12.8187 62.1541 14.9046 62.7843L18.7186 63.9364L21.6143 67.2841C22.8163 68.6985 24.6698 69.5197 26.6573 69.3244L30.6153 68.9294L34.4891 70.8728C36.1559 71.7682 38.2247 71.8395 40.0197 70.8828L43.4958 69.0193L47.7817 69.3287C49.698 69.544 51.6798 68.8139 52.9915 67.2114L55.5208 64.1231L59.2521 62.8841C61.2325 62.4222 62.9192 60.9436 63.5494 58.8577L64.7015 55.0452L68.0492 52.1494C69.4636 50.9475 70.2848 49.094 70.0895 47.1064L69.6945 43.1485L71.6379 39.2746C72.5333 37.6079 72.6046 35.5376 71.6479 33.744L69.7844 30.268L70.0938 25.9821C70.309 24.0658 69.579 22.084 67.9765 20.7723L64.8882 18.2429L63.6492 14.5116C63.1873 12.5312 61.7087 10.8445 59.6228 10.2143L55.8103 9.06231L52.9145 5.71457C51.7126 4.3002 49.8591 3.47895 47.8715 3.67428L43.9107 4.06922Z" fill="#EAEAEA"/>
<path d="M37.2622 63.5898C52.2235 63.5898 64.3521 51.4613 64.3521 36.5C64.3521 21.5387 52.2235 9.41016 37.2622 9.41016C22.3009 9.41016 10.1724 21.5387 10.1724 36.5C10.1724 51.4613 22.3009 63.5898 37.2622 63.5898Z" fill="#C1C1C1"/>
<path fill-rule="evenodd" clip-rule="evenodd" d="M42.3965 29.3768C40.8196 27.857 40.265 25.4887 41.0549 23.5896C41.9203 21.508 41.8861 19.864 40.9037 17.9977C39.9057 16.1042 36.5451 14.573 36.0817 16.8499C35.8736 17.8736 36.2143 20.1007 34.7215 22.9608C33.022 26.2159 34.7059 30.3107 29.7883 30.3107V49.9509C33.166 49.9509 36.5437 51.8215 39.9214 51.8215H48.1524C52.3513 51.8215 53.4834 47.3032 52.079 45.9558C54.1934 45.0604 54.8436 42.0292 53.7001 40.5621C55.9229 39.4657 56.181 36.0081 54.6996 35.1883C56.3093 35.1541 57.6253 33.8623 57.6253 32.3182C57.6253 30.593 56.2537 29.3754 54.6269 29.3754L42.3965 29.3768Z" fill="#FFDCD5"/>
<path fill-rule="evenodd" clip-rule="evenodd" d="M29.7868 49.9523V30.3121V29.3412H22.2529V50.9233H29.7868V49.9523Z" fill="#8481E2"/>
<path d="M43.9677 8.78002C43.2006 8.5961 42.4321 9.06661 42.2467 9.83225C42.0628 10.5979 42.5333 11.3678 43.299 11.5532C54.8549 14.3377 62.9263 24.5962 62.9263 36.5001C62.9263 50.6509 51.4131 62.1641 37.2622 62.1641C23.1113 62.1641 11.5981 50.6509 11.5981 36.5001C11.5981 24.5976 19.6681 14.3377 31.224 11.5517C31.9897 11.3678 32.4602 10.5965 32.2762 9.83082C32.0923 9.06518 31.321 8.59467 30.5553 8.7786C24.4416 10.2529 18.9024 13.7874 14.9587 18.7291C10.8952 23.8249 8.74658 29.97 8.74658 36.5001C8.74658 52.2236 21.5387 65.0157 37.2622 65.0157C52.9857 65.0157 65.7778 52.2236 65.7778 36.5001C65.7778 29.97 63.6292 23.8249 59.5643 18.7305C55.6206 13.7874 50.0814 10.2543 43.9677 8.78002Z" fill="black"/>
<path d="M72.9039 33.0711L71.2357 29.9586L71.5137 26.1118C71.7818 23.6452 70.798 21.2385 68.8789 19.6702L66.11 17.4032L65.0207 14.1224C64.4105 11.6131 62.5057 9.59701 60.0334 8.85133L56.6158 7.81906L53.998 4.7907C52.4496 2.96855 50.1056 2.02183 47.7274 2.25566L44.1801 2.60926L40.6926 0.859822C38.544 -0.28508 35.9819 -0.286506 33.8318 0.859822L30.7193 2.52799L26.8725 2.24996C24.4059 1.98191 21.9992 2.9657 20.4309 4.8848L18.1639 7.65367L14.8831 8.74297C12.3738 9.3532 10.3577 11.258 9.61203 13.7303L8.57977 17.1479L5.55283 19.7643C3.73068 21.3127 2.78254 23.6566 3.01779 26.0348L3.37139 29.5822L1.62195 33.0696C0.475625 35.2183 0.475625 37.7804 1.62195 39.9305L3.29012 43.043L3.01209 46.8897C2.74404 49.3563 3.72783 51.7616 5.64693 53.3314L8.4158 55.5984L9.5051 58.8791C10.1153 61.3885 12.0202 63.4046 14.4925 64.1502L17.9101 65.1825L20.5278 68.208C22.0762 70.0302 24.4202 70.9783 26.7984 70.7431L30.3457 70.3895L33.8332 72.1389C34.9082 72.7121 36.0859 72.9986 37.2651 72.9986C38.4428 72.9986 39.6204 72.7121 40.6941 72.1389L43.8065 70.4707L47.6533 70.7488C50.1199 71.0154 52.5252 70.033 54.095 68.1139L56.362 65.345L59.6427 64.2558C62.1506 63.6455 64.1667 61.7407 64.9138 59.2684L65.9461 55.8508L68.9716 53.233C70.7937 51.6846 71.7419 49.3407 71.508 46.9625L71.1544 43.4151L72.9039 39.9277C74.0488 37.7818 74.0502 35.2197 72.9039 33.0711ZM70.3803 38.6003C70.3745 38.6117 70.3674 38.6231 70.3617 38.6359L68.4184 42.5097C68.2972 42.7507 68.2473 43.0216 68.2744 43.2911L68.6693 47.2476C68.8119 48.6948 68.2345 50.122 67.1152 51.073L63.7675 53.9687C63.5636 54.1455 63.4139 54.3765 63.3355 54.6346L62.1834 58.4471C61.7243 59.967 60.4768 61.1361 58.927 61.4983C58.8842 61.5083 58.8428 61.5197 58.8015 61.5339L55.0702 62.7729C54.8136 62.8585 54.5869 63.0139 54.4158 63.2235L51.8864 66.3132C50.9255 67.488 49.4498 68.0868 47.9399 67.9172C47.9213 67.9143 47.9014 67.9129 47.8829 67.9115L43.597 67.6021C43.3275 67.5821 43.058 67.6406 42.8199 67.7674L39.3467 69.6295C38.0364 70.3281 36.4723 70.3253 35.1606 69.621C35.1492 69.6153 35.1378 69.6081 35.125 69.6024L31.2525 67.6591C31.0529 67.5593 30.8348 67.508 30.6138 67.508C30.5667 67.508 30.5197 67.5108 30.4726 67.5151L26.5161 67.91C25.0689 68.0526 23.6417 67.4752 22.6907 66.3559L19.795 63.0082C19.6182 62.8043 19.3872 62.6546 19.1291 62.5762L15.3152 61.4241C13.7938 60.965 12.6261 59.7175 12.264 58.1677C12.254 58.1249 12.2426 58.0835 12.2283 58.0422L10.9893 54.3109C10.9038 54.0543 10.7484 53.8276 10.5402 53.6565L7.45055 51.1272C6.2757 50.1662 5.67688 48.6905 5.84654 47.1806C5.84797 47.1621 5.85082 47.1435 5.85225 47.1236L6.16164 42.8377C6.1816 42.5682 6.12314 42.2987 5.99625 42.0606L4.13418 38.5874C3.43555 37.2771 3.4384 35.713 4.14273 34.4013C4.14844 34.3899 4.15557 34.3785 4.16127 34.3671L6.10461 30.4933C6.2258 30.2523 6.2757 29.9814 6.24861 29.7119L5.8551 25.7554C5.71252 24.3082 6.28996 22.881 7.4092 21.93L10.7569 19.0343C10.9608 18.8575 11.1105 18.6265 11.1889 18.3684L12.341 14.5545C12.8001 13.0346 14.0476 11.8654 15.5975 11.5033C15.6402 11.4933 15.6816 11.4819 15.7229 11.4676L19.4542 10.2286C19.7108 10.1431 19.9375 9.98767 20.1086 9.77951L22.638 6.68984C23.5989 5.515 25.0746 4.91617 26.5845 5.08584C26.6031 5.08726 26.6216 5.09011 26.6416 5.09154L30.9275 5.40093C31.1955 5.41947 31.4664 5.36244 31.7045 5.23554L35.1777 3.37347C36.488 2.67484 38.0521 2.67769 39.3638 3.38203C39.3752 3.38773 39.3866 3.39486 39.3995 3.40056L43.2733 5.3439C43.5143 5.46509 43.7852 5.515 44.0546 5.48791L48.0112 5.09439C49.4583 4.95181 50.8855 5.52925 51.8365 6.64849L54.7323 9.99623C54.9091 10.2001 55.1401 10.3498 55.3981 10.4282L59.2107 11.5803C60.7306 12.0394 61.8997 13.2869 62.2619 14.8368C62.2718 14.8795 62.2832 14.9209 62.2975 14.9622L63.5365 18.6935C63.6221 18.9501 63.7775 19.1768 63.9856 19.3479L67.0753 21.8773C68.2501 22.8382 68.849 24.3125 68.6793 25.8238C68.6764 25.8424 68.675 25.8609 68.6736 25.8809L68.3642 30.1668C68.3442 30.4362 68.4027 30.7057 68.5296 30.9438L70.3917 34.417C71.0874 35.7259 71.0846 37.29 70.3803 38.6003Z" fill="black"/>
<path d="M31.0742 28.7324C30.8461 28.2505 30.3556 27.9168 29.7868 27.9168H22.2529C21.4659 27.9168 20.8271 28.5556 20.8271 29.3426V50.9247C20.8271 51.7117 21.4659 52.3504 22.2529 52.3504H29.7868C30.3785 52.3504 30.8846 51.9911 31.1013 51.4793C32.1878 51.6318 33.3084 51.9412 34.4733 52.2635C36.2256 52.7482 38.0378 53.2501 39.9212 53.2501H48.1522C50.6973 53.2501 52.7589 51.9013 53.6672 49.6415C54.1106 48.5407 54.1876 47.3973 53.9281 46.4406C54.4014 46.0157 54.8021 45.4853 55.1044 44.8665C55.7174 43.6132 55.8401 42.2032 55.4922 41.0155C56.1395 40.3896 56.6228 39.5626 56.8766 38.5888C57.1133 37.6777 57.109 36.7781 56.898 35.9996C58.184 35.2425 59.0509 33.868 59.0509 32.3196C59.0509 31.1049 58.5776 29.9856 57.7192 29.1687C56.8951 28.3831 55.7959 27.951 54.6267 27.951H43.0251C42.144 26.8446 41.8688 25.3447 42.3707 24.1371C43.4001 21.6576 43.3374 19.5603 42.164 17.3332C41.2928 15.6808 38.9531 14.0354 36.9855 14.3163C35.7964 14.486 34.9353 15.3272 34.6829 16.5648C34.6088 16.9298 34.5888 17.3233 34.5646 17.7781C34.5061 18.9016 34.4263 20.4415 33.4567 22.3007C32.7994 23.5611 32.5799 24.8571 32.386 26.0006C32.1079 27.6402 31.9739 28.4287 31.0742 28.7324ZM23.6801 30.767H28.3624V49.4974H23.6801V30.767ZM35.1976 26.4782C35.363 25.4973 35.5355 24.4821 35.9846 23.6224C37.2422 21.2128 37.3491 19.1568 37.4133 17.9278C37.4304 17.6013 37.4461 17.2919 37.4774 17.1365C37.4774 17.1351 37.4774 17.1351 37.4788 17.1336C37.9736 17.1408 39.1912 17.808 39.6418 18.6649C40.4231 20.1477 40.4487 21.334 39.7387 23.0449C39.0985 24.5876 39.1456 26.377 39.7801 27.9682C39.0871 28.0651 38.5525 28.6582 38.5525 29.3782C38.5525 30.1653 39.1912 30.804 39.9782 30.804H54.6281C55.063 30.804 55.4622 30.9566 55.7545 31.2346C55.9584 31.4285 56.2008 31.775 56.2008 32.3211C56.2008 33.0853 55.4993 33.7468 54.6695 33.7654L50.9995 33.8452C50.2125 33.8623 49.588 34.5139 49.6051 35.3009C49.6222 36.078 50.2567 36.6954 51.0295 36.6954C51.0395 36.6954 51.0509 36.6954 51.0608 36.6954L54.1177 36.6283C54.2175 36.9106 54.2688 37.4496 54.0593 38.067C53.881 38.5916 53.4006 39.4728 52.1943 39.4728C51.4073 39.4728 50.7686 40.1115 50.7686 40.8986C50.7686 41.6856 51.4073 42.3243 52.1943 42.3243C52.4111 42.3243 52.6221 42.3115 52.8302 42.2844C52.8473 42.6879 52.7646 43.1599 52.5437 43.6132C52.2813 44.1479 51.7652 44.7867 50.7857 44.7867C49.9986 44.7867 49.3599 45.4254 49.3599 46.2124C49.3599 46.9995 49.9986 47.6382 50.7857 47.6382C50.9339 47.6382 51.0794 47.6311 51.2234 47.6183C51.2191 47.892 51.1635 48.2342 51.0081 48.6078C50.7842 49.1453 50.0585 50.3971 48.1508 50.3971H39.9198C38.4241 50.3971 36.8743 49.968 35.2332 49.5131C33.9272 49.151 32.5884 48.7817 31.2111 48.6163V31.6181C34.4234 31.0364 34.8654 28.4372 35.1976 26.4782Z" fill="black"/>
<path d="M37.2622 10.8359C38.0492 10.8359 38.688 10.1972 38.688 9.41016C38.688 8.62313 38.0492 7.98438 37.2622 7.98438C36.4752 7.98438 35.8364 8.62313 35.8364 9.41016C35.8364 10.1972 36.4752 10.8359 37.2622 10.8359Z" fill="black"/>
</svg>
