<svg width="73" height="73" viewBox="0 0 73 73" fill="none" xmlns="http://www.w3.org/2000/svg">
<path fill-rule="evenodd" clip-rule="evenodd" d="M29.5353 35.8548L9.65789 1.4259H1.4259L23.5602 39.7637C23.9394 39.439 24.3928 39.2092 24.88 39.0955L26.852 38.441L28.1885 36.8087C28.5568 36.3586 29.0253 36.0387 29.5353 35.8548Z" fill="#52BA00"/>
<path fill-rule="evenodd" clip-rule="evenodd" d="M9.65784 1.42578L29.5354 35.8546C29.9851 35.6925 30.4673 35.6361 30.9416 35.6894L33.2066 35.8532L35.0436 34.8686C35.6709 34.5339 36.3617 34.4374 37.0127 34.5473L17.8898 1.42578H9.65784Z" fill="#70FF00"/>
<path fill-rule="evenodd" clip-rule="evenodd" d="M17.89 1.42578L37.0128 34.5472C37.3458 34.6034 37.6683 34.7137 37.9666 34.8737L40.0133 35.9004L42.1052 35.692C43.1556 35.5887 44.1349 36.0227 44.7704 36.7703L46.3008 38.5392L47.8124 38.9959L44.7319 33.6602L40.616 26.5311L36.5003 19.4026L26.1211 1.42578H17.89Z" fill="white"/>
<path fill-rule="evenodd" clip-rule="evenodd" d="M46.8789 1.42578L36.4999 19.4028L40.6155 26.5312L55.1101 1.42578H46.8789Z" fill="#52BA00"/>
<path fill-rule="evenodd" clip-rule="evenodd" d="M55.11 1.42578L40.6155 26.5312L44.7315 33.6602L63.342 1.42578H55.11Z" fill="#70FF00"/>
<path fill-rule="evenodd" clip-rule="evenodd" d="M63.3421 1.42578L44.7314 33.6602L47.812 38.9959L48.3154 39.148C48.7427 39.2771 49.1217 39.4899 49.4398 39.7631L71.5741 1.42578H63.3421Z" fill="white"/>
<path fill-rule="evenodd" clip-rule="evenodd" d="M47.8121 38.996L46.3005 38.5393L44.7701 36.7703C44.1346 36.0229 43.1553 35.5888 42.1049 35.692L40.013 35.9005L37.9663 34.8738C37.668 34.7137 37.3455 34.6034 37.0125 34.5473C36.3616 34.4375 35.6708 34.534 35.0435 34.8686L33.2065 35.8533L30.9415 35.6894C30.4672 35.6361 29.9851 35.6926 29.5353 35.8547C29.0252 36.0386 28.5568 36.3586 28.1885 36.8087L26.852 38.4409L24.88 39.0955C24.3928 39.2091 23.9394 39.4389 23.5602 39.7636C23.1246 40.1364 22.7871 40.634 22.609 41.2234L22.0002 43.2385L20.2313 44.7689C19.4839 45.4044 19.0497 46.3837 19.153 47.4341L19.3614 49.526L18.3347 51.5727C17.8619 52.4538 17.8237 53.5471 18.3296 54.4955L19.3142 56.3325L19.1504 58.5975C19.0366 59.6098 19.4226 60.6574 20.2696 61.3505L21.9018 62.687L22.5564 64.659C22.8004 65.7057 23.5817 66.5969 24.6844 66.93L26.6994 67.5388L28.2299 69.3078C28.8653 70.0551 29.8447 70.4893 30.8951 70.3861L32.9868 70.1776L35.0335 71.2043C35.9145 71.6772 37.0079 71.7155 37.9563 71.2096L39.7933 70.225L42.0583 70.3888C43.0706 70.5025 44.1182 70.1166 44.8113 69.2695L46.1478 67.6373L48.1198 66.9827C49.1666 66.7388 50.0577 65.9575 50.3908 64.8548L50.9996 62.8397L52.7685 61.3093C53.5159 60.6738 53.9501 59.6945 53.8469 58.6441L53.6384 56.5524L54.6651 54.5057C55.138 53.6247 55.1762 52.5312 54.6702 51.5828L53.6856 49.7459L53.8494 47.4809C53.9632 46.4686 53.5772 45.4209 52.7302 44.7279L51.098 43.3913L50.4434 41.4193C50.294 40.7782 49.9429 40.1953 49.4398 39.7635C49.1216 39.4903 48.7426 39.2774 48.3153 39.1484L47.8121 38.996ZM36.4999 41.6329C42.7994 41.6329 47.9061 46.7396 47.9061 53.0391C47.9061 59.3386 42.7994 64.4453 36.4999 64.4453C30.2004 64.4453 25.0937 59.3386 25.0937 53.0391C25.0937 46.7396 30.2006 41.6329 36.4999 41.6329Z" fill="#FF764E"/>
<path d="M44.5547 61.1015C49.0084 56.6477 49.0084 49.4268 44.5547 44.973C40.101 40.5193 32.88 40.5193 28.4263 44.973C23.9725 49.4268 23.9725 56.6477 28.4263 61.1015C32.88 65.5552 40.101 65.5552 44.5547 61.1015Z" fill="#C1C1C1"/>
<path d="M36.5001 40.207C29.4245 40.207 23.6681 45.9634 23.6681 53.039C23.6681 60.1145 29.4245 65.8709 36.5001 65.8709C43.5756 65.8709 49.332 60.1145 49.332 53.039C49.332 45.9634 43.5756 40.207 36.5001 40.207ZM36.5001 63.0194C30.9969 63.0194 26.5196 58.5422 26.5196 53.039C26.5196 47.5358 30.9969 43.0586 36.5001 43.0586C42.0033 43.0586 46.4805 47.5358 46.4805 53.039C46.4805 58.5422 42.0033 63.0194 36.5001 63.0194Z" fill="black"/>
<path d="M72.8094 0.712886C72.5548 0.271752 72.0841 0 71.5747 0H46.8796C46.3702 0 45.8995 0.271752 45.6449 0.712886L36.5007 16.5512L27.3564 0.712886C27.1017 0.271752 26.6311 0 26.1216 0H1.42654C0.917112 0 0.446465 0.271752 0.191822 0.712886C-0.062964 1.15402 -0.062964 1.69753 0.191822 2.13866L21.8208 39.6013C21.5733 39.9697 21.3764 40.3756 21.2449 40.811L20.7556 42.4306L19.3086 43.6824C18.1779 44.6435 17.5897 46.0982 17.7351 47.5752L17.9025 49.2559L17.0691 50.9171C16.3621 52.2494 16.3629 53.8363 17.0737 55.169L17.8631 56.6415L17.731 58.4687C17.5697 59.9945 18.1801 61.4823 19.3672 62.4533L20.6796 63.5279L21.1855 65.0517C21.5711 66.5951 22.7483 67.8341 24.2728 68.2945L25.8924 68.7837L27.1445 70.2309C28.1056 71.3614 29.5599 71.9482 31.0373 71.8043L32.7178 71.6368L34.3791 72.4702C35.0441 72.8232 35.7721 72.9996 36.5007 72.9996C37.2317 72.9996 37.9633 72.8216 38.6307 72.4658L40.1035 71.6763L41.9308 71.8085C43.4563 71.9693 44.944 71.3595 45.9154 70.1723L46.99 68.8598L48.5138 68.354C50.0574 67.9683 51.2961 66.791 51.7565 65.2666L52.2458 63.6471L53.693 62.3951C54.8234 61.4338 55.4117 59.9793 55.2663 58.5023L55.0989 56.8218L55.9323 55.1604C56.6392 53.8282 56.6385 52.2415 55.9277 50.9089L55.1384 49.4361L55.2706 47.6091C55.4318 46.0834 54.8214 44.5956 53.6343 43.6242L52.3219 42.5495L51.8162 41.0258C51.6875 40.5108 51.469 40.0309 51.1805 39.6013L72.8094 2.13866C73.0642 1.69753 73.0642 1.15402 72.8094 0.712886ZM42.2625 26.5312L55.934 2.85155H60.8733L44.7321 30.8087L42.2625 26.5312ZM47.7029 2.85155H52.6414L40.6163 23.6797L38.147 19.4028L47.7029 2.85155ZM43.5068 34.3895C43.0093 34.2649 42.4885 34.2223 41.9643 34.2733L40.2836 34.4408L38.6221 33.6073C38.4045 33.4918 38.1795 33.3973 37.9506 33.3196L20.3599 2.85155H25.2985L43.5068 34.3895ZM8.83543 2.85155L15.154 13.7958C15.4181 14.2532 15.8973 14.509 16.39 14.509C16.6318 14.509 16.8771 14.4472 17.1016 14.3176C17.7836 13.9238 18.0173 13.052 17.6235 12.37L12.128 2.85155H17.0673L34.729 33.4426C34.608 33.4943 34.4879 33.5494 34.3704 33.612L32.8978 34.4013L31.0706 34.2692C30.798 34.2402 30.5269 34.2371 30.2595 34.2563L24.0402 23.4842C23.6465 22.8022 22.7744 22.5686 22.0926 22.9624C21.4106 23.3562 21.1769 24.228 21.5707 24.91L27.6082 35.367C27.4218 35.5307 27.2463 35.7093 27.0859 35.9052L26.0113 37.2177L24.4874 37.7235C24.3548 37.7566 24.2255 37.7977 24.0978 37.8422L3.89612 2.85155H8.83543ZM51.828 45.8309C52.2712 46.1936 52.4976 46.7507 52.4334 47.3213C52.4313 47.3401 52.4296 47.3589 52.4282 47.3777L52.2643 49.6427C52.2449 49.912 52.3022 50.1811 52.4297 50.419L53.4129 52.2536C53.6761 52.7472 53.6748 53.3369 53.4095 53.8309C53.4032 53.8426 53.3972 53.8543 53.3913 53.8661L52.3646 55.9128C52.2435 56.1541 52.1935 56.4248 52.2203 56.6934L52.4284 58.7835C52.482 59.3287 52.2642 59.8669 51.8363 60.2308L50.0674 61.7611C49.8632 61.9376 49.7135 62.1685 49.6353 62.4269L49.0264 64.4422C48.8532 65.0161 48.3818 65.4574 47.7967 65.5938C47.7545 65.6037 47.7125 65.6155 47.6713 65.6292L45.6992 66.2838C45.443 66.3689 45.2162 66.5249 45.0452 66.7337L43.7085 68.3662C43.346 68.8094 42.7888 69.0366 42.2183 68.9715C42.1995 68.9693 42.1805 68.9676 42.1617 68.9663L39.8967 68.8027C39.6276 68.783 39.3582 68.8404 39.1204 68.9679L37.2859 69.9511C36.7923 70.2143 36.2026 70.2129 35.7084 69.9477C35.6967 69.9414 35.685 69.9353 35.6732 69.9295L33.6265 68.9029C33.4274 68.8031 33.2086 68.7515 32.9873 68.7515C32.9403 68.7515 32.8931 68.7539 32.8459 68.7585L30.7558 68.9668C30.2115 69.0204 29.6724 68.8027 29.3085 68.3746L27.7781 66.6057C27.6015 66.4015 27.3706 66.2518 27.1123 66.1737L25.0971 65.5649C24.5232 65.3915 24.0818 64.9203 23.9453 64.3352C23.9355 64.2928 23.9237 64.2509 23.91 64.2097L23.2554 62.2376C23.1704 61.9813 23.0145 61.7546 22.8056 61.5836L21.1728 60.2466C20.7298 59.8842 20.5035 59.3271 20.5677 58.7565C20.5698 58.7377 20.5715 58.7189 20.573 58.7001L20.7368 56.4351C20.7563 56.1658 20.6989 55.8966 20.5714 55.6586L19.5882 53.8244C19.325 53.3308 19.3263 52.7409 19.5916 52.2466C19.5977 52.235 19.6037 52.2235 19.6097 52.2118L20.6364 50.1652C20.7575 49.924 20.8075 49.6531 20.7807 49.3845L20.5725 47.2942C20.5189 46.749 20.7366 46.2109 21.1647 45.847L22.9336 44.3167C23.1378 44.1402 23.2876 43.9092 23.3656 43.6507L23.9744 41.6356C24.1478 41.0615 24.619 40.6203 25.2042 40.484C25.2465 40.4741 25.2884 40.4623 25.3296 40.4486L27.3018 39.794C27.558 39.7089 27.7848 39.5529 27.9558 39.3441L29.2926 37.7114C29.6551 37.2684 30.2129 37.0414 30.7826 37.1063C30.8015 37.1084 30.8204 37.1102 30.8392 37.1114L33.1042 37.2751C33.3733 37.2944 33.6426 37.2373 33.8806 37.1097L35.715 36.1265C36.2083 35.8632 36.7983 35.8646 37.2926 36.1299C37.3041 36.1361 37.3158 36.1422 37.3275 36.148L39.3742 37.1747C39.6154 37.2958 39.8859 37.3454 40.1549 37.3192L42.2451 37.1109C42.7892 37.056 43.3286 37.275 43.6924 37.703L45.2229 39.472C45.3995 39.6761 45.6303 39.8258 45.8887 39.904L47.9039 40.5128C48.4778 40.6861 48.9192 41.1574 49.0556 41.7425C49.0655 41.7848 49.0773 41.8268 49.091 41.868L49.7456 43.84C49.8305 44.0962 49.9865 44.323 50.1954 44.494L51.828 45.8309ZM48.9034 37.8423C48.8579 37.8265 48.8124 37.8102 48.7662 37.7958L46.3785 33.6602L64.166 2.85155H69.1051L48.9034 37.8423Z" fill="black"/>
<path d="M19.5967 17.2144H19.5957C18.8083 17.2144 18.1705 17.8528 18.1705 18.6401C18.1705 19.4275 18.8093 20.0659 19.5967 20.0659C20.3842 20.0659 21.0225 19.4275 21.0225 18.6401C21.0225 17.8528 20.3842 17.2144 19.5967 17.2144Z" fill="black"/>
<path d="M40.0679 50.1875C40.0679 47.829 38.1549 45.9102 35.8038 45.9102C34.5568 45.9102 33.3761 46.4554 32.5643 47.4062C32.053 48.0051 32.124 48.905 32.7227 49.4163C33.3216 49.9276 34.2216 49.8566 34.7329 49.2579C35.0021 48.9426 35.3924 48.7619 35.8038 48.7619C36.5827 48.7619 37.2163 49.4015 37.2163 50.1876C37.2163 50.575 37.0649 50.9375 36.7898 51.2081C36.4857 51.5076 36.3317 51.9274 36.3702 52.3524C36.4087 52.7773 36.6354 53.163 36.9883 53.4029C37.5755 53.8023 37.9259 54.4658 37.9259 55.1777C37.9259 56.357 36.9739 57.3164 35.8038 57.3164C35.3345 57.3164 34.8898 57.1651 34.5179 56.879C33.8935 56.3989 32.9984 56.5157 32.5185 57.1399C32.0384 57.764 32.1552 58.6592 32.7793 59.1393C33.6543 59.8122 34.7001 60.168 35.8038 60.168C38.5463 60.168 40.7775 57.9293 40.7775 55.1777C40.7775 54.0126 40.3736 52.903 39.6579 52.0232C39.9263 51.4573 40.0679 50.8338 40.0679 50.1875Z" fill="black"/>
</svg>
