<svg width="73" height="73" viewBox="0 0 73 73" fill="none" xmlns="http://www.w3.org/2000/svg">
<g clip-path="url(#clip0)">
<path fill-rule="evenodd" clip-rule="evenodd" d="M65.8711 22.2426H7.12891H4.27734C2.70898 22.2426 1.42578 23.5256 1.42578 25.0941V59.3129C1.42578 60.8812 2.70898 62.1644 4.27734 62.1644H68.7227C70.291 62.1644 71.5742 60.8812 71.5742 59.3129V25.0941C71.5742 23.5258 70.291 22.2426 68.7227 22.2426H65.8711ZM12.832 27.9457H22.5322H50.4677H60.168C60.168 31.0954 62.7214 33.6488 65.8711 33.6488V50.7582C62.7214 50.7582 60.168 53.3116 60.168 56.4613H50.4698H22.5323H12.832C12.832 53.3116 10.2786 50.7582 7.12891 50.7582V33.6488C10.2787 33.6488 12.832 31.0954 12.832 27.9457Z" fill="#88DF8E"/>
<path fill-rule="evenodd" clip-rule="evenodd" d="M16.5391 42.2035C16.5391 36.6177 18.8344 31.5687 22.5322 27.9457H12.832C12.832 31.0954 10.2786 33.6488 7.12891 33.6488V50.7582C10.2786 50.7582 12.832 53.3116 12.832 56.4613H22.5322C18.8344 52.8383 16.5391 47.7893 16.5391 42.2035Z" fill="#E0EF9B"/>
<path fill-rule="evenodd" clip-rule="evenodd" d="M22.5323 27.9457C18.8346 31.5687 16.5392 36.6177 16.5392 42.2035C16.5392 47.7893 18.8346 52.8383 22.5323 56.4613H50.4698C54.2524 52.7547 56.4609 47.6364 56.4609 42.2035C56.4609 36.6177 54.1656 31.5687 50.4678 27.9457H22.5323ZM22.3135 42.2034C22.3135 34.3684 28.665 28.0168 36.5 28.0168C44.3349 28.0168 50.6865 34.3684 50.6865 42.2034C50.6865 50.0385 44.3349 56.3899 36.5 56.3899C28.665 56.3899 22.3135 50.0385 22.3135 42.2034Z" fill="#88DF8E"/>
<path d="M46.5215 52.2326C52.0608 46.6933 52.0608 37.7122 46.5215 32.1729C40.9821 26.6335 32.0011 26.6335 26.4618 32.1729C20.9224 37.7122 20.9224 46.6933 26.4618 52.2326C32.0011 57.772 40.9821 57.772 46.5215 52.2326Z" fill="#E0EF9B"/>
<path fill-rule="evenodd" clip-rule="evenodd" d="M50.4679 27.9457C54.1657 31.5687 56.461 36.6177 56.461 42.2035C56.461 47.6364 54.2525 52.7547 50.4699 56.4613H60.1681C60.1681 53.3116 62.7215 50.7582 65.8712 50.7582V33.6488C62.7215 33.6488 60.1681 31.0954 60.1681 27.9457H50.4679Z" fill="#E0EF9B"/>
<path fill-rule="evenodd" clip-rule="evenodd" d="M60.1675 16.5391H12.8324H9.98059C8.41223 16.5391 7.12903 17.8221 7.12903 19.3906V22.2425H65.8708V19.3906C65.8708 17.8226 64.5876 16.5391 63.0192 16.5391H60.1675Z" fill="#B8ECBB"/>
<path fill-rule="evenodd" clip-rule="evenodd" d="M12.8324 13.6874V16.5391H60.1675V13.6874C60.1675 12.1196 58.8843 10.8358 57.3159 10.8358H15.684C14.1156 10.8358 12.8324 12.1189 12.8324 13.6874Z" fill="#88DF8E"/>
<path d="M68.7227 20.8166H67.2967V19.3906C67.2967 17.0321 65.3779 15.1133 63.0194 15.1133H61.5933V15.1132V13.6874C61.5933 11.3289 59.6745 9.41003 57.316 9.41003H15.684C13.3255 9.41003 11.4067 11.3289 11.4067 13.6874V15.1133V15.1134H9.98061C7.62208 15.1134 5.70327 17.0323 5.70327 19.3908V20.8167H4.27734C1.91882 20.8167 0 22.7355 0 25.0941V59.3128C0 61.6713 1.91882 63.5901 4.27734 63.5901H68.7227C71.0812 63.5901 73 61.6713 73 59.3128V25.0941C73 22.7354 71.0812 20.8166 68.7227 20.8166ZM14.2582 15.1133V13.6874C14.2582 12.9012 14.8978 12.2616 15.684 12.2616H57.316C58.1022 12.2616 58.7418 12.9012 58.7418 13.6874V15.1133V15.1134L14.2582 15.1133ZM8.55483 19.3906C8.55483 18.6045 9.19444 17.9649 9.98061 17.9649H63.0192C63.8054 17.9649 64.445 18.6045 64.445 19.3906V20.8166H8.55483V19.3906ZM70.1484 59.3127C70.1484 60.0988 69.5088 60.7384 68.7227 60.7384H4.27734C3.49117 60.7384 2.85156 60.0988 2.85156 59.3127V25.0939C2.85156 24.3077 3.49117 23.6681 4.27734 23.6681H68.7227C69.5088 23.6681 70.1484 24.3077 70.1484 25.0939V59.3127Z" fill="black"/>
<path d="M65.8711 32.2229C63.5126 32.2229 61.5938 30.3041 61.5938 27.9456C61.5938 27.1582 60.9554 26.5198 60.168 26.5198H12.832C12.0446 26.5198 11.4062 27.1582 11.4062 27.9456C11.4062 30.3041 9.48743 32.2229 7.12891 32.2229C6.34145 32.2229 5.70312 32.8614 5.70312 33.6487V50.7581C5.70312 51.5454 6.34145 52.1838 7.12891 52.1838C9.48743 52.1838 11.4062 54.1027 11.4062 56.4612C11.4062 57.2485 12.0446 57.887 12.832 57.887H60.168C60.9554 57.887 61.5938 57.2485 61.5938 56.4612C61.5938 54.1027 63.5126 52.1838 65.8711 52.1838C66.6586 52.1838 67.2969 51.5454 67.2969 50.7581V33.6487C67.2969 32.8614 66.6586 32.2229 65.8711 32.2229ZM55.0352 42.2034C55.0352 46.9745 53.1085 51.6295 49.7381 55.0354H45.382C49.4459 52.2139 52.1124 47.5145 52.1124 42.2034C52.1124 36.8922 49.4459 32.1928 45.382 29.3713H49.7365C53.156 32.8194 55.0352 37.3613 55.0352 42.2034ZM23.2636 55.0354C19.8442 51.5874 17.9648 47.0456 17.9648 42.2034C17.9648 37.3613 19.844 32.8194 23.2636 29.3713H27.608C25.4231 30.8877 23.6583 32.9332 22.4833 35.3225C22.1358 36.0292 22.427 36.8836 23.1336 37.2312C23.8403 37.5786 24.6948 37.2876 25.0423 36.5809C27.2075 32.1778 31.5979 29.4426 36.5001 29.4426C43.5365 29.4426 49.2609 35.167 49.2609 42.2034C49.2609 49.2397 43.5365 54.9641 36.5001 54.9641C31.5979 54.9641 27.2075 52.2287 25.0423 47.8258C24.6947 47.1192 23.8401 46.8279 23.1336 47.1755C22.427 47.5231 22.1358 48.3776 22.4833 49.0842C23.6583 51.4736 25.4231 53.5191 27.608 55.0354H23.2636ZM8.55469 49.4756V34.9312C11.3437 34.3627 13.5461 32.1603 14.1147 29.3713H19.479C16.6463 33.0399 15.1133 37.4984 15.1133 42.2034C15.1133 46.9083 16.6461 51.367 19.4789 55.0354H14.1147C13.5462 52.2464 11.3438 50.0442 8.55469 49.4756ZM64.4453 49.4756C61.6563 50.044 59.4539 52.2464 58.8853 55.0354H53.5121C56.3184 51.3699 57.8867 46.8346 57.8867 42.2034C57.8867 37.4983 56.3537 33.0399 53.521 29.3713H58.8853C59.4538 32.1605 61.6563 34.3627 64.4453 34.9312V49.4756Z" fill="black"/>
<path d="M36.1521 46.1666C35.8982 46.1665 35.6595 46.0677 35.48 45.888C34.9232 45.3315 34.0206 45.3314 33.4637 45.888C32.9069 46.4448 32.9067 47.3474 33.4637 47.9045C33.92 48.3609 34.4721 48.6862 35.0745 48.8635V49.3324C35.0745 50.1197 35.7128 50.7582 36.5003 50.7582C37.2877 50.7582 37.9261 50.1197 37.9261 49.3324V48.5807C38.2587 48.4048 38.567 48.1784 38.8407 47.9046C39.5589 47.1865 39.9544 46.2318 39.9544 45.2162C39.9544 44.2006 39.5589 43.2459 38.8407 42.5277L36.1762 39.8632C35.9967 39.6837 35.8977 39.4449 35.8977 39.1911C35.8977 38.9373 35.9966 38.6985 36.1762 38.519C36.3557 38.3393 36.5944 38.2405 36.8483 38.2405C37.1022 38.2405 37.3409 38.3393 37.5204 38.519C38.0772 39.0756 38.98 39.0756 39.5369 38.519C40.0937 37.9622 40.0937 37.0594 39.5369 36.5025C39.0723 36.0378 38.5162 35.719 37.9262 35.5457V35.0746C37.9262 34.2873 37.2879 33.6488 36.5004 33.6488C35.713 33.6488 35.0746 34.2873 35.0746 35.0746V35.8277C34.7454 36.0011 34.4365 36.2259 34.1599 36.5024C32.6775 37.9847 32.6775 40.3969 34.1599 41.8794L36.8244 44.5439C37.0039 44.7234 37.1028 44.9622 37.1028 45.216C37.1028 45.4698 37.004 45.7086 36.8244 45.8881C36.6446 46.0678 36.4059 46.1666 36.1521 46.1666Z" fill="black"/>
<path d="M23.7393 42.2034C23.7393 41.4161 23.101 40.7776 22.3135 40.7776H22.3125C21.5251 40.7776 20.8873 41.4161 20.8873 42.2034C20.8873 42.9907 21.5261 43.6292 22.3135 43.6292C23.101 43.6292 23.7393 42.9908 23.7393 42.2034Z" fill="black"/>
</g>
<defs>
<clipPath id="clip0">
<rect width="73" height="73" fill="white"/>
</clipPath>
</defs>
</svg>
