<svg width="73" height="73" viewBox="0 0 73 73" fill="none" xmlns="http://www.w3.org/2000/svg">
<g clip-path="url(#clip0)">
<path fill-rule="evenodd" clip-rule="evenodd" d="M49.8758 33.9479C49.3099 34.4922 49.2924 35.3925 49.8369 35.9585L52.5691 38.7923L52.0604 42.6708C51.9991 42.9681 52.0319 43.2872 52.175 43.5812C52.5195 44.2886 53.3724 44.5828 54.0797 44.2383L57.615 42.5175L61.2389 44.2439C61.4814 44.3596 61.7604 44.406 62.0464 44.3663C62.8246 44.2587 63.3683 43.5405 63.2606 42.7623L62.716 38.8644L65.4187 36.0136C65.6374 35.8094 65.7941 35.5351 65.8494 35.2177C65.9847 34.4425 65.466 33.7044 64.691 33.569L60.8171 32.8828L58.9012 29.3584C58.7728 29.1227 58.5767 28.9204 58.3222 28.7847C57.6301 28.4156 56.7698 28.6773 56.4006 29.3696L54.551 32.8415L50.6489 33.5666C50.3677 33.609 50.0964 33.7357 49.8758 33.9479Z" fill="#FFA300"/>
<path fill-rule="evenodd" clip-rule="evenodd" d="M49.8369 35.9586C49.2926 35.3927 49.31 34.4925 49.8759 33.948C50.0964 33.7358 50.3678 33.6091 50.6489 33.5667L54.551 32.8416L56.4007 29.3697C56.7698 28.6776 57.6301 28.4158 58.3222 28.7848C58.5767 28.9205 58.7729 29.1229 58.9012 29.3585L60.8172 32.8829L64.691 33.5692C65.4662 33.7045 65.9848 34.4426 65.8495 35.2178C65.794 35.5353 65.6375 35.8096 65.4187 36.0137L62.716 38.8645L63.2607 42.7625C63.3683 43.5407 62.8247 44.2588 62.0465 44.3665C61.7603 44.406 61.4814 44.3596 61.2389 44.244L57.615 42.5177L54.0799 44.2384C53.3724 44.5829 52.5196 44.2886 52.1752 43.5813C52.0321 43.2873 51.9993 42.9683 52.0606 42.6709L52.5693 38.7924L49.8369 35.9586ZM43.7365 19.3906V53.6094H68.7227C70.2911 53.6094 71.5743 52.3262 71.5743 50.7578V22.2422C71.5743 20.6738 70.2911 19.3906 68.7227 19.3906H43.7365Z" fill="#FF4E00"/>
<path fill-rule="evenodd" clip-rule="evenodd" d="M43.7364 53.6094V19.3906H4.27734C2.70898 19.3906 1.42578 20.6738 1.42578 22.2422V29.3711C5.36293 29.3711 8.55469 32.5628 8.55469 36.5C8.55469 40.4372 5.36293 43.6289 1.42578 43.6289V50.7578C1.42578 52.3262 2.70898 53.6094 4.27734 53.6094H43.7364Z" fill="white"/>
<path d="M68.7227 17.9648H30.6252C29.8378 17.9648 29.1994 18.6032 29.1994 19.3906C29.1994 20.1781 29.8378 20.8164 30.6252 20.8164H42.3106V52.1836H4.27734C3.49117 52.1836 2.85156 51.544 2.85156 50.7578V44.9359C6.89237 44.2551 9.98047 40.7314 9.98047 36.5C9.98047 32.2686 6.89237 28.7449 2.85156 28.0641V22.2422C2.85156 21.456 3.49117 20.8164 4.27734 20.8164H17.7932C18.5806 20.8164 19.219 20.1781 19.219 19.3906C19.219 18.6032 18.5806 17.9648 17.7932 17.9648H4.27734C1.91882 17.9648 0 19.8837 0 22.2422V29.3711C0 30.1586 0.638322 30.7969 1.42578 30.7969C4.57048 30.7969 7.12891 33.3553 7.12891 36.5C7.12891 39.6447 4.57048 42.2031 1.42578 42.2031C0.638322 42.2031 0 42.8414 0 43.6289V50.7578C0 53.1163 1.91882 55.0352 4.27734 55.0352H68.7227C71.0812 55.0352 73 53.1163 73 50.7578V22.2422C73 19.8837 71.0812 17.9648 68.7227 17.9648ZM70.1484 50.7578C70.1484 51.544 69.5088 52.1836 68.7227 52.1836H45.1622V20.8164H68.7227C69.5088 20.8164 70.1484 21.456 70.1484 22.2422V50.7578Z" fill="black"/>
<path d="M64.9396 32.1655L61.7419 31.599L60.1539 28.6779C60.1537 28.6776 60.1536 28.6773 60.1534 28.677C59.8868 28.1876 59.4856 27.7899 58.993 27.527C57.6081 26.7886 55.8809 27.3143 55.1421 28.6996L53.6154 31.5657L50.4085 32.1616C49.8336 32.2539 49.3081 32.5159 48.887 32.9209C47.7555 34.0096 47.7205 35.8159 48.8102 36.9486L51.0659 39.2881L50.6522 42.4428C50.5411 43.0449 50.6239 43.6531 50.8928 44.2058C51.3859 45.2184 52.4033 45.8082 53.4604 45.8082C53.8786 45.8082 54.303 45.7158 54.7037 45.5208L57.6215 44.1006L60.6244 45.531C61.1257 45.7704 61.6849 45.8567 62.2418 45.7794C63.7975 45.5643 64.8882 44.1235 64.6727 42.5657L64.223 39.3477L66.4283 37.0218C66.8643 36.6007 67.1495 36.063 67.254 35.4637C67.385 34.7136 67.2161 33.9575 66.7783 33.3345C66.3405 32.7108 65.6863 32.2957 64.9396 32.1655ZM64.384 35.0329L61.6813 37.8836C61.3827 38.1984 61.2439 38.6321 61.3039 39.0618L61.8523 42.9568L58.2283 41.2305C57.8365 41.0438 57.3813 41.0458 56.9911 41.2356L53.4568 42.9588C53.4638 42.9249 53.4697 42.8906 53.4741 42.8564L53.9827 38.9779C54.0391 38.5477 53.8965 38.1153 53.5954 37.8029L50.8606 34.9768C50.8769 34.9744 50.8933 34.9717 50.9094 34.9686L54.8115 34.2434C55.2381 34.1641 55.6052 33.895 55.8094 33.512L57.6512 30.0445L59.5643 33.564C59.7716 33.9453 60.141 34.2113 60.5683 34.287L64.4459 34.9713C64.4248 34.9911 64.404 35.0118 64.384 35.0329Z" fill="black"/>
<path d="M14.4539 40.7774C13.6664 40.7774 13.0281 41.4158 13.0281 42.2032C13.0281 42.9907 13.6664 43.629 14.4539 43.629H17.6154C18.4028 43.629 19.0412 42.9907 19.0412 42.2032C19.0412 41.4158 18.4028 40.7774 17.6154 40.7774H17.4604V30.797C17.4604 30.2875 17.1887 29.8169 16.7475 29.5623C16.3065 29.3075 15.763 29.3076 15.3217 29.5623L13.741 30.4749C13.059 30.8686 12.8253 31.7406 13.2191 32.4225C13.5106 32.9274 14.0642 33.1864 14.6088 33.1273V40.7774H14.4539Z" fill="black"/>
<path d="M37.4984 40.7773H24.2098C23.4224 40.7773 22.7841 41.4157 22.7841 42.2031C22.7841 42.9906 23.4224 43.6289 24.2098 43.6289H37.4985C38.2858 43.6289 38.9243 42.9906 38.9243 42.2031C38.9243 41.4157 38.2859 40.7773 37.4984 40.7773Z" fill="black"/>
<path d="M37.4984 35.0739H24.2098C23.4224 35.0739 22.7841 35.7122 22.7841 36.4996C22.7841 37.2871 23.4224 37.9254 24.2098 37.9254H37.4985C38.2858 37.9254 38.9243 37.2871 38.9243 36.4996C38.9243 35.7122 38.2859 35.0739 37.4984 35.0739Z" fill="black"/>
<path d="M37.4984 29.3706H24.2098C23.4224 29.3706 22.7841 30.0089 22.7841 30.7964C22.7841 31.5838 23.4224 32.2222 24.2098 32.2222H37.4985C38.2858 32.2222 38.9243 31.5838 38.9243 30.7964C38.9243 30.0089 38.2859 29.3706 37.4984 29.3706Z" fill="black"/>
<path d="M24.2098 20.8164C24.9972 20.8164 25.6356 20.1781 25.6356 19.3906C25.6356 18.6032 24.9972 17.9648 24.2098 17.9648H24.2088C23.4213 17.9648 22.7836 18.6032 22.7836 19.3906C22.7836 20.1781 23.4223 20.8164 24.2098 20.8164Z" fill="black"/>
</g>
<defs>
<clipPath id="clip0">
<rect width="73" height="73" fill="white"/>
</clipPath>
</defs>
</svg>
