<svg width="67" height="73" viewBox="0 0 67 73" fill="none" xmlns="http://www.w3.org/2000/svg">
<path fill-rule="evenodd" clip-rule="evenodd" d="M27.1646 46.9592C24.1032 46.9592 23.8905 50.5646 20.829 50.5646C18.3924 50.5646 17.7603 48.2805 16.0602 47.3483L2.13306 71.5745H64.8674L50.9403 47.3485C49.2402 48.2806 48.6081 50.5646 46.1714 50.5646C43.11 50.5646 42.8973 46.9592 39.8358 46.9592C36.7744 46.9592 36.5617 50.5646 33.5002 50.5646C30.4388 50.5646 30.2261 46.9592 27.1646 46.9592Z" fill="#5CD0B3"/>
<path fill-rule="evenodd" clip-rule="evenodd" d="M20.829 50.5648C23.8904 50.5648 24.1032 46.9594 27.1646 46.9594C30.2261 46.9594 30.4388 50.5648 33.5002 50.5648C36.5617 50.5648 36.7744 46.9594 39.8358 46.9594C42.8973 46.9594 43.11 50.5648 46.1714 50.5648C48.6081 50.5648 49.2401 48.2808 50.9402 47.3486L41.1923 30.3924C40.4088 29.0309 39.2716 27.9195 37.9161 27.1372C37.409 26.8445 36.8853 26.6076 36.3518 26.4247C34.4679 25.7787 32.4632 25.8052 30.6487 26.4196C28.6668 27.0907 26.9117 28.4631 25.7877 30.4273L16.0601 47.3483C17.7603 48.2808 18.3924 50.5648 20.829 50.5648Z" fill="white"/>
<path fill-rule="evenodd" clip-rule="evenodd" d="M30.6487 4.27734V26.4196C32.4633 25.8052 34.4679 25.7788 36.3518 26.4247V16.5676V4.27734C36.3518 2.70898 35.0687 1.42578 33.5002 1.42578C31.9317 1.42578 30.6487 2.70884 30.6487 4.27734Z" fill="#C7D9DA"/>
<path fill-rule="evenodd" clip-rule="evenodd" d="M36.3518 4.27727V16.5675C42.0561 13.2258 44.6824 20.04 50.6096 16.5675V4.27727C44.6824 7.74976 42.0561 0.935386 36.3518 4.27727Z" fill="#FF0000"/>
<path d="M66.1034 70.8637L42.4279 29.6811C41.5338 28.1272 40.22 26.8205 38.6288 25.9023C38.3502 25.7414 38.0659 25.596 37.7775 25.463V17.4373C39.622 16.6316 40.9866 17.1812 42.8026 17.9143C44.0677 18.4252 45.5109 19.0078 47.1945 19.0078C48.4345 19.0078 49.8048 18.6917 51.3302 17.798C51.7669 17.5422 52.0353 17.0738 52.0353 16.5678V4.27733C52.0353 3.76634 51.7618 3.2944 51.3185 3.04033C50.8751 2.78626 50.3295 2.78882 49.8889 3.04717C47.5014 4.44586 45.8991 3.79884 43.8701 2.97973C42.0846 2.25886 39.935 1.39284 37.2839 2.28581C36.5661 0.927896 35.1398 0 33.5001 0C31.1416 0 29.2228 1.91881 29.2228 4.27733V25.4534C27.2671 26.3408 25.6405 27.8135 24.5515 29.7168L23.5937 31.3829C23.2013 32.0656 23.4364 32.9372 24.1192 33.3296C24.8022 33.7221 25.6735 33.4867 26.066 32.804L27.0253 31.1354C28.0196 29.3977 29.6282 28.154 31.5547 27.6336C33.4742 27.1152 35.4801 27.3775 37.2035 28.372C38.3603 29.0395 39.3123 29.9841 39.9562 31.1028L49.0256 46.8787C48.6911 47.1823 48.3983 47.5029 48.1255 47.8033C47.3393 48.6689 46.8896 49.1208 46.0447 49.1208C45.1998 49.1208 44.7503 48.6691 43.9641 47.8033C43.1011 46.8529 41.9191 45.5515 39.7726 45.5515C37.6261 45.5515 36.4441 46.8531 35.5811 47.8033C34.7949 48.6691 34.3454 49.1208 33.5003 49.1208C32.6554 49.1208 32.2058 48.6691 31.4197 47.8033C30.5566 46.8529 29.3747 45.5515 27.2281 45.5515C25.0816 45.5515 23.8995 46.8531 23.0365 47.8033C22.2503 48.6691 21.8008 49.1208 20.9559 49.1208C20.1109 49.1208 19.6614 48.6691 18.8751 47.8033C18.6022 47.5029 18.3095 47.1823 17.975 46.8787L19.67 43.9305C20.0623 43.2478 19.8272 42.3763 19.1444 41.9839C18.4613 41.5912 17.59 41.8266 17.1977 42.5094L0.89687 70.8637C0.643366 71.3049 0.644079 71.8478 0.899009 72.2884C1.1538 72.729 1.62416 73.0001 2.13302 73.0001H64.8673C65.3761 73.0001 65.8465 72.729 66.1013 72.2884C66.3562 71.8478 66.3569 71.3049 66.1034 70.8637ZM42.8025 5.62384C44.5402 6.32518 46.6135 7.16211 49.1837 6.43953V15.7024C47.1714 16.6023 45.6927 16.0056 43.8701 15.2698C42.1975 14.5946 40.2037 13.7906 37.7775 14.4272V5.14677C39.6222 4.34121 40.9886 4.89156 42.8025 5.62384ZM32.0744 24.6246V4.27733C32.0744 3.49116 32.714 2.85156 33.5001 2.85156C34.2863 2.85156 34.9259 3.49116 34.9259 4.27733V24.6225C33.9856 24.4896 33.0276 24.49 32.0744 24.6246ZM4.59719 70.1484L16.504 49.4367C16.59 49.5291 16.6764 49.6239 16.7641 49.7203C17.6271 50.6707 18.8092 51.9722 20.9556 51.9722C23.1022 51.9722 24.2842 50.6706 25.1472 49.7203C25.9334 48.8546 26.3829 48.4029 27.2279 48.4029C28.0728 48.4029 28.5223 48.8546 29.3085 49.7203C30.1715 50.6707 31.3535 51.9722 33.5 51.9722C35.6465 51.9722 36.8286 50.6706 37.6917 49.7202C38.4778 48.8546 38.9274 48.4027 39.7723 48.4027C40.6172 48.4027 41.0668 48.8544 41.8529 49.7202C42.716 50.6706 43.8979 51.972 46.0444 51.972C48.1909 51.972 49.3731 50.6706 50.2361 49.7202C50.3236 49.6238 50.41 49.5291 50.496 49.4367L62.4028 70.1483H4.59719V70.1484Z" fill="black"/>
<path d="M21.6319 39.0823C22.4192 39.0823 23.0577 38.444 23.0577 37.6565C23.0577 36.869 22.4192 36.2307 21.6319 36.2307H21.6309C20.8436 36.2307 20.2057 36.869 20.2057 37.6565C20.2057 38.444 20.8444 39.0823 21.6319 39.0823Z" fill="black"/>
<path d="M10.6791 30.5621C10.3655 30.5621 10.0518 30.4623 9.79516 30.2484L2.66626 24.5453C2.05317 24.0462 1.95337 23.1623 2.43813 22.5349C2.93716 21.9218 3.82114 21.822 4.44848 22.3068L11.5774 28.0099C12.1905 28.5089 12.2903 29.3929 11.8055 30.0203C11.5204 30.3767 11.1069 30.5621 10.6791 30.5621Z" fill="#FFA300"/>
<path d="M10.6791 43.394C10.3655 43.394 10.0518 43.4938 9.79516 43.7077L2.66626 49.4108C2.05317 49.9099 1.95337 50.7938 2.43813 51.4212C2.93716 52.0343 3.82114 52.1341 4.44848 51.6493L11.5774 45.9462C12.1905 45.4472 12.2903 44.5632 11.8055 43.9358C11.5204 43.5794 11.1069 43.394 10.6791 43.394Z" fill="#FFA300"/>
<path d="M11.4348 38.1756C11.1924 38.3609 10.8787 38.475 10.5365 38.475L1.41152 38.3467C0.627344 38.3324 0 37.6908 0 36.9066C0.0142578 36.1225 0.655859 35.4951 1.44004 35.4951L10.565 35.6234C11.3492 35.6377 11.9766 36.2793 11.9766 37.0635C11.9766 37.5197 11.7627 37.9189 11.4348 38.1756Z" fill="#FFA300"/>
<path d="M56.3184 43.394C56.6321 43.394 56.9458 43.4938 57.2024 43.7077L64.3313 49.4108C64.9444 49.9099 65.0442 50.7938 64.5594 51.4212C64.0604 52.0343 63.1764 52.1341 62.5491 51.6493L55.4202 45.9462C54.8071 45.4472 54.7073 44.5632 55.192 43.9358C55.4772 43.5794 55.8907 43.394 56.3184 43.394Z" fill="#FFA300"/>
<path d="M56.3184 30.5621C56.6321 30.5621 56.9458 30.4623 57.2024 30.2484L64.3313 24.5453C64.9444 24.0462 65.0442 23.1623 64.5594 22.5349C64.0604 21.9218 63.1764 21.822 62.5491 22.3068L55.4202 28.0099C54.8071 28.5089 54.7073 29.3929 55.192 30.0203C55.4772 30.3767 55.8907 30.5621 56.3184 30.5621Z" fill="#FFA300"/>
<path d="M55.5628 35.7804C55.8052 35.595 56.1188 35.481 56.461 35.481L65.586 35.6093C66.3702 35.6235 66.9976 36.2651 66.9976 37.0493C66.9833 37.8335 66.3417 38.4608 65.5575 38.4608L56.4325 38.3325C55.6483 38.3183 55.021 37.6767 55.021 36.8925C55.021 36.4362 55.2349 36.037 55.5628 35.7804Z" fill="#FFA300"/>
</svg>
