<svg width="65" height="60" viewBox="0 0 65 60" fill="none" xmlns="http://www.w3.org/2000/svg">
<path d="M13.1011 1.49992C13.1011 1.49992 7.49147 6.93143 13.1011 12.3629C13.1011 12.3629 18.2654 7.55472 13.1011 1.49992Z" fill="#56C023"/>
<path d="M13.1011 13.6095L12.4778 12.9862C10.6079 11.2054 9.71753 9.24649 9.71753 7.10951C9.71753 3.54786 12.3888 0.96567 12.4778 0.876629L13.1901 0.253342L13.8134 0.96567C19.5121 7.55471 13.8134 12.9862 13.7244 13.0753L13.1011 13.6095ZM13.1011 2.92457C12.4778 3.81499 11.4984 5.32868 11.4984 7.10951C11.4984 8.44512 12.0326 9.78074 13.1011 11.0273C14.0805 9.6917 15.6833 6.6643 13.1011 2.92457Z" fill="black"/>
<path d="M7.1353 6.48622C7.1353 6.48622 4.28599 13.7876 11.6764 16.3698C11.6764 16.3698 14.3476 9.86978 7.1353 6.48622Z" fill="#56C023"/>
<path d="M12.1215 17.5273L11.3201 17.2602C8.91602 16.3698 7.22424 15.0342 6.33383 13.0753C4.82013 9.86978 6.15575 6.39718 6.24479 6.2191L6.60095 5.32869L7.49136 5.68485C15.416 9.33554 12.4777 16.6369 12.4777 16.7259L12.1215 17.5273ZM7.66944 7.82184C7.40232 8.89033 7.22424 10.6712 8.02561 12.2739C8.55986 13.5205 9.62835 14.4999 11.053 15.1232C11.4092 13.6095 11.6763 10.1369 7.66944 7.82184Z" fill="black"/>
<path d="M3.84071 13.0753C3.84071 13.0753 3.57359 20.8218 11.3202 20.9109C11.3202 20.9109 11.7654 13.8766 3.84071 13.0753Z" fill="#56C023"/>
<path d="M12.1216 21.8013H11.3202C8.73805 21.8013 6.77914 20.9999 5.26544 19.4862C2.86133 16.904 2.95037 13.1643 2.95037 13.0753V12.0958L3.92983 12.1848C12.5668 13.0753 12.2106 20.9109 12.2106 20.9999L12.1216 21.8013ZM4.7312 14.1438C4.82024 15.2122 5.26544 16.9931 6.51202 18.2396C7.49147 19.2191 8.73805 19.8424 10.3408 20.0205C10.1627 18.3287 9.27229 15.0342 4.7312 14.1438Z" fill="black"/>
<path d="M1.70361 19.3081C1.70361 19.3081 2.68307 27.0547 10.4296 25.8081C10.4296 25.7191 9.62827 18.7739 1.70361 19.3081Z" fill="#56C023"/>
<path d="M11.4091 26.5205L10.6078 26.6095C8.1146 27.0547 5.97762 26.6095 4.28584 25.2739C1.43652 23.1369 0.902274 19.4862 0.902274 19.3081L0.813232 18.3287L1.79268 18.2396C10.5187 17.6164 11.4091 25.452 11.4091 25.541V26.5205ZM2.86118 20.1095C3.21734 21.178 3.84063 22.7807 5.35433 23.8492C6.42282 24.6506 7.84748 25.0068 9.45022 24.9177C8.91597 23.404 7.40227 20.2876 2.86118 20.1095Z" fill="black"/>
<path d="M1.79272 25.9862C1.79272 25.9862 4.553 33.2876 11.7653 30.2602C11.7653 30.2602 9.45026 23.5821 1.79272 25.9862Z" fill="#56C023"/>
<path d="M12.9229 30.7054L12.1216 31.0615C9.80649 32.041 7.58046 32.13 5.62156 31.2396C2.32703 29.815 0.991418 26.4314 0.991418 26.2533L0.635254 25.3629L1.52566 25.0958C9.89553 22.5136 12.5668 29.815 12.5668 29.904L12.9229 30.7054ZM3.1284 26.5204C3.66265 27.4999 4.73114 28.9246 6.42292 29.6369C7.6695 30.1711 9.09416 30.1711 10.6079 29.7259C9.71745 28.3013 7.58046 25.541 3.1284 26.5204Z" fill="black"/>
<path d="M1.79272 31.4177C1.79272 31.4177 4.553 38.7191 11.7653 35.6917C11.7653 35.6917 9.45026 29.1027 1.79272 31.4177Z" fill="#56C023"/>
<path d="M12.9229 36.2259L12.1216 36.5821C9.80649 37.5616 7.58046 37.6506 5.62156 36.7602C2.32703 35.3355 0.991418 31.952 0.991418 31.7739L0.635254 30.8835L1.52566 30.6164C9.89553 28.0342 12.5668 35.3355 12.5668 35.4246L12.9229 36.2259ZM3.1284 32.041C3.66265 33.0205 4.73114 34.4451 6.42292 35.1575C7.6695 35.6917 9.09416 35.6917 10.6079 35.2465C9.71745 33.8218 7.58046 31.0616 3.1284 32.041Z" fill="black"/>
<path d="M3.12842 37.6506C3.12842 37.6506 7.13527 44.3287 13.7243 40.0547C13.7243 40.0547 10.2517 33.9109 3.12842 37.6506Z" fill="#56C023"/>
<path d="M14.8818 40.3218L14.1694 40.767C12.0325 42.1917 9.89546 42.6369 7.84752 42.1027C4.37492 41.3013 2.41601 38.1848 2.32697 38.0068L1.79272 37.2054L2.77218 36.8492C10.5188 32.8424 14.5256 39.5205 14.5256 39.6095L14.8818 40.3218ZM4.553 38.0068C5.26533 38.8081 6.60094 40.0547 8.29272 40.4999C9.62834 40.767 11.053 40.589 12.4777 39.8766C11.4092 38.541 8.73793 36.2259 4.553 38.0068Z" fill="black"/>
<path d="M5.17651 43.9725C5.17651 43.9725 10.6971 49.404 16.0395 43.7054C16.0395 43.7054 11.1423 38.6301 5.17651 43.9725Z" fill="#56C023"/>
<path d="M17.286 43.7054L16.6627 44.3287C14.8819 46.1985 13.0121 47.178 10.8751 47.178C7.31342 47.267 4.64219 44.6848 4.55315 44.5958L3.84082 43.9725L4.55315 43.3492C11.0531 37.5616 16.5737 43.0821 16.6627 43.1711L17.286 43.7054ZM6.60109 43.9725C7.49151 44.5958 9.09424 45.4862 10.8751 45.4862C12.2107 45.4862 13.5463 44.8629 14.7038 43.7944C13.3682 42.815 10.2518 41.2122 6.60109 43.9725Z" fill="black"/>
<path d="M9.18311 49.1369C9.18311 49.1369 15.5941 53.5889 19.868 47.0889C19.868 47.0889 14.1694 42.904 9.18311 49.1369Z" fill="#56C023"/>
<path d="M21.1146 46.9109L20.6694 47.6232C19.2447 49.7602 17.553 51.0068 15.416 51.452C11.9434 52.1643 8.91598 50.0273 8.73789 49.9383L7.93652 49.315L8.55981 48.6026C13.9913 41.7465 20.4023 46.2876 20.4023 46.3766L21.1146 46.9109ZM10.6078 48.9588C11.5872 49.404 13.279 50.0273 15.0598 49.6711C16.3954 49.404 17.553 48.6026 18.6215 47.3561C17.1078 46.6437 13.8132 45.5752 10.6078 48.9588Z" fill="black"/>
<path d="M14.2585 54.0342C14.2585 54.0342 21.649 56.4383 23.875 48.9588C23.7859 48.9588 17.1079 46.6438 14.2585 54.0342Z" fill="#56C023"/>
<path d="M24.9435 48.4246L24.6764 49.226C23.9641 51.6301 22.6285 53.4109 20.7586 54.3903C17.6422 56.0821 14.0805 54.9246 13.9024 54.9246L13.1011 54.6575L13.4572 53.7671C16.6627 45.6643 24.0531 48.1575 24.1422 48.1575L24.9435 48.4246ZM15.5052 53.4109C16.5737 53.589 18.3545 53.678 19.9572 52.7876C21.1148 52.1643 22.0942 51.0958 22.6285 49.5821C21.0257 49.315 17.5531 49.315 15.5052 53.4109Z" fill="black"/>
<path d="M19.512 58.9314C19.512 58.9314 27.2585 58.7533 26.9024 51.0068C26.9024 51.0068 19.8681 51.0068 19.512 58.9314Z" fill="#56C023"/>
<path d="M27.7036 50.1163V50.9177C27.7927 53.4999 27.1694 55.5478 25.7447 57.0615C23.3406 59.6437 19.6009 59.7328 19.4228 59.7328H18.4434V58.7533C18.7995 50.0273 26.6351 49.9383 26.7242 49.9383L27.7036 50.1163ZM20.4913 57.952C21.5598 57.7739 23.2516 57.2396 24.4982 55.904C25.3886 54.9246 25.9228 53.5889 26.0119 51.9862C24.4091 52.2533 21.1146 53.4109 20.4913 57.952Z" fill="black"/>
<path d="M26.3682 58.9314C26.3682 58.9314 33.9367 57.2396 32.0669 49.6711C32.0669 49.6711 25.2107 51.0068 26.3682 58.9314Z" fill="#56C023"/>
<path d="M32.7791 48.6026L32.9572 49.404C33.5805 51.8972 33.3133 54.0342 32.2448 55.815C30.375 58.8424 26.7243 59.6437 26.6353 59.7328L25.7448 59.9109L25.5668 58.9314C24.2311 50.2944 31.8887 48.6917 31.9777 48.6917L32.7791 48.6026ZM27.1695 57.6848C28.149 57.2396 29.7517 56.4383 30.7311 54.9246C31.4435 53.767 31.7106 52.3424 31.4435 50.8287C29.9298 51.3629 26.9024 53.1437 27.1695 57.6848Z" fill="black"/>
<path d="M52.3683 1.50005C52.3683 1.50005 57.9779 6.93155 52.3683 12.3631C52.3683 12.3631 47.2039 7.55484 52.3683 1.50005Z" fill="#56C023"/>
<path d="M51.834 12.9863C51.745 12.8973 46.1354 7.55484 51.745 0.876757L52.3683 0.164429L53.0806 0.787716C53.1697 0.876757 55.8409 3.45895 55.8409 7.02059C55.8409 9.15758 54.9505 11.1165 53.0806 12.8973L52.4573 13.5206L51.834 12.9863ZM52.4573 11.0274C53.5258 9.78087 54.0601 8.53429 54.0601 7.10964C54.0601 5.32881 53.1697 3.72607 52.4573 2.9247C49.7861 6.66443 51.4779 9.69183 52.4573 11.0274Z" fill="black"/>
<path d="M58.4232 6.48634C58.4232 6.48634 61.2725 13.7877 53.8821 16.3699C53.8821 16.3699 51.1218 9.86991 58.4232 6.48634Z" fill="#56C023"/>
<path d="M53.0806 16.7261C53.0806 16.637 50.1423 9.33566 58.0669 5.68498L58.9573 5.32881L59.3135 6.21922C59.4025 6.3973 60.6491 9.86991 59.2244 13.0754C58.334 15.0343 56.6423 16.3699 54.2381 17.2603L53.4368 17.5274L53.0806 16.7261ZM54.4162 15.2124C55.8409 14.5 56.9094 13.5206 57.4436 12.3631C58.156 10.7603 57.9779 8.9795 57.7998 7.911C53.882 10.137 54.0601 13.6096 54.4162 15.2124Z" fill="black"/>
<path d="M61.7174 13.0754C61.7174 13.0754 61.9845 20.822 54.2379 20.911C54.2379 20.911 53.7927 13.8767 61.7174 13.0754Z" fill="#56C023"/>
<path d="M53.3476 21.0001C53.3476 20.911 52.9024 13.0754 61.6284 12.185L62.6078 12.0959V13.0754C62.6078 13.2535 62.6969 16.9042 60.2928 19.4864C58.8681 21.0001 56.8202 21.8014 54.238 21.8014H53.4366L53.3476 21.0001ZM55.1284 20.0206C56.7311 19.8425 57.9777 19.2192 58.9572 18.2398C60.2037 16.9042 60.6489 15.2124 60.738 14.1439C56.1969 15.0343 55.3065 18.3288 55.1284 20.0206Z" fill="black"/>
<path d="M63.7653 19.3083C63.7653 19.3083 62.7859 27.0548 55.0393 25.8083C55.1283 25.7192 55.8407 18.774 63.7653 19.3083Z" fill="#56C023"/>
<path d="M54.238 25.6302C54.238 25.5411 55.2175 17.7946 63.8545 18.3288L64.8339 18.4179L64.7449 19.3973C64.7449 19.5754 64.2106 23.2261 61.3613 25.3631C59.6695 26.6096 57.5326 27.0548 55.0394 26.6987L54.238 26.6096V25.6302ZM56.1969 25.0069C57.7997 25.0959 59.1353 24.7398 60.2928 23.9384C61.7175 22.8699 62.4298 21.1781 62.786 20.1987C58.0668 20.2877 56.6421 23.4042 56.1969 25.0069Z" fill="black"/>
<path d="M63.6762 25.9864C63.6762 25.9864 60.9159 33.2877 53.7036 30.2603C53.7036 30.2603 56.1077 23.5822 63.6762 25.9864Z" fill="#56C023"/>
<path d="M52.9023 29.9042C52.9023 29.8151 55.6626 22.5137 63.9434 25.0959L64.8338 25.3631L64.4776 26.2535C64.3886 26.4316 63.053 29.8151 59.8475 31.2398C57.8886 32.0411 55.7516 32.0411 53.3475 31.0617L52.5461 30.7055L52.9023 29.9042ZM54.9503 29.7261C56.464 30.1713 57.8886 30.1713 59.1352 29.637C60.827 28.9247 61.8955 27.5001 62.4297 26.5206C57.8886 25.5411 55.7516 28.3014 54.9503 29.7261Z" fill="black"/>
<path d="M63.6762 31.4179C63.6762 31.4179 60.9159 38.7192 53.7036 35.6918C53.7036 35.6918 56.1077 29.1028 63.6762 31.4179Z" fill="#56C023"/>
<path d="M52.9023 35.4247C52.9023 35.3357 55.6626 28.0343 63.9434 30.6165L64.8338 30.8836L64.4776 31.774C64.3886 31.9521 63.053 35.3357 59.8475 36.7603C57.8886 37.5617 55.7516 37.5617 53.3475 36.5822L52.5461 36.2261L52.9023 35.4247ZM54.9503 35.2466C56.464 35.6918 57.8886 35.6918 59.1352 35.1576C60.827 34.4453 61.8955 33.0206 62.4297 32.0411C57.8886 31.0617 55.7516 33.822 54.9503 35.2466Z" fill="black"/>
<path d="M62.3408 37.6507C62.3408 37.6507 58.3339 44.3288 51.7449 40.0548C51.7449 40.0548 55.3065 33.911 62.3408 37.6507Z" fill="#56C023"/>
<path d="M51.0325 39.6096C51.0325 39.5206 55.0394 32.7535 62.786 36.8494L63.5873 37.2946L63.0531 38.0959C62.964 38.274 61.0051 41.3905 57.5325 42.1918C55.4846 42.637 53.3476 42.1918 51.2106 40.8562L50.4983 40.411L51.0325 39.6096ZM53.0805 39.7877C54.5051 40.5 55.9298 40.7672 57.2654 40.411C59.0462 40.0548 60.2928 38.8083 61.0051 37.9179C56.7312 36.2261 54.149 38.5411 53.0805 39.7877Z" fill="black"/>
<path d="M60.2927 43.9726C60.2927 43.9726 54.7722 49.4041 49.4297 43.7055C49.5187 43.7055 54.416 38.6302 60.2927 43.9726Z" fill="#56C023"/>
<path d="M48.8065 43.0822C48.8955 42.9932 54.416 37.4726 60.916 43.2603L61.6284 43.8836L60.916 44.5069C60.827 44.5959 58.1558 47.1781 54.5941 47.0891C52.4571 47.0891 50.4982 46.1096 48.8065 44.2398L48.2722 43.6165L48.8065 43.0822ZM50.7654 43.7055C52.0119 44.774 53.2585 45.3083 54.5941 45.3973C56.375 45.3973 57.9777 44.5959 58.8681 43.8836C55.2174 41.2124 52.101 42.8151 50.7654 43.7055Z" fill="black"/>
<path d="M56.286 49.137C56.286 49.137 49.875 53.5891 45.6011 47.0891C45.6011 47.0891 51.2997 42.9041 56.286 49.137Z" fill="#56C023"/>
<path d="M45.0669 46.3768C45.1559 46.2877 51.4778 41.7466 56.9094 48.6028L57.6217 49.3151L56.8203 49.8494C56.7313 49.9384 53.6148 52.0754 50.1422 51.3631C48.0943 50.9178 46.3135 49.6713 44.8888 47.5343L44.4436 46.822L45.0669 46.3768ZM46.9368 47.3562C47.9162 48.6028 49.1628 49.4042 50.4984 49.6713C52.2792 50.0274 53.971 49.4041 54.9505 48.9589C51.745 45.5754 48.3614 46.6439 46.9368 47.3562Z" fill="black"/>
<path d="M51.2998 54.0343C51.2998 54.0343 43.9094 56.4384 41.6833 48.9589C41.6833 48.9589 48.3614 46.6439 51.2998 54.0343Z" fill="#56C023"/>
<path d="M41.4161 48.1576C41.5052 48.1576 48.8956 45.6644 52.101 53.7672L52.4572 54.6576L51.5668 54.9247C51.3887 55.0138 47.9161 56.0822 44.7106 54.3905C42.8408 53.411 41.5052 51.6302 40.7928 49.2261L40.6147 48.4247L41.4161 48.1576ZM42.8408 49.5822C43.4641 51.0959 44.3545 52.1644 45.512 52.7877C47.1147 53.6781 48.8956 53.5891 49.9641 53.411C47.9161 49.3151 44.4435 49.3151 42.8408 49.5822Z" fill="black"/>
<path d="M45.957 58.9315C45.957 58.9315 38.2104 58.7535 38.5666 51.0069C38.6556 51.0069 45.6899 51.0069 45.957 58.9315Z" fill="#56C023"/>
<path d="M38.6558 50.1165C38.7448 50.1165 46.5804 50.2055 46.9366 58.9315V59.911H45.9571C45.7791 59.911 42.1284 59.822 39.6352 57.2398C38.2106 55.7261 37.4982 53.5891 37.6763 51.0959V50.2945L38.6558 50.1165ZM39.4571 51.9863C39.5462 53.5891 39.9914 54.9247 40.9708 55.9041C42.2174 57.2398 43.9092 57.774 44.9777 57.9521C44.4434 53.411 41.1489 52.2535 39.4571 51.9863Z" fill="black"/>
<path d="M39.1009 58.9316C39.1009 58.9316 31.5324 57.2398 33.4023 49.6713C33.4023 49.6713 40.3475 51.0069 39.1009 58.9316Z" fill="#56C023"/>
<path d="M33.5805 48.7809C33.6695 48.7809 41.3271 50.3836 39.9915 59.0206L39.8134 60.0001L38.923 59.822C38.7449 59.822 35.1832 58.9316 33.3134 55.9042C32.1558 54.1233 31.9778 51.8973 32.6011 49.4932L32.7791 48.6918L33.5805 48.7809ZM34.1147 50.8288C33.8476 52.4316 34.1147 53.7672 34.8271 54.9247C35.8065 56.4384 37.3202 57.3288 38.3887 57.685C38.6558 53.1439 35.6284 51.3631 34.1147 50.8288Z" fill="black"/>
<path fill-rule="evenodd" clip-rule="evenodd" d="M45.3338 25.3631C45.3338 25.096 45.2447 24.9179 45.1557 24.7398L40.8817 18.3288C40.7036 18.0617 40.3475 17.8836 40.0804 17.8836H35.8064H30.553L28.5941 25.0069L30.553 17.8836H26.279C25.9228 17.8836 25.5667 18.0617 25.3886 18.4179L21.1146 24.7398C21.0256 24.9179 20.9365 25.096 20.9365 25.3631H28.416H37.9434H28.416H20.9365C20.9365 25.6302 21.0256 25.8973 21.2036 26.0754L32.4228 38.8083C32.779 39.2535 33.4913 39.2535 33.8475 38.8083C37.5872 34.6234 41.3269 30.2603 45.0667 26.0754C45.2447 25.8973 45.3338 25.6302 45.3338 25.3631ZM33.1352 39.0754L37.8543 25.4521L33.1352 39.0754Z" fill="#71EBFF"/>
<path d="M33.135 40.233C32.6008 40.233 31.9775 39.9659 31.6213 39.5206L20.4022 26.7878C20.046 26.4316 19.8679 25.9864 19.8679 25.4522V25.3631C19.8679 24.9179 19.957 24.5617 20.2241 24.2056L24.409 17.8837C24.7652 17.2604 25.4775 16.8152 26.1898 16.8152H40.0802C40.7926 16.8152 41.4159 17.1713 41.772 17.7056L46.046 24.1165C46.3131 24.4727 46.4912 24.9179 46.4912 25.3631C46.4912 25.8974 46.3131 26.3426 45.957 26.7878C44.7104 28.2124 43.4638 29.6371 42.2172 31.0617C39.8131 33.9111 37.2309 36.7604 34.7378 39.5206C34.2035 39.9659 33.6693 40.233 33.135 40.233ZM22.8063 26.4316L32.6008 37.5617L36.4296 26.4316H22.8063ZM38.9227 25.3631C38.9227 25.4522 38.9227 25.6302 38.8337 25.7193L35.3611 35.6028C37.1419 33.6439 38.8337 31.596 40.5254 29.6371C41.772 28.2124 43.0186 26.7878 44.2652 25.3631C44.2652 25.3631 44.2652 25.3631 44.2652 25.2741C44.2652 25.2741 44.2652 25.2741 44.2652 25.185C44.2652 25.185 44.2652 25.185 44.2652 25.096L39.9912 18.685H31.2652L29.7515 24.3837H37.8542C37.9433 24.3837 38.1213 24.3837 38.2104 24.4727C38.6556 24.5617 38.9227 24.9179 38.9227 25.3631ZM22.6282 24.3837H27.6145L29.1282 18.8631H26.1898C26.1898 18.8631 26.1898 18.9522 26.1008 18.9522L22.6282 24.3837Z" fill="black"/>
<path fill-rule="evenodd" clip-rule="evenodd" d="M13.8133 27.5001C13.8133 16.8152 22.4502 8.17818 33.1352 8.17818C43.8201 8.17818 52.4571 16.8152 52.4571 27.5001C52.4571 38.185 43.8201 46.822 33.1352 46.822C22.4502 46.822 13.8133 38.185 13.8133 27.5001ZM37.8544 4.34941L35.0941 2.92475C33.9365 2.30146 32.4228 2.21242 31.1763 2.92475L28.6831 4.26037L25.6557 4.08229C24.3201 3.9042 22.8954 4.43845 21.916 5.59598L20.1352 7.82201L17.4639 8.71242C16.0393 9.06859 14.8817 10.1371 14.4365 11.5617L13.6352 14.322L11.2311 16.37C10.2516 17.2604 9.62832 18.596 9.80641 19.9316L10.0735 22.7809L8.64887 25.5412C8.02558 26.6987 7.93654 28.2124 8.64887 29.459L9.98449 31.9522L9.80641 34.9795C9.62832 36.3152 10.1626 37.7398 11.3201 38.7193L13.5461 40.5001L14.4365 43.1713C14.7927 44.596 15.8612 45.7535 17.2859 46.1987L20.0461 47.0001L22.0941 49.4042C22.9845 50.3837 24.3201 51.0069 25.6557 50.8289L28.505 50.5617L31.2653 51.9864C32.4228 52.6097 33.9365 52.6987 35.1831 51.9864L37.6763 50.6508L40.7037 50.8289C42.0393 51.0069 43.4639 50.4727 44.4434 49.3152L46.2242 47.0891L48.8955 46.1987C50.3201 45.8426 51.4776 44.7741 51.9228 43.3494L52.7242 40.5891L55.1283 38.5412C56.1078 37.6508 56.7311 36.3152 56.553 34.9795L56.2859 32.1302L57.7105 29.37C58.3338 28.2124 58.4228 26.6987 57.7105 25.4522L56.3749 22.959L56.553 19.9316C56.7311 18.596 56.1968 17.1713 55.0393 16.1919L52.8133 14.4111L51.9228 11.7398C51.5667 10.3152 50.4982 9.15763 49.0735 8.71242L46.3133 7.91105L44.2653 5.50694C43.3749 4.52749 42.0393 3.9042 40.7037 4.08229L37.8544 4.34941Z" fill="#EAEAEA"/>
<path fill-rule="evenodd" clip-rule="evenodd" d="M33.1352 8.17818C22.4502 8.17818 13.8132 16.8152 13.8132 27.5001C13.8132 38.185 22.4502 46.822 33.1352 46.822C43.8201 46.822 52.4571 38.185 52.4571 27.5001C52.4571 16.8152 43.8201 8.17818 33.1352 8.17818ZM21.1146 24.7398L25.3886 18.3289C25.5667 17.9727 25.9228 17.7946 26.279 17.7946H40.1694C40.5256 17.7946 40.7927 17.9727 40.9708 18.2398L45.2447 24.6508C45.5119 25.096 45.5119 25.6302 45.1557 25.9864C41.416 30.2604 37.7653 34.5343 33.9365 38.7193C33.5804 39.1645 32.868 39.1645 32.5119 38.7193L21.2036 26.0754C20.8475 25.7193 20.8475 25.185 21.1146 24.7398Z" fill="#C1C1C1"/>
<path fill-rule="evenodd" clip-rule="evenodd" d="M45.3338 25.3631C45.3338 25.096 45.2447 24.9179 45.1557 24.7398L40.8817 18.3288C40.7036 18.0617 40.3475 17.8836 40.0804 17.8836H35.8064H30.553L28.5941 25.0069L30.553 17.8836H26.279C25.9228 17.8836 25.5667 18.0617 25.3886 18.4179L21.1146 24.7398C21.0256 24.9179 20.9365 25.096 20.9365 25.3631H28.416H37.9434H28.416H20.9365C20.9365 25.6302 21.0256 25.8973 21.2036 26.0754L32.4228 38.8083C32.779 39.2535 33.4913 39.2535 33.8475 38.8083C37.5872 34.6234 41.3269 30.2603 45.0667 26.0754C45.2447 25.8973 45.3338 25.6302 45.3338 25.3631ZM33.1352 39.0754L37.8543 25.4521L33.1352 39.0754Z" fill="#71EBFF"/>
<path d="M33.1352 41.2124C32.2448 41.2124 31.4435 40.8562 30.9092 40.1439L19.69 27.411C19.2448 26.8768 18.9777 26.1645 18.8887 25.4521V25.3631C18.8887 24.7398 19.0668 24.1165 19.4229 23.6713L23.6078 17.3494C24.1421 16.459 25.1215 15.8357 26.19 15.8357H40.0805C41.0599 15.8357 42.0394 16.3699 42.5736 17.1713L46.7585 23.5823C47.1147 24.1165 47.3818 24.7398 47.3818 25.3631C47.3818 26.1645 47.1147 26.8768 46.5805 27.411C45.3339 28.8357 44.0873 30.2604 42.8407 31.685C40.4366 34.5343 37.8544 37.3836 35.3613 40.233C34.827 40.8562 34.0257 41.2124 33.1352 41.2124ZM25.0325 27.411L32.1558 35.5138L35.0051 27.411H25.0325ZM39.9024 25.3631C39.9024 25.5412 39.9024 25.8083 39.8133 26.0754L38.0325 31.0617C38.6558 30.3494 39.19 29.7261 39.8133 29.0138C40.8818 27.7672 41.9503 26.5206 43.1079 25.274L39.5462 19.8425H32.0668L31.0873 23.3151H37.8544C38.0325 23.3151 38.2106 23.3151 38.2996 23.4042C38.3887 23.4042 38.5668 23.4932 38.6558 23.4932C39.4572 23.8494 39.9024 24.5617 39.9024 25.3631ZM24.4983 23.3151H26.9024L27.8818 19.8425H26.8133L24.4983 23.3151Z" fill="black"/>
<path d="M37.9434 7.73297C37.4091 7.64393 36.8749 7.91105 36.6968 8.4453C36.6077 8.97955 36.8749 9.51379 37.4091 9.69187C45.6899 11.6508 51.3886 19.0412 51.3886 27.5001C51.3886 37.5617 43.1968 45.8426 33.0461 45.8426C22.8954 45.8426 14.7036 37.6508 14.7036 27.5001C14.7036 19.0412 20.4913 11.6508 28.6831 9.69187C29.2173 9.60283 29.5735 8.97955 29.3954 8.4453C29.3064 7.91105 28.6831 7.55489 28.1488 7.73297C23.7858 8.80146 19.868 11.2946 17.0187 14.8563C14.0803 18.5069 12.5667 22.87 12.5667 27.5891C12.5667 38.8083 21.7379 47.9795 32.9571 47.9795C44.1762 47.9795 53.3475 38.8083 53.3475 27.5891C53.3475 22.959 51.8338 18.5069 48.8954 14.8563C46.2242 11.2946 42.3064 8.80146 37.9434 7.73297Z" fill="black"/>
<path d="M58.6009 25.0069L57.4434 22.7809L57.6214 20.0206C57.7995 18.2398 57.0872 16.548 55.7516 15.3905L53.7927 13.7878L52.9913 11.4727C52.5461 9.69186 51.2105 8.26721 49.4297 7.73296L46.9365 7.02063L45.0667 4.88365C43.9982 3.54803 42.3064 2.92474 40.6146 3.10282L38.0324 3.28091L35.5393 2.03433C34.0256 1.23296 32.1557 1.23296 30.642 2.03433L28.416 3.19187L25.7447 3.01378C23.9639 2.8357 22.2721 3.54803 21.1146 4.88365L19.5119 6.84255L17.1968 7.64392C15.416 8.08913 13.9913 9.42474 13.4571 11.2056L12.6557 13.6987L10.5187 15.5686C9.18309 16.6371 8.5598 18.3288 8.73788 20.0206L8.91596 22.6028L7.66939 25.096C6.86802 26.6097 6.86802 28.4795 7.66939 29.9932L8.82692 32.2193L8.64884 34.8905C8.47076 36.6713 9.18309 38.3631 10.5187 39.5206L12.4776 41.1234L13.279 43.4384C13.7242 45.2193 15.0598 46.6439 16.8406 47.1782L19.2447 47.8905L21.1146 50.0275C22.1831 51.3631 23.8749 51.9864 25.5666 51.8083L28.0598 51.5412L30.5529 52.7878C31.3543 53.233 32.1557 53.411 33.0461 53.411C33.8475 53.411 34.7379 53.233 35.5393 52.7878L37.7653 51.6302L40.5256 51.8083C42.3064 51.9864 43.9982 51.2741 45.1557 49.9384L46.7584 47.9795L49.0735 47.1782C50.8543 46.733 52.279 45.3973 52.8132 43.6165L53.5256 41.2124L55.6625 39.3425C56.9982 38.2741 57.6214 36.5823 57.4434 34.8905L57.3543 32.3973L58.6009 29.9042C59.4023 28.3905 59.4023 26.6097 58.6009 25.0069ZM56.8201 29.0138L55.3954 31.7741C55.3064 31.9521 55.3064 32.1302 55.3064 32.3083L55.5735 35.1576C55.6625 36.2261 55.3064 37.2056 54.505 37.9179L52.1009 39.9658C51.9228 40.0549 51.8338 40.233 51.8338 40.411L51.0324 43.1713C50.6762 44.2398 49.7858 45.1302 48.7173 45.3083H48.6283L45.9571 46.1987C45.779 46.2878 45.6009 46.3768 45.5119 46.5549L43.731 48.7809C43.0187 49.5823 41.9502 50.0275 40.8817 49.9384L37.8543 49.7604C37.6762 49.7604 37.4982 49.7604 37.3201 49.8494L34.8269 51.185C33.8475 51.7193 32.779 51.7193 31.7995 51.185L29.0393 49.7604C28.8612 49.6713 28.7721 49.6713 28.594 49.6713H28.505L25.6557 49.9384C24.5872 50.0275 23.6077 49.6713 22.8954 48.8699L20.8475 46.4658C20.7584 46.2878 20.5803 46.1987 20.4023 46.1987L17.642 45.3973C16.5735 45.0412 15.6831 44.1508 15.505 43.0823V42.9932L14.6146 40.322C14.5256 40.1439 14.4365 39.9658 14.2584 39.8768L12.0324 38.096C11.231 37.3836 10.7858 36.3152 10.8749 35.2467L11.0529 32.2193C11.0529 32.0412 11.0529 31.8631 10.9639 31.685L9.62829 29.1919C9.09404 28.2124 9.09404 27.1439 9.62829 26.1645L11.0529 23.4042C11.142 23.2261 11.142 23.048 11.142 22.8699L10.8749 20.0206C10.7858 18.9521 11.142 17.9727 11.9434 17.2604L14.3475 15.2124C14.5256 15.1234 14.6146 14.9453 14.6146 14.7672L15.416 12.0069C15.7721 10.9384 16.6625 10.048 17.731 9.86995H17.8201L20.4913 8.97954C20.6694 8.89049 20.8475 8.80145 20.9365 8.62337L22.7173 6.39735C23.4297 5.59597 24.4982 5.15077 25.5666 5.23981L28.594 5.41789C28.7721 5.41789 28.9502 5.41789 29.1283 5.32885L31.6214 3.99324C32.6009 3.45899 33.6694 3.45899 34.6488 3.99324L37.4091 5.41789C37.5872 5.50693 37.7653 5.50693 37.9434 5.50693L40.7927 5.23981C41.8612 5.15077 42.8406 5.50693 43.553 6.3083L45.6009 8.71241C45.6899 8.89049 45.868 8.97954 46.0461 8.97954L48.8064 9.78091C49.8749 10.1371 50.7653 11.0275 50.9434 12.096V12.185L51.8338 14.8562C51.9228 15.0343 52.0119 15.2124 52.1899 15.3015L54.416 17.0823C55.2173 17.7946 55.6625 18.8631 55.5735 19.9316L55.3954 22.959C55.3954 23.1371 55.3954 23.3152 55.4845 23.4932L56.8201 25.9864C57.2653 26.9658 57.2653 28.0343 56.8201 29.0138Z" fill="black"/>
<path d="M33.1352 9.1576C33.6695 9.1576 34.1147 8.7124 34.1147 8.17815C34.1147 7.64391 33.6695 7.1987 33.1352 7.1987C32.601 7.1987 32.1558 7.64391 32.1558 8.17815C32.1558 8.7124 32.601 9.1576 33.1352 9.1576Z" fill="black"/>
<path fill-rule="evenodd" clip-rule="evenodd" d="M28.4648 25.3802L30.5503 18.1507H26.3142C25.9456 18.1507 25.625 18.3577 25.4547 18.6643L21.2918 24.8002C21.1736 24.974 21.1155 25.1771 21.1145 25.3792L28.4648 25.3802Z" fill="#FF7676"/>
<path fill-rule="evenodd" clip-rule="evenodd" d="M35.7188 18.1507L37.8042 25.3802H45.1555C45.1555 25.1556 45.0834 24.932 44.9412 24.7485L40.7612 18.5871C40.5759 18.3137 40.2744 18.1507 39.9548 18.1507H35.7188Z" fill="#FF7676"/>
<path fill-rule="evenodd" clip-rule="evenodd" d="M37.8044 25.3802L35.7189 18.1507H30.5513L28.4658 25.3802H37.8044Z" fill="#FF0000"/>
<path fill-rule="evenodd" clip-rule="evenodd" d="M37.8044 25.3801H28.4648L33.1346 38.4741L37.8044 25.3801Z" fill="#AA0000"/>
<path fill-rule="evenodd" clip-rule="evenodd" d="M33.1345 38.4741L28.4647 25.3801H21.1155C21.1155 25.63 21.2036 25.879 21.3769 26.0704L32.4123 38.3071C32.803 38.7387 33.4661 38.7367 33.8558 38.3071C37.577 34.3076 41.2251 30.1353 44.8912 26.0704C45.0685 25.8751 45.1556 25.6271 45.1556 25.3801H37.8043L33.1345 38.4741Z" fill="#FF0000"/>
</svg>
