<svg width="42" height="65" viewBox="0 0 42 65" fill="none" xmlns="http://www.w3.org/2000/svg">
<path fill-rule="evenodd" clip-rule="evenodd" d="M27.5933 57.7613L32.6473 57.9733C34.2469 58.0406 35.4047 59.4053 35.4047 60.9719C35.4047 62.5563 33.9892 63.7954 32.4061 63.7293L30.2542 63.6392L27.3534 63.5173C25.7538 63.4501 24.5959 62.0853 24.5959 60.5187C24.5972 58.9356 26.0115 57.6965 27.5933 57.7613Z" fill="#FFDCD5"/>
<path fill-rule="evenodd" clip-rule="evenodd" d="M32.6474 57.9733L27.5934 57.7613L25.6611 57.6801C24.0006 57.6102 22.7983 56.1934 22.7983 54.5672C22.7983 52.9853 24.158 51.7336 25.7246 51.7031C25.7855 51.7056 25.8478 51.7056 25.91 51.7056C28.9556 51.8339 31.9999 51.9608 35.0455 52.089C36.706 52.1589 37.9083 53.5757 37.9083 55.2019C37.9083 56.846 36.4382 58.1333 34.7954 58.0647L32.6474 57.9733Z" fill="#FFDCD5"/>
<path fill-rule="evenodd" clip-rule="evenodd" d="M2.09229 38.7654H10.5321V62.644H2.09229V38.7654Z" fill="#FF9346"/>
<path fill-rule="evenodd" clip-rule="evenodd" d="M35.0417 45.3198L37.0044 45.2982C38.717 45.2805 40.2176 46.6414 40.177 48.3553C40.1376 50.0488 38.8516 51.4961 37.12 51.5278C33.9449 51.5875 29.0851 51.6459 25.91 51.7056C25.8478 51.703 25.7856 51.7018 25.7247 51.703C24.1581 51.7335 22.7984 52.9853 22.7984 54.5671C22.7984 56.1921 23.9994 57.6102 25.6612 57.68L27.5934 57.7612C26.0116 57.6965 24.5973 58.9343 24.5973 60.5187C24.5973 62.084 25.7551 63.45 27.3547 63.5173L30.2556 63.6392H21.7459C18.0224 63.6392 14.3001 61.5851 10.5766 61.5698H10.5334V39.838H10.5766C17.2493 39.8126 15.8452 36.0421 22.5165 33.5259C24.6405 32.7248 26.5143 33.9499 27.5439 34.478C30.6911 36.2947 30.5235 37.563 30.1629 39.3962L34.9326 39.3175C36.5829 39.2908 38.0277 40.6124 37.9896 42.2615C37.949 43.8941 36.7099 45.2881 35.0417 45.3198Z" fill="#FFDCD5"/>
<path fill-rule="evenodd" clip-rule="evenodd" d="M29.8519 24.1211V3.80859H2.09229L9.60918 13.9648L2.09229 24.1211H29.8519Z" fill="#FF0000"/>
<path fill-rule="evenodd" clip-rule="evenodd" d="M30.1692 39.3567H32.6346L34.9299 39.3187V3.80859C34.9299 2.41211 33.7874 1.26953 32.3909 1.26953C30.9944 1.26953 29.8518 2.41211 29.8518 3.80859V24.1211V36.3556C30.5272 37.3179 30.3888 38.2319 30.1692 39.3567Z" fill="#C7D9DA"/>
<path d="M41.4465 48.3844C41.4732 47.2558 41.0403 46.1817 40.2278 45.3604C39.7936 44.9211 39.2743 44.5796 38.7081 44.3523C39.042 43.743 39.2375 43.0409 39.2553 42.2919C39.2807 41.1861 38.8554 40.1337 38.0569 39.3301C37.5389 38.8083 36.8952 38.4287 36.1995 38.223V3.80859C36.1995 1.70879 34.4907 0 32.3909 0C30.7355 0 29.325 1.06133 28.8007 2.53906H2.09231C1.61242 2.53906 1.17444 2.80947 0.958616 3.2373C0.742795 3.66514 0.787229 4.17803 1.0716 4.56396L8.02991 13.9648L1.0716 23.3657C0.785959 23.7517 0.742795 24.2646 0.958616 24.6924C1.17444 25.1202 1.61242 25.3906 2.09231 25.3906H28.5823V33.6223C28.4516 33.541 28.317 33.461 28.1761 33.3785C28.1583 33.3684 28.1393 33.3582 28.1202 33.348C28.0225 33.2973 27.9158 33.2401 27.8029 33.1805C26.6539 32.5635 24.5148 31.4146 22.0658 32.3388C18.8755 33.5423 17.3521 35.0429 16.127 36.2489C14.9108 37.4461 14.05 38.2929 11.775 38.5125C11.6582 37.9323 11.1453 37.4956 10.5309 37.4956H2.09231C1.39153 37.4956 0.822776 38.0644 0.822776 38.7651V62.6437C0.822776 63.3445 1.39153 63.9133 2.09231 63.9133H10.5322C11.139 63.9133 11.6455 63.4867 11.7712 62.918C13.0738 63.0741 14.4068 63.4423 15.7994 63.8282C17.719 64.3602 19.7032 64.9086 21.7446 64.9086H30.2302L32.3541 64.9975C32.4113 65 32.4697 65.0013 32.5268 65.0013C33.6046 65.0013 34.6571 64.5798 35.4391 63.8295C36.2364 63.0652 36.6743 62.0509 36.6743 60.9718C36.6743 60.3078 36.5283 59.6794 36.2681 59.1183C36.8775 58.9177 37.4424 58.5825 37.9121 58.1318C38.7297 57.3473 39.1804 56.3063 39.1804 55.2005C39.1804 54.2268 38.8744 53.3267 38.3552 52.5992C40.116 52.0444 41.4008 50.3813 41.4465 48.3844ZM36.7175 42.2335C36.6947 43.2352 35.9482 44.0324 35.0189 44.0502C35.0176 44.0502 35.0163 44.0502 35.0151 44.0502C35.0138 44.0502 35.0125 44.0502 35.0113 44.0502L31.0871 44.1467C30.9995 43.324 30.9614 42.2398 31.2204 40.6491L34.9516 40.5882C35.4378 40.578 35.9126 40.7735 36.2567 41.1201C36.5626 41.4286 36.7264 41.8247 36.7175 42.2335ZM32.3909 2.53906C33.0905 2.53906 33.6605 3.10908 33.6605 3.80859V38.0694L31.6153 38.1037C31.6318 37.5972 31.5746 37.0792 31.3791 36.5485C31.3093 36.3594 31.223 36.1753 31.1214 35.9937V3.80859C31.1214 3.10908 31.6914 2.53906 32.3909 2.53906ZM4.61106 22.8516L10.6299 14.7202C10.9625 14.2721 10.9625 13.6589 10.6299 13.2095L4.61106 5.07812H28.5823V22.8516H4.61106ZM16.4761 61.3793C14.9577 60.9591 13.3975 60.5274 11.8017 60.3662V56.4154C11.8017 55.7146 11.2329 55.1459 10.5322 55.1459C9.83137 55.1459 9.26262 55.7146 9.26262 56.4154V61.3729H3.36184V40.0347H9.26262V44.9909C9.26262 45.6917 9.83137 46.2605 10.5322 46.2605C11.2329 46.2605 11.8017 45.6917 11.8017 44.9909V41.0579C15.1367 40.7875 16.4888 39.4583 17.9094 38.0593C19.0723 36.9142 20.2745 35.7284 22.9621 34.7153C24.3307 34.1986 25.6434 34.9045 26.6019 35.4187C26.7187 35.4821 26.8291 35.5405 26.932 35.5938C28.119 36.2819 28.7944 36.8824 28.9962 37.4283C29.1574 37.8638 29.0648 38.3919 28.8883 39.2869C28.8451 39.5065 28.8007 39.7338 28.7588 39.9699C28.2992 42.5839 28.5151 44.1454 28.6572 45.1775C28.6877 45.3959 28.7144 45.5889 28.7283 45.7514C28.6446 45.8136 28.4414 45.9088 28.1342 45.9354C27.5743 45.985 26.9904 45.7856 26.5714 45.4061C25.4999 44.4361 25.4364 43.7519 25.3323 42.6182C25.2905 42.1713 25.2447 41.6635 25.1254 41.1125C24.9781 40.427 24.3028 39.9902 23.6172 40.1388C22.9317 40.286 22.4962 40.9614 22.6435 41.647C22.7298 42.0494 22.7666 42.4392 22.8047 42.8518C22.8682 43.5348 22.9355 44.2635 23.2389 45.0366C22.2614 47.7725 19.0317 49.4355 17.0093 49.4355C16.3085 49.4355 15.7398 50.0043 15.7398 50.7051C15.7398 51.4059 16.3085 51.9746 17.0093 51.9746C18.4121 51.9746 20.2136 51.4465 21.8411 50.4245C22.0481 50.8777 22.3375 51.298 22.7057 51.6661C22.7171 51.6775 22.7285 51.6877 22.74 51.6979C21.9605 52.4748 21.5314 53.4904 21.5314 54.5683C21.5314 56.2923 22.4861 57.7827 23.8927 58.5C23.5258 59.1081 23.3303 59.7987 23.3303 60.5186C23.3303 61.1813 23.4763 61.8084 23.7365 62.3683H21.7472C20.0473 62.3683 18.3131 61.8884 16.4761 61.3793ZM33.6808 61.9963C33.3532 62.3099 32.9076 62.48 32.4595 62.4609L27.408 62.2489C26.5447 62.2121 25.8681 61.4529 25.8681 60.5186C25.8681 60.139 26.0293 59.7759 26.3213 59.494C26.6323 59.1957 27.05 59.0281 27.4753 59.0281C27.4969 59.0281 27.5185 59.0281 27.5401 59.0294L32.5941 59.2414C33.4573 59.2782 34.134 60.0374 34.134 60.9705C34.134 61.3514 33.9728 61.7145 33.6808 61.9963ZM36.1538 56.2999C35.8047 56.6351 35.3286 56.8153 34.85 56.795L32.7071 56.7049C32.7045 56.7049 32.7032 56.7049 32.7007 56.7049L27.6467 56.4929L25.7145 56.4116C24.7915 56.3735 24.0692 55.5636 24.0692 54.5683C24.0692 54.1607 24.2418 53.771 24.5554 53.4701C24.8918 53.1477 25.3463 52.9687 25.8084 52.975C25.8237 52.975 25.8389 52.9763 25.8541 52.9763C25.8656 52.9763 25.877 52.9763 25.8897 52.9763L34.9948 53.3584C35.9177 53.3965 36.6401 54.2077 36.6401 55.203C36.6401 55.6093 36.4674 55.999 36.1538 56.2999ZM37.0971 50.2582C35.5076 50.2874 33.4612 50.3179 31.482 50.3471C29.5155 50.3763 27.4829 50.4055 25.8986 50.4359C25.8884 50.4359 25.8782 50.4359 25.8681 50.4359C25.3603 50.4385 24.8639 50.2366 24.5021 49.8735C24.172 49.5422 23.9968 49.1182 24.007 48.6789C24.007 48.6688 24.007 48.6599 24.007 48.6497V48.6002C24.3497 48.2143 24.662 47.7966 24.935 47.3472C25.8655 48.1584 26.9599 48.4809 27.9527 48.4809C28.6141 48.4809 29.2311 48.3374 29.7211 48.1025C30.3952 47.7788 30.8751 47.2786 31.11 46.6857L35.0684 46.5893L37.0184 46.5689H37.0387C37.5567 46.5689 38.0594 46.7784 38.4225 47.1453C38.7462 47.4729 38.9189 47.8931 38.9087 48.326C38.8833 49.3911 38.0886 50.2404 37.0971 50.2582Z" fill="black"/>
<path d="M10.5322 49.4342C9.83145 49.4342 9.2627 50.003 9.2627 50.7037C9.2627 51.4045 9.83145 51.9733 10.5322 51.9733C11.233 51.9733 11.8018 51.4045 11.8018 50.7037V50.7025C11.8018 50.0017 11.233 49.4342 10.5322 49.4342Z" fill="black"/>
</svg>
