<svg width="66" height="65" viewBox="0 0 66 65" fill="none" xmlns="http://www.w3.org/2000/svg">
<path fill-rule="evenodd" clip-rule="evenodd" d="M1.90479 14.3881H8.84493V7.61732H3.76681H1.90479V14.3881Z" fill="#FF0000"/>
<path fill-rule="evenodd" clip-rule="evenodd" d="M3.76685 7.61731H8.84497V3.80859C8.84497 2.41211 7.70239 1.26953 6.30591 1.26953C4.90942 1.26953 3.76685 2.41211 3.76685 3.80859V7.61731Z" fill="#DDB9A3"/>
<path fill-rule="evenodd" clip-rule="evenodd" d="M1.90479 14.3881H8.84493V21.1589H1.90479V14.3881Z" fill="white"/>
<path fill-rule="evenodd" clip-rule="evenodd" d="M8.84493 21.1589H1.90479V27.9297H3.76681H8.84493V21.1589Z" fill="#FF0000"/>
<path fill-rule="evenodd" clip-rule="evenodd" d="M8.84497 7.61732H15.7851V14.3881H8.84497V7.61732Z" fill="white"/>
<path fill-rule="evenodd" clip-rule="evenodd" d="M8.84497 14.3881H15.7851V21.1589H8.84497V14.3881Z" fill="#FF0000"/>
<path fill-rule="evenodd" clip-rule="evenodd" d="M8.84497 21.1589H15.7851V27.9297H8.84497V21.1589Z" fill="white"/>
<path fill-rule="evenodd" clip-rule="evenodd" d="M15.7852 7.61732H22.7253V14.3881H15.7852V7.61732Z" fill="#FF0000"/>
<path fill-rule="evenodd" clip-rule="evenodd" d="M15.7852 14.3881H22.7253V21.1589H15.7852V14.3881Z" fill="white"/>
<path fill-rule="evenodd" clip-rule="evenodd" d="M15.7852 21.1589H22.7253V27.9297H15.7852V21.1589Z" fill="#FF0000"/>
<path fill-rule="evenodd" clip-rule="evenodd" d="M22.7251 21.1589V27.9297H43.5454V21.1589V14.3881V7.61732H22.7251V14.3881V21.1589Z" fill="#FFA300"/>
<path fill-rule="evenodd" clip-rule="evenodd" d="M43.5454 7.61732H50.4854V14.3881H43.5454V7.61732Z" fill="#FF0000"/>
<path fill-rule="evenodd" clip-rule="evenodd" d="M43.5454 14.3881H50.4854V21.1589H43.5454V14.3881Z" fill="white"/>
<path fill-rule="evenodd" clip-rule="evenodd" d="M43.5454 21.1589H50.4856V27.9297H43.5454V21.1589Z" fill="#FF0000"/>
<path fill-rule="evenodd" clip-rule="evenodd" d="M50.4856 21.1589H57.4257V27.9297H50.4856V21.1589Z" fill="white"/>
<path fill-rule="evenodd" clip-rule="evenodd" d="M50.4856 14.3881H57.4257V21.1589H50.4856V14.3881Z" fill="#FF0000"/>
<path fill-rule="evenodd" clip-rule="evenodd" d="M50.4856 7.61732H57.4257V14.3881H50.4856V7.61732Z" fill="white"/>
<path fill-rule="evenodd" clip-rule="evenodd" d="M57.4255 7.61732V14.3881H64.3657V7.61732H62.5037H57.4255Z" fill="#FF0000"/>
<path fill-rule="evenodd" clip-rule="evenodd" d="M57.4255 14.3881H64.3657V21.1589H57.4255V14.3881Z" fill="white"/>
<path fill-rule="evenodd" clip-rule="evenodd" d="M64.3657 21.1589H57.4255V27.9297H62.5037H64.3657V21.1589Z" fill="#FF0000"/>
<path fill-rule="evenodd" clip-rule="evenodd" d="M57.4255 7.61731H62.5037V3.80859C62.5037 2.41211 61.3611 1.26953 59.9646 1.26953C58.5681 1.26953 57.4255 2.41211 57.4255 3.80859V7.61731Z" fill="#DDB9A3"/>
<path fill-rule="evenodd" clip-rule="evenodd" d="M62.5037 27.9297H57.4255V61.1914C57.4255 62.5879 58.5681 63.7305 59.9646 63.7305C61.3611 63.7305 62.5037 62.588 62.5037 61.1914V27.9297Z" fill="#DDB9A3"/>
<path fill-rule="evenodd" clip-rule="evenodd" d="M8.84497 61.1914V27.9297H3.76685V61.1914C3.76685 62.5879 4.90942 63.7305 6.30591 63.7305C7.70239 63.7305 8.84497 62.5879 8.84497 61.1914Z" fill="#DDB9A3"/>
<path d="M64.3657 6.34778H63.7732V3.80859C63.7732 1.70854 62.0647 0 59.9646 0C57.8646 0 56.156 1.70854 56.156 3.80859V6.34778H38.8478C38.1467 6.34778 37.5782 6.91615 37.5782 7.61731C37.5782 8.31848 38.1467 8.88685 38.8478 8.88685H42.2759V26.6603H23.9946V8.88685H27.422C28.123 8.88685 28.6915 8.31848 28.6915 7.61731C28.6915 6.91615 28.123 6.34778 27.422 6.34778H10.1145V3.80859C10.1145 1.70854 8.40593 0 6.30587 0C4.20581 0 2.49728 1.70854 2.49728 3.80859V6.34766H1.90479C1.20375 6.34766 0.635254 6.91603 0.635254 7.61719V27.9297C0.635254 28.6308 1.20375 29.1992 1.90479 29.1992H2.49728V61.1914C2.49728 63.2915 4.20581 65 6.30587 65C8.40593 65 10.1145 63.2915 10.1145 61.1914V29.1992H56.156V61.1914C56.156 63.2915 57.8646 65 59.9646 65C62.0647 65 63.7732 63.2915 63.7732 61.1914V29.1992H64.3657C65.0668 29.1992 65.6353 28.6308 65.6353 27.9297V7.61719C65.6353 6.91615 65.0668 6.34778 64.3657 6.34778ZM63.0962 26.6602H58.6951V22.4284H63.0962V26.6602ZM58.6951 19.8894V15.6576H63.0962V19.8894H58.6951ZM44.8149 15.6576C44.8149 15.6576 44.8151 15.6576 44.8149 15.6576H49.216V19.8894H44.8151H44.8149V15.6576ZM51.7551 15.6576H56.156V19.8894H51.7551V15.6576ZM63.0962 8.88685V13.1186H58.6951V8.88685H63.0962ZM58.6951 3.80859C58.6951 3.10857 59.2646 2.53906 59.9646 2.53906C60.6647 2.53906 61.2342 3.10857 61.2342 3.80859V6.34766H58.6951V3.80859ZM56.156 8.88685V13.1186H51.7551V8.88685H56.156ZM49.216 8.88685V13.1186H44.8151H44.8149V8.88685H49.216ZM44.8149 22.4284C44.8149 22.4284 44.8151 22.4284 44.8149 22.4284H49.216V26.6602H44.8149V22.4284ZM17.0546 22.4284H21.4556V26.6602H17.0546V22.4284ZM3.17432 26.6602V22.4284H3.17444H7.5754V26.6602H3.17432ZM3.17444 19.8894C3.17444 19.8894 3.17432 19.8895 3.17444 19.8894L3.17432 15.6576H3.17444H7.5754V19.8894H3.17444ZM7.5754 8.88685V13.1186H3.17444H3.17432V8.88685H7.5754ZM10.1145 15.6576H14.5155V19.8894H10.1145V15.6576ZM17.0546 15.6576H21.4556V19.8894H17.0546V15.6576ZM21.4556 8.88685V13.1186H17.0546V8.88685H21.4556ZM14.5155 8.88685V13.1186H10.1145V8.88685H14.5155ZM5.03634 6.34766V3.80859C5.03634 3.10857 5.60585 2.53906 6.30587 2.53906C7.00589 2.53906 7.5754 3.10857 7.5754 3.80859V6.34778L5.03634 6.34766C5.03634 6.34778 5.03634 6.34778 5.03634 6.34766ZM7.5754 61.1914C7.5754 61.8914 7.00589 62.4609 6.30587 62.4609C5.60585 62.4609 5.03634 61.8914 5.03634 61.1914V29.1992H7.5754V61.1914ZM10.1145 22.4284H14.5155V26.6602H10.1145V22.4284ZM51.7551 26.6602V22.4284H56.156V26.6602H51.7551ZM61.2342 61.1914C61.2342 61.8914 60.6647 62.4609 59.9646 62.4609C59.2646 62.4609 58.6951 61.8914 58.6951 61.1914V29.1992H61.2342V61.1914Z" fill="black"/>
<path d="M31.7278 21.582C31.0267 21.582 30.4582 22.1504 30.4582 22.8516C30.4582 23.5527 31.0267 24.1211 31.7278 24.1211H34.5427C35.2437 24.1211 35.8122 23.5527 35.8122 22.8516C35.8122 22.1504 35.2437 21.582 34.5427 21.582H34.4047V12.6954C34.4047 12.2418 34.1627 11.8228 33.7699 11.596C33.3771 11.3692 32.8932 11.3693 32.5004 11.596L31.093 12.4087C30.4858 12.7593 30.2777 13.5356 30.6283 14.143C30.8878 14.5924 31.3802 14.8233 31.8656 14.7705V21.582H31.7278Z" fill="black"/>
<path d="M33.1352 8.88686C33.8362 8.88686 34.4047 8.31849 34.4047 7.61732C34.4047 6.91616 33.8362 6.34779 33.1352 6.34779H33.1343C32.4332 6.34779 31.8652 6.91616 31.8652 7.61732C31.8652 8.31849 32.4341 8.88686 33.1352 8.88686Z" fill="black"/>
</svg>
