<svg width="36" height="35" viewBox="0 0 36 35" fill="none" xmlns="http://www.w3.org/2000/svg">
<g clip-path="url(#clip0)">
<path d="M30.6698 8.27335H26.7087C26.6062 8.27335 26.4139 8.13476 26.3815 8.03764L25.3573 4.96401C25.0445 4.02758 24.0642 3.32178 23.0775 3.32178H11.8543C10.8662 3.32178 9.88562 4.02838 9.57419 4.96508L8.55054 8.0371C8.5179 8.13422 8.32526 8.27308 8.22306 8.27308H4.26196C1.87433 8.27335 -0.0683594 10.2158 -0.0683594 12.6034V27.4579C-0.0683594 29.8457 1.87433 31.7884 4.26196 31.7884H30.6698C33.0574 31.7884 35.0001 29.8457 35.0001 27.4579V12.6034C35.0001 10.2158 33.0574 8.27335 30.6698 8.27335ZM32.9413 27.4579C32.9413 28.7105 31.9225 29.7296 30.6698 29.7296H4.26196C3.00928 29.7296 1.99045 28.7105 1.99045 27.4579V12.6034C1.99045 11.351 3.00928 10.3319 4.26196 10.3319H8.22306C9.21005 10.3319 10.1901 9.62582 10.5034 8.68886L11.5273 5.6155C11.5594 5.51891 11.7521 5.38059 11.8543 5.38059H23.0775C23.1797 5.38059 23.3724 5.51944 23.4045 5.61576L24.4284 8.68806C24.7401 9.62502 25.7204 10.3319 26.7087 10.3319H30.6698C31.9225 10.3319 32.9413 11.351 32.9413 12.6034V27.4579Z" fill="#5F81A7"/>
<path d="M17.7847 11.0059C13.1598 11.0059 9.39697 14.7687 9.39697 19.3936C9.39697 24.0185 13.1598 27.7813 17.7847 27.7813C22.4096 27.7813 26.1724 24.0185 26.1724 19.3936C26.1724 14.7687 22.4099 11.0059 17.7847 11.0059ZM17.7847 25.7228C14.2948 25.7228 11.4558 22.8835 11.4558 19.3936C11.4558 15.9039 14.2948 13.0647 17.7847 13.0647C21.2746 13.0647 24.1136 15.9039 24.1136 19.3936C24.1136 22.8835 21.2746 25.7228 17.7847 25.7228Z" fill="#5F81A7"/>
<path d="M17.7848 14.8936C15.3038 14.8936 13.2852 16.9122 13.2852 19.3932C13.2852 21.8742 15.3038 23.8929 17.7848 23.8929C20.2661 23.8929 22.2845 21.8742 22.2845 19.3932C22.2845 16.9122 20.2661 14.8936 17.7848 14.8936ZM17.7848 21.8344C16.4388 21.8344 15.344 20.7393 15.344 19.3932C15.344 18.0474 16.4388 16.9524 17.7848 16.9524C19.1309 16.9524 20.2257 18.0474 20.2257 19.3932C20.2257 20.7393 19.1309 21.8344 17.7848 21.8344Z" fill="#5F81A7"/>
<path d="M30.0538 13.6718C30.0477 13.6388 30.0394 13.6057 30.0292 13.5741C30.0196 13.542 30.0086 13.5104 29.9955 13.4788C29.9824 13.4481 29.9679 13.4176 29.9522 13.3881C29.9364 13.3587 29.9193 13.3293 29.9008 13.3017C29.8823 13.2736 29.8617 13.2461 29.8411 13.2201C29.8192 13.1942 29.7964 13.1688 29.7732 13.1452C29.7491 13.1214 29.7237 13.0987 29.6977 13.0767C29.6715 13.0561 29.6442 13.0355 29.6167 13.0171C29.5886 12.9986 29.5591 12.9812 29.5294 12.9654C29.5 12.9499 29.4698 12.9355 29.439 12.9223C29.4074 12.9092 29.3759 12.8983 29.3435 12.8886C29.3119 12.8785 29.279 12.8702 29.2461 12.864C29.2132 12.8571 29.1795 12.8522 29.146 12.8488C29.0786 12.8421 29.0106 12.8421 28.9435 12.8488C28.9106 12.8522 28.8769 12.8571 28.844 12.864C28.8111 12.8702 28.7781 12.8785 28.7458 12.8886C28.7142 12.8983 28.6821 12.9092 28.6511 12.9223C28.6203 12.9355 28.5895 12.9496 28.5598 12.9654C28.5304 12.9812 28.5015 12.9986 28.4734 13.0171C28.4453 13.0355 28.4178 13.0561 28.3926 13.0767C28.3664 13.0987 28.341 13.1214 28.3169 13.1452C28.2931 13.1688 28.2703 13.1942 28.2489 13.2201C28.2278 13.2461 28.208 13.2736 28.1893 13.3017C28.1708 13.3293 28.1529 13.3587 28.1371 13.3881C28.1213 13.4178 28.1071 13.4481 28.0946 13.4788C28.0817 13.5104 28.0699 13.542 28.0603 13.5741C28.0507 13.6057 28.0424 13.6388 28.0357 13.6718C28.0287 13.7047 28.0239 13.7384 28.0204 13.7718C28.0172 13.8055 28.0156 13.839 28.0156 13.8727C28.0156 14.1437 28.1256 14.4094 28.3169 14.6007C28.341 14.6242 28.3664 14.6475 28.3926 14.6687C28.4178 14.6901 28.4453 14.7099 28.4734 14.7286C28.5015 14.747 28.5304 14.7647 28.5598 14.7805C28.5895 14.7957 28.6203 14.8107 28.6511 14.823C28.6821 14.8361 28.7142 14.8479 28.7458 14.8575C28.7781 14.8672 28.8111 14.8752 28.844 14.8822C28.8769 14.8891 28.9106 14.8939 28.9435 14.8971C28.9772 14.9006 29.0115 14.902 29.0452 14.902C29.0786 14.902 29.1123 14.9006 29.146 14.8971C29.1795 14.8939 29.2132 14.8891 29.2461 14.8822C29.279 14.8752 29.3119 14.8669 29.3435 14.8575C29.3759 14.8479 29.4074 14.8361 29.439 14.823C29.4698 14.8107 29.5 14.7957 29.5294 14.7805C29.5591 14.765 29.5886 14.747 29.6167 14.7286C29.6442 14.7099 29.6715 14.6901 29.6977 14.6687C29.7237 14.6475 29.7491 14.6242 29.7732 14.6007C29.9647 14.4094 30.0744 14.1437 30.0744 13.8727C30.0744 13.8392 30.0723 13.8055 30.0688 13.7718C30.0661 13.7381 30.0608 13.7047 30.0538 13.6718Z" fill="#5F81A7"/>
<path d="M30.0538 16.554C30.0477 16.5211 30.0394 16.4882 30.0292 16.4566C30.0196 16.4242 30.0078 16.3926 29.9955 16.3611C29.9824 16.3303 29.9679 16.3001 29.9522 16.2706C29.9364 16.2412 29.9193 16.2115 29.9008 16.1842C29.8823 16.1559 29.8617 16.1286 29.8403 16.1024C29.8192 16.0764 29.7964 16.051 29.7724 16.0277C29.5578 15.8121 29.2482 15.7002 28.9435 15.7305C28.9106 15.7339 28.8769 15.7396 28.844 15.7457C28.8111 15.7527 28.7781 15.7607 28.7458 15.7711C28.7142 15.7808 28.6821 15.7917 28.6511 15.8046C28.6203 15.8177 28.5895 15.8321 28.5598 15.8479C28.5304 15.8637 28.5015 15.8808 28.4734 15.8993C28.4453 15.918 28.4178 15.9383 28.3926 15.9598C28.3664 15.9812 28.341 16.0036 28.3169 16.0277C28.1256 16.219 28.0156 16.4839 28.0156 16.7552C28.0156 16.7886 28.0172 16.8229 28.0204 16.8566C28.0239 16.8895 28.0287 16.9232 28.0357 16.9561C28.0424 16.989 28.0507 17.0219 28.0603 17.0543C28.0699 17.0859 28.0817 17.1182 28.0946 17.149C28.1071 17.1798 28.1213 17.2108 28.1371 17.2403C28.1529 17.2697 28.1708 17.2986 28.1893 17.3267C28.208 17.3548 28.2278 17.3823 28.2489 17.4077C28.2703 17.4337 28.2931 17.4591 28.3169 17.4832C28.341 17.5073 28.3664 17.53 28.3926 17.5511C28.4178 17.5726 28.4453 17.5923 28.4734 17.6108C28.5015 17.6293 28.5304 17.6472 28.5598 17.663C28.5895 17.6782 28.6203 17.6932 28.6511 17.7055C28.6821 17.7186 28.7142 17.7301 28.7458 17.7398C28.7781 17.7494 28.8111 17.7577 28.844 17.7647C28.8769 17.7713 28.9106 17.7762 28.9435 17.7796C28.9772 17.7831 29.0115 17.7845 29.0452 17.7845C29.0786 17.7845 29.1123 17.7831 29.146 17.7796C29.1795 17.7762 29.2132 17.7713 29.2461 17.7647C29.279 17.7577 29.3119 17.7494 29.3435 17.7398C29.3759 17.7301 29.4074 17.7186 29.4382 17.7055C29.4692 17.6932 29.5 17.6782 29.5294 17.663C29.5591 17.6472 29.5886 17.6293 29.6161 17.6108C29.6442 17.5923 29.6715 17.5723 29.6977 17.5511C29.7237 17.53 29.7491 17.5073 29.7724 17.4832C29.7964 17.4591 29.8192 17.4337 29.8403 17.4077C29.8617 17.3823 29.8823 17.3548 29.9008 17.3267C29.9193 17.2986 29.9364 17.2697 29.9522 17.2403C29.9679 17.2108 29.9824 17.1798 29.9955 17.149C30.0078 17.1182 30.0196 17.0859 30.0292 17.0543C30.0394 17.0219 30.0477 16.989 30.0538 16.9561C30.0608 16.9232 30.0656 16.8895 30.0688 16.8566C30.0723 16.8229 30.0744 16.7886 30.0744 16.7552C30.0744 16.7215 30.0723 16.6878 30.0688 16.654C30.0656 16.6206 30.0608 16.5869 30.0538 16.554Z" fill="#5F81A7"/>
</g>
<defs>
<clipPath id="clip0">
<rect width="35.0685" height="35" fill="white"/>
</clipPath>
</defs>
</svg>
