<svg width="14" height="14" viewBox="0 0 14 14" fill="none" xmlns="http://www.w3.org/2000/svg">
<path d="M13.911 6.72732C13.786 6.55623 10.8059 2.53809 6.99993 2.53809C3.19392 2.53809 0.213774 6.55623 0.08884 6.72716C-0.0296133 6.88947 -0.0296133 7.10961 0.08884 7.27193C0.213774 7.44302 3.19392 11.4612 6.99993 11.4612C10.8059 11.4612 13.786 7.44299 13.911 7.27206C14.0296 7.10978 14.0296 6.88947 13.911 6.72732ZM6.99993 10.5381C4.1964 10.5381 1.76824 7.87117 1.04946 6.99931C1.76731 6.12669 4.19038 3.46116 6.99993 3.46116C9.80333 3.46116 12.2313 6.12762 12.9504 6.99994C12.2326 7.87253 9.80948 10.5381 6.99993 10.5381Z" fill="#C1C1C1"/>
<path d="M7.0002 4.23047C5.47327 4.23047 4.23096 5.47278 4.23096 6.99971C4.23096 8.52665 5.47327 9.76896 7.0002 9.76896C8.52713 9.76896 9.76944 8.52665 9.76944 6.99971C9.76944 5.47278 8.52713 4.23047 7.0002 4.23047ZM7.0002 8.84586C5.98219 8.84586 5.15406 8.0177 5.15406 6.99971C5.15406 5.98173 5.98222 5.15357 7.0002 5.15357C8.01818 5.15357 8.84634 5.98173 8.84634 6.99971C8.84634 8.0177 8.01821 8.84586 7.0002 8.84586Z" fill="#C1C1C1"/>
</svg>
