<svg width="18" height="18" viewBox="0 0 18 18" fill="none" xmlns="http://www.w3.org/2000/svg">
<path d="M17.0742 6.55177L7.92639 15.598C6.41066 17.0971 3.95292 17.0971 2.43718 15.598C0.921445 14.099 0.921445 11.6689 2.43718 10.1699L10.6707 2.02832C11.6814 1.02916 13.3192 1.02916 14.33 2.02832C15.3407 3.02746 15.3407 4.64796 14.33 5.64709L6.09644 13.7887C5.59141 14.2886 4.77217 14.2886 4.26649 13.7887C3.76146 13.2894 3.76146 12.4792 4.26649 11.9793L11.585 4.74238L10.67 3.83771L3.35218 11.0752C2.34147 12.0744 2.34147 13.6949 3.35218 14.694C4.36288 15.6932 6.00072 15.6932 7.01143 14.694L15.245 6.55241C16.7607 5.05339 16.7607 2.62331 15.245 1.12426C13.7292 -0.374755 11.2715 -0.374755 9.75576 1.12426L1.06473 9.71818L1.09622 9.74964C-0.482507 11.7569 -0.343719 14.6587 1.52222 16.5034C3.38817 18.3481 6.32134 18.4862 8.35175 16.9242L8.38324 16.9557L17.9886 7.45709L17.0742 6.55177Z" fill="#37475E"/>
</svg>
