<svg width="18" height="18" viewBox="0 0 18 18" fill="none" xmlns="http://www.w3.org/2000/svg">
<path d="M6.606 3.55162C6.38382 3.33056 6.02438 3.33056 5.80218 3.55162C5.57997 3.77268 5.58 4.131 5.80218 4.35206L10.476 9.009L5.80218 13.6659C5.58 13.887 5.58 14.2453 5.80218 14.4664C6.02435 14.6875 6.38379 14.6875 6.606 14.4664L11.6527 9.43762C11.7714 9.3195 11.8215 9.16371 11.8136 9.00903C11.8215 8.85488 11.7709 8.6985 11.6527 8.58038L6.606 3.55162ZM15.75 0H2.25C1.00744 0 0 1.00744 0 2.25V15.75C0 16.9926 1.00744 18 2.25 18H15.75C16.9926 18 18 16.9926 18 15.75V2.25C18 1.00744 16.9926 0 15.75 0ZM16.875 15.75C16.875 16.371 16.3716 16.875 15.75 16.875H2.25C1.62844 16.875 1.125 16.371 1.125 15.75V2.25C1.125 1.629 1.62844 1.125 2.25 1.125H15.75C16.3716 1.125 16.875 1.629 16.875 2.25V15.75Z" fill="#37475E"/>
</svg>
