<svg width="37" height="35" viewBox="0 0 37 35" fill="none" xmlns="http://www.w3.org/2000/svg">
<path d="M6.961 4.78261C6.961 2.22876 9.02705 0.158112 11.5763 0.158112H25.4232C27.9724 0.158112 30.0384 2.22876 30.0384 4.78261C37.9417 4.78261 36.9613 4.78146 36.9613 9.40711C36.9613 13.2385 33.8617 16.3439 30.0384 16.3439C29.7633 16.3439 29.4997 16.2999 29.2338 16.263C27.6846 20.7996 24.0335 24.8865 19.6541 25.5097V32.5296H23.1155C23.7525 32.5296 24.2693 33.0475 24.2693 33.6857C24.2693 34.3239 23.7525 34.8418 23.1155 34.8418H13.885C13.248 34.8418 12.7312 34.3239 12.7312 33.6857C12.7312 33.0475 13.248 32.5296 13.885 32.5296H17.3465V25.5084C12.9659 24.8853 9.31605 20.7984 7.76682 16.2617C7.50097 16.2987 7.2373 16.3426 6.96215 16.3426C3.13888 16.3426 0.0392532 13.2373 0.0392532 9.4059C0.038166 4.78146 -0.942257 4.78261 6.961 4.78261ZM30.0384 14.0316C32.5877 14.0316 34.6537 11.961 34.6537 9.40711C34.6537 6.8532 34.6063 7.09486 30.0384 7.09486V14.0316ZM9.26865 11.7194C9.26865 16.8271 13.4018 23.2807 18.4991 23.2807C23.5976 23.2807 27.7296 16.8272 27.7296 11.7194V4.78261C27.7296 3.63803 26.5284 2.47036 25.422 2.47036H11.5752C10.4687 2.47036 9.26751 3.60218 9.26751 4.78261V11.7194H9.26865ZM6.961 14.0316V7.09486C2.39316 7.09486 2.34576 6.8532 2.34576 9.40711C2.34576 11.961 4.41175 14.0316 6.961 14.0316Z" fill="white"/>
</svg>
