<svg width="31" height="37" viewBox="0 0 31 37" fill="none" xmlns="http://www.w3.org/2000/svg">
<path d="M22.4364 25.4393H8.56363C7.92549 25.4393 7.40758 25.9573 7.40758 26.5954C7.40758 27.2336 7.92549 27.7515 8.56363 27.7515H22.4364C23.0745 27.7515 23.5925 27.2336 23.5925 26.5954C23.5925 25.9573 23.0745 25.4393 22.4364 25.4393ZM21.2803 0.00594762V0.0394923C21.1312 0.0394923 20.5162 -0.0183146 18.9682 0.00594762H5.09545C2.54168 0.00594762 0.471191 2.07644 0.471191 4.63021V32.3757C0.471191 34.9294 2.54168 36.9999 5.09545 36.9999H25.9046C28.4584 36.9999 30.5289 34.9294 30.5289 32.3757V9.25442L21.2803 0.00594762ZM28.2167 32.3757C28.2167 33.652 27.1821 34.6878 25.9046 34.6878H5.09545C3.818 34.6878 2.78332 33.652 2.78332 32.3757V4.63021C2.78332 3.35276 3.818 2.31808 5.09545 2.31808H18.9358C18.915 5.08687 18.9682 6.94234 18.9682 6.94234C18.9682 9.49611 21.0387 11.5666 23.5925 11.5666C23.5925 11.5666 25.5242 11.5666 28.2167 11.5666V32.3757H28.2167ZM23.5925 9.25447C22.315 9.25447 21.2803 8.21866 21.2803 6.94234C21.2803 6.94234 21.2803 5.07066 21.2803 2.31808L28.2167 9.25442H23.5925V9.25447ZM22.4364 18.5029H8.56363C7.92549 18.5029 7.40758 19.0209 7.40758 19.659C7.40758 20.2972 7.92549 20.8151 8.56363 20.8151H22.4364C23.0745 20.8151 23.5925 20.2972 23.5925 19.659C23.5925 19.0209 23.0745 18.5029 22.4364 18.5029Z" fill="white"/>
</svg>
