<svg width="27" height="36" viewBox="0 0 27 36" fill="none" xmlns="http://www.w3.org/2000/svg">
<path d="M25.448 11.1515L14.9405 0.623313C14.1118 -0.207771 12.7676 -0.207771 11.9389 0.623313L1.43145 11.1515C0.836184 11.7475 0.852394 12.1692 0.869726 12.9688H0.853516V31.3938C0.853516 33.9375 2.912 36 5.45017 36H21.5401C24.0794 36 26.1368 33.9375 26.1368 31.3938V14.1204C26.138 12.7855 26.2767 11.9815 25.448 11.1515ZM23.9697 31.5017C23.9697 32.7736 22.9272 33.7508 21.6582 33.7508H5.4768C4.20774 33.7508 3.1525 32.6656 3.1525 31.3938L3.1652 13.5086C3.1652 12.7697 3.26924 12.3188 3.68301 11.9038L12.6891 2.87916C13.104 2.46421 13.7755 2.46421 14.1904 2.87916L23.1965 11.9027C23.6114 12.3188 23.9697 12.6967 23.9697 13.5086V31.5017H23.9697ZM13.4958 9.51416C10.9565 9.51416 8.89913 11.5766 8.89913 14.1204C8.89913 16.6641 10.9576 18.7266 13.4958 18.7266C16.035 18.7266 18.0924 16.6641 18.0924 14.1204C18.0924 11.5755 16.0351 9.51416 13.4958 9.51416ZM13.4958 16.4235C12.2267 16.4235 11.1969 15.3923 11.1969 14.1204C11.1969 12.8485 12.2256 11.8173 13.4958 11.8173C14.7648 11.8173 15.7947 12.8485 15.7947 14.1204C15.7947 15.3923 14.7648 16.4235 13.4958 16.4235Z" fill="white"/>
</svg>
