<svg width="16" height="14" viewBox="0 0 16 14" fill="none" xmlns="http://www.w3.org/2000/svg">
<path d="M11.0046 11.6097L9.09902 9.39346C8.90373 9.16627 8.6198 9.03607 8.3202 9.03607H5.83994V7.33646H6.32229C6.66059 7.33646 6.97693 7.17542 7.16882 6.90588C7.44438 6.51816 7.4198 5.99686 7.10948 5.63764L4.48176 2.59816C4.28647 2.37228 4.00333 2.24287 3.70477 2.24287C3.40621 2.24287 3.12307 2.37228 2.92778 2.59816L0.300066 5.63738C-0.0102609 5.99633 -0.034836 6.5179 0.24072 6.90535C0.432353 7.17516 0.748955 7.3362 1.08752 7.3362H1.56987V11.171C1.56987 12.3482 2.52778 13.3061 3.70503 13.3061H10.2159C10.5537 13.3061 10.8697 13.1456 11.0616 12.8766C11.3369 12.4899 11.3137 11.9689 11.0046 11.6097ZM1.96333 6.13725H1.45275L3.70477 3.53254L5.9568 6.13725H5.44621C5.00229 6.13725 4.64098 6.49855 4.64098 6.94248V9.42954C4.64098 9.87346 5.00229 10.2348 5.44621 10.2348H8.24124L9.85118 12.1072H3.70477C3.18843 12.1072 2.76856 11.6871 2.76856 11.171V6.94248C2.76856 6.49855 2.40726 6.13725 1.96333 6.13725Z" fill="#5F81A7"/>
<path d="M15.8347 7.13282L15.8085 7.09439C15.6166 6.82485 15.3003 6.6638 14.962 6.6638H14.4799V2.82902C14.4799 1.65176 13.522 0.69385 12.3447 0.69385H5.83388C5.4961 0.69385 5.18002 0.854373 4.98812 1.12339C4.71231 1.51006 4.73583 2.03137 5.04485 2.39059L6.95048 4.6068C7.14577 4.83399 7.4297 4.96445 7.72931 4.96445H10.2096V6.66406H9.72722C9.38892 6.66406 9.07258 6.82511 8.88068 7.09465C8.60513 7.48236 8.6297 8.00367 8.94003 8.36263L11.5677 11.4021C11.763 11.6277 12.0462 11.7574 12.3447 11.7574C12.6433 11.7574 12.9264 11.628 13.1217 11.4021L15.7495 8.36263C16.0498 8.01518 16.0823 7.51583 15.8347 7.13282ZM11.4085 7.05753V4.5702C11.4085 4.12628 11.0475 3.76497 10.6033 3.76497H7.808L6.19806 1.89255H12.3447C12.8611 1.89255 13.281 2.31268 13.281 2.82876V7.05753C13.281 7.50145 13.642 7.86276 14.0859 7.86276H14.5965L12.3445 10.4675L10.0924 7.86276H10.6033C11.0472 7.8625 11.4085 7.50145 11.4085 7.05753Z" fill="#5F81A7"/>
</svg>
