<svg width="14" height="16" viewBox="0 0 14 16" fill="none" xmlns="http://www.w3.org/2000/svg">
<path d="M6.90093 7.85359C7.97989 7.85359 8.91427 7.46641 9.67767 6.70301C10.4411 5.93961 10.828 5.00549 10.828 3.92654C10.828 2.84758 10.4408 1.91346 9.6774 1.15007C8.91374 0.386928 7.97963 0 6.90093 0C5.82198 0 4.88786 0.386928 4.12446 1.15033C3.36107 1.91373 2.97388 2.84784 2.97388 3.9268C2.97388 5.00575 3.36107 5.94013 4.12446 6.70353C4.88812 7.46667 5.82224 7.85359 6.90093 7.85359ZM4.17754 3.9268C4.17754 3.1681 4.43845 2.5383 4.97545 2.00131C5.51218 1.46458 6.14198 1.2034 6.90093 1.2034C7.65963 1.2034 8.28943 1.46431 8.82642 2.00131C9.36342 2.5383 9.62433 3.1681 9.62433 3.9268C9.62433 4.68549 9.36342 5.31529 8.82642 5.85229C8.28943 6.38928 7.65963 6.6502 6.90093 6.6502C6.1425 6.6502 5.5127 6.38928 4.97545 5.85229C4.43845 5.31529 4.17754 4.68549 4.17754 3.9268Z" fill="#5F81A7"/>
<path d="M13.6656 12.2173C13.6441 11.9067 13.6005 11.5673 13.5364 11.2092C13.4716 10.8473 13.3876 10.5051 13.2875 10.1924C13.1827 9.86484 13.0405 9.54248 12.8653 9.23451C12.6812 8.91059 12.4645 8.62824 12.2211 8.39556C11.9636 8.14928 11.6491 7.95137 11.2862 7.80758C10.9252 7.66458 10.5257 7.59216 10.099 7.59216C9.90739 7.59216 9.73248 7.66379 9.40647 7.87608C9.22059 7.99739 9.00543 8.13595 8.76673 8.28837C8.57092 8.41307 8.30268 8.53098 7.96987 8.63843C7.64778 8.74275 7.32098 8.79556 6.99889 8.79556C6.67706 8.79556 6.35026 8.74275 6.02791 8.63843C5.69484 8.53072 5.42686 8.41307 5.23183 8.28863C4.99235 8.13569 4.77693 7.99686 4.59131 7.87582C4.26556 7.66353 4.09092 7.5919 3.89902 7.5919C3.47262 7.5919 3.07314 7.66431 2.71209 7.80758C2.34948 7.95111 2.03471 8.14902 1.77719 8.39556C1.53379 8.6285 1.31706 8.91085 1.13327 9.23451C0.957583 9.54353 0.815623 9.86588 0.711047 10.1927C0.610917 10.5056 0.527257 10.8476 0.46242 11.2092C0.398368 11.566 0.354708 11.9056 0.33327 12.2178C0.312093 12.5208 0.301636 12.8363 0.301636 13.1558C0.301636 14.0162 0.577191 14.715 1.12072 15.2327C1.65615 15.7417 2.36098 16 3.21588 16H10.784C11.6386 16 12.3435 15.7417 12.8786 15.2327C13.4222 14.7156 13.6977 14.0167 13.6977 13.1556C13.6977 12.8356 13.6867 12.5197 13.6656 12.2173ZM3.79497 8.79791C3.82686 8.81621 3.87235 8.84366 3.93484 8.88418C4.13118 9.01229 4.35 9.1532 4.58477 9.30327C4.86713 9.4834 5.22843 9.64497 5.65824 9.78379C6.10033 9.9268 6.55157 9.99922 6.99941 9.99922C7.44726 9.99922 7.89824 9.9268 8.34033 9.78379C8.77065 9.64471 9.13222 9.48288 9.41458 9.30301C9.66556 9.14248 9.87811 9.00549 10.064 8.88444C10.127 8.8434 10.1722 8.81595 10.2039 8.79791C10.4371 8.80784 10.6522 8.85098 10.8433 8.9268C11.0606 9.01281 11.2441 9.1268 11.3892 9.26536C11.5482 9.41726 11.6925 9.60706 11.819 9.82928C11.9537 10.0659 12.0622 10.3116 12.1414 10.5595C12.2256 10.8222 12.2961 11.1124 12.3518 11.4217C12.408 11.7362 12.4462 12.0303 12.4648 12.2965L12.465 12.3017C12.4841 12.5752 12.4941 12.8627 12.4941 13.1558C12.4941 13.6816 12.3482 14.0756 12.0486 14.3608C11.7406 14.6541 11.3267 14.7966 10.7837 14.7966H3.21588C2.67262 14.7966 2.25902 14.6541 1.95105 14.361C1.65144 14.0758 1.50582 13.6816 1.50582 13.1561C1.50582 12.8635 1.51549 12.5762 1.53458 12.3014C1.55314 12.0327 1.59131 11.737 1.64778 11.4222C1.70347 11.1119 1.77432 10.8217 1.85798 10.56C1.93745 10.3119 2.04595 10.0661 2.18033 9.82954C2.3066 9.60758 2.45118 9.41778 2.61013 9.26562C2.75471 9.12706 2.9385 9.01333 3.15601 8.92706C3.34686 8.85124 3.56177 8.80784 3.79497 8.79791Z" fill="#5F81A7"/>
</svg>
