<svg width="18" height="17" viewBox="0 0 18 17" fill="none" xmlns="http://www.w3.org/2000/svg">
<path d="M12.8199 1.86C12.1299 1.86 11.4899 2.08 10.9299 2.52C10.4199 2.92 10.0499 3.43 9.83994 3.78C9.65994 4.08 9.34994 4.26 8.99994 4.26C8.64994 4.26 8.33994 4.08 8.15994 3.78C7.94994 3.43 7.58994 2.92 7.06994 2.52C6.50994 2.08 5.86994 1.86 5.17994 1.86C4.21994 1.86 3.34994 2.24 2.70994 2.93C2.04994 3.64 1.68994 4.63 1.68994 5.71C1.68994 6.86 2.11994 7.89 3.09994 9.07C4.06994 10.24 5.53994 11.49 7.23994 12.94C7.76994 13.4 8.36994 13.91 8.99994 14.46C9.64994 13.9 10.2599 13.38 10.7699 12.95C12.4699 11.51 13.9299 10.26 14.8999 9.08C15.8699 7.91 16.3099 6.87 16.3099 5.72C16.3099 4.64 15.9499 3.65 15.2899 2.94C14.6599 2.25 13.7799 1.86 12.8199 1.86Z" fill="white"/>
<path d="M12.82 0.17C11.74 0.17 10.76 0.51 9.89 1.18C9.57 1.43 9.27 1.72 9 2.05C8.73 1.72 8.43 1.43 8.11 1.18C7.24 0.51 6.25 0.17 5.18 0.17C3.75 0.17 2.43 0.74 1.47 1.79C0.52 2.81 0 4.21 0 5.72C0 7.27 0.57 8.68 1.8 10.16C2.87 11.45 4.38 12.74 6.14 14.24H6.15C6.74 14.74 7.41 15.32 8.12 15.93C8.37 16.15 8.68 16.27 9.01 16.27C9.34 16.27 9.66 16.15 9.9 15.93C10.61 15.31 11.31 14.71 11.87 14.24C13.63 12.74 15.14 11.45 16.21 10.16C17.43 8.68 18 7.27 18 5.72C18 4.21 17.48 2.82 16.54 1.79C15.57 0.75 14.26 0.17 12.82 0.17ZM14.9 9.08C13.93 10.25 12.46 11.5 10.77 12.95C10.27 13.38 9.65 13.9 9 14.46C8.37 13.91 7.77 13.4 7.24 12.95C5.54 11.5 4.08 10.26 3.1 9.08C2.13 7.9 1.69 6.87 1.69 5.72C1.69 4.64 2.05 3.65 2.71 2.94C3.35 2.25 4.23 1.87 5.18 1.87C5.87 1.87 6.51 2.09 7.07 2.53C7.58 2.93 7.95 3.44 8.16 3.79C8.34 4.08 8.65 4.26 9 4.26C9.35 4.26 9.66 4.08 9.84 3.78C10.05 3.42 10.41 2.92 10.93 2.52C11.49 2.08 12.13 1.86 12.82 1.86C13.78 1.86 14.65 2.24 15.29 2.93C15.95 3.64 16.31 4.63 16.31 5.71C16.31 6.87 15.87 7.9 14.9 9.08Z" fill="#5F81A7"/>
</svg>
