<svg width="16" height="16" viewBox="0 0 16 16" fill="none" xmlns="http://www.w3.org/2000/svg">
<path d="M15.9937 7.26482C15.9827 7.23083 15.972 7.19632 15.9616 7.16208C15.938 7.08469 15.9135 7.00495 15.8818 6.92626C15.635 6.31449 15.0654 5.94744 14.3579 5.94482C14.2868 5.94456 14.2063 5.9443 14.1901 5.93672C14.1762 5.92339 14.1495 5.85384 14.1237 5.78665L14.1203 5.7775C14.0507 5.59607 13.9762 5.41777 13.8991 5.24783L13.8933 5.23528C13.8703 5.18456 13.8465 5.13201 13.8426 5.11136C13.8549 5.09071 13.9061 5.04077 13.9441 5.00391C14.2146 4.74064 14.3749 4.45646 14.4345 4.13568C14.532 3.61097 14.405 3.15293 14.057 2.77437C13.817 2.5132 13.5522 2.24758 13.2695 1.98509C12.6416 1.40183 11.7265 1.40758 11.0939 1.99869C11.0638 2.02692 11.0361 2.05829 11.0097 2.08836C10.9801 2.12209 10.925 2.18483 10.9022 2.18954C10.8818 2.19137 10.8165 2.1545 10.778 2.13254C10.738 2.10954 10.697 2.08601 10.6525 2.06797L10.618 2.05385C10.446 1.98379 10.2682 1.91137 10.0884 1.84941C10.0779 1.84575 10.0711 1.84287 10.0672 1.84078C10.0667 1.83686 10.0664 1.83058 10.0667 1.82143L10.0669 1.80784C10.0701 1.6596 10.0735 1.5064 10.0478 1.35424C9.93673 0.687579 9.4685 0.203135 8.79477 0.0564691C8.7932 0.0554234 8.79163 0.0546391 8.79007 0.0535933C8.78196 0.0488874 8.77412 0.0439201 8.76601 0.0397371L8.7383 0.0256195H7.27373L7.25542 0.0311097C7.2298 0.0389528 7.20418 0.0465345 7.17856 0.0541162C7.12235 0.0708482 7.06431 0.088103 7.00654 0.107188C6.36967 0.319475 5.94771 0.893853 5.9315 1.57019C5.92837 1.70013 5.92601 1.79424 5.90641 1.82274C5.8868 1.85098 5.79974 1.88548 5.67948 1.93333L5.67529 1.9349C5.63922 1.94928 5.60288 1.96287 5.56627 1.97646C5.44523 2.02169 5.32026 2.06849 5.20549 2.13986C5.11765 2.19424 5.08837 2.19686 4.99948 2.09594C4.75451 1.81777 4.45229 1.64549 4.10144 1.58405C3.58928 1.49437 3.14431 1.61542 2.77882 1.94352C2.52497 2.17124 2.2583 2.43503 1.96366 2.7498C1.37203 3.38169 1.37752 4.30875 1.97647 4.90613C2.15686 5.086 2.17229 5.17489 2.05595 5.35946C1.95922 5.51267 1.90458 5.68548 1.85176 5.8528L1.83242 5.91345C1.82667 5.93123 1.82196 5.93986 1.81987 5.94299C1.81569 5.9443 1.80392 5.94691 1.77726 5.9477C1.74641 5.94848 1.71529 5.94927 1.68418 5.94979C1.51425 5.95293 1.33856 5.95633 1.16889 6.00286C0.577778 6.16469 0.196863 6.55894 0.0373856 7.17436C0.0332026 7.19083 0.0264052 7.20939 0.019085 7.229C0.014902 7.24024 0.0109804 7.25122 0.00705882 7.26247L0 7.28312V8.74273L0.0104575 8.76704C0.0143791 8.77619 0.0188235 8.78508 0.023268 8.79423C0.0264052 8.80076 0.0308497 8.80965 0.031634 8.81174C0.200784 9.56704 0.808627 10.063 1.58039 10.0758C1.68654 10.0776 1.7783 10.0789 1.80105 10.0949C1.82379 10.1106 1.85647 10.1924 1.89804 10.2959L1.9017 10.3051C1.96549 10.4643 2.05176 10.6732 2.15216 10.875C2.16183 10.8944 2.16497 10.9051 2.16627 10.91C2.16366 10.9134 2.15817 10.9202 2.14667 10.9307C1.81229 11.2311 1.62693 11.5357 1.56366 11.8886C1.4698 12.411 1.59477 12.8645 1.9349 13.2371C2.17725 13.5025 2.44601 13.772 2.73359 14.0384C3.3668 14.6245 4.29595 14.6162 4.89464 14.0191C5.0719 13.8423 5.15843 13.8266 5.33595 13.9391C5.48889 14.0358 5.6617 14.0902 5.82902 14.1427C5.84994 14.1493 5.87059 14.1558 5.89124 14.1623C5.91686 14.1704 5.92758 14.1767 5.9315 14.1796C5.93229 14.1838 5.93386 14.1942 5.93255 14.2151C5.90379 14.6538 5.99503 15.0146 6.21176 15.3181C6.49909 15.7207 6.88078 15.9479 7.31582 15.9754C7.52 15.9882 7.75791 16.0002 8.01203 16.0002C8.24837 16.0002 8.49856 15.99 8.74902 15.961C9.49203 15.8745 10.0471 15.2428 10.0688 14.4588C10.0698 14.4198 10.068 14.3806 10.0659 14.3425C10.0627 14.2818 10.0586 14.1984 10.0756 14.1736C10.0905 14.1571 10.1613 14.1377 10.2037 14.126C10.2473 14.114 10.2925 14.1017 10.3357 14.0836C10.3723 14.0682 10.4094 14.053 10.4463 14.0379C10.5801 13.983 10.7187 13.9262 10.851 13.8564C10.892 13.8347 10.9054 13.8358 10.9051 13.8355C10.9051 13.8355 10.9166 13.8389 10.9417 13.8674C11.2256 14.1866 11.537 14.3725 11.8931 14.4355C12.4094 14.5268 12.8549 14.407 13.218 14.0797C13.5352 13.7937 13.8269 13.5022 14.0855 13.2133C14.6267 12.6083 14.5958 11.6815 14.0152 11.1035C13.8439 10.933 13.8285 10.8491 13.9367 10.6758C14.0275 10.5304 14.081 10.3683 14.1328 10.2115C14.1456 10.173 14.1582 10.1349 14.1712 10.0972C14.1752 10.0857 14.1783 10.0787 14.1807 10.0745C14.1843 10.0742 14.1901 10.0737 14.1984 10.0742C14.3383 10.0784 14.497 10.0829 14.651 10.0593C15.3109 9.95815 15.8149 9.48625 15.9658 8.82769C15.9676 8.81933 15.9731 8.80625 15.9788 8.79266C15.983 8.78246 15.9875 8.77227 15.9914 8.76207L15.9997 8.74011V7.28469L15.9937 7.26482ZM13.1665 9.35998C13.039 9.8256 12.8518 10.2761 12.6102 10.6988C12.4533 10.9733 12.4863 11.2196 12.7108 11.4515C12.7807 11.5236 12.8528 11.595 12.9226 11.664C12.9995 11.7401 13.079 11.8185 13.1545 11.8975C13.3375 12.0883 13.3359 12.3064 13.1501 12.4957C12.949 12.7004 12.7362 12.9129 12.4996 13.1448C12.2986 13.3419 12.0839 13.3401 11.8787 13.1398C11.8128 13.0755 11.7464 13.0086 11.6821 12.944C11.6078 12.8693 11.531 12.7921 11.4536 12.7171C11.2149 12.4862 10.9715 12.4541 10.6876 12.6154C10.269 12.8533 9.82222 13.0384 9.36 13.1649C9.05255 13.2491 8.89464 13.4562 8.89046 13.7804C8.88915 13.8797 8.88967 13.9801 8.88993 14.0771C8.89046 14.1861 8.89072 14.2985 8.88889 14.4086C8.88471 14.6517 8.72471 14.8117 8.48157 14.8164C8.3702 14.8185 8.25621 14.818 8.14588 14.8175C8.09464 14.8172 8.0434 14.817 7.99216 14.817C7.93961 14.817 7.8868 14.8172 7.83399 14.8177C7.72523 14.8185 7.61307 14.8193 7.50379 14.8162C7.27791 14.8096 7.11634 14.6481 7.11137 14.4232C7.10876 14.3064 7.10928 14.1864 7.1098 14.0706C7.11033 13.9754 7.11059 13.8771 7.10928 13.7801C7.1051 13.4564 6.94693 13.2494 6.63974 13.1647C6.17909 13.0379 5.73229 12.8528 5.3119 12.6149C5.19608 12.5493 5.08523 12.5166 4.97882 12.5166C4.82693 12.5166 4.68366 12.5835 4.54588 12.7174C4.47895 12.7825 4.41255 12.8494 4.3485 12.914C4.26745 12.9955 4.18379 13.0797 4.09987 13.1597C3.91477 13.3359 3.69464 13.3341 3.51085 13.1547C3.29987 12.949 3.08366 12.733 2.84967 12.4951C2.65935 12.3014 2.66118 12.0855 2.85516 11.8873C2.92261 11.8185 2.99242 11.7493 3.05987 11.6823C3.13176 11.611 3.20601 11.5372 3.27843 11.4632C3.51399 11.2217 3.54693 10.9746 3.38196 10.6855C3.14719 10.2742 2.96392 9.83318 2.83686 9.37436C2.74902 9.05776 2.54431 8.9022 2.21046 8.8988C2.11817 8.89776 2.02484 8.89828 1.93464 8.89854C1.81856 8.89906 1.69856 8.89933 1.58144 8.89697C1.3451 8.89227 1.18405 8.73227 1.18091 8.49907C1.17647 8.17305 1.17647 7.8439 1.18091 7.52077C1.18431 7.28756 1.34536 7.12809 1.5817 7.12338C1.69725 7.12103 1.81542 7.12155 1.92993 7.12208C2.02196 7.12234 2.11686 7.12286 2.21098 7.12181C2.54458 7.11815 2.74954 6.9626 2.83712 6.64574C2.96392 6.18822 3.14719 5.74691 3.38248 5.33489C3.54719 5.04574 3.51425 4.79868 3.27843 4.55711C3.20706 4.48391 3.13359 4.41123 3.06248 4.34064C2.99399 4.27293 2.9234 4.2026 2.85516 4.13306C2.66144 3.93489 2.65961 3.71895 2.8502 3.52522C3.08314 3.2881 3.29961 3.07241 3.51137 2.86535C3.6949 2.68601 3.91503 2.68418 4.09987 2.86038C4.18275 2.93934 4.26536 3.02248 4.3451 3.10274C4.41046 3.16862 4.47817 3.23659 4.54614 3.30274C4.78118 3.53097 5.03163 3.56444 5.31216 3.40522C5.7315 3.16731 6.1783 2.98221 6.63974 2.85542C6.94719 2.77097 7.1051 2.56391 7.10954 2.23999C7.11085 2.13829 7.11059 2.03529 7.11006 1.93568C7.10954 1.82928 7.10928 1.71895 7.11111 1.6115C7.11503 1.36679 7.27451 1.20705 7.51686 1.20392C7.83608 1.2 8.16078 1.2 8.48235 1.20392C8.72523 1.20679 8.88497 1.36653 8.88915 1.61071C8.89098 1.7213 8.89072 1.83424 8.8902 1.94379C8.88993 2.04052 8.88941 2.14039 8.89072 2.23921C8.8949 2.56418 9.05255 2.7715 9.35948 2.85542C9.8217 2.98169 10.2685 3.16653 10.6871 3.4047C10.9676 3.56444 11.2183 3.53123 11.4533 3.30404C11.525 3.23476 11.5961 3.16313 11.6648 3.09385C11.7414 3.01672 11.8207 2.93699 11.8999 2.86117C12.0844 2.68444 12.3046 2.68601 12.4884 2.86509C12.7302 3.10091 12.9498 3.31999 13.1597 3.53542C13.332 3.71215 13.3339 3.93306 13.165 4.11189C13.0839 4.1979 12.9974 4.28313 12.914 4.36548C12.8473 4.43136 12.7786 4.49934 12.7116 4.56836C12.4865 4.80051 12.4533 5.04652 12.6099 5.32103C12.852 5.74456 13.0392 6.19502 13.1665 6.65959C13.2478 6.95658 13.4575 7.11632 13.7728 7.12129C13.8782 7.12286 13.9846 7.1226 14.0873 7.12208C14.1961 7.12155 14.3082 7.12129 14.418 7.12312C14.6544 7.12756 14.8157 7.2873 14.8191 7.52051C14.8241 7.84312 14.8241 8.17201 14.8191 8.49854C14.8157 8.73201 14.6546 8.892 14.4186 8.89671C14.3067 8.8988 14.1919 8.89854 14.0813 8.89802C13.9807 8.89776 13.8766 8.89723 13.7736 8.8988C13.4575 8.90377 13.2478 9.06325 13.1665 9.35998Z" fill="#5F81A7"/>
<path d="M8.00429 4.46563C8.00194 4.46563 7.99958 4.46563 7.99723 4.46563C7.05187 4.46563 6.16298 4.8319 5.49396 5.49726C4.82311 6.16445 4.45213 7.05386 4.44899 8.00157C4.44586 8.94746 4.81161 9.83739 5.47906 10.5075C6.14625 11.1775 7.03723 11.5493 7.9873 11.5548C7.99409 11.5548 8.00115 11.5548 8.00795 11.5548C8.94939 11.5548 9.83514 11.189 10.5047 10.5234C11.1792 9.85255 11.551 8.96 11.5507 8.00994C11.5507 7.06275 11.1823 6.17308 10.5133 5.50458C9.84481 4.83661 8.95383 4.46746 8.00429 4.46563ZM8.00115 10.377C7.99984 10.377 7.99828 10.377 7.99697 10.377C6.68899 10.3749 5.62677 9.31164 5.62886 8.00706C5.62991 7.37334 5.87697 6.77909 6.32481 6.33334C6.77161 5.88837 7.36612 5.64366 7.99932 5.64366C8.00063 5.64366 8.00194 5.64366 8.00324 5.64366C9.31096 5.64576 10.3734 6.70876 10.3713 8.01334C10.3703 8.6468 10.1232 9.24131 9.67514 9.68706C9.22808 10.1323 8.63383 10.3773 8.00115 10.377Z" fill="#5F81A7"/>
</svg>
