<svg width="16" height="16" viewBox="0 0 16 16" fill="none" xmlns="http://www.w3.org/2000/svg">
<path d="M15.7325 0.262484C15.5631 0.0933333 15.3385 0 15.0995 0H13.3008C12.8072 0 12.4054 0.401569 12.4054 0.895425V1.50562C11.0582 2.9715 9.3207 3.60131 6.60776 3.60915C5.69011 3.61176 4.79181 3.98954 4.14292 4.64575C4.06266 4.72706 3.98554 4.81307 3.91312 4.90248H1.96567C0.886454 4.90248 0.00854492 5.78039 0.00854492 6.85961C0.00854492 7.93882 0.886454 8.81673 1.96567 8.81673H3.69508C4.04253 9.36131 4.52933 9.79137 5.11103 10.0667C5.05508 10.9796 4.80332 11.8217 4.39835 12.4463C3.92645 13.1741 3.48201 13.2829 3.259 13.2829C2.50998 13.2829 1.90057 13.8923 1.90057 14.6413C1.90057 15.3906 2.50998 16 3.259 16C4.59626 16 5.81038 15.263 6.67835 13.9247C7.30685 12.9558 7.69613 11.754 7.80802 10.4424C8.70162 10.5187 9.46188 10.68 10.1293 10.9349C11.0036 11.2685 11.7484 11.7791 12.4051 12.4946V12.8238C12.4051 13.3174 12.8067 13.7192 13.3006 13.7192H15.0993C15.5929 13.7192 15.9947 13.3176 15.9947 12.8238V0.895425C15.995 0.656471 15.9016 0.431895 15.7325 0.262484ZM14.8153 1.17961V12.5393H13.585V1.17961H14.8153ZM5.38815 13.0881C5.86972 12.3456 6.17351 11.4115 6.27025 10.3796C6.36515 10.3877 6.46057 10.3916 6.55521 10.3916C6.57979 10.3916 6.6041 10.3916 6.62842 10.3919C6.52828 11.4905 6.20436 12.4876 5.68855 13.2829C5.04567 14.2745 4.18292 14.8204 3.259 14.8204C3.16044 14.8204 3.07992 14.7401 3.07992 14.6413C3.07992 14.5427 3.16018 14.4622 3.259 14.4622C3.72149 14.4625 4.61273 14.2839 5.38815 13.0881ZM12.4051 3.11503L12.4049 10.8842C11.8438 10.4392 11.2344 10.0941 10.55 9.83268C9.4556 9.4149 8.14868 9.21203 6.55495 9.21203C5.34606 9.21203 4.35417 8.22824 4.34397 7.01909C4.33926 6.44418 4.56567 5.89595 4.98188 5.47503C5.41116 5.04078 6.00515 4.79059 6.61116 4.78876C8.18763 4.78405 9.48227 4.57856 10.5685 4.16C11.2454 3.89935 11.8488 3.55634 12.4051 3.11503ZM3.22475 7.63686H1.96567C1.53691 7.63686 1.18841 7.2881 1.18841 6.85961C1.18841 6.43085 1.53717 6.08209 1.96567 6.08209H3.2943C3.20541 6.38902 3.16175 6.70693 3.16462 7.02928C3.16619 7.23346 3.18658 7.43712 3.22475 7.63686Z" fill="#5F81A7"/>
</svg>
