<svg width="18" height="17" viewBox="0 0 18 17" fill="none" xmlns="http://www.w3.org/2000/svg">
<path d="M12.8199 1.86035C12.1299 1.86035 11.4899 2.08035 10.9299 2.52035C10.4199 2.92035 10.0499 3.43035 9.83994 3.78035C9.65994 4.08035 9.34994 4.26035 8.99994 4.26035C8.64994 4.26035 8.33994 4.08035 8.15994 3.78035C7.94994 3.43035 7.58994 2.92035 7.06994 2.52035C6.50994 2.08035 5.86994 1.86035 5.17994 1.86035C4.21994 1.86035 3.34994 2.24035 2.70994 2.93035C2.04994 3.64035 1.68994 4.63035 1.68994 5.71035C1.68994 6.86035 2.11994 7.89035 3.09994 9.07035C4.06994 10.2404 5.53994 11.4904 7.23994 12.9404C7.76994 13.4004 8.36994 13.9104 8.99994 14.4604C9.64994 13.9004 10.2599 13.3804 10.7699 12.9504C12.4699 11.5104 13.9299 10.2604 14.8999 9.08035C15.8699 7.91035 16.3099 6.87035 16.3099 5.72035C16.3099 4.64035 15.9499 3.65035 15.2899 2.94035C14.6599 2.25035 13.7799 1.86035 12.8199 1.86035Z" fill="#E45F5E"/>
<path d="M12.82 0.169922C11.74 0.169922 10.76 0.509922 9.89 1.17992C9.57 1.42992 9.27 1.71992 9 2.04992C8.73 1.71992 8.43 1.42992 8.11 1.17992C7.24 0.509922 6.25 0.169922 5.18 0.169922C3.75 0.169922 2.43 0.739922 1.47 1.78992C0.52 2.80992 0 4.20992 0 5.71992C0 7.26992 0.57 8.67992 1.8 10.1599C2.87 11.4499 4.38 12.7399 6.14 14.2399H6.15C6.74 14.7399 7.41 15.3199 8.12 15.9299C8.37 16.1499 8.68 16.2699 9.01 16.2699C9.34 16.2699 9.66 16.1499 9.9 15.9299C10.61 15.3099 11.31 14.7099 11.87 14.2399C13.63 12.7399 15.14 11.4499 16.21 10.1599C17.43 8.67992 18 7.26992 18 5.71992C18 4.20992 17.48 2.81992 16.54 1.78992C15.57 0.749922 14.26 0.169922 12.82 0.169922ZM14.9 9.07992C13.93 10.2499 12.46 11.4999 10.77 12.9499C10.27 13.3799 9.65 13.8999 9 14.4599C8.37 13.9099 7.77 13.3999 7.24 12.9499C5.54 11.4999 4.08 10.2599 3.1 9.07992C2.13 7.89992 1.69 6.86992 1.69 5.71992C1.69 4.63992 2.05 3.64992 2.71 2.93992C3.35 2.24992 4.23 1.86992 5.18 1.86992C5.87 1.86992 6.51 2.08992 7.07 2.52992C7.58 2.92992 7.95 3.43992 8.16 3.78992C8.34 4.07992 8.65 4.25992 9 4.25992C9.35 4.25992 9.66 4.07992 9.84 3.77992C10.05 3.41992 10.41 2.91992 10.93 2.51992C11.49 2.07992 12.13 1.85992 12.82 1.85992C13.78 1.85992 14.65 2.23992 15.29 2.92992C15.95 3.63992 16.31 4.62992 16.31 5.70992C16.31 6.86992 15.87 7.89992 14.9 9.07992Z" fill="#E45F5E"/>
</svg>
