<svg width="94" height="93" viewBox="0 0 94 93" fill="none" xmlns="http://www.w3.org/2000/svg">
<path d="M55.0177 62.2021L84.4765 76.9322C86.2164 77.8019 87.7181 79.0827 88.8515 80.6636C89.9849 82.2444 90.7158 84.0778 90.981 86.0048L91.7166 91.35H2.36267L3.09824 86.0048C3.36344 84.0778 4.09438 82.2444 5.22777 80.6636C6.36116 79.0827 7.86283 77.8019 9.60273 76.9322L39.0616 62.2021H55.0177Z" fill="#EAEAE8"/>
<path d="M58.209 63.7974L55.0177 62.2018V55.8193H39.0617V62.2018L35.8705 63.7974L47.0397 69.0112L58.209 63.7974Z" fill="#FDC9A6"/>
<path d="M26.2969 32.3117V20.513C26.297 18.7434 26.7339 17.0011 27.5689 15.4408C28.404 13.8806 29.6113 12.5506 31.0837 11.5689L32.3871 8.96206C33.6005 6.53517 35.6868 4.65696 38.2274 3.70434L40.0344 3.02621C44.5301 1.3403 49.503 1.45498 53.9162 3.34632C56.7343 4.55409 59.2109 6.43863 61.1262 8.83281L64.2192 12.6992C64.467 13.0089 64.7318 13.3047 65.0123 13.5851C65.8906 14.4634 66.5873 15.5061 67.0626 16.6537C67.538 17.8012 67.7826 19.0312 67.7826 20.2733V32.3117H26.2969Z" fill="#5F4623"/>
<path d="M40.6573 17.9516C40.2341 17.9516 39.8282 17.7835 39.529 17.4842C39.2298 17.185 39.0616 16.7791 39.0616 16.356V9.97353C39.0616 9.55035 39.2298 9.14451 39.529 8.84527C39.8282 8.54604 40.2341 8.37793 40.6573 8.37793C41.0804 8.37793 41.4863 8.54604 41.7855 8.84527C42.0848 9.14451 42.2529 9.55035 42.2529 9.97353V16.356C42.2529 16.7791 42.0848 17.185 41.7855 17.4842C41.4863 17.7835 41.0804 17.9516 40.6573 17.9516Z" fill="#48351B"/>
<path d="M47.0397 17.9524C46.6165 17.9524 46.2107 17.7843 45.9114 17.4851C45.6122 17.1859 45.4441 16.78 45.4441 16.3568V8.37881C45.4441 7.95563 45.6122 7.54978 45.9114 7.25055C46.2107 6.95131 46.6165 6.7832 47.0397 6.7832C47.4629 6.7832 47.8687 6.95131 48.168 7.25055C48.4672 7.54978 48.6353 7.95563 48.6353 8.37881V16.3568C48.6353 16.78 48.4672 17.1859 48.168 17.4851C47.8687 17.7843 47.4629 17.9524 47.0397 17.9524Z" fill="#48351B"/>
<path d="M53.4221 17.9516C52.999 17.9516 52.5931 17.7835 52.2939 17.4842C51.9946 17.185 51.8265 16.7791 51.8265 16.356V9.97353C51.8265 9.55035 51.9946 9.14451 52.2939 8.84527C52.5931 8.54604 52.999 8.37793 53.4221 8.37793C53.8453 8.37793 54.2512 8.54604 54.5504 8.84527C54.8496 9.14451 55.0177 9.55035 55.0177 9.97353V16.356C55.0177 16.7791 54.8496 17.185 54.5504 17.4842C54.2512 17.7835 53.8453 17.9516 53.4221 17.9516Z" fill="#48351B"/>
<path d="M47.0397 59.4378C44.2136 59.4377 41.4523 58.5909 39.1121 57.0065C36.7719 55.4221 34.9601 53.1728 33.9104 50.5489C32.043 45.8803 31.0836 40.8983 31.0836 35.8701V24.3345L35.8704 16.3564H58.2089L62.9957 24.3345V35.8701C62.9959 40.8986 62.0364 45.8809 60.1689 50.5497C59.1191 53.1735 57.3073 55.4226 54.9671 57.0068C52.6269 58.5911 49.8657 59.4378 47.0397 59.4378Z" fill="#FDC9A6"/>
<path d="M42.2529 83.3712V72.202L47.0397 69.0107L51.8266 72.202V83.3712H42.2529Z" fill="#FBFDFF"/>
<path d="M47.0397 76.9891C47.9209 76.9891 48.6353 76.2747 48.6353 75.3935C48.6353 74.5122 47.9209 73.7979 47.0397 73.7979C46.1585 73.7979 45.4441 74.5122 45.4441 75.3935C45.4441 76.2747 46.1585 76.9891 47.0397 76.9891Z" fill="#CBCBCB"/>
<path d="M56.6133 30.7166H51.8264C51.4033 30.7166 50.9974 30.5485 50.6982 30.2492C50.3989 29.95 50.2308 29.5442 50.2308 29.121C50.2308 28.6978 50.3989 28.292 50.6982 27.9927C50.9974 27.6935 51.4033 27.5254 51.8264 27.5254H56.6133C57.0364 27.5254 57.4423 27.6935 57.7415 27.9927C58.0408 28.292 58.2089 28.6978 58.2089 29.121C58.2089 29.5442 58.0408 29.95 57.7415 30.2492C57.4423 30.5485 57.0364 30.7166 56.6133 30.7166Z" fill="#48351B"/>
<path d="M53.821 35.8748C54.9226 35.8748 55.8155 34.9818 55.8155 33.8802C55.8155 32.7787 54.9226 31.8857 53.821 31.8857C52.7195 31.8857 51.8265 32.7787 51.8265 33.8802C51.8265 34.9818 52.7195 35.8748 53.821 35.8748Z" fill="#48351B"/>
<path d="M42.2529 30.7166H37.4661C37.0429 30.7166 36.6371 30.5485 36.3378 30.2492C36.0386 29.95 35.8705 29.5442 35.8705 29.121C35.8705 28.6978 36.0386 28.292 36.3378 27.9927C36.6371 27.6935 37.0429 27.5254 37.4661 27.5254H42.2529C42.6761 27.5254 43.0819 27.6935 43.3812 27.9927C43.6804 28.292 43.8485 28.6978 43.8485 29.121C43.8485 29.5442 43.6804 29.95 43.3812 30.2492C43.0819 30.5485 42.6761 30.7166 42.2529 30.7166Z" fill="#48351B"/>
<path d="M40.2583 35.8748C41.3598 35.8748 42.2528 34.9818 42.2528 33.8802C42.2528 32.7787 41.3598 31.8857 40.2583 31.8857C39.1568 31.8857 38.2638 32.7787 38.2638 33.8802C38.2638 34.9818 39.1568 35.8748 40.2583 35.8748Z" fill="#48351B"/>
<path d="M48.6353 43.0549H45.4441C45.0209 43.0549 44.6151 42.8868 44.3159 42.5876C44.0166 42.2883 43.8485 41.8825 43.8485 41.4593V37.0995C43.8485 36.6763 44.0166 36.2705 44.3159 35.9712C44.6151 35.672 45.0209 35.5039 45.4441 35.5039C45.8673 35.5039 46.2731 35.672 46.5724 35.9712C46.8716 36.2705 47.0397 36.6763 47.0397 37.0995V39.8637H48.6353C49.0585 39.8637 49.4644 40.0318 49.7636 40.331C50.0628 40.6303 50.2309 41.0361 50.2309 41.4593C50.2309 41.8825 50.0628 42.2883 49.7636 42.5876C49.4644 42.8868 49.0585 43.0549 48.6353 43.0549Z" fill="#F6BB92"/>
<path d="M31.0837 28.6934H28.8786C27.7708 28.6934 26.7084 29.1334 25.925 29.9167C25.1416 30.6999 24.7015 31.7623 24.7013 32.8701V35.6845C24.7013 36.333 24.8523 36.9727 25.1423 37.5528C25.4893 38.2466 26.0226 38.8301 26.6825 39.238C27.3424 39.6458 28.1028 39.8618 28.8786 39.8618H31.2832L31.0837 28.6934Z" fill="#FDC9A6"/>
<path d="M62.9958 28.6934H65.201C66.3087 28.6934 67.3712 29.1334 68.1546 29.9167C68.9379 30.6999 69.3781 31.7623 69.3783 32.8701V35.6845C69.3783 36.333 69.2273 36.9727 68.9373 37.5528C68.5903 38.2466 68.057 38.8301 67.3971 39.238C66.7372 39.6458 65.9767 39.8618 65.201 39.8618H62.7964L62.9958 28.6934Z" fill="#FDC9A6"/>
<path d="M10.3407 91.3503V84.5409C10.3407 84.1177 10.5088 83.7119 10.808 83.4127C11.1073 83.1134 11.5131 82.9453 11.9363 82.9453C12.3595 82.9453 12.7653 83.1134 13.0646 83.4127C13.3638 83.7119 13.5319 84.1177 13.5319 84.5409V91.3503H10.3407Z" fill="#CBCBCB"/>
<path d="M80.5474 91.3503V84.5409C80.5474 84.1177 80.7155 83.7119 81.0147 83.4127C81.3139 83.1134 81.7198 82.9453 82.143 82.9453C82.5662 82.9453 82.972 83.1134 83.2712 83.4127C83.5705 83.7119 83.7386 84.1177 83.7386 84.5409V91.3503H80.5474Z" fill="#CBCBCB"/>
<path d="M24.701 68.584V83.3714H18.3186V71.7752L24.701 68.584Z" fill="#48351B"/>
<path d="M69.3782 68.584V83.3714H75.7606V71.7752L69.3782 68.584Z" fill="#48351B"/>
<path d="M55.0177 43.4812L47.0397 40.2899L40.6572 43.4812L31.0836 38.6943V45.4431C31.0836 48.6321 32.0392 51.7479 33.827 54.3886C35.6148 57.0292 38.1529 59.0736 41.1138 60.2579C44.9179 61.7796 49.1615 61.7796 52.9655 60.2579C55.9264 59.0736 58.4645 57.0292 60.2523 54.3886C62.0401 51.7479 62.9957 48.6321 62.9957 45.4431V38.6943L55.0177 43.4812Z" fill="#5F4623"/>
<path d="M42.2527 54.6503V60.6637C41.8698 60.5441 41.4888 60.4084 41.1139 60.2588C40.4067 59.9761 39.7208 59.6428 39.0615 59.2616V54.6503C39.0615 54.2271 39.2296 53.8213 39.5289 53.522C39.8281 53.2228 40.2339 53.0547 40.6571 53.0547C41.0803 53.0547 41.4862 53.2228 41.7854 53.522C42.0846 53.8213 42.2527 54.2271 42.2527 54.6503Z" fill="#5F4623"/>
<path d="M48.6354 56.246V61.318C47.5745 61.4271 46.5052 61.4271 45.4442 61.318V56.246C45.4442 55.8228 45.6123 55.417 45.9116 55.1177C46.2108 54.8185 46.6166 54.6504 47.0398 54.6504C47.463 54.6504 47.8688 54.8185 48.1681 55.1177C48.4673 55.417 48.6354 55.8228 48.6354 56.246Z" fill="#5F4623"/>
<path d="M55.0177 54.6503V59.2616C54.3585 59.6428 53.6726 59.9761 52.9654 60.2588C52.5904 60.4084 52.2095 60.5441 51.8265 60.6637V54.6503C51.8265 54.2271 51.9946 53.8213 52.2939 53.522C52.5931 53.2228 52.999 53.0547 53.4221 53.0547C53.8453 53.0547 54.2512 53.2228 54.5504 53.522C54.8496 53.8213 55.0177 54.2271 55.0177 54.6503Z" fill="#5F4623"/>
<path d="M75.7607 83.3721L77.3563 91.3501H16.7233L18.3189 83.3721H75.7607Z" fill="#8F6934"/>
<path d="M42.2529 54.6503V60.6637C41.8699 60.5441 41.489 60.4084 41.114 60.2588C40.4068 59.9761 39.7209 59.6428 39.0616 59.2616V54.6503C39.0616 54.2271 39.2298 53.8213 39.529 53.522C39.8282 53.2228 40.2341 53.0547 40.6573 53.0547C41.0804 53.0547 41.4863 53.2228 41.7855 53.522C42.0848 53.8213 42.2529 54.2271 42.2529 54.6503Z" fill="#48351B"/>
<path d="M48.6353 56.246V61.318C47.5744 61.4271 46.505 61.4271 45.4441 61.318V56.246C45.4441 55.8228 45.6122 55.417 45.9114 55.1177C46.2107 54.8185 46.6165 54.6504 47.0397 54.6504C47.4629 54.6504 47.8687 54.8185 48.168 55.1177C48.4672 55.417 48.6353 55.8228 48.6353 56.246Z" fill="#48351B"/>
<path d="M55.0177 54.6503V59.2616C54.3585 59.6428 53.6726 59.9761 52.9654 60.2588C52.5904 60.4084 52.2095 60.5441 51.8265 60.6637V54.6503C51.8265 54.2271 51.9946 53.8213 52.2939 53.522C52.5931 53.2228 52.999 53.0547 53.4221 53.0547C53.8453 53.0547 54.2512 53.2228 54.5504 53.522C54.8496 53.8213 55.0177 54.2271 55.0177 54.6503Z" fill="#48351B"/>
<path d="M50.2309 49.8641H43.8485C43.4254 49.8641 43.0195 49.696 42.7203 49.3967C42.421 49.0975 42.2529 48.6916 42.2529 48.2685C42.2529 47.8453 42.421 47.4394 42.7203 47.1402C43.0195 46.841 43.4254 46.6729 43.8485 46.6729H50.2309C50.6541 46.6729 51.06 46.841 51.3592 47.1402C51.6584 47.4394 51.8266 47.8453 51.8266 48.2685C51.8266 48.6916 51.6584 49.0975 51.3592 49.3967C51.06 49.696 50.6541 49.8641 50.2309 49.8641Z" fill="#F6BB92"/>
<path d="M37.466 62.6279L47.0397 69.0104L35.8704 76.9884L32.5725 65.4456L37.466 62.6279Z" fill="#CBCBCB"/>
<path d="M56.6134 62.6279L47.0398 69.0104L58.209 76.9884L61.507 65.4456L56.6134 62.6279Z" fill="#CBCBCB"/>
<path d="M47.0397 76.9891C47.9209 76.9891 48.6353 76.2747 48.6353 75.3935C48.6353 74.5122 47.9209 73.7979 47.0397 73.7979C46.1585 73.7979 45.4441 74.5122 45.4441 75.3935C45.4441 76.2747 46.1585 76.9891 47.0397 76.9891Z" fill="black"/>
<path d="M51.8264 27.5254C51.4033 27.5254 50.9974 27.6935 50.6982 27.9927C50.3989 28.292 50.2308 28.6978 50.2308 29.121C50.2308 29.5442 50.3989 29.95 50.6982 30.2492C50.9974 30.5485 51.4033 30.7166 51.8264 30.7166H56.6133C57.0364 30.7166 57.4423 30.5485 57.7415 30.2492C58.0408 29.95 58.2089 29.5442 58.2089 29.121C58.2089 28.6978 58.0408 28.292 57.7415 27.9927C57.4423 27.6935 57.0364 27.5254 56.6133 27.5254H51.8264Z" fill="black"/>
<path d="M53.821 35.8748C54.9226 35.8748 55.8155 34.9818 55.8155 33.8802C55.8155 32.7787 54.9226 31.8857 53.821 31.8857C52.7195 31.8857 51.8265 32.7787 51.8265 33.8802C51.8265 34.9818 52.7195 35.8748 53.821 35.8748Z" fill="black"/>
<path d="M42.2529 27.5254H37.4661C37.0429 27.5254 36.6371 27.6935 36.3378 27.9927C36.0386 28.292 35.8705 28.6978 35.8705 29.121C35.8705 29.5442 36.0386 29.95 36.3378 30.2492C36.6371 30.5485 37.0429 30.7166 37.4661 30.7166H42.2529C42.6761 30.7166 43.0819 30.5485 43.3812 30.2492C43.6804 29.95 43.8485 29.5442 43.8485 29.121C43.8485 28.6978 43.6804 28.292 43.3812 27.9927C43.0819 27.6935 42.6761 27.5254 42.2529 27.5254Z" fill="black"/>
<path d="M40.2583 35.8748C41.3598 35.8748 42.2528 34.9818 42.2528 33.8802C42.2528 32.7787 41.3598 31.8857 40.2583 31.8857C39.1568 31.8857 38.2638 32.7787 38.2638 33.8802C38.2638 34.9818 39.1568 35.8748 40.2583 35.8748Z" fill="black"/>
<path d="M2.36275 92.9452H91.7166C91.9446 92.9452 92.1698 92.8964 92.3773 92.8021C92.5848 92.7077 92.7696 92.57 92.9194 92.3983C93.0692 92.2265 93.1804 92.0246 93.2457 91.8062C93.3109 91.5878 93.3285 91.358 93.2975 91.1322L92.5617 85.7869C92.2618 83.603 91.4338 81.5251 90.1494 79.7335C88.8651 77.9418 87.1632 76.4904 85.1912 75.5051L85.1699 75.4945L77.353 71.7307C77.3453 71.4424 77.2594 71.1615 77.1047 70.9182C76.9499 70.6748 76.732 70.478 76.4742 70.3487L70.0918 67.1575C69.8093 67.0131 69.4898 66.9576 69.1752 66.9984C68.8606 67.0391 68.5657 67.1741 68.3293 67.3856L62.1924 64.4308L57.4985 61.3016C57.2365 61.1266 56.9284 61.0332 56.6133 61.0331V60.1591C59.0697 58.5712 61.0876 56.3915 62.4816 53.8201C63.8756 51.2488 64.6011 48.3684 64.5914 45.4435V41.4588H65.2009C66.2737 41.4625 67.3262 41.1655 68.2388 40.6014C69.1514 40.0374 69.8878 39.2289 70.3643 38.2676C70.7641 37.4657 70.9727 36.582 70.9738 35.6859V32.8707C70.9744 31.3885 70.4028 29.9632 69.3782 28.8923V20.274C69.3822 18.8219 69.0981 17.3834 68.5425 16.0418C67.9868 14.7002 67.1706 13.4822 66.1411 12.4581C65.9022 12.2191 65.6766 11.9671 65.4655 11.7032L62.3723 7.83685C59.7076 4.50599 56.0582 2.10275 51.9456 0.970606C47.8331 -0.161534 43.4679 0.0353825 39.4739 1.53321L37.6673 2.21134C34.7477 3.3021 32.3507 5.45988 30.96 8.24911L29.8391 10.4905C28.2475 11.6324 26.9512 13.1374 26.0577 14.8805C25.1642 16.6237 24.6991 18.5547 24.7012 20.5135V28.893C23.6766 29.964 23.105 31.3893 23.1056 32.8715V35.6859C23.1067 36.582 23.3153 37.4657 23.7151 38.2676C24.1916 39.2289 24.9279 40.0374 25.8406 40.6014C26.7532 41.1655 27.8057 41.4625 28.8785 41.4588H29.488V45.4435C29.4783 48.3684 30.2038 51.2488 31.5978 53.8201C32.9918 56.3915 35.0097 58.5712 37.4661 60.1591V61.0331C37.151 61.033 36.843 61.1263 36.5809 61.3012L31.7941 64.4924C31.7542 64.5195 31.7181 64.5522 31.6808 64.5819L25.5788 67.256C25.5652 67.247 25.5533 67.236 25.5389 67.2279C25.3075 67.0849 25.0434 67.0034 24.7717 66.9912C24.5 66.979 24.2297 67.0364 23.9864 67.1581L17.604 70.3493C17.3689 70.4671 17.1665 70.6412 17.0151 70.8562C16.8636 71.0711 16.7676 71.3202 16.7358 71.5813L8.88818 75.5047C6.91622 76.4901 5.21431 77.9415 3.92994 79.7331C2.64557 81.5248 1.81749 83.6026 1.51748 85.7865L0.781903 91.1318C0.750787 91.3576 0.768418 91.5875 0.833608 91.8059C0.898799 92.0244 1.01003 92.2263 1.15983 92.3981C1.30962 92.57 1.49449 92.7077 1.70199 92.8021C1.90949 92.8964 2.1348 92.9453 2.36275 92.9452ZM77.3562 75.2739L83.7743 78.3642C85.2798 79.1186 86.5789 80.2284 87.5592 81.5976C88.5395 82.9668 89.1714 84.5542 89.4004 86.2225L89.8865 89.754H83.7386V84.5402C83.7386 84.117 83.5705 83.7112 83.2713 83.4119C82.972 83.1127 82.5662 82.9446 82.143 82.9446C81.7198 82.9446 81.314 83.1127 81.0147 83.4119C80.7155 83.7112 80.5474 84.117 80.5474 84.5402V89.754H78.6644L77.3562 83.2136V75.2739ZM70.9738 71.1652L74.165 72.7608V81.776H70.9738V71.1652ZM62.4142 68.0783L67.7826 70.664V81.776H53.4221V75.531L57.2815 78.2876C57.4894 78.4361 57.73 78.5325 57.983 78.5687C58.236 78.6049 58.4939 78.5798 58.7352 78.4955C58.9764 78.4112 59.1939 78.2702 59.3693 78.0844C59.5447 77.8985 59.6729 77.6733 59.7431 77.4276L62.4142 68.0783ZM59.5459 66.5007L57.296 74.3764L49.8484 69.0566L56.6133 64.5464L59.5459 66.5007ZM53.5294 62.7663L47.0397 67.0934L40.55 62.7671C40.6198 62.5868 40.6562 62.3951 40.6573 62.2017V61.791C44.7592 63.4049 49.3202 63.4049 53.4221 61.791V62.2023C53.4233 62.3955 53.4597 62.5869 53.5294 62.7671V62.7663ZM50.2309 73.2515V81.776H43.8485V73.2515L47.0397 70.9719L50.2309 73.2515ZM61.3483 37.8225L54.8755 41.7064L47.6323 38.8089C47.4437 38.7341 47.2426 38.696 47.0397 38.6966V37.099C47.0397 36.6759 46.8716 36.27 46.5724 35.9708C46.2731 35.6715 45.8673 35.5034 45.4441 35.5034C45.0209 35.5034 44.6151 35.6715 44.3158 35.9708C44.0166 36.27 43.8485 36.6759 43.8485 37.099V40.102L40.6573 41.6976L32.7261 37.7319C32.6958 37.1108 32.6792 24.7762 32.6792 24.7762L36.7738 17.9518H57.3056L61.4001 24.7762C61.4001 24.7762 61.3818 37.1708 61.3483 37.8225ZM67.7826 32.8707V35.6851C67.7821 36.0859 67.6888 36.4811 67.5101 36.8398C67.297 37.2696 66.9677 37.6312 66.5595 37.8834C66.1513 38.1356 65.6807 38.2685 65.2009 38.2668H64.5327C64.5293 38.2549 64.5241 38.2433 64.5205 38.2313C64.5658 37.4435 64.5914 36.6535 64.5914 35.869V30.2896H65.2009C65.8852 30.2904 66.5413 30.5626 67.0253 31.0464C67.5093 31.5303 67.7816 32.1863 67.7826 32.8707ZM29.5479 38.2676H28.8789C28.3991 38.2693 27.9284 38.1364 27.5203 37.8842C27.1121 37.632 26.7828 37.2704 26.5697 36.8406C26.3908 36.4819 26.2974 36.0867 26.2968 35.6859V32.8707C26.2976 32.1862 26.5698 31.5299 27.0538 31.0459C27.5378 30.5619 28.194 30.2896 28.8785 30.2888H29.488V35.869C29.488 36.6545 29.5122 37.4483 29.5574 38.2369C29.5545 38.2477 29.5505 38.2575 29.5479 38.2676ZM29.488 24.3342V27.0984H28.8785C28.548 27.0989 28.2181 27.1277 27.8924 27.1846V20.5135C27.8909 19.0062 28.2623 17.5219 28.9735 16.193C29.6848 14.864 30.7138 13.7317 31.9688 12.8969C32.1998 12.7429 32.3866 12.5313 32.5107 12.283L33.8141 9.67618C34.8453 7.60781 36.6228 6.00771 38.7878 5.19891L40.5947 4.52078C43.9585 3.2593 47.635 3.09352 51.0988 4.04713C54.5625 5.00074 57.6361 7.02492 59.8803 9.83036L62.9736 13.6969C63.2583 14.0523 63.5623 14.3919 63.8841 14.7141C64.6165 15.4425 65.1972 16.309 65.5924 17.2634C65.9877 18.2177 66.1898 19.241 66.187 20.274V27.1846C65.8613 27.1277 65.5314 27.0989 65.2009 27.0984H64.5914V24.3342C64.5913 24.045 64.5127 23.7613 64.364 23.5133L59.5772 15.5352C59.4354 15.299 59.2349 15.1034 58.9951 14.9677C58.7553 14.8319 58.4845 14.7606 58.2089 14.7606H55.0177V9.97376C55.0177 9.55058 54.8496 9.14473 54.5504 8.8455C54.2511 8.54626 53.8453 8.37816 53.4221 8.37816C52.9989 8.37816 52.5931 8.54626 52.2939 8.8455C51.9946 9.14473 51.8265 9.55058 51.8265 9.97376V14.7606H48.6353V8.37816C48.6353 7.95498 48.4672 7.54913 48.168 7.24989C47.8687 6.95066 47.4629 6.78255 47.0397 6.78255C46.6165 6.78255 46.2107 6.95066 45.9114 7.24989C45.6122 7.54913 45.4441 7.95498 45.4441 8.37816V14.7606H42.2529V9.97376C42.2529 9.55058 42.0848 9.14473 41.7855 8.8455C41.4863 8.54626 41.0805 8.37816 40.6573 8.37816C40.2341 8.37816 39.8282 8.54626 39.529 8.8455C39.2298 9.14473 39.0617 9.55058 39.0617 9.97376V14.7606H35.8705C35.5949 14.7606 35.3241 14.8319 35.0843 14.9677C34.8445 15.1034 34.644 15.299 34.5022 15.5352L29.7154 23.5133C29.5667 23.7613 29.4881 24.045 29.488 24.3342ZM32.6792 45.4435V41.2763L39.9436 44.9085C40.1652 45.0193 40.4095 45.077 40.6573 45.077C40.905 45.077 41.1493 45.0193 41.3709 44.9085L47.1123 42.0378L54.4252 44.963C54.6536 45.0542 54.9 45.0915 55.1452 45.0718C55.3904 45.0522 55.6277 44.9762 55.8387 44.8497L61.4001 41.5127V45.4435C61.4078 47.807 60.8287 50.1355 59.7147 52.2201C58.6008 54.3047 56.9869 56.0802 55.0177 57.3874V54.6507C55.0177 54.2275 54.8496 53.8217 54.5504 53.5224C54.2511 53.2232 53.8453 53.0551 53.4221 53.0551C52.9989 53.0551 52.5931 53.2232 52.2939 53.5224C51.9946 53.8217 51.8265 54.2275 51.8265 54.6507V58.9806C50.7943 59.3463 49.7236 59.5929 48.6353 59.7154V56.2463C48.6353 55.8231 48.4672 55.4173 48.168 55.118C47.8687 54.8188 47.4629 54.6507 47.0397 54.6507C46.6165 54.6507 46.2107 54.8188 45.9114 55.118C45.6122 55.4173 45.4441 55.8231 45.4441 56.2463V59.7154C44.3558 59.5928 43.2851 59.3463 42.2529 58.9806V54.6507C42.2529 54.2275 42.0848 53.8217 41.7855 53.5224C41.4863 53.2232 41.0805 53.0551 40.6573 53.0551C40.2341 53.0551 39.8282 53.2232 39.529 53.5224C39.2298 53.8217 39.0617 54.2275 39.0617 54.6507V57.3874C37.0925 56.0802 35.4786 54.3047 34.3647 52.2201C33.2507 50.1355 32.6716 47.807 32.6792 45.4435ZM37.4661 64.5464L44.231 69.0564L36.7833 74.3764L34.5341 66.5015L37.4661 64.5464ZM26.2968 70.4251L31.6636 68.0735L34.3363 77.4278C34.4065 77.6735 34.5347 77.8987 34.7101 78.0846C34.8855 78.2704 35.103 78.4114 35.3442 78.4957C35.5855 78.58 35.8434 78.6051 36.0964 78.5689C36.3494 78.5327 36.59 78.4363 36.7979 78.2878L40.6573 75.531V81.776H26.2968V70.4251ZM19.9144 72.7608L23.1056 71.1652V81.776H19.9144V72.7608ZM19.627 84.9672H74.4524L75.4098 89.754H18.6696L19.627 84.9672ZM4.67877 86.2217C4.90824 84.5516 5.54151 82.9626 6.52372 81.5925C7.50592 80.2224 8.80743 79.1124 10.3154 78.3588L16.7232 75.1542V83.212L15.415 89.754H13.532V84.5402C13.532 84.117 13.3639 83.7112 13.0646 83.4119C12.7654 83.1127 12.3596 82.9446 11.9364 82.9446C11.5132 82.9446 11.1074 83.1127 10.8081 83.4119C10.5089 83.7112 10.3408 84.117 10.3408 84.5402V89.754H4.19291L4.67877 86.2217Z" fill="black"/>
<path d="M43.8485 49.8641H50.2309C50.6541 49.8641 51.06 49.696 51.3592 49.3967C51.6584 49.0975 51.8266 48.6916 51.8266 48.2685C51.8266 47.8453 51.6584 47.4394 51.3592 47.1402C51.06 46.841 50.6541 46.6729 50.2309 46.6729H43.8485C43.4254 46.6729 43.0195 46.841 42.7203 47.1402C42.421 47.4394 42.2529 47.8453 42.2529 48.2685C42.2529 48.6916 42.421 49.0975 42.7203 49.3967C43.0195 49.696 43.4254 49.8641 43.8485 49.8641Z" fill="black"/>
</svg>
