<svg width="35" height="35" viewBox="0 0 35 35" fill="none" xmlns="http://www.w3.org/2000/svg">
<path fill-rule="evenodd" clip-rule="evenodd" d="M13.3984 24.8486H21.6016C21.6016 20.542 27.7539 20.6787 27.7539 11.8604C27.7539 6.19746 23.1629 1.60645 17.5 1.60645C11.8371 1.60645 7.24609 6.19746 7.24609 11.8604C7.24609 20.6787 13.3984 20.542 13.3984 24.8486Z" fill="#FFEA60"/>
<path fill-rule="evenodd" clip-rule="evenodd" d="M21.6016 24.8486H13.3984C12.5521 24.8486 11.8604 25.5411 11.8604 26.3867C11.8604 27.2323 12.5528 27.9248 13.3984 27.9248H21.6016C22.4472 27.9248 23.1396 27.2323 23.1396 26.3867C23.1396 25.5411 22.4479 24.8486 21.6016 24.8486Z" fill="#6D91AC"/>
<path fill-rule="evenodd" clip-rule="evenodd" d="M13.3984 27.9248H21.6016V30.6592H13.3984V27.9248Z" fill="#A7BDCD"/>
<path fill-rule="evenodd" clip-rule="evenodd" d="M21.6016 30.6592H13.3984V32.0264C13.3984 32.7783 14.0137 33.3936 14.7656 33.3936H20.2344C20.9863 33.3936 21.6016 32.7783 21.6016 32.0264V30.6592Z" fill="#A7BDCD"/>
<path d="M17.5 0.922852C11.4693 0.922852 6.5625 5.82969 6.5625 11.8604C6.5625 17.3387 8.83066 19.5604 10.6531 21.3452C11.6908 22.3617 12.4783 23.1335 12.6697 24.2888C11.8016 24.5909 11.1768 25.4174 11.1768 26.3874C11.1768 27.3738 11.8234 28.2119 12.7148 28.5011V29.9763H12.5439C12.1666 29.9763 11.8604 30.2825 11.8604 30.6599C11.8604 31.0372 12.1666 31.3435 12.5439 31.3435H12.7148V32.0271C12.7148 33.1577 13.635 34.0778 14.7656 34.0778H20.2344C21.365 34.0778 22.2852 33.1577 22.2852 32.0271V31.3435H22.4561C22.8334 31.3435 23.1396 31.0372 23.1396 30.6599C23.1396 30.2825 22.8334 29.9763 22.4561 29.9763H22.2852V28.5011C23.1766 28.2119 23.8232 27.3738 23.8232 26.3874C23.8232 25.4174 23.1984 24.5916 22.3303 24.2888C22.5217 23.1342 23.3092 22.3617 24.3469 21.3452C26.1693 19.5597 28.4375 17.338 28.4375 11.8604C28.4375 5.82969 23.5307 0.922852 17.5 0.922852ZM20.918 32.0264C20.918 32.403 20.611 32.71 20.2344 32.71H14.7656C14.389 32.71 14.082 32.403 14.082 32.0264V31.3428H20.918V32.0264ZM14.082 29.9756V28.6084H20.918V29.9756H14.082ZM23.3898 20.3684C22.2667 21.4689 21.1989 22.5155 20.9651 24.165H20.5762C20.1988 24.165 19.8926 24.4713 19.8926 24.8486C19.8926 25.226 20.1988 25.5322 20.5762 25.5322H21.6016C22.0726 25.5322 22.4561 25.9157 22.4561 26.3867C22.4561 26.8577 22.0726 27.2412 21.6016 27.2412H13.3984C12.9274 27.2412 12.5439 26.8577 12.5439 26.3867C12.5439 25.9157 12.9274 25.5322 13.3984 25.5322H14.4238C14.8012 25.5322 15.1074 25.226 15.1074 24.8486C15.1074 24.4713 14.8012 24.165 14.4238 24.165H14.0342C13.8011 22.5155 12.7333 21.4689 11.6095 20.3684C9.88477 18.6785 7.92969 16.7638 7.92969 11.8604C7.92969 6.58301 12.2227 2.29004 17.5 2.29004C22.7773 2.29004 27.0703 6.58301 27.0703 11.8604C27.0703 16.7638 25.1152 18.6785 23.3898 20.3684Z" fill="black"/>
<path d="M4.51172 11.8604C4.51172 11.483 4.20547 11.1768 3.82812 11.1768H0.683594C0.30625 11.1768 0 11.483 0 11.8604C0 12.2377 0.30625 12.5439 0.683594 12.5439H3.82812C4.20547 12.5439 4.51172 12.2377 4.51172 11.8604Z" fill="black"/>
<path d="M5.31757 18.1043L2.59413 19.6766C2.26737 19.8652 2.15526 20.2836 2.34394 20.6104C2.4704 20.8298 2.70009 20.9522 2.93661 20.9522C3.05282 20.9522 3.1704 20.9228 3.27772 20.8606L6.00116 19.2883C6.32792 19.0996 6.44003 18.6813 6.25136 18.3545C6.06269 18.0277 5.64501 17.9156 5.31757 18.1043Z" fill="black"/>
<path d="M32.405 19.6766L29.6815 18.1043C29.3548 17.9156 28.9364 18.0277 28.7477 18.3545C28.5591 18.6813 28.6712 19.0996 28.9979 19.2883L31.7214 20.8606C31.8294 20.9228 31.9463 20.9522 32.0625 20.9522C32.299 20.9522 32.5287 20.8298 32.6552 20.6104C32.8438 20.2836 32.7324 19.8652 32.405 19.6766Z" fill="black"/>
<path d="M34.3164 11.1768H31.1719C30.7945 11.1768 30.4883 11.483 30.4883 11.8604C30.4883 12.2377 30.7945 12.5439 31.1719 12.5439H34.3164C34.6937 12.5439 35 12.2377 35 11.8604C35 11.483 34.6937 11.1768 34.3164 11.1768Z" fill="black"/>
<path d="M29.3412 5.70802C29.4574 5.70802 29.5749 5.67863 29.6823 5.61642L32.4057 4.04415C32.7325 3.85548 32.8446 3.43712 32.6559 3.11037C32.4672 2.78361 32.0489 2.6715 31.7221 2.86017L28.9987 4.43244C28.6719 4.62111 28.5598 5.03947 28.7485 5.36622C28.8749 5.58566 29.1046 5.70802 29.3412 5.70802Z" fill="black"/>
<path d="M6.00116 4.43244L3.27772 2.86017C2.95097 2.6715 2.53261 2.78361 2.34394 3.11037C2.15526 3.43712 2.26737 3.85548 2.59413 4.04415L5.31757 5.61642C5.42489 5.67863 5.54247 5.70802 5.65868 5.70802C5.8952 5.70802 6.12489 5.58566 6.25136 5.36622C6.44071 5.03947 6.3286 4.62111 6.00116 4.43244Z" fill="black"/>
<path d="M17.5006 24.165C17.1226 24.165 16.817 24.4713 16.817 24.8486C16.817 25.226 17.1233 25.5322 17.5006 25.5322C17.878 25.5322 18.1842 25.226 18.1842 24.8486C18.1842 24.4713 17.878 24.165 17.5006 24.165Z" fill="black"/>
</svg>
