<svg width="36" height="35" viewBox="0 0 36 35" fill="none" xmlns="http://www.w3.org/2000/svg">
<path fill-rule="evenodd" clip-rule="evenodd" d="M15.3584 2.31226L11.4651 9.70761L13.0757 11.9498C14.4463 10.9776 16.115 10.4066 17.9159 10.4057V0.71122C16.8772 0.740623 15.8825 1.31825 15.3584 2.31226Z" fill="#FFDE55"/>
<path fill-rule="evenodd" clip-rule="evenodd" d="M17.916 10.4068C16.1151 10.4068 14.4454 10.9777 13.0757 11.9509C11.5777 13.0141 10.4367 14.5592 9.87144 16.3623C9.61645 17.177 9.47864 18.044 9.47864 18.9431C9.47864 19.8461 9.61738 20.7168 9.87425 21.5344C10.4396 23.3318 11.5767 24.8702 13.0692 25.9316C14.4407 26.9066 16.1113 27.4795 17.915 27.4795H17.916C19.8218 27.4795 21.5806 26.8402 22.9933 25.7618C24.3443 24.7308 25.3783 23.2986 25.9239 21.6397C26.2023 20.7917 26.3533 19.8859 26.3533 18.9431C26.3533 18.0041 26.2042 17.1021 25.9277 16.257C25.382 14.5915 24.3443 13.1536 22.9877 12.1207C21.5759 11.0441 19.82 10.4068 17.916 10.4068ZM12.2911 18.9431C12.2911 15.7998 14.8091 13.2522 17.916 13.2522C21.0228 13.2522 23.5408 15.7998 23.5408 18.9431C23.5408 22.0864 21.0228 24.634 17.916 24.634C14.8091 24.634 12.2911 22.0864 12.2911 18.9431Z" fill="#FFC144"/>
<path fill-rule="evenodd" clip-rule="evenodd" d="M23.5408 18.9431C23.5408 22.0864 21.0227 24.634 17.9159 24.634C14.8091 24.634 12.291 22.0864 12.291 18.9431C12.291 15.7998 14.8091 13.2522 17.9159 13.2522C19.4074 13.2522 20.838 13.8517 21.8936 14.9187C22.9483 15.9857 23.5408 17.4341 23.5408 18.9431Z" fill="#3AACFF"/>
<path fill-rule="evenodd" clip-rule="evenodd" d="M11.9395 24.9688C11.0029 24.0174 10.2867 22.8451 9.87421 21.5343L7.29146 22.3832L6.22086 30.6445C6.09148 31.2781 6.16086 31.9572 6.46272 32.5832C6.69709 33.0698 7.04302 33.4653 7.45364 33.7518L13.0691 25.9315C12.6651 25.6441 12.2873 25.3216 11.9395 24.9688Z" fill="#FFD400"/>
<path fill-rule="evenodd" clip-rule="evenodd" d="M13.0701 25.9316L7.45459 33.7518C8.31613 34.3532 9.46548 34.4803 10.4733 33.9833L17.9159 30.3183V27.4795C16.1094 27.4795 14.4397 26.9066 13.0701 25.9316Z" fill="#FFDE55"/>
<path fill-rule="evenodd" clip-rule="evenodd" d="M17.9159 27.4794V30.3182L25.5451 33.9955C26.056 34.2421 26.6429 34.3408 27.2457 34.2564C27.781 34.1814 28.2638 33.968 28.6632 33.656L22.9942 25.7617C21.5833 26.8392 19.8265 27.4794 17.9159 27.4794Z" fill="#FFD400"/>
<path fill-rule="evenodd" clip-rule="evenodd" d="M22.9933 25.7618L28.6622 33.656C29.4853 33.0139 29.9541 31.9554 29.8013 30.839L28.6547 22.536L25.9238 21.6387C25.5151 22.8812 24.8326 23.9966 23.9476 24.9119C23.6514 25.2183 23.3327 25.5028 22.9933 25.7618Z" fill="#FFDE55"/>
<path fill-rule="evenodd" clip-rule="evenodd" d="M25.9238 21.6397L28.6547 22.5369L34.3452 16.4647C34.8055 16.0303 35.1355 15.4461 35.2527 14.7698C35.3446 14.2358 35.293 13.7103 35.1252 13.2342L25.9276 16.258C26.2041 17.1031 26.3532 18.0051 26.3532 18.9441C26.3532 19.885 26.2023 20.7917 25.9238 21.6397Z" fill="#FFD400"/>
<path fill-rule="evenodd" clip-rule="evenodd" d="M25.9275 16.257L35.1251 13.2332C34.7745 12.2354 33.9177 11.4519 32.8133 11.2575L24.6572 9.79588L22.9885 12.1197C23.3438 12.3909 23.6766 12.6888 23.9851 13.0122C24.8541 13.9227 25.5253 15.0277 25.9275 16.257Z" fill="#FFDE55"/>
<path fill-rule="evenodd" clip-rule="evenodd" d="M9.87142 16.3622C10.283 15.0485 11.0001 13.8724 11.9376 12.9192C12.2873 12.5635 12.6679 12.2391 13.0748 11.9508L11.4642 9.70856L3.24907 11.2527C2.65658 11.3428 2.08566 11.6131 1.6216 12.0646C1.23349 12.4421 0.967243 12.9012 0.825684 13.3887L9.87142 16.3622Z" fill="#FFD400"/>
<path fill-rule="evenodd" clip-rule="evenodd" d="M9.4786 18.9431C9.4786 18.0439 9.6164 17.1761 9.8714 16.3623L0.826597 13.3888C0.533166 14.398 0.767536 15.5342 1.54002 16.3471L7.29239 22.3833L9.87515 21.5344C9.61734 20.7168 9.4786 19.8461 9.4786 18.9431Z" fill="#FFDE55"/>
<path fill-rule="evenodd" clip-rule="evenodd" d="M17.916 10.4068C18.0557 10.4068 18.1935 10.4106 18.3313 10.4172C20.0778 10.5026 21.6818 11.1238 22.9877 12.1207L24.6564 9.79688L20.6225 2.28962C20.3525 1.78692 19.9391 1.35631 19.4038 1.06702C18.9294 0.810926 18.4166 0.697108 17.915 0.711335L17.916 10.4068Z" fill="#FFD400"/>
<path d="M32.9353 10.5575L25.1129 9.15565L21.2402 1.94906C20.8943 1.30598 20.374 0.784315 19.7346 0.439066C17.9384 -0.530287 15.6969 0.159262 14.7379 1.97751L11.0029 9.07124L9.60048 9.33492C9.21892 9.407 8.96674 9.77786 9.03799 10.1648C9.10924 10.5518 9.47673 10.806 9.85828 10.7339L11.1576 10.4902L12.1054 11.8095C10.942 12.7817 10.0205 14.0385 9.44392 15.4735L1.79315 12.9581C1.88408 12.8216 1.98908 12.6935 2.10908 12.5768C2.45313 12.242 2.88437 12.0267 3.35405 11.9556C3.36249 11.9546 3.36999 11.9527 3.37843 11.9518L3.63623 11.9034C4.01779 11.8313 4.26997 11.4605 4.19872 11.0735C4.12747 10.6875 3.76092 10.4323 3.37843 10.5044L3.13187 10.5509C2.3772 10.6685 1.68627 11.0147 1.1341 11.5515C0.422552 12.2439 0.020374 13.1763 0.000686902 14.175C-0.0180627 15.1738 0.347555 16.1204 1.03285 16.8403L6.54992 22.6298L5.52619 30.5269C5.36776 31.3351 5.47275 32.1526 5.82993 32.8944C6.47023 34.2251 7.79208 35 9.16455 35C9.70829 35 10.2595 34.8786 10.7798 34.6225L17.9187 31.1065L25.2414 34.6358C25.8901 34.9488 26.6157 35.0607 27.3413 34.9592C29.3616 34.6766 30.7772 32.7843 30.4978 30.7394L29.3982 22.7759L34.8412 16.9674C35.4252 16.4097 35.8058 15.6926 35.9446 14.8902C36.2952 12.8566 34.9452 10.9122 32.9353 10.5575ZM34.1081 12.8206L26.3476 15.3711C25.8067 14.0688 24.9789 12.9173 23.9448 11.9983L24.9676 10.5746L32.6925 11.9584C33.2756 12.0618 33.7696 12.3805 34.1081 12.8206ZM28.0191 23.0756L29.1047 30.9367C29.1854 31.5238 29.0391 32.091 28.7354 32.5472L23.9495 25.8832C24.978 24.9669 25.802 23.8202 26.342 22.5246L28.0191 23.0756ZM20.0056 2.62912L23.8267 9.74182L22.8208 11.1427C21.588 10.347 20.1565 9.84141 18.6181 9.72285V1.50991C18.7728 1.55354 18.9256 1.61519 19.0728 1.69486C19.4693 1.90827 19.7918 2.2317 20.0056 2.62912ZM12.292 9.64981L15.9791 2.64714C16.2547 2.12453 16.7009 1.75272 17.2119 1.56397V9.72285C15.7757 9.83382 14.4304 10.2834 13.2548 10.9919L12.292 9.64981ZM17.9159 11.1181C22.1805 11.1181 25.6501 14.6284 25.6501 18.9431C25.6501 23.2577 22.1805 26.7681 17.9159 26.7681C13.6513 26.7681 10.1817 23.2577 10.1817 18.9431C10.1817 14.6284 13.6513 11.1181 17.9159 11.1181ZM7.35052 32.6857C7.25303 32.5595 7.16678 32.4211 7.09459 32.2722C6.87054 31.8064 6.80679 31.2933 6.90991 30.7878C6.91366 30.7707 6.91647 30.7536 6.91835 30.7366L7.93176 22.9201L9.44767 22.4221C10.0233 23.8505 10.942 25.1025 12.0998 26.0719L7.35052 32.6857ZM2.04627 15.8539C1.65065 15.4384 1.42659 14.8997 1.40784 14.3277L9.01643 16.8289C8.85893 17.508 8.77549 18.2156 8.77549 18.9431C8.77549 19.6734 8.85987 20.3848 9.01924 21.0667L7.49302 21.5685L2.04627 15.8539ZM10.1648 33.3439C9.63141 33.6067 9.04455 33.6408 8.51581 33.4843L13.2501 26.8923C14.4266 27.6018 15.7738 28.0523 17.2128 28.1643V29.8734L10.1648 33.3439ZM27.1492 33.5517C26.6982 33.6152 26.2473 33.5469 25.8479 33.3534L18.619 29.8696V28.1643C20.1593 28.0457 21.5936 27.5383 22.8274 26.7396L27.631 33.4293C27.4773 33.4862 27.317 33.528 27.1492 33.5517ZM34.559 14.6464C34.4727 15.1491 34.2327 15.5978 33.8653 15.944C33.8549 15.9535 33.8446 15.9639 33.8343 15.9743L28.4494 21.7202L26.7863 21.1739C26.9626 20.4588 27.0563 19.7114 27.0563 18.9421C27.0563 18.1767 26.9635 17.4331 26.7892 16.7208L34.5909 14.1561C34.5974 14.3183 34.5871 14.4824 34.559 14.6464Z" fill="black"/>
<path d="M17.9159 25.3454C21.4052 25.3454 24.2439 22.4734 24.2439 18.9431C24.2439 15.4128 21.4052 12.5408 17.9159 12.5408C14.4266 12.5408 11.5879 15.4128 11.5879 18.9431C11.5879 22.4734 14.4266 25.3454 17.9159 25.3454ZM17.9159 13.9635C20.6299 13.9635 22.8376 16.1972 22.8376 18.9431C22.8376 21.689 20.6299 23.9226 17.9159 23.9226C15.2019 23.9226 12.9941 21.689 12.9941 18.9431C12.9941 16.1972 15.2019 13.9635 17.9159 13.9635Z" fill="black"/>
<path d="M6.61835 11.3305C7.00647 11.3305 7.32146 11.0119 7.32146 10.6192C7.32146 10.2265 7.00647 9.90782 6.61835 9.90782H6.61742C6.2293 9.90782 5.91431 10.2265 5.91431 10.6192C5.91524 11.0119 6.23024 11.3305 6.61835 11.3305Z" fill="black"/>
</svg>
