<svg width="35" height="31" viewBox="0 0 35 31" fill="none" xmlns="http://www.w3.org/2000/svg">
<path fill-rule="evenodd" clip-rule="evenodd" d="M18.5882 7.72357L17.9293 6.51088C17.8848 6.42953 17.8178 6.3598 17.7297 6.31332C17.4918 6.18617 17.1951 6.2764 17.0686 6.51429L16.4322 7.70922L15.0896 7.95873C14.9925 7.97308 14.8996 8.01683 14.8237 8.08998C14.6289 8.27728 14.6227 8.58695 14.81 8.78177L15.75 9.75726L15.575 11.0916C15.5538 11.1942 15.5654 11.3035 15.6146 11.4047C15.7329 11.6481 16.0268 11.7493 16.2702 11.631L17.487 11.039L18.7339 11.633C18.8173 11.6727 18.9136 11.6891 19.0121 11.6754C19.28 11.6385 19.4667 11.391 19.4298 11.1238L19.2424 9.78255L20.1728 8.8016C20.248 8.73119 20.302 8.63685 20.3212 8.52748C20.3676 8.26088 20.1892 8.00658 19.9226 7.96009L18.5882 7.72357Z" fill="#FFA300"/>
<path fill-rule="evenodd" clip-rule="evenodd" d="M20.1715 8.8009L19.2411 9.78186L19.4284 11.1231C19.4653 11.391 19.278 11.6378 19.0107 11.6747C18.9123 11.6884 18.8159 11.6727 18.7325 11.6323L17.4856 11.0383L16.2688 11.6303C16.0255 11.7486 15.7322 11.6474 15.6133 11.404C15.5641 11.3029 15.5524 11.1928 15.5736 11.0909L15.7486 9.75657L14.8087 8.78108C14.6214 8.58625 14.6275 8.27659 14.8224 8.08928C14.8982 8.01614 14.9919 7.97239 15.0883 7.95803L16.4309 7.70852L17.0673 6.5136C17.1944 6.27571 17.4904 6.18547 17.7283 6.31262C17.8158 6.35911 17.8835 6.42883 17.9279 6.51018L18.5869 7.72288L19.9199 7.95872C20.1865 8.0052 20.3649 8.2595 20.3185 8.5261C20.3007 8.63616 20.2467 8.73118 20.1715 8.8009ZM17.5 14.796C20.5201 14.796 22.9688 12.3474 22.9688 9.32727C22.9688 6.30715 20.5201 3.85852 17.5 3.85852C14.4799 3.85852 12.0312 6.30715 12.0312 9.32727C12.0312 12.3474 14.4799 14.796 17.5 14.796Z" fill="#C7D9DA"/>
<path fill-rule="evenodd" clip-rule="evenodd" d="M28.9659 16.1632H6.03406V18.8976V20.2648H8.32683H26.6724H28.9652V18.8976L28.9659 16.1632Z" fill="#FF0000"/>
<path fill-rule="evenodd" clip-rule="evenodd" d="M28.9659 18.8976V20.2648H26.6731V22.9991H34.3164L32.7878 20.9484L34.3164 18.8976H28.9659Z" fill="#FF0000"/>
<path fill-rule="evenodd" clip-rule="evenodd" d="M8.32754 22.9991V20.2648H6.03408V18.8976H0.683594L2.21211 20.9484L0.683594 22.9991H8.32754Z" fill="#FF0000"/>
<path fill-rule="evenodd" clip-rule="evenodd" d="M12.965 16.1632H22.0356V16.1625C24.3264 14.6422 25.7031 12.076 25.7031 9.32727C25.7031 8.61907 25.6136 7.93205 25.4447 7.27649C25.1515 6.13625 24.6189 5.09172 23.9039 4.20032C22.4007 2.32522 20.0908 1.12415 17.5 1.12415C14.9092 1.12415 12.5993 2.32522 11.0961 4.20032C10.3811 5.09172 9.84854 6.13625 9.55527 7.27649C9.38643 7.93205 9.29688 8.61907 9.29688 9.32727C9.29688 12.0767 10.6736 14.6429 12.965 16.1632ZM17.5 14.796C14.4799 14.796 12.0312 12.3474 12.0312 9.32727C12.0312 6.30715 14.4799 3.85852 17.5 3.85852C20.5201 3.85852 22.9688 6.30715 22.9688 9.32727C22.9688 12.3474 20.5201 14.796 17.5 14.796Z" fill="#FFA300"/>
<path fill-rule="evenodd" clip-rule="evenodd" d="M3.75977 7.27649H9.55527C9.84854 6.13626 10.3811 5.09172 11.0961 4.20032H0.683594C0.683594 5.89221 2.06787 7.27649 3.75977 7.27649Z" fill="#FFCE00"/>
<path fill-rule="evenodd" clip-rule="evenodd" d="M23.9039 4.20032C24.619 5.09172 25.1515 6.13626 25.4448 7.27649H31.2403C32.9322 7.27649 34.3164 5.89221 34.3164 4.20032H23.9039Z" fill="#FFCE00"/>
<path fill-rule="evenodd" clip-rule="evenodd" d="M9.29688 9.32727C9.29688 8.61907 9.38643 7.93206 9.55527 7.27649H3.75977C3.75977 8.96838 5.14404 10.3527 6.83594 10.3527H9.36113C9.31875 10.015 9.29688 9.67249 9.29688 9.32727Z" fill="#FFCE00"/>
<path fill-rule="evenodd" clip-rule="evenodd" d="M9.36113 10.3527H6.83594C6.83594 12.0446 8.22021 13.4288 9.91211 13.4288H10.3961C9.854 12.4903 9.49854 11.445 9.36113 10.3527Z" fill="#FFCE00"/>
<path fill-rule="evenodd" clip-rule="evenodd" d="M25.6388 10.3527C25.5014 11.4457 25.146 12.4903 24.6039 13.4288H25.0879C26.7798 13.4288 28.164 12.0446 28.164 10.3527H25.6388Z" fill="#FFCE00"/>
<path fill-rule="evenodd" clip-rule="evenodd" d="M25.6388 10.3527H28.164C29.8559 10.3527 31.2402 8.96838 31.2402 7.27649H25.4447C25.6135 7.93206 25.7031 8.61907 25.7031 9.32727C25.7031 9.67249 25.6812 10.015 25.6388 10.3527Z" fill="#FFCE00"/>
<path d="M34.9276 18.5913C34.8113 18.3603 34.5755 18.214 34.3164 18.214H29.6495V16.1632C29.6495 15.7859 29.3433 15.4796 28.9659 15.4796H23.9149C24.3195 15.0585 24.6784 14.5998 24.9901 14.1124H25.0879C26.9459 14.1124 28.4943 12.7575 28.795 10.9836C30.3639 10.7177 31.6053 9.47629 31.8712 7.90745C33.6451 7.60598 35 6.05833 35 4.20032C35 3.82297 34.6938 3.51672 34.3164 3.51672H24.2184C22.5873 1.63411 20.1804 0.440552 17.5 0.440552C14.8196 0.440552 12.412 1.63342 10.7817 3.51672H0.683603C0.306259 3.51672 9.05621e-06 3.82297 9.05621e-06 4.20032C9.05621e-06 6.05833 1.35489 7.60598 3.12882 7.90745C3.39474 9.47629 4.63614 10.7177 6.20499 10.9836C6.50577 12.7569 8.05343 14.1124 9.91212 14.1124H10.0106C10.3223 14.5998 10.6818 15.0585 11.0859 15.4796H6.03409C5.65675 15.4796 5.3505 15.7859 5.3505 16.1632V18.214H0.683603C0.425204 18.214 0.188681 18.3596 0.07247 18.5913C-0.043741 18.8231 -0.0191316 19.0992 0.135361 19.3064L1.35968 20.9484L0.135361 22.5904C-0.0191316 22.7975 -0.043741 23.0743 0.07247 23.3054C0.188681 23.5365 0.425204 23.6827 0.683603 23.6827H8.32687C8.70421 23.6827 9.01046 23.3765 9.01046 22.9991V20.9484H14.4238C14.8012 20.9484 15.1074 20.6421 15.1074 20.2648C15.1074 19.8874 14.8012 19.5812 14.4238 19.5812H6.71769V16.8468H28.2817V19.5812H20.5762C20.1988 19.5812 19.8926 19.8874 19.8926 20.2648C19.8926 20.6421 20.1988 20.9484 20.5762 20.9484H25.9889V22.9991C25.9889 23.3765 26.2951 23.6827 26.6725 23.6827H34.3164C34.5748 23.6827 34.8113 23.5371 34.9276 23.3054C35.0438 23.0743 35.0192 22.7975 34.8647 22.5904L33.6403 20.9484L34.8647 19.3064C35.0192 19.0986 35.0438 18.8224 34.9276 18.5913ZM7.64327 20.9484V22.3156H2.04601L2.76036 21.3572C2.94083 21.1145 2.94083 20.7823 2.76036 20.5403L2.04601 19.5812H5.35118V20.2648C5.35118 20.6421 5.65743 20.9484 6.03477 20.9484H7.64327ZM25.7414 12.6536C25.9513 12.1334 26.1119 11.592 26.2206 11.0363H27.38C27.1476 11.8162 26.5262 12.4308 25.7414 12.6536ZM28.1641 9.66907H26.3792C26.3833 9.55559 26.3867 9.44143 26.3867 9.32727C26.3867 8.86243 26.3505 8.40579 26.2815 7.96008H30.4568C30.1615 8.94719 29.2462 9.66907 28.1641 9.66907ZM33.5337 4.88391C33.2391 5.87102 32.3224 6.5929 31.2409 6.5929H25.9561C25.7612 5.9927 25.5056 5.42053 25.1939 4.88391H33.5337ZM1.46632 4.88391H9.80616C9.49513 5.42053 9.23878 5.9927 9.04396 6.5929H3.75978C2.67765 6.5929 1.76163 5.87102 1.46632 4.88391ZM4.54317 7.96008H8.71856C8.64952 8.40579 8.61329 8.86243 8.61329 9.32727C8.61329 9.44143 8.61602 9.55559 8.62081 9.66907H6.83595C5.75382 9.66907 4.83849 8.94719 4.54317 7.96008ZM7.61935 11.0363H8.77872C8.88741 11.592 9.04806 12.1334 9.25792 12.6536C8.47384 12.4301 7.85245 11.8162 7.61935 11.0363ZM9.98048 9.32727C9.98048 5.18127 13.354 1.80774 17.5 1.80774C21.646 1.80774 25.0195 5.18127 25.0195 9.32727C25.0195 11.7848 23.8274 14.0714 21.8224 15.4796H17.5055C20.8954 15.4769 23.6524 12.7179 23.6524 9.32727C23.6524 5.93459 20.8927 3.17493 17.5 3.17493C14.1073 3.17493 11.3477 5.93459 11.3477 9.32727C11.3477 12.7179 14.1046 15.4769 17.4945 15.4796H13.1776C11.1727 14.0714 9.98048 11.7848 9.98048 9.32727ZM17.5 14.1124C14.8613 14.1124 12.7149 11.9659 12.7149 9.32727C12.7149 6.6886 14.8613 4.54211 17.5 4.54211C20.1387 4.54211 22.2852 6.6886 22.2852 9.32727C22.2852 11.9659 20.1387 14.1124 17.5 14.1124ZM32.2397 21.3572L32.954 22.3156H27.3561V20.9484H28.9652C29.3426 20.9484 29.6488 20.6421 29.6488 20.2648V19.5812H32.954L32.2397 20.5396C32.0592 20.7822 32.0592 21.1145 32.2397 21.3572Z" fill="black"/>
<path d="M20.0402 7.28674L19.0312 7.10833L18.5287 6.18479C18.5287 6.18479 18.5287 6.18411 18.5281 6.18411C18.418 5.98245 18.2533 5.81838 18.0502 5.71038C17.7741 5.5634 17.4569 5.53196 17.1575 5.62356C16.858 5.71448 16.612 5.91682 16.4643 6.19368L15.9824 7.09807L14.9727 7.28538C14.7369 7.32366 14.5215 7.43167 14.3486 7.59778C14.123 7.81516 13.9952 8.10706 13.989 8.42014C13.9828 8.73323 14.0991 9.03059 14.3171 9.25686L15.0287 9.99515L14.8989 10.9843C14.8558 11.2277 14.8907 11.4826 14.9994 11.7048C15.1368 11.9871 15.3753 12.1984 15.672 12.3009C15.7978 12.344 15.927 12.3659 16.0555 12.3659C16.2312 12.3659 16.4062 12.3262 16.5682 12.2469L17.489 11.7992L18.4385 12.251C18.645 12.3501 18.876 12.385 19.1043 12.3535C19.4147 12.3105 19.6902 12.1492 19.8788 11.8996C20.0675 11.6501 20.1482 11.3411 20.1051 11.0301L19.9629 10.015L20.6547 9.28489C20.8325 9.11194 20.9487 8.89182 20.9917 8.64573C21.1045 8.00725 20.6766 7.39749 20.0402 7.28674ZM18.7454 9.31155C18.6026 9.46263 18.5356 9.67044 18.5643 9.8762L18.7017 10.8606L17.7795 10.421C17.6866 10.3766 17.5861 10.3547 17.4856 10.3547C17.383 10.3547 17.2812 10.378 17.1862 10.4238L16.2941 10.8578L16.4267 9.84544C16.454 9.63899 16.3857 9.43186 16.2408 9.28216L15.5517 8.56712L16.5559 8.3805C16.7603 8.34221 16.9367 8.2137 17.0344 8.02981L17.5006 7.15481L17.9867 8.04964C18.0858 8.23216 18.2635 8.35999 18.4679 8.39622L19.4475 8.56985L18.7454 9.31155Z" fill="black"/>
<path d="M17.5007 19.5812C17.1227 19.5812 16.8171 19.8874 16.8171 20.2648C16.8171 20.6421 17.1234 20.9484 17.5007 20.9484C17.8781 20.9484 18.1843 20.6421 18.1843 20.2648C18.1843 19.8874 17.8781 19.5812 17.5007 19.5812Z" fill="black"/>
<path fill-rule="evenodd" clip-rule="evenodd" d="M19.252 27.0357L19.0825 25.821L19.9246 24.9323C19.993 24.8687 20.0415 24.7833 20.0586 24.6842C20.101 24.4429 19.939 24.2125 19.6977 24.1708L18.4905 23.9568L17.8937 22.8583C17.854 22.7851 17.7925 22.7216 17.7132 22.6792C17.4979 22.5643 17.2292 22.6457 17.1144 22.8617L16.5381 23.9438L15.322 24.1701C15.2345 24.1831 15.1497 24.2227 15.0814 24.289C14.905 24.4586 14.8995 24.7395 15.0691 24.9159L15.9208 25.7991L15.7622 27.0077C15.7431 27.1 15.7534 27.1998 15.7978 27.2914C15.9051 27.5115 16.171 27.6038 16.3911 27.4965L17.4931 26.9605L18.6224 27.4985C18.6983 27.5348 18.7851 27.5491 18.874 27.5368C19.116 27.5019 19.2855 27.2784 19.252 27.0357Z" fill="#FFCE00"/>
<path d="M16.1984 28.0536C15.8436 28.0536 15.5018 27.8554 15.3363 27.5156C15.2475 27.3338 15.2188 27.1253 15.255 26.9257L15.3794 25.9768L14.6992 25.2714C14.3335 24.8913 14.3451 24.285 14.7252 23.9192C14.866 23.7832 15.0424 23.6957 15.2352 23.6643L16.2011 23.4845L16.6612 22.6204C16.7815 22.3948 16.9818 22.2301 17.2258 22.1556C17.4698 22.081 17.7282 22.1063 17.9538 22.2267C18.1193 22.3148 18.2539 22.4488 18.3435 22.6129L18.8227 23.4947L19.7865 23.6656C20.0367 23.7094 20.2569 23.8488 20.4038 24.058C20.5508 24.2672 20.6075 24.5208 20.5638 24.773C20.5289 24.9733 20.4332 25.1538 20.2876 25.2946L19.6238 25.9946L19.7592 26.9653C19.7941 27.2183 19.7284 27.4698 19.5746 27.6735C19.4208 27.8772 19.1966 28.0085 18.9437 28.0434C18.7564 28.0693 18.5691 28.0406 18.4009 27.96L17.4951 27.5286L16.6154 27.9565C16.4807 28.0222 16.3385 28.0536 16.1984 28.0536ZM17.4904 26.3904L18.7263 26.9797L18.5403 25.648L19.4823 24.6534L18.1575 24.4189L17.5047 23.2185L16.8737 24.4032L15.5278 24.6534L16.4602 25.6207L16.2824 26.9783L17.4904 26.3904Z" fill="black"/>
<path fill-rule="evenodd" clip-rule="evenodd" d="M10.0935 29.6893L9.92401 28.4745L10.7662 27.5858C10.8346 27.5223 10.8831 27.4368 10.9002 27.3377C10.9426 27.0964 10.7805 26.866 10.5392 26.8243L9.33201 26.6104L8.73524 25.5118C8.69559 25.4387 8.63407 25.3751 8.55477 25.3327C8.33944 25.2179 8.07079 25.2992 7.95594 25.5152L7.37967 26.5974L6.16356 26.8236C6.07606 26.8366 5.9913 26.8763 5.92294 26.9426C5.74657 27.1121 5.7411 27.3931 5.91063 27.5694L6.76239 28.4526L6.6038 29.6612C6.58466 29.7535 6.59491 29.8533 6.63934 29.9449C6.74667 30.165 7.01258 30.2573 7.2327 30.15L8.33465 29.6141L9.46395 30.1521C9.53983 30.1883 9.62664 30.2026 9.71551 30.1903C9.9575 30.1555 10.127 29.9319 10.0935 29.6893Z" fill="#FFCE00"/>
<path d="M7.03991 30.7071C6.68513 30.7071 6.34333 30.5089 6.1779 30.1692C6.08903 29.9873 6.06032 29.7788 6.09655 29.5792L6.22097 28.6304L5.54079 27.9249C5.17507 27.5448 5.18669 26.9385 5.56677 26.5728C5.70759 26.4367 5.88395 26.3492 6.07673 26.3178L7.04264 26.138L7.5027 25.2739C7.62302 25.0484 7.82331 24.8836 8.06735 24.8091C8.31139 24.7346 8.56979 24.7599 8.79538 24.8802C8.96081 24.9684 9.09548 25.1024 9.18503 25.2664L9.66423 26.1483L10.6281 26.3192C10.8783 26.3629 11.0984 26.5024 11.2454 26.7115C11.3924 26.9207 11.4491 27.1743 11.4053 27.4266C11.3705 27.6269 11.2748 27.8073 11.1292 27.9482L10.4654 28.6482L10.6007 29.6189C10.6356 29.8718 10.57 30.1233 10.4162 30.3271C10.2624 30.5308 10.0382 30.662 9.78522 30.6969C9.59792 30.7229 9.41061 30.6941 9.24245 30.6135L8.33669 30.1821L7.4569 30.6101C7.32223 30.6757 7.18005 30.7071 7.03991 30.7071ZM8.3319 29.044L9.56784 29.6332L9.3819 28.3016L10.3239 27.3069L8.99909 27.0725L8.34626 25.8721L7.7153 27.0567L6.36931 27.3069L7.30173 28.2742L7.12399 29.6318L8.3319 29.044Z" fill="black"/>
<path fill-rule="evenodd" clip-rule="evenodd" d="M28.3128 29.6893L28.1432 28.4745L28.9854 27.5858C29.0538 27.5223 29.1023 27.4368 29.1194 27.3377C29.1618 27.0964 28.9998 26.866 28.7585 26.8243L27.5513 26.6104L26.9545 25.5118C26.9148 25.4387 26.8533 25.3751 26.774 25.3327C26.5587 25.2179 26.29 25.2992 26.1752 25.5152L25.5989 26.5974L24.3828 26.8236C24.2953 26.8366 24.2105 26.8763 24.1422 26.9426C23.9658 27.1121 23.9603 27.3931 24.1299 27.5694L24.9816 28.4526L24.823 29.6612C24.8039 29.7535 24.8141 29.8533 24.8586 29.9449C24.9659 30.165 25.2318 30.2573 25.4519 30.15L26.5539 29.6141L27.6832 30.1521C27.7591 30.1883 27.8459 30.2026 27.9348 30.1903C28.1767 30.1555 28.3463 29.9319 28.3128 29.6893Z" fill="#FFCE00"/>
<path d="M25.2591 30.7071C24.9044 30.7071 24.5626 30.5089 24.3971 30.1692C24.3083 29.9873 24.2796 29.7788 24.3158 29.5792L24.4402 28.6304L23.76 27.9249C23.3943 27.5448 23.4059 26.9385 23.786 26.5728C23.9268 26.4367 24.1032 26.3492 24.296 26.3178L25.2619 26.138L25.7219 25.2739C25.8423 25.0484 26.0425 24.8836 26.2866 24.8091C26.5306 24.7346 26.789 24.7599 27.0146 24.8802C27.18 24.9684 27.3147 25.1024 27.4043 25.2664L27.8835 26.1483L28.8473 26.3192C29.0975 26.3629 29.3176 26.5024 29.4646 26.7115C29.6116 26.9207 29.6683 27.1743 29.6246 27.4266C29.5897 27.6269 29.494 27.8073 29.3484 27.9482L28.6846 28.6482L28.82 29.6189C28.8549 29.8718 28.7892 30.1233 28.6354 30.3271C28.4816 30.5308 28.2574 30.662 28.0045 30.6969C27.8172 30.7229 27.6299 30.6941 27.4617 30.6135L26.5559 30.1821L25.6761 30.6101C25.5415 30.6757 25.3993 30.7071 25.2591 30.7071ZM26.5511 29.044L27.7871 29.6332L27.6011 28.3016L28.5431 27.3069L27.2183 27.0725L26.5655 25.8721L25.9345 27.0567L24.5885 27.3069L25.521 28.2742L25.3432 29.6318L26.5511 29.044Z" fill="black"/>
</svg>
