<svg width="35" height="33" viewBox="0 0 35 33" fill="none" xmlns="http://www.w3.org/2000/svg">
<path fill-rule="evenodd" clip-rule="evenodd" d="M19.9261 6.37392L21.2222 5.00742C21.3268 4.90966 21.402 4.77773 21.4286 4.62597C21.4936 4.2541 21.2447 3.90068 20.8736 3.83574L19.0162 3.50693L18.0975 1.8164C18.036 1.70361 17.9416 1.60654 17.8199 1.5416C17.4884 1.36455 17.0755 1.49033 16.8985 1.82187L16.0118 3.48642L14.1408 3.83437C14.0062 3.85488 13.8763 3.91572 13.7703 4.01689C13.4989 4.27802 13.4907 4.70937 13.7519 4.98076L15.0616 6.33906L14.8176 8.19843C14.7882 8.34062 14.8039 8.49374 14.8723 8.63456C15.0377 8.97363 15.4465 9.11445 15.7856 8.9497L17.4802 8.1246L19.2179 8.95243C19.3341 9.00781 19.4681 9.03036 19.6048 9.01122C19.978 8.95995 20.2385 8.61542 20.1872 8.24218L19.9261 6.37392Z" fill="#FFA300"/>
<path fill-rule="evenodd" clip-rule="evenodd" d="M8.82045 6.93585C8.93187 6.64738 8.78832 6.32267 8.49984 6.21124L6.80248 5.55157L6.14281 3.85421C6.08812 3.71203 5.97533 3.59308 5.8222 3.53361C5.53373 3.42218 5.20902 3.56574 5.09759 3.85421L4.43793 5.55157L2.74056 6.21124C2.59838 6.26593 2.47943 6.37872 2.41996 6.53185C2.30853 6.82032 2.45209 7.14503 2.74056 7.25646L4.43793 7.91612L5.09759 9.61349C5.15228 9.75567 5.26508 9.87462 5.4182 9.93409C5.70668 10.0455 6.03138 9.90196 6.14281 9.61349L6.80248 7.91612L8.49984 7.25646C8.64203 7.20177 8.76166 7.08898 8.82045 6.93585Z" fill="#FF764E"/>
<path fill-rule="evenodd" clip-rule="evenodd" d="M26.4996 6.21124C26.2111 6.32267 26.0676 6.64738 26.179 6.93585C26.2385 7.08898 26.3574 7.20177 26.4996 7.25646L28.197 7.91612L28.8566 9.61349C28.9681 9.90196 29.2928 10.0455 29.5812 9.93409C29.7344 9.87462 29.8472 9.75567 29.9018 9.61349L30.5615 7.91612L32.2589 7.25646C32.5474 7.14503 32.6909 6.82032 32.5795 6.53185C32.52 6.37872 32.4011 6.26593 32.2589 6.21124L30.5615 5.55157L29.9018 3.85421C29.7904 3.56574 29.4657 3.42218 29.1772 3.53361C29.0241 3.59308 28.9113 3.71203 28.8566 3.85421L28.197 5.55157L26.4996 6.21124Z" fill="#FF764E"/>
<path fill-rule="evenodd" clip-rule="evenodd" d="M33.4504 13.7889L26.3861 17.8672V20.7V21.0247L33.6329 16.8405C34.2844 16.4645 34.5093 15.6243 34.1333 14.9729L33.4504 13.7889Z" fill="#00B7B7"/>
<path fill-rule="evenodd" clip-rule="evenodd" d="M8.61331 17.8672L1.54973 13.7889L0.866138 14.9729C0.490161 15.6243 0.715063 16.4645 1.36653 16.8405L8.61331 21.0241V17.8672Z" fill="#00FFFF"/>
<path fill-rule="evenodd" clip-rule="evenodd" d="M8.61328 17.8672V21.0247V22.0672L12.8133 17.8672H8.61328Z" fill="#00B7B7"/>
<path fill-rule="evenodd" clip-rule="evenodd" d="M12.8133 17.8672L8.61328 22.0665V27.5353L18.282 17.8672H12.8133Z" fill="#00FFFF"/>
<path fill-rule="evenodd" clip-rule="evenodd" d="M18.282 17.8672L8.61328 27.5353V30.1712C8.61328 30.9231 9.22852 31.5384 9.98047 31.5384H10.0789L23.7501 17.8672H18.282Z" fill="#00B7B7"/>
<path fill-rule="evenodd" clip-rule="evenodd" d="M23.7502 17.8672L10.079 31.5384H15.5477L26.3868 20.6993V17.8672H23.7502Z" fill="#00FFFF"/>
<path fill-rule="evenodd" clip-rule="evenodd" d="M26.3861 20.6993L15.5477 31.5384H21.0165L26.3868 26.1681V21.024L26.3861 20.6993Z" fill="#00B7B7"/>
<path fill-rule="evenodd" clip-rule="evenodd" d="M26.3861 26.1681L21.0157 31.5384H25.0196C25.7715 31.5384 26.3867 30.9231 26.3867 30.1712L26.3861 26.1681Z" fill="#00FFFF"/>
<path d="M34.7259 14.6311L34.0423 13.4471C33.9514 13.2899 33.8024 13.1757 33.6274 13.1285C33.4524 13.0814 33.2658 13.106 33.1085 13.1969L26.2035 17.1836H8.79651L1.89153 13.1969C1.73431 13.106 1.54837 13.0821 1.37269 13.1285C1.19769 13.1757 1.04798 13.2899 0.957745 13.4471L0.274151 14.6311C-0.291181 15.6107 0.0451468 16.8671 1.02474 17.4325L7.92972 21.4192V30.1712C7.92972 31.3019 8.84983 32.222 9.9805 32.222H25.0196C26.1502 32.222 27.0703 31.3019 27.0703 30.1712V21.4192L33.9753 17.4325C34.4484 17.159 34.7874 16.7167 34.9289 16.1869C35.0711 15.6565 34.9987 15.1041 34.7259 14.6311ZM17.1979 30.8548L25.7032 22.3495V25.8844L20.7334 30.8541H17.1979V30.8548ZM25.7032 20.4163L15.2647 30.8548H11.7298L24.0338 18.5508H25.7032V20.4163ZM11.1631 18.5508L9.29691 20.4163V18.5508H11.1631ZM1.70833 16.2485C1.55179 16.1582 1.43899 16.0106 1.39183 15.8328C1.34466 15.6558 1.3679 15.4712 1.45882 15.3147L1.80062 14.7227L7.92972 18.2617V19.8401L1.70833 16.2485ZM9.29691 27.8183L11.7558 25.3594C12.0224 25.0928 12.0224 24.6594 11.7558 24.3928C11.4892 24.1255 11.0558 24.1262 10.7892 24.3928L9.29691 25.8851V22.3502L13.0963 18.5508H16.6312L15.1389 20.0431C14.8723 20.3097 14.8723 20.7431 15.1389 21.0097C15.2722 21.143 15.4472 21.21 15.6222 21.21C15.7972 21.21 15.9722 21.143 16.1055 21.0097L18.5651 18.5508H22.0999L9.81644 30.8343C9.51839 30.7605 9.29691 30.4918 9.29691 30.1712V27.8183ZM25.0196 30.8548H22.6666L25.7032 27.8183V30.1712C25.7032 30.5479 25.3962 30.8548 25.0196 30.8548ZM33.6082 15.8328C33.5611 16.0099 33.4483 16.1576 33.2917 16.2485L27.0703 19.8408V18.2623L33.2001 14.7227L33.5419 15.3147C33.6322 15.4712 33.6561 15.6551 33.6082 15.8328Z" fill="black"/>
<path d="M14.3412 6.57695L14.1429 8.08975C14.0896 8.37822 14.1293 8.67012 14.2585 8.93467C14.495 9.42002 14.9824 9.70303 15.4896 9.70303C15.6899 9.70303 15.8936 9.65859 16.0857 9.56494L17.4844 8.88408L18.924 9.56973C19.1646 9.68457 19.4326 9.72559 19.6992 9.68867C20.445 9.58545 20.9679 8.89502 20.8647 8.14785L20.6494 6.60498L21.7069 5.49004C21.9161 5.28838 22.0528 5.03066 22.1027 4.74287C22.1656 4.3833 22.0842 4.02099 21.8744 3.72226C21.6645 3.42353 21.3508 3.22461 20.9932 3.16172L19.4599 2.89033L18.6984 1.48965C18.6984 1.48965 18.6984 1.48965 18.6984 1.48896C18.5706 1.25449 18.3785 1.06377 18.142 0.937986C17.4782 0.583884 16.6497 0.83613 16.2956 1.4999L15.5635 2.87392L14.0261 3.15967C13.7506 3.2041 13.4983 3.32988 13.2967 3.52334C13.0342 3.77627 12.8851 4.11601 12.8783 4.48105C12.8715 4.84541 13.0068 5.19131 13.2597 5.45449L14.3412 6.57695ZM14.266 4.50635L16.137 4.1584C16.3414 4.12012 16.5177 3.9916 16.6155 3.80771L17.4987 2.14521L18.4161 3.83232C18.5152 4.01484 18.6923 4.14267 18.8973 4.1789L20.756 4.50703C20.7458 4.5166 20.7362 4.52617 20.7266 4.53642L19.4305 5.90293C19.2877 6.054 19.2207 6.26182 19.2494 6.46758L19.5119 8.33516L17.7742 7.50732C17.5862 7.41777 17.3681 7.41846 17.1808 7.51006L15.4862 8.33584C15.4896 8.31943 15.4924 8.30303 15.4944 8.28662L15.7385 6.42725C15.7658 6.2208 15.6974 6.01367 15.5525 5.86396L14.2414 4.50908C14.2503 4.50908 14.2585 4.50771 14.266 4.50635Z" fill="black"/>
<path d="M16.8533 11.5542V14.7226C16.8533 15.1 17.1595 15.4062 17.5369 15.4062C17.9142 15.4062 18.2205 15.1 18.2205 14.7226V11.5542C18.2205 11.1768 17.9142 10.8706 17.5369 10.8706C17.1595 10.8706 16.8533 11.1768 16.8533 11.5542Z" fill="black"/>
<path d="M8.57904 9.48634C8.39037 9.8131 8.50248 10.2315 8.82924 10.4201C10.2826 11.2596 11.2341 13.2858 11.3141 14.7596C11.3339 15.1239 11.6354 15.4063 11.9963 15.4063C12.0086 15.4063 12.0216 15.4056 12.0339 15.4056C12.4106 15.3851 12.6997 15.0631 12.6792 14.6858C12.5781 12.8284 11.4583 10.36 9.51283 9.23615C9.18539 9.04748 8.76771 9.15958 8.57904 9.48634Z" fill="black"/>
<path d="M2.49445 7.89359L3.91086 8.44388L4.46115 9.8596C4.58762 10.1857 4.8467 10.4448 5.17278 10.5712C5.31975 10.628 5.47082 10.6546 5.61985 10.6546C6.11887 10.6546 6.59055 10.3525 6.78059 9.86029L7.33088 8.44388L8.74661 7.89359C9.07268 7.76712 9.33176 7.50804 9.45823 7.18197C9.57786 6.8723 9.56965 6.53392 9.43567 6.2304C9.301 5.92689 9.05627 5.6931 8.74797 5.57415L7.33157 5.02386L6.78127 3.60814C6.65481 3.28206 6.39573 3.02298 6.06965 2.89651C5.42981 2.64905 4.70793 2.96829 4.46115 3.60745L3.91086 5.02386L2.49514 5.57347C2.16906 5.69993 1.90998 5.95902 1.78352 6.28509C1.66389 6.59476 1.67209 6.93314 1.80607 7.23665C1.94074 7.54085 2.18547 7.77396 2.49445 7.89359ZM4.68674 6.18939C4.86516 6.11966 5.00666 5.97884 5.07639 5.79974L5.62121 4.39769L6.16604 5.79974C6.23576 5.97816 6.37659 6.11966 6.55569 6.18939L7.95774 6.73421L6.55569 7.27835C6.37727 7.34808 6.23576 7.4889 6.16604 7.668L5.62121 9.07005L5.07639 7.668C5.00666 7.48958 4.86584 7.34808 4.68674 7.27835L3.28469 6.73353L4.68674 6.18939Z" fill="black"/>
<path d="M22.966 15.4049C22.9783 15.4056 22.9913 15.4056 23.0036 15.4056C23.3639 15.4056 23.666 15.1233 23.6859 14.7589C23.7658 13.2851 24.7174 11.2589 26.1707 10.4195C26.4975 10.2308 26.6096 9.81243 26.4209 9.48567C26.2323 9.15891 25.8139 9.0468 25.4871 9.23548C23.5416 10.3586 22.4212 12.8271 22.3207 14.6851C22.3002 15.0624 22.5894 15.3844 22.966 15.4049Z" fill="black"/>
<path d="M26.2521 7.89357L27.6685 8.44386L28.2181 9.85958C28.4088 10.3525 28.8805 10.6553 29.3795 10.6553C29.5285 10.6553 29.6796 10.6286 29.8266 10.5719C30.1527 10.4461 30.4117 10.1863 30.5375 9.86163L31.0878 8.44523L32.5035 7.89562C33.1434 7.64816 33.4626 6.92697 33.2152 6.28712C33.0894 5.96105 32.8296 5.70197 32.5049 5.57619L31.0885 5.02589L30.5389 3.61017C30.2914 2.97033 29.5702 2.65109 28.9304 2.89855C28.6043 3.02433 28.3452 3.28341 28.2195 3.60949L27.6692 5.02589L26.2534 5.5755C25.6136 5.82296 25.2944 6.54415 25.5418 7.184C25.6676 7.5087 25.9267 7.76779 26.2521 7.89357ZM28.4444 6.18937C28.6228 6.11964 28.7643 5.97882 28.834 5.79972L29.3788 4.39767L29.9237 5.79972C29.9934 5.97814 30.1342 6.11964 30.3133 6.18937L31.7154 6.73419L30.3133 7.27902C30.1349 7.34874 29.9934 7.48956 29.9237 7.66866L29.3788 9.07072L28.834 7.66866C28.7643 7.49025 28.6235 7.34874 28.4444 7.27902L27.0423 6.73419L28.4444 6.18937Z" fill="black"/>
<path d="M13.4483 23.3845C13.8257 23.3845 14.1319 23.0783 14.1319 22.7009C14.1319 22.3236 13.8257 22.0173 13.4483 22.0173H13.4476C13.0703 22.0173 12.764 22.3236 12.764 22.7009C12.7647 23.0789 13.0703 23.3845 13.4483 23.3845Z" fill="black"/>
</svg>
