<svg width="22" height="35" viewBox="0 0 22 35" fill="none" xmlns="http://www.w3.org/2000/svg">
<path fill-rule="evenodd" clip-rule="evenodd" d="M15.5343 19.4932C15.1587 19.951 14.5897 20.1601 14.0406 20.0986L12.8114 20.0096L11.8146 20.5422C11.3006 20.8156 10.7069 20.7957 10.2289 20.5394L9.11831 19.9841L7.98401 20.0967C7.41401 20.1525 6.88291 19.9179 6.53863 19.513L5.70877 18.5557L4.83813 18.2937V34.3161L11.0256 31.2304L17.213 34.3161V18.2937L16.2589 18.6096L15.5343 19.4932Z" fill="#C10000"/>
<path d="M15.6702 15.3483C18.2369 12.7883 18.2369 8.63769 15.6702 6.07767C13.1035 3.51765 8.94211 3.51765 6.37542 6.07767C3.80874 8.63769 3.80874 12.7883 6.37542 15.3483C8.94211 17.9083 13.1035 17.9083 15.6702 15.3483Z" fill="#C7D9DA"/>
<path fill-rule="evenodd" clip-rule="evenodd" d="M17.5999 10.7119C17.5999 14.333 14.657 17.2682 11.0264 17.2682C7.39594 17.2682 4.45302 14.333 4.45302 10.7119C4.45302 7.0908 7.39594 4.15553 11.0264 4.15553C14.657 4.15458 17.5999 7.0908 17.5999 10.7119ZM20.3228 12.6123L20.8795 11.5046C21.1355 11.0278 21.1564 10.4366 20.8823 9.92296L20.3484 8.92877L20.4375 7.70283C20.4992 7.15512 20.2896 6.5885 19.8305 6.21296L18.9447 5.49026L18.59 4.42323C18.4572 3.85661 18.0342 3.37512 17.4358 3.19444L17.2139 3.12728L16.3432 2.86526L15.5134 1.90796C15.1691 1.50309 14.637 1.2685 14.068 1.32431L12.9327 1.43688L11.8222 0.881605C11.3442 0.6262 10.7514 0.605389 10.2364 0.878767L9.23964 1.41134L8.0105 1.32242C7.46138 1.26093 6.89328 1.46998 6.51676 1.92782L5.79217 2.81134L4.83807 3.12728L4.72237 3.16607C4.15427 3.2985 3.67153 3.72039 3.49038 4.31728L3.16034 5.40701L2.20055 6.23472C1.79463 6.5781 1.55942 7.10877 1.61538 7.67634L1.72824 8.80769L1.17152 9.91539C0.915453 10.3922 0.894588 10.9834 1.16868 11.497L1.70263 12.4912L1.61348 13.7172C1.55184 14.2649 1.76143 14.8315 2.22046 15.207L3.10628 15.9297L3.46098 16.9967C3.59376 17.5634 4.01675 18.0449 4.6152 18.2255L4.83713 18.2927L5.70777 18.5547L6.53762 19.512C6.8819 19.9169 7.41395 20.1515 7.983 20.0957L9.1173 19.9831L10.2279 20.5384C10.7059 20.7938 11.2986 20.8146 11.8136 20.5412L12.8104 20.0086L14.0395 20.0976C14.5887 20.159 15.1568 19.95 15.5333 19.4922L16.2579 18.6086L17.212 18.2927L17.3277 18.2539C17.8958 18.1215 18.3785 17.6996 18.5597 17.1027L18.8897 16.012L19.8495 15.1843C20.2554 14.8409 20.4906 14.3103 20.4347 13.7427L20.3228 12.6123Z" fill="#FFC144"/>
<path fill-rule="evenodd" clip-rule="evenodd" d="M11.3431 30.9551L17.1142 33.9755L16.9169 18.4232L14.6588 19.9433L12.0952 20.0559L11.1819 20.7294L11.3431 30.9551Z" fill="#FF0000"/>
<path d="M11.0255 3.47163C7.02225 3.47163 3.76636 6.72001 3.76636 10.7119C3.76636 13.44 5.27907 15.9089 7.71364 17.1566C8.05032 17.3288 8.46383 17.1964 8.63644 16.8606C8.80905 16.5247 8.67627 16.1123 8.33959 15.9401C6.36405 14.928 5.13681 12.9254 5.13681 10.7119C5.13681 7.47298 7.77813 4.83853 11.0255 4.83853C14.2728 4.83853 16.9142 7.47298 16.9142 10.7119C16.9142 12.9254 15.6869 14.928 13.7114 15.9401C13.3747 16.1123 13.2419 16.5247 13.4145 16.8606C13.5359 17.0961 13.7759 17.2323 14.0244 17.2323C14.1296 17.2323 14.2368 17.2077 14.3373 17.1566C16.7719 15.9099 18.2846 13.44 18.2846 10.7119C18.2856 6.71907 15.0287 3.47163 11.0255 3.47163Z" fill="black"/>
<path d="M21.4864 9.60041L21.0464 8.78122L21.1203 7.76622C21.2057 6.96974 20.8861 6.19312 20.2649 5.68609L19.5336 5.08825L19.2501 4.2369C19.049 3.43001 18.4325 2.78298 17.634 2.54176L16.7311 2.26933L16.035 1.46622C15.5323 0.8769 14.7717 0.569467 13.9987 0.645143L13.0617 0.737846L12.137 0.275278C11.4399 -0.0936407 10.6101 -0.0936407 9.91297 0.27717L9.09165 0.716089L8.07401 0.642305C7.27545 0.558116 6.4968 0.875954 5.98845 1.49555L5.38906 2.22487L4.53549 2.50771C3.7265 2.70825 3.07778 3.32312 2.83594 4.1196L2.5628 5.02014L1.7576 5.71447C1.16674 6.21582 0.858506 6.97447 0.934379 7.74541L1.02732 8.68001L0.56355 9.60231C0.193671 10.2976 0.19367 11.1253 0.565447 11.8205L1.00551 12.6397L0.931533 13.6547C0.847125 14.4512 1.16579 15.2278 1.787 15.7349L2.51822 16.3327L2.8018 17.1841C2.9801 17.8992 3.48465 18.4885 4.15233 18.7808V34.3142C4.15233 34.5507 4.27563 34.7711 4.47764 34.896C4.67965 35.0208 4.93193 35.0322 5.14437 34.9262L11.0255 31.9938L16.9065 34.9262C17.0033 34.9745 17.1086 34.9981 17.2129 34.9981C17.3381 34.9981 17.4633 34.9641 17.5733 34.896C17.7753 34.7711 17.8986 34.5516 17.8986 34.3142V18.7827C18.5264 18.5074 19.0149 17.9692 19.2169 17.3023L19.49 16.4018L20.2952 15.7074C20.8861 15.2061 21.1943 14.4474 21.1184 13.6765L21.0255 12.7419L21.4893 11.8196C21.8582 11.1243 21.8582 10.2957 21.4864 9.60041ZM5.52373 19.3872L6.01691 19.9566C6.51956 20.546 7.28019 20.8534 8.05314 20.7777L8.99017 20.685L9.91487 21.1476C10.0524 21.2204 10.1947 21.2781 10.3398 21.3226V30.8095L5.52373 33.2112V19.3872ZM11.7112 30.8085V21.3216C11.8582 21.2772 12.0014 21.2185 12.1398 21.1457L12.9612 20.7068L13.9788 20.7806C14.7774 20.8657 15.556 20.5469 16.0644 19.9273L16.5272 19.3635V33.2122L11.7112 30.8085ZM20.2753 11.182C20.2725 11.1877 20.2696 11.1934 20.2668 11.1991L19.71 12.3068C19.6522 12.4222 19.6275 12.5527 19.6408 12.6814L19.7537 13.8127C19.7859 14.1362 19.656 14.456 19.4028 14.6707L18.443 15.4984C18.3453 15.5835 18.2732 15.6942 18.2353 15.8181L17.9052 16.9088C17.8018 17.2493 17.5221 17.5114 17.174 17.5918C17.1541 17.5965 17.1332 17.6022 17.1133 17.6088L16.0435 17.9626C15.9202 18.0033 15.8111 18.078 15.7296 18.1783L15.004 19.0618C14.7887 19.3247 14.4568 19.4591 14.1182 19.4212C14.1087 19.4203 14.1002 19.4193 14.0907 19.4184L12.8616 19.3295C12.7316 19.32 12.6027 19.3474 12.4889 19.4089L11.494 19.9405C11.2 20.0966 10.8491 20.0957 10.555 19.9387C10.5494 19.9358 10.5437 19.933 10.538 19.9301L9.42739 19.3749C9.3316 19.3266 9.22632 19.302 9.1201 19.302C9.09734 19.302 9.07458 19.303 9.05182 19.3058L7.91847 19.4184C7.59411 19.4506 7.27355 19.321 7.05826 19.0684L6.2284 18.1111C6.14304 18.0137 6.03208 17.9418 5.90784 17.9039L4.81432 17.5747C4.4729 17.4716 4.21019 17.1926 4.12957 16.8454C4.12483 16.8256 4.11914 16.8047 4.1125 16.7849L3.75779 15.7178C3.71701 15.5949 3.64209 15.4861 3.54156 15.4047L2.65574 14.6811C2.39208 14.4664 2.25741 14.1353 2.29535 13.7976C2.29629 13.7881 2.29724 13.7796 2.29819 13.7701L2.38734 12.5442C2.39683 12.4155 2.36932 12.286 2.30768 12.1724L1.77467 11.1801C1.61818 10.8869 1.61913 10.5369 1.77657 10.2437C1.77941 10.238 1.78226 10.2323 1.7851 10.2266L2.34182 9.11893C2.39967 9.00352 2.42433 8.87298 2.41105 8.74433L2.29819 7.61393C2.26595 7.29041 2.39588 6.97068 2.6491 6.75595L3.60889 5.92825C3.70658 5.84312 3.77866 5.73244 3.8166 5.60852L4.14664 4.51785C4.25002 4.17731 4.5298 3.91528 4.87787 3.83487C4.89778 3.83014 4.91865 3.82447 4.93856 3.81785L6.00837 3.46406C6.13166 3.42339 6.24073 3.34866 6.32229 3.24839L7.04783 2.36487C7.26312 2.1019 7.59506 1.96758 7.93364 2.00541C7.94313 2.00636 7.95166 2.00731 7.96115 2.00825L9.19029 2.09717C9.32022 2.10663 9.4492 2.0792 9.56396 2.01771L10.5588 1.48609C10.8528 1.33001 11.2038 1.33095 11.4978 1.48798C11.5035 1.49082 11.5091 1.49366 11.5148 1.49649L12.6254 2.05176C12.7411 2.10947 12.872 2.13406 13.001 2.12082L14.1353 2.00825C14.4606 1.97609 14.7802 2.10568 14.9955 2.35825L15.8254 3.31555C15.9107 3.41298 16.0217 3.48487 16.1459 3.52271L17.2394 3.8519C17.5809 3.95501 17.8436 4.23406 17.9242 4.58122C17.9289 4.60109 17.9346 4.6219 17.9413 4.64176L18.296 5.70879C18.3367 5.83176 18.4117 5.94055 18.5122 6.0219L19.398 6.74555C19.6617 6.96028 19.7964 7.29136 19.7584 7.63001C19.7575 7.63852 19.7565 7.64798 19.7556 7.65744L19.6664 8.88339C19.6569 9.01204 19.6844 9.14163 19.7461 9.25514L20.2791 10.2474C20.4346 10.5388 20.4337 10.8888 20.2753 11.182Z" fill="black"/>
<path d="M11.7861 12.7626H11.7121V7.97711C11.7121 7.73305 11.5813 7.50697 11.3698 7.38495C11.1573 7.26292 10.8965 7.26292 10.6841 7.38495L9.92438 7.82292C9.59623 8.01211 9.48432 8.43022 9.674 8.75657C9.81436 8.99873 10.0799 9.12265 10.3417 9.09427V12.7617H10.2668C9.88834 12.7617 9.58105 13.0682 9.58105 13.4456C9.58105 13.8231 9.88834 14.1295 10.2668 14.1295H11.7861C12.1645 14.1295 12.4718 13.8231 12.4718 13.4456C12.4718 13.0682 12.1645 12.7626 11.7861 12.7626Z" fill="black"/>
<path d="M11.0255 16.5854C10.6462 16.5854 10.3398 16.8919 10.3398 17.2693C10.3398 17.6467 10.6471 17.9532 11.0255 17.9532C11.404 17.9532 11.7112 17.6467 11.7112 17.2693C11.7112 16.8919 11.4049 16.5854 11.0255 16.5854Z" fill="black"/>
</svg>
