<svg width="33" height="35" viewBox="0 0 33 35" fill="none" xmlns="http://www.w3.org/2000/svg">
<path fill-rule="evenodd" clip-rule="evenodd" d="M19.516 23.3468L17.6881 19.9849C17.5657 19.76 17.3784 19.5672 17.1357 19.4373C16.4754 19.0853 15.6551 19.3348 15.303 19.9951L13.5387 23.3071L9.81649 23.9989C9.54783 24.0393 9.28944 24.1603 9.07889 24.3626C8.53885 24.8821 8.52244 25.7407 9.04197 26.2808L11.6478 28.9844L11.1625 32.6847C11.1044 32.9684 11.1351 33.2725 11.2719 33.5528C11.6007 34.2275 12.4141 34.5085 13.0889 34.1797L16.461 32.5384L19.918 34.1851C20.149 34.2959 20.4156 34.3396 20.6884 34.302C21.4307 34.1995 21.9496 33.5139 21.8464 32.7722L21.3268 29.0534L23.9054 26.3341C24.1138 26.1393 24.2636 25.8774 24.3162 25.5746C24.4454 24.835 23.9505 24.1309 23.2108 24.0017L19.516 23.3468Z" fill="#FFA300"/>
<path fill-rule="evenodd" clip-rule="evenodd" d="M10.9116 16.3584V0.683594H2.82812V13.125L10.9116 16.3584Z" fill="#B400FF"/>
<path fill-rule="evenodd" clip-rule="evenodd" d="M10.9116 0.683594V16.3584L16.5 18.5938L22.0884 16.3584V0.683594H16.5H10.9116Z" fill="white"/>
<path fill-rule="evenodd" clip-rule="evenodd" d="M22.0884 0.683594V16.3584L30.1719 13.125V0.683594H22.0884Z" fill="#B400FF"/>
<path d="M16.279 14.1289C15.2227 14.1289 14.3275 13.8123 13.5933 13.1793C12.8142 12.5051 12.4247 11.6361 12.4247 10.5723C12.4247 9.27627 12.8086 8.09824 13.5765 7.03821C14.4343 5.86205 15.5037 5.27397 16.7847 5.27397C18.017 5.27397 18.9329 5.55115 19.5322 6.10552C20.1577 6.68236 20.4705 7.59257 20.4705 8.83615C20.4705 10.1322 20.1184 11.3008 19.4142 12.3421C18.6051 13.5333 17.5601 14.1289 16.279 14.1289ZM16.7847 6.42578C15.867 6.42578 15.0898 6.88276 14.453 7.79671C13.8649 8.63575 13.5709 9.56095 13.5709 10.5723C13.5709 11.2952 13.8387 11.8833 14.3743 12.3365C14.8875 12.7635 15.5224 12.977 16.279 12.977C17.1892 12.977 17.9403 12.5182 18.5321 11.6005C19.0602 10.7802 19.3243 9.85873 19.3243 8.83615C19.3243 7.94092 19.1239 7.31164 18.7231 6.94831C18.341 6.59996 17.6949 6.42578 16.7847 6.42578Z" fill="black"/>
<path d="M30.1719 0H2.82812C2.45078 0 2.14453 0.30625 2.14453 0.683594V13.125C2.14453 13.4046 2.31475 13.6562 2.57451 13.7601L15.4247 18.9C15.1219 19.0873 14.8724 19.3512 14.7001 19.6738L13.0902 22.6953L9.70166 23.3249C9.28672 23.3898 8.90801 23.5785 8.60449 23.8697C7.79375 24.6497 7.76846 25.9438 8.54912 26.7552L10.9273 29.2216L10.4878 32.5726C10.4037 33.0087 10.4625 33.4503 10.6573 33.8516C11.0107 34.5769 11.7395 35 12.4976 35C12.797 35 13.1019 34.9337 13.3883 34.7942L16.4645 33.2965L19.624 34.8018C19.9822 34.9727 20.3828 35.0342 20.7827 34.9788C21.897 34.8243 22.6783 33.7928 22.5245 32.6771L22.0501 29.2845L24.3887 26.8174C24.7065 26.5145 24.9144 26.1256 24.9902 25.6915C25.1837 24.582 24.4386 23.5218 23.3312 23.3283L19.9597 22.7309L18.289 19.6581C18.1194 19.3464 17.8733 19.0873 17.5732 18.9014L30.4262 13.7601C30.6859 13.6562 30.8562 13.4046 30.8562 13.125V0.683594C30.8555 0.30625 30.5499 0 30.1719 0ZM3.51172 1.36719H10.228V5.44482C10.228 5.82217 10.5343 6.12842 10.9116 6.12842C11.289 6.12842 11.5952 5.82217 11.5952 5.44482V1.36719H21.4048V15.8956L16.5 17.8575L11.5952 15.8956V11.5972C11.5952 11.2198 11.289 10.9136 10.9116 10.9136C10.5343 10.9136 10.228 11.2198 10.228 11.5972V15.3487L3.51172 12.6622V1.36719ZM18.9158 23.6735C19.0149 23.8561 19.1927 23.9839 19.3971 24.0201L23.0939 24.675C23.2717 24.7058 23.4269 24.8042 23.5308 24.9519C23.6347 25.0995 23.6743 25.2786 23.6436 25.4563C23.6183 25.6026 23.5479 25.7325 23.4398 25.833C23.4296 25.8426 23.4193 25.8521 23.4098 25.8624L20.8312 28.5817C20.6884 28.7328 20.6214 28.9406 20.6501 29.1464L21.1696 32.8638C21.2202 33.2315 20.9625 33.5727 20.5947 33.6232C20.4614 33.6417 20.3288 33.6219 20.2119 33.5665L16.755 31.9197C16.567 31.8302 16.3489 31.8309 16.1616 31.9225L12.7888 33.5638C12.4538 33.7271 12.0484 33.587 11.8857 33.252C11.8201 33.1167 11.801 32.9677 11.8311 32.8207C11.8345 32.8043 11.8372 32.7879 11.8393 32.7715L12.3246 29.0712C12.352 28.8647 12.2836 28.6576 12.1387 28.5079L9.53281 25.805C9.27578 25.5377 9.28398 25.1104 9.55127 24.8534C9.65244 24.7563 9.77891 24.6941 9.91631 24.6729C9.92383 24.6716 9.93203 24.6702 9.93955 24.6688L13.6617 23.9771C13.8661 23.9388 14.0425 23.8103 14.1402 23.6264L15.9046 20.3144C15.9887 20.1564 16.1302 20.0402 16.3018 19.9883C16.3667 19.9685 16.4323 19.9589 16.4979 19.9589C16.6066 19.9589 16.7146 19.9855 16.8131 20.0382C16.9293 20.1004 17.0236 20.194 17.0865 20.3089L18.9158 23.6735ZM29.4883 12.6622L22.772 15.3487V1.36719H29.4883V12.6622Z" fill="black"/>
<path d="M10.9116 9.2046C11.289 9.2046 11.5952 8.89835 11.5952 8.52101V8.52032C11.5952 8.14298 11.289 7.83673 10.9116 7.83673C10.5343 7.83673 10.228 8.14298 10.228 8.52032C10.228 8.89835 10.5343 9.2046 10.9116 9.2046Z" fill="black"/>
<path d="M5.55847 22.8037C5.40808 22.8037 5.25768 22.7559 5.13464 22.6533L1.71667 19.919C1.42272 19.6797 1.37487 19.2559 1.60729 18.9551C1.84655 18.6611 2.27038 18.6133 2.57116 18.8457L5.98913 21.5801C6.28308 21.8193 6.33093 22.2432 6.09851 22.544C5.96179 22.7149 5.76354 22.8037 5.55847 22.8037Z" fill="#FFA300"/>
<path d="M5.55847 28.956C5.40808 28.956 5.25768 29.0039 5.13464 29.1064L1.71667 31.8408C1.42272 32.0801 1.37487 32.5039 1.60729 32.8047C1.84655 33.0986 2.27038 33.1465 2.57116 32.914L5.98913 30.1797C6.28308 29.9404 6.33093 29.5166 6.09851 29.2158C5.96179 29.0449 5.76354 28.956 5.55847 28.956Z" fill="#FFA300"/>
<path d="M5.92077 26.454C5.80456 26.5429 5.65417 26.5976 5.49011 26.5976L1.11511 26.5361C0.739136 26.5292 0.438354 26.2216 0.438354 25.8456C0.44519 25.4697 0.752807 25.1689 1.12878 25.1689L5.50378 25.2304C5.87976 25.2372 6.18054 25.5449 6.18054 25.9208C6.18054 26.1396 6.078 26.331 5.92077 26.454Z" fill="#FFA300"/>
<path d="M27.4403 28.956C27.5907 28.956 27.7411 29.0039 27.8641 29.1064L31.2821 31.8408C31.576 32.0801 31.6239 32.5039 31.3915 32.8047C31.1522 33.0986 30.7284 33.1465 30.4276 32.914L27.0096 30.1797C26.7157 29.9404 26.6678 29.5166 26.9003 29.2158C27.037 29.0449 27.2352 28.956 27.4403 28.956Z" fill="#FFA300"/>
<path d="M27.4403 22.8037C27.5907 22.8037 27.7411 22.7559 27.8641 22.6533L31.2821 19.919C31.576 19.6797 31.6239 19.2559 31.3915 18.9551C31.1522 18.6611 30.7284 18.6133 30.4276 18.8457L27.0096 21.5801C26.7157 21.8193 26.6678 22.2432 26.9003 22.544C27.037 22.7149 27.2352 22.8037 27.4403 22.8037Z" fill="#FFA300"/>
<path d="M27.078 25.3056C27.1942 25.2168 27.3446 25.1621 27.5087 25.1621L31.8837 25.2236C32.2596 25.2305 32.5604 25.5381 32.5604 25.914C32.5536 26.29 32.246 26.5908 31.87 26.5908L27.495 26.5293C27.119 26.5224 26.8182 26.2148 26.8182 25.8389C26.8182 25.6201 26.9208 25.4287 27.078 25.3056Z" fill="#FFA300"/>
</svg>
