<svg width="73" height="73" viewBox="0 0 73 73" fill="none" xmlns="http://www.w3.org/2000/svg">
<g clip-path="url(#clip0)">
<path fill-rule="evenodd" clip-rule="evenodd" d="M70.1484 64.4453H40.7773C38.4248 64.4453 36.5 66.3701 36.5 68.7227V71.5745H70.1484V64.4453Z" fill="#CA006D"/>
<path fill-rule="evenodd" clip-rule="evenodd" d="M36.5001 68.7227C36.5001 66.3701 34.5753 64.4453 32.2228 64.4453H2.85168V71.5745H36.5001V68.7227Z" fill="#CA006D"/>
<path d="M44.5584 26.6014C49.0121 22.1477 49.0121 14.9268 44.5584 10.473C40.1046 6.01927 32.8837 6.01927 28.4299 10.473C23.9762 14.9268 23.9762 22.1477 28.4299 26.6014C32.8837 31.0552 40.1046 31.0552 44.5584 26.6014Z" fill="#FFD400"/>
<path fill-rule="evenodd" clip-rule="evenodd" d="M36.5001 7.12891C42.7997 7.12891 47.9064 12.2356 47.9064 18.5352C47.9064 24.8347 42.7997 29.9414 36.5001 29.9414C30.2006 29.9414 25.0939 24.8347 25.0939 18.5352C25.0939 12.2358 30.2006 7.12891 36.5001 7.12891ZM53.6094 18.5352C53.6094 9.08593 45.9492 1.42578 36.5 1.42578C27.0508 1.42578 19.3906 9.08593 19.3906 18.5352C19.3906 19.1126 19.4193 19.6833 19.475 20.2461C20.3335 28.892 27.6281 35.6445 36.5 35.6445C45.3718 35.6445 52.6665 28.892 53.5248 20.2461C53.5809 19.6833 53.6094 19.1126 53.6094 18.5352Z" fill="#FFA300"/>
<path fill-rule="evenodd" clip-rule="evenodd" d="M53.5249 20.2461C52.6665 28.892 45.3719 35.6445 36.5001 35.6445V68.7227C36.5001 66.3701 38.4249 64.4453 40.7775 64.4453H71.5743V20.2461H53.5249Z" fill="white"/>
<path fill-rule="evenodd" clip-rule="evenodd" d="M36.5001 68.7227V35.6445C27.6283 35.6445 20.3336 28.892 19.4757 20.2461H1.4259V64.4453H32.2228C34.5753 64.4453 36.5001 66.3701 36.5001 68.7227Z" fill="white"/>
<path d="M73.0008 64.4452V20.2461C73.0008 19.4586 72.3625 18.8203 71.5751 18.8203H55.0323C55.0337 18.7253 55.0359 18.6305 55.0359 18.5351C55.0359 8.31471 46.721 0 36.5008 0C26.2805 0 17.9656 8.31486 17.9656 18.5351C17.9656 18.6304 17.9678 18.7252 17.9692 18.8203H1.42676C0.639298 18.8203 0.000976562 19.4586 0.000976562 20.2461V64.4452C0.000976562 65.2326 0.639298 65.871 1.42676 65.871V70.1484C0.639298 70.1484 0.000976562 70.7868 0.000976562 71.5742C0.000976562 72.3617 0.639298 73 1.42676 73H71.5751C72.3625 73 73.0008 72.3617 73.0008 71.5742C73.0008 70.7868 72.3625 70.1484 71.5751 70.1484V65.871C72.3625 65.871 73.0008 65.2326 73.0008 64.4452ZM70.1493 21.6718V63.0194H40.7781C39.7397 63.0194 38.7662 63.2996 37.9265 63.7863V37.0159C46.4346 36.3656 53.3529 29.9458 54.7693 21.6718H70.1493ZM36.5009 2.85156C45.1488 2.85156 52.1845 9.8872 52.1845 18.5351C52.1845 27.183 45.1488 34.2187 36.5009 34.2187C27.853 34.2187 20.8173 27.183 20.8173 18.5351C20.8173 9.8872 27.8528 2.85156 36.5009 2.85156ZM4.27831 65.871H10.4087C11.1962 65.871 11.8345 65.2326 11.8345 64.4452C11.8345 63.6577 11.1962 63.0194 10.4087 63.0194H2.85253V21.6718H18.2325C19.6488 29.9458 26.5672 36.3656 35.0751 37.0159V63.7863C34.2356 63.2994 33.262 63.0193 32.2236 63.0193H23.2407C22.4533 63.0193 21.815 63.6576 21.815 64.445C21.815 65.2325 22.4533 65.8708 23.2407 65.8708H32.2236C33.7959 65.8708 35.0751 67.15 35.0751 68.7224V70.1483H4.27831V65.871ZM68.7234 65.871V70.1484H37.9265V68.7225C37.9265 67.1502 39.2057 65.871 40.7781 65.871H68.7234Z" fill="black"/>
<path d="M36.5001 31.3672C43.5757 31.3672 49.3322 25.6107 49.3322 18.5352C49.3322 11.4596 43.5757 5.70312 36.5001 5.70312C29.4245 5.70312 23.6681 11.4596 23.6681 18.5352C23.6681 25.6107 29.4245 31.3672 36.5001 31.3672ZM36.5001 8.55469C42.0034 8.55469 46.4806 13.0319 46.4806 18.5352C46.4806 24.0384 42.0034 28.5156 36.5001 28.5156C30.9969 28.5156 26.5197 24.0384 26.5197 18.5352C26.5197 13.0319 30.9969 8.55469 36.5001 8.55469Z" fill="black"/>
<path d="M34.9193 22.8125C34.1319 22.8125 33.4935 23.4508 33.4935 24.2383C33.4935 25.0257 34.1319 25.664 34.9193 25.664H38.0807C38.8682 25.664 39.5065 25.0257 39.5065 24.2383C39.5065 23.4508 38.8682 22.8125 38.0807 22.8125H37.9259V12.832C37.9259 12.3226 37.6541 11.8519 37.213 11.5973C36.772 11.3426 36.2285 11.3426 35.7872 11.5973L34.2064 12.5099C33.5245 12.9036 33.2908 13.7756 33.6846 14.4576C33.976 14.9624 34.5298 15.2218 35.0743 15.1623V22.8125H34.9193Z" fill="black"/>
<path d="M30.7967 58.1312C30.7967 57.3438 30.1584 56.7054 29.3709 56.7054H7.12915C6.34169 56.7054 5.70337 57.3438 5.70337 58.1312C5.70337 58.9187 6.34169 59.557 7.12915 59.557H29.3709C30.1584 59.557 30.7967 58.9187 30.7967 58.1312Z" fill="black"/>
<path d="M7.12915 53.2429H29.3709C30.1584 53.2429 30.7967 52.6045 30.7967 51.8171C30.7967 51.0296 30.1584 50.3913 29.3709 50.3913H7.12915C6.34169 50.3913 5.70337 51.0296 5.70337 51.8171C5.70337 52.6045 6.34169 53.2429 7.12915 53.2429Z" fill="black"/>
<path d="M7.12915 46.9285H29.3709C30.1584 46.9285 30.7967 46.2902 30.7967 45.5027C30.7967 44.7153 30.1584 44.077 29.3709 44.077H7.12915C6.34169 44.077 5.70337 44.7153 5.70337 45.5027C5.70337 46.2902 6.34169 46.9285 7.12915 46.9285Z" fill="black"/>
<path d="M7.12915 40.6144H23.8821C24.6695 40.6144 25.3079 39.9761 25.3079 39.1887C25.3079 38.4012 24.6695 37.7629 23.8821 37.7629H7.12915C6.34169 37.7629 5.70337 38.4012 5.70337 39.1887C5.70337 39.9761 6.34169 40.6144 7.12915 40.6144Z" fill="black"/>
<path d="M7.12915 34.3003H16.6106C17.3981 34.3003 18.0364 33.662 18.0364 32.8745C18.0364 32.0871 17.3981 31.4487 16.6106 31.4487H7.12915C6.34169 31.4487 5.70337 32.0871 5.70337 32.8745C5.70337 33.662 6.34169 34.3003 7.12915 34.3003Z" fill="black"/>
<path d="M7.12915 27.9862H12.6897C13.4772 27.9862 14.1155 27.3479 14.1155 26.5604C14.1155 25.773 13.4772 25.1346 12.6897 25.1346H7.12915C6.34169 25.1346 5.70337 25.773 5.70337 26.5604C5.70337 27.3479 6.34169 27.9862 7.12915 27.9862Z" fill="black"/>
<path d="M65.871 56.7054H43.6293C42.8418 56.7054 42.2035 57.3438 42.2035 58.1312C42.2035 58.9187 42.8418 59.557 43.6293 59.557H65.871C66.6585 59.557 67.2968 58.9187 67.2968 58.1312C67.2968 57.3438 66.6585 56.7054 65.871 56.7054Z" fill="black"/>
<path d="M65.871 50.3913H43.6293C42.8418 50.3913 42.2035 51.0296 42.2035 51.8171C42.2035 52.6045 42.8418 53.2429 43.6293 53.2429H65.871C66.6585 53.2429 67.2968 52.6045 67.2968 51.8171C67.2968 51.0296 66.6585 50.3913 65.871 50.3913Z" fill="black"/>
<path d="M65.871 44.077H43.6293C42.8418 44.077 42.2035 44.7153 42.2035 45.5027C42.2035 46.2902 42.8418 46.9285 43.6293 46.9285H65.871C66.6585 46.9285 67.2968 46.2902 67.2968 45.5027C67.2968 44.7153 66.6585 44.077 65.871 44.077Z" fill="black"/>
<path d="M65.8709 37.7629H49.1182C48.3307 37.7629 47.6924 38.4012 47.6924 39.1887C47.6924 39.9761 48.3307 40.6144 49.1182 40.6144H65.8709C66.6584 40.6144 67.2967 39.9761 67.2967 39.1887C67.2967 38.4012 66.6584 37.7629 65.8709 37.7629Z" fill="black"/>
<path d="M56.3896 34.3003H65.8709C66.6584 34.3003 67.2967 33.662 67.2967 32.8745C67.2967 32.0871 66.6584 31.4487 65.8709 31.4487H56.3896C55.6022 31.4487 54.9639 32.0871 54.9639 32.8745C54.9639 33.662 55.6022 34.3003 56.3896 34.3003Z" fill="black"/>
<path d="M60.3105 27.9862H65.8709C66.6584 27.9862 67.2967 27.3479 67.2967 26.5604C67.2967 25.773 66.6584 25.1346 65.8709 25.1346H60.3105C59.5231 25.1346 58.8848 25.773 58.8848 26.5604C58.8848 27.3479 59.5231 27.9862 60.3105 27.9862Z" fill="black"/>
<path d="M16.8244 63.0195H16.8234C16.0359 63.0195 15.3982 63.6579 15.3982 64.4453C15.3982 65.2328 16.0369 65.8711 16.8244 65.8711C17.6119 65.8711 18.2502 65.2328 18.2502 64.4453C18.2502 63.6579 17.6119 63.0195 16.8244 63.0195Z" fill="black"/>
<path d="M13.6791 8.56206C13.3655 8.56206 13.0518 8.46225 12.7952 8.24838L5.66626 2.54526C5.05317 2.04624 4.95337 1.16225 5.43813 0.534911C5.93716 -0.0781749 6.82114 -0.17798 7.44848 0.306785L14.5774 6.00991C15.1905 6.50893 15.2903 7.39292 14.8055 8.02026C14.5204 8.3767 14.1069 8.56206 13.6791 8.56206Z" fill="#FFA300"/>
<path d="M13.6791 21.394C13.3655 21.394 13.0518 21.4938 12.7952 21.7077L5.66626 27.4108C5.05317 27.9099 4.95337 28.7938 5.43813 29.4212C5.93716 30.0343 6.82114 30.1341 7.44848 29.6493L14.5774 23.9462C15.1905 23.4472 15.2903 22.5632 14.8055 21.9358C14.5204 21.5794 14.1069 21.394 13.6791 21.394Z" fill="#FFA300"/>
<path d="M14.4348 16.1756C14.1924 16.3609 13.8787 16.475 13.5365 16.475L4.41152 16.3467C3.62734 16.3324 3 15.6908 3 14.9066C3.01426 14.1225 3.65586 13.4951 4.44004 13.4951L13.565 13.6234C14.3492 13.6377 14.9766 14.2793 14.9766 15.0635C14.9766 15.5197 14.7627 15.9189 14.4348 16.1756Z" fill="#FFA300"/>
<path d="M59.3184 21.394C59.6321 21.394 59.9458 21.4938 60.2024 21.7077L67.3313 27.4108C67.9444 27.9099 68.0442 28.7938 67.5594 29.4212C67.0604 30.0343 66.1764 30.1341 65.5491 29.6493L58.4202 23.9462C57.8071 23.4472 57.7073 22.5632 58.192 21.9358C58.4772 21.5794 58.8907 21.394 59.3184 21.394Z" fill="#FFA300"/>
<path d="M59.3184 8.56206C59.6321 8.56206 59.9458 8.46225 60.2024 8.24838L67.3313 2.54526C67.9444 2.04624 68.0442 1.16225 67.5594 0.534911C67.0604 -0.0781749 66.1764 -0.17798 65.5491 0.306785L58.4202 6.00991C57.8071 6.50893 57.7073 7.39292 58.192 8.02026C58.4772 8.3767 58.8907 8.56206 59.3184 8.56206Z" fill="#FFA300"/>
<path d="M58.5628 13.7804C58.8052 13.595 59.1188 13.481 59.461 13.481L68.586 13.6093C69.3702 13.6235 69.9976 14.2651 69.9976 15.0493C69.9833 15.8335 69.3417 16.4608 68.5575 16.4608L59.4325 16.3325C58.6483 16.3183 58.021 15.6767 58.021 14.8925C58.021 14.4362 58.2349 14.037 58.5628 13.7804Z" fill="#FFA300"/>
</g>
<defs>
<clipPath id="clip0">
<rect width="73" height="73" fill="white"/>
</clipPath>
</defs>
</svg>
