<svg width="73" height="67" viewBox="0 0 73 67" fill="none" xmlns="http://www.w3.org/2000/svg">
<path fill-rule="evenodd" clip-rule="evenodd" d="M9.21011 11.8045C10.3215 9.87566 10.4026 7.42332 9.20968 5.35693C8.01644 3.29055 5.85211 2.13467 3.62618 2.13281C2.51478 4.06161 2.43351 6.51395 3.62675 8.58034C4.8197 10.6467 6.98404 11.8026 9.21011 11.8045Z" fill="#00B7B7"/>
<path fill-rule="evenodd" clip-rule="evenodd" d="M16.3514 14.0452C14.1254 14.047 11.961 15.2029 10.7679 17.2694C9.57477 19.3358 9.65604 21.7882 10.7674 23.717C12.9935 23.7151 15.1578 22.5592 16.3509 20.4927C17.5439 18.4263 17.4628 15.974 16.3514 14.0452Z" fill="#00B7B7"/>
<path d="M11.0963 34.3519C11.9864 32.8103 10.543 30.3106 7.8723 28.7686C5.20163 27.2266 2.31507 27.2264 1.42499 28.768C0.534906 30.3096 1.97836 32.8093 4.64904 34.3513C7.31971 35.8932 10.2063 35.8935 11.0963 34.3519Z" fill="#00B7B7"/>
<path d="M19.0121 45.4702C20.7922 45.4702 22.2354 42.9702 22.2354 39.8863C22.2354 36.8024 20.7922 34.3024 19.0121 34.3024C17.2319 34.3024 15.7888 36.8024 15.7888 39.8863C15.7888 42.9702 17.2319 45.4702 19.0121 45.4702Z" fill="#00B7B7"/>
<path d="M19.4418 57.0775C22.5258 57.0775 25.0258 55.6344 25.0258 53.8542C25.0258 52.0741 22.5258 50.631 19.4418 50.631C16.3579 50.631 13.8579 52.0741 13.8579 53.8542C13.8579 55.6344 16.3579 57.0775 19.4418 57.0775Z" fill="#00B7B7"/>
<path d="M53.5582 57.0775C56.6421 57.0775 59.1421 55.6344 59.1421 53.8542C59.1421 52.0741 56.6421 50.631 53.5582 50.631C50.4743 50.631 47.9742 52.0741 47.9742 53.8542C47.9742 55.6344 50.4743 57.0775 53.5582 57.0775Z" fill="#00B7B7"/>
<path d="M53.9882 45.4702C55.7683 45.4702 57.2114 42.9702 57.2114 39.8863C57.2114 36.8024 55.7683 34.3024 53.9882 34.3024C52.208 34.3024 50.7649 36.8024 50.7649 39.8863C50.7649 42.9702 52.208 45.4702 53.9882 45.4702Z" fill="#00B7B7"/>
<path fill-rule="evenodd" clip-rule="evenodd" d="M61.9027 34.3514C63.8315 35.4628 66.2838 35.5439 68.3502 34.351C70.4166 33.1579 71.5725 30.9936 71.5743 28.7675C69.6456 27.6561 67.1932 27.575 65.1268 28.7681C63.0604 29.9611 61.9046 32.1255 61.9027 34.3514Z" fill="#00B7B7"/>
<path d="M62.2312 23.7162C63.7729 22.8261 63.7726 19.9396 62.2306 17.2689C60.6887 14.5982 58.1889 13.1548 56.6473 14.0449C55.1057 14.9349 55.106 17.8215 56.6479 20.4922C58.1899 23.1628 60.6896 24.6063 62.2312 23.7162Z" fill="#00B7B7"/>
<path fill-rule="evenodd" clip-rule="evenodd" d="M63.7906 5.35695C62.5975 7.42334 62.6787 9.87568 63.7901 11.8045C66.0162 11.8026 68.1806 10.6467 69.3736 8.58022C70.5667 6.51383 70.4855 4.06149 69.3742 2.13269C67.148 2.13469 64.9835 3.29057 63.7906 5.35695Z" fill="#00B7B7"/>
<path fill-rule="evenodd" clip-rule="evenodd" d="M39.3518 30.6453V7.83325C39.3518 6.25833 38.0752 4.98169 36.5002 4.98169C35.8847 4.98169 35.3148 5.17674 34.8488 5.50837L31.5288 7.42505C30.1693 8.20638 29.7005 9.94184 30.4817 11.3013C31.132 12.4328 32.4432 12.9472 33.6485 12.6376V30.6453H32.9435C31.3686 30.6453 30.0919 31.922 30.0919 33.4969C30.0919 35.0718 31.3686 36.3484 32.9435 36.3484H40.0568C41.6318 36.3484 42.9084 35.0718 42.9084 33.4969C42.9084 31.922 41.6318 30.6453 40.0568 30.6453H39.3518Z" fill="#FFA300"/>
<path d="M72.2861 27.5322C69.8566 26.1324 66.8401 26.1327 64.4138 27.5333C64.3558 27.5668 64.2988 27.6016 64.2419 27.6366C65.0596 23.2011 65.4007 18.3305 65.2602 13.0891C67.4842 12.6626 69.4561 11.2887 70.6081 9.29321C72.0088 6.86711 72.0094 3.85073 70.6094 1.42092C70.3548 0.97907 69.8838 0.707031 69.374 0.707031C69.3735 0.707031 69.3731 0.707031 69.3727 0.707031C66.5686 0.709455 63.9564 2.21793 62.5556 4.64418C61.2169 6.96278 61.1583 9.82032 62.3777 12.1898C62.4164 13.2044 62.4368 14.195 62.4395 15.1627C60.9661 13.5667 58.8684 12.6214 56.6499 12.6196C56.6495 12.6196 56.649 12.6196 56.6486 12.6196C56.1387 12.6196 55.6677 12.8917 55.4132 13.3336C54.0133 15.7633 54.0139 18.7796 55.4144 21.2057C56.7366 23.4957 59.138 24.9675 61.7614 25.1276C61.052 29.908 59.8218 33.9592 58.2381 37.423C57.6391 35.6145 56.3945 34.0476 54.702 33.0684C54.2603 32.8127 53.7155 32.8129 53.2741 33.0684C50.8468 34.4725 49.3388 37.0851 49.3388 39.8866C49.3388 42.4015 50.5547 44.7637 52.5595 46.2366C47.6199 51.8802 41.6833 55.1244 36.8604 57.7598C36.7395 57.826 36.6193 57.8916 36.4999 57.9569C36.3806 57.8916 36.2604 57.826 36.1395 57.7598C31.3165 55.1244 25.38 51.8802 20.4404 46.2366C22.4452 44.7637 23.6611 42.4016 23.6611 39.8866C23.6611 37.0852 22.1532 34.4725 19.7258 33.0684C19.2841 32.8129 18.7396 32.8129 18.2979 33.0684C16.6053 34.0474 15.3608 35.6144 14.7618 37.423C13.1782 33.959 11.948 29.9078 11.2386 25.1275C13.862 24.9674 16.2634 23.4955 17.5856 21.2056C18.9862 18.7795 18.9865 15.7631 17.5867 13.3334C17.332 12.8916 16.8611 12.6196 16.3513 12.6196C16.3508 12.6196 16.3504 12.6196 16.35 12.6196C14.1313 12.6214 12.0337 13.5668 10.5605 15.1627C10.563 14.1952 10.5834 13.2044 10.6223 12.19C11.8418 9.82032 11.7831 6.96292 10.4443 4.64418C9.04371 2.21807 6.43154 0.709455 3.62732 0.707031C3.6269 0.707031 3.62647 0.707031 3.62604 0.707031C3.11632 0.707031 2.64525 0.979212 2.3906 1.42092C0.990774 3.85059 0.991059 6.86696 2.39174 9.29307C3.54392 11.2886 5.51577 12.6625 7.73984 13.0889C7.59926 18.3302 7.94045 23.2008 8.75813 27.6364C8.70124 27.6015 8.64421 27.5667 8.58618 27.5332C6.15993 26.1324 3.14341 26.1319 0.713888 27.5321C0.271754 27.7868 -0.00042723 28.2583 5.03397e-07 28.7686C0.00228175 31.5727 1.5109 34.1849 3.937 35.5857C5.15048 36.2862 6.51153 36.6365 7.87286 36.6365C8.9556 36.6365 10.0382 36.4142 11.0474 35.9711C12.4522 39.6922 14.3104 43.0815 16.5965 46.0811C17.4508 47.2022 18.3398 48.2409 19.2527 49.208C16.5232 49.2742 13.996 50.7674 12.6236 53.14C12.3681 53.5817 12.3681 54.1262 12.6236 54.568C14.0277 56.9952 16.6403 58.5031 19.4416 58.5031C22.0768 58.5031 24.5446 57.1687 25.9969 54.99C28.5873 56.8116 31.1751 58.2861 33.564 59.6002C31.1433 61.0163 29.2392 62.3727 28.094 64.0693C27.6533 64.7221 27.8252 65.6082 28.4779 66.0487C28.7226 66.2139 28.9999 66.2928 29.2744 66.2928C29.7322 66.2928 30.1819 66.0727 30.4573 65.6646C31.4858 64.1412 33.7515 62.7409 36.4998 61.2117C39.2483 62.7409 41.514 64.1411 42.5422 65.6646C42.8177 66.0727 43.2672 66.2928 43.7252 66.2928C43.9997 66.2928 44.2771 66.2137 44.5216 66.0487C45.1744 65.6082 45.3463 64.7219 44.9056 64.0693C43.7604 62.3727 41.8561 61.0163 39.4356 59.6002C41.8246 58.2861 44.4123 56.8116 47.0026 54.9901C48.4549 57.1687 50.9228 58.5032 53.5579 58.5032C56.3592 58.5032 58.9718 56.9953 60.376 54.5681C60.6315 54.1264 60.6315 53.5819 60.376 53.14C59.0033 50.7675 56.4762 49.2743 53.7469 49.2082C54.6598 48.2411 55.5488 47.2024 56.4031 46.0813C58.689 43.0816 60.5474 39.6924 61.9522 35.9712C62.9614 36.4144 64.044 36.6366 65.1267 36.6366C66.4882 36.6366 67.8492 36.2863 69.0626 35.5858C71.4888 34.185 72.9974 31.5729 72.9996 28.7688C73.0004 28.2585 72.7282 27.7868 72.2861 27.5322ZM53.988 36.0374C55.1133 36.9833 55.7854 38.3929 55.7854 39.8864C55.7854 41.3799 55.1132 42.7895 53.988 43.7353C52.8626 42.7895 52.1905 41.3799 52.1905 39.8864C52.1905 38.3928 52.8627 36.9833 53.988 36.0374ZM19.012 36.0374C20.1374 36.9833 20.8095 38.3928 20.8095 39.8864C20.8095 41.3799 20.1373 42.7895 19.012 43.7353C17.8867 42.7895 17.2146 41.3798 17.2146 39.8864C17.2144 38.3928 17.8867 36.9833 19.012 36.0374ZM12.0026 17.9823C12.7493 16.6889 14.0364 15.8043 15.4837 15.5478C15.9854 16.9295 15.8628 18.4863 15.1161 19.7798C14.3694 21.0731 13.0822 21.9578 11.6348 22.2143C11.1332 20.8326 11.2558 19.2757 12.0026 17.9823ZM4.86133 7.86743C4.11465 6.57411 3.99204 5.01716 4.49377 3.63544C5.94108 3.89194 7.22813 4.77649 7.97481 6.06995C8.72149 7.36342 8.84425 8.92023 8.34266 10.3021C6.89506 10.0455 5.60802 9.16076 4.86133 7.86743ZM5.36278 33.1163C4.06931 32.3694 3.18476 31.0824 2.92826 29.6349C4.30999 29.1335 5.86665 29.256 7.1604 30.0028C8.45373 30.7495 9.33828 32.0365 9.59478 33.484C8.21334 33.9856 6.65639 33.8631 5.36278 33.1163ZM19.4418 55.6515C17.9481 55.6515 16.5387 54.9793 15.5929 53.8541C16.5387 52.7288 17.9483 52.0566 19.4418 52.0566C20.9353 52.0566 22.3448 52.7288 23.2907 53.8541C22.3449 54.9793 20.9354 55.6515 19.4418 55.6515ZM65.025 6.06995C65.7719 4.77649 67.0589 3.89194 68.5062 3.63544C69.008 5.01716 68.8852 6.57397 68.1385 7.86758C67.3918 9.1609 66.1048 10.0455 64.6573 10.3021C64.1559 8.92008 64.2784 7.36328 65.025 6.06995ZM61.3651 22.2143C59.9176 21.9578 58.6306 21.0733 57.8839 19.7798C57.1372 18.4865 57.0146 16.9297 57.5162 15.5478C58.9636 15.8043 60.2505 16.6889 60.9974 17.9822C61.7442 19.2757 61.8667 20.8325 61.3651 22.2143ZM57.4071 53.8541C56.4611 54.9794 55.0516 55.6515 53.5582 55.6515C52.0646 55.6515 50.6552 54.9793 49.7093 53.8541C50.6552 52.7288 52.0647 52.0566 53.5582 52.0566C55.0516 52.0564 56.4611 52.7287 57.4071 53.8541ZM67.6372 33.1163C66.3439 33.8631 64.7868 33.9856 63.4051 33.484C63.6616 32.0367 64.5461 30.7496 65.8396 30.0028C67.1331 29.2561 68.69 29.1333 70.0717 29.6349C69.8152 31.0824 68.9307 32.3694 67.6372 33.1163Z" fill="black"/>
<path d="M28.666 33.497C28.666 35.8556 30.5848 37.7744 32.9434 37.7744H40.0569C42.4154 37.7744 44.3342 35.8556 44.3342 33.497C44.3342 31.384 42.7941 29.6239 40.7776 29.2803V25.655C40.7776 24.8675 40.1391 24.2292 39.3518 24.2292C38.5645 24.2292 37.926 24.8675 37.926 25.655V30.6453C37.926 31.4328 38.5645 32.0711 39.3518 32.0711H40.0569C40.843 32.0711 41.4826 32.7107 41.4826 33.4969C41.4826 34.2831 40.843 34.9227 40.0569 34.9227H32.9434C32.1572 34.9227 31.5176 34.2831 31.5176 33.4969C31.5176 32.7107 32.1572 32.0711 32.9434 32.0711H33.6484C34.4357 32.0711 35.0742 31.4328 35.0742 30.6453V12.6376C35.0742 12.1969 34.8704 11.781 34.5223 11.5109C34.174 11.2409 33.7203 11.1472 33.2937 11.2566C32.6809 11.4138 32.0334 11.1401 31.7179 10.591C31.3295 9.91532 31.5633 9.04959 32.2416 8.65992L35.5615 6.74324C35.6004 6.72072 35.6385 6.69634 35.6753 6.6701C35.9167 6.49829 36.2018 6.40747 36.5 6.40747C37.2863 6.40747 37.9259 7.04708 37.9259 7.83325V12.8228C37.9259 13.6102 38.5644 14.2486 39.3517 14.2486C40.139 14.2486 40.7775 13.6102 40.7775 12.8228V7.83325C40.7775 5.47473 38.8586 3.55591 36.5 3.55591C35.6308 3.55591 34.7967 3.8144 34.083 4.30402L30.8182 6.18876C28.7792 7.36061 28.0737 9.97278 29.2455 12.0117C29.8912 13.1355 30.9993 13.8767 32.2226 14.0889V29.2801C30.206 29.6239 28.666 31.384 28.666 33.497Z" fill="black"/>
<path d="M39.3517 17.8131C38.5644 17.8131 37.9259 18.4519 37.9259 19.2393C37.9259 20.0268 38.5644 20.6651 39.3517 20.6651C40.139 20.6651 40.7775 20.0268 40.7775 19.2393V19.2383C40.7775 18.4509 40.139 17.8131 39.3517 17.8131Z" fill="black"/>
</svg>
