<svg width="60" height="73" viewBox="0 0 60 73" fill="none" xmlns="http://www.w3.org/2000/svg">
<path d="M30.0412 73C39.9156 73 47.9205 64.9952 47.9205 55.1208C47.9205 45.2463 39.9156 37.2415 30.0412 37.2415C20.1667 37.2415 12.1619 45.2463 12.1619 55.1208C12.1619 64.9952 20.1667 73 30.0412 73Z" fill="black"/>
<path d="M30.0412 69.8918C38.1991 69.8918 44.8123 63.2786 44.8123 55.1207C44.8123 46.9629 38.1991 40.3496 30.0412 40.3496C21.8834 40.3496 15.2701 46.9629 15.2701 55.1207C15.2701 63.2786 21.8834 69.8918 30.0412 69.8918Z" fill="#C1C1C1"/>
<path fill-rule="evenodd" clip-rule="evenodd" d="M18.2928 34.1189V1.42578H1.42578V27.375L18.2928 34.1189Z" fill="#00B7B7"/>
<path fill-rule="evenodd" clip-rule="evenodd" d="M18.2927 1.42578V34.1189L29.9414 38.7812L41.6042 34.1189V1.42578H29.9414H18.2927Z" fill="white"/>
<path fill-rule="evenodd" clip-rule="evenodd" d="M41.6042 1.42578V34.1189L58.457 27.375V1.42578H41.6042Z" fill="#00B7B7"/>
<path d="M32.1799 39.4229L58.9846 28.701C59.5264 28.4871 59.8828 27.9596 59.8828 27.375V1.42578C59.8828 0.641602 59.2412 0 58.457 0H1.42578C0.641602 0 0 0.641602 0 1.42578V27.375C0 27.9596 0.356445 28.4871 0.898242 28.701L27.7029 39.4229H32.1799ZM2.85156 2.85156H16.867V11.3635C16.867 12.1477 17.5086 12.7893 18.2928 12.7893C19.077 12.7893 19.7186 12.1477 19.7186 11.3635V2.85156H40.1785V33.1494L29.9414 37.2414L19.7043 33.1494V24.1813C19.7043 23.3971 19.0627 22.7555 18.2785 22.7555C17.4943 22.7555 16.8527 23.3971 16.8527 24.1813V32.0088L2.85156 26.4055V2.85156ZM57.0312 26.4055L43.0158 32.0088V2.85156H57.0312V26.4055Z" fill="black"/>
<path d="M18.2927 19.1909C19.0769 19.1909 19.7185 18.5493 19.7185 17.7651C19.7185 16.981 19.0769 16.3394 18.2927 16.3394C17.5085 16.3394 16.8669 16.981 16.8669 17.7651C16.8669 18.5636 17.4943 19.1909 18.2927 19.1909Z" fill="black"/>
<path d="M35.6484 27.3516C34.9297 27.3516 34.3047 26.4297 33.7734 24.5859C33.5703 23.8828 33.3164 22.6523 33.0117 20.8945C32.2148 21.0039 31.1719 21.1992 29.8828 21.4805L26.7656 22.125C26.375 23.1484 25.707 24.6445 24.7617 26.6133C24.5117 27.0508 24.1719 27.2695 23.7422 27.2695C23.4297 27.2695 23.1484 27.1562 22.8984 26.9297C22.6562 26.7031 22.5352 26.4219 22.5352 26.0859C22.5352 25.7109 23.125 24.2852 24.3047 21.8086C24.1719 21.6055 24.1055 21.3711 24.1055 21.1055C24.1055 20.4727 24.4883 20.0664 25.2539 19.8867C26.1445 18.2148 27.2695 16.293 28.6289 14.1211C30.4805 11.1602 31.6328 9.67969 32.0859 9.67969C32.7031 9.67969 33.125 10.1094 33.3516 10.9688L34.0898 14.9062L35.8359 23.0508L36.5039 24.9023C36.7305 25.5352 36.8438 25.957 36.8438 26.168C36.8438 26.5039 36.7227 26.7852 36.4805 27.0117C36.2383 27.2383 35.9609 27.3516 35.6484 27.3516ZM31.5117 13.957L28.1602 19.3594C29.1055 19.1172 30.5391 18.8242 32.4609 18.4805L31.5117 13.957Z" fill="black"/>
</svg>
