<svg width="73" height="67" viewBox="0 0 73 67" fill="none" xmlns="http://www.w3.org/2000/svg">
<path fill-rule="evenodd" clip-rule="evenodd" d="M43.1679 18.4314C43.2686 18.2328 43.3623 18.0302 43.4485 17.8237C43.9115 16.717 44.1674 15.5088 44.1674 14.249C44.1674 11.7002 43.1333 9.38682 41.4614 7.70725C39.7851 6.02312 37.4752 4.98145 34.9295 4.98145C33.5617 4.98145 32.2546 5.28628 31.072 5.83278C29.855 6.39525 28.7808 7.21607 27.9192 8.2251C26.8981 9.41847 27.0377 11.214 28.2312 12.2351C29.4246 13.2562 31.22 13.1167 32.2412 11.9231C32.5734 11.534 32.9873 11.2177 33.4558 11.0011C33.8957 10.7978 34.3944 10.6844 34.9295 10.6844C35.9107 10.6844 36.7941 11.0791 37.4292 11.7171C38.0686 12.3596 38.4642 13.2544 38.4642 14.2489C38.4642 14.7499 38.3669 15.2197 38.1908 15.6403C38.0061 16.0819 37.7371 16.4768 37.4051 16.8037C36.2854 17.9049 36.2704 19.7052 37.3717 20.8249C37.5371 20.9931 37.7185 21.1363 37.9108 21.2544C38.553 21.7155 39.0879 22.3291 39.4669 23.0461C39.8459 23.763 40.0606 24.5899 40.0606 25.4768C40.0606 26.9142 39.4863 28.21 38.558 29.1427C37.6341 30.0709 36.3514 30.6452 34.9294 30.6452C34.3422 30.6452 33.7889 30.5518 33.2826 30.3796C32.7441 30.1965 32.2505 29.9302 31.8177 29.5973C30.575 28.6376 28.7897 28.867 27.83 30.1097C26.8703 31.3524 27.0997 33.1378 28.3424 34.0975C29.2783 34.8176 30.3279 35.3872 31.4557 35.7709C32.5567 36.1453 33.7254 36.3485 34.9294 36.3485C37.9159 36.3485 40.6251 35.1273 42.5902 33.1529C44.551 31.183 45.7639 28.4686 45.7639 25.4769C45.7639 23.6495 45.3073 21.9193 44.5018 20.3953C44.1301 19.6921 43.6818 19.0338 43.1679 18.4314Z" fill="#FF764E"/>
<path fill-rule="evenodd" clip-rule="evenodd" d="M9.21011 11.8045C10.3215 9.87568 10.4026 7.42334 9.20968 5.35695C8.01659 3.29042 5.85225 2.13469 3.62618 2.13269C2.51478 4.06149 2.43351 6.51383 3.62675 8.58022C4.81984 10.6467 6.98418 11.8026 9.21011 11.8045Z" fill="#00B7B7"/>
<path fill-rule="evenodd" clip-rule="evenodd" d="M16.3514 14.0453C14.1254 14.0471 11.961 15.203 10.7679 17.2696C9.57477 19.3359 9.65604 21.7883 10.7674 23.7171C12.9935 23.7152 15.1578 22.5593 16.3509 20.4928C17.5439 18.4263 17.4628 15.9739 16.3514 14.0453Z" fill="#00B7B7"/>
<path d="M11.0965 34.3517C11.9865 32.81 10.5431 30.3103 7.87242 28.7684C5.20175 27.2264 2.31519 27.2261 1.42511 28.7677C0.535028 30.3094 1.97849 32.8091 4.64916 34.351C7.31983 35.893 10.2064 35.8933 11.0965 34.3517Z" fill="#00B7B7"/>
<path d="M19.0121 45.4701C20.7922 45.4701 22.2354 42.9701 22.2354 39.8862C22.2354 36.8023 20.7922 34.3022 19.0121 34.3022C17.2319 34.3022 15.7888 36.8023 15.7888 39.8862C15.7888 42.9701 17.2319 45.4701 19.0121 45.4701Z" fill="#00B7B7"/>
<path fill-rule="evenodd" clip-rule="evenodd" d="M19.4418 50.6306C17.0557 50.6306 14.9724 51.9271 13.8579 53.8539C14.9726 55.7807 17.0558 57.0771 19.4418 57.0771C21.8279 57.0771 23.9111 55.7807 25.0258 53.8539C23.9111 51.9271 21.828 50.6306 19.4418 50.6306Z" fill="#00B7B7"/>
<path fill-rule="evenodd" clip-rule="evenodd" d="M53.5582 50.6306C51.1721 50.6306 49.0889 51.9271 47.9742 53.8539C49.0889 55.7807 51.1721 57.0771 53.5582 57.0771C55.9444 57.0771 58.0274 55.7807 59.1421 53.8539C58.0276 51.9271 55.9444 50.6306 53.5582 50.6306Z" fill="#00B7B7"/>
<path d="M53.9879 45.4701C55.7681 45.4701 57.2112 42.9701 57.2112 39.8862C57.2112 36.8023 55.7681 34.3022 53.9879 34.3022C52.2078 34.3022 50.7646 36.8023 50.7646 39.8862C50.7646 42.9701 52.2078 45.4701 53.9879 45.4701Z" fill="#00B7B7"/>
<path fill-rule="evenodd" clip-rule="evenodd" d="M61.9025 34.3514C63.8313 35.4628 66.2836 35.5439 68.35 34.351C70.4163 33.1579 71.5722 30.9936 71.5741 28.7675C69.6453 27.6561 67.193 27.575 65.1266 28.7681C63.0603 29.961 61.9045 32.1253 61.9025 34.3514Z" fill="#00B7B7"/>
<path d="M62.2311 23.716C63.7727 22.8259 63.7725 19.9393 62.2305 17.2687C60.6885 14.598 58.1888 13.1545 56.6472 14.0446C55.1056 14.9347 55.1058 17.8213 56.6478 20.4919C58.1898 23.1626 60.6895 24.6061 62.2311 23.716Z" fill="#00B7B7"/>
<path fill-rule="evenodd" clip-rule="evenodd" d="M63.7899 11.8045C66.016 11.8026 68.1803 10.6467 69.3734 8.58022C70.5665 6.51383 70.4853 4.06149 69.374 2.13269C67.1479 2.13454 64.9836 3.29042 63.7905 5.35695C62.5974 7.42334 62.6785 9.87568 63.7899 11.8045Z" fill="#00B7B7"/>
<path d="M34.9297 29.2198C34.1023 29.2198 33.327 28.9597 32.6895 28.469C30.8264 27.0305 28.1405 27.3753 26.7019 29.2383C26.0049 30.1407 25.701 31.2607 25.8465 32.3916C25.9917 33.5225 26.5688 34.5291 27.4733 35.2278C29.6077 36.87 32.2558 37.7744 34.9297 37.7744C37.3196 37.7744 39.638 37.0796 41.6348 35.7651C42.2926 35.3323 42.4749 34.4482 42.0418 33.7903C41.6089 33.1323 40.7242 32.9504 40.0669 33.3834C38.5369 34.3904 36.7605 34.9228 34.9295 34.9228C32.8811 34.9228 30.8507 34.2284 29.214 32.9693C28.9143 32.7379 28.7228 32.4036 28.6746 32.028C28.6263 31.6526 28.7273 31.2809 28.9585 30.9812C29.4364 30.3627 30.328 30.2482 30.9483 30.7273C32.0907 31.6064 33.4674 32.0712 34.9295 32.0712C36.6871 32.0712 38.3346 31.3886 39.5685 30.149C40.8055 28.9064 41.4866 27.2472 41.4866 25.477C41.4866 23.3417 40.4609 21.3304 38.7425 20.0965C38.7148 20.0766 38.6862 20.0577 38.6571 20.0399C38.5599 19.9802 38.4695 19.908 38.3882 19.8255C37.84 19.2681 37.8475 18.3686 38.4055 17.82C39.3627 16.8774 39.8898 15.6092 39.8898 14.2491C39.8898 11.4975 37.6646 9.25887 34.9294 9.25887C33.4539 9.25887 32.1141 9.87623 31.1576 10.9965C30.9113 11.2843 30.5677 11.459 30.1901 11.4884C29.8116 11.5177 29.4457 11.3983 29.158 11.1519C28.8701 10.9056 28.6955 10.562 28.6661 10.1843C28.6369 9.8068 28.7563 9.44009 29.0036 9.15108C30.4922 7.40749 32.6523 6.40745 34.9295 6.40745C39.2371 6.40745 42.7415 9.92528 42.7415 14.2492C42.7415 15.4721 42.4491 16.6955 41.8961 17.7872C41.636 18.3003 41.7097 18.9193 42.0831 19.357C43.1031 20.5526 43.8133 21.9977 44.1367 23.5358C44.2989 24.3063 45.0543 24.7993 45.8255 24.6376C46.596 24.4755 47.0893 23.7196 46.9273 22.9488C46.5692 21.2463 45.8473 19.6311 44.8232 18.2289C45.3288 16.9668 45.5931 15.6079 45.5931 14.2494C45.5931 8.35307 40.8095 3.55603 34.9295 3.55603C31.8166 3.55603 28.8664 4.9205 26.8358 7.29856C25.3052 9.08763 25.5153 11.7882 27.304 13.3188C28.1705 14.0603 29.2729 14.4195 30.4112 14.3317C31.5484 14.2433 32.5828 13.7171 33.3253 12.8494C33.7322 12.3731 34.3018 12.1107 34.9294 12.1107C36.1119 12.1107 37.0383 13.0502 37.0383 14.2494C37.0383 14.8395 36.8133 15.386 36.4052 15.7878C34.7269 17.4384 34.7044 20.1469 36.355 21.8253C36.5839 22.058 36.8387 22.2638 37.113 22.4379C38.0667 23.1396 38.6349 24.2725 38.6349 25.4774C38.6349 26.4884 38.2486 27.433 37.5473 28.1375C36.8529 28.8354 35.923 29.2198 34.9297 29.2198Z" fill="black"/>
<path d="M72.2861 27.5323C69.8565 26.1322 66.8402 26.1327 64.4138 27.5334C64.3558 27.5669 64.2988 27.6017 64.2417 27.6366C65.0594 23.201 65.4006 18.3305 65.26 13.0892C67.484 12.6627 69.4558 11.2888 70.608 9.29332C72.0088 6.86722 72.0092 3.85085 70.6091 1.42104C70.3546 0.979334 69.8835 0.707153 69.3738 0.707153C69.3734 0.707153 69.373 0.707153 69.3727 0.707153C66.5685 0.709435 63.9564 2.21805 62.5556 4.64415C61.217 6.96274 61.1582 9.82014 62.3777 12.1896C62.4165 13.2042 62.4369 14.1951 62.4396 15.1628C60.9663 13.5668 58.8686 12.6215 56.6499 12.6195C56.6495 12.6195 56.6491 12.6195 56.6486 12.6195C56.1389 12.6195 55.6677 12.8917 55.4132 13.3335C54.0134 15.7632 54.0138 18.7797 55.4145 21.2057C56.7366 23.4956 59.138 24.9674 61.7613 25.1276C61.0519 29.9079 59.8217 33.9591 58.2379 37.4229C57.639 35.6143 56.3943 34.0474 54.7017 33.0683C54.26 32.8129 53.7155 32.8129 53.2738 33.0683C50.8467 34.4725 49.3387 37.085 49.3387 39.8863C49.3387 42.4014 50.5546 44.7635 52.5594 46.2363C47.6198 51.88 41.6834 55.1242 36.8604 57.7596C36.7395 57.8256 36.6195 57.8913 36.5 57.9565C36.3805 57.8912 36.2605 57.8254 36.1394 57.7594C31.3165 55.124 25.3801 51.8798 20.4403 46.2362C22.4451 44.7633 23.661 42.4013 23.661 39.8862C23.661 37.0847 22.1531 34.4721 19.7257 33.0681C19.284 32.8128 18.7395 32.8128 18.2978 33.0681C16.6054 34.0472 15.3607 35.6141 14.7618 37.4227C13.178 33.959 11.9479 29.9078 11.2384 25.1274C13.8618 24.9672 16.2633 23.4953 17.5851 21.2055C18.9858 18.7796 18.9862 15.7631 17.5864 13.3334C17.3317 12.8915 16.8608 12.6194 16.3509 12.6194C16.3505 12.6194 16.3501 12.6194 16.3497 12.6194C14.1311 12.6214 12.0334 13.5667 10.5602 15.1625C10.5627 14.1948 10.5831 13.2041 10.622 12.1895C11.8414 9.81986 11.7828 6.96246 10.4439 4.64401C9.0437 2.21805 6.43153 0.709435 3.62717 0.707153C3.62675 0.707153 3.62646 0.707153 3.62603 0.707153C3.11632 0.707153 2.6451 0.979334 2.3906 1.42118C0.990772 3.85085 0.991342 6.86722 2.39188 9.29332C3.54405 11.2888 5.5159 12.6626 7.73997 13.0892C7.59939 18.3305 7.94057 23.201 8.75826 27.6366C8.70137 27.6017 8.64434 27.5669 8.58631 27.5334C6.15978 26.1326 3.14327 26.1323 0.714029 27.5321C0.271753 27.7869 -0.000427229 28.2586 5.03396e-07 28.7688C0.0025669 31.5731 1.51104 34.1851 3.937 35.5859C5.15076 36.2864 6.51152 36.6366 7.87313 36.6366C8.95573 36.6366 10.0385 36.4143 11.0476 35.9711C12.4524 39.6923 14.3107 43.0813 16.5967 46.0812C17.4511 47.2023 18.3402 48.2409 19.2531 49.208C16.5235 49.2742 13.9964 50.7676 12.624 53.1401C12.3685 53.5818 12.3685 54.1263 12.624 54.568C14.0282 56.9951 16.6407 58.5031 19.442 58.5031C22.0771 58.5031 24.5449 57.1687 25.9973 54.99C28.5877 56.8116 31.1753 58.2861 33.5643 59.6001C31.1436 61.0162 29.2395 62.3725 28.0942 64.0692C27.6535 64.7218 27.8254 65.608 28.4782 66.0486C28.7228 66.2137 29.0001 66.2928 29.2746 66.2928C29.7324 66.2928 30.1821 66.0727 30.4576 65.6646C31.486 64.1412 33.7517 62.7409 36.5 61.2118C39.2483 62.7411 41.514 64.1412 42.5423 65.6646C42.8178 66.0727 43.2673 66.2928 43.7253 66.2928C43.9997 66.2928 44.2772 66.2137 44.5217 66.0487C45.1743 65.608 45.3464 64.7219 44.9058 64.0692C43.7605 62.3725 41.8564 61.0162 39.4358 59.6001C41.8248 58.286 44.4123 56.8114 47.0027 54.99C48.4553 57.1687 50.923 58.5031 53.5581 58.5031C56.3593 58.5031 58.9719 56.9953 60.3762 54.568C60.6317 54.1263 60.6317 53.5818 60.3762 53.1399C59.0036 50.7673 56.4764 49.2742 53.747 49.208C54.66 48.2409 55.5489 47.2024 56.4034 46.0813C58.6893 43.0815 60.5476 39.6924 61.9524 35.9713C62.9614 36.4143 64.0441 36.6366 65.1269 36.6366C66.4883 36.6366 67.8495 36.2862 69.0629 35.5858C71.489 34.1851 72.9974 31.5729 72.9999 28.7687C73.0004 28.2584 72.7282 27.7869 72.2861 27.5323ZM53.9879 36.0374C55.1132 36.9833 55.7853 38.3928 55.7853 39.8863C55.7853 41.3798 55.1131 42.7893 53.9879 43.7352C52.8625 42.7893 52.1904 41.3797 52.1904 39.8863C52.1904 38.393 52.8626 36.9833 53.9879 36.0374ZM19.0121 36.0374C20.1375 36.9833 20.8096 38.3928 20.8096 39.8863C20.8096 41.3798 20.1374 42.7893 19.0121 43.7352C17.8868 42.7893 17.2147 41.3797 17.2147 39.8863C17.2147 38.393 17.8868 36.9833 19.0121 36.0374ZM12.0028 17.9824C12.7494 16.689 14.0365 15.8044 15.4838 15.5479C15.9855 16.9296 15.8628 18.4864 15.1161 19.7799C14.3694 21.0734 13.0823 21.9579 11.635 22.2144C11.1333 20.8326 11.2559 19.2757 12.0028 17.9824ZM4.86147 7.86754C4.11465 6.57408 3.99217 5.01713 4.49376 3.63541C5.94121 3.89191 7.22826 4.77646 7.97493 6.06992C8.72161 7.36324 8.84437 8.92005 8.34264 10.3019C6.89505 10.0454 5.60815 9.16086 4.86147 7.86754ZM5.36277 33.1163C4.06945 32.3696 3.1849 31.0825 2.9284 29.6351C4.30998 29.1337 5.86693 29.2563 7.16053 30.0029C8.45385 30.7495 9.3384 32.0367 9.5949 33.4842C8.21318 33.9855 6.65638 33.8631 5.36277 33.1163ZM19.4419 55.6516C17.9484 55.6516 16.5389 54.9793 15.593 53.8541C16.5389 52.7287 17.9484 52.0566 19.4419 52.0566C20.9354 52.0566 22.3448 52.7289 23.2908 53.8541C22.3449 54.9793 20.9354 55.6516 19.4419 55.6516ZM65.0251 6.06992C65.7719 4.77646 67.0589 3.89191 68.5064 3.63541C69.008 5.01713 68.8852 6.57394 68.1385 7.86754C67.3919 9.16086 66.1048 10.0454 64.6574 10.3019C64.1559 8.92005 64.2784 7.36339 65.0251 6.06992ZM61.365 22.2144C59.9177 21.9579 58.6306 21.0732 57.8839 19.7799C57.1372 18.4866 57.0145 16.9298 57.5162 15.5479C58.9635 15.8044 60.2507 16.689 60.9974 17.9824C61.7442 19.2757 61.8667 20.8326 61.365 22.2144ZM57.4072 53.8541C56.4611 54.9795 55.0516 55.6516 53.5583 55.6516C52.0649 55.6516 50.6552 54.9793 49.7092 53.8541C50.6552 52.7287 52.0648 52.0566 53.5583 52.0566C55.0516 52.0565 56.4611 52.7287 57.4072 53.8541ZM67.6372 33.1163C66.3439 33.8629 64.7868 33.9859 63.4051 33.484C63.6616 32.0366 64.5462 30.7495 65.8396 30.0029C67.1331 29.2563 68.6897 29.1334 70.0716 29.635C69.8151 31.0824 68.9306 32.3694 67.6372 33.1163Z" fill="black"/>
<path d="M44.9396 28.2048C44.1523 28.2048 43.5144 28.8433 43.5144 29.6306C43.5144 30.4179 44.1533 31.0564 44.9408 31.0564C45.7282 31.0564 46.3665 30.4179 46.3665 29.6306C46.3665 28.8433 45.7281 28.2048 44.9408 28.2048H44.9396Z" fill="black"/>
</svg>
