<svg width="67" height="73" viewBox="0 0 67 73" fill="none" xmlns="http://www.w3.org/2000/svg">
<path fill-rule="evenodd" clip-rule="evenodd" d="M39.7905 48.6947L35.978 41.6827C35.7228 41.2136 35.3321 40.8116 34.8259 40.5407C33.4486 39.8064 31.7377 40.3268 31.0034 41.7041L27.3235 48.612L19.5601 50.0549C18.9998 50.139 18.4608 50.3914 18.0217 50.8134C16.8953 51.897 16.8611 53.6878 17.9447 54.8142L23.3798 60.4531L22.3675 68.1709C22.2463 68.7626 22.3104 69.397 22.5956 69.9816C23.2814 71.3889 24.9781 71.9748 26.3853 71.289L33.4187 67.8657L40.6289 71.3005C41.1108 71.5314 41.6668 71.6227 42.2357 71.5443C43.7841 71.3304 44.8663 69.9003 44.651 68.3534L43.5674 60.5971L48.9455 54.9254C49.3803 54.519 49.6926 53.9729 49.8023 53.3413C50.0718 51.7986 49.0396 50.3301 47.4969 50.0606L39.7905 48.6947Z" fill="#FFA300"/>
<path fill-rule="evenodd" clip-rule="evenodd" d="M21.8442 34.1189V1.42578H4.98438V27.375L21.8442 34.1189Z" fill="#00FFFF"/>
<path fill-rule="evenodd" clip-rule="evenodd" d="M21.8442 1.42578V34.1189L33.5 38.7812L45.1558 34.1189V1.42578H33.5H21.8442Z" fill="white"/>
<path fill-rule="evenodd" clip-rule="evenodd" d="M45.1558 1.42578V34.1189L62.0156 27.375V1.42578H45.1558Z" fill="#00FFFF"/>
<path d="M39.1133 26.6719C38.3945 26.6719 37.7695 25.75 37.2383 23.9062C37.0352 23.2031 36.7812 21.9727 36.4766 20.2148C35.6797 20.3242 34.6367 20.5195 33.3477 20.8008L30.2305 21.4453C29.8398 22.4688 29.1719 23.9648 28.2266 25.9336C27.9766 26.3711 27.6367 26.5898 27.207 26.5898C26.8945 26.5898 26.6133 26.4766 26.3633 26.25C26.1211 26.0234 26 25.7422 26 25.4062C26 25.0312 26.5898 23.6055 27.7695 21.1289C27.6367 20.9258 27.5703 20.6914 27.5703 20.4258C27.5703 19.793 27.9531 19.3867 28.7188 19.207C29.6094 17.5352 30.7344 15.6133 32.0938 13.4414C33.9453 10.4805 35.0977 9 35.5508 9C36.168 9 36.5898 9.42969 36.8164 10.2891L37.5547 14.2266L39.3008 22.3711L39.9688 24.2227C40.1953 24.8555 40.3086 25.2773 40.3086 25.4883C40.3086 25.8242 40.1875 26.1055 39.9453 26.332C39.7031 26.5586 39.4258 26.6719 39.1133 26.6719ZM34.9766 13.2773L31.625 18.6797C32.5703 18.4375 34.0039 18.1445 35.9258 17.8008L34.9766 13.2773Z" fill="black"/>
<path d="M62.0156 0H4.98438C4.19734 0 3.55859 0.63875 3.55859 1.42578V27.375C3.55859 27.9581 3.91361 28.4828 4.45541 28.6996L31.2572 39.42C30.6256 39.8107 30.1052 40.361 29.7459 41.034L26.3882 47.3359L19.3206 48.6491C18.4552 48.7845 17.6653 49.178 17.0322 49.7854C15.3413 51.4122 15.2885 54.1113 16.9167 55.8037L21.877 60.9479L20.9603 67.937C20.7849 68.8467 20.9075 69.7678 21.3138 70.6047C22.051 72.1174 23.5709 73 25.1521 73C25.7765 73 26.4124 72.8617 27.0098 72.5708L33.4259 69.447L40.0158 72.5865C40.7629 72.943 41.5984 73.0713 42.4325 72.9558C44.7565 72.6336 46.3862 70.4821 46.0654 68.1552L45.0759 61.079L49.9535 55.9334C50.6165 55.3018 51.0499 54.4905 51.2082 53.5851C51.6117 51.2711 50.0576 49.0597 47.7478 48.6562L40.7159 47.4101L37.2313 41.0012C36.8777 40.351 36.3644 39.8107 35.7385 39.4229L62.546 28.6996C63.0878 28.4828 63.4428 27.9581 63.4428 27.375V1.42578C63.4414 0.63875 62.8041 0 62.0156 0ZM6.41016 2.85156H20.4185V11.3563C20.4185 12.1434 21.0572 12.7821 21.8442 12.7821C22.6313 12.7821 23.27 12.1434 23.27 11.3563V2.85156H43.73V33.1537L33.5 37.2457L23.27 33.1537V24.1884C23.27 23.4013 22.6313 22.7626 21.8442 22.7626C21.0572 22.7626 20.4185 23.4013 20.4185 24.1884V32.0131L6.41016 26.4097V2.85156ZM38.5387 49.3762C38.7454 49.7569 39.1162 50.0235 39.5425 50.0991L47.2531 51.465C47.6238 51.5292 47.9474 51.7345 48.1642 52.0424C48.3809 52.3504 48.4636 52.724 48.3994 53.0947C48.3467 53.3998 48.1998 53.6707 47.9745 53.8803C47.9531 53.9002 47.9318 53.9202 47.9118 53.9416L42.5337 59.6133C42.2358 59.9284 42.096 60.3619 42.1559 60.791L43.2395 68.5444C43.345 69.3115 42.8075 70.023 42.0404 70.1285C41.7624 70.167 41.4858 70.1256 41.242 70.0101L34.0318 66.5754C33.6397 66.3886 33.1849 66.3901 32.7942 66.5811L25.7594 70.0044C25.0608 70.3452 24.2153 70.0529 23.876 69.3543C23.7391 69.072 23.6992 68.7612 23.7619 68.4546C23.769 68.4204 23.7747 68.3862 23.779 68.352L24.7913 60.6342C24.8484 60.2036 24.7058 59.7716 24.4035 59.4594L18.9684 53.8218C18.4323 53.2643 18.4495 52.3732 19.0069 51.8371C19.2179 51.6347 19.4817 51.5049 19.7683 51.4607C19.784 51.4579 19.8011 51.455 19.8168 51.4522L27.5802 50.0093C28.0065 49.9294 28.3743 49.6614 28.5782 49.2779L32.2581 42.3699C32.4335 42.0406 32.7287 41.7982 33.0865 41.6898C33.222 41.6485 33.3588 41.6285 33.4957 41.6285C33.7224 41.6285 33.9477 41.6841 34.153 41.7939C34.3954 41.9237 34.5921 42.119 34.7233 42.3585L38.5387 49.3762ZM60.5898 26.4097L46.5815 32.0131V2.85156H60.5898V26.4097Z" fill="black"/>
<path d="M21.8442 19.1981C22.6313 19.1981 23.27 18.5593 23.27 17.7723V17.7709C23.27 16.9838 22.6313 16.3451 21.8442 16.3451C21.0572 16.3451 20.4185 16.9838 20.4185 17.7709C20.4185 18.5593 21.0572 19.1981 21.8442 19.1981Z" fill="black"/>
<path d="M10.6791 47.5621C10.3655 47.5621 10.0518 47.4623 9.79516 47.2484L2.66626 41.5453C2.05317 41.0462 1.95337 40.1623 2.43813 39.5349C2.93716 38.9218 3.82114 38.822 4.44848 39.3068L11.5774 45.0099C12.1905 45.5089 12.2903 46.3929 11.8055 47.0203C11.5204 47.3767 11.1069 47.5621 10.6791 47.5621Z" fill="#FFA300"/>
<path d="M10.6791 60.394C10.3655 60.394 10.0518 60.4938 9.79516 60.7077L2.66626 66.4108C2.05317 66.9099 1.95337 67.7938 2.43813 68.4212C2.93716 69.0343 3.82114 69.1341 4.44848 68.6493L11.5774 62.9462C12.1905 62.4472 12.2903 61.5632 11.8055 60.9358C11.5204 60.5794 11.1069 60.394 10.6791 60.394Z" fill="#FFA300"/>
<path d="M11.4348 55.1756C11.1924 55.3609 10.8787 55.475 10.5365 55.475L1.41152 55.3467C0.627344 55.3324 0 54.6908 0 53.9066C0.0142578 53.1225 0.655859 52.4951 1.44004 52.4951L10.565 52.6234C11.3492 52.6377 11.9766 53.2793 11.9766 54.0635C11.9766 54.5197 11.7627 54.9189 11.4348 55.1756Z" fill="#FFA300"/>
<path d="M56.3184 60.394C56.6321 60.394 56.9458 60.4938 57.2024 60.7077L64.3313 66.4108C64.9444 66.9099 65.0442 67.7938 64.5594 68.4212C64.0604 69.0343 63.1764 69.1341 62.5491 68.6493L55.4202 62.9462C54.8071 62.4472 54.7073 61.5632 55.192 60.9358C55.4772 60.5794 55.8907 60.394 56.3184 60.394Z" fill="#FFA300"/>
<path d="M56.3184 47.5621C56.6321 47.5621 56.9458 47.4623 57.2024 47.2484L64.3313 41.5453C64.9444 41.0462 65.0442 40.1623 64.5594 39.5349C64.0604 38.9218 63.1764 38.822 62.5491 39.3068L55.4202 45.0099C54.8071 45.5089 54.7073 46.3929 55.192 47.0203C55.4772 47.3767 55.8907 47.5621 56.3184 47.5621Z" fill="#FFA300"/>
<path d="M55.5628 52.7804C55.8052 52.595 56.1188 52.481 56.461 52.481L65.586 52.6093C66.3702 52.6235 66.9976 53.2651 66.9976 54.0493C66.9833 54.8335 66.3417 55.4608 65.5575 55.4608L56.4325 55.3325C55.6483 55.3183 55.021 54.6767 55.021 53.8925C55.021 53.4362 55.2349 53.037 55.5628 52.7804Z" fill="#FFA300"/>
</svg>
