<svg width="73" height="73" viewBox="0 0 73 73" fill="none" xmlns="http://www.w3.org/2000/svg">
<path fill-rule="evenodd" clip-rule="evenodd" d="M8.55468 43.0588C8.55468 31.2472 18.1298 21.6722 29.9413 21.6722C34.819 21.6722 39.3154 23.3052 42.9134 26.0543L47.9878 20.9799C43.072 16.9573 36.7886 14.5433 29.9412 14.5433C14.1925 14.5433 1.42566 27.3101 1.42566 43.0588C1.42566 58.8075 14.1925 71.5743 29.9412 71.5743C45.6899 71.5743 58.4567 58.8075 58.4567 43.0588C58.4567 36.2114 56.043 29.9278 52.0202 25.012L46.9455 30.0867C49.6946 33.6849 51.3279 38.1811 51.3279 43.0588C51.3279 54.8703 41.7529 64.4454 29.9413 64.4454C18.1298 64.4454 8.55468 54.8703 8.55468 43.0588Z" fill="white"/>
<path fill-rule="evenodd" clip-rule="evenodd" d="M29.9413 21.6722C18.1298 21.6722 8.55469 31.2473 8.55469 43.0588C8.55469 54.8704 18.1298 64.4454 29.9413 64.4454C41.7529 64.4454 51.328 54.8704 51.328 43.0588C51.328 38.1811 49.6946 33.6849 46.9455 30.0868L41.8364 35.1959C43.3295 37.4498 44.1991 40.1528 44.1991 43.0588C44.1991 50.9332 37.8157 57.3166 29.9413 57.3166C22.067 57.3166 15.6836 50.9332 15.6836 43.0588C15.6836 35.1844 22.067 28.8011 29.9413 28.8011C32.8473 28.8011 35.5503 29.6706 37.8043 31.1636L42.9136 26.0543C39.3154 23.3053 34.819 21.6722 29.9413 21.6722Z" fill="#FF008A"/>
<path fill-rule="evenodd" clip-rule="evenodd" d="M29.9414 28.8011C22.0671 28.8011 15.6836 35.1845 15.6836 43.0589C15.6836 50.9334 22.0671 57.3167 29.9414 57.3167C37.8157 57.3167 44.1992 50.9334 44.1992 43.0589C44.1992 40.1529 43.3296 37.4499 41.8367 35.196L37.7697 39.263C38.3269 40.4101 38.6397 41.698 38.6397 43.0589C38.6397 47.8628 34.7454 51.757 29.9416 51.757C25.1377 51.757 21.2434 47.8627 21.2434 43.0589C21.2434 38.255 25.1377 34.3608 29.9416 34.3608C31.3025 34.3608 32.5905 34.6735 33.7375 35.2307L37.8046 31.1636C35.5504 29.6707 32.8474 28.8011 29.9414 28.8011Z" fill="white"/>
<path fill-rule="evenodd" clip-rule="evenodd" d="M29.9414 34.3607C25.1375 34.3607 21.2433 38.255 21.2433 43.0588C21.2433 47.8627 25.1375 51.7569 29.9414 51.7569C34.7453 51.7569 38.6395 47.8625 38.6395 43.0588C38.6395 41.6979 38.3268 40.41 37.7695 39.2629L31.9575 45.075C30.8441 46.1884 29.0386 46.1884 27.9252 45.075C26.8118 43.9614 26.8118 42.1561 27.9252 41.0427L33.7373 35.2307C32.5904 34.6732 31.3023 34.3607 29.9414 34.3607Z" fill="#FF008A"/>
<path fill-rule="evenodd" clip-rule="evenodd" d="M33.7374 35.2306L27.9254 41.0426C26.812 42.1562 26.812 43.9615 27.9254 45.0749C29.0388 46.1883 30.8442 46.1883 31.9576 45.0749L37.7697 39.2628L41.8367 35.1958L46.9459 30.0867L52.0205 25.012L58.6206 18.4119L59.6703 17.3623C60.7837 16.2489 60.7837 14.4434 59.6703 13.33C58.5569 12.2165 56.7514 12.2165 55.638 13.33L54.5884 14.3797L47.9881 20.9799L42.9138 26.0543L37.8045 31.1636L33.7374 35.2306Z" fill="#DDB9A3"/>
<path fill-rule="evenodd" clip-rule="evenodd" d="M59.6701 13.33C60.7835 14.4434 60.7835 16.2489 59.6701 17.3623L58.6204 18.4119L61.9314 19.9566C62.417 20.1839 62.9963 20.0855 63.376 19.7058L71.1998 11.882C71.6992 11.3825 71.6992 10.573 71.1998 10.0735C71.0663 9.94007 70.9106 9.84226 70.7447 9.78024L65.6136 7.38635L63.2197 2.25525C63.1577 2.08929 63.0599 1.93359 62.9264 1.80014C62.427 1.30083 61.6174 1.30083 61.118 1.80014L53.2941 9.62411C52.9254 9.99282 52.8096 10.5691 53.0433 11.0687L54.588 14.3797L55.6377 13.33C56.7512 12.2165 58.5565 12.2165 59.6701 13.33Z" fill="#C1C1C1"/>
<path d="M72.2078 9.06551C71.9478 8.80559 71.6447 8.60513 71.3059 8.46882L66.6864 6.31362L64.5312 1.69396C64.395 1.3552 64.1946 1.05208 63.9346 0.792304C63.4236 0.281448 62.7445 0 62.022 0C61.2997 0 60.6204 0.281306 60.1096 0.792161L52.2859 8.61596C51.4855 9.41639 51.2709 10.645 51.7512 11.6715L52.8738 14.0777L47.8717 19.0797C42.7194 15.2267 36.4008 13.1174 29.9413 13.1174C13.4317 13.1174 0 26.5489 0 43.0587C0 59.5685 13.4315 73 29.9411 73C46.4509 73 59.8824 59.5685 59.8824 43.0587C59.8824 36.5991 57.7731 30.2803 53.9204 25.1282L58.9225 20.1261L61.3269 21.2479C61.6927 21.419 62.0838 21.5021 62.4721 21.5021C63.175 21.5021 63.8683 21.2295 64.384 20.714L72.2077 12.8903C72.7186 12.3794 72.9999 11.7002 72.9999 10.9779C72.9999 10.2555 72.7186 9.57622 72.2078 9.06551ZM58.6618 16.3541L30.9492 44.0666V44.0667C30.68 44.3359 30.322 44.4842 29.9413 44.4842C29.5606 44.4842 29.2025 44.3359 28.9334 44.0667C28.3778 43.511 28.3778 42.6065 28.9334 42.0507L56.6461 14.338C56.9153 14.0688 57.2731 13.9206 57.6539 13.9206C58.0348 13.9206 58.3928 14.0688 58.6618 14.3382C59.2176 14.8939 59.2175 15.7983 58.6618 16.3541ZM42.7733 43.0587C42.7733 50.1343 37.0168 55.8907 29.9413 55.8907C22.8657 55.8907 17.1093 50.1343 17.1093 43.0587C17.1093 35.9832 22.8656 30.2267 29.9411 30.2267C31.8719 30.2267 33.7551 30.657 35.4726 31.4787L33.4052 33.5461C32.2995 33.142 31.1388 32.9347 29.9411 32.9347C24.3589 32.9347 19.8173 37.4764 19.8173 43.0587C19.8173 48.641 24.3589 53.1827 29.9411 53.1827C35.5235 53.1827 40.0652 48.641 40.0652 43.0587C40.0652 41.8611 39.8578 40.7005 39.4538 39.5948L41.5212 37.5274C42.3428 39.2448 42.7733 41.1278 42.7733 43.0587ZM26.9169 46.0831C27.7248 46.8909 28.7988 47.3358 29.9413 47.3358C31.0839 47.3358 32.1579 46.8908 32.9656 46.0831L37.1248 41.9239C37.1828 42.2962 37.2137 42.6746 37.2137 43.0587C37.2137 47.0687 33.9513 50.3312 29.9413 50.3312C25.9313 50.3312 22.669 47.0687 22.669 43.0587C22.669 39.0487 25.9313 35.7863 29.9413 35.7863C30.3255 35.7863 30.7039 35.8172 31.0762 35.8752L26.9169 40.0345C25.2495 41.7019 25.2495 44.4155 26.9169 46.0831ZM57.031 43.0587C57.031 57.9961 44.8787 70.1484 29.9413 70.1484C15.004 70.1484 2.85169 57.9961 2.85169 43.0587C2.85169 28.1213 15.004 15.969 29.9413 15.969C35.6481 15.969 41.2324 17.7893 45.8316 21.12L42.7627 24.1889C38.9764 21.6062 34.5692 20.2463 29.9413 20.2463C26.2444 20.2463 22.5709 21.1527 19.3177 22.8679C18.6212 23.235 18.3542 24.0975 18.7214 24.7941C19.0886 25.4904 19.9506 25.7575 20.6477 25.3904C23.4922 23.8906 26.7059 23.098 29.9413 23.098C33.8074 23.098 37.4975 24.1817 40.7059 26.2457L37.588 29.3636C35.2581 28.06 32.6369 27.3753 29.9413 27.3753C21.2935 27.3753 14.2579 34.4109 14.2579 43.0588C14.2579 51.7067 21.2935 58.7424 29.9413 58.7424C38.5892 58.7424 45.6248 51.7067 45.6248 43.0588C45.6248 40.3631 44.9402 37.7418 43.6366 35.4121L46.7543 32.2944C48.8184 35.5028 49.9021 39.1927 49.9021 43.0587C49.9021 54.0651 40.9476 63.0196 29.9411 63.0196C18.9347 63.0196 9.98029 54.0651 9.98029 43.0587C9.98029 39.8235 10.773 36.6101 12.2724 33.7656C12.6396 33.069 12.3726 32.2066 11.6761 31.8394C10.9793 31.4724 10.117 31.7392 9.74988 32.4357C8.03524 35.6884 7.12888 39.3618 7.12888 43.0587C7.12888 55.6376 17.3624 65.8711 29.9413 65.8711C42.5202 65.8711 52.7537 55.6376 52.7537 43.0587C52.7537 38.4311 51.3937 34.0239 48.811 30.2376L51.8801 27.1684C55.2107 31.7674 57.031 37.3518 57.031 43.0587ZM62.4433 18.6221L61.0342 17.9646C62.3345 16.2883 62.2166 13.8602 60.6782 12.3218C59.8703 11.514 58.7963 11.0692 57.6538 11.0692C56.693 11.0692 55.7812 11.385 55.0349 11.9654L54.3778 10.5567L61.9748 2.95962L64.3213 7.98919C64.4629 8.29288 64.707 8.53697 65.0107 8.67855L70.0402 11.0251L62.4433 18.6221Z" fill="black"/>
<path d="M14.8187 29.3619C15.606 29.3619 16.2445 28.7235 16.2445 27.9362C16.2445 27.1488 15.606 26.5104 14.8187 26.5104H14.8175C14.0302 26.5104 13.3923 27.1488 13.3923 27.9362C13.3923 28.7235 14.0314 29.3619 14.8187 29.3619Z" fill="black"/>
</svg>
