<svg width="67" height="73" viewBox="0 0 67 73" fill="none" xmlns="http://www.w3.org/2000/svg">
<path fill-rule="evenodd" clip-rule="evenodd" d="M26.3711 8.55469H40.6289H61.3027C63.2632 8.55469 64.8672 6.95068 64.8672 4.99023C64.8672 3.02979 63.2632 1.42578 61.3027 1.42578H5.69727C3.73682 1.42578 2.13281 3.02979 2.13281 4.99023C2.13281 6.95068 3.73682 8.55469 5.69727 8.55469H26.3711Z" fill="#EAEAEA"/>
<path fill-rule="evenodd" clip-rule="evenodd" d="M26.3711 23.263V8.55469H5.69727V71.5742L26.3711 62.4578V44.6056C22.9321 42.3029 20.668 38.3835 20.668 33.935C20.668 29.4866 22.9321 25.5657 26.3711 23.263Z" fill="#FF0000"/>
<path fill-rule="evenodd" clip-rule="evenodd" d="M26.3711 8.55469V23.263C28.41 21.8986 30.8623 21.1016 33.5 21.1016C36.1377 21.1016 38.59 21.8972 40.6289 23.263V8.55469H26.3711Z" fill="white"/>
<path fill-rule="evenodd" clip-rule="evenodd" d="M33.5 21.1016C30.8623 21.1016 28.41 21.8971 26.3711 23.263C22.9321 25.5657 20.668 29.4852 20.668 33.9336C20.668 38.382 22.9321 42.3029 26.3711 44.6041C28.41 45.9686 30.8623 46.7656 33.5 46.7656C36.1377 46.7656 38.59 45.97 40.6289 44.6041C44.0679 42.3015 46.332 38.382 46.332 33.9336C46.332 29.4852 44.0679 25.5643 40.6289 23.263C38.59 21.8986 36.1377 21.1016 33.5 21.1016ZM32.3893 27.0827C32.7158 26.4696 33.4786 26.2372 34.0917 26.5652C34.317 26.6849 34.4909 26.8646 34.605 27.0742L36.3017 30.1966L39.7335 30.804C40.4207 30.9238 40.8798 31.5782 40.7601 32.264C40.7116 32.5449 40.5719 32.7887 40.378 32.9698L37.9841 35.4948L38.466 38.9481C38.5615 39.6367 38.0796 40.274 37.391 40.3696C37.1372 40.4052 36.8905 40.3639 36.6752 40.2612L33.4644 38.7313L30.3333 40.2555C29.706 40.5606 28.9518 40.2997 28.6452 39.6738C28.5183 39.4129 28.4898 39.1306 28.544 38.8668L28.9945 35.4307L26.5736 32.9199C26.0916 32.418 26.1073 31.621 26.6078 31.1391C26.8031 30.9509 27.0441 30.8382 27.2921 30.8012L30.7482 30.1581L32.3893 27.0827Z" fill="#C1C1C1"/>
<path fill-rule="evenodd" clip-rule="evenodd" d="M32.3894 27.0827L30.7511 30.1581L27.2951 30.8011C27.0455 30.8382 26.806 30.9509 26.6107 31.1391C26.1088 31.621 26.0931 32.4194 26.5765 32.9199L28.9974 35.4307L28.5469 38.8668C28.4927 39.1306 28.5212 39.4129 28.6481 39.6738C28.9532 40.2997 29.7089 40.5606 30.3362 40.2555L33.4673 38.7313L36.6781 40.2612C36.8934 40.3639 37.1401 40.4052 37.3939 40.3696C38.0825 40.274 38.5644 39.6381 38.4689 38.9481L37.987 35.4948L40.3809 32.9698C40.5748 32.7887 40.7131 32.5463 40.763 32.264C40.8827 31.5768 40.4236 30.9238 39.7364 30.804L36.3046 30.1966L34.6079 27.0742C34.4938 26.866 34.3199 26.6863 34.0946 26.5652C33.4772 26.2386 32.7159 26.4696 32.3894 27.0827Z" fill="#EAEAEA"/>
<path fill-rule="evenodd" clip-rule="evenodd" d="M40.6289 44.6056C38.59 45.9701 36.1377 46.7671 33.5 46.7671C30.8623 46.7671 28.41 45.9715 26.3711 44.6056V62.4578L33.5 59.3139L40.6289 62.4578V44.6056Z" fill="white"/>
<path fill-rule="evenodd" clip-rule="evenodd" d="M40.6289 44.6056V62.4578L61.3027 71.5742V8.55469H40.6289V23.263C44.0679 25.5657 46.332 29.4852 46.332 33.9336C46.332 38.382 44.0679 42.3029 40.6289 44.6056Z" fill="#FF0000"/>
<path d="M66.293 4.99023C66.293 2.23848 64.0545 0 61.3027 0H5.69727C2.94551 0 0.707031 2.23848 0.707031 4.99023C0.707031 7.24582 2.21266 9.15637 4.27148 9.7723V33.6499C4.27148 34.4369 4.91023 35.0756 5.69727 35.0756C6.4843 35.0756 7.12305 34.4369 7.12305 33.6499V9.98047H24.9453V22.5345C21.4849 25.1379 19.2422 29.2784 19.2422 33.9336C19.2422 38.5888 21.4849 42.7292 24.9453 45.3327V61.5282L7.12305 69.3871V46.4819C7.12305 45.6949 6.4843 45.0561 5.69727 45.0561C4.91023 45.0561 4.27148 45.6949 4.27148 46.4819V71.5756C4.27148 72.0576 4.51529 72.5067 4.91879 72.7705C5.32229 73.0342 5.83129 73.0756 6.27328 72.8802L33.5 60.8723L60.7267 72.8788C60.9106 72.9601 61.1074 73 61.3013 73C61.5736 73 61.8445 72.9216 62.0798 72.769C62.4833 72.5053 62.7271 72.0561 62.7271 71.5742V9.7723C64.7873 9.15637 66.293 7.24582 66.293 4.99023ZM27.7969 9.98047H39.2031V20.8677C37.4551 20.1021 35.526 19.6758 33.5 19.6758C31.474 19.6758 29.5449 20.1021 27.7969 20.8677V9.98047ZM22.0938 33.9336C22.0938 27.6445 27.2109 22.5273 33.5 22.5273C39.7891 22.5273 44.9062 27.6445 44.9062 33.9336C44.9062 40.2227 39.7891 45.3398 33.5 45.3398C27.2109 45.3398 22.0938 40.2227 22.0938 33.9336ZM32.9254 58.0093L27.7969 60.2706V47.0009C29.5449 47.7665 31.474 48.1928 33.5 48.1928C35.5275 48.1928 37.4551 47.7665 39.2031 47.0009V60.2721L34.0746 58.0108C33.7096 57.8468 33.2918 57.8468 32.9254 58.0093ZM42.0547 61.5282V45.3327C45.5151 42.7292 47.7578 38.5888 47.7578 33.9336C47.7578 29.2784 45.5151 25.1379 42.0547 22.5345V9.98047H59.877V69.3871L42.0547 61.5282ZM61.3027 7.12891H5.69727C4.51814 7.12891 3.55859 6.16936 3.55859 4.99023C3.55859 3.81111 4.51814 2.85156 5.69727 2.85156H61.3027C62.4819 2.85156 63.4414 3.81111 63.4414 4.99023C63.4414 6.16936 62.4819 7.12891 61.3027 7.12891Z" fill="black"/>
<path d="M27.4918 35.9254L27.1353 38.6387C27.0341 39.1976 27.1139 39.785 27.3634 40.2969C27.6771 40.9428 28.2246 41.4261 28.9033 41.6614C29.1913 41.7597 29.4864 41.8096 29.7816 41.8096C30.1836 41.8096 30.5843 41.7184 30.9564 41.5373L33.4701 40.314L36.0593 41.5473C36.5326 41.7726 37.0602 41.8538 37.5834 41.7811C39.0506 41.5787 40.0786 40.2199 39.8761 38.7499L39.4883 35.9768L41.386 33.975C41.7966 33.5786 42.0632 33.071 42.1616 32.5078C42.4168 31.0478 41.4359 29.652 39.9802 29.3982L37.2241 28.9106L35.8554 26.3912C35.6045 25.9293 35.2252 25.5543 34.7604 25.3062C33.4544 24.6104 31.8261 25.1052 31.1289 26.4126L29.8129 28.8821L27.0512 29.3954C26.5094 29.4823 26.0147 29.729 25.6183 30.1111C25.1007 30.6087 24.8084 31.2774 24.7956 31.9946C24.7828 32.7117 25.048 33.3918 25.547 33.9094L27.4918 35.9254ZM31.0106 31.5597C31.4369 31.4799 31.8047 31.2118 32.0086 30.8283L33.5 28.028L35.0484 30.8767C35.2551 31.2574 35.6258 31.5241 36.0522 31.5996L39.1846 32.1542L36.9475 34.5125C36.6496 34.8276 36.5098 35.261 36.5697 35.6902L37.0103 38.8397L34.0774 37.4425C33.8835 37.3498 33.6739 37.3042 33.4644 37.3042C33.2505 37.3042 33.0381 37.3526 32.8399 37.4482L29.9855 38.8383L30.4075 35.616C30.4645 35.1855 30.3219 34.7534 30.0197 34.4412L27.8154 32.1542L31.0106 31.5597Z" fill="black"/>
<path d="M5.69727 41.4917C6.4843 41.4917 7.12305 40.8529 7.12305 40.0659V40.0645C7.12305 39.2774 6.4843 38.6387 5.69727 38.6387C4.91023 38.6387 4.27148 39.2774 4.27148 40.0645C4.27148 40.8515 4.91023 41.4917 5.69727 41.4917Z" fill="black"/>
</svg>
