<svg width="60" height="73" viewBox="0 0 60 73" fill="none" xmlns="http://www.w3.org/2000/svg">
<path d="M30.0412 73C39.9156 73 47.9205 64.9952 47.9205 55.1208C47.9205 45.2463 39.9156 37.2415 30.0412 37.2415C20.1667 37.2415 12.1619 45.2463 12.1619 55.1208C12.1619 64.9952 20.1667 73 30.0412 73Z" fill="black"/>
<path d="M30.0412 69.8918C38.1991 69.8918 44.8123 63.2786 44.8123 55.1207C44.8123 46.9629 38.1991 40.3496 30.0412 40.3496C21.8834 40.3496 15.2701 46.9629 15.2701 55.1207C15.2701 63.2786 21.8834 69.8918 30.0412 69.8918Z" fill="#C1C1C1"/>
<path fill-rule="evenodd" clip-rule="evenodd" d="M18.2928 34.1189V1.42578H1.42578V27.375L18.2928 34.1189Z" fill="#0030B5"/>
<path fill-rule="evenodd" clip-rule="evenodd" d="M18.2927 1.42578V34.1189L29.9414 38.7812L41.6042 34.1189V1.42578H29.9414H18.2927Z" fill="white"/>
<path fill-rule="evenodd" clip-rule="evenodd" d="M41.6042 1.42578V34.1189L58.457 27.375V1.42578H41.6042Z" fill="#0030B5"/>
<path d="M32.1799 39.4229L58.9846 28.701C59.5264 28.4871 59.8828 27.9596 59.8828 27.375V1.42578C59.8828 0.641602 59.2412 0 58.457 0H1.42578C0.641602 0 0 0.641602 0 1.42578V27.375C0 27.9596 0.356445 28.4871 0.898242 28.701L27.7029 39.4229H32.1799ZM2.85156 2.85156H16.867V11.3635C16.867 12.1477 17.5086 12.7893 18.2928 12.7893C19.077 12.7893 19.7186 12.1477 19.7186 11.3635V2.85156H40.1785V33.1494L29.9414 37.2414L19.7043 33.1494V24.1813C19.7043 23.3971 19.0627 22.7555 18.2785 22.7555C17.4943 22.7555 16.8527 23.3971 16.8527 24.1813V32.0088L2.85156 26.4055V2.85156ZM57.0312 26.4055L43.0158 32.0088V2.85156H57.0312V26.4055Z" fill="black"/>
<path d="M18.2927 19.1909C19.0769 19.1909 19.7185 18.5493 19.7185 17.7651C19.7185 16.981 19.0769 16.3394 18.2927 16.3394C17.5085 16.3394 16.8669 16.981 16.8669 17.7651C16.8669 18.5636 17.4943 19.1909 18.2927 19.1909Z" fill="black"/>
<path d="M36.2031 27.0156C36.2031 27.3359 36.082 27.6055 35.8398 27.8242C35.6055 28.0352 35.3281 28.1406 35.0078 28.1406C34.4688 28.1406 34.0938 27.8242 33.8828 27.1914C33.5156 26.0898 32.7109 24.6328 31.4688 22.8203C29.9375 20.6016 28.6836 19.4922 27.707 19.4922C27.3945 19.4922 26.957 19.4883 26.3945 19.4805C26.3945 20.2461 26.3906 20.9961 26.3828 21.7305C26.375 22.7305 26.3711 23.4766 26.3711 23.9688C26.3711 25.8281 26.3477 26.8828 26.3008 27.1328C26.1758 27.8359 25.793 28.1875 25.1523 28.1875C24.3711 28.1875 23.9805 27.8086 23.9805 27.0508C23.9805 26.4727 24.0039 25.5977 24.0508 24.4258C24.0977 23.2461 24.1211 22.3633 24.1211 21.7773C24.1211 20.668 24.082 19.0078 24.0039 16.7969C23.9258 14.5859 23.8867 12.9297 23.8867 11.8281C23.8867 10.5938 24.2891 9.97656 25.0938 9.97656C25.4297 9.97656 25.707 10.0859 25.9258 10.3047C26.1445 10.5234 26.2539 10.8008 26.2539 11.1367C26.2539 11.7695 26.2969 13.7617 26.3828 17.1133C28.3984 17.1133 30.0898 15.7734 31.457 13.0938C32.3789 11.2812 33.3125 10.375 34.2578 10.375C34.5859 10.375 34.9062 10.4375 35.2188 10.5625C35.6172 10.7266 35.8164 10.9492 35.8164 11.2305C35.8164 11.8398 35.6094 12.1445 35.1953 12.1445C34.3672 12.1445 33.5742 13.0703 32.8164 14.9219C32.1211 16.6172 31.0977 17.6719 29.7461 18.0859C30.8633 18.5 32.2188 19.8242 33.8125 22.0586C35.4062 24.2852 36.2031 25.9375 36.2031 27.0156Z" fill="black"/>
</svg>
