<svg width="45" height="73" viewBox="0 0 45 73" fill="none" xmlns="http://www.w3.org/2000/svg">
<path fill-rule="evenodd" clip-rule="evenodd" d="M31.8779 40.6569C31.0966 41.6119 29.9128 42.0479 28.7705 41.9196L26.2135 41.7342L24.1399 42.845C23.0705 43.4152 21.8355 43.3737 20.8411 42.839L18.5307 41.6809L16.1711 41.9157C14.9853 42.0321 13.8804 41.5428 13.1642 40.6984L11.4379 38.7017L9.62671 38.1552V71.5734L22.4984 65.1376L35.3701 71.5734V38.1552L33.3853 38.8142L31.8779 40.6569Z" fill="#CA006D"/>
<path d="M32.1609 32.012C37.5003 26.6725 37.5003 18.0155 32.1609 12.676C26.8214 7.33656 18.1644 7.33656 12.8249 12.676C7.48548 18.0155 7.48548 26.6725 12.8249 32.012C18.1644 37.3514 26.8214 37.3514 32.1609 32.012Z" fill="#C7D9DA"/>
<path fill-rule="evenodd" clip-rule="evenodd" d="M36.1751 22.3419C36.1751 29.8944 30.053 36.0165 22.5004 36.0165C14.9479 36.0165 8.82575 29.8944 8.82575 22.3419C8.82575 14.7893 14.9479 8.6672 22.5004 8.6672C30.053 8.66523 36.1751 14.7893 36.1751 22.3419ZM41.8395 26.3056L42.9976 23.9952C43.5303 23.0008 43.5737 21.7677 43.0036 20.6964L41.8928 18.6228L42.0782 16.0659C42.2065 14.9235 41.7704 13.7417 40.8155 12.9584L38.9728 11.4511L38.2349 9.22556C37.9587 8.04375 37.0787 7.0395 35.8338 6.66266L35.3721 6.52258L33.5609 5.97607L31.8346 3.97942C31.1184 3.13499 30.0115 2.64569 28.8277 2.7621L26.4661 2.99688L24.1558 1.83875C23.1614 1.30604 21.9283 1.26264 20.8569 1.83283L18.7833 2.94361L16.2264 2.75815C15.084 2.62991 13.9022 3.06594 13.1189 4.02085L11.6116 5.86361L9.62678 6.52258L9.38608 6.60348C8.20427 6.87969 7.20003 7.75964 6.82319 9.00458L6.13659 11.2774L4.13995 13.0038C3.29551 13.72 2.80621 14.8268 2.92262 16.0106L3.1574 18.3703L1.99927 20.6806C1.46657 21.675 1.42316 22.9081 1.99335 23.9794L3.10413 26.053L2.91867 28.61C2.79043 29.7524 3.22646 30.9342 4.18138 31.7174L6.02413 33.2248L6.76203 35.4503C7.03824 36.6321 7.91819 37.6364 9.16313 38.0132L9.62481 38.1533L11.436 38.6998L13.1623 40.6964C13.8785 41.5409 14.9854 42.0302 16.1692 41.9138L18.5288 41.679L20.8392 42.8371C21.8336 43.3698 23.0667 43.4132 24.138 42.843L26.2116 41.7323L28.7686 41.9177C29.9109 42.046 31.0927 41.6099 31.876 40.655L33.3833 38.8122L35.3681 38.1533L35.6089 38.0724C36.7907 37.7962 37.7949 36.9162 38.1717 35.6713L38.8583 33.3964L40.855 31.6701C41.6994 30.9539 42.1887 29.8471 42.0723 28.6633L41.8395 26.3056Z" fill="#FFC144"/>
<path fill-rule="evenodd" clip-rule="evenodd" d="M23.1594 64.5635L35.1649 70.8632L34.7545 38.4256L30.0569 41.5962L24.7239 41.831L22.824 43.2357L23.1594 64.5635Z" fill="#FF008A"/>
<path d="M22.4984 7.24084C14.1704 7.24084 7.39722 14.016 7.39722 22.342C7.39722 28.032 10.5441 33.1815 15.6087 35.7838C16.3091 36.1429 17.1694 35.8667 17.5284 35.1663C17.8875 34.4659 17.6113 33.6057 16.9109 33.2466C12.8012 31.1355 10.2482 26.9587 10.2482 22.342C10.2482 15.5865 15.7429 10.0918 22.4984 10.0918C29.2538 10.0918 34.7485 15.5865 34.7485 22.342C34.7485 26.9587 32.1955 31.1355 28.0858 33.2466C27.3854 33.6057 27.1092 34.4659 27.4683 35.1663C27.7208 35.6576 28.22 35.9417 28.7369 35.9417C28.9559 35.9417 29.1788 35.8904 29.388 35.7838C34.4526 33.1835 37.5995 28.032 37.5995 22.342C37.6015 14.0141 30.8263 7.24084 22.4984 7.24084Z" fill="black"/>
<path d="M44.2603 20.0237L43.3448 18.3151L43.4987 16.1981C43.6763 14.5368 43.0114 12.917 41.7191 11.8595L40.198 10.6126L39.608 8.83691C39.1898 7.15396 37.9073 5.80445 36.2461 5.30134L34.3678 4.73313L32.9197 3.05807C31.874 1.82891 30.2917 1.18769 28.6837 1.34553L26.7344 1.53888L24.8107 0.5741C23.3606 -0.19536 21.6343 -0.19536 20.1841 0.578046L18.4755 1.49351L16.3585 1.33961C14.6973 1.16402 13.0775 1.82694 12.02 3.11923L10.773 4.6404L8.99737 5.23032C7.31442 5.64859 5.96491 6.93102 5.4618 8.59226L4.89359 10.4705L3.21853 11.9187C1.98937 12.9644 1.34816 14.5467 1.50599 16.1547L1.69934 18.104L0.734562 20.0276C-0.0348978 21.4777 -0.0348985 23.2041 0.738507 24.6542L1.65397 26.3628L1.50007 28.4798C1.32448 30.1411 1.9874 31.7609 3.2797 32.8184L4.80086 34.0653L5.39078 35.841C5.76169 37.3326 6.81132 38.5617 8.20029 39.1714V71.5696C8.20029 72.0628 8.45678 72.5225 8.87702 72.7829C9.29726 73.0434 9.82207 73.067 10.264 72.8461L22.4984 66.7299L34.7328 72.8461C34.9341 72.9467 35.1531 72.996 35.3701 72.996C35.6305 72.996 35.891 72.925 36.1198 72.7829C36.5401 72.5225 36.7966 72.0648 36.7966 71.5696V39.1753C38.1027 38.6012 39.1187 37.4786 39.539 36.0876L40.1072 34.2093L41.7822 32.7612C43.0114 31.7155 43.6526 30.1332 43.4948 28.5252L43.3014 26.5759L44.2662 24.6523C45.0337 23.2021 45.0337 21.4738 44.2603 20.0237ZM11.0532 40.436L12.0792 41.6238C13.1248 42.8529 14.7072 43.4942 16.3151 43.3363L18.2644 43.143L20.1881 44.1077C20.4742 44.2597 20.7701 44.38 21.072 44.4727V64.2597L11.0532 69.2691V40.436ZM23.9249 64.2577V44.4708C24.2307 44.378 24.5286 44.2557 24.8167 44.1038L26.5253 43.1883L28.6423 43.3422C30.3035 43.5198 31.9233 42.8549 32.9808 41.5626L33.9436 40.3867V69.271L23.9249 64.2577ZM41.7408 23.3225C41.7349 23.3343 41.729 23.3462 41.7231 23.358L40.5649 25.6683C40.4446 25.909 40.3933 26.1813 40.4209 26.4496L40.6557 28.8093C40.7228 29.4841 40.4525 30.1509 39.9257 30.5988L37.929 32.3252C37.7258 32.5027 37.5759 32.7336 37.497 32.992L36.8104 35.2669C36.5953 35.9771 36.0133 36.5236 35.2892 36.6913C35.2478 36.7012 35.2044 36.713 35.1629 36.7269L32.9374 37.4647C32.6809 37.5496 32.454 37.7055 32.2844 37.9146L30.775 39.7573C30.3272 40.3058 29.6366 40.586 28.9323 40.5071C28.9126 40.5051 28.8948 40.5031 28.8751 40.5012L26.3181 40.3157C26.0478 40.296 25.7795 40.3532 25.5427 40.4814L23.4731 41.5902C22.8614 41.9158 22.1314 41.9138 21.5198 41.5863C21.508 41.5804 21.4962 41.5745 21.4843 41.5685L19.174 40.4104C18.9747 40.3098 18.7557 40.2585 18.5347 40.2585C18.4874 40.2585 18.44 40.2605 18.3927 40.2664L16.035 40.5012C15.3602 40.5682 14.6933 40.2979 14.2455 39.7712L12.5191 37.7745C12.3416 37.5713 12.1107 37.4213 11.8523 37.3424L9.57742 36.6558C8.86715 36.4408 8.32064 35.8587 8.15294 35.1347C8.14307 35.0932 8.13124 35.0498 8.11742 35.0084L7.37953 32.7829C7.2947 32.5264 7.13883 32.2995 6.9297 32.1298L5.08694 30.6205C4.53845 30.1726 4.25829 29.4821 4.33721 28.7777C4.33918 28.758 4.34116 28.7403 4.34313 28.7205L4.52859 26.1636C4.54832 25.8952 4.4911 25.6249 4.36286 25.3882L3.25405 23.3185C2.92851 22.7069 2.93048 21.9769 3.25799 21.3653C3.26391 21.3535 3.26983 21.3416 3.27575 21.3298L4.43388 19.0194C4.55424 18.7787 4.60553 18.5065 4.57791 18.2381L4.34313 15.8804C4.27605 15.2057 4.54634 14.5388 5.07313 14.0909L7.06978 12.3646C7.27299 12.187 7.42294 11.9562 7.50186 11.6977L8.18845 9.42288C8.40351 8.71261 8.98553 8.1661 9.70961 7.9984C9.75105 7.98853 9.79445 7.97669 9.83588 7.96288L12.0614 7.22499C12.3179 7.14015 12.5448 6.98429 12.7145 6.77515L14.2238 4.9324C14.6716 4.38391 15.3622 4.10375 16.0665 4.18267C16.0863 4.18464 16.104 4.18661 16.1237 4.18859L18.6807 4.37405C18.951 4.39378 19.2193 4.33656 19.4581 4.20832L21.5277 3.09951C22.1393 2.77396 22.8693 2.77594 23.481 3.10345C23.4928 3.10937 23.5046 3.11529 23.5165 3.12121L25.8268 4.27934C26.0675 4.39969 26.3398 4.45099 26.6081 4.42337L28.9678 4.18859C29.6445 4.1215 30.3094 4.3918 30.7573 4.91859L32.4836 6.91523C32.6612 7.11845 32.892 7.2684 33.1505 7.34732L35.4253 8.03391C36.1356 8.24896 36.6821 8.83099 36.8498 9.55507C36.8597 9.59651 36.8715 9.63991 36.8853 9.68134L37.6232 11.9069C37.7081 12.1633 37.8639 12.3902 38.0731 12.5599L39.9158 14.0692C40.4643 14.5171 40.7445 15.2076 40.6656 15.914C40.6636 15.9317 40.6616 15.9515 40.6596 15.9712L40.4742 18.5282C40.4544 18.7965 40.5117 19.0668 40.6399 19.3035L41.7487 21.3732C42.0723 21.9809 42.0703 22.7109 41.7408 23.3225Z" fill="black"/>
<path d="M24.0808 26.6193H23.9269V16.6381C23.9269 16.129 23.6547 15.6575 23.2147 15.403C22.7727 15.1485 22.2302 15.1485 21.7882 15.403L20.2079 16.3165C19.5252 16.7111 19.2924 17.5831 19.687 18.2638C19.979 18.7689 20.5314 19.0273 21.076 18.9681V26.6174H20.9201C20.1329 26.6174 19.4937 27.2566 19.4937 28.0438C19.4937 28.831 20.1329 29.4703 20.9201 29.4703H24.0808C24.868 29.4703 25.5073 28.831 25.5073 28.0438C25.5073 27.2566 24.868 26.6193 24.0808 26.6193Z" fill="black"/>
<path d="M22.4985 34.5921C21.7093 34.5921 21.072 35.2313 21.072 36.0186C21.072 36.8058 21.7113 37.445 22.4985 37.445C23.2857 37.445 23.9249 36.8058 23.9249 36.0186C23.9249 35.2313 23.2877 34.5921 22.4985 34.5921Z" fill="black"/>
</svg>
