<svg width="63" height="73" viewBox="0 0 63 73" fill="none" xmlns="http://www.w3.org/2000/svg">
<path fill-rule="evenodd" clip-rule="evenodd" d="M38.4921 29.3555C39.7311 29.1844 40.5965 28.0409 40.4254 26.8019L39.5585 20.5955L43.8616 16.0558C44.2094 15.7307 44.459 15.2944 44.5474 14.7883C44.7626 13.5535 43.9371 12.3787 42.7024 12.1634L36.5345 11.0713L33.4833 5.45939C33.2794 5.08441 32.9672 4.76218 32.5608 4.54546C31.4587 3.95804 30.0885 4.37437 29.5011 5.4765L26.5554 11.0043L20.3419 12.1591C19.8942 12.2261 19.4622 12.4286 19.1114 12.7665C18.2103 13.6334 18.1832 15.0663 19.0501 15.9674L23.4002 20.48L22.5903 26.6551C22.4934 27.1284 22.5447 27.636 22.7728 28.1051C23.3217 29.2314 24.6791 29.7005 25.8055 29.1516L31.4344 26.4112L37.2046 29.1601C37.5924 29.3441 38.0358 29.4182 38.4921 29.3555Z" fill="#FFA300"/>
<path fill-rule="evenodd" clip-rule="evenodd" d="M38.6289 37.3555H24.3711C22.8027 37.3555 21.5195 38.6387 21.5195 40.207V43.0586V71.5742H41.4805V48.7617V40.207C41.4805 38.6387 40.1973 37.3555 38.6289 37.3555Z" fill="#B278D3"/>
<path fill-rule="evenodd" clip-rule="evenodd" d="M21.5195 71.5743V43.0587H4.41016C2.8418 43.0587 1.55859 44.3419 1.55859 45.9103V71.5743H21.5195Z" fill="#D1AEE5"/>
<path fill-rule="evenodd" clip-rule="evenodd" d="M41.4805 48.7618V71.5743H61.4414V51.6134C61.4414 50.045 60.1582 48.7618 58.5898 48.7618H41.4805Z" fill="#D1AEE5"/>
<path d="M58.5898 47.3359H42.9062V40.207C42.9062 37.8488 40.9871 35.9297 38.6289 35.9297H24.3711C22.0129 35.9297 20.0938 37.8488 20.0938 40.207V41.6328H4.41016C2.05191 41.6328 0.132812 43.5519 0.132812 45.9102V71.5742C0.132812 72.3613 0.771563 73 1.55859 73H61.4414C62.2284 73 62.8672 72.3613 62.8672 71.5742V51.6133C62.8672 49.255 60.9481 47.3359 58.5898 47.3359ZM40.0547 70.1484H22.9453V66.584C22.9453 65.797 22.3066 65.1582 21.5195 65.1582C20.7325 65.1582 20.0938 65.797 20.0938 66.584V70.1484H2.98438V45.9102C2.98438 45.1246 3.62455 44.4844 4.41016 44.4844H20.0938V53.752C20.0938 54.539 20.7325 55.1777 21.5195 55.1777C22.3066 55.1777 22.9453 54.539 22.9453 53.752V40.207C22.9453 39.4214 23.5855 38.7813 24.3711 38.7813H38.6289C39.4145 38.7813 40.0547 39.4214 40.0547 40.207V70.1484ZM60.0156 70.1484H42.9062V50.1875H58.5898C59.3755 50.1875 60.0156 50.8277 60.0156 51.6133V70.1484Z" fill="black"/>
<path d="M21.8988 20.9748L21.1845 26.4241C21.0348 27.2111 21.1417 28.0067 21.4925 28.7282C22.1312 30.0399 23.4501 30.8055 24.8202 30.8055C25.362 30.8055 25.9124 30.6858 26.4314 30.4334L31.443 27.9939L36.5929 30.4477C37.2416 30.7571 37.9659 30.8683 38.6888 30.7685C39.6655 30.633 40.5309 30.1269 41.1255 29.3398C41.72 28.5542 41.9738 27.5833 41.8384 26.6052L41.0656 21.0789L44.8696 17.0653C45.4413 16.5178 45.8149 15.8163 45.9517 15.0335C46.1214 14.0612 45.9018 13.0817 45.3358 12.2747C44.7698 11.4677 43.92 10.9287 42.9519 10.7605L37.4598 9.7881L34.7365 4.77648C34.7365 4.77648 34.7365 4.77648 34.7365 4.77505C34.3915 4.14058 33.8711 3.62587 33.2338 3.28511C32.3655 2.82173 31.3674 2.72478 30.425 3.01136C29.4825 3.29794 28.7083 3.93527 28.245 4.80357L25.6229 9.72536L20.1066 10.7505C19.3581 10.8688 18.6737 11.2082 18.1262 11.7357C17.4162 12.4187 17.0141 13.3383 16.9955 14.3235C16.977 15.3087 17.342 16.2426 18.0264 16.9541L21.8988 20.9748ZM20.1009 13.7931C20.2606 13.6406 20.436 13.5864 20.5557 13.5678C20.5714 13.565 20.5885 13.5621 20.6042 13.5593L26.8178 12.4044C27.2441 12.3246 27.6119 12.0565 27.8158 11.673L30.76 6.14523C30.8655 5.94847 31.0409 5.80447 31.2534 5.73888C31.3332 5.71464 31.4159 5.70181 31.4972 5.70181C31.6326 5.70181 31.7666 5.7346 31.8893 5.80019C32.0347 5.87718 32.1516 5.99409 32.23 6.13667L35.2798 11.7471C35.4865 12.1278 35.8558 12.3944 36.2835 12.47L42.4557 13.5636C42.6767 13.6021 42.8706 13.7247 43.0004 13.9086C43.1301 14.0925 43.18 14.3164 43.1415 14.5388C43.1016 14.7684 42.9804 14.9209 42.8877 15.0093C42.8663 15.0293 42.8464 15.0492 42.8264 15.0706L38.5234 19.6103C38.2254 19.9254 38.0857 20.3588 38.1456 20.788L39.0125 26.993C39.0424 27.2154 38.9854 27.4364 38.8499 27.6146C38.7145 27.7929 38.5177 27.9084 38.2953 27.9397C38.1285 27.9625 37.9631 27.9383 37.8177 27.8699L32.0475 25.121C31.6554 24.9342 31.2006 24.937 30.8099 25.1267L25.181 27.867C24.7632 28.0709 24.257 27.8969 24.0546 27.4778C23.9505 27.2653 23.9605 27.0686 23.9862 26.9402C23.9933 26.906 23.999 26.8718 24.0033 26.8376L24.8131 20.6625C24.8701 20.2319 24.7276 19.7999 24.4253 19.4877L20.0767 14.9765C19.9212 14.8154 19.8386 14.603 19.8428 14.3791C19.8485 14.1567 19.9398 13.9485 20.1009 13.7931Z" fill="black"/>
<path d="M9.18655 2.66054L14.8141 5.90989C15.038 6.03964 15.2832 6.10095 15.5256 6.10095C16.0189 6.10095 16.498 5.84573 16.7617 5.38806C17.1552 4.70653 16.9214 3.83396 16.2399 3.44044L10.6123 0.191085C9.93081 -0.202431 9.05823 0.031397 8.66472 0.71292C8.2712 1.39444 8.50503 2.26702 9.18655 2.66054Z" fill="black"/>
<path d="M5.07168 19.7543C5.14011 19.7543 5.20855 19.7486 5.27841 19.74L11.7087 18.8047C12.4872 18.6921 13.0275 17.9678 12.9149 17.1879C12.8008 16.4094 12.078 15.869 11.2981 15.9816L4.86779 16.917C4.08931 17.0296 3.54894 17.7539 3.66158 18.5338C3.76709 19.2424 4.37589 19.7543 5.07168 19.7543Z" fill="black"/>
<path d="M14.8683 28.4301L10.273 33.0254C9.71694 33.5815 9.71694 34.4854 10.273 35.0415C10.551 35.3195 10.916 35.4592 11.281 35.4592C11.646 35.4592 12.011 35.3195 12.2891 35.0415L16.8843 30.4462C17.4404 29.8901 17.4404 28.9862 16.8843 28.4301C16.3283 27.8741 15.4258 27.8727 14.8683 28.4301Z" fill="black"/>
<path d="M47.4745 6.10095C47.7169 6.10095 47.9621 6.03964 48.1859 5.90989L53.8135 2.66054C54.495 2.26702 54.7289 1.39444 54.3353 0.71292C53.9418 0.031397 53.0692 -0.202431 52.3877 0.191085L46.7602 3.44044C46.0786 3.83396 45.8448 4.70653 46.2383 5.38806C46.5021 5.84573 46.9812 6.10095 47.4745 6.10095Z" fill="black"/>
<path d="M50.0836 17.1864C49.971 17.9649 50.5099 18.6892 51.2898 18.8032L57.7201 19.7385C57.7899 19.7485 57.8584 19.7528 57.9268 19.7528C58.6226 19.7528 59.2328 19.2424 59.3355 18.5323C59.4481 17.7539 58.9092 17.0296 58.1293 16.9155L51.699 15.9802C50.922 15.8675 50.1977 16.4079 50.0836 17.1864Z" fill="black"/>
<path d="M46.1143 28.4301C45.5583 28.9861 45.5583 29.8901 46.1143 30.4461L50.7096 35.0414C50.9876 35.3195 51.3526 35.4592 51.7176 35.4592C52.0826 35.4592 52.4476 35.3195 52.7256 35.0414C53.2817 34.4854 53.2817 33.5814 52.7256 33.0254L48.1304 28.4301C47.5743 27.8726 46.6718 27.8726 46.1143 28.4301Z" fill="black"/>
<path d="M21.5195 58.7422C20.7325 58.7422 20.0938 59.3809 20.0938 60.168C20.0938 60.955 20.7325 61.5938 21.5195 61.5938C22.3066 61.5938 22.9453 60.955 22.9453 60.168V60.1665C22.9453 59.3795 22.3066 58.7422 21.5195 58.7422Z" fill="black"/>
</svg>
