<svg width="73" height="73" viewBox="0 0 73 73" fill="none" xmlns="http://www.w3.org/2000/svg">
<path fill-rule="evenodd" clip-rule="evenodd" d="M55.5582 38.9217L55.6803 38.8788C59.1222 38.1046 61.343 37.5758 64.7851 36.8017C66.0221 36.5234 67.1766 35.154 66.5235 33.2403C64.1205 26.1986 62.2207 20.632 59.7831 13.4891C59.3215 12.1364 58.754 11.4232 57.4626 10.8143L44.6504 4.77466C43.6619 8.4637 40.319 11.0287 36.5 11.0287C32.681 11.0287 29.3381 8.46357 28.3495 4.77466L15.5373 10.8145C14.2458 11.4233 13.6784 12.1365 13.2168 13.4892C10.7792 20.632 8.87946 26.1987 6.47646 33.2404C5.82338 35.1541 6.97787 36.5235 8.21491 36.8018C11.6568 37.576 13.7708 38.0806 17.2128 38.8548L17.4417 38.9111V65.4822C17.4417 66.9909 18.667 68.2254 20.1643 68.2254H52.8355C54.3329 68.2254 55.558 66.9908 55.558 65.4822V38.9217H55.5582Z" fill="#EAEAEA"/>
<path fill-rule="evenodd" clip-rule="evenodd" d="M36.5 16.4591C42.6516 16.4591 47.8003 12.3644 49.1112 6.87756L44.6505 4.77466C43.662 8.4637 40.319 11.0287 36.5 11.0287C32.681 11.0287 29.3381 8.46357 28.3496 4.77466L23.8888 6.87756C25.1997 12.3644 30.3484 16.4591 36.5 16.4591Z" fill="#C1C1C1"/>
<path d="M67.744 32.8238L61.0036 13.0727C60.414 11.3449 59.5753 10.3847 58.0126 9.64788L45.2003 3.60793C44.8547 3.44505 44.4545 3.44376 44.1078 3.60458C43.7612 3.7654 43.5035 4.07169 43.4047 4.44079C42.5689 7.56019 39.7296 9.73892 36.5 9.73892C33.2705 9.73892 30.4312 7.56019 29.5954 4.44079C29.4965 4.07169 29.2389 3.7654 28.8923 3.60458C28.5457 3.44376 28.1456 3.44505 27.7998 3.60793L14.9875 9.64788C13.4246 10.3847 12.586 11.3448 11.9965 13.0727L5.25598 32.8238C4.84794 34.0195 4.92983 35.2259 5.48657 36.2204C6.01133 37.1579 6.9026 37.8284 7.932 38.0599C9.64981 38.4463 11.0606 38.771 12.4248 39.0849C13.5801 39.3508 14.7711 39.625 16.1522 39.9373V65.4819C16.1522 67.7057 17.9521 69.5148 20.1643 69.5148H52.8355C55.0479 69.5148 56.8477 67.7057 56.8477 65.4819V39.9373C58.19 39.6335 59.3715 39.3616 60.518 39.0979C61.9096 38.7778 63.3485 38.4466 65.068 38.06C66.0972 37.8285 66.9888 37.158 67.5134 36.2204C68.0703 35.2257 68.1522 34.0195 67.744 32.8238ZM36.5 12.3182C40.3792 12.3182 43.8445 10.0085 45.3866 6.5473L47.5616 7.57257C46.0039 12.0851 41.576 15.1694 36.5 15.1694C31.4242 15.1694 26.9962 12.0851 25.4386 7.5727L27.6136 6.54743C29.1555 10.0085 32.6209 12.3182 36.5 12.3182ZM65.263 34.9605C65.1002 35.251 64.8087 35.4744 64.5022 35.5434C62.7765 35.9314 61.3344 36.2634 59.9398 36.5841C58.9606 36.8094 57.9556 37.0407 56.8479 37.2924V25.7035C56.8479 24.9912 56.2704 24.4138 55.5582 24.4138C54.8461 24.4138 54.2686 24.9912 54.2686 25.7035V65.4821C54.2686 66.2836 53.6258 66.9356 52.8356 66.9356H20.1644C19.3744 66.9356 18.7317 66.2836 18.7317 65.4821V31.5069C18.7317 30.7946 18.1541 30.2173 17.442 30.2173C16.7299 30.2173 16.1524 30.7946 16.1524 31.5069V37.2927C15.012 37.0337 13.9945 36.7995 13.0033 36.5714C11.636 36.2567 10.2223 35.9312 8.49803 35.5434C8.19148 35.4744 7.89989 35.251 7.73727 34.9605C7.54021 34.6084 7.52628 34.1574 7.69703 33.6568L14.4374 13.9057C14.8036 12.8325 15.1582 12.4189 16.0872 11.981L23.095 8.67741C25.0869 14.0786 30.4156 17.7487 36.4999 17.7487C42.5844 17.7487 47.9131 14.0786 49.9049 8.67741L56.9126 11.981C57.8417 12.4189 58.1963 12.8327 58.5626 13.9058L65.3029 33.6569C65.4739 34.1575 65.46 34.6084 65.263 34.9605Z" fill="black"/>
<path d="M17.4419 24.4137H17.4409C16.7287 24.4137 16.1517 24.9911 16.1517 25.7033C16.1517 26.4156 16.7296 26.993 17.4419 26.993C18.1542 26.993 18.7315 26.4156 18.7315 25.7033C18.7315 24.9911 18.1542 24.4137 17.4419 24.4137Z" fill="black"/>
<path fill-rule="evenodd" clip-rule="evenodd" d="M40.7706 26.6631L37.7779 21.1581C37.5769 20.7903 37.2704 20.4737 36.874 20.2613C35.7932 19.6853 34.4487 20.0931 33.8727 21.1752L30.9841 26.5975L24.8889 27.7295C24.4497 27.7951 24.0263 27.9933 23.6812 28.3255C22.7972 29.1753 22.7702 30.5825 23.6199 31.4651L27.8873 35.8907L27.0931 41.9489C26.9976 42.4137 27.0489 42.9113 27.2728 43.3704C27.8103 44.4754 29.1434 44.9345 30.2484 44.3969L35.7704 41.7093L41.4308 44.4055C41.81 44.5866 42.2449 44.6593 42.6926 44.5965C43.9074 44.4283 44.7571 43.3062 44.5889 42.0914L43.7377 36.0034L47.9594 31.5506C48.3016 31.2313 48.5454 30.8035 48.6324 30.3074C48.8434 29.0969 48.0336 27.9434 46.8231 27.7324L40.7706 26.6631Z" fill="#C1C1C1"/>
<path d="M47.4965 26.7576L42.1213 25.8052L39.4565 20.9034C39.1157 20.276 38.601 19.767 37.9708 19.4305C37.1125 18.9729 36.1259 18.8759 35.1949 19.1597C34.2638 19.4434 33.4982 20.0722 33.0405 20.9319L30.4741 25.7482L25.0747 26.7519C24.3347 26.8688 23.6589 27.2053 23.1185 27.7257C22.417 28.4016 22.0192 29.3098 22.0007 30.2836C21.9821 31.2574 22.3429 32.1799 23.0201 32.8842L26.8113 36.8165L26.1126 42.1489C25.9644 42.926 26.0699 43.7116 26.4177 44.4259C27.0494 45.7234 28.3525 46.479 29.7056 46.479C30.2417 46.479 30.7849 46.3607 31.2982 46.1112L36.2029 43.7244L41.243 46.1255C41.8846 46.432 42.6004 46.5403 43.3133 46.442C45.3051 46.1668 46.7023 44.3218 46.4257 42.3272L45.6701 36.9192L49.3928 32.9926C49.9574 32.4522 50.3267 31.7593 50.4621 30.9851C50.6304 30.0241 50.4136 29.056 49.8533 28.2576C49.2915 27.4563 48.4532 26.9245 47.4965 26.7576ZM47.6533 30.4903C47.6148 30.7085 47.5008 30.8539 47.4124 30.9366C47.391 30.9566 47.371 30.9765 47.3511 30.9979L43.1293 35.4506C42.8313 35.7657 42.6916 36.1992 42.7515 36.6283L43.6013 42.715C43.6611 43.1498 43.356 43.5533 42.9212 43.6132C42.7629 43.6346 42.6061 43.6118 42.4678 43.5476L36.8074 40.8515C36.4153 40.6647 35.9605 40.6676 35.5698 40.8572L30.0478 43.5448C29.6514 43.7373 29.1724 43.5719 28.9785 43.1755C28.8801 42.973 28.8886 42.7863 28.9143 42.6651C28.9214 42.6309 28.9271 42.5966 28.9314 42.5624L29.7256 36.5043C29.7826 36.0737 29.64 35.6417 29.3377 35.3294L25.0718 30.9038C24.925 30.7513 24.8451 30.5488 24.8494 30.3363C24.8537 30.1239 24.9406 29.9257 25.0932 29.7789C25.2443 29.6334 25.4111 29.5821 25.5238 29.5664C25.5395 29.5636 25.5566 29.5607 25.5723 29.5579L31.6675 28.4258C32.0938 28.346 32.4616 28.0779 32.6655 27.6944L35.5542 22.2721C35.654 22.0854 35.8208 21.9485 36.0232 21.8872C36.1002 21.8644 36.1772 21.853 36.2556 21.853C36.384 21.853 36.5108 21.8843 36.6278 21.9471C36.7646 22.0198 36.8773 22.131 36.9514 22.2664L39.9441 27.7714C40.1509 28.1521 40.5216 28.4187 40.9479 28.4942L47.0017 29.5664C47.2128 29.6035 47.3953 29.719 47.5179 29.8944C47.6405 30.0697 47.689 30.2807 47.6533 30.4903Z" fill="black"/>
</svg>
