<svg width="74" height="73" viewBox="0 0 74 73" fill="none" xmlns="http://www.w3.org/2000/svg">
<path fill-rule="evenodd" clip-rule="evenodd" d="M10.1724 36.4999C10.1724 21.5392 22.3016 9.41008 37.2623 9.41008C52.223 9.41008 64.3521 21.5392 64.3521 36.4999C64.3521 51.4606 52.223 63.5898 37.2623 63.5898C22.3016 63.5898 10.1724 51.4606 10.1724 36.4999ZM43.9107 4.0691L40.0383 2.12576C38.3715 1.23037 36.3013 1.15908 34.5077 2.11578L31.0316 3.97928L26.7457 3.66988C24.8295 3.45459 22.8476 4.18459 21.5359 5.78717L19.0066 8.87541L15.2753 10.1144C13.2949 10.5764 11.6082 12.0549 10.978 14.1408L9.82598 17.9548L6.47825 20.8505C5.06387 22.0525 4.24262 23.906 4.43795 25.8935L4.83289 29.8515L2.88956 33.7239C1.99416 35.3907 1.92288 37.4609 2.87957 39.2545L4.74307 42.7306L4.43368 47.0165C4.21838 48.9327 4.94838 50.9146 6.55096 52.2263L9.6392 54.7556L10.8782 58.4869C11.3402 60.4673 12.8187 62.154 14.9046 62.7842L18.7186 63.9362L21.6143 67.284C22.8163 68.6983 24.6698 69.5196 26.6573 69.3243L30.6153 68.9293L34.4891 70.8727C36.1559 71.768 38.2247 71.8393 40.0197 70.8826L43.4958 69.0191L47.7817 69.3285C49.698 69.5438 51.6798 68.8138 52.9915 67.2113L55.5208 64.123L59.2521 62.884C61.2325 62.4221 62.9192 60.9435 63.5494 58.8576L64.7015 55.0451L68.0492 52.1493C69.4636 50.9474 70.2848 49.0938 70.0895 47.1063L69.6945 43.1483L71.6379 39.2745C72.5333 37.6078 72.6046 35.5375 71.6479 33.7439L69.7844 30.2678L70.0938 25.9819C70.309 24.0657 69.579 22.0838 67.9765 20.7721L64.8882 18.2428L63.6492 14.5115C63.1873 12.5311 61.7087 10.8444 59.6228 10.2142L55.8103 9.06219L52.9145 5.71445C51.7126 4.30008 49.8591 3.47883 47.8715 3.67416L43.9107 4.0691Z" fill="#FFA300"/>
<path d="M37.2622 63.5898C52.2235 63.5898 64.3521 51.4613 64.3521 36.5C64.3521 21.5387 52.2235 9.41016 37.2622 9.41016C22.3009 9.41016 10.1724 21.5387 10.1724 36.5C10.1724 51.4613 22.3009 63.5898 37.2622 63.5898Z" fill="#FFD400"/>
<path fill-rule="evenodd" clip-rule="evenodd" d="M42.3965 29.3767C40.8196 27.8568 40.265 25.4886 41.0549 23.5895C41.9203 21.5078 41.8861 19.8639 40.9037 17.9976C39.9057 16.1041 36.5451 14.5728 36.0817 16.8498C35.8736 17.8735 36.2143 20.1006 34.7215 22.9607C33.022 26.2158 34.7059 30.3106 29.7883 30.3106V49.9507C33.166 49.9507 36.5437 51.8214 39.9214 51.8214H48.1524C52.3513 51.8214 53.4834 47.3031 52.079 45.9557C54.1934 45.0603 54.8436 42.0291 53.7001 40.562C55.9229 39.4655 56.181 36.008 54.6996 35.1882C56.3093 35.154 57.6253 33.8622 57.6253 32.3181C57.6253 30.5929 56.2537 29.3753 54.6269 29.3753L42.3965 29.3767Z" fill="#FFDCD5"/>
<path fill-rule="evenodd" clip-rule="evenodd" d="M29.7869 49.9522V30.312V29.3411H22.2531V50.9231H29.7869V49.9522Z" fill="#7600FF"/>
<path d="M43.9677 8.77966C43.2006 8.59573 42.4321 9.06624 42.2467 9.83188C42.0628 10.5975 42.5333 11.3674 43.299 11.5528C54.8549 14.3374 62.9263 24.5958 62.9263 36.4997C62.9263 50.6506 51.4131 62.1638 37.2622 62.1638C23.1113 62.1638 11.5981 50.6506 11.5981 36.4997C11.5981 24.5973 19.6681 14.3374 31.224 11.5514C31.9897 11.3674 32.4602 10.5961 32.2762 9.83046C32.0923 9.06481 31.321 8.59431 30.5553 8.77823C24.4416 10.2525 18.9024 13.787 14.9587 18.7288C10.8952 23.8245 8.74658 29.9696 8.74658 36.4997C8.74658 52.2232 21.5387 65.0153 37.2622 65.0153C52.9857 65.0153 65.7778 52.2232 65.7778 36.4997C65.7778 29.9696 63.6292 23.8245 59.5643 18.7302C55.6206 13.787 50.0814 10.2539 43.9677 8.77966Z" fill="black"/>
<path d="M72.9039 33.0708L71.2357 29.9583L71.5137 26.1116C71.7818 23.645 70.798 21.2383 68.8789 19.6699L66.11 17.4029L65.0207 14.1222C64.4105 11.6128 62.5057 9.59677 60.0334 8.85108L56.6158 7.81882L53.998 4.79046C52.4496 2.96831 50.1056 2.02159 47.7274 2.25542L44.1801 2.60901L40.6926 0.859578C38.544 -0.285325 35.9819 -0.28675 33.8318 0.859578L30.7193 2.52774L26.8725 2.24971C24.4059 1.98167 21.9992 2.96546 20.4309 4.88456L18.1639 7.65343L14.8831 8.74272C12.3738 9.35296 10.3577 11.2578 9.61203 13.7301L8.57977 17.1477L5.55283 19.764C3.73068 21.3124 2.78254 23.6564 3.01779 26.0346L3.37139 29.5819L1.62195 33.0694C0.475625 35.2181 0.475625 37.7802 1.62195 39.9303L3.29012 43.0427L3.01209 46.8895C2.74404 49.3561 3.72783 51.7614 5.64693 53.3312L8.4158 55.5982L9.5051 58.8789C10.1153 61.3883 12.0202 63.4043 14.4925 64.15L17.9101 65.1823L20.5278 68.2078C22.0762 70.0299 24.4202 70.9781 26.7984 70.7428L30.3457 70.3892L33.8332 72.1387C34.9082 72.7118 36.0859 72.9984 37.2651 72.9984C38.4428 72.9984 39.6204 72.7118 40.6941 72.1387L43.8065 70.4705L47.6533 70.7485C50.1199 71.0151 52.5252 70.0328 54.095 68.1137L56.362 65.3448L59.6427 64.2555C62.1506 63.6453 64.1667 61.7404 64.9138 59.2681L65.9461 55.8505L68.9716 53.2328C70.7937 51.6844 71.7419 49.3404 71.508 46.9622L71.1544 43.4149L72.9039 39.9274C74.0488 37.7816 74.0502 35.2195 72.9039 33.0708ZM70.3803 38.6C70.3745 38.6114 70.3674 38.6228 70.3617 38.6357L68.4184 42.5095C68.2972 42.7505 68.2473 43.0214 68.2744 43.2908L68.6693 47.2474C68.8119 48.6945 68.2345 50.1217 67.1152 51.0727L63.7675 53.9685C63.5636 54.1453 63.4139 54.3763 63.3355 54.6343L62.1834 58.4469C61.7243 59.9668 60.4768 61.1359 58.927 61.4981C58.8842 61.508 58.8428 61.5194 58.8015 61.5337L55.0702 62.7727C54.8136 62.8582 54.5869 63.0137 54.4158 63.2232L51.8864 66.3129C50.9255 67.4878 49.4498 68.0866 47.9399 67.9169C47.9213 67.9141 47.9014 67.9126 47.8829 67.9112L43.597 67.6018C43.3275 67.5819 43.058 67.6403 42.8199 67.7672L39.3467 69.6293C38.0364 70.3279 36.4723 70.3251 35.1606 69.6207C35.1492 69.615 35.1378 69.6079 35.125 69.6022L31.2525 67.6589C31.0529 67.5591 30.8348 67.5077 30.6138 67.5077C30.5667 67.5077 30.5197 67.5106 30.4726 67.5148L26.5161 67.9098C25.0689 68.0524 23.6417 67.4749 22.6907 66.3557L19.795 63.008C19.6182 62.8041 19.3872 62.6544 19.1291 62.5759L15.3152 61.4239C13.7938 60.9648 12.6261 59.7173 12.264 58.1674C12.254 58.1247 12.2426 58.0833 12.2283 58.042L10.9893 54.3107C10.9038 54.0541 10.7484 53.8273 10.5402 53.6563L7.45055 51.1269C6.2757 50.1659 5.67688 48.6903 5.84654 47.1804C5.84797 47.1618 5.85082 47.1433 5.85225 47.1233L6.16164 42.8374C6.1816 42.568 6.12314 42.2985 5.99625 42.0604L4.13418 38.5872C3.43555 37.2769 3.4384 35.7128 4.14273 34.4011C4.14844 34.3897 4.15557 34.3783 4.16127 34.3669L6.10461 30.493C6.2258 30.2521 6.2757 29.9812 6.24861 29.7117L5.8551 25.7551C5.71252 24.308 6.28996 22.8808 7.4092 21.9298L10.7569 19.034C10.9608 18.8572 11.1105 18.6262 11.1889 18.3682L12.341 14.5542C12.8001 13.0343 14.0476 11.8652 15.5975 11.503C15.6402 11.4931 15.6816 11.4816 15.7229 11.4674L19.4542 10.2284C19.7108 10.1428 19.9375 9.98743 20.1086 9.77927L22.638 6.6896C23.5989 5.51475 25.0746 4.91593 26.5845 5.08559C26.6031 5.08702 26.6216 5.08987 26.6416 5.0913L30.9275 5.40069C31.1955 5.41923 31.4664 5.3622 31.7045 5.2353L35.1777 3.37323C36.488 2.6746 38.0521 2.67745 39.3638 3.38178C39.3752 3.38749 39.3866 3.39462 39.3995 3.40032L43.2733 5.34366C43.5143 5.46485 43.7852 5.51475 44.0546 5.48766L48.0112 5.09415C49.4583 4.95157 50.8855 5.52901 51.8365 6.64825L54.7323 9.99598C54.9091 10.1999 55.1401 10.3496 55.3981 10.428L59.2107 11.58C60.7306 12.0391 61.8997 13.2867 62.2619 14.8365C62.2718 14.8793 62.2832 14.9206 62.2975 14.962L63.5365 18.6932C63.6221 18.9499 63.7775 19.1766 63.9856 19.3477L67.0753 21.877C68.2501 22.838 68.849 24.3123 68.6793 25.8236C68.6764 25.8421 68.675 25.8607 68.6736 25.8806L68.3642 30.1665C68.3442 30.436 68.4027 30.7055 68.5296 30.9436L70.3917 34.4168C71.0874 35.7256 71.0846 37.2897 70.3803 38.6Z" fill="black"/>
<path d="M31.0744 28.7321C30.8462 28.2502 30.3558 27.9166 29.7869 27.9166H22.2531C21.466 27.9166 20.8273 28.5553 20.8273 29.3424V50.9244C20.8273 51.7114 21.466 52.3502 22.2531 52.3502H29.7869C30.3786 52.3502 30.8847 51.9909 31.1014 51.479C32.1879 51.6316 33.3086 51.941 34.4734 52.2632C36.2257 52.748 38.0379 53.2499 39.9213 53.2499H48.1524C50.6974 53.2499 52.7591 51.9011 53.6673 49.6412C54.1107 48.5405 54.1877 47.397 53.9282 46.4403C54.4016 46.0154 54.8022 45.4851 55.1045 44.8663C55.7176 43.613 55.8402 42.2029 55.4923 41.0152C56.1396 40.3893 56.6229 39.5624 56.8767 38.5885C57.1134 37.6775 57.1091 36.7778 56.8981 35.9993C58.1842 35.2422 59.051 33.8678 59.051 32.3194C59.051 31.1046 58.5777 29.9854 57.7194 29.1684C56.8953 28.3828 55.796 27.9508 54.6268 27.9508H43.0253C42.1441 26.8444 41.8689 25.3445 42.3708 24.1368C43.4002 21.6574 43.3375 19.5601 42.1641 17.333C41.2929 15.6805 38.9532 14.0352 36.9856 14.3161C35.7965 14.4857 34.9354 15.3269 34.683 16.5645C34.6089 16.9295 34.5889 17.323 34.5647 17.7778C34.5062 18.9014 34.4264 20.4412 33.4568 22.3004C32.7996 23.5608 32.58 24.8569 32.3861 26.0003C32.1081 27.64 31.974 28.4284 31.0744 28.7321ZM23.6803 30.7667H28.3625V49.4972H23.6803V30.7667ZM35.1977 26.478C35.3631 25.497 35.5356 24.4819 35.9848 23.6221C37.2423 21.2126 37.3492 19.1566 37.4134 17.9276C37.4305 17.6011 37.4462 17.2917 37.4775 17.1362C37.4775 17.1348 37.4775 17.1348 37.479 17.1334C37.9737 17.1405 39.1913 17.8078 39.6419 18.6647C40.4232 20.1475 40.4489 21.3337 39.7388 23.0447C39.0987 24.5874 39.1457 26.3767 39.7802 27.9679C39.0873 28.0649 38.5526 28.658 38.5526 29.378C38.5526 30.165 39.1913 30.8038 39.9784 30.8038H54.6283C55.0631 30.8038 55.4624 30.9563 55.7546 31.2344C55.9585 31.4283 56.2009 31.7747 56.2009 32.3208C56.2009 33.085 55.4994 33.7466 54.6696 33.7651L50.9997 33.845C50.2126 33.8621 49.5881 34.5137 49.6052 35.3007C49.6224 36.0777 50.2568 36.6951 51.0296 36.6951C51.0396 36.6951 51.051 36.6951 51.061 36.6951L54.1178 36.6281C54.2176 36.9104 54.269 37.4493 54.0594 38.0667C53.8812 38.5914 53.4007 39.4725 52.1945 39.4725C51.4074 39.4725 50.7687 40.1113 50.7687 40.8983C50.7687 41.6853 51.4074 42.3241 52.1945 42.3241C52.4112 42.3241 52.6222 42.3113 52.8304 42.2842C52.8475 42.6877 52.7648 43.1596 52.5438 43.613C52.2814 44.1477 51.7653 44.7864 50.7858 44.7864C49.9988 44.7864 49.36 45.4252 49.36 46.2122C49.36 46.9992 49.9988 47.638 50.7858 47.638C50.9341 47.638 51.0795 47.6309 51.2235 47.618C51.2192 47.8918 51.1636 48.234 51.0082 48.6075C50.7844 49.145 50.0586 50.3969 48.1509 50.3969H39.9199C38.4243 50.3969 36.8744 49.9677 35.2334 49.5129C33.9274 49.1507 32.5885 48.7815 31.2112 48.6161V31.6179C34.4235 31.0362 34.8655 28.437 35.1977 26.478Z" fill="black"/>
<path d="M37.2622 10.8359C38.0492 10.8359 38.688 10.1972 38.688 9.41016C38.688 8.62313 38.0492 7.98438 37.2622 7.98438C36.4752 7.98438 35.8364 8.62313 35.8364 9.41016C35.8364 10.1972 36.4752 10.8359 37.2622 10.8359Z" fill="black"/>
</svg>
