<svg width="73" height="73" viewBox="0 0 73 73" fill="none" xmlns="http://www.w3.org/2000/svg">
<path d="M32.3328 61.0685H40.6673V67.6533H32.3328V61.0685Z" fill="#C7C2C9"/>
<path d="M43.0875 67.6533H29.9126C27.7865 67.6533 26.063 69.3768 26.063 71.5029C26.063 71.7392 26.2545 71.9307 26.4907 71.9307H46.5094C46.7457 71.9307 46.9371 71.7392 46.9371 71.5029C46.9371 69.3768 45.2135 67.6533 43.0875 67.6533Z" fill="#FF764E"/>
<path d="M67.6533 61.0685H5.34668C2.9843 61.0685 1.06934 59.1535 1.06934 56.7912V20.4862C1.06934 18.1238 2.9843 16.2089 5.34668 16.2089H67.6533C70.0157 16.2089 71.9307 18.1238 71.9307 20.4862V56.7912C71.9307 59.1535 70.0157 61.0685 67.6533 61.0685Z" fill="#FF764E"/>
<path d="M5.34668 56.3634V20.9139C5.34668 20.6777 5.53816 20.4862 5.77441 20.4862H67.2256C67.4618 20.4862 67.6533 20.6777 67.6533 20.9139V56.3636C67.6533 56.5998 67.4618 56.7913 67.2256 56.7913H5.77441C5.53816 56.7911 5.34668 56.5997 5.34668 56.3634Z" fill="#ECF5FF"/>
<path d="M55.3683 56.7911H17.6318V5.34668C17.6318 2.9843 19.5468 1.06934 21.9092 1.06934H51.0909C53.4533 1.06934 55.3683 2.9843 55.3683 5.34668V56.7911Z" fill="#F7F6F7"/>
<path d="M36.5 32.7217C43.4688 32.7217 49.1182 27.0723 49.1182 20.1035C49.1182 13.1347 43.4688 7.48535 36.5 7.48535C29.5312 7.48535 23.8818 13.1347 23.8818 20.1035C23.8818 27.0723 29.5312 32.7217 36.5 32.7217Z" fill="#FF764E"/>
<path d="M34.3452 25.6851C33.6149 25.6851 32.8849 25.4073 32.329 24.8516L29.9599 22.4824C29.1248 21.6471 29.1248 20.2931 29.9599 19.4578C30.7952 18.6228 32.1494 18.6225 32.9844 19.4578L34.0427 20.5162C34.2098 20.6833 34.4805 20.6833 34.6476 20.5162L39.9725 15.1913C40.7867 14.3771 42.1131 14.3021 42.9649 15.0771C43.8743 15.9047 43.8992 17.3136 43.0398 18.1731L36.3614 24.8514C35.8056 25.4072 35.0753 25.6851 34.3452 25.6851Z" fill="white"/>
<path d="M71.9307 44.2842C72.5212 44.2842 73 43.8056 73 43.2149V20.4856C73 17.5374 70.6015 15.1389 67.6533 15.1389H56.4376V5.34668C56.4376 2.39845 54.0391 0 51.0909 0H21.9091C18.9609 0 16.5624 2.39845 16.5624 5.34668V15.1389H5.34668C2.39845 15.1389 0 17.5374 0 20.4856V56.7917C0 59.74 2.39845 62.1384 5.34668 62.1384H31.2634V66.584H29.9125C27.2002 66.584 24.9935 68.7907 24.9935 71.5029C24.9935 72.3285 25.6651 73 26.4906 73H46.5093C47.3348 73 48.0063 72.3285 48.0063 71.5029C48.0063 68.7907 45.7997 66.584 43.0874 66.584H41.7365V62.1384H67.6533C70.6015 62.1384 73 59.74 73 56.7917V48.205C73 47.6143 72.5212 47.1356 71.9307 47.1356C71.3401 47.1356 70.8613 47.6143 70.8613 48.205V56.7917C70.8613 58.5605 69.4223 59.9997 67.6533 59.9997H40.6782C40.6745 59.9997 40.671 59.9992 40.6673 59.9992C40.6636 59.9992 40.66 59.9997 40.6563 59.9997H32.3438C32.3401 59.9997 32.3366 59.9992 32.3329 59.9992C32.3292 59.9992 32.3256 59.9997 32.3219 59.9997H5.34668C3.57771 59.9997 2.13867 58.5605 2.13867 56.7917V20.4856C2.13867 18.7168 3.57771 17.2776 5.34668 17.2776H16.5624V19.4163H5.77441C4.94889 19.4163 4.27734 20.0878 4.27734 20.9134V56.7917C4.27734 57.3824 4.75612 57.8611 5.34668 57.8611H67.2256C68.0511 57.8611 68.7227 57.1895 68.7227 56.364V20.9134C68.7227 20.0878 68.0511 19.4163 67.2256 19.4163H56.4376V17.2776H67.6533C69.4223 17.2776 70.8613 18.7168 70.8613 20.4856V43.2149C70.8613 43.8054 71.3401 44.2842 71.9307 44.2842ZM33.4021 62.1384H39.5979V66.584H33.4021V62.1384ZM43.0875 68.7227C44.3998 68.7227 45.5027 69.6364 45.7931 70.8613H27.2069C27.4973 69.6364 28.6002 68.7227 29.9125 68.7227H43.0875ZM16.5624 55.7224H6.41602V21.555H16.5624V55.7224ZM54.2989 55.7224H18.7011V5.34668C18.7011 3.57786 20.1402 2.13867 21.9091 2.13867H51.0909C52.8598 2.13867 54.2989 3.57786 54.2989 5.34668V55.7224ZM66.584 21.555V55.7224H56.4376V21.555H66.584ZM48.8126 38.6387H24.1874C23.5968 38.6387 23.118 39.1173 23.118 39.708C23.118 40.2987 23.5968 40.7773 24.1874 40.7773H48.8126C49.4032 40.7773 49.882 40.2987 49.882 39.708C49.882 39.1173 49.4032 38.6387 48.8126 38.6387ZM36.5 6.41602C33.5257 6.41602 30.6952 7.3576 28.3146 9.13926C27.8418 9.49299 27.7453 10.1634 28.0992 10.636C28.453 11.1088 29.1231 11.2055 29.5961 10.8516C31.6039 9.34885 33.9912 8.55469 36.5 8.55469C42.8681 8.55469 48.0488 13.7355 48.0488 20.1035C48.0488 26.4715 42.8681 31.6523 36.5 31.6523C30.1319 31.6523 24.9512 26.4715 24.9512 20.1035C24.9512 18.0396 25.5047 16.0129 26.5519 14.2427C26.8526 13.7346 26.6844 13.0787 26.1761 12.778C25.6678 12.4774 25.0119 12.6455 24.7112 13.154C23.4691 15.2534 22.8125 17.6567 22.8125 20.1035C22.8125 27.6509 28.9526 33.791 36.5 33.791C44.0474 33.791 50.1875 27.6509 50.1875 20.1035C50.1875 12.5561 44.0474 6.41602 36.5 6.41602ZM31.5731 25.6077C33.0632 27.1117 35.6196 27.1224 37.1176 25.6073L43.7959 18.929C45.0778 17.6576 45.0088 15.4911 43.6845 14.286C42.4167 13.1323 40.4538 13.1977 39.2164 14.435L34.3452 19.3062L33.7407 18.7017C32.51 17.4585 30.438 17.4672 29.2037 18.7015C27.953 19.9522 27.9529 21.9874 29.2037 23.2382L31.5731 25.6077ZM30.7162 20.2139C31.1277 19.8024 31.8189 19.8001 32.2285 20.2137L33.2866 21.2719C33.8576 21.849 34.831 21.8512 35.4039 21.2722L40.7287 15.9474C41.15 15.5259 41.8306 15.4903 42.2453 15.8677C42.69 16.2723 42.7124 16.9926 42.2838 17.4165L35.6056 24.0948C35.2698 24.4305 34.8223 24.6154 34.3454 24.6154C33.8684 24.6154 33.4209 24.4306 33.0854 24.0953L30.7163 21.7261C30.2993 21.3092 30.2993 20.6308 30.7162 20.2139ZM48.8126 45.0547H24.1874C23.5968 45.0547 23.118 45.5333 23.118 46.124C23.118 46.7147 23.5968 47.1934 24.1874 47.1934H48.8126C49.4032 47.1934 49.882 46.7147 49.882 46.124C49.882 45.5333 49.4032 45.0547 48.8126 45.0547Z" fill="black"/>
</svg>
