<svg width="73" height="73" viewBox="0 0 73 73" fill="none" xmlns="http://www.w3.org/2000/svg">
<path fill-rule="evenodd" clip-rule="evenodd" d="M29.5353 35.8548L9.65789 1.4259H1.4259L23.5602 39.7637C23.9394 39.439 24.3928 39.2092 24.88 39.0955L26.852 38.441L28.1885 36.8087C28.5568 36.3586 29.0252 36.0387 29.5353 35.8548Z" fill="#52BA00"/>
<path fill-rule="evenodd" clip-rule="evenodd" d="M9.65796 1.42578L29.5354 35.8546C29.9851 35.6925 30.4673 35.6361 30.9416 35.6894L33.2067 35.8532L35.0437 34.8686C35.6711 34.5339 36.3618 34.4373 37.0128 34.5472L17.8898 1.42578H9.65796Z" fill="#70FF00"/>
<path fill-rule="evenodd" clip-rule="evenodd" d="M17.8898 1.42578L37.0125 34.5472C37.3456 34.6034 37.6681 34.7137 37.9664 34.8737L40.0131 35.9004L42.105 35.692C43.1553 35.5887 44.1347 36.0227 44.7702 36.7703L46.3006 38.5392L47.8122 38.9959L44.7317 33.6602L40.6157 26.5311L36.5001 19.4026L26.121 1.42578H17.8898Z" fill="white"/>
<path fill-rule="evenodd" clip-rule="evenodd" d="M46.8789 1.42578L36.4999 19.4028L40.6155 26.5312L55.1101 1.42578H46.8789Z" fill="#52BA00"/>
<path fill-rule="evenodd" clip-rule="evenodd" d="M55.11 1.42578L40.6155 26.5312L44.7314 33.6602L63.342 1.42578H55.11Z" fill="#70FF00"/>
<path fill-rule="evenodd" clip-rule="evenodd" d="M63.3421 1.42578L44.7314 33.6602L47.812 38.9959L48.3154 39.148C48.7427 39.2771 49.1217 39.4899 49.4398 39.7631L71.5741 1.42578H63.3421Z" fill="white"/>
<path fill-rule="evenodd" clip-rule="evenodd" d="M47.8121 38.996L46.3005 38.5393L44.7701 36.7703C44.1346 36.0229 43.1552 35.5888 42.1049 35.692L40.013 35.9005L37.9663 34.8738C37.668 34.7137 37.3455 34.6034 37.0124 34.5473C36.3616 34.4375 35.6708 34.534 35.0434 34.8686L33.2065 35.8533L30.9413 35.6894C30.467 35.6361 29.9849 35.6924 29.5351 35.8547C29.025 36.0386 28.5566 36.3586 28.1883 36.8087L26.8518 38.4409L24.8798 39.0955C24.3926 39.2091 23.9392 39.4389 23.56 39.7636C23.1244 40.1364 22.7869 40.634 22.6088 41.2234L22 43.2385L20.2311 44.7689C19.4837 45.4044 19.0495 46.3837 19.1528 47.4341L19.3612 49.526L18.3345 51.5727C17.8616 52.4537 17.8235 53.5471 18.3294 54.4955L19.314 56.3325L19.1502 58.5976C19.0364 59.6099 19.4224 60.6576 20.2694 61.3507L21.9017 62.6872L22.5562 64.6592C22.8002 65.7058 23.5815 66.5969 24.6842 66.9301L26.6992 67.5389L28.2297 69.3079C28.8651 70.0553 29.8445 70.4894 30.8949 70.3862L32.9866 70.1778L35.0333 71.2045C35.9143 71.6774 37.0077 71.7156 37.9561 71.2097L39.7931 70.2251L42.0582 70.3889C43.0705 70.5027 44.1182 70.1167 44.8113 69.2697L46.1478 67.6375L48.1198 66.9829C49.1664 66.7389 50.0575 65.9576 50.3907 64.8549L50.9995 62.8399L52.7685 61.3095C53.5159 60.674 53.95 59.6946 53.8468 58.6443L53.6384 56.5525L54.6651 54.5058C55.138 53.6248 55.1762 52.5314 54.6703 51.583L53.6857 49.746L53.8495 47.4809C53.9633 46.4686 53.5773 45.4209 52.7303 44.7279L51.0981 43.3913L50.4435 41.4193C50.2941 40.7782 49.943 40.1953 49.4399 39.7635C49.1217 39.4903 48.7427 39.2774 48.3154 39.1484L47.8121 38.996ZM36.4999 41.6329C42.7994 41.6329 47.906 46.7396 47.906 53.0391C47.906 59.3386 42.7994 64.4453 36.4999 64.4453C30.2004 64.4453 25.0937 59.3386 25.0937 53.0391C25.0937 46.7396 30.2005 41.6329 36.4999 41.6329Z" fill="#FFA300"/>
<path d="M44.5547 61.1015C49.0085 56.6477 49.0085 49.4268 44.5547 44.973C40.101 40.5193 32.88 40.5193 28.4263 44.973C23.9725 49.4268 23.9725 56.6477 28.4263 61.1015C32.88 65.5552 40.101 65.5552 44.5547 61.1015Z" fill="#FFD400"/>
<path d="M36.4999 40.207C29.4244 40.207 23.668 45.9634 23.668 53.039C23.668 60.1145 29.4244 65.8709 36.4999 65.8709C43.5756 65.8709 49.332 60.1145 49.332 53.039C49.332 45.9634 43.5756 40.207 36.4999 40.207ZM36.4999 63.0194C30.9967 63.0194 26.5195 58.5422 26.5195 53.039C26.5195 47.5358 30.9967 43.0586 36.4999 43.0586C42.0033 43.0586 46.4805 47.5358 46.4805 53.039C46.4805 58.5422 42.0033 63.0194 36.4999 63.0194Z" fill="black"/>
<path d="M72.8088 0.712886C72.5542 0.271752 72.0834 0 71.5741 0H46.879C46.3697 0 45.8989 0.271752 45.6443 0.712886L36.5001 16.5512L27.3558 0.712886C27.1011 0.271752 26.6303 0 26.121 0H1.42595C0.91666 0 0.44587 0.271752 0.191226 0.712886C-0.0634166 1.15402 -0.0634166 1.69753 0.191226 2.13866L21.8202 39.6013C21.5727 39.9697 21.3758 40.3755 21.2443 40.811L20.7549 42.4306L19.3077 43.6827C18.1772 44.6439 17.5889 46.0984 17.7342 47.5755L17.9018 49.2562L17.0682 50.9176C16.3613 52.25 16.3622 53.8368 17.0731 55.1691L17.8623 56.6418L17.7301 58.469C17.569 59.9948 18.1792 61.4825 19.3663 62.4536L20.6787 63.5283L21.1846 65.0522C21.5703 66.5956 22.7475 67.8344 24.272 68.2948L25.8915 68.7841L27.1435 70.2314C28.1047 71.3618 29.5599 71.9499 31.0363 71.8048L32.717 71.6374L34.3781 72.4707C35.043 72.8236 35.7713 73.0001 36.4997 73.0001C37.2308 73.0001 37.9624 72.8222 38.6299 72.4662L40.1026 71.6767L41.9296 71.8089C43.455 71.9695 44.943 71.3599 45.9143 70.1728L46.9891 68.8604L48.513 68.3545C50.0564 67.9689 51.2952 66.7916 51.7554 65.2672L52.2449 63.6476L53.6919 62.3957C54.8226 61.4344 55.4108 59.9798 55.2654 58.5029L55.0979 56.8223L55.9313 55.161C56.6384 53.8288 56.6376 52.242 55.9268 50.9094L55.1375 49.4365L55.2697 47.6091C55.4308 46.0834 54.8204 44.5957 53.6335 43.6247L52.3211 42.5499L51.8152 41.026C51.6864 40.5111 51.468 40.0311 51.1794 39.6016L72.8088 2.13866C73.0635 1.69753 73.0635 1.15402 72.8088 0.712886ZM42.2619 26.5311L55.9334 2.85155H60.8727L44.7315 30.8087L42.2619 26.5311ZM47.7021 2.85155H52.6407L40.6156 23.6797L38.1463 19.4028L47.7021 2.85155ZM43.5058 34.3886C43.0085 34.264 42.4879 34.2217 41.9638 34.2734L40.2831 34.4408L38.6218 33.6075C38.4041 33.492 38.1792 33.3973 37.9501 33.3196L20.3594 2.85155H25.2978L43.5058 34.3886ZM8.83469 2.85155L15.1533 13.7958C15.4175 14.2532 15.8965 14.509 16.3894 14.509C16.6312 14.509 16.8765 14.4472 17.1009 14.3176C17.7828 13.924 18.0165 13.052 17.6227 12.37L12.1274 2.85155H17.0668L34.7284 33.4426C34.6074 33.4943 34.4875 33.5494 34.37 33.612L32.8973 34.4015L31.0703 34.2693C30.7977 34.2404 30.5265 34.2372 30.2591 34.2565L24.0397 23.4843C23.6459 22.8024 22.7739 22.5688 22.0921 22.9625C21.4102 23.3562 21.1765 24.2282 21.5703 24.9101L27.6077 35.3673C27.4214 35.531 27.2458 35.7096 27.0854 35.9055L26.0108 37.2179L24.487 37.7237C24.3544 37.7567 24.2251 37.7978 24.0973 37.8423L3.89538 2.85155H8.83469ZM51.8276 45.831C52.2706 46.1936 52.497 46.7507 52.4328 47.3213C52.4307 47.3399 52.429 47.3588 52.4277 47.3776L52.2639 49.6427C52.2443 49.9119 52.3018 50.1812 52.4291 50.419L53.4123 52.2537C53.6757 52.7472 53.6744 53.3367 53.4091 53.8311C53.4028 53.8427 53.3968 53.8544 53.3908 53.8663L52.3641 55.913C52.2431 56.1542 52.193 56.425 52.2197 56.6937L52.428 58.7839C52.4817 59.3291 52.2639 59.8672 51.8359 60.2311L50.0671 61.7613C49.8629 61.9379 49.7132 62.1688 49.6352 62.4272L49.0262 64.4425C48.8529 65.0165 48.3816 65.4578 47.7965 65.5943C47.7542 65.6041 47.7122 65.6159 47.671 65.6296L45.6991 66.2842C45.4428 66.3692 45.216 66.5251 45.045 66.734L43.7082 68.3665C43.3455 68.8097 42.7878 69.0359 42.2182 68.9718C42.1993 68.9696 42.1804 68.9679 42.1617 68.9665L39.8966 68.8027C39.6268 68.7836 39.3581 68.8406 39.1201 68.9681L37.286 69.9513C36.7922 70.2146 36.2024 70.2132 35.7082 69.9479C35.6967 69.9417 35.685 69.9356 35.6732 69.9297L33.6266 68.903C33.4276 68.8032 33.2087 68.7516 32.9874 68.7516C32.9404 68.7516 32.8932 68.7539 32.8461 68.7586L30.7561 68.9668C30.2096 69.0208 29.6725 68.8025 29.3087 68.3746L27.7784 66.6057C27.6019 66.4015 27.3709 66.2518 27.1125 66.1737L25.0973 65.5649C24.5233 65.3915 24.0821 64.9203 23.9456 64.335C23.9358 64.2927 23.9239 64.2509 23.9102 64.2097L23.2557 62.2376C23.1706 61.9813 23.0147 61.7545 22.8058 61.5836L21.1732 60.2466C20.7302 59.884 20.5038 59.327 20.5679 58.7564C20.5701 58.7377 20.5718 58.7189 20.5731 58.7001L20.7369 56.4349C20.7564 56.1656 20.699 55.8964 20.5715 55.6585L19.5883 53.8239C19.325 53.3306 19.3262 52.7408 19.5916 52.2464C19.5977 52.2349 19.6038 52.2232 19.6097 52.2115L20.6364 50.1648C20.7574 49.9236 20.8075 49.6528 20.7808 49.3841L20.5725 47.2939C20.5189 46.7485 20.7368 46.2104 21.1646 45.8466L22.9336 44.3163C23.1378 44.1396 23.2875 43.9088 23.3655 43.6505L23.9744 41.6351C24.1478 41.0611 24.619 40.6198 25.2041 40.4834C25.2465 40.4736 25.2883 40.4617 25.3296 40.448L27.3016 39.7936C27.5578 39.7085 27.7845 39.5525 27.9556 39.3436L29.2925 37.711C29.6551 37.2678 30.212 37.0407 30.7825 37.1057C30.8013 37.1079 30.8203 37.1096 30.8389 37.111L33.1041 37.2748C33.3737 37.2937 33.6426 37.2369 33.8805 37.1094L35.7148 36.1262C36.208 35.863 36.7977 35.8643 37.2924 36.1297C37.304 36.1358 37.3156 36.1419 37.3273 36.1478L39.374 37.1745C39.6153 37.2955 39.886 37.3457 40.1546 37.3187L42.2447 37.1106C42.7913 37.0571 43.3283 37.2748 43.692 37.7027L45.2224 39.4717C45.3989 39.6758 45.6299 39.8255 45.8884 39.9037L47.9034 40.5125C48.4775 40.6859 48.9187 41.1571 49.0552 41.7424C49.065 41.7846 49.0769 41.8265 49.0905 41.8677L49.7451 43.8397C49.8302 44.0957 49.9861 44.3226 50.1949 44.4935L51.8276 45.831ZM48.9026 37.8423C48.8571 37.8265 48.8118 37.8104 48.7656 37.796L46.3779 33.6602L64.1654 2.85155H69.1047L48.9026 37.8423Z" fill="black"/>
<path d="M38.0807 57.3162H37.9257V47.3359C37.9257 46.8265 37.654 46.3558 37.2128 46.1012C36.7717 45.8464 36.2282 45.8465 35.787 46.1012L34.2064 47.0138C33.5245 47.4076 33.2908 48.2795 33.6846 48.9616C33.976 49.4663 34.5289 49.7257 35.0742 49.6664V57.3162H34.9193C34.132 57.3162 33.4935 57.9546 33.4935 58.742C33.4935 59.5295 34.132 60.1678 34.9193 60.1678H38.0807C38.868 60.1678 39.5065 59.5295 39.5065 58.742C39.5065 57.9546 38.868 57.3162 38.0807 57.3162Z" fill="black"/>
<path d="M19.5966 17.2146H19.5956C18.8083 17.2146 18.1704 17.8529 18.1704 18.6404C18.1704 19.4278 18.8092 20.0662 19.5966 20.0662C20.3841 20.0662 21.0224 19.4278 21.0224 18.6404C21.0224 17.8529 20.3841 17.2146 19.5966 17.2146Z" fill="black"/>
<path d="M13.6791 45.5621C13.3655 45.5621 13.0518 45.4623 12.7952 45.2484L5.66626 39.5453C5.05317 39.0462 4.95337 38.1623 5.43813 37.5349C5.93716 36.9218 6.82114 36.822 7.44848 37.3068L14.5774 43.0099C15.1905 43.5089 15.2903 44.3929 14.8055 45.0203C14.5204 45.3767 14.1069 45.5621 13.6791 45.5621Z" fill="#FFA300"/>
<path d="M13.6791 58.394C13.3655 58.394 13.0518 58.4938 12.7952 58.7077L5.66626 64.4108C5.05317 64.9099 4.95337 65.7938 5.43813 66.4212C5.93716 67.0343 6.82114 67.1341 7.44848 66.6493L14.5774 60.9462C15.1905 60.4472 15.2903 59.5632 14.8055 58.9358C14.5204 58.5794 14.1069 58.394 13.6791 58.394Z" fill="#FFA300"/>
<path d="M14.4348 53.1756C14.1924 53.3609 13.8787 53.475 13.5365 53.475L4.41152 53.3467C3.62734 53.3324 3 52.6908 3 51.9066C3.01426 51.1225 3.65586 50.4951 4.44004 50.4951L13.565 50.6234C14.3492 50.6377 14.9766 51.2793 14.9766 52.0635C14.9766 52.5197 14.7627 52.9189 14.4348 53.1756Z" fill="#FFA300"/>
<path d="M59.3184 58.394C59.6321 58.394 59.9458 58.4938 60.2024 58.7077L67.3313 64.4108C67.9444 64.9099 68.0442 65.7938 67.5594 66.4212C67.0604 67.0343 66.1764 67.1341 65.5491 66.6493L58.4202 60.9462C57.8071 60.4472 57.7073 59.5632 58.192 58.9358C58.4772 58.5794 58.8907 58.394 59.3184 58.394Z" fill="#FFA300"/>
<path d="M59.3184 45.5621C59.6321 45.5621 59.9458 45.4623 60.2024 45.2484L67.3313 39.5453C67.9444 39.0462 68.0442 38.1623 67.5594 37.5349C67.0604 36.9218 66.1764 36.822 65.5491 37.3068L58.4202 43.0099C57.8071 43.5089 57.7073 44.3929 58.192 45.0203C58.4772 45.3767 58.8907 45.5621 59.3184 45.5621Z" fill="#FFA300"/>
<path d="M58.5628 50.7804C58.8052 50.595 59.1188 50.481 59.461 50.481L68.586 50.6093C69.3702 50.6235 69.9976 51.2651 69.9976 52.0493C69.9833 52.8335 69.3417 53.4608 68.5575 53.4608L59.4325 53.3325C58.6483 53.3183 58.021 52.6767 58.021 51.8925C58.021 51.4362 58.2349 51.037 58.5628 50.7804Z" fill="#FFA300"/>
</svg>
