<svg width="73" height="73" viewBox="0 0 73 73" fill="none" xmlns="http://www.w3.org/2000/svg">
<g clip-path="url(#clip0)">
<path d="M14.5999 7.29993C14.5999 7.29993 8.29993 13.3999 14.5999 19.4999C14.5999 19.4999 20.3999 14.0999 14.5999 7.29993Z" fill="#FFD400"/>
<path d="M14.5999 20.8999L13.8999 20.1999C11.7999 18.1999 10.7999 15.9999 10.7999 13.5999C10.7999 9.5999 13.7999 6.6999 13.8999 6.5999L14.6999 5.8999L15.3999 6.6999C21.7999 14.0999 15.3999 20.1999 15.2999 20.2999L14.5999 20.8999ZM14.5999 8.8999C13.8999 9.8999 12.7999 11.5999 12.7999 13.5999C12.7999 15.0999 13.3999 16.5999 14.5999 17.9999C15.6999 16.5999 17.4999 13.0999 14.5999 8.8999Z" fill="black"/>
<path d="M7.90002 12.9999C7.90002 12.9999 4.70002 21.1999 13 24.0999C13 24.0999 16 16.6999 7.90002 12.9999Z" fill="#FFD400"/>
<path d="M13.5 25.2999L12.6 24.9999C9.89997 23.9999 7.99997 22.4999 6.99997 20.2999C5.29997 16.6999 6.79997 12.7999 6.89997 12.5999L7.29997 11.5999L8.29997 11.9999C17.2 16.0999 13.9 24.2999 13.9 24.3999L13.5 25.2999ZM8.49997 14.3999C8.19997 15.5999 7.99997 17.5999 8.89997 19.3999C9.49997 20.7999 10.7 21.8999 12.3 22.5999C12.7 20.8999 13 16.9999 8.49997 14.3999Z" fill="black"/>
<path d="M4.19998 20.2999C4.19998 20.2999 3.89998 28.9999 12.6 29.0999C12.6 29.1999 13.1 21.2999 4.19998 20.2999Z" fill="#FFD400"/>
<path d="M13.4999 30.1999H12.5999C9.69994 30.1999 7.49994 29.2999 5.79994 27.5999C3.09994 24.6999 3.19994 20.4999 3.19994 20.3999V19.2999L4.29994 19.3999C13.9999 20.3999 13.5999 29.1999 13.5999 29.2999L13.4999 30.1999ZM5.19994 21.4999C5.29994 22.6999 5.79994 24.6999 7.19994 26.0999C8.29994 27.1999 9.69994 27.8999 11.4999 28.0999C11.2999 26.2999 10.2999 22.4999 5.19994 21.4999Z" fill="black"/>
<path d="M1.79993 27.3C1.79993 27.3 2.89993 36 11.5999 34.6C11.5999 34.6 10.6999 26.7 1.79993 27.3Z" fill="#FFD400"/>
<path d="M12.6999 35.4L11.7999 35.4999C8.99993 35.9999 6.59993 35.4999 4.69993 33.9999C1.49993 31.5999 0.899927 27.4999 0.899927 27.2999L0.799927 26.1999L1.89993 26.0999C11.6999 25.3999 12.6999 34.1999 12.6999 34.2999V35.4ZM3.09993 28.2999C3.49993 29.4999 4.19993 31.2999 5.89993 32.4999C7.09993 33.3999 8.69993 33.7999 10.4999 33.6999C9.89993 31.8999 8.19993 28.3999 3.09993 28.2999Z" fill="black"/>
<path d="M1.90002 34.7999C1.90002 34.7999 5.00002 42.9999 13.1 39.5999C13.1 39.5999 10.5 32.0999 1.90002 34.7999Z" fill="#FFD400"/>
<path d="M14.4 40.1998L13.5 40.5998C10.9 41.6998 8.39998 41.7998 6.19998 40.7998C2.59998 39.1998 0.999976 35.2998 0.999976 35.1998L0.599976 34.1998L1.59998 33.8998C11 30.9998 14 39.1998 14 39.2998L14.4 40.1998ZM3.39998 35.4998C3.99998 36.4998 5.19998 38.0998 6.99998 38.8998C8.39998 39.4998 9.99998 39.4998 11.7 38.9998C10.8 37.3998 8.39998 34.3998 3.39998 35.4998Z" fill="black"/>
<path d="M1.90002 41C1.90002 41 5.00002 49.2 13.1 45.8C13.1 45.8 10.5 38.3 1.90002 41Z" fill="#FFD400"/>
<path d="M14.4 46.2999L13.5 46.6999C10.9 47.7999 8.39998 47.8999 6.19998 46.8999C2.59998 45.3999 0.999976 41.4999 0.999976 41.3999L0.599976 40.3999L1.59998 40.0999C11 37.1999 14 45.3999 14 45.4999L14.4 46.2999ZM3.39998 41.5999C3.99998 42.6999 5.19998 44.2999 6.99998 45.0999C8.39998 45.6999 9.99998 45.6999 11.7 45.1999C10.8 43.5999 8.39998 40.5999 3.39998 41.5999Z" fill="black"/>
<path d="M3.40002 47.8998C3.40002 47.8998 7.90002 55.3998 15.3 50.5998C15.3 50.6998 11.4 43.7998 3.40002 47.8998Z" fill="#FFD400"/>
<path d="M16.6 50.9999L15.8 51.4999C13.4 53.0999 11 53.5999 8.7 52.9999C4.8 52.0999 2.6 48.5999 2.5 48.3999L2 47.4999L3 46.9999C11.7 42.4999 16.2 49.9999 16.2 50.0999L16.6 50.9999ZM5 48.2999C5.8 49.1999 7.3 50.5999 9.2 51.0999C10.7 51.3999 12.3 51.1999 13.9 50.3999C12.7 48.8999 9.7 46.3999 5 48.2999Z" fill="black"/>
<path d="M5.69995 54.9999C5.69995 54.9999 11.9 61.0999 17.9 54.6999C17.9 54.6999 12.4 48.9999 5.69995 54.9999Z" fill="#FFD400"/>
<path d="M19.3 54.7L18.7 55.4C16.7 57.5 14.6 58.5999 12.2 58.5999C8.19995 58.6999 5.19995 55.8 5.09995 55.7L4.19995 54.9999L4.99995 54.2C12.3 47.7 18.5 53.9 18.6 53.9999L19.3 54.7ZM7.29995 54.9999C8.29995 55.6999 10.1 56.7 12.1 56.7C13.6 56.7 15.1 55.9999 16.4 54.7999C14.9 53.6999 11.4 51.9 7.29995 54.9999Z" fill="black"/>
<path d="M10.2 60.8998C10.2 60.8998 17.4 65.8998 22.2 58.5998C22.2 58.4998 15.8 53.8998 10.2 60.8998Z" fill="#FFD400"/>
<path d="M23.5 58.2999L23 59.0999C21.4 61.4999 19.5 62.8999 17.1 63.3999C13.2 64.1999 9.79995 61.7999 9.59995 61.6999L8.69995 61.0999L9.39995 60.2999C15.5 52.5999 22.7 57.6999 22.7 57.7999L23.5 58.2999ZM11.8 60.5999C12.9 61.0999 14.8 61.7999 16.8 61.3999C18.3 61.0999 19.6 60.1999 20.8 58.7999C19.1 57.9999 15.4 56.8999 11.8 60.5999Z" fill="black"/>
<path d="M15.9 66.3999C15.9 66.3999 24.2 69.0999 26.7 60.6999C26.6 60.5999 19.1 57.9999 15.9 66.3999Z" fill="#FFD400"/>
<path d="M27.8 59.9999L27.5 60.8999C26.7 63.5999 25.2 65.5999 23.1 66.6999C19.6 68.5999 15.6 67.2999 15.4 67.2999L14.4 66.9999L14.8 65.9999C18.4 56.8999 26.7 59.6999 26.8 59.6999L27.8 59.9999ZM17.3 65.6999C18.5 65.8999 20.5 65.9999 22.3 64.9999C23.6 64.2999 24.7 63.0999 25.3 61.3999C23.5 61.0999 19.6 61.0999 17.3 65.6999Z" fill="black"/>
<path d="M21.7999 71.9C21.7999 71.9 30.4999 71.7 30.0999 63C30.0999 62.9 22.1999 62.9 21.7999 71.9Z" fill="#FFD400"/>
<path d="M31 61.9V62.7999C31.1 65.6999 30.4 67.9999 28.8 69.6999C26.1 72.5999 21.9 72.6999 21.7 72.6999H20.6V71.5999C21 61.7999 29.8 61.7 29.9 61.7L31 61.9ZM22.9 70.6999C24.1 70.4999 26 69.9 27.4 68.4C28.4 67.3 29 65.8 29.1 64C27.3 64.3 23.6 65.5999 22.9 70.6999Z" fill="black"/>
<path d="M29.5 71.7999C29.5 71.7999 38 69.8999 35.9 61.3999C35.9 61.3999 28.1 62.8999 29.5 71.7999Z" fill="#FFD400"/>
<path d="M36.6999 60.2999L36.8999 61.1999C37.5999 63.9999 37.2999 66.3999 36.0999 68.3999C33.9999 71.7999 29.8999 72.6999 29.7999 72.7999L28.7999 72.9999L28.5999 71.8999C27.0999 62.1999 35.6999 60.3999 35.7999 60.3999L36.6999 60.2999ZM30.3999 70.4999C31.4999 69.9999 33.2999 69.0999 34.3999 67.3999C35.1999 66.0999 35.4999 64.4999 35.1999 62.7999C33.4999 63.3999 30.0999 65.2999 30.3999 70.4999Z" fill="black"/>
<path d="M58.7001 7.29993C58.7001 7.29993 65.0001 13.3999 58.7001 19.4999C58.7001 19.4999 52.9001 14.0999 58.7001 7.29993Z" fill="#FFD400"/>
<path d="M58.1001 20.2999C58.0001 20.1999 51.6001 14.0999 58.0001 6.6999L58.7001 5.8999L59.5001 6.5999C59.6001 6.6999 62.6001 9.5999 62.6001 13.5999C62.6001 15.9999 61.6001 18.1999 59.5001 20.1999L58.8001 20.8999L58.1001 20.2999ZM58.8001 17.9999C60.0001 16.5999 60.6001 15.1999 60.6001 13.5999C60.6001 11.5999 59.6001 9.7999 58.8001 8.8999C55.8001 13.0999 57.6001 16.5999 58.8001 17.9999Z" fill="black"/>
<path d="M65.5001 12.9999C65.5001 12.9999 68.7001 21.1999 60.4001 24.0999C60.4001 24.0999 57.3001 16.6999 65.5001 12.9999Z" fill="#FFD400"/>
<path d="M59.5001 24.3999C59.5001 24.2999 56.2001 16.0999 65.1001 11.9999L66.1001 11.5999L66.5001 12.5999C66.6001 12.7999 68.0001 16.6999 66.4001 20.2999C65.4001 22.4999 63.5001 23.9999 60.8001 24.9999L59.9001 25.2999L59.5001 24.3999ZM61.0001 22.6999C62.6001 21.8999 63.8001 20.7999 64.4001 19.4999C65.2001 17.6999 65.0001 15.6999 64.8001 14.4999C60.4001 16.9999 60.6001 20.8999 61.0001 22.6999Z" fill="black"/>
<path d="M69.2001 20.2999C69.2001 20.2999 69.5001 28.9999 60.8001 29.0999C60.8001 29.1999 60.2001 21.2999 69.2001 20.2999Z" fill="#FFD400"/>
<path d="M59.8001 29.2C59.8001 29.1 59.3001 20.2999 69.1001 19.2999L70.2001 19.2V20.2999C70.2001 20.4999 70.3001 24.6 67.6001 27.5C66.0001 29.2 63.7001 30.1 60.8001 30.1H59.9001L59.8001 29.2ZM61.8001 28.1C63.6001 27.9 65.0001 27.2 66.1001 26.1C67.5001 24.6 68.0001 22.7 68.1001 21.5C63.0001 22.5 62.0001 26.3 61.8001 28.1Z" fill="black"/>
<path d="M71.5001 27.3C71.5001 27.3 70.4001 36 61.7001 34.6C61.7001 34.6 62.6001 26.7 71.5001 27.3Z" fill="#FFD400"/>
<path d="M60.8 34.4999C60.8 34.3999 61.9 25.6999 71.6 26.2999L72.7 26.3999L72.6 27.4999C72.6 27.6999 72.0001 31.7999 68.8001 34.1999C66.9001 35.5999 64.5001 36.0999 61.7001 35.6999L60.8 35.5999V34.4999ZM62.9001 33.6999C64.7001 33.7999 66.2 33.3999 67.5 32.4999C69.1 31.2999 69.9001 29.3999 70.3001 28.2999C65.1001 28.3999 63.5001 31.8999 62.9001 33.6999Z" fill="black"/>
<path d="M71.4001 34.7999C71.4001 34.7999 68.3001 42.9999 60.2001 39.5999C60.2001 39.5999 62.9001 32.0999 71.4001 34.7999Z" fill="#FFD400"/>
<path d="M59.3 39.2998C59.3 39.1998 62.4 30.9998 71.7 33.8998L72.7 34.1998L72.3 35.1998C72.2 35.3998 70.7 39.1998 67.1 40.7998C64.9 41.6998 62.5 41.6998 59.8 40.5998L58.9 40.1998L59.3 39.2998ZM61.6 38.9998C63.3 39.4998 64.9 39.4998 66.3 38.8998C68.2 38.0998 69.4 36.4998 70 35.3998C64.9 34.3998 62.5 37.3998 61.6 38.9998Z" fill="black"/>
<path d="M71.4001 41C71.4001 41 68.3001 49.2 60.2001 45.8C60.2001 45.8 62.9001 38.3 71.4001 41Z" fill="#FFD400"/>
<path d="M59.3 45.4999C59.3 45.3999 62.4 37.1999 71.7 40.0999L72.7 40.3999L72.3 41.3999C72.2 41.5999 70.7 45.3999 67.1 46.9999C64.9 47.8999 62.5 47.8999 59.8 46.7999L58.9 46.3999L59.3 45.4999ZM61.6 45.1999C63.3 45.6999 64.9 45.6999 66.3 45.0999C68.2 44.2999 69.4 42.6999 70 41.5999C64.9 40.5999 62.5 43.5999 61.6 45.1999Z" fill="black"/>
<path d="M69.9001 47.9C69.9001 47.9 65.4001 55.4 58.0001 50.6C58.0001 50.7 62.0001 43.8 69.9001 47.9Z" fill="#FFD400"/>
<path d="M57.2001 50.2C57.2001 50.1 61.7001 42.5 70.4001 47.1L71.3001 47.6L70.7001 48.5C70.6001 48.7 68.4001 52.2 64.5001 53.1C62.2001 53.6 59.8001 53.1 57.4001 51.6L56.7001 51L57.2001 50.2ZM59.5001 50.4C61.1001 51.2 62.7001 51.5 64.2001 51.1C66.2001 50.7 67.6001 49.3 68.4001 48.3C63.6001 46.4 60.6001 48.9 59.5001 50.4Z" fill="black"/>
<path d="M67.6001 54.9999C67.6001 54.9999 61.4001 61.0999 55.4001 54.6999C55.4001 54.6999 61.0001 48.9999 67.6001 54.9999Z" fill="#FFD400"/>
<path d="M54.7001 53.9999C54.8001 53.9 61.0001 47.7 68.3001 54.2L69.1001 54.9L68.3001 55.5999C68.2001 55.6999 65.2001 58.5999 61.2001 58.4999C58.8001 58.4999 56.6001 57.3999 54.7001 55.2999L54.1001 54.5999L54.7001 53.9999ZM56.9001 54.7999C58.3001 55.9999 59.7001 56.6 61.2001 56.7C63.2001 56.7 65.0001 55.8 66.0001 54.9999C61.9001 51.9 58.4001 53.6999 56.9001 54.7999Z" fill="black"/>
<path d="M63.1001 60.8998C63.1001 60.8998 55.9001 65.8998 51.1001 58.5998C51.1001 58.4998 57.5001 53.8998 63.1001 60.8998Z" fill="#FFD400"/>
<path d="M50.5001 57.6999C50.6001 57.5999 57.7001 52.4999 63.8001 60.1999L64.5001 60.9999L63.6001 61.5999C63.5001 61.6999 60.0001 64.0999 56.1001 63.2999C53.8001 62.7999 51.8001 61.3999 50.2001 58.9999L49.7001 58.1999L50.5001 57.6999ZM52.6001 58.8999C53.7001 60.2999 55.1001 61.1999 56.6001 61.4999C58.6001 61.8999 60.5001 61.1999 61.6001 60.6999C58.0001 56.8999 54.2001 57.9999 52.6001 58.8999Z" fill="black"/>
<path d="M57.5 66.3999C57.5 66.3999 49.2 69.0999 46.7 60.6999C46.7 60.5999 54.2 57.9999 57.5 66.3999Z" fill="#FFD400"/>
<path d="M46.4 59.6999C46.5 59.6999 54.8 56.8999 58.4 65.9999L58.8 66.9999L57.8 67.2999C57.6 67.3999 53.7 68.5999 50.1 66.6999C48 65.5999 46.5 63.5999 45.7 60.8999L45.5 59.9999L46.4 59.6999ZM48 61.3999C48.7 63.0999 49.7 64.2999 51 64.9999C52.8 65.9999 54.8 65.8999 56 65.6999C53.7 61.0999 49.8 61.0999 48 61.3999Z" fill="black"/>
<path d="M51.5 71.8999C51.5 71.8999 42.8 71.6999 43.2 62.9999C43.2 62.8999 51.2 62.8999 51.5 71.8999Z" fill="#FFD400"/>
<path d="M43.2 61.8999C43.3 61.8999 52.1 61.9999 52.5 71.7999V72.8999H51.4C51.2 72.8999 47.1 72.7999 44.3 69.8999C42.7 68.1999 41.9 65.7999 42.1 62.9999V62.0999L43.2 61.8999ZM44.2 63.9999C44.3 65.7999 44.8 67.2999 45.9 68.3999C47.3 69.8999 49.2 70.4999 50.4 70.6999C49.7 65.5999 46 64.2999 44.2 63.9999Z" fill="black"/>
<path d="M43.8 71.7999C43.8 71.7999 35.3 69.8999 37.4 61.3999C37.4 61.3999 45.2 62.8999 43.8 71.7999Z" fill="#FFD400"/>
<path d="M37.6001 60.3999C37.7001 60.3999 46.3001 62.1999 44.8001 71.8999L44.6001 72.9999L43.6001 72.7999C43.4001 72.7999 39.4001 71.7999 37.3001 68.3999C36.0001 66.3999 35.8001 63.8999 36.5001 61.1999L36.7001 60.2999L37.6001 60.3999ZM38.2001 62.6999C37.9001 64.4999 38.2001 65.9999 39.0001 67.2999C40.1001 68.9999 41.8001 69.9999 43.0001 70.3999C43.3001 65.2999 39.9001 63.3999 38.2001 62.6999Z" fill="black"/>
<path fill-rule="evenodd" clip-rule="evenodd" d="M42.2 24.4001L38.8 18.1001C38.6 17.7001 38.2 17.3001 37.8 17.1001C36.6 16.4001 35 16.9001 34.4 18.1001L31 24.3001L24 25.6001C23.5 25.7001 23 25.9001 22.6 26.3001C21.6 27.3001 21.6 28.9001 22.5 29.9001L27.4 35.0001L26.5 41.9001C26.4 42.4001 26.4 43.0001 26.7 43.5001C27.3 44.8001 28.8 45.3001 30.1 44.7001L36.4 41.6001L42.9 44.7001C43.3 44.9001 43.8 45.0001 44.3 44.9001C45.7 44.7001 46.7 43.4001 46.5 42.0001L45.5 35.0001L50.3 29.9001C50.7 29.5001 51 29.0001 51.1 28.5001C51.3 27.1001 50.4 25.8001 49 25.5001L42.2 24.4001Z" fill="#FFA300"/>
<path fill-rule="evenodd" clip-rule="evenodd" d="M42.9 44.7001L36.4 41.6001L30.1 44.7001C28.8 45.3001 27.3 44.8001 26.7 43.5001C26.4 43.0001 26.4 42.4001 26.5 41.9001L27.4 35.0001L22.5 29.9001C21.5 28.9001 21.6 27.3001 22.6 26.3001C23 25.9001 23.5 25.7001 24 25.6001L31 24.3001L34.3 18.1001C35 16.9001 36.5 16.4001 37.7 17.1001C38.2 17.3001 38.5 17.7001 38.7 18.1001L42.1 24.4001L49 25.6001C50.4 25.8001 51.3 27.2001 51.1 28.6001C51 29.2001 50.7 29.7001 50.3 30.0001L45.5 35.1001L46.5 42.1001C46.7 43.5001 45.7 44.8001 44.3 45.0001C43.8 45.0001 43.3 44.9001 42.9 44.7001ZM15.6 17.5001V35.3001C15.6 41.0001 17.9 46.3001 21.5 50.6001C25.4 55.2001 30.7 58.6001 36.5 60.3001C42.2 58.6001 47.6 55.2001 51.5 50.6001C55.2 46.3001 57.4 41.0001 57.4 35.3001V17.5001L36.5 6.90015L15.6 17.5001Z" fill="#FFD400"/>
<path fill-rule="evenodd" clip-rule="evenodd" d="M51.5 50.6001C47.6 55.1001 42.3 58.6001 36.5 60.3001C30.8 58.6001 25.4 55.2001 21.5 50.6001C17.8 46.3001 15.6 41.0001 15.6 35.3001V17.5001L36.5 6.90013L57.4 17.5001V35.3001C57.4 41.0001 55.1 46.2001 51.5 50.6001ZM37.8 1.60013C37.1 1.20013 36.1 1.10013 35.3 1.60013L11.9 13.5001C11 13.9001 10.4 14.8001 10.4 15.9001V35.3001C10.4 42.4001 13.2 48.8001 17.6 54.0001C22.3 59.5001 28.8 63.6001 35.8 65.5001C36.2 65.6001 36.7 65.6001 37.2 65.5001C44.3 63.6001 50.8 59.5001 55.5 54.0001C59.9 48.8001 62.7 42.3001 62.7 35.3001V15.9001C62.7 15.0001 62.2 14.1001 61.4 13.6001L37.8 1.60013Z" fill="#FFA300"/>
<path d="M31.2 24.7001L36.5 30.9001L41.5999 24.7001L38 16.4001L35 16.7001L31.2 24.7001Z" fill="#004FFF"/>
<path d="M27.4 43.2001L27.5 35.0001L36.6 30.9001L36.5 41.7001L28.8 44.8001L27.4 43.2001Z" fill="#0030B5"/>
<path d="M44.2 44.7001L36.4 41.6L36.5 30.8L45.6 35L46.4 43.2001L44.2 44.7001Z" fill="#004FFF"/>
<path d="M21.9 28.9001L27.4 35.0001L36.5 30.9001L31.2 24.7001L23.1 25.6001L21.9 28.9001Z" fill="#ABB9FF"/>
<path d="M41.6 24.7001L36.5 30.9001L45.6 35.1001L50.9 29.0001L50.2 26.3001L41.6 24.7001Z" fill="#0030B5"/>
<path d="M63.9 15.9001C63.9 14.5001 63.1 13.1001 61.9 12.5001C61.9 12.5001 61.9 12.5001 61.8 12.5001L38.4 0.500098C37.2 -0.199902 35.8 -0.199902 34.7 0.500098L11.3 12.3001C9.99998 13.0001 9.09998 14.4001 9.09998 15.9001V35.3001C9.09998 42.3001 11.7 49.1001 16.6 54.9001C21.4 60.6001 28.1 64.8001 35.4 66.8001C35.8 66.9001 36.1 67.0001 36.5 67.0001C36.8 67.0001 37.2 67.0001 37.5 66.9001C44.9 64.9001 51.6 60.6001 56.4 55.0001C61.3 49.2001 63.9 42.5001 63.9 35.4001V15.9001ZM54.4 53.1001C49.9 58.4001 43.6 62.3001 36.8 64.2001C36.6 64.3001 36.4 64.3001 36.1 64.2001C29.3 62.3001 23 58.4001 18.5 53.1001C14 47.8001 11.6 41.6001 11.6 35.2001V15.9001C11.6 15.4001 11.9 14.9001 12.3 14.7001L35.8 2.8001C35.8 2.8001 35.8 2.8001 35.9 2.8001C36.1 2.7001 36.3 2.6001 36.5 2.6001C36.7 2.6001 36.9 2.7001 37.1 2.8001C37.1 2.8001 37.1 2.8001 37.2 2.8001L60.7 14.7001C61.1 14.9001 61.4 15.4001 61.4 15.9001V35.3001C61.3 41.6001 58.9 47.8001 54.4 53.1001Z" fill="black"/>
<path d="M57.9999 16.3L37.0999 5.70005C36.6999 5.50005 36.2999 5.50005 35.8999 5.70005L30.6999 8.30005C30.0999 8.60005 29.7999 9.40005 30.0999 10.1C30.3999 10.7 31.1999 11 31.8999 10.7L36.4999 8.40005L56.0999 18.3V35.3C56.0999 40.4 54.1999 45.4 50.4999 49.8C46.8999 54 41.9999 57.2001 36.4999 59C31.0999 57.3 26.0999 54 22.4999 49.9001C18.7999 45.6001 16.8999 40.6001 16.8999 35.4001V18.4L21.3999 16.1C21.9999 15.8 22.2999 15 21.9999 14.3C21.6999 13.7 20.8999 13.4 20.1999 13.7L14.9999 16.3C14.5999 16.5 14.2999 17 14.2999 17.5V35.3C14.2999 41.1 16.4999 46.7001 20.4999 51.5C24.4999 56.2001 29.9999 59.8 36.0999 61.6C36.1999 61.6 36.2999 61.7001 36.4999 61.7001C36.5999 61.7001 36.6999 61.7 36.8999 61.6C42.9999 59.8 48.4999 56.2001 52.4999 51.5C56.5999 46.7001 58.6999 41.1 58.6999 35.3V17.5C58.6999 17 58.3999 16.5 57.9999 16.3Z" fill="black"/>
<path d="M26 13.5001C26.7 13.5001 27.2999 12.9001 27.2999 12.2001C27.2999 11.5001 26.7 10.9001 26 10.9001C25.3 10.9001 24.7 11.5001 24.7 12.2001C24.7 12.9001 25.3 13.5001 26 13.5001Z" fill="black"/>
<path d="M21.6 30.8001L26.1 35.4001L25.3 41.7001C25.1 42.5001 25.2 43.4001 25.6 44.1001C26.3 45.5001 27.6 46.3001 29.1 46.3001C29.7 46.3001 30.2 46.2001 30.8 45.9001L36.6 43.1001L42.5 45.9001C43.2 46.2001 43.9 46.3001 44.7 46.2001C45.7 46.1001 46.6 45.5001 47.2 44.7001C47.8 43.9001 48.1 42.9001 47.9 41.9001L47 35.5001L51.4 30.9001C52 30.3001 52.4 29.6001 52.5 28.8001C52.7 27.8001 52.4 26.8001 51.9 25.9001C51.3 25.1001 50.4 24.5001 49.4 24.3001L43 23.2001L39.9 17.5001C39.5 16.8001 39 16.3001 38.3 15.9001C36.4 14.9001 34.1 15.6001 33.1 17.5001L30 23.2001L23.7 24.4001C22.9 24.5001 22.2 24.9001 21.6 25.4001C20.1 26.8001 20.1 29.2001 21.6 30.8001ZM23.5 27.2001C23.7 27.0001 23.9 26.9001 24.2 26.9001L31.2 25.6001C31.6 25.5001 31.9 25.3001 32.1 24.9001L35.4 18.7001C35.6 18.3001 36.1 18.0001 36.5 18.0001C36.7 18.0001 36.9 18.1001 37.1 18.1001C37.3 18.2001 37.5 18.4001 37.6 18.6001L41 25.0001C41.2 25.4001 41.5 25.6001 41.9 25.7001L48.8 26.9001C49.1 27.0001 49.4 27.1001 49.6 27.4001C49.8 27.7001 49.9 28.0001 49.8 28.3001C49.7 28.6001 49.6 28.8001 49.4 29.0001C49.4 29.0001 49.4 29.0001 49.3 29.1001L44.5 34.2001C44.2 34.5001 44.1 34.9001 44.2 35.3001L45.2 42.3001C45.2 42.6001 45.2 43.0001 45 43.2001C44.8 43.5001 44.5 43.6001 44.2 43.7001C44 43.7001 43.7 43.7001 43.5 43.6001L37 40.4001C36.6 40.2001 36.2 40.2001 35.9 40.4001L29.6 43.5001C29 43.8001 28.2 43.5001 27.9 42.9001C27.7 42.6001 27.8 42.3001 27.8 42.1001V42.0001L28.7 35.1001C28.8 34.7001 28.6 34.3001 28.3 34.0001L23.5 29.0001C23 28.5001 23 27.7001 23.5 27.2001Z" fill="black"/>
<path d="M40.8 56.2001H62.6C63.2 56.2001 63.7 56.6001 63.8 57.1001C64 57.6001 63.8 58.1001 63.5 58.5001L63.4 58.6001L59.3 61.9001L63.4 65.0001C63.8 65.3001 64 65.9001 63.9 66.5001C63.8 66.7001 63.7 66.9001 63.6 67.0001C63.4 67.2001 63.1 67.4001 62.7 67.4001C62.2 67.4001 50.9 67.8001 46.3 67.4001C40.8 66.9001 39.6 58.1001 39.5 57.8001C39.5 57.4001 39.6 57.0001 39.8 56.8001C39.8 56.8001 39.8 56.8001 39.9 56.7001C40.1 56.3001 40.4 56.2001 40.8 56.2001Z" fill="#FF0000"/>
<path d="M46.3 66C41.8 65.6 40.7 57.5 40.7 57.5H57H62.5L57 61.8L62.5 65.9001C62.5 66.0001 50.8 66.4 46.3 66ZM64.5 67.8001C65.5 66.8001 65.4 65.1 64.4 64.1C64.3 64 64.2 63.9 64.1 63.8L61.4 61.7001L64.1999 59.5C64.2999 59.4 64.4 59.4 64.4 59.3C65.1 58.6 65.4 57.5 65 56.6C64.6 55.5 63.6 54.8 62.5 54.8H57H40.7C40 54.8 39.3 55.1 38.8 55.6L38.7 55.7001C38.2 56.3001 38 57 38.1 57.8C38.1 57.9 38.4 60.2 39.4 62.5C41.3 67.2 44.1 68.4 46.1 68.5C50.7 68.9 62.1 68.5 62.6 68.5C63.2 68.5 63.8 68.2001 64.3 67.8001C64.3 67.9001 64.4 67.9001 64.5 67.8001C64.4 67.8001 64.4 67.8001 64.5 67.8001Z" fill="black"/>
<path d="M32.2999 57.2001C32.5999 57.6001 32.6999 57.9001 32.6999 58.3001C32.6999 58.7001 31.3999 67.4001 25.8999 67.9001C21.3999 68.3001 9.99991 67.9001 9.49991 67.9001C9.19991 67.9001 8.79991 67.7001 8.59991 67.5001C8.49991 67.4001 8.29991 67.2001 8.29991 67.0001C8.09991 66.5001 8.29991 65.9001 8.79991 65.5001L12.8999 62.4001L8.79991 59.1001L8.69991 59.0001C8.29991 58.6001 8.19991 58.1001 8.39991 57.6001C8.59991 57.1001 9.09991 56.7001 9.59991 56.7001H31.3999C31.6999 56.8001 31.9999 56.9001 32.2999 57.2001Z" fill="#FF0000"/>
<path d="M9.59995 66.6001L15 62.5001L9.49995 58.2001H15H31.2999C31.2999 58.2001 30.2 66.3001 25.7 66.7001C21.3 67.0001 9.59995 66.6001 9.59995 66.6001ZM7.69995 68.4001C7.69995 68.5001 7.79995 68.5001 7.69995 68.4001C8.29995 68.9001 8.89995 69.2001 9.49995 69.2001C10.1 69.2001 21.4 69.6001 26 69.2001C28 69.0001 30.8 67.8001 32.7 63.2001C33.6 60.8001 33.9 58.6001 34 58.5001C34.1 57.7001 33.9 57.0001 33.4 56.4001L33.2999 56.3001C32.7999 55.8001 32.1 55.5001 31.4 55.5001H15.1H9.59995C8.49995 55.5001 7.49995 56.2001 7.09995 57.3001C6.79995 58.3001 6.99995 59.3001 7.69995 60.0001C7.79995 60.1001 7.79995 60.1001 7.89995 60.2001L10.7 62.4001L7.99995 64.4001C7.89995 64.5001 7.79995 64.6001 7.69995 64.7001C6.69995 65.7001 6.69995 67.3001 7.69995 68.4001Z" fill="black"/>
<path d="M49.2999 54.6001H23.7V65.4001H49.2999V54.6001Z" fill="#FF0000"/>
<path d="M49.2999 66.9001H23.7C22.9 66.9001 22.2 66.2001 22.2 65.4001V54.6001C22.2 53.8001 22.9 53.1001 23.7 53.1001H49.2999C50.0999 53.1001 50.7999 53.8001 50.7999 54.6001V65.4001C50.7999 66.2001 50.1999 66.9001 49.2999 66.9001ZM25.2 63.9001H47.7999V56.1001H25.2V63.9001Z" fill="black"/>
</g>
<defs>
<clipPath id="clip0">
<rect width="73" height="73" fill="white"/>
</clipPath>
</defs>
</svg>
