<svg width="73" height="73" viewBox="0 0 73 73" fill="none" xmlns="http://www.w3.org/2000/svg">
<path fill-rule="evenodd" clip-rule="evenodd" d="M64.5993 58.5781H8.38213C8.37785 58.5781 8.375 58.5781 8.37072 58.5781C6.60703 58.5838 5.16699 60.0281 5.16699 61.7933C5.16699 63.5612 6.61416 65.0084 8.38213 65.0084H64.5993C66.3672 65.0084 67.8144 63.5612 67.8144 61.7933C67.8144 60.0281 66.3744 58.5838 64.6107 58.5781C64.6064 58.5781 64.6035 58.5781 64.5993 58.5781Z" fill="#FFA300"/>
<path fill-rule="evenodd" clip-rule="evenodd" d="M8.38213 58.5782H64.5993H64.6107V44.2876C64.6064 44.2876 64.6035 44.2876 64.5993 44.2876H8.38213C8.37786 44.2876 8.375 44.2876 8.37073 44.2876V58.5782H8.38213Z" fill="#FFD400"/>
<path fill-rule="evenodd" clip-rule="evenodd" d="M8.38213 44.2876H64.5993H64.6107C66.3744 44.2819 67.8144 42.8376 67.8144 41.0724C67.8144 39.3073 66.3744 37.863 64.6107 37.8573C64.6064 37.8573 64.6035 37.8573 64.5993 37.8573H8.38926H8.38213C6.61416 37.8573 5.16699 39.3045 5.16699 41.0724C5.16699 42.8376 6.60703 44.2819 8.37072 44.2876H8.38213Z" fill="#FFA300"/>
<path d="M36.49 32.1414C38.8492 32.1414 40.7617 29.5823 40.7617 26.4254C40.7617 23.2686 38.8492 20.7095 36.49 20.7095C34.1309 20.7095 32.2184 23.2686 32.2184 26.4254C32.2184 29.5823 34.1309 32.1414 36.49 32.1414Z" fill="#FF5D7D"/>
<path fill-rule="evenodd" clip-rule="evenodd" d="M40.7616 26.4254C40.7616 29.5821 38.8497 32.1414 36.49 32.1414C34.1303 32.1414 32.2183 29.5821 32.2183 26.4254C32.2183 23.2687 34.1303 20.7094 36.49 20.7094C38.8497 20.7094 40.7616 23.2687 40.7616 26.4254ZM6.24347 32.0088C7.11604 34.0205 7.90165 36.0081 8.38927 37.8559H64.5993H64.6107C65.0969 36.0081 65.8839 34.0191 66.7565 32.0088C66.2803 32.1613 65.7855 32.1856 65.305 32.0572C63.5955 31.5981 62.7058 29.3711 63.3161 27.0841C63.9263 24.7972 65.8069 23.3158 67.5164 23.7749C68.4603 24.0287 69.1532 24.8214 69.4826 25.8636C71.3546 21.4551 72.5337 17.5442 70.4977 15.5011C66.2974 11.285 57.9965 22.0654 52.6854 20.6367C45.6692 18.7504 41.5815 7.99005 36.51 7.99005C36.5071 7.99005 36.5028 7.99005 36.5 7.99005C36.4971 7.99005 36.4943 7.99005 36.49 7.99005C31.4185 7.99005 27.3308 18.7504 20.3145 20.6367C15.0035 22.0654 6.70257 11.2836 2.50222 15.5011C0.4662 17.5456 1.64532 21.4566 3.51737 25.8636C3.84673 24.82 4.54108 24.0287 5.48495 23.7749C7.19446 23.3158 9.07364 24.7972 9.6853 27.0841C10.2955 29.3711 9.40585 31.5981 7.69634 32.0572C7.21442 32.187 6.71968 32.1627 6.24347 32.0088Z" fill="#FFD400"/>
<path fill-rule="evenodd" clip-rule="evenodd" d="M63.316 27.0841C62.7058 29.371 63.5955 31.5981 65.305 32.0572C65.7855 32.187 66.2802 32.1627 66.7564 32.0087C67.9712 31.6181 69.0662 30.3905 69.5053 28.748C69.7791 27.7228 69.7506 26.7105 69.484 25.8636C69.1546 24.82 68.4602 24.0286 67.5164 23.7749C65.8069 23.3158 63.9263 24.7971 63.316 27.0841Z" fill="#FF6700"/>
<path fill-rule="evenodd" clip-rule="evenodd" d="M7.69634 32.0572C9.40585 31.5981 10.2955 29.371 9.68531 27.0841C9.07507 24.7971 7.19446 23.3158 5.48495 23.7749C4.54109 24.0286 3.84816 24.8214 3.51737 25.8636C3.24933 26.7105 3.22224 27.7228 3.49599 28.748C3.93513 30.3919 5.0287 31.6181 6.24489 32.0087C6.71968 32.1627 7.21443 32.187 7.69634 32.0572Z" fill="#FF6700"/>
<path d="M36.49 33.5672C39.631 33.5672 42.1874 30.3634 42.1874 26.4254C42.1874 22.4874 39.6324 19.2837 36.49 19.2837C33.349 19.2837 30.7926 22.4874 30.7926 26.4254C30.7926 30.3634 33.349 33.5672 36.49 33.5672ZM36.49 22.1338C38.0327 22.1338 39.3359 24.0986 39.3359 26.424C39.3359 28.7495 38.0327 30.7142 36.49 30.7142C34.9473 30.7142 33.6442 28.7495 33.6442 26.424C33.6442 24.1 34.9473 22.1338 36.49 22.1338Z" fill="black"/>
<path d="M71.5072 14.4958C68.4161 11.3933 64.1331 14.0353 60.3547 16.3679C57.7841 17.9534 54.8712 19.7513 53.0547 19.2622C50.1789 18.4895 47.5313 15.5224 44.9691 12.6537C42.1746 9.52415 39.5341 6.56708 36.49 6.56708C33.3405 6.56708 30.8282 9.46997 28.1677 12.5454C25.6683 15.4326 23.0834 18.4196 19.9453 19.2637C18.1288 19.7513 15.2159 17.9548 12.6453 16.3693C8.86693 14.0382 4.58389 11.3962 1.49279 14.4973C-1.22189 17.2219 0.268047 21.793 2.01035 25.9606C1.80361 26.9301 1.82357 28.0151 2.11871 29.1187C2.56783 30.7997 3.58584 32.2041 4.91182 32.9697C4.99451 33.0167 5.07721 33.0624 5.16133 33.1037C5.63611 34.2158 6.15795 35.5062 6.58426 36.7965C4.91467 37.4994 3.73982 39.1533 3.73982 41.0753C3.73982 43.1327 5.08576 44.8807 6.94356 45.4866V57.3833C5.08576 57.9893 3.73982 59.7373 3.73982 61.7947C3.73982 64.354 5.82147 66.4356 8.38074 66.4356H64.5979C67.1572 66.4356 69.2388 64.354 69.2388 61.7947C69.2388 59.7373 67.8929 57.9893 66.0351 57.3833V45.4866C67.8929 44.8807 69.2388 43.1327 69.2388 41.0753C69.2388 39.159 68.0725 37.5122 66.4115 36.8036C66.8378 35.5104 67.361 34.2173 67.8372 33.1037C67.9214 33.0624 68.0041 33.0167 68.0868 32.9697C69.4127 32.2041 70.4322 30.7997 70.8799 29.1187C71.175 28.0151 71.195 26.9315 70.9882 25.9606C72.732 21.7916 74.2219 17.2205 71.5072 14.4958ZM3.5117 16.5076C4.90469 15.1104 7.43973 16.5048 11.1482 18.7932C14.359 20.7736 17.6797 22.8224 20.6852 22.014C24.6674 20.9432 27.6716 17.4715 30.3221 14.4089C32.5435 11.841 34.6436 9.41721 36.4886 9.41721C38.2566 9.41721 40.5877 12.0278 42.8419 14.5515C45.5494 17.5841 48.6177 21.0202 52.3133 22.014C55.3189 22.8224 58.6395 20.7736 61.8504 18.7932C65.5588 16.5048 68.0939 15.1104 69.4869 16.5076C70.646 17.6711 70.0686 20.3045 69.1019 22.9636C68.7369 22.7112 68.3306 22.5187 67.8843 22.399C66.852 22.1209 65.7328 22.2877 64.7305 22.8652C63.4045 23.6308 62.3851 25.0352 61.9374 26.7162C61.1432 29.6904 62.3309 32.5306 64.6506 33.3447C64.2571 34.3228 63.865 35.3764 63.5385 36.4315H9.46148C9.13498 35.3764 8.74289 34.3228 8.34938 33.3447C10.6691 32.5306 11.8554 29.6904 11.0612 26.7162C10.6121 25.0352 9.59408 23.6308 8.26811 22.8652C7.26578 22.2863 6.14654 22.1209 5.11428 22.399C4.66943 22.5187 4.26166 22.7112 3.89666 22.9636C2.92998 20.3045 2.35254 17.6711 3.5117 16.5076ZM5.85426 25.1521C6.23352 25.0509 6.59994 25.1949 6.84233 25.3346C7.50816 25.7196 8.05567 26.5109 8.3066 27.4519C8.74147 29.0816 8.13836 30.4617 7.32424 30.6813C6.94498 30.7825 6.57856 30.6385 6.33617 30.4988C5.67033 30.1139 5.12283 29.3225 4.87189 28.3815C4.43846 26.7504 5.04156 25.3703 5.85426 25.1521ZM64.5993 63.5826H8.38217C7.39553 63.5826 6.59281 62.7799 6.59281 61.7933C6.59281 60.8066 7.39553 60.0039 8.38217 60.0039H64.5993C65.5859 60.0039 66.3887 60.8066 66.3887 61.7933C66.3887 62.7799 65.5859 63.5826 64.5993 63.5826ZM64.5993 42.8618H42.9046C42.1176 42.8618 41.4788 43.5005 41.4788 44.2875C41.4788 45.0746 42.1176 45.7133 42.9046 45.7133H63.1864V57.1524H9.79512V45.7133H30.0754C30.8625 45.7133 31.5012 45.0746 31.5012 44.2875C31.5012 43.5005 30.8625 42.8618 30.0754 42.8618H8.38217C7.39553 42.8618 6.59281 42.0591 6.59281 41.0724C6.59281 40.0858 7.39553 39.2831 8.38217 39.2831C8.38502 39.2831 8.38645 39.2831 8.3893 39.2831C8.39072 39.2831 8.39215 39.2831 8.395 39.2831H64.6007C65.5874 39.2831 66.3901 40.0858 66.3901 41.0724C66.3887 42.0591 65.5859 42.8618 64.5993 42.8618ZM68.1267 28.3815C67.8757 29.3225 67.3282 30.1139 66.6624 30.4988C66.4214 30.6385 66.0536 30.7825 65.6743 30.6813C64.8602 30.4617 64.2571 29.083 64.692 27.4519C64.9429 26.5109 65.4904 25.7196 66.1562 25.3346C66.3416 25.2277 66.5997 25.1179 66.8805 25.1179C66.9661 25.1179 67.0545 25.1279 67.1443 25.1521C67.9584 25.3703 68.563 26.7504 68.1267 28.3815Z" fill="black"/>
<path d="M36.4901 42.8617C35.7017 42.8617 35.0643 43.5004 35.0643 44.2875C35.0643 45.0745 35.7031 45.7133 36.4901 45.7133C37.2771 45.7133 37.9159 45.0745 37.9159 44.2875C37.9159 43.5004 37.2771 42.8617 36.4901 42.8617Z" fill="black"/>
<path fill-rule="evenodd" clip-rule="evenodd" d="M46.05 26.7975C46.05 32.5605 42.4941 36.1749 36.3247 36.1749C29.9087 36.1749 26.5139 32.1485 26.5139 26.3855C26.5139 20.6225 31.018 17.8123 36.3247 16.3637C38.9952 15.6351 42.4955 19.0099 44.4531 20.9661C46.4093 22.9223 46.4535 23.4199 46.4535 26.1873L46.05 26.7975Z" fill="#71EBFF"/>
<path d="M27.2011 23.3885L36.3333 26.2187V16.887L36.3233 15.8362L26.5139 22.7598L27.2011 23.3885Z" fill="#E6FEFF"/>
<path d="M42.2103 33.7525L36.3275 26.2187L30.325 34.2829L30.4091 34.7477L42.4156 34.6622L42.2103 33.7525Z" fill="#E6FEFF"/>
<path d="M42.1832 34.2829L36.3333 26.2187L45.7235 23.3828H46.2239L42.1832 34.2829Z" fill="#00CED8"/>
<path d="M43.7373 36.4216H28.7138L24.7288 22.5245L36.3161 14.2735L48.2513 22.5302L43.7373 36.4216ZM30.325 34.2829H42.1832L45.7234 23.3828L36.3318 16.8855L27.1996 23.3885L30.325 34.2829Z" fill="black"/>
</svg>
