<svg width="73" height="73" viewBox="0 0 73 73" fill="none" xmlns="http://www.w3.org/2000/svg">
<g clip-path="url(#clip0)">
<path fill-rule="evenodd" clip-rule="evenodd" d="M38.7699 24.452L37.3954 21.9227C37.3027 21.753 37.163 21.6076 36.9791 21.5106C36.4829 21.2454 35.8641 21.4336 35.6003 21.9298L34.2729 24.4221L31.4727 24.9425C31.2702 24.9724 31.0763 25.0637 30.9181 25.2162C30.5117 25.6069 30.4989 26.2528 30.8896 26.6591L32.85 28.6937L32.485 31.4768C32.4408 31.6907 32.465 31.9188 32.5677 32.1299C32.8144 32.6374 33.4275 32.8484 33.935 32.6018L36.4729 31.3671L39.0735 32.6061C39.2475 32.6888 39.4485 32.723 39.6538 32.6945C40.2127 32.6175 40.602 32.1013 40.525 31.5439L40.1343 28.7465L42.0748 26.7005C42.2317 26.5536 42.3443 26.3569 42.3842 26.1287C42.4812 25.5727 42.109 25.0423 41.553 24.9453L38.7699 24.452Z" fill="#FFA300"/>
<path fill-rule="evenodd" clip-rule="evenodd" d="M42.072 26.699L40.1315 28.745L40.5221 31.5424C40.5991 32.1013 40.2085 32.616 39.651 32.693C39.4457 32.7215 39.2446 32.6887 39.0707 32.6046L36.4701 31.3656L33.9322 32.6003C33.4246 32.847 32.8129 32.636 32.5648 32.1284C32.4622 31.9174 32.438 31.6878 32.4821 31.4754L32.8471 28.6923L30.8867 26.6577C30.496 26.2513 30.5089 25.6054 30.9152 25.2148C31.0735 25.0622 31.2688 24.971 31.4698 24.941L34.2701 24.4206L35.5975 21.9284C35.8627 21.4322 36.48 21.244 36.9762 21.5092C37.1587 21.6061 37.2999 21.7516 37.3925 21.9212L38.767 24.4506L41.5473 24.9425C42.1033 25.0394 42.4755 25.5698 42.3785 26.1259C42.3414 26.3554 42.2288 26.5536 42.072 26.699ZM36.5 39.2031C42.7991 39.2031 47.9062 34.096 47.9062 27.7969C47.9062 21.4978 42.7991 16.3906 36.5 16.3906C30.2009 16.3906 25.0938 21.4978 25.0938 27.7969C25.0938 34.096 30.2009 39.2031 36.5 39.2031Z" fill="#C7D9DA"/>
<path fill-rule="evenodd" clip-rule="evenodd" d="M60.4146 42.0547H12.5853V47.7578V50.6094H17.3674H55.6311H60.4132V47.7578L60.4146 42.0547Z" fill="#FF0000"/>
<path fill-rule="evenodd" clip-rule="evenodd" d="M60.4146 47.7578V50.6094H55.6326V56.3125H71.5742L68.3862 52.0352L71.5742 47.7578H60.4146Z" fill="#FF0000"/>
<path fill-rule="evenodd" clip-rule="evenodd" d="M17.3689 56.3125V50.6094H12.5854V47.7578H1.42578L4.61383 52.0352L1.42578 56.3125H17.3689Z" fill="#FF0000"/>
<path fill-rule="evenodd" clip-rule="evenodd" d="M27.0414 42.0547H45.9601V42.0533C50.7379 38.8823 53.6094 33.5299 53.6094 27.7969C53.6094 26.3198 53.4226 24.8869 53.0704 23.5195C52.4588 21.1413 51.3481 18.9627 49.8567 17.1035C46.7214 13.1926 41.9037 10.6875 36.5 10.6875C31.0963 10.6875 26.2786 13.1926 23.1433 17.1035C21.6519 18.9627 20.5412 21.1413 19.9296 23.5195C19.5774 24.8869 19.3906 26.3198 19.3906 27.7969C19.3906 33.5314 22.2621 38.8838 27.0414 42.0547ZM36.5 39.2031C30.2009 39.2031 25.0938 34.096 25.0938 27.7969C25.0938 21.4978 30.2009 16.3906 36.5 16.3906C42.7991 16.3906 47.9062 21.4978 47.9062 27.7969C47.9062 34.096 42.7991 39.2031 36.5 39.2031Z" fill="#FFA300"/>
<path fill-rule="evenodd" clip-rule="evenodd" d="M7.8418 23.5195H19.9296C20.5412 21.1413 21.6519 18.9627 23.1433 17.1035H1.42578C1.42578 20.6323 4.31299 23.5195 7.8418 23.5195Z" fill="#FFCE00"/>
<path fill-rule="evenodd" clip-rule="evenodd" d="M49.8567 17.1035C51.3481 18.9627 52.4587 21.1413 53.0704 23.5195H65.1582C68.687 23.5195 71.5742 20.6323 71.5742 17.1035H49.8567Z" fill="#FFCE00"/>
<path fill-rule="evenodd" clip-rule="evenodd" d="M19.3906 27.7969C19.3906 26.3198 19.5774 24.8869 19.9296 23.5195H7.8418C7.8418 27.0483 10.729 29.9355 14.2578 29.9355H19.5246C19.4362 29.2312 19.3906 28.5169 19.3906 27.7969Z" fill="#FFCE00"/>
<path fill-rule="evenodd" clip-rule="evenodd" d="M19.5246 29.9355H14.2578C14.2578 33.4644 17.145 36.3516 20.6738 36.3516H21.6833C20.5526 34.394 19.8112 32.2139 19.5246 29.9355Z" fill="#FFCE00"/>
<path fill-rule="evenodd" clip-rule="evenodd" d="M53.4754 29.9355C53.1888 32.2154 52.4474 34.394 51.3168 36.3516H52.3262C55.855 36.3516 58.7422 33.4644 58.7422 29.9355H53.4754Z" fill="#FFCE00"/>
<path fill-rule="evenodd" clip-rule="evenodd" d="M53.4754 29.9355H58.7422C62.271 29.9355 65.1582 27.0483 65.1582 23.5195H53.0704C53.4226 24.8869 53.6094 26.3198 53.6094 27.7969C53.6094 28.5169 53.5638 29.2312 53.4754 29.9355Z" fill="#FFCE00"/>
<path d="M72.8489 47.1191C72.6065 46.6371 72.1146 46.332 71.5743 46.332H61.8405V42.0547C61.8405 41.2677 61.2017 40.6289 60.4147 40.6289H49.8796C50.7236 39.7506 51.4722 38.7939 52.1223 37.7773H52.3262C56.2015 37.7773 59.4309 34.9514 60.0582 31.2515C63.3304 30.6969 65.9196 28.1077 66.4743 24.8355C70.1742 24.2068 73.0001 20.9788 73.0001 17.1035C73.0001 16.3165 72.3613 15.6777 71.5743 15.6777H50.5126C47.1107 11.7511 42.0905 9.26172 36.5 9.26172C30.9096 9.26172 25.888 11.7497 22.4875 15.6777H1.42582C0.63879 15.6777 3.98151e-05 16.3165 3.98151e-05 17.1035C3.98151e-05 20.9788 2.82594 24.2068 6.52584 24.8355C7.08047 28.1077 9.66969 30.6969 12.9419 31.2515C13.5692 34.95 16.7972 37.7773 20.6739 37.7773H20.8792C21.5293 38.7939 22.2793 39.7506 23.1219 40.6289H12.5854C11.7984 40.6289 11.1596 41.2677 11.1596 42.0547V46.332H1.42582C0.886876 46.332 0.393556 46.6357 0.151173 47.1191C-0.0912102 47.6024 -0.0398821 48.1784 0.282345 48.6104L2.83592 52.0352L0.282345 55.4599C-0.0398821 55.8919 -0.0912102 56.4693 0.151173 56.9513C0.393556 57.4332 0.886876 57.7383 1.42582 57.7383H17.3675C18.1545 57.7383 18.7933 57.0995 18.7933 56.3125V52.0352H30.084C30.8711 52.0352 31.5098 51.3964 31.5098 50.6094C31.5098 49.8223 30.8711 49.1836 30.084 49.1836H14.0112V43.4805H58.9875V49.1836H42.9161C42.129 49.1836 41.4903 49.8223 41.4903 50.6094C41.4903 51.3964 42.129 52.0352 42.9161 52.0352H54.2054V56.3125C54.2054 57.0995 54.8442 57.7383 55.6312 57.7383H71.5743C72.1132 57.7383 72.6065 57.4346 72.8489 56.9513C73.0913 56.4693 73.04 55.8919 72.7178 55.4599L70.1642 52.0352L72.7178 48.6104C73.04 48.177 73.0913 47.601 72.8489 47.1191ZM15.9417 52.0352V54.8867H4.2674L5.75735 52.8878C6.13375 52.3816 6.13375 51.6887 5.75735 51.184L4.2674 49.1836H11.1611V50.6094C11.1611 51.3964 11.7998 52.0352 12.5868 52.0352H15.9417ZM53.6893 34.7347C54.127 33.6497 54.462 32.5205 54.6887 31.3613H57.1069C56.6221 32.9881 55.3261 34.2699 53.6893 34.7347ZM58.7422 28.5098H55.0195C55.0281 28.2731 55.0352 28.035 55.0352 27.7969C55.0352 26.8273 54.9596 25.8749 54.8156 24.9453H63.5243C62.9084 27.0041 60.9993 28.5098 58.7422 28.5098ZM69.9418 18.5293C69.3272 20.5881 67.4153 22.0938 65.1597 22.0938H54.137C53.7306 20.8419 53.1974 19.6485 52.5472 18.5293H69.9418ZM3.05834 18.5293H20.4529C19.8041 19.6485 19.2695 20.8419 18.8631 22.0938H7.84184C5.58483 22.0938 3.67428 20.5881 3.05834 18.5293ZM9.47578 24.9453H18.1845C18.0405 25.8749 17.9649 26.8273 17.9649 27.7969C17.9649 28.035 17.9706 28.2731 17.9806 28.5098H14.2579C12.0008 28.5098 10.0917 27.0041 9.47578 24.9453ZM15.8918 31.3613H18.3099C18.5366 32.5205 18.8717 33.6497 19.3094 34.7347C17.674 34.2685 16.378 32.9881 15.8918 31.3613ZM20.8165 27.7969C20.8165 19.1495 27.8527 12.1133 36.5 12.1133C45.1474 12.1133 52.1836 19.1495 52.1836 27.7969C52.1836 32.9226 49.6971 37.6918 45.5153 40.6289H36.5115C43.5819 40.6232 49.3321 34.8687 49.3321 27.7969C49.3321 20.7207 43.5762 14.9648 36.5 14.9648C29.4239 14.9648 23.668 20.7207 23.668 27.7969C23.668 34.8687 29.4182 40.6232 36.4886 40.6289H27.4848C23.303 37.6918 20.8165 32.9226 20.8165 27.7969ZM36.5 37.7773C30.9965 37.7773 26.5196 33.3004 26.5196 27.7969C26.5196 22.2934 30.9965 17.8164 36.5 17.8164C42.0036 17.8164 46.4805 22.2934 46.4805 27.7969C46.4805 33.3004 42.0036 37.7773 36.5 37.7773ZM67.2428 52.8878L68.7327 54.8867H57.057V52.0352H60.4133C61.2003 52.0352 61.839 51.3964 61.839 50.6094V49.1836H68.7327L67.2428 51.1825C66.8663 51.6887 66.8663 52.3816 67.2428 52.8878Z" fill="black"/>
<path d="M41.7983 23.541L39.6938 23.1688L38.6459 21.2426C38.6459 21.2426 38.6459 21.2412 38.6444 21.2412C38.4149 20.8206 38.0713 20.4784 37.6478 20.2531C37.0718 19.9466 36.4102 19.881 35.7857 20.072C35.1612 20.2617 34.648 20.6837 34.34 21.2611L33.3348 23.1474L31.2289 23.5381C30.737 23.618 30.2879 23.8432 29.9272 24.1897C29.4567 24.6431 29.1901 25.2519 29.1772 25.9049C29.1644 26.5579 29.4068 27.1781 29.8616 27.6501L31.3459 29.1899L31.075 31.253C30.9851 31.7606 31.0578 32.2924 31.2845 32.7558C31.5711 33.3446 32.0687 33.7852 32.6875 33.9991C32.9499 34.0889 33.2193 34.1345 33.4874 34.1345C33.8538 34.1345 34.2188 34.0518 34.5567 33.8864L36.4772 32.9525L38.4577 33.895C38.8882 34.1017 39.3702 34.1744 39.8464 34.1089C40.4937 34.019 41.0683 33.6825 41.4618 33.1621C41.8553 32.6417 42.0235 31.9973 41.9337 31.3485L41.6371 29.2313L43.08 27.7085C43.4507 27.3478 43.6931 26.8887 43.7829 26.3754C44.0182 25.0437 43.1257 23.7719 41.7983 23.541ZM39.0978 27.7641C38.7998 28.0792 38.6601 28.5127 38.72 28.9418L39.0066 30.9949L37.0832 30.0782C36.8893 29.9855 36.6797 29.9399 36.4701 29.9399C36.2562 29.9399 36.0438 29.9883 35.8456 30.0839L33.985 30.9892L34.2616 28.8777C34.3186 28.4471 34.176 28.0151 33.8738 27.7028L32.4366 26.2115L34.5311 25.8222C34.9574 25.7424 35.3252 25.4743 35.5291 25.0908L36.5015 23.2658L37.5152 25.1321C37.7219 25.5128 38.0927 25.7794 38.519 25.855L40.5621 26.2172L39.0978 27.7641Z" fill="black"/>
<path d="M36.5015 49.1836C35.713 49.1836 35.0757 49.8223 35.0757 50.6094C35.0757 51.3964 35.7144 52.0352 36.5015 52.0352C37.2885 52.0352 37.9273 51.3964 37.9273 50.6094C37.9273 49.8223 37.2885 49.1836 36.5015 49.1836Z" fill="black"/>
<path fill-rule="evenodd" clip-rule="evenodd" d="M40.1542 64.7317L39.8006 62.1981L41.5572 60.3446C41.6998 60.212 41.801 60.0337 41.8366 59.827C41.925 59.3237 41.5871 58.8432 41.0838 58.7562L38.5659 58.31L37.3212 56.0187C37.2385 55.8662 37.1102 55.7336 36.9448 55.6452C36.4957 55.4057 35.9353 55.5753 35.6958 56.0259L34.4939 58.2829L31.9574 58.7548C31.7749 58.7819 31.5981 58.8646 31.4555 59.0029C31.0877 59.3565 31.0763 59.9425 31.4299 60.3103L33.2064 62.1524L32.8756 64.6732C32.8357 64.8657 32.8571 65.0739 32.9498 65.2649C33.1736 65.724 33.7282 65.9165 34.1873 65.6927L36.4857 64.5749L38.8411 65.6969C38.9994 65.7725 39.1804 65.8024 39.3658 65.7768C39.8705 65.7041 40.2241 65.2378 40.1542 64.7317Z" fill="#FFCE00"/>
<path d="M33.7853 66.8547C33.0453 66.8547 32.3324 66.4412 31.9874 65.7326C31.802 65.3534 31.7421 64.9185 31.8177 64.5022L32.0772 62.5232L30.6585 61.0518C29.8957 60.259 29.92 58.9944 30.7127 58.2316C31.0064 57.9478 31.3743 57.7653 31.7763 57.6998L33.791 57.3248L34.7505 55.5226C35.0015 55.0521 35.4192 54.7085 35.9282 54.5531C36.4372 54.3976 36.9762 54.4504 37.4467 54.7013C37.7917 54.8853 38.0726 55.1647 38.2594 55.5069L39.2588 57.3462L41.2692 57.7026C41.791 57.7939 42.2501 58.0847 42.5567 58.521C42.8632 58.9573 42.9816 59.4863 42.8903 60.0124C42.8176 60.4301 42.618 60.8065 42.3143 61.1002L40.9299 62.5602L41.2122 64.5849C41.2849 65.1124 41.148 65.6371 40.8272 66.062C40.5064 66.4868 40.0387 66.7606 39.5112 66.8333C39.1205 66.8875 38.7299 66.8276 38.3791 66.6594L36.49 65.7597L34.655 66.6522C34.3741 66.7891 34.0776 66.8547 33.7853 66.8547ZM36.48 63.3858L39.0578 64.6148L38.67 61.8374L40.6347 59.7629L37.8716 59.2738L36.5099 56.7701L35.1939 59.241L32.3866 59.7629L34.3313 61.7803L33.9606 64.6119L36.48 63.3858Z" fill="black"/>
<path fill-rule="evenodd" clip-rule="evenodd" d="M21.0523 70.2662L20.6987 67.7326L22.4553 65.879C22.5978 65.7464 22.6991 65.5682 22.7347 65.3615C22.8231 64.8582 22.4852 64.3777 21.9819 64.2907L19.464 63.8445L18.2193 61.5532C18.1366 61.4007 18.0083 61.2681 17.8429 61.1797C17.3938 60.9401 16.8334 61.1098 16.5939 61.5603L15.392 63.8174L12.8555 64.2893C12.673 64.3164 12.4962 64.3991 12.3536 64.5374C11.9858 64.891 11.9744 65.477 12.328 65.8448L14.1045 67.6869L13.7737 70.2077C13.7338 70.4002 13.7552 70.6084 13.8478 70.7994C14.0717 71.2585 14.6263 71.451 15.0854 71.2271L17.3838 70.1093L19.7392 71.2314C19.8974 71.307 20.0785 71.3369 20.2638 71.3113C20.7686 71.2386 21.1222 70.7723 21.0523 70.2662Z" fill="#FFCE00"/>
<path d="M14.6833 72.3892C13.9434 72.3892 13.2305 71.9757 12.8854 71.2671C12.7001 70.8878 12.6402 70.453 12.7158 70.0366L12.9753 68.0577L11.5566 66.5863C10.7938 65.7935 10.818 64.5289 11.6108 63.7661C11.9045 63.4823 12.2723 63.2998 12.6744 63.2342L14.689 62.8593L15.6486 61.0571C15.8995 60.5866 16.3173 60.243 16.8263 60.0875C17.3353 59.9321 17.8742 59.9849 18.3447 60.2358C18.6898 60.4198 18.9707 60.6992 19.1574 61.0414L20.1569 62.8806L22.1673 63.2371C22.6891 63.3283 23.1482 63.6192 23.4547 64.0555C23.7613 64.4918 23.8796 65.0207 23.7884 65.5469C23.7157 65.9646 23.516 66.341 23.2124 66.6347L21.8279 68.0947L22.1102 70.1193C22.1829 70.6469 22.0461 71.1716 21.7253 71.5964C21.4045 72.0213 20.9368 72.2951 20.4093 72.3678C20.0186 72.422 19.6279 72.3621 19.2772 72.1939L17.388 71.2942L15.5531 72.1867C15.2722 72.3236 14.9756 72.3892 14.6833 72.3892ZM17.3781 68.9203L19.9559 70.1493L19.5681 67.3719L21.5328 65.2973L18.7696 64.8083L17.408 62.3046L16.092 64.7755L13.2846 65.2973L15.2294 67.3148L14.8587 70.1464L17.3781 68.9203Z" fill="black"/>
<path fill-rule="evenodd" clip-rule="evenodd" d="M59.0523 70.2662L58.6987 67.7326L60.4553 65.879C60.5978 65.7464 60.6991 65.5682 60.7347 65.3615C60.8231 64.8582 60.4852 64.3777 59.9819 64.2907L57.464 63.8445L56.2193 61.5532C56.1366 61.4007 56.0083 61.2681 55.8429 61.1797C55.3938 60.9401 54.8334 61.1098 54.5939 61.5603L53.392 63.8174L50.8555 64.2893C50.673 64.3164 50.4962 64.3991 50.3536 64.5374C49.9858 64.891 49.9744 65.477 50.328 65.8448L52.1045 67.6869L51.7737 70.2077C51.7338 70.4002 51.7552 70.6084 51.8478 70.7994C52.0717 71.2585 52.6263 71.451 53.0854 71.2271L55.3838 70.1093L57.7392 71.2314C57.8974 71.307 58.0785 71.3369 58.2638 71.3113C58.7686 71.2386 59.1222 70.7723 59.0523 70.2662Z" fill="#FFCE00"/>
<path d="M52.6833 72.3892C51.9434 72.3892 51.2305 71.9757 50.8854 71.2671C50.7001 70.8878 50.6402 70.453 50.7158 70.0366L50.9753 68.0577L49.5566 66.5863C48.7938 65.7935 48.818 64.5289 49.6108 63.7661C49.9045 63.4823 50.2723 63.2998 50.6744 63.2342L52.689 62.8593L53.6486 61.0571C53.8995 60.5866 54.3173 60.243 54.8263 60.0875C55.3353 59.9321 55.8742 59.9849 56.3447 60.2358C56.6898 60.4198 56.9707 60.6992 57.1574 61.0414L58.1569 62.8806L60.1673 63.2371C60.6891 63.3283 61.1482 63.6192 61.4547 64.0555C61.7613 64.4918 61.8796 65.0207 61.7884 65.5469C61.7157 65.9646 61.516 66.341 61.2124 66.6347L59.8279 68.0947L60.1102 70.1193C60.1829 70.6469 60.0461 71.1716 59.7253 71.5964C59.4045 72.0213 58.9368 72.2951 58.4093 72.3678C58.0186 72.422 57.6279 72.3621 57.2772 72.1939L55.388 71.2942L53.5531 72.1867C53.2722 72.3236 52.9756 72.3892 52.6833 72.3892ZM55.3781 68.9203L57.9559 70.1493L57.5681 67.3719L59.5328 65.2973L56.7696 64.8083L55.408 62.3046L54.092 64.7755L51.2846 65.2973L53.2294 67.3148L52.8587 70.1464L55.3781 68.9203Z" fill="black"/>
</g>
<defs>
<clipPath id="clip0">
<rect width="73" height="73" fill="white"/>
</clipPath>
</defs>
</svg>
