<svg width="73" height="73" viewBox="0 0 73 73" fill="none" xmlns="http://www.w3.org/2000/svg">
<g clip-path="url(#clip0)">
<path fill-rule="evenodd" clip-rule="evenodd" d="M37.4995 30.2607L39.0379 33.0894L42.1475 33.6398C42.7692 33.7481 43.1855 34.3412 43.0771 34.9629C43.0329 35.2181 42.9075 35.4377 42.7321 35.6016L40.5635 37.89L41.0012 41.0182C41.0882 41.6427 40.6519 42.2187 40.0274 42.3057C39.7978 42.337 39.574 42.3 39.3787 42.2073L36.4701 40.8214L33.6328 42.203C33.0653 42.4796 32.3809 42.2429 32.1043 41.6755C31.9888 41.4402 31.9632 41.1836 32.0116 40.9455L32.4194 37.833L30.2266 35.5589C29.7903 35.104 29.8031 34.3826 30.2579 33.9449C30.4347 33.7752 30.6529 33.6726 30.8781 33.6383L34.0092 33.0566L35.4934 30.2706C35.79 29.7146 36.48 29.505 37.0361 29.8016C37.24 29.9085 37.3968 30.071 37.4995 30.2607ZM48.6191 36.4999C48.6191 29.8073 43.1926 24.3807 36.5 24.3807C29.8074 24.3807 24.3809 29.8073 24.3809 36.4999C24.3809 43.1925 29.8074 48.619 36.5 48.619C43.194 48.619 48.6191 43.1939 48.6191 36.4999Z" fill="#C7D9DA"/>
<path fill-rule="evenodd" clip-rule="evenodd" d="M39.0379 33.0894L37.4995 30.2607C37.3969 30.071 37.2386 29.9099 37.0347 29.8001C36.4787 29.5036 35.7886 29.7146 35.492 30.2692L34.0078 33.0552L30.8768 33.6369C30.6515 33.6711 30.4333 33.7724 30.2566 33.9435C29.8017 34.3812 29.7889 35.1026 30.2252 35.5574L32.418 37.8316L32.0103 40.944C31.9604 41.1821 31.9875 41.4388 32.1029 41.674C32.3795 42.2415 33.0639 42.4782 33.6314 42.2016L36.4687 40.82L39.3773 42.2059C39.5712 42.2985 39.7965 42.3356 40.026 42.3042C40.6505 42.2173 41.0868 41.6412 40.9998 41.0168L40.5621 37.8886L42.7307 35.6002C42.9061 35.4362 43.0316 35.2167 43.0758 34.9615C43.1841 34.3398 42.7678 33.7467 42.1462 33.6383L39.0379 33.0894Z" fill="#FFA300"/>
<path fill-rule="evenodd" clip-rule="evenodd" d="M36.5 24.3808C43.1926 24.3808 48.6191 29.8073 48.6191 36.4999C48.6191 43.1925 43.1926 48.6191 36.5 48.6191C29.8073 48.6191 24.3808 43.1925 24.3808 36.4999C24.3808 29.8073 29.8073 24.3808 36.5 24.3808ZM40.0131 19.3606L37.9657 18.334C37.0845 17.8607 35.991 17.8236 35.0428 18.3283L33.2064 19.3136L30.9408 19.1496C29.9285 19.0355 28.8806 19.4219 28.1877 20.2688L26.8517 21.9013L24.8798 22.5558C23.8333 22.7996 22.9422 23.5809 22.6086 24.6845L22.4845 25.0937L21.9998 26.6991L20.2318 28.2304C19.4847 28.8663 19.0498 29.8458 19.1539 30.8952L19.3621 32.9868L18.3355 35.0328C17.8621 35.9139 17.8251 37.0075 18.3298 37.9556L19.315 39.7921L19.1511 42.0576C19.037 43.0699 19.4234 44.1179 20.2703 44.8108L21.9028 46.1468L22.486 47.9047L22.5572 48.1186C22.8011 49.1651 23.5824 50.0563 24.6859 50.3899L26.7006 50.9987L28.2304 52.7695C28.8663 53.5166 29.8458 53.9515 30.8952 53.8474L32.9868 53.6392L35.0328 54.6658C35.914 55.1392 37.0075 55.1762 37.9557 54.6715L39.7921 53.6863L42.0577 53.8503C43.07 53.9643 44.1179 53.5779 44.8108 52.731L46.1468 51.0985L48.1187 50.4441C49.1652 50.2003 50.0563 49.4189 50.3899 48.3168L50.514 47.9076L50.9987 46.3022L52.7695 44.7695C53.5167 44.1336 53.9515 43.154 53.8474 42.1047L53.6393 40.0131L54.6658 37.9656C55.1392 37.0845 55.1763 35.9909 54.6715 35.0428L53.6863 33.2064L53.8503 30.9408C53.9644 29.9285 53.578 28.8805 52.7311 28.1876L51.0985 26.8517L50.5154 25.0937L50.4441 24.8798C50.2003 23.8333 49.419 22.9422 48.3168 22.6085L46.3022 21.9997L44.7723 20.2303C44.1364 19.4832 43.1569 19.0484 42.1076 19.1524L40.0131 19.3606Z" fill="#FFA300"/>
<path fill-rule="evenodd" clip-rule="evenodd" d="M52.731 28.189C53.578 28.8819 53.9643 29.9299 53.8503 30.9422L53.6863 33.2078L54.6715 35.0442C55.1777 35.9923 55.1392 37.0859 54.6658 37.967L53.6393 40.0144L53.8474 42.1061C53.9501 43.1569 53.5167 44.1364 52.7695 44.7708L51.0002 46.3007L50.5154 47.9061H71.5742L65.871 36.4999L71.5742 25.0936H50.5154L51.0985 26.8516L52.731 28.189Z" fill="#FF003D"/>
<path fill-rule="evenodd" clip-rule="evenodd" d="M18.3341 35.0342L19.3607 32.9882L19.1525 30.8966C19.0499 29.8458 19.4833 28.8663 20.2304 28.2318L21.9998 26.7019L22.4846 25.0965H1.42578L7.12891 36.5027L1.42578 47.909H22.486L21.9029 46.151L20.2703 44.815C19.4234 44.1221 19.037 43.0742 19.1511 42.0619L19.3151 39.7963L18.3298 37.9599C17.8237 37.0075 17.8622 35.9153 18.3341 35.0342Z" fill="#FF003D"/>
<path d="M43.4179 24.8528C42.7406 24.4507 41.8666 24.6717 41.4631 25.349C41.0611 26.0262 41.2821 26.9002 41.9593 27.3037C45.1873 29.2257 47.1934 32.7488 47.1934 36.5C47.1934 42.3971 42.397 47.1934 36.5 47.1934C30.603 47.1934 25.8066 42.3971 25.8066 36.5C25.8066 32.7488 27.8127 29.2257 31.0407 27.3037C31.7179 26.9017 31.9389 26.0262 31.5369 25.349C31.1348 24.6717 30.2594 24.4507 29.5821 24.8528C25.4944 27.2866 22.9551 31.7493 22.9551 36.5C22.9551 43.9683 29.0318 50.0449 36.5 50.0449C43.9682 50.0449 50.0449 43.9683 50.0449 36.5C50.0449 31.7493 47.5056 27.2866 43.4179 24.8528Z" fill="black"/>
<path d="M67.4651 36.5L72.8488 25.731C73.0698 25.289 73.0456 24.7643 72.7861 24.3437C72.5266 23.9231 72.0689 23.6679 71.5742 23.6679H51.5248C50.9845 22.513 49.9722 21.6191 48.7289 21.2441L47.1092 20.7551L45.8574 19.3079C44.8964 18.1772 43.4421 17.5884 41.965 17.7338L40.284 17.9006L38.623 17.0666C37.2913 16.3594 35.7044 16.3608 34.3713 17.0708L32.8984 17.8607L31.0706 17.7281C29.545 17.567 28.0579 18.1772 27.0855 19.3649L26.0105 20.6781L24.4863 21.1842C23.1532 21.5178 22.0497 22.4403 21.4765 23.6679H1.42575C0.931009 23.6679 0.473333 23.9231 0.212415 24.3437C-0.0470773 24.7643 -0.0713156 25.289 0.149681 25.731L5.53486 36.5L0.151106 47.2689C-0.0698898 47.7109 -0.0456515 48.2356 0.213841 48.6562C0.473333 49.0768 0.931009 49.332 1.42575 49.332H21.4765C22.0169 50.4869 23.0292 51.3794 24.2725 51.7558L25.8922 52.2449L27.144 53.692C28.105 54.8227 29.5607 55.4101 31.0364 55.2661L32.7174 55.0993L34.3784 55.9333C35.0428 56.2869 35.7714 56.4623 36.5 56.4623C37.2314 56.4623 37.9628 56.2841 38.6301 55.9291L40.1029 55.1392L41.9308 55.2718C43.4578 55.4329 44.9449 54.8227 45.9158 53.635L46.9909 52.3233L48.515 51.8171C49.8481 51.4849 50.9517 50.561 51.5248 49.3334H71.5742C72.0689 49.3334 72.5266 49.0782 72.7875 48.6576C73.047 48.237 73.0713 47.7123 72.8503 47.2703L67.4651 36.5ZM8.40353 37.1373C8.60456 36.7352 8.60456 36.2633 8.40353 35.8626L3.73267 26.5195H20.0293L19.3079 27.144C18.1773 28.105 17.5898 29.5592 17.7338 31.0364L17.9007 32.7174L17.0666 34.3784C16.3594 35.7101 16.3608 37.297 17.0709 38.6301L17.8607 40.1029L17.7281 41.9308C17.567 43.4563 18.1773 44.9449 19.3649 45.9158L20.0564 46.4818H3.73267L8.40353 37.1373ZM47.7964 49.0554C47.7537 49.0654 47.7123 49.0768 47.671 49.091L45.6991 49.7455C45.4425 49.831 45.2158 49.9864 45.0447 50.196L43.7073 51.8285C43.3451 52.2719 42.7877 52.4972 42.2174 52.4331C42.1988 52.4302 42.1803 52.4288 42.1603 52.4274L39.8948 52.2634C39.6253 52.2449 39.3558 52.3019 39.1177 52.4288L37.2827 53.4126C36.7894 53.6763 36.1991 53.6749 35.7058 53.4097C35.6944 53.404 35.683 53.3969 35.6702 53.3912L33.6242 52.3646C33.4246 52.2648 33.2064 52.2135 32.9854 52.2135C32.9384 52.2135 32.8913 52.2163 32.8443 52.2206L30.7541 52.4288C30.2094 52.483 29.6705 52.2648 29.3069 51.8371L27.777 50.0677C27.6002 49.8638 27.3693 49.7141 27.1112 49.6357L25.0966 49.0269C24.522 48.8529 24.0814 48.3824 23.9445 47.7964C23.9346 47.7536 23.9232 47.7123 23.9089 47.6709L23.2545 45.6991C23.1689 45.4425 23.0135 45.2158 22.8039 45.0447L21.1714 43.7073C20.728 43.3451 20.5013 42.7876 20.5669 42.2173C20.5683 42.1988 20.5711 42.1803 20.5726 42.1603L20.7365 39.8947C20.7565 39.6253 20.698 39.3558 20.5711 39.1177L19.5874 37.2827C19.3236 36.7894 19.325 36.1991 19.5902 35.7044C19.5959 35.693 19.603 35.6816 19.6087 35.6701L20.6353 33.6242C20.7565 33.3832 20.8064 33.1123 20.7793 32.8428L20.5711 30.7526C20.517 30.208 20.7351 29.669 21.1628 29.3055L22.9322 27.7756C23.1361 27.5988 23.2858 27.3678 23.3642 27.1098L23.8447 25.52C23.8462 25.5157 23.8476 25.5115 23.849 25.5072L23.9745 25.0937C24.1484 24.5191 24.6189 24.0785 25.2049 23.9417C25.2477 23.9317 25.2891 23.9203 25.3304 23.906L27.3023 23.2516C27.5589 23.166 27.7856 23.0106 27.9567 22.8025L29.2941 21.17C29.6562 20.7265 30.2137 20.4998 30.784 20.5654C30.8025 20.5668 30.8211 20.5697 30.841 20.5711L33.1066 20.7351C33.3761 20.7536 33.6456 20.6966 33.8837 20.5697L35.7186 19.5859C36.212 19.3221 36.8022 19.3236 37.297 19.5888C37.3084 19.5945 37.3198 19.6016 37.3312 19.6073L39.3786 20.6339C39.6196 20.7551 39.8905 20.805 40.16 20.7779L42.2501 20.5697C42.7948 20.5155 43.3337 20.7337 43.6973 21.1614L45.2272 22.9308C45.404 23.1347 45.6349 23.2844 45.893 23.3628L47.9076 23.9716C48.4808 24.1441 48.9228 24.6161 49.0597 25.2021C49.0697 25.2448 49.0811 25.2862 49.0953 25.3275L49.7498 27.2994C49.8353 27.556 49.9907 27.7827 50.1989 27.9538L51.8314 29.2912C52.2748 29.6534 52.5015 30.2108 52.4359 30.7811C52.4331 30.7997 52.4316 30.8182 52.4302 30.8382L52.2663 33.1037C52.2463 33.3732 52.3048 33.6427 52.4316 33.8808L53.4154 35.7158C53.6792 36.2091 53.6778 36.7994 53.4126 37.2927C53.4069 37.3041 53.3997 37.3155 53.394 37.3283L52.3675 39.3758C52.2463 39.6167 52.1964 39.8876 52.2235 40.1571L52.4316 42.2473C52.4858 42.7934 52.2677 43.3309 51.8399 43.6944L50.0706 45.2243C49.8667 45.4011 49.717 45.6321 49.6385 45.8901L49.0297 47.9048C48.8529 48.4779 48.381 48.9185 47.7964 49.0554ZM52.9706 46.4804L53.692 45.8559C54.8227 44.895 55.4101 43.4407 55.2661 41.9635L55.0993 40.2826L55.9334 38.6215C56.6406 37.2898 56.6391 35.7029 55.9291 34.3698L55.1392 32.897L55.2718 31.0692C55.4329 29.5436 54.8227 28.0565 53.635 27.0841L52.9435 26.5181H69.2673L64.5964 35.8612C64.3954 36.2633 64.3954 36.7352 64.5964 37.1359L69.2673 46.4804H52.9706Z" fill="black"/>
<path d="M29.2685 32.917C28.7737 33.3918 28.4943 34.032 28.4814 34.7178C28.4686 35.4036 28.7224 36.0537 29.1986 36.5485L30.9152 38.3278L30.6016 40.7189C30.5046 41.2521 30.5816 41.811 30.8197 42.3001C31.1205 42.9174 31.6424 43.3808 32.2911 43.6047C32.5663 43.7002 32.8486 43.7458 33.1309 43.7458C33.5159 43.7458 33.898 43.6588 34.253 43.4849L36.4729 42.4041L38.7613 43.4934C39.2133 43.7087 39.718 43.7872 40.2185 43.7173C40.8986 43.6232 41.5002 43.271 41.9137 42.7235C42.3272 42.1774 42.504 41.5016 42.4099 40.8201L42.0677 38.372L43.7401 36.6083C44.1308 36.2291 44.386 35.7457 44.4801 35.2082C44.5985 34.5324 44.4459 33.8509 44.051 33.2891C43.656 32.7274 43.0672 32.3538 42.3942 32.2355L39.9604 31.8049L38.7513 29.5792C38.7513 29.5792 38.7513 29.5792 38.7513 29.5778C38.5104 29.1358 38.1496 28.7779 37.7062 28.5413C37.1017 28.219 36.4073 28.1506 35.7515 28.3502C35.0956 28.5498 34.5567 28.9932 34.2345 29.5978L33.0724 31.7778L30.6358 32.2312C30.1182 32.3167 29.6463 32.552 29.2685 32.917ZM34.2687 34.4583C34.695 34.3784 35.0628 34.1104 35.2667 33.7268L36.5014 31.4099L37.7847 33.771C37.9914 34.1517 38.3621 34.4183 38.7884 34.4939L41.3819 34.953L39.527 36.9092C39.229 37.2243 39.0892 37.6577 39.1491 38.0883L39.5127 40.6946L37.0803 39.5355C36.8864 39.4428 36.6768 39.3972 36.4672 39.3972C36.2534 39.3972 36.0395 39.4456 35.8427 39.5412L33.4802 40.6918L33.831 38.0199C33.888 37.5893 33.7454 37.1573 33.4431 36.845L31.6181 34.953L34.2687 34.4583Z" fill="black"/>
<path d="M36.5 25.8066C37.287 25.8066 37.9257 25.1679 37.9257 24.3809C37.9257 23.5938 37.287 22.9551 36.5 22.9551H36.4985C35.7115 22.9551 35.0728 23.5938 35.0728 24.3809C35.0728 25.1679 35.7129 25.8066 36.5 25.8066Z" fill="black"/>
<path fill-rule="evenodd" clip-rule="evenodd" d="M40.1542 12.3244L39.8006 9.79078L41.5572 7.93727C41.6998 7.80467 41.801 7.62645 41.8367 7.41971C41.9251 6.91641 41.5871 6.43592 41.0838 6.34895L38.5659 5.90268L37.3212 3.61145C37.2385 3.45889 37.1102 3.32629 36.9448 3.23789C36.4957 2.99836 35.9354 3.16803 35.6958 3.61858L34.4939 5.87559L31.9574 6.34752C31.7749 6.37461 31.5981 6.45731 31.4555 6.59561C31.0877 6.9492 31.0763 7.5352 31.4299 7.90305L33.2064 9.74516L32.8756 12.2659C32.8357 12.4584 32.8571 12.6666 32.9498 12.8576C33.1736 13.3167 33.7282 13.5092 34.1873 13.2854L36.4857 12.1676L38.8411 13.2897C38.9994 13.3652 39.1804 13.3952 39.3658 13.3695C39.8705 13.2968 40.2241 12.8306 40.1542 12.3244Z" fill="#FFCE00"/>
<path d="M33.7853 14.446C33.0453 14.446 32.3324 14.0325 31.9874 13.3239C31.802 12.9446 31.7421 12.5098 31.8177 12.0934L32.0772 10.1144L30.6585 8.64304C29.8957 7.8503 29.92 6.58563 30.7127 5.82284C31.0064 5.53911 31.3743 5.35661 31.7763 5.29102L33.791 4.9189L34.7505 3.11671C35.0015 2.6462 35.4192 2.30259 35.9282 2.14718C36.4372 1.99177 36.9762 2.04452 37.4467 2.29546C37.7917 2.47938 38.0726 2.75884 38.2594 3.10102L39.2588 4.94028L41.2692 5.29673C41.791 5.38798 42.2501 5.67884 42.5567 6.11513C42.8632 6.55141 42.9816 7.08038 42.8903 7.60649C42.8176 8.02425 42.618 8.40065 42.3143 8.69436L40.9299 10.1544L41.2122 12.179C41.2849 12.7065 41.148 13.2312 40.8272 13.6561C40.5064 14.081 40.0387 14.3547 39.5112 14.4274C39.1205 14.4816 38.7299 14.4217 38.3791 14.2535L36.49 13.3538L34.655 14.2464C34.3741 14.3818 34.0776 14.446 33.7853 14.446ZM36.48 10.9785L39.0578 12.2075L38.67 9.43007L40.6347 7.35556L37.8716 6.86651L36.5099 4.36284L35.1939 6.83372L32.3866 7.35556L34.3313 9.37304L33.9606 12.2046L36.48 10.9785Z" fill="black"/>
<path fill-rule="evenodd" clip-rule="evenodd" d="M19.0523 17.3244L18.6987 14.7908L20.4553 12.9373C20.5979 12.8047 20.6991 12.6264 20.7347 12.4197C20.8231 11.9164 20.4852 11.4359 19.9819 11.3489L17.464 10.9027L16.2193 8.61145C16.1366 8.45889 16.0083 8.32629 15.8429 8.23789C15.3938 7.99836 14.8334 8.16803 14.5939 8.61858L13.392 10.8756L10.8555 11.3475C10.673 11.3746 10.4962 11.4573 10.3536 11.5956C9.98577 11.9492 9.97436 12.5352 10.328 12.9031L12.1045 14.7452L11.7737 17.2659C11.7338 17.4584 11.7552 17.6666 11.8478 17.8576C12.0717 18.3167 12.6263 18.5092 13.0854 18.2854L15.3838 17.1676L17.7392 18.2897C17.8974 18.3652 18.0785 18.3952 18.2639 18.3695C18.7686 18.2968 19.1222 17.8306 19.0523 17.3244Z" fill="#FFCE00"/>
<path d="M12.6833 19.446C11.9434 19.446 11.2305 19.0325 10.8854 18.3239C10.7001 17.9446 10.6402 17.5098 10.7158 17.0934L10.9753 15.1144L9.5566 13.643C8.79381 12.8503 8.81805 11.5856 9.61078 10.8228C9.90449 10.5391 10.2723 10.3566 10.6744 10.291L12.689 9.9189L13.6486 8.11671C13.8995 7.6462 14.3173 7.30259 14.8263 7.14718C15.3353 6.99177 15.8742 7.04452 16.3447 7.29546C16.6898 7.47938 16.9707 7.75884 17.1574 8.10102L18.1569 9.94028L20.1673 10.2967C20.6891 10.388 21.1482 10.6788 21.4547 11.1151C21.7613 11.5514 21.8796 12.0804 21.7884 12.6065C21.7157 13.0242 21.516 13.4007 21.2124 13.6944L19.8279 15.1544L20.1102 17.179C20.1829 17.7065 20.0461 18.2312 19.7253 18.6561C19.4045 19.081 18.9368 19.3547 18.4093 19.4274C18.0186 19.4816 17.6279 19.4217 17.2772 19.2535L15.388 18.3538L13.5531 19.2464C13.2722 19.3818 12.9756 19.446 12.6833 19.446ZM15.3781 15.9785L17.9559 17.2075L17.5681 14.4301L19.5328 12.3556L16.7696 11.8665L15.408 9.36284L14.092 11.8337L11.2846 12.3556L13.2294 14.373L12.8587 17.2046L15.3781 15.9785Z" fill="black"/>
<path fill-rule="evenodd" clip-rule="evenodd" d="M61.0523 17.3244L60.6987 14.7908L62.4553 12.9373C62.5979 12.8047 62.6991 12.6264 62.7347 12.4197C62.8231 11.9164 62.4852 11.4359 61.9819 11.3489L59.464 10.9027L58.2193 8.61145C58.1366 8.45889 58.0083 8.32629 57.8429 8.23789C57.3938 7.99836 56.8334 8.16803 56.5939 8.61858L55.392 10.8756L52.8555 11.3475C52.673 11.3746 52.4962 11.4573 52.3536 11.5956C51.9858 11.9492 51.9744 12.5352 52.328 12.9031L54.1045 14.7452L53.7737 17.2659C53.7338 17.4584 53.7552 17.6666 53.8478 17.8576C54.0717 18.3167 54.6263 18.5092 55.0854 18.2854L57.3838 17.1676L59.7392 18.2897C59.8974 18.3652 60.0785 18.3952 60.2639 18.3695C60.7686 18.2968 61.1222 17.8306 61.0523 17.3244Z" fill="#FFCE00"/>
<path d="M54.6833 19.446C53.9434 19.446 53.2305 19.0325 52.8854 18.3239C52.7001 17.9446 52.6402 17.5098 52.7158 17.0934L52.9753 15.1144L51.5566 13.643C50.7938 12.8503 50.818 11.5856 51.6108 10.8228C51.9045 10.5391 52.2723 10.3566 52.6744 10.291L54.689 9.9189L55.6486 8.11671C55.8995 7.6462 56.3173 7.30259 56.8263 7.14718C57.3353 6.99177 57.8742 7.04452 58.3447 7.29546C58.6898 7.47938 58.9707 7.75884 59.1574 8.10102L60.1569 9.94028L62.1673 10.2967C62.6891 10.388 63.1482 10.6788 63.4547 11.1151C63.7613 11.5514 63.8796 12.0804 63.7884 12.6065C63.7157 13.0242 63.516 13.4007 63.2124 13.6944L61.8279 15.1544L62.1102 17.179C62.1829 17.7065 62.0461 18.2312 61.7253 18.6561C61.4045 19.081 60.9368 19.3547 60.4093 19.4274C60.0186 19.4816 59.6279 19.4217 59.2772 19.2535L57.388 18.3538L55.5531 19.2464C55.2722 19.3818 54.9756 19.446 54.6833 19.446ZM57.3781 15.9785L59.9559 17.2075L59.5681 14.4301L61.5328 12.3556L58.7696 11.8665L57.408 9.36284L56.092 11.8337L53.2846 12.3556L55.2294 14.373L54.8587 17.2046L57.3781 15.9785Z" fill="black"/>
</g>
<defs>
<clipPath id="clip0">
<rect width="73" height="73" fill="white"/>
</clipPath>
</defs>
</svg>
