<svg width="73" height="73" viewBox="0 0 73 73" fill="none" xmlns="http://www.w3.org/2000/svg">
<path fill-rule="evenodd" clip-rule="evenodd" d="M64.5993 58.5782H8.38213C8.37785 58.5782 8.375 58.5782 8.37072 58.5782C6.60703 58.584 5.16699 60.0283 5.16699 61.7934C5.16699 63.5613 6.61416 65.0085 8.38213 65.0085H64.5993C66.3672 65.0085 67.8144 63.5613 67.8144 61.7934C67.8144 60.0283 66.3744 58.584 64.6107 58.5782C64.6064 58.5782 64.6035 58.5782 64.5993 58.5782Z" fill="#EAEAEA"/>
<path fill-rule="evenodd" clip-rule="evenodd" d="M8.38213 58.5783H64.5993H64.6107V44.2877C64.6064 44.2877 64.6035 44.2877 64.5993 44.2877H8.38213C8.37786 44.2877 8.375 44.2877 8.37073 44.2877V58.5783H8.38213Z" fill="#C1C1C1"/>
<path fill-rule="evenodd" clip-rule="evenodd" d="M8.38213 44.2876H64.5993H64.6107C66.3744 44.2819 67.8144 42.8376 67.8144 41.0725C67.8144 39.3074 66.3744 37.8631 64.6107 37.8574C64.6064 37.8574 64.6035 37.8574 64.5993 37.8574H8.38926H8.38213C6.61416 37.8574 5.16699 39.3045 5.16699 41.0725C5.16699 42.8376 6.60703 44.2819 8.37072 44.2876H8.38213Z" fill="#EAEAEA"/>
<path d="M36.49 32.1414C38.8492 32.1414 40.7617 29.5823 40.7617 26.4255C40.7617 23.2687 38.8492 20.7095 36.49 20.7095C34.1309 20.7095 32.2184 23.2687 32.2184 26.4255C32.2184 29.5823 34.1309 32.1414 36.49 32.1414Z" fill="#FF5D7D"/>
<path fill-rule="evenodd" clip-rule="evenodd" d="M40.7616 26.4255C40.7616 29.5821 38.8497 32.1414 36.49 32.1414C34.1303 32.1414 32.2183 29.5821 32.2183 26.4255C32.2183 23.2688 34.1303 20.7095 36.49 20.7095C38.8497 20.7095 40.7616 23.2688 40.7616 26.4255ZM6.24347 32.0088C7.11604 34.0206 7.90165 36.0081 8.38927 37.856H64.5993H64.6107C65.0969 36.0081 65.8839 34.0192 66.7565 32.0088C66.2803 32.1614 65.7855 32.1856 65.305 32.0573C63.5955 31.5982 62.7058 29.3711 63.3161 27.0842C63.9263 24.7972 65.8069 23.3158 67.5164 23.7749C68.4603 24.0287 69.1532 24.8215 69.4826 25.8637C71.3546 21.4552 72.5337 17.5443 70.4977 15.5011C66.2974 11.2851 57.9965 22.0654 52.6854 20.6368C45.6692 18.7505 41.5815 7.99011 36.51 7.99011C36.5071 7.99011 36.5028 7.99011 36.5 7.99011C36.4971 7.99011 36.4943 7.99011 36.49 7.99011C31.4185 7.99011 27.3308 18.7505 20.3145 20.6368C15.0035 22.0654 6.70257 11.2837 2.50222 15.5011C0.4662 17.5457 1.64532 21.4566 3.51737 25.8637C3.84673 24.82 4.54108 24.0287 5.48495 23.7749C7.19446 23.3158 9.07364 24.7972 9.6853 27.0842C10.2955 29.3711 9.40585 31.5982 7.69634 32.0573C7.21442 32.187 6.71968 32.1628 6.24347 32.0088Z" fill="#C1C1C1"/>
<path fill-rule="evenodd" clip-rule="evenodd" d="M63.316 27.0842C62.7058 29.3711 63.5955 31.5982 65.305 32.0573C65.7855 32.187 66.2802 32.1628 66.7564 32.0088C67.9712 31.6181 69.0662 30.3905 69.5053 28.748C69.7791 27.7229 69.7506 26.7106 69.484 25.8637C69.1546 24.82 68.4602 24.0287 67.5164 23.7749C65.8069 23.3158 63.9263 24.7972 63.316 27.0842Z" fill="#FF9346"/>
<path fill-rule="evenodd" clip-rule="evenodd" d="M7.69634 32.0573C9.40585 31.5982 10.2955 29.3711 9.68531 27.0842C9.07507 24.7972 7.19446 23.3158 5.48495 23.7749C4.54109 24.0287 3.84816 24.8214 3.51737 25.8637C3.24933 26.7106 3.22224 27.7229 3.49599 28.748C3.93513 30.392 5.0287 31.6181 6.24489 32.0088C6.71968 32.1628 7.21443 32.187 7.69634 32.0573Z" fill="#FF9346"/>
<path d="M36.49 33.5672C39.631 33.5672 42.1874 30.3634 42.1874 26.4254C42.1874 22.4874 39.6324 19.2837 36.49 19.2837C33.349 19.2837 30.7926 22.4874 30.7926 26.4254C30.7926 30.3634 33.349 33.5672 36.49 33.5672ZM36.49 22.1338C38.0327 22.1338 39.3359 24.0986 39.3359 26.424C39.3359 28.7495 38.0327 30.7142 36.49 30.7142C34.9473 30.7142 33.6442 28.7495 33.6442 26.424C33.6442 24.1 34.9473 22.1338 36.49 22.1338Z" fill="black"/>
<path d="M71.5072 14.4959C68.4161 11.3934 64.1331 14.0354 60.3547 16.368C57.7841 17.9534 54.8712 19.7513 53.0547 19.2623C50.1789 18.4895 47.5313 15.5225 44.9691 12.6538C42.1746 9.52421 39.5341 6.56714 36.49 6.56714C33.3405 6.56714 30.8282 9.47003 28.1677 12.5454C25.6683 15.4326 23.0834 18.4197 19.9453 19.2637C18.1288 19.7513 15.2159 17.9549 12.6453 16.3694C8.86693 14.0382 4.58389 11.3963 1.49279 14.4973C-1.22189 17.222 0.268047 21.7931 2.01035 25.9606C1.80361 26.9301 1.82357 28.0152 2.11871 29.1187C2.56783 30.7997 3.58584 32.2041 4.91182 32.9698C4.99451 33.0168 5.07721 33.0624 5.16133 33.1038C5.63611 34.2159 6.15795 35.5062 6.58426 36.7966C4.91467 37.4995 3.73982 39.1534 3.73982 41.0753C3.73982 43.1327 5.08576 44.8807 6.94356 45.4867V57.3834C5.08576 57.9894 3.73982 59.7374 3.73982 61.7948C3.73982 64.3541 5.82147 66.4357 8.38074 66.4357H64.5979C67.1572 66.4357 69.2388 64.3541 69.2388 61.7948C69.2388 59.7374 67.8929 57.9894 66.0351 57.3834V45.4867C67.8929 44.8807 69.2388 43.1327 69.2388 41.0753C69.2388 39.1591 68.0725 37.5123 66.4115 36.8037C66.8378 35.5105 67.361 34.2173 67.8372 33.1038C67.9214 33.0624 68.0041 33.0168 68.0868 32.9698C69.4127 32.2041 70.4322 30.7997 70.8799 29.1187C71.175 28.0152 71.195 26.9316 70.9882 25.9606C72.732 21.7916 74.2219 17.2206 71.5072 14.4959ZM3.5117 16.5077C4.90469 15.1104 7.43973 16.5048 11.1482 18.7932C14.359 20.7736 17.6797 22.8225 20.6852 22.0141C24.6674 20.9433 27.6716 17.4715 30.3221 14.4089C32.5435 11.8411 34.6436 9.41728 36.4886 9.41728C38.2566 9.41728 40.5877 12.0279 42.8419 14.5515C45.5494 17.5842 48.6177 21.0203 52.3133 22.0141C55.3189 22.8225 58.6395 20.7736 61.8504 18.7932C65.5588 16.5048 68.0939 15.1104 69.4869 16.5077C70.646 17.6711 70.0686 20.3045 69.1019 22.9636C68.7369 22.7113 68.3306 22.5188 67.8843 22.399C66.852 22.121 65.7328 22.2878 64.7305 22.8652C63.4045 23.6309 62.3851 25.0353 61.9374 26.7163C61.1432 29.6905 62.3309 32.5306 64.6506 33.3447C64.2571 34.3228 63.865 35.3765 63.5385 36.4316H9.46148C9.13498 35.3765 8.74289 34.3228 8.34938 33.3447C10.6691 32.5306 11.8554 29.6905 11.0612 26.7163C10.6121 25.0353 9.59408 23.6309 8.26811 22.8652C7.26578 22.2864 6.14654 22.121 5.11428 22.399C4.66943 22.5188 4.26166 22.7113 3.89666 22.9636C2.92998 20.3045 2.35254 17.6711 3.5117 16.5077ZM5.85426 25.1522C6.23352 25.051 6.59994 25.195 6.84233 25.3347C7.50816 25.7197 8.05567 26.511 8.3066 27.452C8.74147 29.0817 8.13836 30.4618 7.32424 30.6814C6.94498 30.7826 6.57856 30.6386 6.33617 30.4989C5.67033 30.1139 5.12283 29.3226 4.87189 28.3816C4.43846 26.7505 5.04156 25.3703 5.85426 25.1522ZM64.5993 63.5827H8.38217C7.39553 63.5827 6.59281 62.78 6.59281 61.7934C6.59281 60.8067 7.39553 60.004 8.38217 60.004H64.5993C65.5859 60.004 66.3887 60.8067 66.3887 61.7934C66.3887 62.78 65.5859 63.5827 64.5993 63.5827ZM64.5993 42.8618H42.9046C42.1176 42.8618 41.4788 43.5006 41.4788 44.2876C41.4788 45.0746 42.1176 45.7134 42.9046 45.7134H63.1864V57.1524H9.79512V45.7134H30.0754C30.8625 45.7134 31.5012 45.0746 31.5012 44.2876C31.5012 43.5006 30.8625 42.8618 30.0754 42.8618H8.38217C7.39553 42.8618 6.59281 42.0591 6.59281 41.0725C6.59281 40.0858 7.39553 39.2831 8.38217 39.2831C8.38502 39.2831 8.38645 39.2831 8.3893 39.2831C8.39072 39.2831 8.39215 39.2831 8.395 39.2831H64.6007C65.5874 39.2831 66.3901 40.0858 66.3901 41.0725C66.3887 42.0591 65.5859 42.8618 64.5993 42.8618ZM68.1267 28.3816C67.8757 29.3226 67.3282 30.1139 66.6624 30.4989C66.4214 30.6386 66.0536 30.7826 65.6743 30.6814C64.8602 30.4618 64.2571 29.0831 64.692 27.452C64.9429 26.511 65.4904 25.7197 66.1562 25.3347C66.3416 25.2278 66.5997 25.118 66.8805 25.118C66.9661 25.118 67.0545 25.128 67.1443 25.1522C67.9584 25.3703 68.563 26.7505 68.1267 28.3816Z" fill="black"/>
<path d="M36.49 42.8618C35.7015 42.8618 35.0642 43.5006 35.0642 44.2876C35.0642 45.0746 35.703 45.7134 36.49 45.7134C37.277 45.7134 37.9158 45.0746 37.9158 44.2876C37.9158 43.5006 37.277 42.8618 36.49 42.8618Z" fill="black"/>
</svg>
