<svg width="73" height="73" viewBox="0 0 73 73" fill="none" xmlns="http://www.w3.org/2000/svg">
<path fill-rule="evenodd" clip-rule="evenodd" d="M29.5353 35.8548L9.65789 1.4259H1.4259L23.5602 39.7637C23.9394 39.439 24.3928 39.2092 24.88 39.0955L26.852 38.441L28.1885 36.8087C28.5569 36.3586 29.0253 36.0387 29.5353 35.8548Z" fill="#52BA00"/>
<path fill-rule="evenodd" clip-rule="evenodd" d="M9.65796 1.42578L29.5354 35.8546C29.9851 35.6925 30.4672 35.6361 30.9416 35.6894L33.2067 35.8532L35.0437 34.8686C35.671 34.5339 36.3618 34.4373 37.0128 34.5472L17.8899 1.42578H9.65796Z" fill="#70FF00"/>
<path fill-rule="evenodd" clip-rule="evenodd" d="M17.89 1.42578L37.0128 34.5472C37.3458 34.6034 37.6683 34.7137 37.9666 34.8737L40.0133 35.9004L42.1052 35.692C43.1556 35.5887 44.1349 36.0229 44.7704 36.7703L46.3008 38.5392L47.8124 38.9959L44.7319 33.6602L40.616 26.5311L36.5003 19.4026L26.1211 1.42578H17.89Z" fill="white"/>
<path fill-rule="evenodd" clip-rule="evenodd" d="M46.8789 1.42578L36.5 19.4028L40.6156 26.5312L55.1102 1.42578H46.8789Z" fill="#52BA00"/>
<path fill-rule="evenodd" clip-rule="evenodd" d="M55.1103 1.42578L40.6157 26.5312L44.7316 33.6602L63.3422 1.42578H55.1103Z" fill="#70FF00"/>
<path fill-rule="evenodd" clip-rule="evenodd" d="M63.3422 1.42578L44.7316 33.6602L47.8121 38.9959L48.3155 39.148C48.7427 39.2771 49.1218 39.4899 49.4399 39.7631L71.5742 1.42578H63.3422Z" fill="white"/>
<path fill-rule="evenodd" clip-rule="evenodd" d="M47.8121 38.996L46.3005 38.5393L44.7701 36.7703C44.1346 36.0229 43.1552 35.5888 42.1049 35.692L40.013 35.9005L37.9663 34.8738C37.668 34.7138 37.3455 34.6034 37.0124 34.5473C36.3616 34.4375 35.6708 34.534 35.0434 34.8686L33.2065 35.8533L30.9413 35.6894C30.467 35.6361 29.9849 35.6924 29.5351 35.8547C29.025 36.0386 28.5566 36.3586 28.1883 36.8087L26.8518 38.4409L24.8798 39.0955C24.3926 39.209 23.9392 39.4389 23.56 39.7636C23.1244 40.1364 22.7869 40.634 22.6088 41.2234L22 43.2385L20.2311 44.7689C19.4837 45.4044 19.0495 46.3837 19.1528 47.4341L19.3612 49.526L18.3345 51.5727C17.8616 52.4538 17.8235 53.5471 18.3294 54.4955L19.314 56.3325L19.1502 58.5976C19.0364 59.6099 19.4222 60.6576 20.2694 61.3507L21.9017 62.6872L22.5562 64.6592C22.8002 65.7058 23.5815 66.5971 24.6842 66.9301L26.6992 67.5389L28.2297 69.3079C28.8651 70.0553 29.8445 70.4894 30.8949 70.3862L32.9866 70.1778L35.0333 71.2045C35.9143 71.6774 37.0077 71.7156 37.9561 71.2096L39.7931 70.2249L42.0582 70.3888C43.0705 70.5025 44.1182 70.1167 44.8113 69.2695L46.1478 67.6373L48.1198 66.9827C49.1664 66.7388 50.0577 65.9575 50.3907 64.8548L50.9995 62.8397L52.7685 61.3093C53.5159 60.6738 53.95 59.6945 53.8468 58.6441L53.6384 56.5524L54.6651 54.5057C55.138 53.6247 55.1762 52.5312 54.6703 51.5828L53.6857 49.7459L53.8495 47.4807C53.9633 46.4684 53.5773 45.4208 52.7303 44.7277L51.0981 43.3912L50.4435 41.4192C50.2941 40.778 49.943 40.1952 49.4399 39.7633C49.1217 39.4901 48.7427 39.2773 48.3154 39.1482L47.8121 38.996ZM36.5 41.6329C42.7995 41.6329 47.9062 46.7396 47.9062 53.0391C47.9062 59.3386 42.7995 64.4453 36.5 64.4453C30.2005 64.4453 25.0938 59.3386 25.0938 53.0391C25.0938 46.7396 30.2005 41.6329 36.5 41.6329Z" fill="#EAEAEA"/>
<path d="M44.5548 61.1014C49.0086 56.6477 49.0086 49.4268 44.5548 44.973C40.1011 40.5193 32.8801 40.5193 28.4264 44.973C23.9727 49.4268 23.9727 56.6477 28.4264 61.1014C32.8801 65.5552 40.1011 65.5552 44.5548 61.1014Z" fill="#C1C1C1"/>
<path d="M36.5001 40.2069C29.4245 40.2069 23.6681 45.9633 23.6681 53.0389C23.6681 60.1144 29.4245 65.8708 36.5001 65.8708C43.5756 65.8708 49.332 60.1144 49.332 53.0389C49.332 45.9633 43.5756 40.2069 36.5001 40.2069ZM36.5001 63.0194C30.9969 63.0194 26.5196 58.5422 26.5196 53.039C26.5196 47.5358 30.9969 43.0586 36.5001 43.0586C42.0033 43.0586 46.4805 47.5358 46.4805 53.039C46.4805 58.5422 42.0033 63.0194 36.5001 63.0194Z" fill="black"/>
<path d="M72.8094 0.712886C72.5548 0.271752 72.084 0 71.5747 0H46.8796C46.3703 0 45.8995 0.271752 45.6449 0.712886L36.5007 16.5512L27.3564 0.712886C27.1017 0.271752 26.6311 0 26.1216 0H1.42654C0.917112 0 0.446465 0.271752 0.191822 0.712886C-0.062964 1.15402 -0.062964 1.69753 0.191822 2.13866L21.8208 39.6013C21.5733 39.9697 21.3764 40.3756 21.2448 40.811L20.7555 42.4306L19.3083 43.6827C18.1779 44.6439 17.5897 46.0984 17.735 47.5753L17.9023 49.256L17.069 50.9175C16.3621 52.2497 16.3628 53.8366 17.0737 55.1691L17.863 56.6418L17.7308 58.4691C17.5696 59.995 18.1799 61.4826 19.367 62.4537L20.6795 63.5283L21.1852 65.0522C21.5709 66.5956 22.748 67.8344 24.2727 68.2949L25.8922 68.7843L27.1442 70.2314C28.1053 71.3619 29.5599 71.9502 31.037 71.8049L32.7177 71.6374L34.3787 72.4706C35.0437 72.8236 35.7718 73.0001 36.5004 73.0001C37.2315 73.0001 37.9631 72.8222 38.6305 72.4662L40.1032 71.6769L41.9303 71.8091C43.4562 71.97 44.944 71.3601 45.9151 70.1728L46.9898 68.8603L48.5137 68.3545C50.0569 67.969 51.2958 66.7919 51.7565 65.267L52.2456 63.6476L53.6928 62.3955C54.8233 61.4344 55.4116 59.9798 55.2663 58.5027L55.0986 56.8222L55.9321 55.1609C56.6392 53.8288 56.6383 52.242 55.9276 50.9092L55.1383 49.4364L55.2704 47.6091C55.4315 46.0834 54.8212 44.5957 53.6342 43.6247L52.3218 42.5499L51.8159 41.026C51.6872 40.5111 51.4687 40.0311 51.1803 39.6017L72.8094 2.13866C73.0641 1.69753 73.0641 1.15402 72.8094 0.712886ZM42.2625 26.5312L55.934 2.85155H60.8733L44.7321 30.8088L42.2625 26.5312ZM47.7027 2.85155H52.6413L40.6162 23.6797L38.1469 19.4028L47.7027 2.85155ZM43.5065 34.3889C43.0089 34.2642 42.4882 34.2217 41.9643 34.2734L40.2836 34.4408L38.6222 33.6075C38.4045 33.492 38.1797 33.3973 37.9506 33.3196L20.3601 2.85155H25.2985L43.5065 34.3889ZM8.83528 2.85155L15.1539 13.7956C15.4179 14.253 15.8971 14.5088 16.3899 14.5088C16.6317 14.5088 16.8769 14.4471 17.1015 14.3175C17.7834 13.9238 18.0171 13.0518 17.6233 12.3699L12.128 2.85155H17.0674L34.729 33.4426C34.608 33.4943 34.4881 33.5494 34.3706 33.612L32.8979 34.4015L31.0708 34.2693C30.7983 34.2405 30.5271 34.2374 30.2598 34.2568L24.0404 23.4845C23.6466 22.8025 22.7746 22.5687 22.0928 22.9626C21.4109 23.3563 21.1772 24.2283 21.571 24.9102L27.6084 35.3674C27.4221 35.5311 27.2466 35.7096 27.0862 35.9055L26.0114 37.2179L24.4876 37.7238C24.3551 37.7569 24.2258 37.798 24.098 37.8424L3.89612 2.85155H8.83528ZM51.8282 45.831C52.2712 46.1936 52.4976 46.7507 52.4334 47.3213C52.4313 47.3399 52.4296 47.3588 52.4283 47.3776L52.2645 49.6426C52.2449 49.9119 52.3024 50.1811 52.4299 50.419L53.4131 52.2534C53.6764 52.747 53.6751 53.3367 53.4098 53.8311C53.4035 53.8427 53.3975 53.8544 53.3915 53.8661L52.3648 55.9128C52.2438 56.1542 52.1937 56.425 52.2204 56.6936L52.4289 58.7836C52.4825 59.329 52.2646 59.8671 51.8367 60.2309L50.0678 61.7613C49.8636 61.938 49.7139 62.1688 49.6358 62.4272L49.0271 64.4422C48.8536 65.0164 48.3824 65.4577 47.7971 65.5941C47.7547 65.6039 47.713 65.6158 47.6716 65.6295L45.6996 66.284C45.4434 66.369 45.2166 66.525 45.0456 66.7339L43.7087 68.3665C43.3463 68.8095 42.7898 69.0359 42.2186 68.9718C42.1998 68.9696 42.181 68.9679 42.1621 68.9665L39.897 68.8027C39.627 68.7833 39.3587 68.8406 39.1207 68.9681L37.2863 69.9513C36.7927 70.2145 36.2031 70.2132 35.7087 69.9479C35.6971 69.9417 35.6854 69.9356 35.6736 69.9297L33.6269 68.903C33.4279 68.8032 33.2089 68.7516 32.9876 68.7516C32.9405 68.7516 32.8933 68.7539 32.8462 68.7586L30.7561 68.9669C30.2108 69.0205 29.6727 68.8027 29.3088 68.3748L27.7784 66.6058C27.6017 66.4017 27.3709 66.2518 27.1126 66.1738L25.0974 65.565C24.5233 65.3916 24.0819 64.9204 23.9455 64.3352C23.9356 64.2929 23.9238 64.251 23.9101 64.2098L23.2557 62.2377C23.1706 61.9815 23.0146 61.7546 22.8057 61.5837L21.1731 60.2469C20.7299 59.8843 20.5037 59.3273 20.5678 58.7567C20.57 58.738 20.5717 58.719 20.5731 58.7002L20.7369 56.4351C20.7563 56.1659 20.699 55.8967 20.5715 55.6588L19.5883 53.8244C19.3251 53.3309 19.3264 52.7412 19.5916 52.2469C19.5979 52.2353 19.6039 52.2236 19.6097 52.2118L20.6364 50.1651C20.7575 49.9239 20.8075 49.6531 20.7807 49.3845L20.5725 47.2943C20.5189 46.749 20.7368 46.2109 21.1647 45.847L22.9336 44.3166C23.1378 44.1399 23.2876 43.9091 23.3656 43.6507L23.9744 41.6356C24.1478 41.0617 24.619 40.6203 25.2043 40.4838C25.2465 40.474 25.2884 40.4622 25.3296 40.4485L27.3016 39.7939C27.5578 39.7089 27.7845 39.5529 27.9556 39.3441L29.2924 37.7114C29.6548 37.2683 30.2122 37.0423 30.7826 37.1062C30.8013 37.1083 30.8201 37.11 30.8391 37.1114L33.1042 37.2753C33.3735 37.2945 33.6427 37.2373 33.8807 37.1099L35.7151 36.1267C36.2084 35.8633 36.7981 35.8647 37.2927 36.1301C37.3043 36.1362 37.3159 36.1423 37.3276 36.1482L39.3743 37.1749C39.6156 37.2959 39.8863 37.3463 40.1549 37.3192L42.2451 37.111C42.7915 37.057 43.3286 37.2753 43.6924 37.7031L45.2227 39.4721C45.3992 39.6763 45.6302 39.826 45.8885 39.9041L47.9039 40.5131C48.4778 40.6863 48.919 41.1576 49.0555 41.7428C49.0653 41.785 49.0771 41.8269 49.0908 41.8681L49.7454 43.8402C49.8305 44.0964 49.9864 44.3233 50.1952 44.4942L51.8282 45.831ZM48.9033 37.8423C48.8579 37.8265 48.8124 37.8102 48.7662 37.7958L46.3784 33.6602L64.166 2.85155H69.1051L48.9033 37.8423Z" fill="black"/>
<path d="M19.5968 17.2144H19.5956C18.8082 17.2144 18.1704 17.8527 18.1704 18.6401C18.1704 19.4276 18.8093 20.0659 19.5968 20.0659C20.3842 20.0659 21.0225 19.4276 21.0225 18.6401C21.0225 17.8527 20.3842 17.2144 19.5968 17.2144Z" fill="black"/>
<path d="M39.3513 57.3163H35.9157C36.2297 57.0276 36.6233 56.7185 37.0826 56.3642C38.7132 55.106 40.7425 53.5403 40.7769 50.5909C40.8026 48.4248 39.4171 46.5541 37.4079 46.0416C35.4877 45.5519 33.6143 46.4259 32.6368 48.269C32.2678 48.9646 32.5327 49.8277 33.2284 50.1967C33.924 50.5658 34.787 50.3007 35.156 49.6051C35.6418 48.6895 36.334 48.7108 36.7033 48.8048C37.3201 48.9622 37.9373 49.565 37.9256 50.5574C37.9085 52.0205 36.9376 52.8743 35.3405 54.1066C33.8791 55.2342 32.2228 56.5123 32.2228 58.7422C32.2228 59.5297 32.8611 60.168 33.6486 60.168H39.3513C40.1386 60.168 40.777 59.5297 40.777 58.7422C40.777 57.9548 40.1387 57.3163 39.3513 57.3163Z" fill="black"/>
</svg>
