<svg width="73" height="73" viewBox="0 0 73 73" fill="none" xmlns="http://www.w3.org/2000/svg">
<g clip-path="url(#clip0)">
<path fill-rule="evenodd" clip-rule="evenodd" d="M40.0831 63.0195H54.4478C57.6002 63.0423 60.1681 60.4603 60.1681 57.3164V9.98047H24.2384V7.12891C24.2384 3.97936 21.6848 1.42578 18.5353 1.42578C15.3857 1.42578 12.8321 3.97936 12.8321 7.12891V54.4648V57.3164C12.8321 60.4588 10.29 63.0081 7.15039 63.0195H32.9157H40.0831Z" fill="white"/>
<path fill-rule="evenodd" clip-rule="evenodd" d="M24.2383 7.12891V9.98047H60.168H71.5742V7.12891C71.5742 3.97936 69.0206 1.42578 65.8711 1.42578H18.5352C21.6847 1.42578 24.2383 3.97936 24.2383 7.12891Z" fill="#A7BDCD"/>
<path fill-rule="evenodd" clip-rule="evenodd" d="M12.832 54.4648H1.42578V57.3164C1.42578 60.466 3.97936 63.0195 7.12891 63.0195H7.15029C10.2899 63.0081 12.832 60.4588 12.832 57.3164V54.4648Z" fill="#A7BDCD"/>
<path fill-rule="evenodd" clip-rule="evenodd" d="M31.4142 52.376L30.9052 56.2541C30.8439 56.5507 30.8767 56.8701 31.0192 57.1638C31.3629 57.8681 32.2098 58.1633 32.9155 57.8254C32.9184 57.8239 32.9212 57.8225 32.9241 57.8211L36.4586 56.1002L40.0829 57.8268C40.3253 57.9423 40.6048 57.9893 40.8899 57.9494C41.6684 57.841 42.2116 57.1239 42.1047 56.3454L41.56 52.4473L44.2633 49.5972C44.4815 49.3933 44.6383 49.1181 44.6939 48.8016C44.8293 48.026 44.3104 47.2888 43.5347 47.1534L39.6609 46.4676L37.7447 42.9431C37.6163 42.7078 37.4196 42.5053 37.1658 42.3699C36.4743 42.0006 35.6131 42.263 35.2438 42.9545L33.3946 46.4262L29.4922 47.152C29.2114 47.1947 28.939 47.3216 28.7195 47.5326C28.1534 48.0773 28.1363 48.977 28.681 49.543L31.4142 52.376Z" fill="#FFA300"/>
<path d="M32.3081 59.3895C31.2502 59.3895 30.2308 58.7992 29.7375 57.7883C29.4723 57.2422 29.3881 56.6192 29.4965 56.026L29.91 52.8708L27.6544 50.5325C26.5637 49.399 26.5993 47.594 27.73 46.5047C28.1506 46.1012 28.6753 45.8388 29.2498 45.7461L32.4578 45.1502L33.9849 42.2843C34.3427 41.6128 34.9416 41.1223 35.6687 40.8999C36.3959 40.6789 37.1672 40.7531 37.8373 41.1124C38.3292 41.3747 38.7299 41.7725 38.9965 42.2615L40.5862 45.1844L43.7842 45.7504C45.3298 46.0199 46.3692 47.4999 46.0997 49.0483C45.9942 49.6485 45.7091 50.1846 45.2742 50.6052L43.0685 52.9307L43.5176 56.1487C43.7315 57.7056 42.6408 59.1456 41.0881 59.3624C40.5335 59.4394 39.9746 59.3538 39.4713 59.1143L36.4671 57.6828L33.5329 59.1114C33.1365 59.2996 32.7202 59.3895 32.3081 59.3895ZM36.4515 54.5176L40.696 56.5393L40.053 51.964L43.2895 48.5549L38.7356 47.7508L36.4914 43.6232L34.3299 47.7009L29.7061 48.5592L32.9169 51.8784L32.3024 56.5365L36.4515 54.5176Z" fill="black"/>
<path d="M32.3082 59.0358C31.3829 59.0358 30.4903 58.5183 30.0583 57.6343C29.8216 57.1481 29.7489 56.6134 29.8487 56.083L30.2865 52.7481L27.9111 50.2858C27.4491 49.8053 27.2025 49.1751 27.2153 48.5093C27.2282 47.8435 27.4991 47.2232 27.9795 46.7627C28.3488 46.4077 28.8093 46.1781 29.3141 46.0983L32.6946 45.4695L34.3015 42.4526C34.6151 41.8652 35.137 41.436 35.7729 41.2421C36.4088 41.0482 37.0832 41.1138 37.6692 41.4274C38.0997 41.657 38.4505 42.0049 38.6843 42.4326L40.3539 45.5052L43.7202 46.1012C44.3732 46.2152 44.9463 46.5788 45.3299 47.1234C45.7134 47.6681 45.8603 48.3296 45.7462 48.9869C45.655 49.513 45.4026 49.9864 45.0191 50.3557L42.6908 52.8123L43.1641 56.2C43.3523 57.563 42.3985 58.8234 41.0368 59.0116C40.5507 59.0786 40.0616 59.0045 39.6225 58.7949L36.4644 57.2907L33.3718 58.7949C33.0297 58.9574 32.6661 59.0358 32.3082 59.0358ZM36.5 43.271C36.4572 43.271 36.4216 43.2795 36.3974 43.2867C36.346 43.3023 36.2491 43.3451 36.1906 43.4577L34.099 47.3844L29.6548 48.2099C29.5821 48.2213 29.518 48.2527 29.4638 48.304C29.3725 48.3924 29.3568 48.4965 29.3554 48.5506C29.354 48.6048 29.3654 48.7103 29.4538 48.8016L32.542 52.0053L31.9532 56.4709C31.9418 56.525 31.9375 56.6077 31.9817 56.6961C32.0673 56.8715 32.2797 56.9456 32.4551 56.8615L32.4693 56.8544L36.4558 54.9139L40.5449 56.8615C40.6048 56.89 40.6747 56.9 40.746 56.89C40.9399 56.863 41.0753 56.6847 41.0483 56.4922L40.4323 52.0852L43.5362 48.8144C43.5762 48.7773 43.6261 48.7132 43.6432 48.6162C43.6774 48.4223 43.5476 48.2384 43.3537 48.2042L38.9709 47.4271L36.8094 43.4506C36.7766 43.3907 36.7281 43.3423 36.6668 43.3095C36.6041 43.281 36.5485 43.271 36.5 43.271Z" fill="black"/>
<path d="M65.8711 0H18.5352C14.6043 0 11.4062 3.19803 11.4062 7.12891V53.0391H1.42578C0.63875 53.0391 0 53.6778 0 54.4648V57.3164C0 61.2473 3.19803 64.4453 7.12891 64.4453H31.4912H41.5102H54.4392C54.4563 64.4453 54.4734 64.4453 54.4905 64.4453C56.3697 64.4453 58.1405 63.7125 59.4836 62.3794C60.8466 61.0263 61.5966 59.2284 61.5966 57.315V11.4062H71.5771C72.3641 11.4062 73.0029 10.7675 73.0029 9.98047V7.12891C73 3.19803 69.802 0 65.8711 0ZM2.85156 57.3164V55.8906H11.4062V57.3164C11.4062 59.6746 9.48715 61.5938 7.12891 61.5938C4.77066 61.5938 2.85156 59.6746 2.85156 57.3164ZM58.7422 57.3164C58.7422 58.4627 58.2902 59.5435 57.4718 60.3562C56.6677 61.1546 55.6097 61.5938 54.4791 61.5938C54.4691 61.5938 54.4591 61.5938 54.4492 61.5938H41.8453C42.2844 61.4013 12.8306 61.5938 12.8306 61.5938C13.7274 60.4018 14.2607 58.9204 14.2607 57.3164V7.12891C14.2607 4.77066 16.1798 2.85156 18.538 2.85156C20.8963 2.85156 22.8154 4.77066 22.8154 7.12891V9.98047C22.8154 10.3583 22.9651 10.7204 23.2331 10.9885C23.4969 11.2551 23.8604 11.4062 24.2383 11.4062H58.7422V57.3164ZM70.1484 8.55469H25.6641V7.12891C25.6641 5.5249 25.1322 4.04352 24.2354 2.85156H65.8711C68.2293 2.85156 70.1484 4.77066 70.1484 7.12891V8.55469Z" fill="black"/>
<path d="M17.8052 32.2484C17.8052 33.0354 18.4439 33.6741 19.231 33.6741H53.7705C54.5575 33.6741 55.1963 33.0354 55.1963 32.2484C55.1963 31.4613 54.5575 30.8226 53.7705 30.8226H19.231C18.4425 30.8226 17.8052 31.4613 17.8052 32.2484Z" fill="black"/>
<path d="M53.7705 36.5257H42.916C42.129 36.5257 41.4902 37.1644 41.4902 37.9515C41.4902 38.7385 42.129 39.3773 42.916 39.3773H53.7705C54.5575 39.3773 55.1963 38.7385 55.1963 37.9515C55.1963 37.1644 54.5575 36.5257 53.7705 36.5257Z" fill="black"/>
<path d="M30.084 36.5257H19.231C18.4439 36.5257 17.8052 37.1644 17.8052 37.9515C17.8052 38.7385 18.4439 39.3773 19.231 39.3773H30.084C30.871 39.3773 31.5098 38.7385 31.5098 37.9515C31.5098 37.1644 30.871 36.5257 30.084 36.5257Z" fill="black"/>
<path d="M36.5 36.5257C35.7115 36.5257 35.0742 37.1644 35.0742 37.9515C35.0742 38.7385 35.713 39.3773 36.5 39.3773C37.287 39.3773 37.9258 38.7385 37.9258 37.9515C37.9258 37.1644 37.287 36.5257 36.5 36.5257Z" fill="black"/>
</g>
<defs>
<clipPath id="clip0">
<rect width="73" height="73" fill="white"/>
</clipPath>
</defs>
</svg>
