<svg width="61" height="73" viewBox="0 0 61 73" fill="none" xmlns="http://www.w3.org/2000/svg">
<path fill-rule="evenodd" clip-rule="evenodd" d="M11.49 29.9414H30.5004V10.931C30.5004 5.68145 26.2447 1.42578 20.9951 1.42578C15.7455 1.42578 11.49 5.68145 11.49 10.931C6.24041 10.931 1.98474 15.1867 1.98474 20.4361C1.98474 25.6857 6.24041 29.9414 11.49 29.9414Z" fill="#70FF00"/>
<path fill-rule="evenodd" clip-rule="evenodd" d="M30.5 10.931V29.9413H49.5104C54.76 29.9413 59.0156 25.6857 59.0156 20.4361C59.0156 15.1865 54.76 10.931 49.5104 10.931C49.5104 5.68139 45.2547 1.42572 40.0053 1.42572C34.7557 1.42572 30.5 5.68139 30.5 10.931Z" fill="#52BA00"/>
<path fill-rule="evenodd" clip-rule="evenodd" d="M49.5104 29.9412H30.5V48.9515C30.5 54.2011 34.7557 58.4568 40.0053 58.4568C45.2548 58.4568 49.5104 54.2011 49.5104 48.9515C54.76 48.9515 59.0156 44.6959 59.0156 39.4464C59.0156 34.1968 54.76 29.9412 49.5104 29.9412Z" fill="#70FF00"/>
<path fill-rule="evenodd" clip-rule="evenodd" d="M30.5001 48.9518V29.9414H11.4898C6.24017 29.9414 1.9845 34.1971 1.9845 39.4467C1.9845 43.1317 4.08154 46.3271 7.14739 47.9043C8.44899 48.5739 9.9251 48.9518 11.4896 48.9518C11.4896 49.7767 11.5947 50.5772 11.7922 51.3402C12.8515 55.4337 16.5701 58.457 20.9947 58.457C26.2444 58.457 30.5001 54.2014 30.5001 48.9518Z" fill="#52BA00"/>
<path fill-rule="evenodd" clip-rule="evenodd" d="M7.68762 68.7228C7.68762 62.4729 9.16644 56.5687 11.7923 51.3402C11.5948 50.577 11.4898 49.7767 11.4898 48.9517C9.92524 48.9517 8.44913 48.5738 7.14754 47.9039C3.85184 54.1156 1.9845 61.2011 1.9845 68.7228C1.9845 70.2977 3.26114 71.5743 4.83606 71.5743C6.41098 71.5743 7.68762 70.2975 7.68762 68.7228Z" fill="#70FF00"/>
<path d="M54.9041 29.9413C58.2085 28.0588 60.4413 24.5034 60.4413 20.4361C60.4413 14.8634 56.2499 10.2515 50.8539 9.58734C50.1898 4.19135 45.5777 0 40.0051 0C35.9378 0 32.3823 2.23276 30.4999 5.53714C28.6175 2.23276 25.0621 0 20.9948 0C15.4221 0 10.8102 4.19135 10.1461 9.58734C4.75007 10.2515 0.558716 14.8634 0.558716 20.4361C0.558716 24.5034 2.79148 28.0588 6.09586 29.9413C2.79148 31.8237 0.558716 35.3792 0.558716 39.4465C0.558716 43.1672 2.42862 46.4576 5.27646 48.4327C2.18695 54.702 0.558716 61.6887 0.558716 68.7227C0.558716 71.0812 2.47752 73 4.83604 73C7.19456 73 9.11337 71.0812 9.11337 68.7227C9.11337 63.8914 10.0115 59.2313 11.783 54.8278C13.727 57.8647 17.1291 59.8826 20.9948 59.8826C25.0621 59.8826 28.6176 57.6498 30.5 54.3454C32.3825 57.6498 35.9379 59.8826 40.0051 59.8826C45.5777 59.8826 50.1897 55.6914 50.8538 50.2952C56.2498 49.6311 60.4411 45.019 60.4411 39.4464C60.4413 35.3792 58.2085 31.8237 54.9041 29.9413ZM40.0051 2.85155C44.2687 2.85155 47.7693 6.17204 48.0623 10.3625L40.8249 17.5999C40.2681 18.1567 40.2681 19.0595 40.8249 19.6164C41.1034 19.8948 41.4682 20.034 41.8331 20.034C42.1979 20.034 42.5629 19.8947 42.8412 19.6164L50.0786 12.379C54.2691 12.672 57.5896 16.1724 57.5896 20.4362C57.5896 24.8912 53.9651 28.5157 49.5102 28.5157H33.9421L35.3466 27.1111C35.9035 26.5544 35.9035 25.6516 35.3466 25.0948C34.7899 24.5379 33.8871 24.538 33.3303 25.0948L31.9255 26.4995V10.931C31.9258 6.47602 35.5501 2.85155 40.0051 2.85155ZM3.41027 20.4361C3.41027 16.1723 6.73076 12.6719 10.9214 12.3789L18.1586 19.6162C18.4371 19.8947 18.8019 20.0339 19.1668 20.0339C19.5317 20.0339 19.8967 19.8946 20.175 19.6162C20.7319 19.0595 20.7319 18.1567 20.175 17.5999L12.9376 10.3624C13.2306 6.17218 16.7311 2.85155 20.9948 2.85155C25.4498 2.85155 29.0742 6.47602 29.0742 10.931V26.499L27.6697 25.0945C27.1129 24.5376 26.2101 24.5377 25.6534 25.0945C25.0965 25.6513 25.0965 26.5541 25.6534 27.1108L27.058 28.5155H11.4897C7.03473 28.5155 3.41027 24.8912 3.41027 20.4361ZM6.26182 68.7225C6.26182 69.5087 5.62222 70.1483 4.83604 70.1483C4.04987 70.1483 3.41027 69.5087 3.41027 68.7225C3.41027 62.1416 4.929 55.6055 7.81149 49.7388C8.55618 50.0057 9.33722 50.1956 10.1461 50.2952C10.1821 50.5881 10.2319 50.8765 10.2908 51.1618C7.61745 56.6556 6.26182 62.5609 6.26182 68.7225ZM20.9948 57.031C16.7311 57.031 13.2306 53.7105 12.9376 49.52L15.638 46.8196C16.1948 46.2629 16.1948 45.3601 15.638 44.8031C15.0812 44.2462 14.1784 44.2464 13.6215 44.8031L10.9211 47.5036C6.73061 47.2106 3.41012 43.71 3.41012 39.4464C3.41012 34.9914 7.03459 31.3669 11.4896 31.3669H27.0578L25.6531 32.7716C25.0962 33.3284 25.0962 34.2312 25.6531 34.7879C25.9315 35.0664 26.2964 35.2055 26.6612 35.2055C27.0261 35.2055 27.3911 35.0662 27.6694 34.7879L29.0742 33.3833V48.9514C29.0742 53.4067 25.4499 57.031 20.9948 57.031ZM50.0786 47.5037L42.8414 40.2663C42.2846 39.7096 41.3818 39.7096 40.825 40.2663C40.2681 40.8231 40.2681 41.7259 40.825 42.2827L48.0624 49.5202C47.7694 53.7107 44.269 57.0312 40.0052 57.0312C35.5502 57.0312 31.9258 53.4068 31.9258 48.9517V33.3834L33.3305 34.7881C33.6089 35.0665 33.9738 35.2057 34.3386 35.2057C34.7035 35.2057 35.0685 35.0664 35.3468 34.7881C35.9037 34.2313 35.9037 33.3285 35.3468 32.7717L33.9421 31.3671H49.5103C53.9653 31.3671 57.5897 34.9914 57.5897 39.4465C57.5897 43.7101 54.2692 47.2107 50.0786 47.5037Z" fill="black"/>
<path d="M19.1671 39.8488H19.1661C18.3786 39.8488 17.7408 40.4871 17.7408 41.2746C17.7408 42.0621 18.3796 42.7004 19.1671 42.7004C19.9545 42.7004 20.5928 42.0621 20.5928 41.2746C20.5928 40.4871 19.9545 39.8488 19.1671 39.8488Z" fill="black"/>
</svg>
