<svg width="73" height="68" viewBox="0 0 73 68" fill="none" xmlns="http://www.w3.org/2000/svg">
<path d="M14 2.29993C14 2.29993 7.69995 8.39993 14 14.4999C14 14.4999 19.8 9.09993 14 2.29993Z" fill="#56C023"/>
<path d="M14 15.8999L13.3 15.1999C11.2 13.1999 10.2 10.9999 10.2 8.5999C10.2 4.5999 13.2 1.6999 13.3 1.5999L14.1 0.899902L14.8 1.6999C21.2 9.0999 14.8 15.1999 14.7 15.2999L14 15.8999ZM14 3.8999C13.3 4.8999 12.2 6.5999 12.2 8.5999C12.2 10.0999 12.8 11.5999 14 12.9999C15.1 11.4999 16.9 8.0999 14 3.8999Z" fill="black"/>
<path d="M7.30004 7.8999C7.30004 7.8999 4.10004 16.0999 12.4 18.9999C12.4 18.9999 15.4 11.6999 7.30004 7.8999Z" fill="#56C023"/>
<path d="M12.9 20.2999L12 19.9999C9.29999 18.9999 7.39999 17.4999 6.39999 15.2999C4.69999 11.6999 6.19999 7.79985 6.29999 7.59985L6.69999 6.59985L7.69999 6.99985C16.6 11.0999 13.3 19.2999 13.3 19.3999L12.9 20.2999ZM7.89999 9.39985C7.59999 10.5999 7.39999 12.5999 8.29999 14.3999C8.89999 15.7999 10.1 16.8999 11.7 17.5999C12.1 15.8999 12.4 11.9999 7.89999 9.39985Z" fill="black"/>
<path d="M3.6 15.2999C3.6 15.2999 3.3 23.9999 12 24.0999C12 24.0999 12.5 16.1999 3.6 15.2999Z" fill="#56C023"/>
<path d="M12.9 25.1H12C9.09996 25.1 6.89996 24.2 5.19996 22.5C2.49996 19.6 2.59996 15.3999 2.59996 15.2999V14.2L3.69996 14.2999C13.4 15.2999 13 24.1 13 24.2L12.9 25.1ZM4.59996 16.5C4.69996 17.7 5.19996 19.7 6.59996 21.1C7.69996 22.2 9.09996 22.9 10.9 23.1C10.7 21.2 9.69996 17.5 4.59996 16.5Z" fill="black"/>
<path d="M1.19995 22.3C1.19995 22.3 2.29995 31 11 29.6C11 29.5 10.1 21.7 1.19995 22.3Z" fill="#56C023"/>
<path d="M12.1 30.4L11.2 30.4999C8.39995 30.9999 5.99995 30.4999 4.09995 28.9999C0.899951 26.5999 0.299951 22.4999 0.299951 22.2999L0.199951 21.1999L1.29995 21.0999C11.1 20.3999 12.1 29.1999 12.1 29.2999V30.4ZM2.49995 23.1999C2.89995 24.3999 3.59995 26.2 5.29995 27.4C6.49995 28.3 8.09995 28.6999 9.89995 28.5999C9.29995 26.8999 7.59995 23.3999 2.49995 23.1999Z" fill="black"/>
<path d="M1.30005 29.7999C1.30005 29.7999 4.40005 37.9999 12.5 34.5999C12.5 34.5999 9.90005 27.0999 1.30005 29.7999Z" fill="#56C023"/>
<path d="M13.8 35.0999L12.9 35.4999C10.3 36.5999 7.8 36.6999 5.6 35.6999C1.9 34.0999 0.4 30.2999 0.4 30.0999L0 29.0999L1 28.7999C10.4 25.8999 13.4 34.0999 13.4 34.1999L13.8 35.0999ZM2.8 30.3999C3.4 31.4999 4.6 33.0999 6.5 33.8999C7.9 34.4999 9.5 34.4999 11.2 33.9999C10.2 32.3999 7.8 29.2999 2.8 30.3999Z" fill="black"/>
<path d="M1.30005 35.8999C1.30005 35.8999 4.40005 44.0999 12.5 40.6999C12.5 40.6999 9.90005 33.2999 1.30005 35.8999Z" fill="#56C023"/>
<path d="M13.8 41.2999L12.9 41.6999C10.3 42.7999 7.8 42.8999 5.6 41.8999C1.9 40.2999 0.4 36.4999 0.4 36.2999L0 35.2999L1 34.9999C10.4 32.0999 13.4 40.2999 13.4 40.3999L13.8 41.2999ZM2.8 36.5999C3.4 37.6999 4.6 39.2999 6.5 40.0999C7.9 40.6999 9.5 40.6999 11.2 40.1999C10.2 38.5999 7.8 35.4999 2.8 36.5999Z" fill="black"/>
<path d="M2.80005 42.8999C2.80005 42.8999 7.30005 50.3999 14.7 45.5999C14.7 45.5999 10.8 38.6999 2.80005 42.8999Z" fill="#56C023"/>
<path d="M16 45.8999L15.2 46.3999C12.8 47.9999 10.4 48.4999 8.10005 47.8999C4.20005 46.9999 2.00005 43.4999 1.90005 43.2999L1.30005 42.3999L2.40005 41.9999C11.1 37.4999 15.6 44.9999 15.6 45.0999L16 45.8999ZM4.40005 43.2999C5.20005 44.1999 6.70005 45.5999 8.60005 46.0999C10.1 46.3999 11.7 46.1999 13.3 45.3999C12.1 43.8999 9.10005 41.2999 4.40005 43.2999Z" fill="black"/>
<path d="M5.09998 49.9999C5.09998 49.9999 11.3 56.0999 17.3 49.6999C17.3 49.6999 11.8 43.9999 5.09998 49.9999Z" fill="#56C023"/>
<path d="M18.7 49.6999L18 50.3999C16 52.4999 13.9 53.5999 11.5 53.5999C7.49998 53.6999 4.49998 50.7999 4.39998 50.6999L3.59998 49.9999L4.39998 49.2999C11.7 42.7999 17.9 48.9999 18 49.0999L18.7 49.6999ZM6.69998 49.9999C7.69998 50.6999 9.49998 51.6999 11.5 51.6999C13 51.6999 14.5 50.9999 15.8 49.7999C14.3 48.6999 10.8 46.8999 6.69998 49.9999Z" fill="black"/>
<path d="M9.59998 55.7999C9.59998 55.7999 16.8 60.7999 21.6 53.4999C21.6 53.4999 15.2 48.7999 9.59998 55.7999Z" fill="#56C023"/>
<path d="M23 53.2999L22.5 54.0999C20.9 56.4999 19 57.8999 16.6 58.3999C12.7 59.1999 9.29995 56.7999 9.09995 56.6999L8.19995 55.9999L8.89995 55.1999C15 47.4999 22.2 52.5999 22.2 52.6999L23 53.2999ZM11.2 55.5999C12.3 56.0999 14.2 56.7999 16.2 56.3999C17.7 56.0999 19 55.1999 20.2 53.7999C18.5 52.9999 14.8 51.7999 11.2 55.5999Z" fill="black"/>
<path d="M15.3 61.2999C15.3 61.2999 23.6 63.9999 26.1 55.5999C26 55.5999 18.5 52.9999 15.3 61.2999Z" fill="#56C023"/>
<path d="M27.3 54.9999L27 55.8999C26.2 58.5999 24.7 60.5999 22.6 61.6999C19.1 63.5999 15.1 62.2999 14.9 62.2999L14 61.9999L14.4 60.9999C18 51.8999 26.3 54.6999 26.4 54.6999L27.3 54.9999ZM16.7 60.5999C17.9 60.7999 19.9 60.8999 21.7 59.8999C23 59.1999 24.1 57.9999 24.7 56.2999C22.9 55.9999 19 55.9999 16.7 60.5999Z" fill="black"/>
<path d="M21.2 66.7999C21.2 66.7999 29.9 66.5999 29.5 57.8999C29.5 57.8999 21.6 57.8999 21.2 66.7999Z" fill="#56C023"/>
<path d="M30.4 56.9V57.7999C30.5 60.6999 29.8 62.9999 28.2 64.6999C25.5 67.5999 21.3 67.6999 21.1 67.6999H20V66.5999C20.4 56.7999 29.2 56.7 29.3 56.7L30.4 56.9ZM22.3 65.6999C23.5 65.4999 25.4 64.9 26.8 63.4C27.8 62.3 28.4 60.8 28.5 59C26.7 59.3 23 60.5999 22.3 65.6999Z" fill="black"/>
<path d="M28.8999 66.7999C28.8999 66.7999 37.3999 64.8999 35.2999 56.3999C35.2999 56.3999 27.5999 57.8999 28.8999 66.7999Z" fill="#56C023"/>
<path d="M36.0999 55.2L36.2999 56.0999C36.9999 58.8999 36.6999 61.3 35.4999 63.3C33.3999 66.7 29.2999 67.5999 29.1999 67.6999L28.1999 67.9L27.9999 66.8C26.4999 57.1 35.0999 55.2999 35.1999 55.2999L36.0999 55.2ZM29.7999 65.4C30.8999 64.9 32.6999 64 33.7999 62.3C34.5999 61 34.8999 59.4 34.5999 57.7C32.8999 58.3 29.4999 60.3 29.7999 65.4Z" fill="black"/>
<path d="M58.1 2.30005C58.1 2.30005 64.4 8.40005 58.1 14.5C58.1 14.5 52.3 9.10005 58.1 2.30005Z" fill="#56C023"/>
<path d="M57.4999 15.2C57.3999 15.1 51.0999 9.10005 57.3999 1.60005L58.0999 0.800049L58.8999 1.50005C58.9999 1.60005 61.9999 4.50005 61.9999 8.50005C61.9999 10.9 60.9999 13.1 58.8999 15.1L58.1999 15.8L57.4999 15.2ZM58.1999 13C59.3999 11.6 59.9999 10.2 59.9999 8.60005C59.9999 6.60005 58.9999 4.80005 58.1999 3.90005C55.1999 8.10005 57.0999 11.5 58.1999 13Z" fill="black"/>
<path d="M64.9 7.90015C64.9 7.90015 68.1 16.1001 59.8 19.0001C59.8 19.0001 56.7 11.7001 64.9 7.90015Z" fill="#56C023"/>
<path d="M58.9 19.4001C58.9 19.3001 55.6 11.1001 64.5 7.0001L65.5 6.6001L65.9 7.6001C66 7.8001 67.4 11.7001 65.8 15.3001C64.8 17.5001 62.9 19.0001 60.2 20.0001L59.3 20.3001L58.9 19.4001ZM60.4 17.7001C62 16.9001 63.2 15.8001 63.8 14.5001C64.6 12.7001 64.4 10.7001 64.2 9.5001C59.8 12.0001 60 15.9001 60.4 17.7001Z" fill="black"/>
<path d="M68.5999 15.3C68.5999 15.3 68.8999 24 60.1999 24.1C60.1999 24.1 59.6999 16.2 68.5999 15.3Z" fill="#56C023"/>
<path d="M59.2 24.2001C59.2 24.1001 58.7 15.3001 68.5 14.3001L69.6 14.2001V15.3001C69.6 15.5001 69.7 19.6001 67 22.5001C65.4 24.2001 63.1 25.1001 60.2 25.1001H59.3L59.2 24.2001ZM61.2 23.1001C63 22.9001 64.4 22.2001 65.5 21.1001C66.9 19.6001 67.4 17.7001 67.5 16.5001C62.4 17.5001 61.4 21.2001 61.2 23.1001Z" fill="black"/>
<path d="M70.9 22.3001C70.9 22.3001 69.8 31.0001 61.1 29.6001C61.2 29.5001 62 21.7001 70.9 22.3001Z" fill="#56C023"/>
<path d="M60.2 29.4001C60.2 29.3001 61.3 20.6001 71 21.2001L72.0999 21.3001L72 22.4001C72 22.6001 71.3999 26.7001 68.1999 29.1001C66.2999 30.5001 63.8999 31.0001 61.0999 30.6001L60.2 30.5001V29.4001ZM62.4 28.7001C64.2 28.8001 65.7 28.4001 67 27.5001C68.6 26.3001 69.4 24.4001 69.8 23.3001C64.5 23.4001 62.9 26.9001 62.4 28.7001Z" fill="black"/>
<path d="M70.8 29.8C70.8 29.8 67.7 38 59.6 34.6C59.6 34.6 62.3 27.1 70.8 29.8Z" fill="#56C023"/>
<path d="M58.6999 34.2C58.6999 34.1 61.7999 25.9 71.0999 28.8L72.0999 29.1L71.6999 30.1C71.5999 30.3 70.0999 34.1 66.4999 35.7C64.2999 36.6 61.8999 36.6 59.1999 35.5L58.2999 35.1L58.6999 34.2ZM60.9999 34C62.6999 34.5 64.2999 34.5 65.6999 33.9C67.5999 33.1 68.7999 31.5 69.3999 30.4C64.2999 29.3 61.8999 32.4 60.9999 34Z" fill="black"/>
<path d="M70.8 35.9C70.8 35.9 67.7 44.1 59.6 40.7C59.6 40.7 62.3 33.3 70.8 35.9Z" fill="#56C023"/>
<path d="M58.6999 40.4001C58.6999 40.3001 61.7999 32.1001 71.0999 35.0001L72.0999 35.3001L71.6999 36.3001C71.5999 36.5001 70.0999 40.3001 66.4999 41.9001C64.2999 42.8001 61.8999 42.8001 59.1999 41.7001L58.2999 41.3001L58.6999 40.4001ZM60.9999 40.2001C62.6999 40.7001 64.2999 40.7001 65.6999 40.1001C67.5999 39.3001 68.7999 37.7001 69.3999 36.6001C64.2999 35.5001 61.8999 38.6001 60.9999 40.2001Z" fill="black"/>
<path d="M69.3 42.9001C69.3 42.9001 64.8 50.4001 57.4 45.6001C57.4 45.6001 61.4 38.7001 69.3 42.9001Z" fill="#56C023"/>
<path d="M56.6 45.1001C56.6 45.0001 61.1 37.4001 69.8 42.0001L70.7 42.5001L70.1 43.4001C70 43.6001 67.8 47.1001 63.9 48.0001C61.6 48.5001 59.2 48.0001 56.8 46.5001L56 46.0001L56.6 45.1001ZM58.9 45.3001C60.5 46.1001 62.1 46.4001 63.6 46.0001C65.6 45.6001 67 44.2001 67.8 43.2001C63 41.3001 60.1 43.9001 58.9 45.3001Z" fill="black"/>
<path d="M67 50C67 50 60.8 56.1 54.8 49.7C54.9 49.7 60.4 44 67 50Z" fill="#56C023"/>
<path d="M54.1 49.0001C54.2 48.9001 60.4 42.7001 67.7 49.2001L68.5 49.9001L67.7 50.6001C67.6 50.7001 64.6 53.6001 60.6 53.5001C58.2 53.5001 56 52.4001 54.1 50.3001L53.5 49.6001L54.1 49.0001ZM56.3 49.7001C57.7 50.9001 59.1 51.5001 60.6 51.6001C62.6 51.6001 64.4 50.7001 65.4 49.9001C61.3 46.9001 57.8 48.7001 56.3 49.7001Z" fill="black"/>
<path d="M62.5 55.8C62.5 55.8 55.3 60.8 50.5 53.5C50.5 53.5 56.9 48.8 62.5 55.8Z" fill="#56C023"/>
<path d="M49.9 52.7C50 52.6 57.1 47.5 63.2 55.2L64 56L63.0999 56.6C62.9999 56.7 59.4999 59.1 55.5999 58.3C53.2999 57.8 51.3 56.4 49.7 54L49.2 53.2L49.9 52.7ZM52 53.8C53.1 55.2 54.5 56.1 56 56.4C58 56.8 59.9 56.1 61 55.6C57.4 51.8 53.6 53 52 53.8Z" fill="black"/>
<path d="M56.8999 61.3001C56.8999 61.3001 48.5999 64.0001 46.0999 55.6001C46.0999 55.6001 53.5999 53.0001 56.8999 61.3001Z" fill="#56C023"/>
<path d="M45.7999 54.7001C45.8999 54.7001 54.1999 51.9 57.7999 61.0001L58.1999 62.0001L57.1999 62.3001C56.9999 62.4001 53.0999 63.6 49.4999 61.7C47.3999 60.6 45.8999 58.6001 45.0999 55.9001L44.8999 55L45.7999 54.7001ZM47.3999 56.3C48.0999 58 49.0999 59.2001 50.3999 59.9001C52.1999 60.9001 54.1999 60.8 55.3999 60.6C53.0999 56 49.1999 56 47.3999 56.3Z" fill="black"/>
<path d="M50.8999 66.8C50.8999 66.8 42.1999 66.6 42.5999 57.9C42.6999 57.9 50.5999 57.9 50.8999 66.8Z" fill="#56C023"/>
<path d="M42.6999 56.9C42.7999 56.9 51.5999 57 51.9999 66.8V67.9H50.8999C50.6999 67.9 46.5999 67.8 43.7999 64.9C42.1999 63.2 41.3999 60.8 41.5999 58V57.1L42.6999 56.9ZM43.5999 59C43.6999 60.8 44.1999 62.3 45.2999 63.4C46.6999 64.9 48.5999 65.5 49.7999 65.7C49.1999 60.6 45.4999 59.3 43.5999 59Z" fill="black"/>
<path d="M43.2 66.8C43.2 66.8 34.7 64.9 36.8 56.4C36.8 56.4 44.6 57.9 43.2 66.8Z" fill="#56C023"/>
<path d="M37 55.4001C37.1 55.4001 45.7 57.2001 44.2 66.9001L44 68L43 67.8001C42.8 67.8001 38.8 66.8001 36.7 63.4001C35.4 61.4001 35.2 58.9001 35.9 56.2001L36.1 55.3L37 55.4001ZM37.6 57.7001C37.3 59.5001 37.6 61.0001 38.4 62.3001C39.5 64.0001 41.2 65.0001 42.4 65.4001C42.7 60.3001 39.3 58.3001 37.6 57.7001Z" fill="black"/>
<path fill-rule="evenodd" clip-rule="evenodd" d="M50.1999 29.1001C50.1999 28.8001 50.0999 28.6001 49.9999 28.4001L45.1999 21.2001C44.9999 20.9001 44.5999 20.7001 44.2999 20.7001H39.4999H33.5999L31.3999 28.7001L33.5999 20.7001H28.7999C28.3999 20.7001 27.9999 20.9001 27.7999 21.3001L22.9999 28.4001C22.8999 28.6001 22.7999 28.8001 22.7999 29.1001H31.1999H41.8999H31.1999H22.7999C22.7999 29.4001 22.8999 29.7001 23.0999 29.9001L35.6999 44.2001C36.0999 44.7001 36.8999 44.7001 37.2999 44.2001C41.4999 39.5001 45.6999 34.6001 49.8999 29.9001C50.0999 29.7001 50.1999 29.4001 50.1999 29.1001ZM36.4999 44.5001L41.7999 29.2001L36.4999 44.5001Z" fill="#71EBFF"/>
<path d="M36.5 45.8001C35.9 45.8001 35.2 45.5001 34.8 45.0001L22.2 30.7001C21.8 30.3001 21.6 29.8001 21.6 29.2001V29.1001C21.6 28.6001 21.7 28.2001 22 27.8001L26.7 20.7001C27.1 20.0001 27.9 19.5001 28.7 19.5001H44.3C45.1 19.5001 45.8 19.9001 46.2 20.5001L51 27.7001C51.3 28.1001 51.5 28.6001 51.5 29.1001C51.5 29.7001 51.3 30.2001 50.9 30.7001C49.5 32.3001 48.1 33.9001 46.7 35.5001C44 38.7001 41.1 41.9001 38.3 45.0001C37.7 45.5001 37.1 45.8001 36.5 45.8001ZM24.9 30.3001L35.9 42.8001L40.2 30.3001H24.9ZM43 29.1001C43 29.2001 43 29.4001 42.9 29.5001L39 40.6001C41 38.4001 42.9 36.1001 44.8 33.9001C46.2 32.3001 47.6 30.7001 49 29.1001C49 29.1001 49 29.1001 49 29.0001C49 29.0001 49 29.0001 49 28.9001C49 28.9001 49 28.9001 49 28.8001L44.2 21.6001H34.4L32.7 28.0001H41.8C41.9 28.0001 42.1 28.0001 42.2 28.1001C42.7 28.2001 43 28.6001 43 29.1001ZM24.7 28.0001H30.3L32 21.8001H28.7C28.7 21.8001 28.7 21.9001 28.6 21.9001L24.7 28.0001Z" fill="black"/>
<path fill-rule="evenodd" clip-rule="evenodd" d="M14.8 31.5C14.8 19.5 24.5 9.80004 36.5 9.80004C48.5 9.80004 58.2 19.5 58.2 31.5C58.2 43.5 48.5 53.2 36.5 53.2C24.5 53.2 14.8 43.5 14.8 31.5ZM41.8 5.50004L38.7 3.90004C37.4 3.20004 35.7 3.10004 34.3 3.90004L31.5 5.40004L28.1 5.20004C26.6 5.00004 25 5.60004 23.9 6.90004L21.9 9.40004L18.9 10.4C17.3 10.8 16 12 15.5 13.6L14.6 16.7L11.9 19C10.8 20 10.1 21.5 10.3 23L10.6 26.2L9.00001 29.3C8.30001 30.6 8.20001 32.3 9.00001 33.7L10.5 36.5L10.3 39.9C10.1 41.4 10.7 43 12 44.1L14.5 46.1L15.5 49.1C15.9 50.7 17.1 52 18.7 52.5L21.8 53.4L24.1 56.1C25.1 57.2 26.6 57.9 28.1 57.7L31.3 57.4L34.4 59C35.7 59.7 37.4 59.8 38.8 59L41.6 57.5L45 57.7C46.5 57.9 48.1 57.3 49.2 56L51.2 53.5L54.2 52.5C55.8 52.1 57.1 50.9 57.6 49.3L58.5 46.2L61.2 43.9C62.3 42.9 63 41.4 62.8 39.9L62.5 36.7L64.1 33.6C64.8 32.3 64.9 30.6 64.1 29.2L62.6 26.4L62.8 23C63 21.5 62.4 19.9 61.1 18.8L58.6 16.8L57.6 13.8C57.2 12.2 56 10.9 54.4 10.4L51.3 9.50004L49 6.80004C48 5.70004 46.5 5.00004 45 5.20004L41.8 5.50004Z" fill="#EAEAEA"/>
<path fill-rule="evenodd" clip-rule="evenodd" d="M36.4999 9.80005C24.4999 9.80005 14.7999 19.5 14.7999 31.5C14.7999 43.5 24.4999 53.2001 36.4999 53.2001C48.4999 53.2001 58.1999 43.5 58.1999 31.5C58.1999 19.5 48.4999 9.80005 36.4999 9.80005ZM22.9999 28.4001L27.7999 21.2C27.9999 20.8 28.3999 20.6 28.7999 20.6H44.3999C44.7999 20.6 45.0999 20.8 45.2999 21.1L50.0999 28.3C50.3999 28.8 50.3999 29.4 49.9999 29.8C45.7999 34.6 41.6999 39.4 37.3999 44.1C36.9999 44.6 36.1999 44.6 35.7999 44.1L23.0999 29.9001C22.6999 29.5001 22.6999 28.9001 22.9999 28.4001Z" fill="#C1C1C1"/>
<path fill-rule="evenodd" clip-rule="evenodd" d="M50.1999 29.1001C50.1999 28.8001 50.0999 28.6001 49.9999 28.4001L45.1999 21.2001C44.9999 20.9001 44.5999 20.7001 44.2999 20.7001H39.4999H33.5999L31.3999 28.7001L33.5999 20.7001H28.7999C28.3999 20.7001 27.9999 20.9001 27.7999 21.3001L22.9999 28.4001C22.8999 28.6001 22.7999 28.8001 22.7999 29.1001H31.1999H41.8999H31.1999H22.7999C22.7999 29.4001 22.8999 29.7001 23.0999 29.9001L35.6999 44.2001C36.0999 44.7001 36.8999 44.7001 37.2999 44.2001C41.4999 39.5001 45.6999 34.6001 49.8999 29.9001C50.0999 29.7001 50.1999 29.4001 50.1999 29.1001ZM36.4999 44.5001L41.7999 29.2001L36.4999 44.5001Z" fill="#71EBFF"/>
<path d="M36.5 46.9001C35.5 46.9001 34.6 46.5001 34 45.7001L21.4 31.4001C20.9 30.8001 20.6 30.0001 20.5 29.2001V29.1001C20.5 28.4001 20.7 27.7001 21.1 27.2001L25.8 20.1001C26.4 19.1001 27.5 18.4001 28.7 18.4001H44.3C45.4 18.4001 46.5 19.0001 47.1 19.9001L51.8 27.1001C52.2 27.7001 52.5 28.4001 52.5 29.1001C52.5 30.0001 52.2 30.8001 51.6 31.4001C50.2 33.0001 48.8 34.6001 47.4 36.2001C44.7 39.4001 41.8 42.6001 39 45.8001C38.4 46.5001 37.5 46.9001 36.5 46.9001ZM27.4 31.4001L35.4 40.5001L38.6 31.4001H27.4ZM44.1 29.1001C44.1 29.3001 44.1 29.6001 44 29.9001L42 35.5001C42.7 34.7001 43.3 34.0001 44 33.2001C45.2 31.8001 46.4 30.4001 47.7 29.0001L43.7 22.9001H35.3L34.2 26.8001H41.8C42 26.8001 42.2 26.8001 42.3 26.9001C42.4 26.9001 42.6 27.0001 42.7 27.0001C43.6 27.4001 44.1 28.2001 44.1 29.1001ZM26.8 26.8001H29.5L30.6 22.9001H29.4L26.8 26.8001Z" fill="black"/>
<path d="M41.9 9.30007C41.3 9.20007 40.7 9.50007 40.5 10.1001C40.4 10.7001 40.7 11.3001 41.3 11.5001C50.6 13.7001 57 22.0001 57 31.5001C57 42.8001 47.8 52.1001 36.4 52.1001C25 52.1001 15.8 42.9001 15.8 31.5001C15.8 22.0001 22.3 13.7001 31.5 11.5001C32.1 11.4001 32.5 10.7001 32.3 10.1001C32.2 9.50007 31.5 9.10007 30.9 9.30007C26 10.5001 21.6 13.3001 18.4 17.3001C15.1 21.4001 13.4 26.3001 13.4 31.6001C13.4 44.2001 23.7 54.5001 36.3 54.5001C48.9 54.5001 59.2 44.2001 59.2 31.6001C59.2 26.4001 57.5 21.4001 54.2 17.3001C51.2 13.3001 46.8 10.5001 41.9 9.30007Z" fill="black"/>
<path d="M65.1 28.7001L63.8 26.2001L64 23.1001C64.2 21.1001 63.4 19.2001 61.9 17.9001L59.7 16.1001L58.8 13.5001C58.3 11.5001 56.8 9.9001 54.8 9.3001L52 8.5001L49.9 6.1001C48.7 4.6001 46.8 3.9001 44.9 4.1001L42 4.3001L39.2 2.9001C37.5 2.0001 35.4 2.0001 33.7 2.9001L31.2 4.2001L28.2 4.0001C26.2 3.8001 24.3 4.6001 23 6.1001L21.2 8.3001L18.6 9.2001C16.6 9.7001 15 11.2001 14.4 13.2001L13.5 16.0001L11.1 18.1001C9.59998 19.3001 8.89998 21.2001 9.09998 23.1001L9.29998 26.0001L7.89998 28.8001C6.99998 30.5001 6.99998 32.6001 7.89998 34.3001L9.19998 36.8001L8.99998 39.8001C8.79998 41.8001 9.59998 43.7001 11.1 45.0001L13.3 46.8001L14.2 49.4001C14.7 51.4001 16.2 53.0001 18.2 53.6001L20.9 54.4001L23 56.8001C24.2 58.3001 26.1 59.0001 28 58.8001L30.8 58.5001L33.6 59.9001C34.5 60.4001 35.4 60.6001 36.4 60.6001C37.3 60.6001 38.3 60.4001 39.2 59.9001L41.7 58.6001L44.8 58.8001C46.8 59.0001 48.7 58.2001 50 56.7001L51.8 54.5001L54.4 53.6001C56.4 53.1001 58 51.6001 58.6 49.6001L59.4 46.9001L61.8 44.8001C63.3 43.6001 64 41.7001 63.8 39.8001L63.7 37.0001L65.1 34.2001C66 32.5001 66 30.5001 65.1 28.7001ZM63.1 33.2001L61.5 36.3001C61.4 36.5001 61.4 36.7001 61.4 36.9001L61.7 40.1001C61.8 41.3001 61.4 42.4001 60.5 43.2001L57.8 45.5001C57.6 45.6001 57.5 45.8001 57.5 46.0001L56.6 49.1001C56.2 50.3001 55.2 51.3001 54 51.5001H53.9L50.9 52.5001C50.7 52.6001 50.5 52.7001 50.4 52.9001L48.4 55.4001C47.6 56.3001 46.4 56.8001 45.2 56.7001L41.8 56.5001C41.6 56.5001 41.4 56.5001 41.2 56.6001L38.4 58.1001C37.3 58.7001 36.1 58.7001 35 58.1001L31.9 56.5001C31.7 56.4001 31.6 56.4001 31.4 56.4001H31.3L28.1 56.7001C26.9 56.8001 25.8 56.4001 25 55.5001L22.7 52.8001C22.6 52.6001 22.4 52.5001 22.2 52.5001L19.1 51.6001C17.9 51.2001 16.9 50.2001 16.7 49.0001V48.9001L15.7 45.9001C15.6 45.7001 15.5 45.5001 15.3 45.4001L12.8 43.4001C11.9 42.6001 11.4 41.4001 11.5 40.2001L11.7 36.8001C11.7 36.6001 11.7 36.4001 11.6 36.2001L10.1 33.4001C9.49998 32.3001 9.49998 31.1001 10.1 30.0001L11.7 26.9001C11.8 26.7001 11.8 26.5001 11.8 26.3001L11.5 23.1001C11.4 21.9001 11.8 20.8001 12.7 20.0001L15.4 17.7001C15.6 17.6001 15.7 17.4001 15.7 17.2001L16.6 14.1001C17 12.9001 18 11.9001 19.2 11.7001H19.3L22.3 10.7001C22.5 10.6001 22.7 10.5001 22.8 10.3001L24.8 7.8001C25.6 6.9001 26.8 6.4001 28 6.5001L31.4 6.7001C31.6 6.7001 31.8 6.7001 32 6.6001L34.8 5.1001C35.9 4.5001 37.1 4.5001 38.2 5.1001L41.3 6.7001C41.5 6.8001 41.7 6.8001 41.9 6.8001L45.1 6.5001C46.3 6.4001 47.4 6.8001 48.2 7.7001L50.5 10.4001C50.6 10.6001 50.8 10.7001 51 10.7001L54.1 11.6001C55.3 12.0001 56.3 13.0001 56.5 14.2001V14.3001L57.5 17.3001C57.6 17.5001 57.7 17.7001 57.9 17.8001L60.4 19.8001C61.3 20.6001 61.8 21.8001 61.7 23.0001L61.5 26.4001C61.5 26.6001 61.5 26.8001 61.6 27.0001L63.1 29.8001C63.6 30.9001 63.6 32.1001 63.1 33.2001Z" fill="black"/>
<path d="M36.5 10.9001C37.1 10.9001 37.6 10.4001 37.6 9.80007C37.6 9.20007 37.1 8.70007 36.5 8.70007C35.9 8.70007 35.4 9.20007 35.4 9.80007C35.4 10.4001 35.9 10.9001 36.5 10.9001Z" fill="black"/>
<path fill-rule="evenodd" clip-rule="evenodd" d="M31.2549 29.1193L33.5971 21H28.8396C28.4257 21 28.0657 21.2325 27.8744 21.5768L23.1991 28.4679C23.0664 28.6631 23.0011 28.8912 23 29.1182L31.2549 29.1193Z" fill="#ABB9FF"/>
<path fill-rule="evenodd" clip-rule="evenodd" d="M39.4017 21L41.7439 29.1193H50C50 28.8671 49.919 28.616 49.7592 28.4098L45.0648 21.4902C44.8567 21.1831 44.518 21 44.1592 21H39.4017Z" fill="#ABB9FF"/>
<path fill-rule="evenodd" clip-rule="evenodd" d="M41.7441 29.1193L39.4019 21H33.5983L31.2561 29.1193H41.7441Z" fill="#004FFF"/>
<path fill-rule="evenodd" clip-rule="evenodd" d="M41.7441 29.1191H31.255L36.4995 43.8247L41.7441 29.1191Z" fill="#0030B5"/>
<path fill-rule="evenodd" clip-rule="evenodd" d="M36.4994 43.8247L31.2549 29.1191H23.0011C23.0011 29.3999 23.1001 29.6795 23.2947 29.8944L35.6883 43.6372C36.1271 44.1219 36.8718 44.1197 37.3094 43.6372C41.4886 39.1455 45.5857 34.4597 49.703 29.8944C49.9022 29.6751 50 29.3966 50 29.1191H41.744L36.4994 43.8247Z" fill="#004FFF"/>
</svg>
