<svg width="73" height="73" viewBox="0 0 73 73" fill="none" xmlns="http://www.w3.org/2000/svg">
<path fill-rule="evenodd" clip-rule="evenodd" d="M20.8164 22.2422H52.1836V27.9453H20.8164V22.2422Z" fill="#B5B3EE"/>
<path fill-rule="evenodd" clip-rule="evenodd" d="M52.1836 22.2422V27.9453H20.8164V22.2422H52.1836ZM37.7461 37.4039L39.6624 40.9285L43.5362 41.6143C44.3119 41.7497 44.8294 42.4883 44.6954 43.2625C44.6398 43.5804 44.4829 43.8542 44.2648 44.0581L41.5615 46.9082L41.8994 49.3306H60.168C60.168 46.1811 62.7215 43.6275 65.8711 43.6275V20.8164C62.7215 20.8164 60.168 18.2628 60.168 15.1133H12.832C12.832 18.2628 10.2785 20.8164 7.12891 20.8164V43.6289C10.2785 43.6289 12.832 46.1825 12.832 49.332H31.0863L31.4128 46.8383L28.681 44.0039C28.1364 43.4379 28.1535 42.5382 28.7195 41.9935C28.9405 41.7811 29.2114 41.6542 29.4923 41.6129L33.3946 40.8871L35.2439 37.4154C35.6132 36.7239 36.4729 36.4615 37.1658 36.8308C37.4211 36.9662 37.6178 37.1687 37.7461 37.4039Z" fill="white"/>
<path fill-rule="evenodd" clip-rule="evenodd" d="M31.0863 49.332H12.832C12.832 46.1825 10.2785 43.6289 7.12891 43.6289V20.8164C10.2785 20.8164 12.832 18.2628 12.832 15.1133H60.168C60.168 18.2628 62.7215 20.8164 65.8711 20.8164V43.6289C62.7215 43.6289 60.168 46.1825 60.168 49.332H41.8994L42.1062 50.8077C42.2145 51.5862 41.6699 52.3034 40.8914 52.4117C40.6048 52.4516 40.3268 52.4046 40.0844 52.2891V55.0352H68.7227C70.291 55.0352 71.5742 53.752 71.5742 52.1836V12.2617C71.5742 10.6934 70.291 9.41016 68.7227 9.41016H4.27734C2.70898 9.41016 1.42578 10.6934 1.42578 12.2617V52.1836C1.42578 53.752 2.70898 55.0352 4.27734 55.0352H32.917V52.2877C32.2112 52.6256 31.3629 52.3319 31.0207 51.6261C30.8781 51.3324 30.8454 51.013 30.9067 50.7165L31.0863 49.332Z" fill="#9B00FF"/>
<path fill-rule="evenodd" clip-rule="evenodd" d="M31.4142 46.8384L31.0863 49.3321L30.9052 50.7165C30.8439 51.0131 30.8767 51.3325 31.0193 51.6262C31.3629 52.3305 32.2098 52.6257 32.9156 52.2878C32.9184 52.2863 32.9213 52.2849 32.9241 52.2835L36.4586 50.5626L40.083 52.2892C40.3254 52.4047 40.6048 52.4517 40.89 52.4118C41.6684 52.3034 42.2117 51.5863 42.1047 50.8078L41.8994 49.3321L41.5615 46.9097L44.2648 44.0596C44.4829 43.8557 44.6398 43.5805 44.6954 43.264C44.8308 42.4884 44.3118 41.7512 43.5362 41.6158L39.6624 40.93L37.7461 37.4055C37.6178 37.1702 37.421 36.9677 37.1673 36.8323C36.4758 36.463 35.6146 36.7254 35.2453 37.4169L33.3961 40.8886L29.4937 41.6144C29.2128 41.6571 28.9405 41.784 28.7209 41.995C28.1549 42.5397 28.1378 43.4394 28.6824 44.0054L31.4142 46.8384Z" fill="#FFA300"/>
<path fill-rule="evenodd" clip-rule="evenodd" d="M32.917 52.2877V55.0352V63.5899L36.5 61.7977L40.083 63.5899V55.0352V52.2891L36.4586 50.5625L32.9241 52.2834C32.9213 52.2848 32.9198 52.2863 32.917 52.2877Z" fill="#FF003D"/>
<path d="M68.7227 7.98438H4.27734C1.9191 7.98438 0 9.90348 0 12.2617V52.1836C0 54.5418 1.9191 56.4609 4.27734 56.4609H31.4912V63.5898C31.4912 64.0846 31.7464 64.5423 32.167 64.8032C32.5877 65.0627 33.1123 65.0869 33.5543 64.8659L36.5 63.3917L39.4457 64.8645C39.6467 64.9657 39.8648 65.0156 40.083 65.0156C40.3439 65.0156 40.6034 64.9443 40.833 64.8032C41.2536 64.5437 41.5088 64.0846 41.5088 63.5898V56.4609H68.7227C71.0809 56.4609 73 54.5418 73 52.1836V12.2617C73 9.90348 71.0809 7.98438 68.7227 7.98438ZM32.3011 51.003C32.3082 50.9703 32.3139 50.936 32.3182 50.9018L32.8272 47.0237C32.8842 46.5931 32.7416 46.1611 32.4394 45.8489L29.7047 43.0229C29.7204 43.0201 29.7375 43.0172 29.7532 43.0144L33.6556 42.2887C34.0819 42.2088 34.4497 41.9408 34.6536 41.5572L36.4957 38.0897L38.4091 41.6086C38.6159 41.9893 38.9866 42.2559 39.4129 42.3314L43.291 43.0158C43.2696 43.0358 43.2496 43.0557 43.2297 43.0771L40.5264 45.9273C40.2284 46.2424 40.0887 46.6758 40.1486 47.105L40.6975 51.0002L37.0732 49.2736C36.6811 49.0868 36.2262 49.0882 35.8356 49.2793L32.3011 51.003ZM43.1399 47.9062L43.0686 47.393L45.2743 45.0675C45.7105 44.6469 45.9957 44.108 46.0998 43.5091C46.231 42.7592 46.0613 42.0035 45.6236 41.3805C45.1859 40.7574 44.5314 40.3425 43.7843 40.2113L40.5863 39.6453L38.998 36.7238C38.998 36.7238 38.998 36.7238 38.998 36.7224C38.7313 36.2334 38.3307 35.8356 37.8374 35.5732C37.1673 35.2154 36.3973 35.1398 35.6688 35.3622C34.9416 35.5832 34.3442 36.0751 33.9863 36.7467L32.4593 39.6125L29.2528 40.207C28.6782 40.2997 28.1521 40.5606 27.7314 40.967C27.1839 41.4945 26.8731 42.2031 26.8589 42.9645C26.8446 43.7244 27.1269 44.4459 27.6545 44.9948L29.91 47.3345L29.8345 47.9077H14.1152C13.5463 45.1174 11.3435 42.9146 8.55469 42.3457V22.0982C11.3435 21.5307 13.5463 19.3279 14.1152 16.5391H58.8862C59.4551 19.3279 61.6565 21.5307 64.4453 22.0982V42.3457C61.6565 42.9146 59.4537 45.116 58.8862 47.9048L43.1399 47.9062ZM37.1373 60.523C36.7367 60.322 36.2633 60.322 35.8627 60.523L34.3428 61.2829V53.1788L36.4672 52.1451L38.6586 53.1888V61.2829L37.1373 60.523ZM70.1484 52.1836C70.1484 52.9692 69.5083 53.6094 68.7227 53.6094H41.8396C42.9331 53.1289 43.6375 51.9925 43.5305 50.7578H60.168C60.955 50.7578 61.5938 50.1191 61.5938 49.332C61.5938 46.9738 63.5129 45.0547 65.8711 45.0547C66.6581 45.0547 67.2969 44.4159 67.2969 43.6289V20.8164C67.2969 20.0294 66.6581 19.3906 65.8711 19.3906C63.5129 19.3906 61.5938 17.4715 61.5938 15.1133C61.5938 14.3263 60.955 13.6875 60.168 13.6875H12.832C12.045 13.6875 11.4062 14.3263 11.4062 15.1133C11.4062 17.4715 9.48715 19.3906 7.12891 19.3906C6.34188 19.3906 5.70312 20.0294 5.70312 20.8164V43.6289C5.70312 44.4159 6.34188 45.0547 7.12891 45.0547C9.48715 45.0547 11.4062 46.9738 11.4062 49.332C11.4062 50.1191 12.045 50.7578 12.832 50.7578H29.4609C29.4153 51.2711 29.508 51.7815 29.7375 52.2506C30.0441 52.8808 30.5545 53.3456 31.149 53.6094H4.27734C3.49174 53.6094 2.85156 52.9706 2.85156 52.1836V12.2617C2.85156 11.4761 3.49174 10.8359 4.27734 10.8359H68.7227C69.5083 10.8359 70.1484 11.4761 70.1484 12.2617V52.1836Z" fill="black"/>
<path d="M52.1836 20.8164H42.916C42.129 20.8164 41.4902 21.4552 41.4902 22.2422C41.4902 23.0292 42.129 23.668 42.916 23.668H50.7578V26.5195H22.2422V23.668H30.084C30.871 23.668 31.5098 23.0292 31.5098 22.2422C31.5098 21.4552 30.871 20.8164 30.084 20.8164H20.8164C20.0294 20.8164 19.3906 21.4552 19.3906 22.2422V27.9453C19.3906 28.7323 20.0294 29.3711 20.8164 29.3711H52.1836C52.9706 29.3711 53.6094 28.7323 53.6094 27.9453V22.2422C53.6094 21.4552 52.9706 20.8164 52.1836 20.8164Z" fill="black"/>
<path d="M29.133 32.2227H20.8164C20.0294 32.2227 19.3906 32.8614 19.3906 33.6484C19.3906 34.4355 20.0294 35.0742 20.8164 35.0742H29.133C29.92 35.0742 30.5588 34.4355 30.5588 33.6484C30.5588 32.8614 29.92 32.2227 29.133 32.2227Z" fill="black"/>
<path d="M52.1835 32.2227H43.8669C43.0799 32.2227 42.4412 32.8614 42.4412 33.6484C42.4412 34.4355 43.0799 35.0742 43.8669 35.0742H52.1835C52.9706 35.0742 53.6093 34.4355 53.6093 33.6484C53.6093 32.8614 52.9706 32.2227 52.1835 32.2227Z" fill="black"/>
<path d="M36.5014 23.668C37.2885 23.668 37.9272 23.0292 37.9272 22.2422C37.9272 21.4552 37.2885 20.8164 36.5014 20.8164H36.5C35.713 20.8164 35.0742 21.4552 35.0742 22.2422C35.0742 23.0292 35.7144 23.668 36.5014 23.668Z" fill="black"/>
</svg>
