<svg width="67" height="73" viewBox="0 0 67 73" fill="none" xmlns="http://www.w3.org/2000/svg">
<path fill-rule="evenodd" clip-rule="evenodd" d="M49.1836 71.5742V29.3868V18.98H49.761C50.0277 18.98 50.2971 18.9087 50.5438 18.7661C51.2895 18.3341 51.5447 17.3788 51.1127 16.6332L42.702 2.21708C42.5694 1.98325 42.3755 1.77937 42.126 1.63536C41.3803 1.20335 40.425 1.45714 39.993 2.20425L31.6322 16.5362C31.4611 16.7871 31.3613 17.0908 31.3613 17.4173C31.3613 18.2814 32.0614 18.9814 32.9254 18.9814H33.5V44.145V71.5742H49.1836Z" fill="#FFA300"/>
<path fill-rule="evenodd" clip-rule="evenodd" d="M33.5 71.5743V44.1437H19.2422C18.458 44.1437 17.8164 44.7853 17.8164 45.5695V55.2648V71.5743C23.0447 71.5743 28.2717 71.5743 33.5 71.5743Z" fill="#5CD0B3"/>
<path fill-rule="evenodd" clip-rule="evenodd" d="M17.8164 71.5742V55.2661H3.55859C2.77441 55.2661 2.13281 55.9077 2.13281 56.6919V71.5742H17.8164Z" fill="#8481E2"/>
<path fill-rule="evenodd" clip-rule="evenodd" d="M49.1836 29.3867V71.5742H64.8672V30.8125C64.8672 30.0283 64.2256 29.3867 63.4414 29.3867H49.1836Z" fill="#B278D3"/>
<path d="M63.4414 27.9609H50.6094V20.2817C50.8346 20.2147 51.0514 20.1206 51.2581 20.0008C52.6839 19.1753 53.1715 17.3446 52.3431 15.9159L43.9381 1.50557C43.6772 1.0479 43.298 0.665789 42.8403 0.402019C41.4145 -0.423508 39.5838 0.0641091 38.7611 1.48561L30.4217 15.7819C30.1024 16.2695 29.9355 16.8327 29.9355 17.4173C29.9355 18.7704 30.8395 19.9167 32.0742 20.2845V25.1479C32.0742 25.9349 32.713 26.5737 33.5 26.5737C34.287 26.5737 34.9258 25.9349 34.9258 25.1479V18.9828C34.9258 18.1958 34.287 17.557 33.5 17.557H32.9254C32.8484 17.557 32.7871 17.4943 32.7871 17.4187C32.7871 17.3902 32.7942 17.3645 32.8099 17.3417C32.8285 17.3146 32.847 17.2861 32.8641 17.2562L41.2263 2.91995C41.2634 2.85579 41.3461 2.83298 41.4102 2.87005C41.4316 2.88288 41.4473 2.89856 41.4601 2.91852C41.463 2.92423 41.4673 2.92993 41.4701 2.93563L49.8779 17.3489C49.915 17.413 49.8936 17.4957 49.8295 17.5328C49.7953 17.5527 49.771 17.5542 49.761 17.5542H49.1836C48.3966 17.5542 47.7578 18.1929 47.7578 18.9799V29.3853V70.1484H34.9258V44.1436V37.9771C34.9258 37.19 34.287 36.5513 33.5 36.5513C32.713 36.5513 32.0742 37.19 32.0742 37.9771V42.7178H19.2422C17.6695 42.7178 16.3906 43.9967 16.3906 45.5693V53.8389H3.55859C1.98596 53.8389 0.707031 55.1178 0.707031 56.6904V71.5742C0.707031 72.3612 1.34578 72.9999 2.13281 72.9999H64.8672C65.6542 72.9999 66.293 72.3612 66.293 71.5742V30.8125C66.293 29.2399 65.014 27.9609 63.4414 27.9609ZM3.55859 70.1484V56.6919H16.3906V70.1484H3.55859ZM19.2422 70.1484V55.2661V45.5708H32.0742V70.1484H19.2422ZM63.4414 70.1484H50.6094V30.8125H63.4414V70.1484Z" fill="black"/>
<path d="M33.5 32.9882C34.287 32.9882 34.9258 32.3495 34.9258 31.5625V31.561C34.9258 30.774 34.287 30.1353 33.5 30.1353C32.713 30.1353 32.0742 30.774 32.0742 31.561C32.0742 32.3481 32.713 32.9882 33.5 32.9882Z" fill="black"/>
</svg>
