<svg width="60" height="65" viewBox="0 0 60 65" fill="none" xmlns="http://www.w3.org/2000/svg">
<path fill-rule="evenodd" clip-rule="evenodd" d="M35.7339 43.3545L32.3443 37.1084C32.1157 36.6894 31.773 36.334 31.3159 36.0928C30.0845 35.4453 28.561 35.9023 27.9136 37.1338L24.6382 43.291L17.7319 44.5732C17.2368 44.6494 16.7544 44.8779 16.3609 45.2461C15.3579 46.2109 15.3325 47.8105 16.2974 48.8135L21.1216 53.8281L20.2202 60.6963C20.106 61.2168 20.1694 61.7881 20.4234 62.3086C21.0327 63.5654 22.5435 64.0859 23.8003 63.4765L30.0591 60.4297L36.4829 63.4892C36.9146 63.6924 37.4097 63.7812 37.9175 63.7051C39.3013 63.5146 40.2661 62.2451 40.063 60.8613L39.0982 53.9551L43.8843 48.9023C44.2652 48.5342 44.5444 48.0517 44.646 47.4932C44.8872 46.1221 43.9605 44.8144 42.5894 44.5732L35.7339 43.3545Z" fill="#FFA300"/>
<path fill-rule="evenodd" clip-rule="evenodd" d="M19.7632 30.3799V1.26953H4.74463V24.375L19.7632 30.3799Z" fill="#FF0000"/>
<path fill-rule="evenodd" clip-rule="evenodd" d="M19.7632 1.26953V30.3799L30.1352 34.5312L40.52 30.3799V1.26953H30.1352H19.7632Z" fill="white"/>
<path fill-rule="evenodd" clip-rule="evenodd" d="M40.52 1.26953V30.3799L55.5259 24.375V1.26953H40.52Z" fill="#FF0000"/>
<path d="M55.5259 0H4.74463C4.04639 0 3.4751 0.571289 3.4751 1.26953V24.375C3.4751 24.8955 3.79248 25.3652 4.2749 25.5557L28.1421 35.1025C27.5835 35.4453 27.1138 35.9404 26.7964 36.5371L23.8003 42.1484L17.5034 43.3164C16.729 43.4434 16.0308 43.7861 15.4595 44.332C13.9487 45.7793 13.9106 48.1787 15.3579 49.6895L19.7759 54.2725L18.9634 60.4932C18.811 61.3057 18.9126 62.1182 19.2808 62.8672C19.9409 64.2129 21.2866 65 22.6958 65C23.2544 65 23.813 64.873 24.3462 64.6191L30.0591 61.8389L35.9243 64.6318C36.5845 64.9492 37.3335 65.0635 38.0825 64.9619C40.1519 64.6699 41.5991 62.7529 41.3198 60.6836L40.4438 54.3867L44.7856 49.8037C45.3696 49.2451 45.7632 48.5215 45.9028 47.709C46.2583 45.6523 44.8745 43.6846 42.8179 43.3164L36.5591 42.2119L33.4614 36.499C33.144 35.915 32.687 35.4326 32.1284 35.0898L55.9956 25.543C56.478 25.3525 56.7954 24.8828 56.7954 24.3623V1.26953C56.7954 0.571289 56.2241 0 55.5259 0ZM6.01416 2.53906H18.4937V10.1182C18.4937 10.8164 19.0649 11.3877 19.7632 11.3877C20.4614 11.3877 21.0327 10.8164 21.0327 10.1182V2.53906H39.2505V29.5166L30.1353 33.1602L21.02 29.5166V21.5312C21.02 20.833 20.4487 20.2617 19.7505 20.2617C19.0522 20.2617 18.481 20.833 18.481 21.5312V28.501L6.01416 23.5117V2.53906ZM34.6167 43.9639C34.8071 44.3066 35.1245 44.5352 35.5054 44.6113L42.3735 45.8301C42.7036 45.8936 42.9956 46.0713 43.186 46.3379C43.3765 46.6172 43.4526 46.9473 43.3892 47.2773C43.3384 47.5439 43.2114 47.7852 43.0083 47.9756C42.9956 47.9883 42.9702 48.0137 42.9575 48.0264L38.1714 53.0791C37.9048 53.3584 37.7778 53.752 37.8413 54.1328L38.8062 61.0391C38.895 61.7246 38.4253 62.3594 37.7397 62.4482C37.4858 62.4863 37.2446 62.4482 37.0288 62.3467L30.605 59.2871C30.2495 59.1221 29.856 59.1221 29.5005 59.2871L23.2417 62.334C22.6196 62.6387 21.8706 62.3721 21.5659 61.75C21.439 61.4961 21.4136 61.2168 21.4644 60.9502C21.4771 60.9248 21.4771 60.8867 21.4771 60.8613L22.3784 53.9932C22.4292 53.6123 22.3022 53.2314 22.0356 52.9521L17.1987 47.9375C16.7163 47.4424 16.7417 46.6426 17.2368 46.1729C17.4272 45.9951 17.6558 45.8809 17.9097 45.8428C17.9224 45.8428 17.9351 45.8428 17.9478 45.8301L24.854 44.5479C25.2349 44.4717 25.5649 44.2432 25.7427 43.9004L29.0181 37.7432C29.1704 37.4512 29.437 37.2354 29.7544 37.1338C29.8687 37.0957 29.9956 37.083 30.1226 37.083C30.3257 37.083 30.5288 37.1338 30.7065 37.2354C30.9224 37.3496 31.1001 37.5273 31.2144 37.7432L34.6167 43.9639ZM54.2563 23.5117L41.7769 28.501V2.53906H54.2563V23.5117Z" fill="black"/>
<path d="M19.7632 17.0878C20.4614 17.0878 21.0327 16.5165 21.0327 15.8183C21.0327 15.12 20.4614 14.5488 19.7632 14.5488C19.0649 14.5488 18.4937 15.12 18.4937 15.8183C18.4937 16.5292 19.0522 17.0878 19.7632 17.0878Z" fill="black"/>
<path d="M34.9595 12.8477C34.5151 12.8477 34.1851 12.5938 33.9692 12.0733C33.7788 11.629 33.6011 11.3624 33.436 11.2608C33.2964 11.1846 32.9282 11.1466 32.3569 11.1466C31.354 11.1466 30.2495 11.9083 29.0308 13.4444C27.3804 15.501 26.5425 17.4434 26.5425 19.2843C26.5425 20.1729 26.8345 20.9346 27.4058 21.5821C27.9897 22.2423 28.7007 22.5723 29.5259 22.5723C30.2368 22.5723 30.9478 22.3946 31.6714 22.0264C32.0776 21.8233 32.687 21.4171 33.5122 20.8077C33.9058 20.5157 34.1978 20.376 34.4009 20.376C34.6929 20.376 34.9468 20.4903 35.1499 20.7061C35.353 20.9346 35.4546 21.1759 35.4546 21.4551C35.4546 21.7598 35.3276 22.0391 35.061 22.2676C33.2456 23.88 31.4048 24.6925 29.5386 24.6925C28.1167 24.6925 26.8979 24.1466 25.9204 23.0421C24.9683 21.9757 24.4985 20.7188 24.4985 19.2716C24.4985 16.9356 25.4761 14.5362 27.4312 12.086C29.0688 10.0421 30.7192 9.01375 32.3823 9.01375C32.7251 9.01375 33.0298 9.02644 33.2964 9.06453C33.563 9.08992 33.8042 9.1407 34.0073 9.21687C34.2485 8.8614 34.5659 8.68367 34.9468 8.68367C35.4165 8.68367 35.7212 9.00105 35.8481 9.62312C35.9624 10.1817 36.0132 10.8673 36.0132 11.6798C36.0132 11.9591 35.937 12.213 35.7847 12.4288C35.5688 12.7208 35.3022 12.8477 34.9595 12.8477Z" fill="black"/>
<path d="M9.81516 43.2402C9.53586 43.2402 9.25656 43.1513 9.02805 42.9609L2.68039 37.8828C2.13449 37.4384 2.04563 36.6513 2.47727 36.0927C2.9216 35.5468 3.70871 35.458 4.26731 35.8896L10.615 40.9677C11.1609 41.4121 11.2497 42.1992 10.8181 42.7578C10.5642 43.0751 10.196 43.2402 9.81516 43.2402Z" fill="#FFA300"/>
<path d="M9.81516 54.6659C9.53586 54.6659 9.25656 54.7548 9.02805 54.9452L2.68039 60.0233C2.13449 60.4677 2.04563 61.2548 2.47727 61.8134C2.9216 62.3593 3.70871 62.4481 4.26731 62.0165L10.615 56.9384C11.1609 56.494 11.2497 55.7069 10.8181 55.1483C10.5642 54.831 10.196 54.6659 9.81516 54.6659Z" fill="#FFA300"/>
<path d="M10.488 50.0194C10.2722 50.1844 9.99292 50.286 9.68823 50.286L1.56323 50.1717C0.86499 50.159 0.306396 49.5877 0.306396 48.8895C0.319092 48.1912 0.890381 47.6326 1.58862 47.6326L9.71362 47.7469C10.4119 47.7596 10.9705 48.3309 10.9705 49.0291C10.9705 49.4354 10.78 49.7908 10.488 50.0194Z" fill="#FFA300"/>
<path d="M50.4529 54.6659C50.7321 54.6659 51.0114 54.7548 51.24 54.9452L57.5876 60.0233C58.1335 60.4677 58.2224 61.2548 57.7907 61.8134C57.3464 62.3593 56.5593 62.4481 56.0007 62.0165L49.653 56.9384C49.1072 56.494 49.0183 55.7069 49.4499 55.1483C49.7038 54.831 50.072 54.6659 50.4529 54.6659Z" fill="#FFA300"/>
<path d="M50.4529 43.2402C50.7321 43.2402 51.0114 43.1513 51.24 42.9609L57.5876 37.8828C58.1335 37.4384 58.2224 36.6513 57.7907 36.0927C57.3464 35.5468 56.5593 35.458 56.0007 35.8896L49.653 40.9677C49.1072 41.4121 49.0183 42.1992 49.4499 42.7578C49.7038 43.0751 50.072 43.2402 50.4529 43.2402Z" fill="#FFA300"/>
<path d="M49.78 47.8866C49.9959 47.7216 50.2751 47.62 50.5798 47.62L58.7048 47.7343C59.4031 47.747 59.9617 48.3183 59.9617 49.0165C59.949 49.7148 59.3777 50.2733 58.6794 50.2733L50.5544 50.1591C49.8562 50.1464 49.2976 49.5751 49.2976 48.8769C49.2976 48.4706 49.488 48.1151 49.78 47.8866Z" fill="#FFA300"/>
</svg>
