<svg width="63" height="65" viewBox="0 0 63 65" fill="none" xmlns="http://www.w3.org/2000/svg">
<path fill-rule="evenodd" clip-rule="evenodd" d="M28.8689 56.0725C30.7824 46.5082 21.6145 41.9296 18.9973 37.9025C18.3809 36.9544 14.7541 31.1162 14.1378 30.1679C13.4946 29.1784 12.1657 28.8949 11.1846 29.5383C10.9112 29.7177 10.7179 29.9392 10.5881 30.1903L5.69394 19.7128C4.15137 16.5552 0.501433 18.3104 1.46016 21.101C2.13617 23.0059 4.67554 31.9733 6.65634 37.9628C8.08123 42.271 8.71522 43.4128 11.6455 46.8166L16.0999 51.9911L15.8964 56.0726H28.8689V56.0725Z" fill="#FFDCD5"/>
<path fill-rule="evenodd" clip-rule="evenodd" d="M43.273 37.9025C40.6558 41.9296 31.4879 46.5082 33.4014 56.0725H46.3739L46.1704 51.9909L50.6248 46.8165C53.5549 43.4127 54.1891 42.2709 55.6139 37.9627C57.5947 31.9732 60.1341 23.0057 60.8103 21.1009C61.769 18.3102 58.119 16.555 56.5765 19.7127L51.6824 30.1902C51.5527 29.9391 51.3593 29.7174 51.0859 29.5382C50.1048 28.8948 48.7759 29.1783 48.1327 30.1677C47.5161 31.1162 43.8892 36.9544 43.273 37.9025Z" fill="#FFDCD5"/>
<path fill-rule="evenodd" clip-rule="evenodd" d="M46.3741 56.0726H33.4016H31.1353V63.7305H48.9055V56.0726H46.3741Z" fill="#FF9346"/>
<path fill-rule="evenodd" clip-rule="evenodd" d="M31.1352 63.7305V56.0726H28.8689H15.8964H13.365V63.7305H31.1352Z" fill="#FF9346"/>
<path fill-rule="evenodd" clip-rule="evenodd" d="M31.0634 26.0849L37.5325 29.1668C37.9654 29.3734 38.4634 29.4562 38.9742 29.3855C40.3634 29.1934 41.3338 27.9112 41.1417 26.522L40.1694 19.5636L44.9943 14.4745C45.3848 14.11 45.6643 13.6203 45.7632 13.0535C46.0048 11.6698 45.0789 10.3522 43.6952 10.1106L36.7798 8.8855L33.3596 2.59374C33.1304 2.1729 32.7801 1.81185 32.3258 1.5695C31.0903 0.910507 29.5546 1.37794 28.8956 2.61341L25.5938 8.81149L18.6279 10.106C18.1258 10.1814 17.6415 10.4079 17.2478 10.7866C16.2376 11.7584 16.2063 13.3654 17.1783 14.3757L22.0558 19.4345L21.1476 26.3584C21.0383 26.8892 21.0967 27.4586 21.3522 27.9833C21.9672 29.2462 23.4897 29.7714 24.7526 29.1566L31.0634 26.0849Z" fill="#FFA300"/>
<path d="M60.143 17.014C58.6767 16.4068 56.5781 16.8174 55.4358 19.1555C55.4326 19.1622 55.4293 19.1687 55.4263 19.1754L51.2207 28.1791C50.5961 27.9196 49.9066 27.8542 49.2281 27.9969C48.333 28.1848 47.5659 28.7102 47.0683 29.4759C46.7538 29.9597 45.7198 31.6136 44.6249 33.3646C43.5854 35.0271 42.5107 36.7462 42.2088 37.2107C41.5877 38.1661 40.4369 39.2648 39.2185 40.4278C35.8395 43.6535 31.2869 48.0001 31.9324 54.803H30.3377C30.6339 51.693 29.874 48.8012 28.0275 45.9965C27.6418 45.4109 26.8546 45.2489 26.269 45.6342C25.6835 46.0197 25.5211 46.8069 25.9066 47.3927C27.4881 49.795 28.0904 52.1679 27.7831 54.803H17.2305L17.3676 52.0542C17.3839 51.7288 17.2744 51.4096 17.0619 51.1627L12.6075 45.9882C9.81168 42.7406 9.23508 41.717 7.86148 37.5644C6.73442 34.1565 5.42849 29.7892 4.37912 26.2799C3.58657 23.6292 2.95995 21.5339 2.65882 20.6836C2.40733 19.9452 2.73829 19.509 3.09896 19.3596C3.61437 19.1454 4.16952 19.491 4.5486 20.2608L9.21477 30.2503C9.04478 30.9126 9.04491 31.7613 9.34679 32.8475C10.2175 35.9801 11.3672 39.1469 12.5009 41.5359C12.8012 42.1693 13.5582 42.4391 14.192 42.1385C14.8253 41.838 15.0952 41.0809 14.7946 40.4474C13.7207 38.1841 12.6267 35.166 11.793 32.1675C11.5575 31.3198 11.5868 30.7925 11.8806 30.5999C12.0687 30.4765 12.2958 30.4346 12.5203 30.4817C12.7497 30.5299 12.9459 30.6641 13.073 30.8597C13.7073 31.8355 14.3249 32.8658 14.9791 33.9567C16.0166 35.6874 17.0896 37.477 18.2328 39.0264C18.649 39.5905 19.4438 39.7106 20.008 39.2942C20.5722 38.8779 20.6922 38.0831 20.2758 37.5189C19.2046 36.0674 18.1635 34.3307 17.1566 32.6511C16.5197 31.5888 15.8612 30.4903 15.202 29.4761C14.7043 28.7104 13.9373 28.1849 13.0422 27.997C12.3632 27.8543 11.674 27.9197 11.0496 28.1792L6.84398 19.1755C6.84093 19.1688 6.83763 19.1623 6.83446 19.1556C5.69229 16.8178 3.59381 16.4068 2.12741 17.0141C0.642349 17.629 -0.476207 19.3721 0.259595 21.5134C0.260991 21.5175 0.262261 21.5214 0.263784 21.5256C0.542439 22.3111 1.19318 24.4874 1.94676 27.0073C3.00082 30.5323 4.3126 34.9191 5.45108 38.3615C6.93119 42.8368 7.66471 44.1382 10.6833 47.6448L14.8067 52.4345L14.6886 54.803H13.365C12.664 54.803 12.0955 55.3715 12.0955 56.0725V63.7304C12.0955 64.4314 12.664 64.9999 13.365 64.9999H48.9054C49.6064 64.9999 50.1749 64.4314 50.1749 63.7304V56.0725C50.1749 55.3715 49.6064 54.803 48.9054 54.803H47.5818L47.4637 52.4345L51.5871 47.6448C54.6057 44.1382 55.3392 42.8368 56.8192 38.3616C57.9581 34.9185 59.27 30.5309 60.324 27.0057C61.0773 24.4865 61.728 22.3108 62.0065 21.5256C62.008 21.5216 62.0093 21.5176 62.0107 21.5136C62.7465 19.3722 61.6281 17.6292 60.143 17.014ZM14.6345 57.3421H29.8657V62.461H14.6345V57.3421ZM47.6359 62.461H32.4046V57.3421H47.6359V62.461ZM59.6112 20.6836C59.3102 21.5338 58.6838 23.6283 57.8914 26.2783C56.8419 29.7879 55.5359 34.156 54.4085 37.5642C53.0352 41.717 52.4586 42.7405 49.6627 45.9881L45.2082 51.1626C44.9957 51.4095 44.8863 51.7287 44.9025 52.054L45.0396 54.8029H34.4849C33.8255 49.0858 37.6121 45.4712 40.9715 42.2642C42.3001 40.9959 43.5551 39.7979 44.3375 38.5942C44.6516 38.1109 45.6842 36.4593 46.7777 34.7105C47.8184 33.0458 48.8949 31.3245 49.1971 30.8594C49.3242 30.6639 49.5205 30.5297 49.7499 30.4814C49.9742 30.4343 50.2015 30.4761 50.3897 30.5996C50.6833 30.7922 50.7128 31.3196 50.477 32.1672C49.6437 35.1656 48.5495 38.1836 47.4756 40.4471C47.1749 41.0806 47.4448 41.8377 48.0782 42.1382C48.7119 42.4391 49.4689 42.1691 49.7693 41.5356C50.9031 39.1464 52.0525 35.9795 52.9232 32.8473C53.2252 31.761 53.2255 30.9123 53.0555 30.25L57.7214 20.2607C58.1004 19.491 58.6551 19.1458 59.1712 19.3594C59.5319 19.509 59.8628 19.9452 59.6112 20.6836Z" fill="black"/>
<path d="M20.7174 19.8759L19.8943 26.1522C19.7374 26.9671 19.8464 27.7915 20.2108 28.5394C20.8703 29.8938 22.2311 30.6829 23.645 30.6828C24.2044 30.6828 24.7723 30.5591 25.3082 30.2984L31.0694 27.4939L36.9858 30.3125C37.6547 30.6319 38.4026 30.7466 39.1483 30.6431C40.156 30.5037 41.0493 29.9801 41.6634 29.1689C42.2775 28.3577 42.5388 27.3559 42.3992 26.3464L41.5114 19.9935L45.8916 15.3734C46.4848 14.8076 46.8727 14.0818 47.0141 13.272C47.1891 12.2687 46.9632 11.2572 46.3776 10.4239C45.7919 9.59057 44.9169 9.03517 43.9166 8.86061L37.6033 7.74218L34.475 1.98754C34.4749 1.98741 34.4747 1.98716 34.4746 1.98691C34.1183 1.33235 33.5818 0.800687 32.9232 0.449543C32.0265 -0.0288039 30.9971 -0.129475 30.0249 0.166699C29.0526 0.462619 28.2537 1.11946 27.7751 2.01661L24.7608 7.67502L18.4154 8.85426C17.6414 8.97563 16.9337 9.32715 16.3677 9.87177C15.6347 10.5768 15.2201 11.5252 15.2004 12.5422C15.1808 13.5592 15.5581 14.523 16.2643 15.2571L20.7174 19.8759ZM18.128 11.7016C18.3186 11.5183 18.5567 11.4006 18.8167 11.3615C18.8311 11.3594 18.8456 11.357 18.8599 11.3543L25.8258 10.0598C26.2056 9.98907 26.5325 9.74951 26.7143 9.40853L30.0157 3.21108C30.1749 2.91263 30.4408 2.69427 30.7642 2.59576C30.886 2.55856 31.0105 2.54015 31.1344 2.54015C31.3393 2.54015 31.5424 2.59043 31.7286 2.68983C31.9478 2.80675 32.1262 2.98334 32.2444 3.20029L35.6646 9.49206C35.8492 9.8314 36.1783 10.0684 36.5586 10.1357L43.477 11.3613C43.8123 11.4197 44.1045 11.6053 44.3001 11.8837C44.4958 12.1621 44.5713 12.5 44.5129 12.8353C44.4648 13.1105 44.3318 13.3563 44.1283 13.5465C44.1095 13.5641 44.0909 13.5823 44.0732 13.6012L39.2483 18.6902C38.9825 18.9705 38.8588 19.3567 38.9123 19.7393L39.8844 26.6961C39.9804 27.3898 39.4942 28.0322 38.8008 28.128C38.5484 28.1631 38.2991 28.1259 38.0787 28.0207L31.6095 24.9388C31.2607 24.7728 30.8551 24.7743 30.5078 24.9435L24.1967 28.0154C23.5653 28.3232 22.8012 28.0592 22.4935 27.4275C22.3693 27.1728 22.3339 26.8917 22.3909 26.6148C22.3972 26.5847 22.4023 26.5543 22.4062 26.5238L23.3143 19.5999C23.3646 19.2168 23.2376 18.8318 22.9695 18.5536L18.093 13.4959C17.858 13.2517 17.7322 12.9305 17.7388 12.5915C17.7454 12.2527 17.8835 11.9367 18.128 11.7016Z" fill="black"/>
<path d="M23.2368 41.0984C22.5358 41.0984 21.9678 41.6669 21.9678 42.3679C21.9678 43.069 22.5365 43.6375 23.2377 43.6375C23.9389 43.6375 24.5072 43.069 24.5072 42.3679C24.5072 41.6669 23.9387 41.0984 23.2377 41.0984H23.2368Z" fill="black"/>
</svg>
