<svg width="54" height="65" viewBox="0 0 54 65" fill="none" xmlns="http://www.w3.org/2000/svg">
<path d="M27.2241 65C36.0165 65 43.1441 57.8724 43.1441 49.0801C43.1441 40.2878 36.0165 33.1602 27.2241 33.1602C18.4318 33.1602 11.3042 40.2878 11.3042 49.0801C11.3042 57.8724 18.4318 65 27.2241 65Z" fill="black"/>
<path d="M27.2241 62.2324C34.488 62.2324 40.3765 56.3439 40.3765 49.0801C40.3765 41.8162 34.488 35.9277 27.2241 35.9277C19.9603 35.9277 14.0718 41.8162 14.0718 49.0801C14.0718 56.3439 19.9603 62.2324 27.2241 62.2324Z" fill="#C1C1C1"/>
<path fill-rule="evenodd" clip-rule="evenodd" d="M16.7632 30.3799V1.26953H1.74463V24.375L16.7632 30.3799Z" fill="#C10000"/>
<path fill-rule="evenodd" clip-rule="evenodd" d="M16.7632 1.26953V30.3799L27.1352 34.5312L37.52 30.3799V1.26953H27.1352H16.7632Z" fill="white"/>
<path fill-rule="evenodd" clip-rule="evenodd" d="M37.52 1.26953V30.3799L52.5259 24.375V1.26953H37.52Z" fill="#C10000"/>
<path d="M29.1284 35.1025L52.9956 25.5557C53.478 25.3652 53.7954 24.8955 53.7954 24.375V1.26953C53.7954 0.571289 53.2241 0 52.5259 0H1.74463C1.04639 0 0.475098 0.571289 0.475098 1.26953V24.375C0.475098 24.8955 0.79248 25.3652 1.2749 25.5557L25.1421 35.1025H29.1284ZM3.01416 2.53906H15.4937V10.1182C15.4937 10.8164 16.0649 11.3877 16.7632 11.3877C17.4614 11.3877 18.0327 10.8164 18.0327 10.1182V2.53906H36.2505V29.5166L27.1353 33.1602L18.02 29.5166V21.5312C18.02 20.833 17.4487 20.2617 16.7505 20.2617C16.0522 20.2617 15.481 20.833 15.481 21.5312V28.501L3.01416 23.5117V2.53906ZM51.2563 23.5117L38.7769 28.501V2.53906H51.2563V23.5117Z" fill="black"/>
<path d="M16.7632 17.0878C17.4614 17.0878 18.0327 16.5165 18.0327 15.8183C18.0327 15.12 17.4614 14.5488 16.7632 14.5488C16.0649 14.5488 15.4937 15.12 15.4937 15.8183C15.4937 16.5292 16.0522 17.0878 16.7632 17.0878Z" fill="black"/>
<path d="M31.9595 12.8477C31.5151 12.8477 31.1851 12.5938 30.9692 12.0733C30.7788 11.629 30.6011 11.3624 30.436 11.2608C30.2964 11.1846 29.9282 11.1466 29.3569 11.1466C28.354 11.1466 27.2495 11.9083 26.0308 13.4444C24.3804 15.501 23.5425 17.4434 23.5425 19.2843C23.5425 20.1729 23.8345 20.9346 24.4058 21.5821C24.9897 22.2423 25.7007 22.5723 26.5259 22.5723C27.2368 22.5723 27.9478 22.3946 28.6714 22.0264C29.0776 21.8233 29.687 21.4171 30.5122 20.8077C30.9058 20.5157 31.1978 20.376 31.4009 20.376C31.6929 20.376 31.9468 20.4903 32.1499 20.7061C32.353 20.9346 32.4546 21.1759 32.4546 21.4551C32.4546 21.7598 32.3276 22.0391 32.061 22.2676C30.2456 23.88 28.4048 24.6925 26.5386 24.6925C25.1167 24.6925 23.8979 24.1466 22.9204 23.0421C21.9683 21.9757 21.4985 20.7188 21.4985 19.2716C21.4985 16.9356 22.4761 14.5362 24.4312 12.086C26.0688 10.0421 27.7192 9.01375 29.3823 9.01375C29.7251 9.01375 30.0298 9.02644 30.2964 9.06453C30.563 9.08992 30.8042 9.1407 31.0073 9.21687C31.2485 8.8614 31.5659 8.68367 31.9468 8.68367C32.4165 8.68367 32.7212 9.00105 32.8481 9.62312C32.9624 10.1817 33.0132 10.8673 33.0132 11.6798C33.0132 11.9591 32.937 12.213 32.7847 12.4288C32.5688 12.7208 32.3022 12.8477 31.9595 12.8477Z" fill="black"/>
</svg>
