<svg width="66" height="65" viewBox="0 0 66 65" fill="none" xmlns="http://www.w3.org/2000/svg">
<g clip-path="url(#clip0)">
<path fill-rule="evenodd" clip-rule="evenodd" d="M39.5933 57.7613L44.6473 57.9733C46.2469 58.0406 47.4047 59.4053 47.4047 60.9719C47.4047 62.5563 45.9892 63.7954 44.4061 63.7293L42.2542 63.6392L39.3534 63.5173C37.7538 63.4501 36.5959 62.0853 36.5959 60.5187C36.5972 58.9356 38.0115 57.6965 39.5933 57.7613Z" fill="#FFDCD5"/>
<path fill-rule="evenodd" clip-rule="evenodd" d="M44.6474 57.9733L39.5934 57.7613L37.6611 57.6801C36.0006 57.6102 34.7983 56.1934 34.7983 54.5672C34.7983 52.9853 36.158 51.7336 37.7246 51.7031C37.7855 51.7056 37.8478 51.7056 37.91 51.7056C40.9556 51.8339 43.9999 51.9608 47.0455 52.089C48.7061 52.1589 49.9083 53.5757 49.9083 55.2019C49.9083 56.846 48.4382 58.1333 46.7954 58.0647L44.6474 57.9733Z" fill="#FFDCD5"/>
<path fill-rule="evenodd" clip-rule="evenodd" d="M14.0923 38.7654H22.5321V62.644H14.0923V38.7654Z" fill="#FF9346"/>
<path fill-rule="evenodd" clip-rule="evenodd" d="M47.0417 45.3198L49.0044 45.2982C50.717 45.2805 52.2176 46.6414 52.177 48.3553C52.1376 50.0488 50.8516 51.4961 49.12 51.5278C45.9449 51.5875 41.0851 51.6459 37.91 51.7056C37.8478 51.703 37.7856 51.7018 37.7247 51.703C36.1581 51.7335 34.7984 52.9853 34.7984 54.5671C34.7984 56.1921 35.9994 57.6102 37.6612 57.68L39.5934 57.7612C38.0116 57.6965 36.5973 58.9343 36.5973 60.5187C36.5973 62.084 37.7551 63.45 39.3547 63.5173L42.2556 63.6392H33.7459C30.0224 63.6392 26.3001 61.5851 22.5766 61.5698H22.5334V39.838H22.5766C29.2493 39.8126 27.8452 36.0421 34.5165 33.5259C36.6405 32.7248 38.5143 33.9499 39.5439 34.478C42.6911 36.2947 42.5235 37.563 42.1629 39.3962L46.9326 39.3175C48.5829 39.2908 50.0277 40.6124 49.9896 42.2615C49.949 43.8941 48.7099 45.2881 47.0417 45.3198Z" fill="#FFDCD5"/>
<path fill-rule="evenodd" clip-rule="evenodd" d="M41.8519 24.1211V3.80859H14.0923L21.6092 13.9648L14.0923 24.1211H41.8519Z" fill="#FF0000"/>
<path fill-rule="evenodd" clip-rule="evenodd" d="M42.1692 39.3567H44.6346L46.9299 39.3187V3.80859C46.9299 2.41211 45.7874 1.26953 44.3909 1.26953C42.9944 1.26953 41.8518 2.41211 41.8518 3.80859V24.1211V36.3556C42.5272 37.3179 42.3888 38.2319 42.1692 39.3567Z" fill="#C7D9DA"/>
<path d="M53.4465 48.3844C53.4732 47.2558 53.0403 46.1817 52.2278 45.3604C51.7936 44.9211 51.2743 44.5796 50.7081 44.3523C51.042 43.743 51.2375 43.0409 51.2553 42.2919C51.2807 41.1861 50.8554 40.1337 50.0569 39.3301C49.5389 38.8083 48.8952 38.4287 48.1995 38.223V3.80859C48.1995 1.70879 46.4907 0 44.3909 0C42.7355 0 41.325 1.06133 40.8007 2.53906H14.0923C13.6124 2.53906 13.1744 2.80947 12.9586 3.2373C12.7428 3.66514 12.7872 4.17803 13.0716 4.56396L20.0299 13.9648L13.0716 23.3657C12.786 23.7517 12.7428 24.2646 12.9586 24.6924C13.1744 25.1202 13.6124 25.3906 14.0923 25.3906H40.5823V33.6223C40.4516 33.541 40.317 33.461 40.1761 33.3785C40.1583 33.3684 40.1393 33.3582 40.1202 33.348C40.0225 33.2973 39.9158 33.2401 39.8028 33.1805C38.6539 32.5635 36.5148 31.4146 34.0658 32.3388C30.8755 33.5423 29.3521 35.0429 28.127 36.2489C26.9108 37.4461 26.05 38.2929 23.775 38.5125C23.6582 37.9323 23.1453 37.4956 22.5309 37.4956H14.0923C13.3915 37.4956 12.8228 38.0644 12.8228 38.7651V62.6437C12.8228 63.3445 13.3915 63.9133 14.0923 63.9133H22.5321C23.139 63.9133 23.6455 63.4867 23.7712 62.918C25.0738 63.0741 26.4068 63.4423 27.7994 63.8282C29.719 64.3602 31.7032 64.9086 33.7446 64.9086H42.2302L44.3541 64.9975C44.4112 65 44.4696 65.0013 44.5268 65.0013C45.6046 65.0013 46.6571 64.5798 47.4391 63.8295C48.2363 63.0652 48.6743 62.0509 48.6743 60.9718C48.6743 60.3078 48.5283 59.6794 48.2681 59.1183C48.8775 58.9177 49.4424 58.5825 49.9121 58.1318C50.7297 57.3473 51.1804 56.3063 51.1804 55.2005C51.1804 54.2268 50.8744 53.3267 50.3552 52.5992C52.116 52.0444 53.4008 50.3813 53.4465 48.3844ZM48.7175 42.2335C48.6946 43.2352 47.9482 44.0324 47.0189 44.0502C47.0176 44.0502 47.0163 44.0502 47.0151 44.0502C47.0138 44.0502 47.0125 44.0502 47.0112 44.0502L43.0871 44.1467C42.9995 43.324 42.9614 42.2398 43.2204 40.6491L46.9516 40.5882C47.4378 40.578 47.9126 40.7735 48.2567 41.1201C48.5626 41.4286 48.7264 41.8247 48.7175 42.2335ZM44.3909 2.53906C45.0904 2.53906 45.6605 3.10908 45.6605 3.80859V38.0694L43.6152 38.1037C43.6318 37.5972 43.5746 37.0792 43.3791 36.5485C43.3093 36.3594 43.223 36.1753 43.1214 35.9937V3.80859C43.1214 3.10908 43.6914 2.53906 44.3909 2.53906ZM16.6111 22.8516L22.6299 14.7202C22.9625 14.2721 22.9625 13.6589 22.6299 13.2095L16.6111 5.07812H40.5823V22.8516H16.6111ZM28.4761 61.3793C26.9577 60.9591 25.3975 60.5274 23.8017 60.3662V56.4154C23.8017 55.7146 23.2329 55.1459 22.5321 55.1459C21.8314 55.1459 21.2626 55.7146 21.2626 56.4154V61.3729H15.3618V40.0347H21.2626V44.9909C21.2626 45.6917 21.8314 46.2605 22.5321 46.2605C23.2329 46.2605 23.8017 45.6917 23.8017 44.9909V41.0579C27.1367 40.7875 28.4888 39.4583 29.9094 38.0593C31.0723 36.9142 32.2745 35.7284 34.9621 34.7153C36.3307 34.1986 37.6434 34.9045 38.6019 35.4187C38.7187 35.4821 38.8291 35.5405 38.932 35.5938C40.119 36.2819 40.7944 36.8824 40.9962 37.4283C41.1574 37.8638 41.0648 38.3919 40.8883 39.2869C40.8451 39.5065 40.8007 39.7338 40.7588 39.9699C40.2992 42.5839 40.5151 44.1454 40.6572 45.1775C40.6877 45.3959 40.7144 45.5889 40.7283 45.7514C40.6445 45.8136 40.4414 45.9088 40.1342 45.9354C39.5743 45.985 38.9904 45.7856 38.5714 45.4061C37.4999 44.4361 37.4364 43.7519 37.3323 42.6182C37.2904 42.1713 37.2447 41.6635 37.1254 41.1125C36.9781 40.427 36.3028 39.9902 35.6172 40.1388C34.9317 40.286 34.4962 40.9614 34.6435 41.647C34.7298 42.0494 34.7666 42.4392 34.8047 42.8518C34.8682 43.5348 34.9355 44.2635 35.2389 45.0366C34.2613 47.7725 31.0317 49.4355 29.0093 49.4355C28.3085 49.4355 27.7398 50.0043 27.7398 50.7051C27.7398 51.4059 28.3085 51.9746 29.0093 51.9746C30.4121 51.9746 32.2136 51.4465 33.8411 50.4245C34.0481 50.8777 34.3375 51.298 34.7057 51.6661C34.7171 51.6775 34.7285 51.6877 34.74 51.6979C33.9605 52.4748 33.5314 53.4904 33.5314 54.5683C33.5314 56.2923 34.4861 57.7827 35.8927 58.5C35.5258 59.1081 35.3303 59.7987 35.3303 60.5186C35.3303 61.1813 35.4763 61.8084 35.7365 62.3683H33.7472C32.0473 62.3683 30.3131 61.8884 28.4761 61.3793ZM45.6808 61.9963C45.3532 62.3099 44.9076 62.48 44.4595 62.4609L39.408 62.2489C38.5447 62.2121 37.8681 61.4529 37.8681 60.5186C37.8681 60.139 38.0293 59.7759 38.3213 59.494C38.6323 59.1957 39.05 59.0281 39.4753 59.0281C39.4969 59.0281 39.5185 59.0281 39.5401 59.0294L44.5941 59.2414C45.4573 59.2782 46.134 60.0374 46.134 60.9705C46.134 61.3514 45.9728 61.7145 45.6808 61.9963ZM48.1538 56.2999C47.8047 56.6351 47.3286 56.8153 46.85 56.795L44.707 56.7049C44.7045 56.7049 44.7032 56.7049 44.7007 56.7049L39.6467 56.4929L37.7145 56.4116C36.7915 56.3735 36.0692 55.5636 36.0692 54.5683C36.0692 54.1607 36.2418 53.771 36.5554 53.4701C36.8918 53.1477 37.3463 52.9687 37.8084 52.975C37.8237 52.975 37.8389 52.9763 37.8541 52.9763C37.8655 52.9763 37.877 52.9763 37.8897 52.9763L46.9947 53.3584C47.9177 53.3965 48.6401 54.2077 48.6401 55.203C48.6401 55.6093 48.4674 55.999 48.1538 56.2999ZM49.0971 50.2582C47.5076 50.2874 45.4612 50.3179 43.482 50.3471C41.5154 50.3763 39.4829 50.4055 37.8986 50.4359C37.8884 50.4359 37.8782 50.4359 37.8681 50.4359C37.3603 50.4385 36.8639 50.2366 36.5021 49.8735C36.172 49.5422 35.9968 49.1182 36.007 48.6789C36.007 48.6688 36.007 48.6599 36.007 48.6497V48.6002C36.3497 48.2143 36.662 47.7966 36.935 47.3472C37.8655 48.1584 38.9599 48.4809 39.9527 48.4809C40.6141 48.4809 41.2311 48.3374 41.7211 48.1025C42.3952 47.7788 42.8751 47.2786 43.11 46.6857L47.0684 46.5893L49.0184 46.5689H49.0387C49.5567 46.5689 50.0594 46.7784 50.4225 47.1453C50.7462 47.4729 50.9189 47.8931 50.9087 48.326C50.8833 49.3911 50.0886 50.2404 49.0971 50.2582Z" fill="black"/>
<path d="M22.5322 49.4342C21.8314 49.4342 21.2627 50.003 21.2627 50.7037C21.2627 51.4045 21.8314 51.9733 22.5322 51.9733C23.233 51.9733 23.8018 51.4045 23.8018 50.7037V50.7025C23.8018 50.0017 23.233 49.4342 22.5322 49.4342Z" fill="black"/>
<path fill-rule="evenodd" clip-rule="evenodd" d="M61.7441 29.0139L59.4881 28.6978L58.3316 26.7402C58.2529 26.5866 58.1247 26.4558 57.9571 26.3733C57.547 26.1752 57.0545 26.3466 56.8551 26.7567L55.8573 28.8032L53.5912 29.3097C53.4401 29.344 53.2954 29.4214 53.1799 29.5408C52.865 29.867 52.8739 30.3875 53.2002 30.7024L54.8391 32.283L54.6233 34.5694C54.6017 34.7332 54.6297 34.9033 54.7122 35.0607C54.9255 35.4619 55.4231 35.6155 55.8243 35.4022L57.8352 34.332L59.9134 35.2308C60.0696 35.3121 60.2524 35.3451 60.4378 35.3121C60.8859 35.2334 61.1855 34.8042 61.1055 34.3561L60.7094 32.1154L62.2456 30.3723C62.3484 30.2555 62.4182 30.1082 62.4424 29.9419C62.5084 29.4938 62.1948 29.0774 61.7441 29.0139Z" fill="#FF8500"/>
<path d="M61.1601 36.0546C60.99 36.1498 60.8021 36.2158 60.6054 36.2514C60.2283 36.3174 59.8513 36.2641 59.5097 36.0952L57.8784 35.3893L56.2724 36.2437C55.8522 36.4672 55.3723 36.5129 54.9191 36.3732C54.4659 36.2336 54.0939 35.9276 53.8718 35.5087C53.7016 35.1875 53.6344 34.8282 53.6762 34.4689L53.8476 32.6522L52.5387 31.3903C51.8354 30.7099 51.8151 29.5851 52.4943 28.8817C52.7368 28.6316 53.0428 28.459 53.3817 28.3828L55.201 27.9766L55.997 26.3414C56.2026 25.9161 56.5644 25.5949 57.0113 25.44C57.4595 25.2839 57.9419 25.3118 58.3697 25.5187C58.7099 25.6838 58.9829 25.9453 59.1606 26.2779L60.0721 27.8204L61.8749 28.073C62.3446 28.1391 62.7597 28.3853 63.0454 28.7637C63.331 29.1433 63.4504 29.6104 63.3844 30.0789C63.3348 30.4255 63.1876 30.7454 62.9591 31.0057L61.7263 32.4034L62.0425 34.1922C62.125 34.6594 62.0209 35.1304 61.7492 35.5201C61.5943 35.7435 61.3925 35.9251 61.1601 36.0546ZM55.5907 34.4486L57.7933 33.2768L60.128 34.2874L59.6938 31.8309L61.376 29.924L58.9029 29.5774L57.608 27.3875L56.5137 29.6333L54.0368 30.1868L55.8306 31.9184L55.5907 34.4486Z" fill="black"/>
<path fill-rule="evenodd" clip-rule="evenodd" d="M37.3334 11.2555L34.086 10.7997L32.4203 7.98133C32.3074 7.75916 32.1233 7.57127 31.8808 7.45448C31.2905 7.16883 30.5808 7.41512 30.2952 8.00545L28.8593 10.952L25.5966 11.6807C25.3783 11.7303 25.1713 11.8407 25.005 12.0134C24.5505 12.4831 24.5645 13.2321 25.0342 13.6866L27.393 15.9629L27.082 19.2548C27.0515 19.4896 27.0909 19.7359 27.2102 19.9619C27.5174 20.5395 28.2347 20.7604 28.8123 20.4532L31.7081 18.912L34.6992 20.2069C34.9239 20.3237 35.1867 20.3707 35.4545 20.3237C36.1007 20.2095 36.5311 19.5937 36.4168 18.9475L35.8468 15.7217L38.0596 13.2131C38.2081 13.0455 38.3084 12.8322 38.3427 12.5935C38.4328 11.9473 37.9809 11.3469 37.3334 11.2555Z" fill="#FFB600"/>
<path d="M28.2576 21.5464C28.0469 21.5464 27.8361 21.5147 27.6279 21.4512C27.082 21.2836 26.6339 20.9142 26.3673 20.4102C26.1616 20.0217 26.0804 19.5876 26.1337 19.1534L26.4003 16.3312L24.3716 14.3736C23.5248 13.5547 23.5007 12.2002 24.3183 11.3534C24.6103 11.0525 24.9797 10.8443 25.3872 10.7529L28.203 10.1232L29.4383 7.58794C29.9512 6.52789 31.2334 6.08228 32.2947 6.59644C32.7073 6.79576 33.0374 7.11441 33.2507 7.51812L34.6713 9.92007L37.4668 10.3111C38.6335 10.4761 39.4485 11.5603 39.2835 12.727C39.2238 13.1447 39.0474 13.5306 38.7719 13.8429L36.8625 16.0075L37.3525 18.7827C37.5582 19.9443 36.78 21.0564 35.6184 21.2621C35.1613 21.342 34.703 21.276 34.2917 21.0704L31.7488 19.9697L29.258 21.2951C28.9444 21.4614 28.6029 21.5464 28.2576 21.5464ZM31.3629 8.28873C31.2753 8.28873 31.1915 8.33824 31.1509 8.42203L29.5132 11.7837L25.8036 12.6127C25.7592 12.6229 25.7211 12.6445 25.6881 12.6788C25.6005 12.7702 25.603 12.9162 25.6944 13.005L28.3833 15.5987L28.0253 19.3806C28.019 19.4289 28.0278 19.4746 28.0507 19.519C28.1104 19.632 28.2525 19.6764 28.3655 19.6155L31.665 17.8597L35.1398 19.3667C35.1867 19.3908 35.2362 19.3984 35.2896 19.3895C35.4165 19.3667 35.5016 19.2448 35.48 19.1166L34.83 15.4387L37.3449 12.5861C37.3652 12.5632 37.3906 12.5239 37.3995 12.4629C37.4173 12.336 37.3284 12.2179 37.2027 12.2002L33.4995 11.6796L31.5724 8.41568C31.5482 8.36998 31.5127 8.33443 31.4657 8.31158C31.4327 8.29634 31.3972 8.28873 31.3629 8.28873Z" fill="black"/>
<path fill-rule="evenodd" clip-rule="evenodd" d="M12.8227 29.0268L10.568 28.7031L9.41778 26.7417C9.33907 26.5868 9.21211 26.456 9.04453 26.3735C8.63575 26.1742 8.1419 26.343 7.94131 26.7518L6.93711 28.7945L4.66973 29.2934C4.51739 29.3264 4.37393 29.4039 4.25713 29.5232C3.94102 29.8482 3.94737 30.3687 4.27364 30.6861L5.90625 32.273L5.68155 34.5594C5.65996 34.7232 5.68662 34.8933 5.76914 35.0508C5.98116 35.4532 6.47881 35.6081 6.87998 35.3961L8.89473 34.3322L10.9691 35.2386C11.124 35.3212 11.3068 35.3542 11.4935 35.3212C11.9416 35.2437 12.2425 34.8172 12.165 34.3677L11.7766 32.1258L13.319 30.389C13.4219 30.2722 13.493 30.125 13.5171 29.9599C13.5844 29.5105 13.2733 29.0928 12.8227 29.0268Z" fill="#FF8500"/>
<path d="M12.2145 36.065C12.0431 36.1589 11.8565 36.2249 11.6585 36.2592C11.2814 36.3239 10.9043 36.2694 10.5641 36.0992L8.93531 35.387L7.32554 36.2364C6.90533 36.4572 6.42417 36.5017 5.97222 36.3608C5.519 36.2198 5.14829 35.9114 4.9274 35.4924C4.75855 35.1712 4.69253 34.8119 4.7357 34.4514L4.91343 32.6347L3.60962 31.3677C2.90757 30.6847 2.89234 29.5599 3.57408 28.8591C3.81783 28.609 4.12505 28.4389 4.46275 28.364L6.28326 27.9641L7.0856 26.3327C7.29253 25.9087 7.65562 25.5888 8.10376 25.4339C8.55318 25.279 9.03433 25.3095 9.46089 25.5177C9.79986 25.684 10.0728 25.9468 10.2493 26.2794L11.1557 27.8244L12.9572 28.0834C13.4269 28.152 13.8408 28.3983 14.1252 28.7779C14.4095 29.1575 14.5276 29.6259 14.459 30.0944C14.4083 30.4409 14.261 30.7609 14.0299 31.0199L12.7921 32.4138L13.1019 34.2038C13.1832 34.671 13.0765 35.142 12.8036 35.5305C12.65 35.7565 12.4468 35.9367 12.2145 36.065ZM6.65015 34.4412L8.8566 33.2771L11.1875 34.2952L10.7622 31.8374L12.4506 29.9357L9.97886 29.5802L8.69156 27.3852L7.5896 29.6272L5.11148 30.1718L6.89898 31.9098L6.65015 34.4412Z" fill="black"/>
</g>
<defs>
<clipPath id="clip0">
<rect width="65" height="65" fill="white" transform="translate(0.635254)"/>
</clipPath>
</defs>
</svg>
