<svg width="14" height="14" viewBox="0 0 14 14" fill="none" xmlns="http://www.w3.org/2000/svg">
<path d="M13.8678 13.2383L10.2532 9.68153C11.1997 8.65314 11.7813 7.29308 11.7813 5.79648C11.7809 2.59497 9.14388 0 5.89074 0C2.6376 0 0.000610352 2.59497 0.000610352 5.79648C0.000610352 8.99799 2.6376 11.593 5.89074 11.593C7.29632 11.593 8.58549 11.1068 9.59811 10.2985L13.2267 13.8694C13.4035 14.0435 13.6906 14.0435 13.8674 13.8694C14.0446 13.6952 14.0446 13.4125 13.8678 13.2383ZM5.89074 10.7011C3.13823 10.7011 0.906889 8.50525 0.906889 5.79648C0.906889 3.0877 3.13823 0.891822 5.89074 0.891822C8.64327 0.891822 10.8746 3.0877 10.8746 5.79648C10.8746 8.50525 8.64327 10.7011 5.89074 10.7011Z" fill="#718492"/>
</svg>
